<?xml version="1.0" encoding="utf-8"?>
<!-- Generator: Adobe Illustrator 16.0.0, SVG Export Plug-In . SVG Version: 6.00 Build 0)  -->
<!DOCTYPE svg PUBLIC "-//W3C//DTD SVG 1.1//EN" "http://www.w3.org/Graphics/SVG/1.1/DTD/svg11.dtd">
<svg version="1.1" id="Layer_1" xmlns="http://www.w3.org/2000/svg" xmlns:xlink="http://www.w3.org/1999/xlink" x="0px" y="0px"
	 width="52px" height="48px" viewBox="0 0 52 48" enable-background="new 0 0 52 48" xml:space="preserve">
<g>
	<path fill="none" stroke="#EDB056" stroke-width="1.5" stroke-linecap="round" stroke-linejoin="round" stroke-miterlimit="10" d="
		M17.505,44.432c0,0.242-0.193,0.433-0.43,0.433H7.053c-0.238,0-0.43-0.19-0.43-0.433V5.917c0-0.236,0.192-0.43,0.43-0.43h10.022
		c0.237,0,0.43,0.194,0.43,0.43V44.432z"/>
	<path fill="none" stroke="#EDB056" stroke-width="1.5" stroke-linecap="round" stroke-linejoin="round" stroke-miterlimit="10" d="
		M17.504,19.664l7.219-13.621c0.111-0.21,0.372-0.291,0.58-0.181l8.856,4.696c0.21,0.112,0.29,0.371,0.178,0.579L17.491,42.922"/>
	<path fill="none" stroke="#EDB056" stroke-width="1.5" stroke-linecap="round" stroke-linejoin="round" stroke-miterlimit="10" d="
		M26.667,25.604l12.848-7.842c0.204-0.124,0.467-0.059,0.592,0.142l5.224,8.555c0.122,0.203,0.061,0.465-0.144,0.59L17.505,44.003"
		/>
	<path fill="none" stroke="#EDB056" stroke-width="1.5" stroke-linecap="round" stroke-linejoin="round" stroke-miterlimit="10" d="
		M34.365,33.905l11.498-0.058c0.239-0.003,0.433,0.189,0.434,0.428l0.047,10.021c0.001,0.237-0.191,0.433-0.429,0.433l-28.912,0.135
		"/>
	<circle fill="#EDB056" cx="11.813" cy="40.389" r="1.11"/>
	
		<line fill="none" stroke="#EDB056" stroke-width="1.5" stroke-linecap="round" stroke-linejoin="round" stroke-miterlimit="10" x1="24.143" y1="7.614" x2="26.491" y2="25.916"/>
	
		<line fill="none" stroke="#EDB056" stroke-width="1.5" stroke-linecap="round" stroke-linejoin="round" stroke-miterlimit="10" x1="19.163" y1="16.874" x2="20.997" y2="36.183"/>
	
		<line fill="none" stroke="#EDB056" stroke-width="1.5" stroke-linecap="round" stroke-linejoin="round" stroke-miterlimit="10" x1="27.17" y1="38.42" x2="27.17" y2="44.364"/>
	
		<line fill="none" stroke="#EDB056" stroke-width="1.5" stroke-linecap="round" stroke-linejoin="round" stroke-miterlimit="10" x1="32.753" y1="34.982" x2="32.753" y2="44.648"/>
	
		<line fill="none" stroke="#EDB056" stroke-width="1.5" stroke-linecap="round" stroke-linejoin="round" stroke-miterlimit="10" x1="39.482" y1="33.981" x2="39.482" y2="44.396"/>
</g>
</svg>
