<svg xmlns="http://www.w3.org/2000/svg" width="16" height="16" viewBox="0 0 511.97 512">
	<path fill="#fff" d="M255.98,0L255.98,31.99C379.48,31.99 479.97,132.49 479.97,255.99L511.97,255.99C511.97,114.62 397.35,0 255.98,0M415.98,255.99C415.98,167.61 344.35,95.99 255.98,95.99L255.98,127.99C326.57,127.99 383.98,185.43 383.98,255.99ZM287.98,255.99L319.98,255.99C319.98,220.64 291.32,191.99 255.98,191.99L255.98,223.99C273.62,223.99 287.98,238.36 287.98,255.99M462.47,468.2L428.54,502.14C422.47,508.17 404.72,511.98 404.19,511.98C296.76,512.89 193.32,470.7 117.31,394.67C41.08,318.45 -1.14,214.61 0.02,106.87C0.02,106.8 3.91,89.56 9.96,83.56L43.89,49.59C56.35,37.15 80.19,31.53 96.89,37.09L104.05,39.49C120.75,45.06 138.2,63.49 142.83,80.46L159.92,143.18C164.56,160.18 158.33,184.36 145.89,196.8L123.2,219.49C145.45,301.95 210.12,366.61 292.54,388.89L315.23,366.2C327.67,353.76 351.91,347.54 368.91,352.17L431.63,369.29C448.57,373.89 467.01,391.32 472.6,408.04L474.98,415.2C480.53,431.92 474.91,455.76 462.47,468.2"/>
</svg>