<?xml version="1.0" encoding="utf-8"?>
<!-- Generator: Adobe Illustrator 16.0.0, SVG Export Plug-In . SVG Version: 6.00 Build 0)  -->
<!DOCTYPE svg PUBLIC "-//W3C//DTD SVG 1.1//EN" "http://www.w3.org/Graphics/SVG/1.1/DTD/svg11.dtd">
<svg version="1.1" id="Layer_1" xmlns="http://www.w3.org/2000/svg" xmlns:xlink="http://www.w3.org/1999/xlink" x="0px" y="0px"
	 width="280px" height="106px" viewBox="0 0 280 106" enable-background="new 0 0 280 106" xml:space="preserve">
<line fill="none" stroke="#5A5456" stroke-miterlimit="10" x1="27.885" y1="74.134" x2="76.718" y2="74.134"/>
<line fill="none" stroke="#5A5456" stroke-miterlimit="10" x1="21.432" y1="79.83" x2="59.62" y2="79.83"/>
<line fill="none" stroke="#5A5456" stroke-miterlimit="10" x1="38.584" y1="86.33" x2="67.917" y2="86.33"/>
<line fill="none" stroke="#5A5456" stroke-miterlimit="10" x1="195.027" y1="74.134" x2="244.609" y2="74.134"/>
<line fill="none" stroke="#5A5456" stroke-miterlimit="10" x1="212.451" y1="79.83" x2="251.139" y2="79.83"/>
<line fill="none" stroke="#5A5456" stroke-miterlimit="10" x1="204.934" y1="86.33" x2="233.266" y2="86.33"/>
<g>
	<g>
		<path fill="none" stroke="#E2A459" stroke-width="1.1" stroke-miterlimit="10" d="M142.814,99.389c-1.16,0-2.187,0-3.022,0
			c-0.678-3.023-3.522-4.701-6.436-4.807c-2.961-0.107-5.871,2.346-6.638,4.811c-0.832,0-3.597-0.009-3.597-0.009s0-3.139,0-3.202
			c0-5.447-0.001-10.896,0-16.34c0-0.068-0.001-0.135,0-0.201c9.97,0,29.884,0,39.854,0c0.061,0.008,0.118,0.021,0.18,0.026
			c0.535,0.063,1.029,0.204,1.438,0.487c0.67,0.466,0.932,1.074,0.934,1.746c0.007,5.774,0.002,11.55,0.002,17.326
			c0,0.051,0,0.102,0,0.16c-2.282,0-7.082,0-11.06,0"/>
		<path fill="none" stroke="#E2A459" stroke-width="1.1" stroke-miterlimit="10" d="M149.807,99.389c-0.802,0-3.773,0-4.522,0"/>
		<path fill="none" stroke="#E2A459" stroke-width="1.1" stroke-miterlimit="10" d="M183.805,99.912
			c-0.162,0.566-0.582,0.73-1.119,0.723c-0.56-0.008-1.748-0.031-2.309-0.021c-0.182,0.005-0.078-0.082-0.136-0.273
			c-0.833-2.771-2.103-4.904-4.937-5.482c-2.396-0.489-4.752,0.093-6.533,1.775c-0.045,0.045-0.162,0.141-0.185,0.145
			c0-5.254,0.134-9.949,0.134-15.227c0.092,0,0.174,0,0.256,0c2.891,0,5.776,0.004,8.666-0.003c0.867-0.001,1.575,0.363,2.067,1.032
			c1.288,1.752,2.433,3.595,3.296,5.6c0.361,0.844,0.66,1.709,0.768,2.627c0.004,0.045,0.021,0.088,0.031,0.131
			C183.805,93.928,183.805,96.92,183.805,99.912z M169.273,88.413h13.297"/>
		<path fill="none" stroke="#E2A459" stroke-width="1.1" stroke-miterlimit="10" d="M137.513,101.275
			c0.007,2.371-1.967,4.283-4.333,4.233c-2.299-0.048-4.176-1.95-4.156-4.286c0.021-2.306,1.931-4.207,4.25-4.197
			C135.631,97.037,137.513,98.922,137.513,101.275z"/>
		<path fill="none" stroke="#E2A459" stroke-width="1.1" stroke-miterlimit="10" d="M173.577,105.507
			c-2.366,0-4.238-1.896-4.237-4.295c0-2.292,1.919-4.181,4.246-4.187c2.357-0.004,4.248,1.902,4.246,4.279
			C177.83,103.623,175.924,105.507,173.577,105.507z"/>
		<line fill="none" stroke="#E2A459" stroke-width="1.1" stroke-miterlimit="10" x1="175.58" y1="81.832" x2="175.717" y2="88.55"/>
	</g>
	<polyline fill="none" stroke="#E2A459" stroke-width="1.1" stroke-miterlimit="10" points="120.745,94.537 93.692,94.537 
		93.692,53.145 149.076,53.145 149.076,77.538 	"/>
	<g>
		
			<line fill="none" stroke="#E2A459" stroke-width="1.1" stroke-miterlimit="10" x1="156.434" y1="74.076" x2="156.57" y2="77.172"/>
		<polyline fill="none" stroke="#E2A459" stroke-width="1.1" stroke-miterlimit="10" points="156.064,65.645 156.186,68.391 
			156.313,71.325 		"/>
		<polyline fill="none" stroke="#E2A459" stroke-width="1.1" stroke-miterlimit="10" points="142.002,51.144 142.678,35.521 
			154.74,35.521 155.068,42.991 155.143,44.635 155.695,57.241 155.952,63.098 		"/>
		<polygon fill="none" stroke="#E2A459" stroke-width="1.1" stroke-miterlimit="10" points="154.84,32.893 142.578,32.893 
			142.678,30.26 154.74,30.26 		"/>
	</g>
	<polyline fill="none" stroke="#E2A459" stroke-width="1.1" stroke-miterlimit="10" points="98.261,78.809 98.261,75.159 
		111.24,75.159 111.24,94.354 	"/>
	<line fill="none" stroke="#E2A459" stroke-width="1.1" stroke-miterlimit="10" x1="98.261" y1="84.848" x2="98.261" y2="80.277"/>
	<polyline fill="none" stroke="#E2A459" stroke-width="1.1" stroke-miterlimit="10" points="98.261,94.354 98.261,89.053 
		98.261,86.865 	"/>
	
		<rect x="98.261" y="59.259" fill="none" stroke="#E2A459" stroke-width="1.1" stroke-miterlimit="10" width="12.979" height="4.755"/>
	
		<rect x="115.169" y="59.259" fill="none" stroke="#E2A459" stroke-width="1.1" stroke-miterlimit="10" width="12.978" height="4.755"/>
	
		<rect x="132.077" y="59.259" fill="none" stroke="#E2A459" stroke-width="1.1" stroke-miterlimit="10" width="12.978" height="4.755"/>
	<polyline fill="none" stroke="#E2A459" stroke-width="1.1" stroke-miterlimit="10" points="115.169,94.354 115.169,75.159 
		128.146,75.159 128.146,77.538 	"/>
	<polyline fill="none" stroke="#E2A459" stroke-width="1.1" stroke-miterlimit="10" points="132.533,77.538 132.533,75.159 
		145.514,75.159 145.514,77.538 	"/>
	<path fill="none" stroke="#E2A459" stroke-width="1.1" stroke-miterlimit="10" d="M142.13,21.836
		c-1.461-1.619-4.3-4.493-2.01-6.141c1.463-1.053,6.233,0.096,4.203-2.632c-0.911-1.229-4.569-4.037,0-5.616
		c2.415-0.834-0.261-3.891,2.376-5.789c2.193-1.579,8.955,0.351,8.592,3.685c-0.26,2.374-4.594,4.613-0.732,6.14
		c3.108,1.229,1.463,5.967-2.191,9.125c-5.102,4.406-2.658,6.879-3.84,6.315C148.162,26.75,144.506,24.467,142.13,21.836z"/>
</g>
</svg>
