<?xml version="1.0" encoding="utf-8"?>
<!-- Generator: Adobe Illustrator 16.0.0, SVG Export Plug-In . SVG Version: 6.00 Build 0)  -->
<!DOCTYPE svg PUBLIC "-//W3C//DTD SVG 1.1//EN" "http://www.w3.org/Graphics/SVG/1.1/DTD/svg11.dtd">
<svg version="1.1" id="Layer_1" xmlns="http://www.w3.org/2000/svg" xmlns:xlink="http://www.w3.org/1999/xlink" x="0px" y="0px"
	 width="280px" height="106px" viewBox="0 0 280 106" enable-background="new 0 0 280 106" xml:space="preserve">
<line fill="none" stroke="#5A5456" stroke-miterlimit="10" x1="11.468" y1="73.748" x2="60.301" y2="73.748"/>
<line fill="none" stroke="#5A5456" stroke-miterlimit="10" x1="4.932" y1="79.944" x2="43.119" y2="79.944"/>
<line fill="none" stroke="#5A5456" stroke-miterlimit="10" x1="22.417" y1="85.902" x2="51.75" y2="85.902"/>
<line fill="none" stroke="#5A5456" stroke-miterlimit="10" x1="223.889" y1="73.748" x2="273.471" y2="73.748"/>
<line fill="none" stroke="#5A5456" stroke-miterlimit="10" x1="241.313" y1="79.777" x2="280" y2="79.777"/>
<line fill="none" stroke="#5A5456" stroke-miterlimit="10" x1="233.128" y1="85.902" x2="261.461" y2="85.902"/>
<g>
	<path fill="none" stroke="#E2A459" stroke-width="1.1" stroke-linejoin="round" stroke-miterlimit="10" d="M121.657,98.505
		c0,0.732-0.604,1.328-1.352,1.328H89.2c-0.748,0-1.353-0.596-1.353-1.328V57.963c0-0.73,0.605-1.324,1.353-1.324h31.104
		c0.748,0,1.352,0.594,1.352,1.324V98.505z"/>
	<g>
		<path fill="#E2A459" d="M117.659,60.615c0.109,0,0.197,0.102,0.197,0.227v5.379c0,0.124-0.09,0.229-0.197,0.229H91.434
			c-0.106,0-0.196-0.105-0.196-0.229v-5.379c0-0.125,0.088-0.227,0.196-0.227H117.659 M117.659,59.516H91.434
			c-0.716,0-1.296,0.593-1.296,1.326v5.379c0,0.733,0.58,1.329,1.296,1.329h26.225c0.716,0,1.297-0.596,1.297-1.329v-5.379
			C118.956,60.108,118.375,59.516,117.659,59.516L117.659,59.516z"/>
	</g>
	<g>
		<path fill="#E2A459" d="M94.7,71.579v1.853H90.75v-1.853H94.7 M95.8,70.479H89.65v4.052H95.8V70.479L95.8,70.479z"/>
	</g>
	<g>
		<path fill="#E2A459" d="M118.303,71.375v1.854h-4.361v-1.854H118.303 M119.403,70.275h-6.561v4.053h6.561V70.275L119.403,70.275z"
			/>
	</g>
	<g>
		<path fill="#E2A459" d="M94.7,77.253v1.854H90.75v-1.854H94.7 M95.8,76.153H89.65v4.054H95.8V76.153L95.8,76.153z"/>
	</g>
	<g>
		<path fill="#E2A459" d="M118.303,77.049v1.854h-4.361v-1.854H118.303 M119.403,75.949h-6.561v4.054h6.561V75.949L119.403,75.949z"
			/>
	</g>
	<g>
		<path fill="#E2A459" d="M94.7,83.002v1.855H90.75v-1.855H94.7 M95.8,81.902H89.65v4.055H95.8V81.902L95.8,81.902z"/>
	</g>
	<g>
		<path fill="#E2A459" d="M94.7,88.788v1.854H90.75v-1.854H94.7 M95.8,87.688H89.65v4.053H95.8V87.688L95.8,87.688z"/>
	</g>
	<g>
		<path fill="#E2A459" d="M102.509,71.579v1.853h-3.95v-1.853H102.509 M103.609,70.479h-6.15v4.052h6.15V70.479L103.609,70.479z"/>
	</g>
	<g>
		<path fill="#E2A459" d="M102.509,77.253v1.854h-3.95v-1.854H102.509 M103.609,76.153h-6.15v4.054h6.15V76.153L103.609,76.153z"/>
	</g>
	<g>
		<path fill="#E2A459" d="M102.509,83.002v1.855h-3.95v-1.855H102.509 M103.609,81.902h-6.15v4.055h6.15V81.902L103.609,81.902z"/>
	</g>
	<g>
		<path fill="#E2A459" d="M102.509,88.788v1.854h-3.95v-1.854H102.509 M103.609,87.688h-6.15v4.053h6.15V87.688L103.609,87.688z"/>
	</g>
	<g>
		<path fill="#E2A459" d="M110.318,71.579v1.853h-3.951v-1.853H110.318 M111.418,70.479h-6.151v4.052h6.151V70.479L111.418,70.479z"
			/>
	</g>
	<g>
		<path fill="#E2A459" d="M110.318,77.253v1.854h-3.951v-1.854H110.318 M111.418,76.153h-6.151v4.054h6.151V76.153L111.418,76.153z"
			/>
	</g>
	<g>
		<path fill="#E2A459" d="M110.318,83.002v1.855h-3.951v-1.855H110.318 M111.418,81.902h-6.151v4.055h6.151V81.902L111.418,81.902z"
			/>
	</g>
	<g>
		<path fill="#E2A459" d="M110.318,88.788v1.854h-3.951v-1.854H110.318 M111.418,87.688h-6.151v4.053h6.151V87.688L111.418,87.688z"
			/>
	</g>
	<g>
		<path fill="#E2A459" d="M110.318,94.372v1.855h-3.745v-1.855H110.318 M111.418,93.272h-5.945v4.055h5.945V93.272L111.418,93.272z"
			/>
	</g>
	<g>
		<path fill="#E2A459" d="M118.303,82.798v1.855h-4.361v-1.855H118.303 M119.403,81.698h-6.561v4.055h6.561V81.698L119.403,81.698z"
			/>
	</g>
	<g>
		<path fill="#E2A459" d="M102.751,94.297v1.931h-11.85v-1.931H102.751 M103.852,93.197h-14.05v4.13h14.05V93.197L103.852,93.197z"
			/>
	</g>
	<g>
		<path fill="#E2A459" d="M118.303,88.548v7.68h-4.261v-7.68H118.303 M119.403,87.448h-6.461v9.879h6.461V87.448L119.403,87.448z"/>
	</g>
</g>
<g>
	<g>
		<path fill="#E2A459" d="M170.385,96.264c-0.352,0.238-0.938,0.474-1.683,0.474c-0.915,0-1.728-0.349-2.294-1.004
			c-0.43-0.478-0.711-1.13-0.813-1.941h-0.699v-0.554h0.644c0-0.059,0-0.115,0-0.173c0-0.18,0.011-0.349,0.022-0.506h-0.666v-0.565
			h0.744c0.137-0.791,0.476-1.445,0.927-1.911c0.575-0.596,1.31-0.937,2.235-0.937c0.667,0,1.187,0.193,1.504,0.363l-0.229,0.745
			c-0.282-0.172-0.756-0.314-1.265-0.314c-0.61,0-1.104,0.215-1.49,0.618c-0.34,0.329-0.563,0.837-0.678,1.436h3.15v0.565h-3.252
			c-0.01,0.146-0.021,0.314-0.021,0.472c0,0.069,0,0.126,0,0.207h3.273v0.554h-3.194c0.089,0.654,0.314,1.138,0.621,1.477
			c0.416,0.442,0.98,0.654,1.591,0.654c0.601,0,1.119-0.227,1.379-0.37L170.385,96.264z"/>
	</g>
	<circle fill="none" stroke="#E2A459" stroke-width="1.1" stroke-miterlimit="10" cx="168.48" cy="92.941" r="6.673"/>
	<path fill="none" stroke="#E2A459" stroke-width="1.1" stroke-miterlimit="10" d="M166.36,99.258
		c-0.349,0.035-0.773,0.122-1.063,0.122c-3.686,0-6.675-2.99-6.675-6.675c0-3.686,2.989-6.672,6.675-6.672
		c0.205,0,0.405,0.008,0.607,0.024c0.332,0.031,0.838,0.082,1.291,0.291"/>
	<path fill="none" stroke="#E2A459" stroke-width="1.1" stroke-miterlimit="10" d="M181.875,78.74
		c-0.003,0.442-0.446,0.799-0.991,0.795l-11.333-0.076c-0.546-0.004-0.984-0.366-0.981-0.809l0.01-1.4
		c0.003-0.442,0.445-0.799,0.991-0.795l11.334,0.077c0.545,0.003,0.983,0.365,0.98,0.808L181.875,78.74z"/>
	<path fill="#E2A459" d="M176.822,95.79c0.092-0.335,0.164-0.681,0.218-1.052l3.741,0.024c0.284,0,0.458-0.155,0.46-0.267
		l0.01-1.448l-0.062-0.087c-0.088-0.09-0.235-0.145-0.395-0.146l-3.693-0.025c-0.026-0.357-0.058-0.709-0.124-1.054l3.823,0.025
		c0.405,0.003,0.786,0.145,1.07,0.399c0.281,0.252,0.435,0.584,0.433,0.934l-0.009,1.406c-0.006,0.726-0.683,1.315-1.509,1.315
		C180.785,95.816,176.822,95.79,176.822,95.79z"/>
	<path fill="#E2A459" d="M176.812,90.536c-0.09-0.325-0.202-0.693-0.354-1.056l4.011,0.027c0.288,0,0.463-0.157,0.463-0.27
		l0.01-1.403c0-0.127-0.2-0.273-0.46-0.274l-5.252-0.036c-0.247-0.366-0.579-0.729-0.943-1.06l6.203,0.042
		c0.835,0.006,1.51,0.604,1.506,1.335l-0.01,1.404c-0.005,0.726-0.684,1.315-1.512,1.315
		C180.473,90.562,176.812,90.536,176.812,90.536z"/>
	<path fill="#E2A459" d="M170.764,101.277l0.033-0.029c0.953-0.253,1.841-0.658,2.602-1.185l7.346,0.067
		c0.281,0,0.459-0.175,0.461-0.295l0.011-1.585c0-0.121-0.178-0.298-0.456-0.3l-5.207-0.035c0.272-0.385,0.514-0.792,0.719-1.213
		l4.496,0.03c0.403,0.003,0.781,0.163,1.065,0.452c0.284,0.288,0.438,0.669,0.437,1.071l-0.011,1.585
		c-0.006,0.829-0.684,1.504-1.512,1.504L170.764,101.277z"/>
	<path fill="#E2A459" d="M172.558,85.257c-1.272-0.705-2.649-1.073-4.044-1.082c-0.001,0-0.001,0-0.001,0
		c-0.141,0-0.261,0.016-0.383,0.031c-0.041,0.006-0.082,0.011-0.123,0.016l0.012-1.723c0.005-0.728,0.682-1.319,1.509-1.319
		l11.345,0.076c0.834,0.007,1.508,0.607,1.503,1.34l-0.01,1.402c-0.005,0.725-0.681,1.314-1.506,1.314L172.558,85.257z
		 M169.526,82.233c-0.259,0-0.454,0.143-0.456,0.271l-0.011,1.676l11.792,0.079c0.284,0,0.459-0.155,0.461-0.267l0.01-1.444
		l-0.063-0.093c-0.088-0.09-0.235-0.145-0.394-0.146L169.526,82.233z"/>
</g>
<g>
	<path fill="#FFFFFF" stroke="#E2A459" stroke-width="1.1" stroke-miterlimit="10" d="M145.115,85.907V83.23
		c-1.536-0.027-3.128-0.505-4.055-1.167l0.636-1.777c0.954,0.64,2.333,1.142,3.817,1.142c1.883,0,3.154-1.087,3.154-2.599
		c0-1.457-1.035-2.358-2.995-3.155c-2.703-1.059-4.374-2.278-4.374-4.582c0-2.201,1.563-3.872,4.003-4.268v-2.682h1.644v2.575
		c1.591,0.05,2.677,0.474,3.445,0.926l-0.664,1.751c-0.556-0.319-1.643-0.904-3.338-0.904c-2.042,0-2.81,1.222-2.81,2.283
		c0,1.378,0.979,2.067,3.286,3.022c2.73,1.109,4.108,2.488,4.108,4.849c0,2.095-1.458,4.056-4.188,4.509v2.754H145.115z"/>
</g>
<path fill="none" stroke="#E2A459" stroke-width="1.1" stroke-linecap="round" stroke-miterlimit="10" d="M125.32,60.109
	c2.017-2.457,4.494-4.86,7.498-7.163c3.749,0,27.363,0,27.363,0c0.628,0.629,9.991,9.976,13.245,21.964"/>
<path fill="none" stroke="#E2A459" stroke-width="1.1" stroke-linecap="round" stroke-miterlimit="10" d="M159.806,100.231
	c-3.864,1.324-7.501,1.714-13.725,1.714c-9.896,0-16.361-1.567-20.577-4.131"/>
<line fill="none" stroke="#E2A459" stroke-width="1.1" stroke-miterlimit="10" x1="133.307" y1="50.349" x2="156.676" y2="50.349"/>
<path fill="none" stroke="#E2A459" stroke-width="1.1" stroke-miterlimit="10" d="M130.009,35.482
	c0.511,3.689,4.232,11.987,4.232,11.987h21.158c0,0,3.897-8.239,4.405-11.987c-1.954-1.129-4.066-3.197-6.328-2.657
	c-9.135,2.177-10.812-1.901-15.402-1.143C134.647,32.25,132.813,33.727,130.009,35.482z"/>
<g>
	<ellipse fill="none" stroke="#E2A459" stroke-width="1.1" stroke-miterlimit="10" cx="174.67" cy="34.696" rx="2.972" ry="3.87"/>
	<path fill="none" stroke="#E2A459" stroke-width="1.1" stroke-miterlimit="10" d="M186.144,43.946c0,2.138-1.33,3.87-2.973,3.87
		c-1.641,0-2.97-1.731-2.97-3.87c0-2.143,1.329-3.872,2.97-3.872C184.813,40.075,186.144,41.804,186.144,43.946z"/>
	
		<line fill="none" stroke="#E2A459" stroke-width="1.1" stroke-miterlimit="10" x1="186.953" y1="31.492" x2="171.301" y2="47.002"/>
</g>
<g>
	<g>
		<polyline fill="none" stroke="#E2A459" stroke-width="1.1" stroke-miterlimit="10" points="126.275,44.804 114.036,40.145 
			107.101,45.427 76.292,32.527 		"/>
		<polyline fill="none" stroke="#E2A459" stroke-width="1.1" stroke-miterlimit="10" points="211.938,66.553 181.321,56.532 
			174.723,61.807 169.631,59.872 		"/>
		<polyline fill="none" stroke="#E2A459" stroke-width="1.1" stroke-miterlimit="10" points="207.933,68.257 212.55,67.037 
			210.403,62.612 		"/>
	</g>
</g>
<line fill="none" stroke="#E2A459" stroke-width="1.1" stroke-linecap="round" stroke-miterlimit="10" x1="79.17" y1="37.605" x2="79.17" y2="100.231"/>
<line fill="none" stroke="#E2A459" stroke-width="1.1" stroke-linecap="round" stroke-miterlimit="10" x1="174.92" y1="65.161" x2="174.92" y2="70.449"/>
<line fill="none" stroke="#E2A459" stroke-width="1.1" stroke-linecap="round" stroke-miterlimit="10" x1="181.67" y1="60.708" x2="181.67" y2="72.119"/>
<line fill="none" stroke="#E2A459" stroke-width="1.1" stroke-linecap="round" stroke-miterlimit="10" x1="188.421" y1="62.656" x2="188.421" y2="103.016"/>
<line fill="none" stroke="#E2A459" stroke-width="1.1" stroke-linecap="round" stroke-miterlimit="10" x1="195.17" y1="65.161" x2="195.17" y2="104.13"/>
<line fill="none" stroke="#E2A459" stroke-width="1.1" stroke-linecap="round" stroke-miterlimit="10" x1="201.919" y1="67.11" x2="201.919" y2="104.964"/>
<line fill="none" stroke="#E2A459" stroke-width="1.1" stroke-linecap="round" stroke-miterlimit="10" x1="86.963" y1="40.946" x2="86.963" y2="54.027"/>
<line fill="none" stroke="#E2A459" stroke-width="1.1" stroke-linecap="round" stroke-miterlimit="10" x1="94.479" y1="44.006" x2="94.479" y2="52.916"/>
<line fill="none" stroke="#E2A459" stroke-width="1.1" stroke-linecap="round" stroke-miterlimit="10" x1="102.271" y1="47.347" x2="102.271" y2="52.916"/>
<line fill="none" stroke="#FFFFFF" stroke-width="1.2525" stroke-linecap="round" stroke-miterlimit="10" x1="109.788" y1="47.347" x2="109.788" y2="52.916"/>
<line fill="none" stroke="#FFFFFF" stroke-width="1.2525" stroke-linecap="round" stroke-miterlimit="10" x1="116.746" y1="45.121" x2="116.746" y2="52.916"/>
<line fill="none" stroke="#FFFFFF" stroke-width="1.2525" stroke-linecap="round" stroke-miterlimit="10" x1="123.427" y1="47.625" x2="123.427" y2="53.75"/>
</svg>
