<?xml version="1.0" encoding="utf-8"?>
<!-- Generator: Adobe Illustrator 16.0.0, SVG Export Plug-In . SVG Version: 6.00 Build 0)  -->
<!DOCTYPE svg PUBLIC "-//W3C//DTD SVG 1.1//EN" "http://www.w3.org/Graphics/SVG/1.1/DTD/svg11.dtd">
<svg version="1.1" id="Layer_1" xmlns="http://www.w3.org/2000/svg" xmlns:xlink="http://www.w3.org/1999/xlink" x="0px" y="0px"
	 width="280px" height="106px" viewBox="0 0 280 106" enable-background="new 0 0 280 106" xml:space="preserve">
<line fill="none" stroke="#5A5456" stroke-miterlimit="10" x1="11.468" y1="77.134" x2="60.301" y2="77.134"/>
<line fill="none" stroke="#5A5456" stroke-miterlimit="10" x1="4.932" y1="83.33" x2="43.119" y2="83.33"/>
<line fill="none" stroke="#5A5456" stroke-miterlimit="10" x1="22.417" y1="89.288" x2="51.75" y2="89.288"/>
<line fill="none" stroke="#5A5456" stroke-miterlimit="10" x1="215.027" y1="77.134" x2="264.609" y2="77.134"/>
<line fill="none" stroke="#5A5456" stroke-miterlimit="10" x1="232.451" y1="83.163" x2="271.139" y2="83.163"/>
<line fill="none" stroke="#5A5456" stroke-miterlimit="10" x1="224.267" y1="89.288" x2="252.6" y2="89.288"/>
<g>
	<g>
		<g>
			<g>
				<polyline fill="none" stroke="#E2A459" stroke-width="1.1" stroke-miterlimit="10" points="166.497,85.116 155.017,85.116 
					155.017,35.625 179.601,35.625 179.601,58.066 				"/>
				<polygon fill="none" stroke="#E2A459" stroke-width="1.1" stroke-miterlimit="10" points="190.675,103.532 166.497,103.532 
					166.497,66.151 166.497,57.493 190.675,57.493 				"/>
			</g>
		</g>
		
			<line fill="none" stroke="#E2A459" stroke-width="1.1" stroke-miterlimit="10" x1="173.091" y1="64.281" x2="173.091" y2="96.056"/>
		
			<line fill="none" stroke="#E2A459" stroke-width="1.1" stroke-miterlimit="10" x1="178.301" y1="63.037" x2="178.301" y2="77.366"/>
		<line fill="none" stroke="#E2A459" stroke-width="1.1" stroke-miterlimit="10" x1="178.95" y1="83.595" x2="178.95" y2="91.695"/>
		
			<line fill="none" stroke="#E2A459" stroke-width="1.1" stroke-miterlimit="10" x1="184.813" y1="64.281" x2="184.813" y2="96.056"/>
		<line fill="none" stroke="#E2A459" stroke-width="1.1" stroke-miterlimit="10" x1="155.18" y1="44.658" x2="164.502" y2="35.74"/>
		
			<line fill="none" stroke="#E2A459" stroke-width="1.1" stroke-miterlimit="10" x1="154.814" y1="51.238" x2="170.931" y2="35.82"/>
		
			<line fill="none" stroke="#E2A459" stroke-width="1.1" stroke-miterlimit="10" x1="155.017" y1="57.897" x2="178.138" y2="35.782"/>
		<line fill="none" stroke="#E2A459" stroke-width="1.1" stroke-miterlimit="10" x1="155.1" y1="64.671" x2="179.601" y2="41.232"/>
		
			<line fill="none" stroke="#E2A459" stroke-width="1.1" stroke-miterlimit="10" x1="169.59" y1="57.508" x2="179.601" y2="48.086"/>
		
			<line fill="none" stroke="#E2A459" stroke-width="1.1" stroke-miterlimit="10" x1="155.017" y1="71.603" x2="166.535" y2="60.584"/>
		
			<line fill="none" stroke="#E2A459" stroke-width="1.1" stroke-miterlimit="10" x1="177.446" y1="57.625" x2="179.601" y2="55.561"/>
		
			<line fill="none" stroke="#E2A459" stroke-width="1.1" stroke-miterlimit="10" x1="154.895" y1="79.194" x2="166.374" y2="68.216"/>
		<line fill="none" stroke="#E2A459" stroke-width="1.1" stroke-miterlimit="10" x1="156.36" y1="85.27" x2="166.455" y2="75.612"/>
	</g>
	<polyline fill="none" stroke="#E2A459" stroke-width="1.1" stroke-miterlimit="10" points="87.379,65.968 87.379,32.401 
		90.901,32.401 	"/>
	<line fill="none" stroke="#E2A459" stroke-width="1.1" stroke-miterlimit="10" x1="87.379" y1="91.323" x2="87.379" y2="74.42"/>
	<polyline fill="none" stroke="#E2A459" stroke-width="1.1" stroke-miterlimit="10" points="139.263,101.021 139.263,104 
		134.567,104 129.403,104 124.238,104 87.379,104 87.379,99.307 	"/>
	<line fill="none" stroke="#E2A459" stroke-width="1.2" stroke-miterlimit="10" x1="114.495" y1="44.337" x2="114.495" y2="34.58"/>
	<line fill="none" stroke="#E2A459" stroke-width="1.2" stroke-miterlimit="10" x1="117.077" y1="44.337" x2="117.077" y2="34.58"/>
	<line fill="none" stroke="#E2A459" stroke-width="1.2" stroke-miterlimit="10" x1="119.66" y1="44.337" x2="119.66" y2="34.58"/>
	<line fill="none" stroke="#E2A459" stroke-width="1.2" stroke-miterlimit="10" x1="122.242" y1="34.58" x2="122.242" y2="44.337"/>
	
		<line fill="none" stroke="#E2A459" stroke-width="1.2" stroke-miterlimit="10" x1="137.531" y1="59.345" x2="128.316" y2="59.345"/>
	
		<line fill="none" stroke="#E2A459" stroke-width="1.2" stroke-miterlimit="10" x1="137.531" y1="56.654" x2="128.316" y2="56.654"/>
	
		<line fill="none" stroke="#E2A459" stroke-width="1.2" stroke-miterlimit="10" x1="137.531" y1="53.961" x2="128.316" y2="53.961"/>
	
		<line fill="none" stroke="#E2A459" stroke-width="1.2" stroke-miterlimit="10" x1="128.316" y1="51.269" x2="137.531" y2="51.269"/>
	<line fill="none" stroke="#E2A459" stroke-width="1.2" stroke-miterlimit="10" x1="122.915" y1="91.045" x2="113.7" y2="91.045"/>
	<line fill="none" stroke="#E2A459" stroke-width="1.2" stroke-miterlimit="10" x1="122.915" y1="85.657" x2="113.7" y2="85.657"/>
	<g>
		
			<line fill="none" stroke="#E2A459" stroke-width="1.2" stroke-miterlimit="10" x1="122.067" y1="82.964" x2="122.915" y2="82.964"/>
		<polyline fill="none" stroke="#E2A459" stroke-width="1.2" stroke-miterlimit="10" points="120.131,82.964 121.128,82.964 
			121.363,82.964 		"/>
		
			<line fill="none" stroke="#E2A459" stroke-width="1.2" stroke-miterlimit="10" x1="117.431" y1="82.964" x2="119.426" y2="82.964"/>
		<polyline fill="none" stroke="#E2A459" stroke-width="1.2" stroke-miterlimit="10" points="115.317,82.964 115.904,82.964 
			116.609,82.964 		"/>
		<line fill="none" stroke="#E2A459" stroke-width="1.2" stroke-miterlimit="10" x1="113.7" y1="82.964" x2="114.554" y2="82.964"/>
	</g>
	<g>
		
			<line fill="none" stroke="#E2A459" stroke-width="1.2" stroke-miterlimit="10" x1="122.067" y1="88.497" x2="122.915" y2="88.497"/>
		<polyline fill="none" stroke="#E2A459" stroke-width="1.2" stroke-miterlimit="10" points="120.131,88.497 121.128,88.497 
			121.363,88.497 		"/>
		
			<line fill="none" stroke="#E2A459" stroke-width="1.2" stroke-miterlimit="10" x1="117.431" y1="88.497" x2="119.426" y2="88.497"/>
		<polyline fill="none" stroke="#E2A459" stroke-width="1.2" stroke-miterlimit="10" points="115.317,88.497 115.904,88.497 
			116.609,88.497 		"/>
		<line fill="none" stroke="#E2A459" stroke-width="1.2" stroke-miterlimit="10" x1="113.7" y1="88.497" x2="114.554" y2="88.497"/>
	</g>
	<g>
		
			<line fill="none" stroke="#E2A459" stroke-width="1.2" stroke-miterlimit="10" x1="133.629" y1="75.132" x2="128.375" y2="75.132"/>
		<line fill="none" stroke="#E2A459" stroke-width="1.2" stroke-miterlimit="10" x1="137.588" y1="75.132" x2="135.8" y2="75.132"/>
		<line fill="none" stroke="#E2A459" stroke-width="1.2" stroke-miterlimit="10" x1="131.223" y1="72.44" x2="128.375" y2="72.44"/>
		<line fill="none" stroke="#E2A459" stroke-width="1.2" stroke-miterlimit="10" x1="137.588" y1="72.44" x2="132.279" y2="72.44"/>
		
			<line fill="none" stroke="#E2A459" stroke-width="1.2" stroke-miterlimit="10" x1="133.102" y1="69.746" x2="128.375" y2="69.746"/>
		
			<line fill="none" stroke="#E2A459" stroke-width="1.2" stroke-miterlimit="10" x1="137.588" y1="69.746" x2="134.569" y2="69.746"/>
		
			<line fill="none" stroke="#E2A459" stroke-width="1.2" stroke-miterlimit="10" x1="132.396" y1="67.056" x2="137.588" y2="67.056"/>
		<line fill="none" stroke="#E2A459" stroke-width="1.2" stroke-miterlimit="10" x1="128.375" y1="67.056" x2="130.4" y2="67.056"/>
	</g>
	
		<rect x="92.369" y="28.114" fill="none" stroke="#E2A459" stroke-width="1.1" stroke-miterlimit="10" width="51.883" height="71.6"/>
	<g>
		
			<line fill="none" stroke="#E2A459" stroke-width="1.2" stroke-miterlimit="10" stroke-dasharray="2.8904,1.4449" x1="122.916" y1="75.256" x2="113.702" y2="75.256"/>
		
			<line fill="none" stroke="#E2A459" stroke-width="1.2" stroke-miterlimit="10" stroke-dasharray="2.8904,1.4449" x1="122.916" y1="72.565" x2="113.702" y2="72.565"/>
		
			<line fill="none" stroke="#E2A459" stroke-width="1.2" stroke-miterlimit="10" stroke-dasharray="2.8904,1.4449" x1="122.916" y1="69.867" x2="113.702" y2="69.867"/>
		
			<line fill="none" stroke="#E2A459" stroke-width="1.2" stroke-miterlimit="10" stroke-dasharray="2.8904,1.4449" x1="122.916" y1="67.135" x2="113.702" y2="67.135"/>
	</g>
	<g>
		<g>
			
				<line fill="none" stroke="#E2A459" stroke-width="1.2" stroke-miterlimit="10" x1="99.938" y1="60.185" x2="99.938" y2="59.465"/>
			
				<line fill="none" stroke="#E2A459" stroke-width="1.2" stroke-miterlimit="10" stroke-dasharray="1.6634,1.6634" x1="99.938" y1="57.802" x2="99.938" y2="51.98"/>
			
				<line fill="none" stroke="#E2A459" stroke-width="1.2" stroke-miterlimit="10" x1="99.938" y1="51.148" x2="99.938" y2="50.429"/>
		</g>
	</g>
	<g>
		<g>
			
				<line fill="none" stroke="#E2A459" stroke-width="1.2" stroke-miterlimit="10" x1="102.483" y1="60.185" x2="102.483" y2="59.465"/>
			
				<line fill="none" stroke="#E2A459" stroke-width="1.2" stroke-miterlimit="10" stroke-dasharray="1.6634,1.6634" x1="102.483" y1="57.802" x2="102.483" y2="51.98"/>
			
				<line fill="none" stroke="#E2A459" stroke-width="1.2" stroke-miterlimit="10" x1="102.483" y1="51.148" x2="102.483" y2="50.429"/>
		</g>
	</g>
	<g>
		<g>
			
				<line fill="none" stroke="#E2A459" stroke-width="1.2" stroke-miterlimit="10" x1="105.026" y1="60.185" x2="105.026" y2="59.465"/>
			
				<line fill="none" stroke="#E2A459" stroke-width="1.2" stroke-miterlimit="10" stroke-dasharray="1.6634,1.6634" x1="105.026" y1="57.802" x2="105.026" y2="51.98"/>
			
				<line fill="none" stroke="#E2A459" stroke-width="1.2" stroke-miterlimit="10" x1="105.026" y1="51.148" x2="105.026" y2="50.429"/>
		</g>
	</g>
	<g>
		<g>
			
				<line fill="none" stroke="#E2A459" stroke-width="1.2" stroke-miterlimit="10" x1="107.57" y1="50.429" x2="107.57" y2="51.148"/>
			
				<line fill="none" stroke="#E2A459" stroke-width="1.2" stroke-miterlimit="10" stroke-dasharray="1.6634,1.6634" x1="107.57" y1="52.812" x2="107.57" y2="58.634"/>
			
				<line fill="none" stroke="#E2A459" stroke-width="1.2" stroke-miterlimit="10" x1="107.57" y1="59.465" x2="107.57" y2="60.185"/>
		</g>
	</g>
	<g>
		<g>
			
				<line fill="none" stroke="#E2A459" stroke-width="1.2" stroke-miterlimit="10" x1="114.495" y1="60.123" x2="114.495" y2="58.678"/>
			
				<line fill="none" stroke="#E2A459" stroke-width="1.2" stroke-miterlimit="10" stroke-dasharray="3.4021,1.701" x1="114.495" y1="56.978" x2="114.495" y2="52.725"/>
			
				<line fill="none" stroke="#E2A459" stroke-width="1.2" stroke-miterlimit="10" x1="114.495" y1="51.874" x2="114.495" y2="50.429"/>
		</g>
	</g>
	<g>
		<g>
			
				<line fill="none" stroke="#E2A459" stroke-width="1.2" stroke-miterlimit="10" x1="117.077" y1="60.123" x2="117.077" y2="58.678"/>
			
				<line fill="none" stroke="#E2A459" stroke-width="1.2" stroke-miterlimit="10" stroke-dasharray="3.4021,1.701" x1="117.077" y1="56.978" x2="117.077" y2="52.725"/>
			
				<line fill="none" stroke="#E2A459" stroke-width="1.2" stroke-miterlimit="10" x1="117.077" y1="51.874" x2="117.077" y2="50.429"/>
		</g>
	</g>
	<g>
		<g>
			
				<line fill="none" stroke="#E2A459" stroke-width="1.2" stroke-miterlimit="10" x1="119.66" y1="60.123" x2="119.66" y2="58.678"/>
			
				<line fill="none" stroke="#E2A459" stroke-width="1.2" stroke-miterlimit="10" stroke-dasharray="3.4021,1.701" x1="119.66" y1="56.978" x2="119.66" y2="52.725"/>
			
				<line fill="none" stroke="#E2A459" stroke-width="1.2" stroke-miterlimit="10" x1="119.66" y1="51.874" x2="119.66" y2="50.429"/>
		</g>
	</g>
	<g>
		<g>
			
				<line fill="none" stroke="#E2A459" stroke-width="1.2" stroke-miterlimit="10" x1="122.242" y1="50.429" x2="122.242" y2="51.874"/>
			
				<line fill="none" stroke="#E2A459" stroke-width="1.2" stroke-miterlimit="10" stroke-dasharray="3.4021,1.701" x1="122.242" y1="53.575" x2="122.242" y2="57.828"/>
			
				<line fill="none" stroke="#E2A459" stroke-width="1.2" stroke-miterlimit="10" x1="122.242" y1="58.678" x2="122.242" y2="60.123"/>
		</g>
	</g>
	<g>
		<g>
			<g>
				
					<line fill="none" stroke="#E2A459" stroke-width="1.2" stroke-miterlimit="10" x1="137.501" y1="91.201" x2="136.057" y2="91.201"/>
				
					<line fill="none" stroke="#E2A459" stroke-width="1.2" stroke-miterlimit="10" stroke-dasharray="3.1318,1.5659" x1="134.491" y1="91.201" x2="130.576" y2="91.201"/>
				
					<line fill="none" stroke="#E2A459" stroke-width="1.2" stroke-miterlimit="10" x1="129.793" y1="91.201" x2="128.348" y2="91.201"/>
			</g>
		</g>
		<g>
			<g>
				
					<line fill="none" stroke="#E2A459" stroke-width="1.2" stroke-miterlimit="10" x1="137.501" y1="88.464" x2="136.057" y2="88.464"/>
				
					<line fill="none" stroke="#E2A459" stroke-width="1.2" stroke-miterlimit="10" stroke-dasharray="3.1318,1.5659" x1="134.491" y1="88.464" x2="130.576" y2="88.464"/>
				
					<line fill="none" stroke="#E2A459" stroke-width="1.2" stroke-miterlimit="10" x1="129.793" y1="88.464" x2="128.348" y2="88.464"/>
			</g>
		</g>
		<g>
			<g>
				
					<line fill="none" stroke="#E2A459" stroke-width="1.2" stroke-miterlimit="10" x1="137.501" y1="85.729" x2="136.057" y2="85.729"/>
				
					<line fill="none" stroke="#E2A459" stroke-width="1.2" stroke-miterlimit="10" stroke-dasharray="3.1318,1.5659" x1="134.491" y1="85.729" x2="130.576" y2="85.729"/>
				
					<line fill="none" stroke="#E2A459" stroke-width="1.2" stroke-miterlimit="10" x1="129.793" y1="85.729" x2="128.348" y2="85.729"/>
			</g>
		</g>
		<g>
			<g>
				
					<line fill="none" stroke="#E2A459" stroke-width="1.2" stroke-miterlimit="10" x1="128.348" y1="82.998" x2="129.793" y2="82.998"/>
				
					<line fill="none" stroke="#E2A459" stroke-width="1.2" stroke-miterlimit="10" stroke-dasharray="3.1318,1.5659" x1="131.359" y1="82.998" x2="135.273" y2="82.998"/>
				
					<line fill="none" stroke="#E2A459" stroke-width="1.2" stroke-miterlimit="10" x1="136.057" y1="82.998" x2="137.501" y2="82.998"/>
			</g>
		</g>
	</g>
	<g>
		<g>
			<g>
				
					<line fill="none" stroke="#E2A459" stroke-width="1.2" stroke-miterlimit="10" x1="107.923" y1="34.58" x2="107.923" y2="36.024"/>
				
					<line fill="none" stroke="#E2A459" stroke-width="1.2" stroke-miterlimit="10" stroke-dasharray="3.4013,1.7007" x1="107.923" y1="37.725" x2="107.923" y2="41.977"/>
				
					<line fill="none" stroke="#E2A459" stroke-width="1.2" stroke-miterlimit="10" x1="107.923" y1="42.827" x2="107.923" y2="44.272"/>
			</g>
		</g>
		<g>
			<g>
				
					<line fill="none" stroke="#E2A459" stroke-width="1.2" stroke-miterlimit="10" x1="105.34" y1="34.58" x2="105.34" y2="36.024"/>
				
					<line fill="none" stroke="#E2A459" stroke-width="1.2" stroke-miterlimit="10" stroke-dasharray="3.4013,1.7007" x1="105.34" y1="37.725" x2="105.34" y2="41.977"/>
				
					<line fill="none" stroke="#E2A459" stroke-width="1.2" stroke-miterlimit="10" x1="105.34" y1="42.827" x2="105.34" y2="44.272"/>
			</g>
		</g>
		<g>
			<g>
				
					<line fill="none" stroke="#E2A459" stroke-width="1.2" stroke-miterlimit="10" x1="102.757" y1="34.58" x2="102.757" y2="36.024"/>
				
					<line fill="none" stroke="#E2A459" stroke-width="1.2" stroke-miterlimit="10" stroke-dasharray="3.4013,1.7007" x1="102.757" y1="37.725" x2="102.757" y2="41.977"/>
				
					<line fill="none" stroke="#E2A459" stroke-width="1.2" stroke-miterlimit="10" x1="102.757" y1="42.827" x2="102.757" y2="44.272"/>
			</g>
		</g>
		<g>
			<g>
				
					<line fill="none" stroke="#E2A459" stroke-width="1.2" stroke-miterlimit="10" x1="100.176" y1="44.272" x2="100.176" y2="42.827"/>
				
					<line fill="none" stroke="#E2A459" stroke-width="1.2" stroke-miterlimit="10" stroke-dasharray="3.4013,1.7007" x1="100.176" y1="41.126" x2="100.176" y2="36.875"/>
				
					<line fill="none" stroke="#E2A459" stroke-width="1.2" stroke-miterlimit="10" x1="100.176" y1="36.024" x2="100.176" y2="34.58"/>
			</g>
		</g>
	</g>
	<g>
		
			<line fill="none" stroke="#E2A459" stroke-width="1.2" stroke-miterlimit="10" x1="129.109" y1="40.539" x2="129.109" y2="34.58"/>
		
			<line fill="none" stroke="#E2A459" stroke-width="1.2" stroke-miterlimit="10" x1="129.109" y1="44.399" x2="129.109" y2="42.345"/>
		
			<line fill="none" stroke="#E2A459" stroke-width="1.2" stroke-miterlimit="10" x1="131.691" y1="37.686" x2="131.691" y2="34.58"/>
		
			<line fill="none" stroke="#E2A459" stroke-width="1.2" stroke-miterlimit="10" x1="131.691" y1="44.399" x2="131.691" y2="39.773"/>
		
			<line fill="none" stroke="#E2A459" stroke-width="1.2" stroke-miterlimit="10" x1="134.273" y1="36.627" x2="134.273" y2="34.58"/>
		
			<line fill="none" stroke="#E2A459" stroke-width="1.2" stroke-miterlimit="10" x1="134.273" y1="44.399" x2="134.273" y2="38.506"/>
		
			<line fill="none" stroke="#E2A459" stroke-width="1.2" stroke-miterlimit="10" x1="136.856" y1="41.914" x2="136.856" y2="44.399"/>
		
			<line fill="none" stroke="#E2A459" stroke-width="1.2" stroke-miterlimit="10" x1="136.856" y1="34.58" x2="136.856" y2="40.184"/>
	</g>
	<g>
		
			<line fill="none" stroke="#E2A459" stroke-width="1.2" stroke-miterlimit="10" x1="104.573" y1="91.135" x2="98.945" y2="91.135"/>
		
			<line fill="none" stroke="#E2A459" stroke-width="1.2" stroke-miterlimit="10" x1="108.218" y1="91.135" x2="106.278" y2="91.135"/>
		
			<line fill="none" stroke="#E2A459" stroke-width="1.2" stroke-miterlimit="10" x1="101.878" y1="88.404" x2="98.945" y2="88.404"/>
		
			<line fill="none" stroke="#E2A459" stroke-width="1.2" stroke-miterlimit="10" x1="108.218" y1="88.404" x2="103.85" y2="88.404"/>
		
			<line fill="none" stroke="#E2A459" stroke-width="1.2" stroke-miterlimit="10" x1="100.879" y1="85.669" x2="98.945" y2="85.669"/>
		
			<line fill="none" stroke="#E2A459" stroke-width="1.2" stroke-miterlimit="10" x1="108.218" y1="85.669" x2="102.652" y2="85.669"/>
		
			<line fill="none" stroke="#E2A459" stroke-width="1.2" stroke-miterlimit="10" x1="105.872" y1="82.932" x2="108.218" y2="82.932"/>
		
			<line fill="none" stroke="#E2A459" stroke-width="1.2" stroke-miterlimit="10" x1="98.945" y1="82.932" x2="104.237" y2="82.932"/>
	</g>
	<g>
		
			<line fill="none" stroke="#E2A459" stroke-width="1.2" stroke-miterlimit="10" x1="100.292" y1="75.132" x2="99.088" y2="75.132"/>
		
			<line fill="none" stroke="#E2A459" stroke-width="1.2" stroke-miterlimit="10" x1="104.341" y1="75.132" x2="101.29" y2="75.132"/>
		
			<line fill="none" stroke="#E2A459" stroke-width="1.2" stroke-miterlimit="10" x1="106.806" y1="75.132" x2="105.397" y2="75.132"/>
		
			<line fill="none" stroke="#E2A459" stroke-width="1.2" stroke-miterlimit="10" x1="108.302" y1="75.132" x2="107.57" y2="75.132"/>
		<line fill="none" stroke="#E2A459" stroke-width="1.2" stroke-miterlimit="10" x1="102.112" y1="72.44" x2="99.088" y2="72.44"/>
		<line fill="none" stroke="#E2A459" stroke-width="1.2" stroke-miterlimit="10" x1="106.16" y1="72.44" x2="102.992" y2="72.44"/>
		
			<line fill="none" stroke="#E2A459" stroke-width="1.2" stroke-miterlimit="10" x1="108.302" y1="72.44" x2="107.042" y2="72.457"/>
		<polyline fill="none" stroke="#E2A459" stroke-width="1.2" stroke-miterlimit="10" points="101.17,69.746 100.879,69.746 
			99.088,69.746 		"/>
		
			<line fill="none" stroke="#E2A459" stroke-width="1.2" stroke-miterlimit="10" x1="103.813" y1="69.746" x2="102.463" y2="69.746"/>
		
			<line fill="none" stroke="#E2A459" stroke-width="1.2" stroke-miterlimit="10" x1="108.302" y1="69.746" x2="104.635" y2="69.746"/>
		
			<line fill="none" stroke="#E2A459" stroke-width="1.2" stroke-miterlimit="10" x1="107.511" y1="67.056" x2="108.302" y2="67.056"/>
		
			<line fill="none" stroke="#E2A459" stroke-width="1.2" stroke-miterlimit="10" x1="105.105" y1="67.056" x2="106.396" y2="67.056"/>
		
			<line fill="none" stroke="#E2A459" stroke-width="1.2" stroke-miterlimit="10" x1="102.17" y1="67.056" x2="103.873" y2="67.056"/>
		
			<line fill="none" stroke="#E2A459" stroke-width="1.2" stroke-miterlimit="10" x1="99.088" y1="67.056" x2="101.113" y2="67.056"/>
	</g>
</g>
</svg>
