<?xml version="1.0" encoding="utf-8"?>
<!-- Generator: Adobe Illustrator 16.0.0, SVG Export Plug-In . SVG Version: 6.00 Build 0)  -->
<!DOCTYPE svg PUBLIC "-//W3C//DTD SVG 1.1//EN" "http://www.w3.org/Graphics/SVG/1.1/DTD/svg11.dtd">
<svg version="1.1" id="Layer_1" xmlns="http://www.w3.org/2000/svg" xmlns:xlink="http://www.w3.org/1999/xlink" x="0px" y="0px"
	 width="280px" height="106px" viewBox="0 0 280 106" enable-background="new 0 0 280 106" xml:space="preserve">
<line fill="none" stroke="#5A5456" stroke-miterlimit="10" x1="14.468" y1="74.134" x2="63.301" y2="74.134"/>
<line fill="none" stroke="#5A5456" stroke-miterlimit="10" x1="7.932" y1="79.33" x2="46.119" y2="79.33"/>
<line fill="none" stroke="#5A5456" stroke-miterlimit="10" x1="25.417" y1="86.288" x2="54.75" y2="86.288"/>
<line fill="none" stroke="#5A5456" stroke-miterlimit="10" x1="212.027" y1="74.134" x2="261.609" y2="74.134"/>
<line fill="none" stroke="#5A5456" stroke-miterlimit="10" x1="229.451" y1="80.163" x2="268.139" y2="80.163"/>
<line fill="none" stroke="#5A5456" stroke-miterlimit="10" x1="221.267" y1="86.288" x2="249.6" y2="86.288"/>
<g>
	<path fill="none" stroke="#E2A459" stroke-width="1.1" stroke-miterlimit="10" d="M88.615,49.023v-3.725
		c0-0.294-0.247-0.533-0.549-0.533H82.31c-0.303,0-0.548,0.239-0.548,0.533v2.371"/>
	<path fill="none" stroke="#E2A459" stroke-width="1.1" stroke-miterlimit="10" d="M89.711,54.07c0,0.267-0.247,0.488-0.548,0.488
		h-7.949c-0.303,0-0.548-0.222-0.548-0.488v-2.875c0-0.269,0.246-0.488,0.548-0.488h7.949c0.302,0,0.548,0.219,0.548,0.488V54.07z"
		/>
	<path fill="none" stroke="#E2A459" stroke-width="1.1" stroke-miterlimit="10" d="M77.262,95.243c0,2.206,0,3.697,0.001,3.981
		c0,1.298,1.314,2.89,2.869,2.77h10.884c1.317,0,2.632-1.241,2.632-2.77V71.183c0,0,0.227-5.614-0.717-8.785
		c-0.521-1.746-2.465-5.067-3.125-6.607 M77.262,85.086c0,2.183,0,4.36,0,5.512 M81.103,54.629
		c-1.152,2.519-3.84,8.481-3.839,11.797c-0.001,1.439-0.001,12.981-0.001,16.534 M90.323,75.817c0,0.467-0.318,2.317-1.526,2.053
		c-1.207-0.259-1.474-1.523-1.602-3.224c0,0-0.329-4.573,0-8.123c0.139-1.487,1.093-3.407,1.635-3.377
		c0.542,0.029,1.429,0.172,1.494,4.513C90.387,71.745,90.323,75.817,90.323,75.817z"/>
</g>
<g>
	<path fill="none" stroke="#E2A459" stroke-width="1.1" stroke-miterlimit="10" d="M166.935,94.614l-1.021-11.419
		c0,0,2.892,0.005,4.086,0.005c0,0.536,0,2.424,0,2.982c0.823,0,2.871,0,3.696,0c0-0.528,0-2.416,0-2.977c1.195,0,2.489,0,3.696,0
		c0,0.53,0,2.431,0,2.985c0.835,0,2.867,0,3.693,0c0-0.549,0-2.439,0-2.991c1.186,0,2.499,0,3.696,0c0,0.536,0,2.433,0,2.991
		c0.839,0,2.867,0,3.694,0c0-0.545,0-2.431,0-2.989c1.199,0,2.496,0,3.698,0c0,0.538,0,2.426,0,2.982c0.826,0,2.868,0,3.691,0
		c0-0.528,0-2.416,0-2.979c1.193,0,3.54,0,3.54,0l-1.107,11.408"/>
	<line fill="none" stroke="#E2A459" stroke-width="1.1" stroke-miterlimit="10" x1="187.995" y1="94.612" x2="191.623" y2="94.61"/>
	<path fill="none" stroke="#E2A459" stroke-width="1.1" stroke-miterlimit="10" d="M194.392,94.61
		c5.604-0.002-1.779,0.002,3.824,0.004c0.939,0,1.548,0.496,1.55,1.263c0.004,1.606,0.004,3.214,0.004,4.819
		c-0.004,0.812-0.597,1.302-1.578,1.302c-5.179,0.004-10.354,0-15.536,0c-5.144,0-10.289,0.004-15.435,0
		c-1.117,0-1.684-0.467-1.684-1.386c0-1.569-0.002-3.137,0-4.709c0-0.769,0.628-1.289,1.563-1.289c0.422,0,18.42,0,18.838,0"/>
	<path fill="#E2A459" d="M197.063,98.428c0,0.491-0.398,0.888-0.885,0.888c-0.49,0-0.887-0.396-0.887-0.888
		c0-0.488,0.396-0.887,0.887-0.887C196.664,97.541,197.063,97.939,197.063,98.428z"/>
</g>
<g>
	<polyline fill="none" stroke="#E2A459" stroke-width="1.1" stroke-miterlimit="10" points="163.614,97.373 146.528,97.373 
		141.915,65.747 193.309,65.747 190.438,82.003 	"/>
	<path fill="none" stroke="#E2A459" stroke-width="1.1" stroke-miterlimit="10" d="M157.25,69.041c-3.17,0-6.207,0-9.048,0"/>
	<path fill="none" stroke="#E2A459" stroke-width="1.1" stroke-miterlimit="10" d="M190.498,81.568
		c4.624-3.354,7.424-7.734,7.424-12.527c-10.95,0-23.604,0-35.12,0"/>
	<path fill="none" stroke="#E2A459" stroke-width="1.1" stroke-miterlimit="10" d="M139.977,69.041c-0.935,0-1.828,0-2.673,0
		c0,9.882,11.901,18.013,27.166,19.004"/>
	<polygon fill="none" stroke="#E2A459" stroke-width="1.1" stroke-miterlimit="10" points="192.321,62.451 142.904,62.451 
		144.222,57.839 191.002,57.839 	"/>
</g>
<g>
	<g>
		<g>
			<polyline fill="none" stroke="#E2A459" stroke-width="1.1" stroke-miterlimit="10" points="111.952,84.951 101.787,84.951 
				101.787,39.135 123.559,39.135 123.559,59.911 			"/>
			<polygon fill="none" stroke="#E2A459" stroke-width="1.1" stroke-miterlimit="10" points="133.364,102 111.952,102 
				111.952,67.395 111.952,59.38 133.364,59.38 			"/>
		</g>
	</g>
	
		<line fill="none" stroke="#E2A459" stroke-width="1.1" stroke-miterlimit="10" x1="117.792" y1="65.665" x2="117.792" y2="95.078"/>
	
		<line fill="none" stroke="#E2A459" stroke-width="1.1" stroke-miterlimit="10" x1="122.406" y1="64.512" x2="122.406" y2="77.776"/>
	
		<line fill="none" stroke="#E2A459" stroke-width="1.1" stroke-miterlimit="10" x1="122.982" y1="83.544" x2="122.982" y2="91.042"/>
	
		<line fill="none" stroke="#E2A459" stroke-width="1.1" stroke-miterlimit="10" x1="128.173" y1="65.665" x2="128.173" y2="95.078"/>
	
		<line fill="none" stroke="#E2A459" stroke-width="1.1" stroke-miterlimit="10" x1="101.931" y1="47.498" x2="110.186" y2="39.243"/>
	<line fill="none" stroke="#E2A459" stroke-width="1.1" stroke-miterlimit="10" x1="101.607" y1="53.59" x2="115.881" y2="39.315"/>
	
		<line fill="none" stroke="#E2A459" stroke-width="1.1" stroke-miterlimit="10" x1="101.787" y1="59.755" x2="122.261" y2="39.279"/>
	
		<line fill="none" stroke="#E2A459" stroke-width="1.1" stroke-miterlimit="10" x1="101.859" y1="66.025" x2="123.559" y2="44.325"/>
	
		<line fill="none" stroke="#E2A459" stroke-width="1.1" stroke-miterlimit="10" x1="114.691" y1="59.395" x2="123.559" y2="50.671"/>
	
		<line fill="none" stroke="#E2A459" stroke-width="1.1" stroke-miterlimit="10" x1="101.787" y1="72.442" x2="111.988" y2="62.241"/>
	<line fill="none" stroke="#E2A459" stroke-width="1.1" stroke-miterlimit="10" x1="121.648" y1="59.502" x2="123.559" y2="57.59"/>
	
		<line fill="none" stroke="#E2A459" stroke-width="1.1" stroke-miterlimit="10" x1="101.679" y1="79.472" x2="111.844" y2="69.307"/>
	
		<line fill="none" stroke="#E2A459" stroke-width="1.1" stroke-miterlimit="10" x1="102.977" y1="85.094" x2="111.916" y2="76.154"/>
</g>
</svg>
