<?xml version="1.0" encoding="utf-8"?>
<!-- Generator: Adobe Illustrator 16.0.0, SVG Export Plug-In . SVG Version: 6.00 Build 0)  -->
<!DOCTYPE svg PUBLIC "-//W3C//DTD SVG 1.1//EN" "http://www.w3.org/Graphics/SVG/1.1/DTD/svg11.dtd">
<svg version="1.1" id="Layer_1" xmlns="http://www.w3.org/2000/svg" xmlns:xlink="http://www.w3.org/1999/xlink" x="0px" y="0px"
	 width="280px" height="106px" viewBox="0 0 280 106" enable-background="new 0 0 280 106" xml:space="preserve">
<line fill="none" stroke="#5A5456" stroke-miterlimit="10" x1="22.468" y1="77.134" x2="71.301" y2="77.134"/>
<line fill="none" stroke="#5A5456" stroke-miterlimit="10" x1="15.932" y1="82.33" x2="54.119" y2="82.33"/>
<line fill="none" stroke="#5A5456" stroke-miterlimit="10" x1="33.417" y1="89.288" x2="62.75" y2="89.288"/>
<line fill="none" stroke="#5A5456" stroke-miterlimit="10" x1="201.027" y1="77.134" x2="250.609" y2="77.134"/>
<line fill="none" stroke="#5A5456" stroke-miterlimit="10" x1="218.451" y1="83.163" x2="257.139" y2="83.163"/>
<line fill="none" stroke="#5A5456" stroke-miterlimit="10" x1="210.267" y1="89.288" x2="238.6" y2="89.288"/>
<g>
	<path fill="none" stroke="#E2A459" stroke-width="1.1" stroke-linecap="round" stroke-linejoin="round" stroke-miterlimit="10" d="
		M180.95,43.423c-9.179,0-16.622,5.863-16.622,13.089c0,2.313,0.762,4.486,2.096,6.371c0.734,1.026,1.635,1.97,2.677,2.804
		c-0.556,1.072-2.096,3.538-5.281,5.565c-0.599,0.381,8.284-2.086,10.558-2.72c2.016,0.686,4.242,1.066,6.573,1.066
		c9.181,0,16.624-5.86,16.624-13.087C197.574,49.286,190.131,43.423,180.95,43.423z"/>
	
		<line fill="none" stroke="#E2A459" stroke-width="1.1" stroke-linecap="round" stroke-linejoin="round" stroke-miterlimit="10" x1="172.632" y1="51.953" x2="189.637" y2="51.953"/>
	
		<line fill="none" stroke="#E2A459" stroke-width="1.1" stroke-linecap="round" stroke-linejoin="round" stroke-miterlimit="10" x1="178.111" y1="55.268" x2="189.637" y2="55.268"/>
	
		<line fill="none" stroke="#E2A459" stroke-width="1.1" stroke-linecap="round" stroke-linejoin="round" stroke-miterlimit="10" x1="172.632" y1="55.268" x2="175.59" y2="55.268"/>
	
		<line fill="none" stroke="#E2A459" stroke-width="1.1" stroke-linecap="round" stroke-linejoin="round" stroke-miterlimit="10" x1="185.686" y1="58.578" x2="189.637" y2="58.578"/>
	
		<polyline fill="none" stroke="#E2A459" stroke-width="1.1" stroke-linecap="round" stroke-linejoin="round" stroke-miterlimit="10" points="
		172.632,58.578 181.597,58.578 183.161,58.578 	"/>
	
		<line fill="none" stroke="#E2A459" stroke-width="1.1" stroke-linecap="round" stroke-linejoin="round" stroke-miterlimit="10" x1="172.632" y1="61.891" x2="181.905" y2="61.891"/>
</g>
<g>
	<path fill="none" stroke="#E2A459" stroke-width="1.1" stroke-linecap="round" stroke-linejoin="round" stroke-miterlimit="10" d="
		M99.845,65.543c2.329,3.612,4.772,6.241,7.808,6.341c3.187,0.104,5.15-1.596,5.068-2.114c-0.084-0.521-0.358-1.407-1.443-2.513
		c-1.081-1.107-2.094-2.619-3.542-1.006c-1.444,1.616-1.103,1.083-1.804,0.715c-0.697-0.367-4.478-4.528-4.525-7.317
		c-0.013-0.672,1.052-0.249,2.324-1.305c0.949-0.789,1.417-1.452,0.005-3.623c-1.191-1.83-1.878-2.923-3.462-1.496
		c-1.582,1.425-3.138,2.686-2.696,6.131C97.83,61.315,98.572,63.561,99.845,65.543z"/>
	<g>
		<g>
			
				<path fill="none" stroke="#E2A459" stroke-width="1.1" stroke-linecap="round" stroke-linejoin="round" stroke-miterlimit="10" d="
				M116.125,62.859c-0.21-4.517-2.605-8.469-6.15-10.819"/>
		</g>
		<g>
			
				<path fill="none" stroke="#E2A459" stroke-width="1.1" stroke-linecap="round" stroke-linejoin="round" stroke-miterlimit="10" d="
				M113.571,62.859c-0.204-3.571-2.089-6.689-4.868-8.59"/>
		</g>
		
			<path fill="none" stroke="#E2A459" stroke-width="1.1" stroke-linecap="round" stroke-linejoin="round" stroke-miterlimit="10" d="
			M111.016,62.859c-0.195-2.624-1.568-4.913-3.587-6.366"/>
	</g>
</g>
<g>
	<g>
		
			<circle fill="none" stroke="#E2A459" stroke-width="0.7" stroke-linecap="round" stroke-linejoin="round" stroke-miterlimit="10" cx="125.584" cy="33.349" r="1.18"/>
		
			<polygon fill="none" stroke="#E2A459" stroke-width="0.7" stroke-linecap="round" stroke-linejoin="round" stroke-miterlimit="10" points="
			126.824,43.545 124.343,43.545 124.343,36.525 123.089,35.921 124.343,35.921 126.824,35.921 		"/>
	</g>
	<path fill="none" stroke="#E2A459" stroke-width="1.1" stroke-linecap="round" stroke-linejoin="round" stroke-miterlimit="10" d="
		M118.407,43.211c-0.306-0.428-0.572-0.882-0.803-1.361c-0.579-1.209-0.903-2.563-0.903-3.995c0-5.109,4.146-9.253,9.257-9.253
		c1.965,0,3.785,0.611,5.282,1.654"/>
	<path fill="none" stroke="#E2A459" stroke-width="1.1" stroke-linecap="round" stroke-linejoin="round" stroke-miterlimit="10" d="
		M135.212,37.855c0,5.113-4.143,9.257-9.254,9.257c-2.345,0-4.485-0.873-6.115-2.309"/>
	<path fill="none" stroke="#E2A459" stroke-width="1.1" stroke-linecap="round" stroke-linejoin="round" stroke-miterlimit="10" d="
		M132.897,31.733c0.515,0.584,0.959,1.234,1.315,1.935c0.209,0.41,0.387,0.837,0.533,1.28"/>
</g>
<g>
	
		<line fill="none" stroke="#E2A459" stroke-width="1.1" stroke-linecap="square" stroke-linejoin="round" stroke-miterlimit="10" x1="92.225" y1="100.893" x2="92.225" y2="97.24"/>
	
		<polyline fill="none" stroke="#E2A459" stroke-width="1.1" stroke-linecap="square" stroke-linejoin="round" stroke-miterlimit="10" points="
		92.225,94.597 92.225,81.899 109.657,81.899 109.657,104.886 92.225,104.886 92.225,103.415 	"/>
	
		<line fill="none" stroke="#E2A459" stroke-width="1.1" stroke-linecap="round" stroke-linejoin="round" stroke-miterlimit="10" x1="95.685" y1="85.614" x2="105.783" y2="85.614"/>
	
		<line fill="none" stroke="#E2A459" stroke-width="1.1" stroke-linecap="round" stroke-linejoin="round" stroke-miterlimit="10" x1="95.685" y1="89.202" x2="105.783" y2="89.202"/>
	
		<line fill="none" stroke="#E2A459" stroke-width="1.1" stroke-linecap="round" stroke-linejoin="round" stroke-miterlimit="10" x1="95.685" y1="92.789" x2="105.783" y2="92.789"/>
	<path fill="none" stroke="#E2A459" stroke-width="1.1" stroke-linecap="round" stroke-linejoin="round" stroke-miterlimit="10" d="
		M102.462,98.258c0.531,0.339,1.91,1.797,1.91,1.797s1.062-2.919,1.697-3.367"/>
</g>
<g>
	<path fill="none" stroke="#E2A459" stroke-linecap="square" stroke-linejoin="round" stroke-miterlimit="10" d="M133.141,90.674
		c-3.376,1.75-7.738,3.863-9.023,4.435c-3.876,1.722-2.153,10.332-2.153,10.332h11.702"/>
	<path fill="none" stroke="#E2A459" stroke-linecap="square" stroke-linejoin="round" stroke-miterlimit="10" d="M156.338,89.608
		c4.003,2.054,9.588,5.022,10.661,5.5c3.874,1.722,2.153,10.332,2.153,10.332h-27.548h-2.898"/>
	
		<line fill="none" stroke="#E2A459" stroke-width="0.983" stroke-linecap="square" stroke-linejoin="round" stroke-miterlimit="10" x1="151.455" y1="81.976" x2="151.969" y2="87.685"/>
	
		<line fill="none" stroke="#E2A459" stroke-linecap="square" stroke-linejoin="round" stroke-miterlimit="10" x1="134.443" y1="64.499" x2="134.948" y2="68.027"/>
	
		<line fill="none" stroke="#E2A459" stroke-width="0.983" stroke-linecap="square" stroke-linejoin="round" stroke-miterlimit="10" x1="138.991" y1="81.353" x2="138.426" y2="87.161"/>
	<circle fill="#E2A459" cx="140.618" cy="70.012" r="1.077"/>
	<path fill="none" stroke="#E2A459" stroke-linecap="square" stroke-linejoin="round" stroke-miterlimit="10" d="M145.234,83.506
		c-5.495-0.188-7.137-2.469-9.153-7.762c-0.387-1.014-0.693-1.515-0.882-1.448c-1.45,0.504-1.86-2.656-2.017-3.719
		c-0.315-2.142,1.386-3.023,2.017-0.881"/>
	<path fill="#E2A459" d="M149.005,77.012c0.03,0.474-2.473,2.136-3.661,2.136s-3.744-1.662-3.78-2.136
		c-0.016-0.201,2.397,0.549,3.72,0.561C146.643,77.584,148.992,76.811,149.005,77.012z"/>
	<path fill="#E2A459" d="M142.502,67.908c-0.01,0.19-0.122,0.342-0.248,0.335l-3.317-0.182c-0.126-0.008-0.219-0.169-0.209-0.361
		l0,0c0.01-0.192,0.121-0.342,0.247-0.333l3.318,0.18C142.419,67.555,142.514,67.717,142.502,67.908L142.502,67.908z"/>
	<path fill="#E2A459" d="M145.092,75.114c-0.504,0-1.502-0.396-1.522-0.639c-0.021-0.241,0.503-0.385,0.613-0.385
		c0.109,0,0.72,0.213,0.933,0.213c0.212,0,0.831-0.209,0.927-0.213c0.095-0.004,0.617,0.123,0.638,0.385
		C146.698,74.736,145.597,75.114,145.092,75.114z"/>
	<circle fill="#E2A459" cx="149.944" cy="70.012" r="1.077"/>
	<path fill="none" stroke="#E2A459" stroke-linecap="square" stroke-linejoin="round" stroke-miterlimit="10" d="M145.327,83.506
		c5.496-0.188,7.138-2.469,9.154-7.762c0.386-1.014,0.692-1.515,0.881-1.448c1.45,0.504,1.86-2.656,2.019-3.719
		c0.313-2.142-1.388-3.023-2.019-0.881"/>
	<path fill="#E2A459" d="M148.061,67.908c0.011,0.19,0.122,0.342,0.247,0.335l3.318-0.182c0.125-0.008,0.219-0.169,0.209-0.361l0,0
		c-0.009-0.192-0.121-0.342-0.247-0.333l-3.318,0.18C148.145,67.555,148.051,67.717,148.061,67.908L148.061,67.908z"/>
	<path fill="none" stroke="#E2A459" stroke-linecap="square" stroke-linejoin="round" stroke-miterlimit="10" d="M151.016,59.866
		c1.322,1.386,3.148,4.411,3.654,6.806"/>
	<path fill="none" stroke="#E2A459" stroke-linecap="square" stroke-linejoin="round" stroke-miterlimit="10" d="M156.055,66.356
		c-0.048-1.396,0.145-3.417-0.474-5.476c-0.454-1.513-2.266-5.146-4.324-4.528c-0.298-1.086-2.675-2.884-2.675-2.884
		s-7.779-2.695-15.235,2.266c0.434,0.3,1.157,0.73,1.442,1.44c0.284,0.712-1.648,1.854-2.677,3.089
		c1.441,1.029,2.98,1.572,2.98,1.572s5.666-3.425,14.097-3.797"/>
	<g>
		<polygon fill="none" stroke="#E2A459" stroke-linecap="square" stroke-linejoin="round" stroke-miterlimit="10" points="
			142.995,90.487 148.539,90.487 147.401,94.503 144.149,94.503 		"/>
		<polyline fill="none" stroke="#E2A459" stroke-linecap="square" stroke-linejoin="round" stroke-miterlimit="10" points="
			149.491,104.609 147.251,94.589 144.366,94.675 142.616,104.728 		"/>
	</g>
	<g>
		<polygon fill="none" stroke="#E2A459" stroke-linecap="square" stroke-linejoin="round" stroke-miterlimit="10" points="
			158.116,87.366 155.975,85.057 148.124,90.831 151.547,94.34 		"/>
	</g>
	<g>
		<polygon fill="none" stroke="#E2A459" stroke-linecap="square" stroke-linejoin="round" stroke-miterlimit="10" points="
			133.292,87.743 135.434,85.435 143.406,90.655 140.173,94.413 		"/>
	</g>
</g>
</svg>
