<?xml version="1.0" encoding="utf-8"?>
<!-- Generator: Adobe Illustrator 16.0.0, SVG Export Plug-In . SVG Version: 6.00 Build 0)  -->
<!DOCTYPE svg PUBLIC "-//W3C//DTD SVG 1.1//EN" "http://www.w3.org/Graphics/SVG/1.1/DTD/svg11.dtd">
<svg version="1.1" id="Layer_1" xmlns="http://www.w3.org/2000/svg" xmlns:xlink="http://www.w3.org/1999/xlink" x="0px" y="0px"
	 width="280px" height="106px" viewBox="0 0 280 106" enable-background="new 0 0 280 106" xml:space="preserve">
<line fill="none" stroke="#5A5456" stroke-miterlimit="10" x1="21.468" y1="80.475" x2="70.301" y2="80.475"/>
<line fill="none" stroke="#5A5456" stroke-miterlimit="10" x1="14.932" y1="85.671" x2="53.119" y2="85.671"/>
<line fill="none" stroke="#5A5456" stroke-miterlimit="10" x1="32.417" y1="92.629" x2="61.75" y2="92.629"/>
<line fill="none" stroke="#5A5456" stroke-miterlimit="10" x1="207.027" y1="80.475" x2="256.609" y2="80.475"/>
<line fill="none" stroke="#5A5456" stroke-miterlimit="10" x1="224.451" y1="86.504" x2="263.139" y2="86.504"/>
<line fill="none" stroke="#5A5456" stroke-miterlimit="10" x1="216.268" y1="92.629" x2="244.6" y2="92.629"/>
<g>
	<path fill="none" stroke="#E2A459" stroke-width="1.1" stroke-linecap="round" stroke-linejoin="round" stroke-miterlimit="10" d="
		M196.95,42.764c-9.179,0-16.622,5.863-16.622,13.089c0,2.313,0.762,4.486,2.096,6.371c0.734,1.026,1.635,1.971,2.678,2.805
		c-0.557,1.071-2.097,3.537-5.281,5.564c-0.6,0.381,8.283-2.086,10.558-2.721c2.017,0.687,4.242,1.066,6.573,1.066
		c9.181,0,16.624-5.859,16.624-13.086C213.574,48.627,206.131,42.764,196.95,42.764z"/>
	
		<line fill="none" stroke="#E2A459" stroke-width="1.1" stroke-linecap="round" stroke-linejoin="round" stroke-miterlimit="10" x1="188.632" y1="51.294" x2="205.637" y2="51.294"/>
	
		<line fill="none" stroke="#E2A459" stroke-width="1.1" stroke-linecap="round" stroke-linejoin="round" stroke-miterlimit="10" x1="194.111" y1="54.608" x2="205.637" y2="54.608"/>
	
		<line fill="none" stroke="#E2A459" stroke-width="1.1" stroke-linecap="round" stroke-linejoin="round" stroke-miterlimit="10" x1="188.632" y1="54.608" x2="191.59" y2="54.608"/>
	
		<line fill="none" stroke="#E2A459" stroke-width="1.1" stroke-linecap="round" stroke-linejoin="round" stroke-miterlimit="10" x1="201.686" y1="57.919" x2="205.637" y2="57.919"/>
	
		<polyline fill="none" stroke="#E2A459" stroke-width="1.1" stroke-linecap="round" stroke-linejoin="round" stroke-miterlimit="10" points="
		188.632,57.919 197.598,57.919 199.161,57.919 	"/>
	
		<line fill="none" stroke="#E2A459" stroke-width="1.1" stroke-linecap="round" stroke-linejoin="round" stroke-miterlimit="10" x1="188.632" y1="61.231" x2="197.904" y2="61.231"/>
</g>
<g>
	<path fill="none" stroke="#E2A459" stroke-linecap="square" stroke-linejoin="round" stroke-miterlimit="10" d="M148.614,88.688
		c-3.222,1.67-7.385,3.688-8.612,4.233c-3.699,1.643-2.055,9.86-2.055,9.86h11.168"/>
	<path fill="none" stroke="#E2A459" stroke-linecap="square" stroke-linejoin="round" stroke-miterlimit="10" d="M170.752,87.671
		c3.819,1.961,9.149,4.793,10.174,5.249c3.697,1.645,2.056,9.86,2.056,9.86h-26.292h-2.765"/>
	
		<line fill="none" stroke="#E2A459" stroke-linecap="square" stroke-linejoin="round" stroke-miterlimit="10" x1="166.092" y1="80.389" x2="166.582" y2="85.837"/>
	
		<line fill="none" stroke="#E2A459" stroke-width="0.9544" stroke-linecap="square" stroke-linejoin="round" stroke-miterlimit="10" x1="149.856" y1="63.709" x2="150.338" y2="67.076"/>
	
		<line fill="none" stroke="#E2A459" stroke-linecap="square" stroke-linejoin="round" stroke-miterlimit="10" x1="154.196" y1="79.794" x2="153.657" y2="85.336"/>
	<circle fill="#E2A459" cx="155.749" cy="68.97" r="1.028"/>
	<path fill="none" stroke="#E2A459" stroke-linecap="square" stroke-linejoin="round" stroke-miterlimit="10" d="M160.155,81.848
		c-5.245-0.179-6.812-2.355-8.736-7.407c-0.368-0.968-0.66-1.446-0.841-1.382c-1.385,0.48-1.775-2.534-1.925-3.549
		c-0.301-2.044,1.322-2.885,1.925-0.842"/>
	<path fill="#E2A459" d="M163.753,75.65c0.029,0.453-2.359,2.039-3.494,2.039c-1.133,0-3.573-1.586-3.606-2.039
		c-0.016-0.192,2.287,0.523,3.55,0.535C161.499,76.196,163.741,75.458,163.753,75.65z"/>
	<path fill="#E2A459" d="M157.547,66.962c-0.009,0.182-0.116,0.326-0.236,0.32l-3.165-0.175c-0.12-0.007-0.21-0.16-0.199-0.344l0,0
		c0.009-0.184,0.115-0.327,0.235-0.317l3.166,0.171C157.468,66.625,157.559,66.779,157.547,66.962L157.547,66.962z"/>
	<path fill="#E2A459" d="M160.019,73.839c-0.48,0-1.434-0.378-1.452-0.61c-0.021-0.229,0.48-0.367,0.586-0.367
		c0.104,0,0.686,0.203,0.89,0.203c0.202,0,0.793-0.199,0.885-0.203c0.091-0.003,0.589,0.118,0.609,0.367
		C161.552,73.479,160.502,73.839,160.019,73.839z"/>
	<circle fill="#E2A459" cx="164.648" cy="68.97" r="1.028"/>
	<path fill="none" stroke="#E2A459" stroke-linecap="square" stroke-linejoin="round" stroke-miterlimit="10" d="M160.243,81.848
		c5.245-0.179,6.813-2.355,8.735-7.407c0.369-0.968,0.661-1.446,0.841-1.382c1.385,0.48,1.776-2.534,1.928-3.549
		c0.298-2.044-1.324-2.885-1.928-0.842"/>
	<path fill="#E2A459" d="M162.852,66.962c0.012,0.182,0.118,0.326,0.237,0.32l3.166-0.175c0.119-0.007,0.21-0.16,0.199-0.344l0,0
		c-0.009-0.184-0.115-0.327-0.235-0.317l-3.167,0.171C162.933,66.625,162.843,66.779,162.852,66.962L162.852,66.962z"/>
	
		<path fill="none" stroke="#E2A459" stroke-width="0.9544" stroke-linecap="square" stroke-linejoin="round" stroke-miterlimit="10" d="
		M165.672,59.287c1.263,1.323,3.005,4.21,3.488,6.495"/>
	<path fill="none" stroke="#E2A459" stroke-linecap="square" stroke-linejoin="round" stroke-miterlimit="10" d="M170.481,65.48
		c-0.046-1.332,0.139-3.26-0.452-5.226c-0.434-1.443-2.163-4.911-4.127-4.321c-0.284-1.037-2.553-2.752-2.553-2.752
		s-7.424-2.572-14.539,2.162c0.414,0.286,1.104,0.696,1.376,1.374c0.271,0.681-1.572,1.769-2.555,2.949
		c1.375,0.981,2.844,1.499,2.844,1.499s5.407-3.269,13.454-3.623"/>
	<g>
		<polygon fill="none" stroke="#E2A459" stroke-linecap="square" stroke-linejoin="round" stroke-miterlimit="10" points="
			158.018,88.51 163.309,88.51 162.222,92.343 159.118,92.343 		"/>
		<polyline fill="none" stroke="#E2A459" stroke-linecap="square" stroke-linejoin="round" stroke-miterlimit="10" points="
			164.218,101.988 162.079,92.425 159.326,92.507 157.656,102.102 		"/>
	</g>
	<g>
		<polygon fill="none" stroke="#E2A459" stroke-linecap="square" stroke-linejoin="round" stroke-miterlimit="10" points="
			172.448,85.532 170.405,83.328 162.913,88.839 166.18,92.188 		"/>
	</g>
	<g>
		<polygon fill="none" stroke="#E2A459" stroke-linecap="square" stroke-linejoin="round" stroke-miterlimit="10" points="
			148.758,85.892 150.803,83.689 158.41,88.67 155.324,92.257 		"/>
	</g>
</g>
<g>
	<g>
		<path fill="none" stroke="#E2A459" stroke-width="1.1" stroke-linejoin="round" stroke-miterlimit="10" d="M86.928,96.131
			l-0.951-10.62c0,0,2.688,0.005,3.801,0.005c0,0.497,0,2.255,0,2.776c0.764,0,2.67,0,3.436,0c0-0.493,0-2.251,0-2.771
			c1.113,0,2.315,0,3.438,0c0,0.492,0,2.258,0,2.774c0.777,0,2.667,0,3.435,0c0-0.51,0-2.268,0-2.78c1.104,0,2.325,0,3.438,0
			c0,0.497,0,2.262,0,2.78c0.782,0,2.668,0,3.438,0c0-0.504,0-2.26,0-2.778c1.114,0,2.321,0,3.437,0c0,0.5,0,2.255,0,2.774
			c0.771,0,2.669,0,3.437,0c0-0.491,0-2.249,0-2.771c1.109,0,3.291,0,3.291,0l-1.029,10.609"/>
		
			<line fill="none" stroke="#E2A459" stroke-width="1.1" stroke-linejoin="round" stroke-miterlimit="10" x1="106.513" y1="96.13" x2="109.887" y2="96.129"/>
		<path fill="none" stroke="#E2A459" stroke-width="1.1" stroke-linejoin="round" stroke-miterlimit="10" d="M112.464,96.129
			c5.212-0.002-1.656,0.001,3.556,0.001c0.873,0,1.441,0.461,1.441,1.177c0.004,1.494,0.004,2.987,0.002,4.482
			c-0.002,0.753-0.555,1.211-1.465,1.211c-4.818,0.001-9.634,0-14.452,0c-4.785,0-9.57,0.001-14.356,0
			c-1.038,0-1.565-0.436-1.565-1.289c0-1.461-0.002-2.919,0-4.381c0-0.715,0.585-1.2,1.456-1.2c0.393,0,17.129,0,17.521,0"/>
		<circle fill="#E2A459" cx="114.124" cy="99.678" r="0.824"/>
	</g>
	<g>
		<g>
			<g>
				<polyline fill="none" stroke="#E2A459" stroke-width="1.1" stroke-linejoin="round" stroke-miterlimit="10" points="
					132.203,40.34 126.399,40.34 126.399,14.178 138.831,14.178 138.831,26.042 				"/>
				<polygon fill="none" stroke="#E2A459" stroke-width="1.1" stroke-linejoin="round" stroke-miterlimit="10" points="
					144.429,50.074 132.203,50.074 132.203,30.314 132.203,25.738 144.429,25.738 				"/>
			</g>
		</g>
		
			<line fill="none" stroke="#E2A459" stroke-width="1.1" stroke-linejoin="round" stroke-miterlimit="10" x1="135.539" y1="29.327" x2="135.539" y2="46.122"/>
		
			<line fill="none" stroke="#E2A459" stroke-width="1.1" stroke-linejoin="round" stroke-miterlimit="10" x1="138.172" y1="28.668" x2="138.172" y2="36.243"/>
		
			<line fill="none" stroke="#E2A459" stroke-width="1.1" stroke-linejoin="round" stroke-miterlimit="10" x1="138.502" y1="39.536" x2="138.502" y2="43.817"/>
		
			<line fill="none" stroke="#E2A459" stroke-width="1.1" stroke-linejoin="round" stroke-miterlimit="10" x1="141.465" y1="29.327" x2="141.465" y2="46.122"/>
		
			<line fill="none" stroke="#E2A459" stroke-width="1.1" stroke-linejoin="round" stroke-miterlimit="10" x1="126.482" y1="18.953" x2="131.195" y2="14.238"/>
		
			<line fill="none" stroke="#E2A459" stroke-width="1.1" stroke-linejoin="round" stroke-miterlimit="10" x1="126.296" y1="22.432" x2="134.447" y2="14.281"/>
		
			<line fill="none" stroke="#E2A459" stroke-width="1.1" stroke-linejoin="round" stroke-miterlimit="10" x1="126.399" y1="25.951" x2="138.09" y2="14.26"/>
		
			<line fill="none" stroke="#E2A459" stroke-width="1.1" stroke-linejoin="round" stroke-miterlimit="10" x1="126.44" y1="29.533" x2="138.831" y2="17.142"/>
		
			<line fill="none" stroke="#E2A459" stroke-width="1.1" stroke-linejoin="round" stroke-miterlimit="10" x1="133.767" y1="25.745" x2="138.831" y2="20.765"/>
		
			<line fill="none" stroke="#E2A459" stroke-width="1.1" stroke-linejoin="round" stroke-miterlimit="10" x1="126.399" y1="33.196" x2="132.224" y2="27.372"/>
		
			<line fill="none" stroke="#E2A459" stroke-width="1.1" stroke-linejoin="round" stroke-miterlimit="10" x1="137.74" y1="25.808" x2="138.831" y2="24.717"/>
		
			<line fill="none" stroke="#E2A459" stroke-width="1.1" stroke-linejoin="round" stroke-miterlimit="10" x1="126.337" y1="37.21" x2="132.142" y2="31.406"/>
		
			<line fill="none" stroke="#E2A459" stroke-width="1.1" stroke-linejoin="round" stroke-miterlimit="10" x1="127.078" y1="40.42" x2="132.183" y2="35.316"/>
	</g>
	<g>
		<g>
			<path fill="none" stroke="#E2A459" stroke-width="1.1" stroke-linejoin="round" stroke-miterlimit="10" d="M107.754,33.219
				v-2.681c0-0.213-0.176-0.383-0.396-0.383h-4.143c-0.217,0-0.394,0.17-0.394,0.383v1.706"/>
			
				<path fill="none" stroke="#E2A459" stroke-width="1.1" stroke-linecap="round" stroke-linejoin="round" stroke-miterlimit="10" d="
				M108.543,36.85c0,0.194-0.177,0.353-0.395,0.353h-5.72c-0.219,0-0.395-0.159-0.395-0.353v-2.068c0-0.195,0.176-0.353,0.395-0.353
				h5.72c0.218,0,0.395,0.158,0.395,0.353V36.85z"/>
			<path fill="none" stroke="#E2A459" stroke-width="1.1" stroke-linejoin="round" stroke-miterlimit="10" d="M111.377,68.102
				V49.167c0,0,0.164-4.041-0.516-6.323c-0.375-1.256-2.377-4.812-2.852-5.92 M99.584,66.482c0,1.589,0,2.661,0,2.867
				c0,0.933,0.946,2.079,2.066,1.993h2.74 M99.584,59.173c0,1.57,0,3.139,0,3.968 M102.349,37.253
				c-0.829,1.812-2.765,6.104-2.764,8.492c0,1.036,0,8.938,0,11.496 M108.984,52.503c0,0.335-0.229,1.667-1.098,1.479
				c-0.87-0.188-1.063-1.098-1.154-2.321c0,0-0.236-3.292,0-5.846c0.1-1.071,0.786-2.452,1.176-2.432
				c0.39,0.022,1.028,0.125,1.077,3.247C109.029,49.572,108.984,52.503,108.984,52.503z"/>
		</g>
		<g>
			<g>
				
					<line fill="none" stroke="#E2A459" stroke-width="1.1" stroke-linejoin="round" stroke-miterlimit="10" x1="115.334" y1="34.504" x2="115.334" y2="63.781"/>
				
					<line fill="none" stroke="#E2A459" stroke-width="1.1" stroke-linejoin="round" stroke-miterlimit="10" x1="115.385" y1="26.404" x2="115.334" y2="31.672"/>
				
					<line fill="none" stroke="#E2A459" stroke-width="1.4" stroke-linejoin="round" stroke-miterlimit="10" x1="116.401" y1="33.032" x2="114.266" y2="33.032"/>
				<path fill="none" stroke="#E2A459" stroke-width="1.1" stroke-linejoin="round" stroke-miterlimit="10" d="M116.535,69.653
					h6.516c1.023,0,1.341,0.588,1.395,0.706l0.034,0.073l0.389,2.332c0.013,0.121,0.037,0.536-0.263,0.867
					c-0.143,0.157-0.405,0.343-0.842,0.343h-16.811c-0.683,0-1.076-0.528-1.153-1.02l-0.015-0.097l0.34-2.046
					c0.01-0.16,0.064-0.526,0.352-0.814c0.154-0.157,0.431-0.345,0.872-0.345h6.754"/>
				<path fill="none" stroke="#E2A459" stroke-width="1.1" stroke-linejoin="round" stroke-miterlimit="10" d="M116.454,71.094
					c0,0.704-2.24,0.709-2.24,0c0-0.705,0-5.72,0-5.72h2.24C116.454,65.374,116.454,70.59,116.454,71.094z"/>
			</g>
		</g>
	</g>
</g>
</svg>
