<?xml version="1.0" encoding="utf-8"?>
<!-- Generator: Adobe Illustrator 16.0.0, SVG Export Plug-In . SVG Version: 6.00 Build 0)  -->
<!DOCTYPE svg PUBLIC "-//W3C//DTD SVG 1.1//EN" "http://www.w3.org/Graphics/SVG/1.1/DTD/svg11.dtd">
<svg version="1.1" id="Layer_1" xmlns="http://www.w3.org/2000/svg" xmlns:xlink="http://www.w3.org/1999/xlink" x="0px" y="0px"
	 width="280px" height="106px" viewBox="0 0 280 106" enable-background="new 0 0 280 106" xml:space="preserve">
<line fill="none" stroke="#5A5456" stroke-miterlimit="10" x1="16.468" y1="72.134" x2="65.301" y2="72.134"/>
<line fill="none" stroke="#5A5456" stroke-miterlimit="10" x1="9.932" y1="78.33" x2="48.119" y2="78.33"/>
<line fill="none" stroke="#5A5456" stroke-miterlimit="10" x1="27.417" y1="84.288" x2="56.75" y2="84.288"/>
<line fill="none" stroke="#5A5456" stroke-miterlimit="10" x1="215.027" y1="72.134" x2="264.609" y2="72.134"/>
<line fill="none" stroke="#5A5456" stroke-miterlimit="10" x1="232.451" y1="78.163" x2="271.139" y2="78.163"/>
<line fill="none" stroke="#5A5456" stroke-miterlimit="10" x1="224.267" y1="84.288" x2="252.6" y2="84.288"/>
<g>
	<g>
		<path fill="none" stroke="#E2A459" stroke-width="1.086" stroke-miterlimit="10" d="M108.721,92.549v5.062
			c0,0.82-0.678,1.484-1.514,1.484H83.493c-0.836,0-1.514-0.664-1.514-1.484V80.439c0-0.819,0.678-1.484,1.514-1.484h23.714
			c0.836,0,1.514,0.665,1.514,1.484v5.987"/>
		<path fill="none" stroke="#E2A459" stroke-width="1.086" stroke-miterlimit="10" d="M95.206,97.558H84.935
			c-0.717,0-1.297-0.568-1.297-1.27v-1.612"/>
		
			<line fill="none" stroke="#E2A459" stroke-width="1.086" stroke-miterlimit="10" x1="100.128" y1="97.558" x2="96.05" y2="97.558"/>
		
			<line fill="none" stroke="#E2A459" stroke-width="1.086" stroke-miterlimit="10" x1="104.487" y1="97.558" x2="101.042" y2="97.558"/>
		<path fill="none" stroke="#E2A459" stroke-width="1.086" stroke-miterlimit="10" d="M85.792,76.729l-1.833,0.022
			c-0.821,0-1.485,0.665-1.485,1.485v1.039"/>
		<path fill="none" stroke="#E2A459" stroke-width="1.086" stroke-miterlimit="10" d="M110.538,94.472v1.652
			c0,0.82-0.501,1.813-1.321,1.813h-0.975"/>
		
			<line fill="none" stroke="#E2A459" stroke-width="1.086" stroke-miterlimit="10" x1="110.538" y1="92.608" x2="110.538" y2="93.518"/>
		
			<line fill="none" stroke="#E2A459" stroke-width="1.0059" stroke-miterlimit="10" x1="110.538" y1="81.924" x2="110.538" y2="85.722"/>
		<path fill="none" stroke="#E2A459" stroke-width="1.086" stroke-miterlimit="10" d="M107.116,76.752h1.934
			c0.822,0,1.488,0.665,1.488,1.485v1.898"/>
		<path fill="none" stroke="#E2A459" stroke-width="1.086" stroke-miterlimit="10" d="M110.593,91.295l-2.408,1.361h-3.003
			c-1.757,0-3.183-1.347-3.183-3.014l0,0c0-1.661,1.426-3.013,3.183-3.013h2.919l2.492-1.361V91.295z"/>
		<circle fill="none" stroke="#E2A459" stroke-width="0.947" stroke-miterlimit="10" cx="105.212" cy="89.63" r="1.128"/>
		<polyline fill="none" stroke="#E2A459" stroke-width="1.086" stroke-miterlimit="10" points="86.675,77.792 97.891,68.334 
			101.644,72.512 		"/>
		<polyline fill="none" stroke="#E2A459" stroke-width="1.086" stroke-miterlimit="10" points="90.939,77.865 103.189,71.762 
			106.085,77.568 		"/>
		<g>
			<path fill="#E2A459" d="M103.433,76.277c-0.076,0.177-0.243,0.409-0.528,0.595c-0.352,0.219-0.748,0.287-1.124,0.174
				c-0.28-0.076-0.549-0.261-0.787-0.546l-0.267,0.17l-0.135-0.212l0.246-0.156c-0.014-0.021-0.027-0.041-0.042-0.066
				c-0.044-0.069-0.082-0.137-0.117-0.2l-0.254,0.164l-0.138-0.216l0.287-0.184c-0.142-0.336-0.171-0.67-0.112-0.954
				c0.075-0.373,0.272-0.681,0.627-0.907c0.256-0.162,0.502-0.218,0.664-0.229l0.096,0.339c-0.149,0.006-0.368,0.065-0.562,0.19
				c-0.232,0.148-0.372,0.354-0.42,0.602c-0.049,0.209-0.011,0.46,0.092,0.715l1.207-0.772l0.137,0.22l-1.246,0.792
				c0.032,0.06,0.068,0.13,0.107,0.19c0.016,0.026,0.032,0.045,0.049,0.075l1.256-0.8l0.134,0.214l-1.223,0.78
				c0.193,0.229,0.399,0.359,0.6,0.414c0.268,0.066,0.536,0.013,0.769-0.136c0.23-0.147,0.373-0.363,0.437-0.482L103.433,76.277z"/>
		</g>
		<path fill="#E2A459" d="M96.776,72.23c0.237,0.311,0.585,0.299,1.056,0.163c0.344-0.094,0.575-0.079,0.725,0.116
			c0.036,0.044,0.056,0.093,0.071,0.142l0.34-0.167c-0.026-0.089-0.068-0.163-0.122-0.236c-0.243-0.317-0.569-0.359-1.049-0.228
			c-0.406,0.111-0.609,0.119-0.751-0.067c-0.108-0.139-0.131-0.384,0.142-0.593c0.228-0.175,0.432-0.207,0.539-0.222l-0.09-0.304
			c-0.149,0.019-0.338,0.075-0.556,0.229l-0.265-0.343l-0.22,0.169l0.275,0.357C96.587,71.552,96.55,71.937,96.776,72.23z"/>
	</g>
	<g>
		<g>
			
				<line fill="none" stroke="#E2A459" stroke-width="1.086" stroke-miterlimit="10" x1="191.398" y1="80.851" x2="191.398" y2="71.183"/>
			
				<line fill="none" stroke="#E2A459" stroke-width="1.086" stroke-miterlimit="10" x1="191.398" y1="95.534" x2="191.398" y2="85.111"/>
			<polyline fill="none" stroke="#E2A459" stroke-width="1.086" stroke-miterlimit="10" points="135.641,71.183 135.641,105 
				140.732,105 154.403,105 191.398,105 191.398,99.33 			"/>
			<path fill="none" stroke="#E2A459" stroke-width="1.086" stroke-miterlimit="10" d="M200.479,69.884L165.053,38.17
				c-0.612-0.617-1.659-0.762-2.596,0c-0.941,0.769-35.432,31.714-35.432,31.714c-0.177,0.158-0.1,0.528,0.178,0.836l1.493,1.665
				c0.277,0.311,0.64,0.433,0.812,0.273l3.439-3.077l3.092-2.765l27.711-24.798l22.297,19.954l5.019,4.489l6.926,6.197
				c0.171,0.159,0.541,0.037,0.813-0.273l1.497-1.665C200.573,70.412,200.656,70.042,200.479,69.884z"/>
		</g>
		
			<rect x="155.941" y="69.972" fill="none" stroke="#E2A459" stroke-width="1.086" stroke-miterlimit="10" width="15.468" height="18.936"/>
		
			<line fill="none" stroke="#E2A459" stroke-width="1.086" stroke-miterlimit="10" x1="163.404" y1="70.445" x2="163.404" y2="88.907"/>
		
			<line fill="none" stroke="#E2A459" stroke-width="1.086" stroke-miterlimit="10" x1="155.741" y1="78.494" x2="169.228" y2="78.494"/>
		<polyline fill="none" stroke="#E2A459" stroke-width="1.086" stroke-miterlimit="10" points="179.375,46.78 179.375,43.934 
			184.813,43.934 184.813,52.451 		"/>
	</g>
	<g>
		<g>
			<g>
				<path fill="none" stroke="#E2A459" stroke-width="1.1" stroke-linecap="round" stroke-miterlimit="10" d="M103.087,42.7
					c1.402-0.578,2.292-0.008,3.297,0.616c0.8,0.511,1.686,1.063,2.83,1.063c0.829,0,1.829-0.297,3.059-1.063
					c2.03-1.404,3.087-0.723,4.316,0.042c0.8,0.51,1.688,1.06,2.83,1.06c0.83,0,1.829-0.293,3.059-1.06"/>
			</g>
		</g>
		<g>
			<g>
				<path fill="none" stroke="#E2A459" stroke-width="1.1" stroke-linecap="round" stroke-miterlimit="10" d="M104.67,47.929
					c0.608,0.119,1.142,0.456,1.713,0.81c0.8,0.512,1.686,1.064,2.83,1.064c0.829,0,1.829-0.299,3.059-1.064
					c2.03-1.403,3.087-0.723,4.316,0.043c0.8,0.51,1.688,1.061,2.83,1.061c0.83,0,1.829-0.297,3.059-1.061"/>
			</g>
		</g>
		<g>
			<g>
				<path fill="none" stroke="#E2A459" stroke-width="1.1" stroke-linecap="round" stroke-miterlimit="10" d="M103.929,53.324
					c0.948-0.106,1.666,0.349,2.455,0.839c0.8,0.511,1.686,1.06,2.83,1.06c0.829,0,1.829-0.295,3.059-1.06
					c2.03-1.403,3.087-0.723,4.316,0.042c0.8,0.512,1.688,1.063,2.83,1.063c0.83,0,1.829-0.296,3.059-1.063"/>
			</g>
		</g>
		<path fill="#E2A459" d="M98.035,56.921c-3.921,0-7.11-3.251-7.11-7.247c0-3.305,4.701-11.781,6.245-14.567
			c0.197-0.354,0.337-0.606,0.411-0.746c0.054-0.09,0.212-0.25,0.454-0.25c0.151,0,0.353,0.042,0.45,0.24l0.091,0.161
			c4.176,7.339,6.571,12.866,6.571,15.162C105.146,53.67,101.956,56.921,98.035,56.921z M97.189,37.346
			c-2.196,4.197-5.199,9.934-5.199,12.328c0,3.391,2.711,6.147,6.044,6.147c3.333,0,6.046-2.757,6.046-6.147
			c0-2.396-3.007-8.138-5.202-12.33l-0.844-1.614L97.189,37.346z"/>
		<path fill="#E2A459" d="M98.119,53.776c-3.271-0.044-4.301-2.734-4.395-4.317c-0.031-0.326,0.233-0.528,0.498-0.556
			c0.282,0,0.495,0.207,0.525,0.514c0.293,2.103,1.476,3.276,3.33,3.308c0.275,0,0.515,0.269,0.515,0.575
			c-0.026,0.249-0.228,0.478-0.433,0.48L98.119,53.776z"/>
	</g>
	<g>
		<g>
			
				<line fill="none" stroke="#E2A459" stroke-width="1.1" stroke-miterlimit="10" x1="138.76" y1="17.243" x2="143.042" y2="17.243"/>
			
				<line fill="none" stroke="#E2A459" stroke-width="1.1" stroke-miterlimit="10" x1="138.76" y1="19.392" x2="140.693" y2="19.392"/>
			
				<line fill="none" stroke="#E2A459" stroke-width="1.1" stroke-miterlimit="10" x1="138.76" y1="21.542" x2="140.693" y2="21.542"/>
			
				<line fill="none" stroke="#E2A459" stroke-width="1.1" stroke-miterlimit="10" x1="138.76" y1="23.692" x2="140.693" y2="23.692"/>
			
				<line fill="none" stroke="#E2A459" stroke-width="1.1" stroke-miterlimit="10" x1="138.76" y1="12.945" x2="140.693" y2="12.945"/>
			
				<line fill="none" stroke="#E2A459" stroke-width="1.1" stroke-miterlimit="10" x1="138.76" y1="10.796" x2="140.693" y2="10.796"/>
			
				<line fill="none" stroke="#E2A459" stroke-width="1.1" stroke-miterlimit="10" x1="138.76" y1="15.092" x2="140.693" y2="15.092"/>
			<line fill="none" stroke="#E2A459" stroke-width="1.1" stroke-miterlimit="10" x1="138.76" y1="25.84" x2="140.693" y2="25.84"/>
			
				<line fill="none" stroke="#E2A459" stroke-width="1.1" stroke-miterlimit="10" x1="138.76" y1="27.989" x2="143.042" y2="27.989"/>
		</g>
		<path fill="none" stroke="#E2A459" stroke-width="1.1" stroke-miterlimit="10" d="M136.812,30.758V9.448
			c0-0.677-0.549-1.226-1.227-1.226h-3.27c-0.678,0-1.228,0.549-1.228,1.226v21.311c-1.354,0.918-2.246,2.471-2.246,4.232
			c0,2.822,2.287,5.107,5.107,5.107c2.821,0,5.108-2.285,5.108-5.107C139.057,33.229,138.166,31.677,136.812,30.758z"/>
		<circle fill="#E2A459" cx="133.949" cy="34.99" r="2.452"/>
		
			<line fill="none" stroke="#E2A459" stroke-width="1.226" stroke-linecap="round" stroke-miterlimit="10" x1="133.898" y1="21.037" x2="133.898" y2="34.063"/>
	</g>
</g>
</svg>
