<?xml version="1.0" encoding="utf-8"?>
<!-- Generator: Adobe Illustrator 16.0.0, SVG Export Plug-In . SVG Version: 6.00 Build 0)  -->
<!DOCTYPE svg PUBLIC "-//W3C//DTD SVG 1.1//EN" "http://www.w3.org/Graphics/SVG/1.1/DTD/svg11.dtd">
<svg version="1.1" id="Layer_1" xmlns="http://www.w3.org/2000/svg" xmlns:xlink="http://www.w3.org/1999/xlink" x="0px" y="0px"
	 width="280px" height="106px" viewBox="0 0 280 106" enable-background="new 0 0 280 106" xml:space="preserve">
<g>
	<line fill="none" stroke="#5A5456" stroke-miterlimit="10" x1="8.468" y1="68.475" x2="57.301" y2="68.475"/>
	<line fill="none" stroke="#5A5456" stroke-miterlimit="10" x1="1.932" y1="73.671" x2="40.119" y2="73.671"/>
	<line fill="none" stroke="#5A5456" stroke-miterlimit="10" x1="19.417" y1="80.629" x2="48.75" y2="80.629"/>
	<line fill="none" stroke="#5A5456" stroke-miterlimit="10" x1="222.889" y1="68.475" x2="272.471" y2="68.475"/>
	<line fill="none" stroke="#5A5456" stroke-miterlimit="10" x1="240.313" y1="74.504" x2="279" y2="74.504"/>
	<line fill="none" stroke="#5A5456" stroke-miterlimit="10" x1="232.129" y1="80.629" x2="260.461" y2="80.629"/>
</g>
<g>
	<g>
		<g>
			<path fill="none" stroke="#E2A459" stroke-width="1.1" stroke-miterlimit="10" d="M147.238,75.781l-0.188-50.647
				c0,0-9.999-2.063-18.887-2.063c-2.85,0-13.017,0.219-12.31,4.276c0.706,4.054,22.81,4.797,22.81,0.024
				c0-2.493-16.328-2.876-16.824-0.503c-0.342,1.639,6.362,1.671,6.362,1.671l-0.038,2.218"/>
			
				<line fill="none" stroke="#E2A459" stroke-width="1.1" stroke-miterlimit="10" x1="147.281" y1="86.894" x2="147.255" y2="77.823"/>
			<polyline fill="none" stroke="#E2A459" stroke-width="1.1" stroke-miterlimit="10" points="141.588,95.655 147.327,95.749 
				147.304,89.668 			"/>
			<path fill="none" stroke="#E2A459" stroke-width="1.1" stroke-miterlimit="10" d="M138.646,27.238v72.217
				c0,0-1.583,4.103-10.75,3.823c-10.273-0.313-11.864-4.529-11.864-4.529V27.448"/>
		</g>
		<g>
			
				<line fill="none" stroke="#E2A459" stroke-width="1.1" stroke-linejoin="round" stroke-miterlimit="10" x1="116.084" y1="47.751" x2="133.481" y2="30.355"/>
			
				<line fill="none" stroke="#E2A459" stroke-width="1.1" stroke-linejoin="round" stroke-miterlimit="10" x1="116.084" y1="66.539" x2="138.653" y2="43.972"/>
			
				<line fill="none" stroke="#E2A459" stroke-width="1.1" stroke-linejoin="round" stroke-miterlimit="10" x1="116.084" y1="57.146" x2="138.653" y2="34.578"/>
			
				<line fill="none" stroke="#E2A459" stroke-width="1.1" stroke-linejoin="round" stroke-miterlimit="10" x1="116.363" y1="38.2" x2="123.914" y2="30.646"/>
			
				<line fill="none" stroke="#E2A459" stroke-width="1.1" stroke-linejoin="round" stroke-miterlimit="10" x1="116.084" y1="75.934" x2="138.653" y2="53.365"/>
			
				<line fill="none" stroke="#E2A459" stroke-width="1.1" stroke-linejoin="round" stroke-miterlimit="10" x1="116.084" y1="85.327" x2="138.653" y2="62.758"/>
			
				<line fill="none" stroke="#E2A459" stroke-width="1.1" stroke-linejoin="round" stroke-miterlimit="10" x1="116.084" y1="94.721" x2="138.653" y2="72.154"/>
			
				<line fill="none" stroke="#E2A459" stroke-width="1.1" stroke-linejoin="round" stroke-miterlimit="10" x1="119.167" y1="101.031" x2="138.653" y2="81.545"/>
			
				<line fill="none" stroke="#E2A459" stroke-width="1.1" stroke-miterlimit="10" x1="126.708" y1="103.023" x2="138.791" y2="90.938"/>
		</g>
	</g>
	<g>
		<g>
			<path fill="none" stroke="#E2A459" stroke-width="1.1" stroke-miterlimit="10" d="M110.575,75.781l-0.189-50.647
				c0,0-9.999-2.063-18.887-2.063c-2.85,0-13.017,0.219-12.309,4.276c0.706,4.054,22.81,4.797,22.81,0.024
				c0-2.493-16.328-2.876-16.824-0.503c-0.343,1.639,6.361,1.671,6.361,1.671l-0.038,2.218"/>
			
				<line fill="none" stroke="#E2A459" stroke-width="1.1" stroke-miterlimit="10" x1="110.619" y1="86.894" x2="110.592" y2="77.823"/>
			<polyline fill="none" stroke="#E2A459" stroke-width="1.1" stroke-miterlimit="10" points="104.924,95.655 110.663,95.749 
				110.639,89.668 			"/>
			<path fill="none" stroke="#E2A459" stroke-width="1.1" stroke-miterlimit="10" d="M101.983,27.238v72.217
				c0,0-1.584,4.103-10.75,3.823c-10.273-0.313-11.864-4.529-11.864-4.529V27.448"/>
		</g>
		<g>
			
				<line fill="none" stroke="#E2A459" stroke-width="1.1" stroke-miterlimit="10" x1="79.421" y1="47.751" x2="96.817" y2="30.355"/>
			
				<line fill="none" stroke="#E2A459" stroke-width="1.1" stroke-miterlimit="10" x1="79.421" y1="66.539" x2="101.988" y2="43.972"/>
			
				<line fill="none" stroke="#E2A459" stroke-width="1.1" stroke-miterlimit="10" x1="79.421" y1="57.146" x2="101.988" y2="34.578"/>
			<line fill="none" stroke="#E2A459" stroke-width="1.1" stroke-miterlimit="10" x1="79.698" y1="38.2" x2="87.25" y2="30.646"/>
			
				<line fill="none" stroke="#E2A459" stroke-width="1.1" stroke-miterlimit="10" x1="79.421" y1="75.934" x2="101.988" y2="53.365"/>
			
				<line fill="none" stroke="#E2A459" stroke-width="1.1" stroke-miterlimit="10" x1="79.421" y1="85.327" x2="101.988" y2="62.758"/>
			
				<line fill="none" stroke="#E2A459" stroke-width="1.1" stroke-miterlimit="10" x1="79.421" y1="94.721" x2="101.988" y2="72.154"/>
			
				<line fill="none" stroke="#E2A459" stroke-width="1.1" stroke-miterlimit="10" x1="82.503" y1="101.031" x2="101.988" y2="81.545"/>
			
				<line fill="none" stroke="#E2A459" stroke-width="1.1" stroke-miterlimit="10" x1="90.043" y1="103.023" x2="102.127" y2="90.938"/>
		</g>
	</g>
	<polyline fill="none" stroke="#E2A459" stroke-width="1.0687" stroke-miterlimit="10" points="202.341,15.433 162.173,100.996 
		159.821,106 	"/>
	<polyline fill="none" stroke="#E2A459" stroke-width="1.0687" stroke-miterlimit="10" points="161.106,15.433 201.273,100.996 
		203.623,106 	"/>
	<g>
		<g>
			<g>
				<polygon fill="#E2A459" points="202.025,85.223 201.982,69.667 201.068,69.667 201.113,85.223 				"/>
				<g>
					<polygon fill="#E2A459" points="192.394,74.745 190.532,72.884 191.643,75.249 192.394,76.001 192.394,76.847 193.504,79.213 
						193.504,39.566 192.394,41.935 192.394,46.564 190.914,45.084 190.513,45.938 192.394,47.819 192.394,55.958 187.913,51.477 
						187.511,52.333 192.394,57.212 192.394,65.353 184.912,57.87 184.51,58.726 192.394,66.605 					"/>
					<polygon fill="#E2A459" points="201.047,95.283 201.479,96.206 202.086,96.214 202.055,87.813 201.142,87.813 201.171,95.286 
											"/>
					<polygon fill="#E2A459" points="178.509,71.508 190.698,83.698 189.59,81.333 178.909,70.656 					"/>
					<path fill="#E2A459" d="M196.101,95.201l-2.597-0.043v-5.484l-1.11-2.368v6.226l-16.485-16.483l-0.402,0.854l16.888,16.885
						v4.544c-0.131,0.239-0.604,0.976-1.771,1.705L172.91,83.431l-0.398,0.853l17.296,17.192c-1.49,0.713-3.772,1.302-7.216,1.248
						l-11.7-11.767v-3.223l-1.11,2.369v8.646l0.034,0.195c0.07,0.187,1.842,4.571,12.365,4.891c0.307,0.008,0.605,0.012,0.893,0.012
						c8.67,0,10.325-4.015,10.394-4.191l0.037-0.098v-3.484l3.028,0.049L196.101,95.201z M170.892,98.623v-6.409l10.4,10.46
						C173.151,102.21,171.165,99.139,170.892,98.623z"/>
					<polygon fill="#E2A459" points="182.388,65.992 181.743,64.62 181.511,65.115 					"/>
				</g>
			</g>
			<path fill="#E2A459" d="M201.807,24.762l-0.362-0.074c-0.023-0.005-0.184-0.115-1.087-0.28l-0.401,0.855
				c0.583,0.105,0.653,0.193,0.941,0.247l0.162,41.936h0.915l-0.166-42.313L201.807,24.762z"/>
		</g>
		<g>
			<path fill="#E2A459" d="M169.781,27.628v1.051l1.11,2.367v-2.091c0.981,0.658,2.501,1.156,4.274,1.513l-0.061,0.061
				l12.202,12.202l0.398-0.854l-11.164-11.166c2.661,0.399,5.7,0.51,8.374,0.351l5.354,5.356l0.4-0.852l-4.592-4.593
				c2.006-0.189,4.817-0.654,6.315-1.79v2.713l1.11-2.367v-2.292h-0.11c-0.148-1.09-2.039-1.834-5.665-2.21
				c-3.578-0.371-11.577-0.443-12.036,1.748c-0.021,0.103-0.004,0.202,0.004,0.302h-0.01v2.541
				c-2.333-0.439-4.125-1.083-4.795-1.831v-0.34h-0.22c-0.026-0.059-0.056-0.118-0.067-0.179c-0.089-0.51,0.033-0.954,0.372-1.356
				c1.253-1.494,5.55-2.385,11.486-2.385c4.675,0,9.657,0.579,13.332,1.125l0.404-0.862c-3.729-0.561-8.892-1.175-13.736-1.175
				c-3.699,0-10.204,0.353-12.186,2.71c-0.518,0.613-0.708,1.319-0.571,2.1C169.717,27.497,169.758,27.56,169.781,27.628z
				 M176.588,26.962c0.13-0.621,3.108-1.232,7.05-1.232c1.253,0,2.608,0.063,3.997,0.206c3.416,0.353,4.555,0.979,4.811,1.302
				h-0.052v0.596c-0.536,1.094-2.971,1.937-6.627,2.253c-0.934,0.08-1.886,0.124-2.837,0.132l0.037-2.134l-0.463-0.002
				c-2.005-0.008-4.98-0.304-5.75-0.916v-0.089h-0.121c-0.002-0.002-0.006-0.004-0.009-0.007
				C176.575,27.013,176.583,26.987,176.588,26.962z M176.754,29.67v-1.464c1.462,0.623,4.089,0.757,5.284,0.783l-0.021,1.228
				c-2.146-0.03-4.238-0.228-6.036-0.547H176.754z"/>
			<polygon fill="#E2A459" points="184.705,48.27 173.907,37.473 175.016,39.836 184.306,49.125 			"/>
			<polygon fill="#E2A459" points="170.892,45.104 174.074,48.287 172.966,45.924 170.892,43.849 170.892,41.504 169.781,39.137 
				169.781,80.064 170.892,77.699 170.892,73.283 172.302,74.694 172.702,73.841 170.892,72.028 170.892,63.89 175.303,68.3 
				175.703,67.448 170.892,62.635 170.892,54.497 178.304,61.91 178.703,61.056 170.892,53.244 			"/>
		</g>
	</g>
</g>
</svg>
