<?xml version="1.0" encoding="utf-8"?>
<!-- Generator: Adobe Illustrator 16.0.0, SVG Export Plug-In . SVG Version: 6.00 Build 0)  -->
<!DOCTYPE svg PUBLIC "-//W3C//DTD SVG 1.1//EN" "http://www.w3.org/Graphics/SVG/1.1/DTD/svg11.dtd">
<svg version="1.1" id="Layer_1" xmlns="http://www.w3.org/2000/svg" xmlns:xlink="http://www.w3.org/1999/xlink" x="0px" y="0px"
	 width="24px" height="24px" viewBox="0 0 24 24" enable-background="new 0 0 24 24" xml:space="preserve">
<path fill-rule="evenodd" clip-rule="evenodd" fill="#FFFFFF" d="M14.314,16.736c-2.047,1.362-4.301,1.823-6.736,1.271
	C5.541,17.544,3.9,16.44,2.652,14.765C0.194,11.466,0.511,6.789,3.387,3.824c2.915-3.005,7.561-3.456,10.98-1.063
	c0.93,0.65,1.699,1.456,2.308,2.412c0.605,0.952,1.005,1.983,1.198,3.096c0.192,1.117,0.166,2.228-0.083,3.333
	c-0.239,1.058-0.672,2.028-1.289,2.933c-0.024,0.037,0.409,0.421,0.609,0.621c1.83,1.83,3.656,3.662,5.489,5.49
	c0.325,0.324,0.391,0.708,0.285,1.134c-0.191,0.775-0.954,1.388-1.712,1.379c-0.301-0.003-0.545-0.123-0.756-0.335
	c-1.274-1.278-2.554-2.554-3.83-3.83c-0.599-0.598-1.2-1.192-1.793-1.796C14.645,17.048,14.338,16.721,14.314,16.736z M14.924,9.734
	c0.007-2.977-2.419-5.415-5.391-5.422c-3.014-0.008-5.457,2.419-5.452,5.42c0.004,2.986,2.429,5.413,5.413,5.419
	C12.48,15.157,14.917,12.725,14.924,9.734z"/>
</svg>
