<?xml version="1.0" encoding="utf-8"?>
<!-- Generator: Adobe Illustrator 16.0.0, SVG Export Plug-In . SVG Version: 6.00 Build 0)  -->
<!DOCTYPE svg PUBLIC "-//W3C//DTD SVG 1.1//EN" "http://www.w3.org/Graphics/SVG/1.1/DTD/svg11.dtd">
<svg version="1.1" id="Layer_1" xmlns="http://www.w3.org/2000/svg" xmlns:xlink="http://www.w3.org/1999/xlink" x="0px" y="0px"
	 width="98px" height="72px" viewBox="0 0 98 72" enable-background="new 0 0 98 72" xml:space="preserve">
<g>
	<path fill="none" stroke="#E2A459" stroke-miterlimit="10" d="M30.017,54.628l-0.982-10.981c0,0,2.782,0.006,3.93,0.006
		c0,0.514,0,2.33,0,2.866c0.792,0,2.761,0,3.554,0c0-0.508,0-2.324,0-2.863c1.15,0,2.396,0,3.556,0c0,0.509,0,2.339,0,2.871
		c0.802,0,2.756,0,3.551,0c0-0.529,0-2.345,0-2.876c1.141,0,2.403,0,3.555,0c0,0.514,0,2.34,0,2.876c0.807,0,2.758,0,3.553,0
		c0-0.525,0-2.338,0-2.874c1.153,0,2.399,0,3.556,0c0,0.516,0,2.332,0,2.868c0.795,0,2.759,0,3.55,0c0-0.51,0-2.324,0-2.865
		c1.147,0,3.405,0,3.405,0l-1.064,10.971"/>
	<line fill="none" stroke="#E2A459" stroke-miterlimit="10" x1="50.271" y1="54.626" x2="53.76" y2="54.624"/>
	<path fill="none" stroke="#E2A459" stroke-miterlimit="10" d="M56.423,54.624c5.39-0.002-1.71,0.002,3.678,0.004
		c0.902,0,1.489,0.477,1.491,1.215c0.004,1.544,0.004,3.092,0.004,4.635c-0.004,0.781-0.574,1.252-1.52,1.252
		c-4.979,0.004-9.957,0-14.94,0c-4.947,0-9.896,0.004-14.845,0c-1.075,0-1.619-0.449-1.619-1.334c0-1.508-0.002-3.017,0-4.528
		c0-0.738,0.604-1.239,1.503-1.239c0.405,0,17.715,0,18.117,0"/>
	<path fill="#E2A459" d="M58.991,58.296c0,0.474-0.382,0.854-0.851,0.854c-0.472,0-0.854-0.381-0.854-0.854
		c0-0.47,0.382-0.854,0.854-0.854C58.608,57.442,58.991,57.826,58.991,58.296z"/>
</g>
<g>
	<polyline fill="none" stroke="#E2A459" stroke-miterlimit="10" points="26.822,57.281 10.389,57.281 5.953,26.866 55.382,26.866 
		52.62,42.501 	"/>
	<path fill="none" stroke="#E2A459" stroke-miterlimit="10" d="M20.702,30.034c-3.048,0-5.97,0-8.702,0"/>
	<path fill="none" stroke="#E2A459" stroke-miterlimit="10" d="M52.678,42.082c4.447-3.227,7.141-7.439,7.141-12.048
		c-10.531,0-22.701,0-33.777,0"/>
	<path fill="none" stroke="#E2A459" stroke-miterlimit="10" d="M4.089,30.034c-0.899,0-1.758,0-2.57,0
		c0,9.504,11.445,17.324,26.127,18.276"/>
	<polygon fill="none" stroke="#E2A459" stroke-miterlimit="10" points="54.431,23.696 6.904,23.696 8.173,19.26 53.163,19.26 	"/>
</g>
<g>
	<g>
		<g>
			<polyline fill="none" stroke="#E2A459" stroke-miterlimit="10" points="75.702,46.928 65.924,46.928 65.924,7.143 86.864,7.143 
				86.864,25.184 			"/>
			<polygon fill="none" stroke="#E2A459" stroke-miterlimit="10" points="96.295,61.731 75.702,61.731 75.702,31.682 75.702,24.722 
				96.295,24.722 			"/>
		</g>
	</g>
	<line fill="none" stroke="#E2A459" stroke-miterlimit="10" x1="81.318" y1="30.18" x2="81.318" y2="55.721"/>
	<line fill="none" stroke="#E2A459" stroke-miterlimit="10" x1="85.755" y1="29.179" x2="85.755" y2="40.696"/>
	<line fill="none" stroke="#E2A459" stroke-miterlimit="10" x1="86.31" y1="45.705" x2="86.31" y2="52.215"/>
	<line fill="none" stroke="#E2A459" stroke-miterlimit="10" x1="91.302" y1="30.18" x2="91.302" y2="55.721"/>
	<line fill="none" stroke="#E2A459" stroke-miterlimit="10" x1="66.063" y1="14.405" x2="74.003" y2="7.237"/>
	<line fill="none" stroke="#E2A459" stroke-miterlimit="10" x1="65.924" y1="25.047" x2="85.616" y2="7.268"/>
	<line fill="none" stroke="#E2A459" stroke-miterlimit="10" x1="78.336" y1="24.734" x2="86.864" y2="17.16"/>
	<line fill="none" stroke="#E2A459" stroke-miterlimit="10" x1="65.924" y1="36.065" x2="75.735" y2="27.207"/>
	<line fill="none" stroke="#E2A459" stroke-miterlimit="10" x1="67.069" y1="47.052" x2="75.666" y2="39.288"/>
</g>
</svg>
