<?xml version="1.0" encoding="utf-8"?>
<!-- Generator: Adobe Illustrator 16.0.0, SVG Export Plug-In . SVG Version: 6.00 Build 0)  -->
<!DOCTYPE svg PUBLIC "-//W3C//DTD SVG 1.1//EN" "http://www.w3.org/Graphics/SVG/1.1/DTD/svg11.dtd">
<svg version="1.1" id="Layer_1" xmlns="http://www.w3.org/2000/svg" xmlns:xlink="http://www.w3.org/1999/xlink" x="0px" y="0px"
	 width="98px" height="72px" viewBox="0 0 98 72" enable-background="new 0 0 98 72" xml:space="preserve">
<g>
	<g>
		<polyline fill="none" stroke="#E2A459" stroke-miterlimit="10" points="34.299,3 47.32,3 47.32,48.85 1.47,48.85 1.47,35.98 		"/>
		<polygon fill="none" stroke="#E2A459" stroke-miterlimit="10" points="33.313,3 47.32,3 47.32,48.85 1.47,48.85 1.47,35.996 		"/>
		<polygon fill="none" stroke="#E2A459" stroke-linecap="round" stroke-linejoin="round" stroke-miterlimit="10" points="
			33.197,35.996 1.47,35.996 4.244,33.098 30.736,5.566 33.197,3 		"/>
		<g>
			<g>
				<line fill="none" stroke="#E2A459" stroke-miterlimit="10" x1="39.361" y1="48.85" x2="39.361" y2="3"/>
			</g>
			<g>
				<line fill="none" stroke="#E2A459" stroke-miterlimit="10" x1="10.065" y1="48.85" x2="9.973" y2="35.996"/>
			</g>
			<g>
				<line fill="none" stroke="#E2A459" stroke-miterlimit="10" x1="19.843" y1="48.85" x2="19.758" y2="35.996"/>
			</g>
			<g>
				<line fill="none" stroke="#E2A459" stroke-miterlimit="10" x1="29.627" y1="48.85" x2="29.534" y2="35.996"/>
			</g>
		</g>
	</g>
	<g>
		<polygon fill="#E2A459" points="73.666,21.589 75.705,21.589 78.354,23.476 78.354,24.93 		"/>
		<polygon fill="#E2A459" points="55.771,21.589 57.813,21.589 78.354,36.227 78.354,37.682 		"/>
		<polygon fill="#E2A459" points="39.026,67.242 32.7,62.736 32.7,61.283 41.066,67.242 		"/>
		<polygon fill="#E2A459" points="49.727,31.666 49.727,30.211 78.354,50.609 78.354,52.063 		"/>
		<polygon fill="#E2A459" points="49.727,45.977 49.727,44.521 78.354,64.93 78.354,66.383 		"/>
		<polygon fill="#E2A459" points="60.104,67.242 37.512,51.146 39.551,51.146 62.145,67.242 		"/>
	</g>
</g>
</svg>
