<?xml version="1.0" encoding="utf-8"?>
<!-- Generator: Adobe Illustrator 16.0.0, SVG Export Plug-In . SVG Version: 6.00 Build 0)  -->
<!DOCTYPE svg PUBLIC "-//W3C//DTD SVG 1.1//EN" "http://www.w3.org/Graphics/SVG/1.1/DTD/svg11.dtd">
<svg version="1.1" id="Layer_1" xmlns="http://www.w3.org/2000/svg" xmlns:xlink="http://www.w3.org/1999/xlink" x="0px" y="0px"
	 width="98px" height="72px" viewBox="0 0 98 72" enable-background="new 0 0 98 72" xml:space="preserve">
<g>
	<rect x="1" y="4" fill="none" stroke="#E2A459" stroke-miterlimit="10" width="5.528" height="64.979"/>
	<rect x="77.578" y="4" fill="none" stroke="#E2A459" stroke-miterlimit="10" width="5.531" height="64.979"/>
	<line fill="none" stroke="#E2A459" stroke-miterlimit="10" x1="6.528" y1="4" x2="77.578" y2="4"/>
	<g>
		<line fill="none" stroke="#E2A459" stroke-miterlimit="10" x1="6.528" y1="13.283" x2="23.743" y2="13.283"/>
		<line fill="none" stroke="#E2A459" stroke-miterlimit="10" x1="34.641" y1="13.283" x2="77.578" y2="13.283"/>
	</g>
	<g>
		<line fill="none" stroke="#E2A459" stroke-miterlimit="10" x1="21.971" y1="22.564" x2="6.528" y2="22.564"/>
		<line fill="none" stroke="#E2A459" stroke-miterlimit="10" x1="37.462" y1="22.564" x2="77.578" y2="22.564"/>
	</g>
	<g>
		<line fill="none" stroke="#E2A459" stroke-miterlimit="10" x1="6.528" y1="31.848" x2="23.743" y2="31.848"/>
		<line fill="none" stroke="#E2A459" stroke-miterlimit="10" x1="36.731" y1="31.848" x2="52.635" y2="31.848"/>
		<line fill="none" stroke="#E2A459" stroke-miterlimit="10" x1="62.543" y1="31.848" x2="77.578" y2="31.848"/>
	</g>
	<g>
		<line fill="none" stroke="#E2A459" stroke-miterlimit="10" x1="6.528" y1="41.131" x2="29.622" y2="41.131"/>
		<line fill="none" stroke="#E2A459" stroke-miterlimit="10" x1="36.936" y1="41.131" x2="49.732" y2="41.131"/>
		<line fill="none" stroke="#E2A459" stroke-miterlimit="10" x1="64.32" y1="41.131" x2="77.578" y2="41.131"/>
	</g>
	<g>
		<line fill="none" stroke="#E2A459" stroke-miterlimit="10" x1="6.528" y1="50.414" x2="30.241" y2="50.414"/>
		<line fill="none" stroke="#E2A459" stroke-miterlimit="10" x1="36.537" y1="50.414" x2="49.365" y2="50.414"/>
		<line fill="none" stroke="#E2A459" stroke-miterlimit="10" x1="61.253" y1="50.414" x2="77.578" y2="50.414"/>
	</g>
	<line fill="none" stroke="#E2A459" stroke-miterlimit="10" x1="6.528" y1="59.695" x2="77.578" y2="59.695"/>
	<line fill="none" stroke="#E2A459" stroke-miterlimit="10" x1="6.528" y1="68.979" x2="77.578" y2="68.979"/>
	<path fill="none" stroke="#E2A459" stroke-miterlimit="10" d="M25.811,36.489c0,0-6.126-9.36-3.84-19.494
		c2.217-9.819,14.294-8.774,14.965,3.037c0.709,12.469-1.083,15.26-1.083,15.26L25.811,36.489z"/>
	<path fill="none" stroke="#E2A459" stroke-miterlimit="10" d="M58.999,54.734c0,0,6.59-9.08,5.147-18.71
		c-1.402-9.33-12.252-9.438-13.99,1.958c-1.615,10.584-0.479,15.154-0.479,15.154L58.999,54.734z"/>
	<path fill="none" stroke="#E2A459" stroke-miterlimit="10" d="M35.108,51.115c5.031-1.051,1.526-10.941,1.526-10.941l-8.528,1.254
		C28.106,41.428,26.433,52.924,35.108,51.115z"/>
</g>
</svg>
