<?xml version="1.0" encoding="utf-8"?>
<!-- Generator: Adobe Illustrator 16.0.0, SVG Export Plug-In . SVG Version: 6.00 Build 0)  -->
<!DOCTYPE svg PUBLIC "-//W3C//DTD SVG 1.1//EN" "http://www.w3.org/Graphics/SVG/1.1/DTD/svg11.dtd">
<svg version="1.1" id="Layer_1" xmlns="http://www.w3.org/2000/svg" xmlns:xlink="http://www.w3.org/1999/xlink" x="0px" y="0px"
	 width="98px" height="72px" viewBox="0 0 98 72" enable-background="new 0 0 98 72" xml:space="preserve">
<g>
	<path fill="none" stroke="#ECAF56" stroke-linecap="round" stroke-miterlimit="10" d="M21.802,27.976l-7.486,2.9
		c-8.751-5.719-11.949,6.817-4.489,11.22C24.41,50.7,31.664,19.859,14.091,19.431C-3.412,19.006-5.895,52.053,22.394,51.07
		c19.447-0.672,22.192,0.634,22.192,0.634s19.839-11.371,29.191-15.782c0-1.678-25.22-3.683-25.22-3.683l-31.95,11.152"/>
	
		<line fill="none" stroke="#ECAF56" stroke-linecap="round" stroke-miterlimit="10" x1="9.398" y1="29.471" x2="20.748" y2="25.863"/>
	<path fill="none" stroke="#ECAF56" stroke-linecap="round" stroke-miterlimit="10" d="M48.557,32.238l7.391-2.767
		c4.079-1.804,7.959-10.045,1.307-16.715c-3.266-3.278-9.03-2.417-9.927-2.192c-1.956,0.492-37.261,9.421-37.261,9.421"/>
</g>
</svg>
