<?xml version="1.0" encoding="utf-8"?>
<!-- Generator: Adobe Illustrator 16.0.0, SVG Export Plug-In . SVG Version: 6.00 Build 0)  -->
<!DOCTYPE svg PUBLIC "-//W3C//DTD SVG 1.1//EN" "http://www.w3.org/Graphics/SVG/1.1/DTD/svg11.dtd">
<svg version="1.1" id="Layer_1" xmlns="http://www.w3.org/2000/svg" xmlns:xlink="http://www.w3.org/1999/xlink" x="0px" y="0px"
	 width="52px" height="64px" viewBox="0 0 52 64" enable-background="new 0 0 52 64" xml:space="preserve">
<g>
	<g>
		<path fill="none" stroke="#ECAF56" stroke-linecap="round" stroke-miterlimit="10" d="M16.331,28.443l-5.021,1.945
			c-5.87-3.836-8.013,4.572-3.01,7.524c9.779,5.768,14.644-14.914,2.859-15.2C-0.58,22.427-2.244,44.588,16.727,43.931
			c13.042-0.452,14.883,0.423,14.883,0.423s13.306-7.625,19.577-10.582c0-1.127-16.913-2.471-16.913-2.471l-21.428,7.478"/>
		
			<line fill="none" stroke="#ECAF56" stroke-linecap="round" stroke-linejoin="round" stroke-miterlimit="10" x1="8.012" y1="29.445" x2="15.623" y2="27.026"/>
		<path fill="none" stroke="#ECAF56" stroke-linecap="round" stroke-miterlimit="10" d="M34.274,31.3l4.957-1.855
			c2.732-1.209,5.335-6.736,0.876-11.21c-2.191-2.198-6.058-1.621-6.659-1.47c-1.311,0.33-24.987,6.318-24.987,6.318"/>
	</g>
	
		<line fill="none" stroke="#ECAF56" stroke-linecap="round" stroke-miterlimit="10" x1="16.898" y1="21.169" x2="14.552" y2="23.202"/>
	
		<line fill="none" stroke="#ECAF56" stroke-linecap="round" stroke-miterlimit="10" x1="22.059" y1="19.918" x2="16.898" y2="25.626"/>
	
		<line fill="none" stroke="#ECAF56" stroke-linecap="round" stroke-miterlimit="10" x1="27.924" y1="18.276" x2="18.149" y2="30.318"/>
	
		<line fill="none" stroke="#ECAF56" stroke-linecap="round" stroke-miterlimit="10" x1="33.085" y1="16.947" x2="16.586" y2="37.199"/>
	
		<line fill="none" stroke="#ECAF56" stroke-linecap="round" stroke-miterlimit="10" x1="36.839" y1="16.869" x2="22.606" y2="35.323"/>
	
		<line fill="none" stroke="#ECAF56" stroke-linecap="round" stroke-miterlimit="10" x1="39.889" y1="18.276" x2="28.471" y2="33.368"/>
	<line fill="none" stroke="#ECAF56" stroke-linecap="round" stroke-miterlimit="10" x1="41.53" y1="21.091" x2="34.336" y2="31.1"/>
	
		<line fill="none" stroke="#ECAF56" stroke-linecap="round" stroke-miterlimit="10" x1="42.468" y1="23.828" x2="38.246" y2="29.615"/>
</g>
</svg>
