<?xml version="1.0" encoding="utf-8"?>
<!-- Generator: Adobe Illustrator 16.0.0, SVG Export Plug-In . SVG Version: 6.00 Build 0)  -->
<!DOCTYPE svg PUBLIC "-//W3C//DTD SVG 1.1//EN" "http://www.w3.org/Graphics/SVG/1.1/DTD/svg11.dtd">
<svg version="1.1" id="Layer_1" xmlns="http://www.w3.org/2000/svg" xmlns:xlink="http://www.w3.org/1999/xlink" x="0px" y="0px"
	 width="52px" height="64px" viewBox="0 0 52 64" enable-background="new 0 0 52 64" xml:space="preserve">
<g>
	<path fill="none" stroke="#ECAF56" stroke-width="0.6992" stroke-linecap="round" stroke-miterlimit="10" d="M18.946,49.73
		c0,0.24-0.195,0.436-0.438,0.436H8.311c-0.24,0-0.436-0.195-0.436-0.436V10.543c0-0.241,0.196-0.437,0.436-0.437h10.198
		c0.242,0,0.438,0.196,0.438,0.437V49.73z"/>
	
		<path fill="none" stroke="#ECAF56" stroke-width="0.6992" stroke-linecap="square" stroke-linejoin="bevel" stroke-miterlimit="10" d="
		M19.085,24.2l7.206-13.531c0.112-0.214,0.378-0.295,0.59-0.182l9.01,4.776c0.213,0.113,0.296,0.377,0.182,0.591l-16.987,32.12"/>
	
		<path fill="none" stroke="#ECAF56" stroke-width="0.6992" stroke-linecap="square" stroke-linejoin="bevel" stroke-miterlimit="10" d="
		M28.27,30.572l13.071-7.979c0.206-0.125,0.476-0.061,0.602,0.145l5.314,8.703c0.125,0.206,0.062,0.475-0.146,0.6L19.128,49.198"/>
	
		<path fill="none" stroke="#ECAF56" stroke-width="0.6992" stroke-linecap="square" stroke-linejoin="bevel" stroke-miterlimit="10" d="
		M36.172,39.012l11.629-0.052c0.241-0.002,0.438,0.193,0.438,0.435l0.048,10.196c0.001,0.241-0.194,0.438-0.436,0.438l-29.415,0.137
		"/>
	<circle fill="#ECAF56" cx="13.156" cy="45.614" r="1.129"/>
	
		<line fill="none" stroke="#ECAF56" stroke-width="0.6992" stroke-linecap="square" stroke-linejoin="bevel" stroke-miterlimit="10" x1="25.684" y1="12.204" x2="28.044" y2="30.624"/>
	
		<line fill="none" stroke="#ECAF56" stroke-width="0.6992" stroke-linecap="square" stroke-linejoin="bevel" stroke-miterlimit="10" x1="20.68" y1="21.512" x2="22.45" y2="41.288"/>
	
		<line fill="none" stroke="#ECAF56" stroke-width="0.6992" stroke-linecap="square" stroke-linejoin="bevel" stroke-miterlimit="10" x1="28.778" y1="43.612" x2="28.778" y2="49.656"/>
	
		<line fill="none" stroke="#ECAF56" stroke-width="0.6992" stroke-linecap="square" stroke-linejoin="bevel" stroke-miterlimit="10" x1="34.461" y1="40.115" x2="34.461" y2="49.948"/>
	
		<line fill="none" stroke="#ECAF56" stroke-width="0.6992" stroke-linecap="square" stroke-linejoin="bevel" stroke-miterlimit="10" x1="41.307" y1="39.096" x2="41.307" y2="49.875"/>
</g>
</svg>
