<?xml version="1.0" encoding="utf-8"?>
<!-- Generator: Adobe Illustrator 16.0.0, SVG Export Plug-In . SVG Version: 6.00 Build 0)  -->
<!DOCTYPE svg PUBLIC "-//W3C//DTD SVG 1.1//EN" "http://www.w3.org/Graphics/SVG/1.1/DTD/svg11.dtd">
<svg version="1.1" id="Layer_1" xmlns="http://www.w3.org/2000/svg" xmlns:xlink="http://www.w3.org/1999/xlink" x="0px" y="0px"
	 width="52px" height="64px" viewBox="0 0 52 64" enable-background="new 0 0 52 64" xml:space="preserve">
<polygon fill="#EDB056" points="43.963,24.132 43.969,23.231 29.622,20.836 29.622,21.703 "/>
<polygon fill="#EDB056" points="29.622,22.387 29.622,22.678 29.622,23.231 43.947,25.596 43.959,24.84 "/>
<path fill="#EDB056" d="M34.01,48.665c3.63-1.73,8.731-6.313,10.245-10.42c-0.086,1.21-0.086,5.966-0.086,5.966l-3.374,3.805
	C40.795,48.016,34.312,48.665,34.01,48.665z"/>
<path fill="#EDB056" d="M3.024,42.524c8.053-0.62,21.458-1.665,23.796-1.917c3.118-0.338,7.599-3.141,7.521-6.769
	c-0.067-3.09-0.226-7.293-0.286-8.859l0.98,0.17c0.08,2.09,0.218,5.84,0.277,8.668c0.092,4.234-4.824,7.372-8.388,7.758
	c-2.346,0.255-15.502,1.278-23.221,1.874L3.024,42.524z"/>
<path fill="#EDB056" d="M5.555,45.97c7.59-0.658,20.376-1.77,23.694-2.078c4.369-0.403,9.165-5.054,9.329-9.047
	c0.122-3.044-0.074-7.212-0.18-9.112l0.983,0.171c0.1,1.794,0.292,5.917,0.169,8.981c-0.185,4.489-5.338,9.524-10.212,9.976
	C26.044,45.168,13.5,46.258,6.23,46.888L5.555,45.97z"/>
<path fill="#EDB056" d="M8.137,49.483c6.755-0.56,21.746-1.816,23.941-2.13c2.989-0.427,10.44-7.516,10.521-10.685
	c0.044-1.745,0.083-5.171,0.115-10.188l0.974,0.169c-0.016,2.32-0.056,7.555-0.117,10.044c-0.096,3.88-8.22,11.176-11.355,11.623
	c-2.113,0.302-15.513,1.434-23.4,2.087L8.137,49.483z"/>
<path fill="#EDB056" d="M0.378,38.925c4.172-0.251,20.523-1.252,23.777-1.688c3.742-0.502,5.784-1.425,5.861-4.86
	c0.069-3.01-0.017-6.518-0.11-8.064l0.992,0.181c0.114,1.917,0.153,5.199,0.092,7.906c-0.102,4.539-3.368,5.355-6.705,5.804
	c-3.137,0.42-18.417,1.366-23.22,1.657L0.378,38.925z"/>
<polygon fill="#EDB056" points="29.814,19.78 29.71,6.569 30.685,6.563 30.77,19.917 "/>
<polygon fill="#EDB056" points="9.731,51.563 45.132,48.427 45.132,6.192 46.104,6.192 46.106,49.338 10.405,52.48 "/>
</svg>
