<?xml version="1.0" encoding="utf-8"?>
<!-- Generator: Adobe Illustrator 16.0.0, SVG Export Plug-In . SVG Version: 6.00 Build 0)  -->
<!DOCTYPE svg PUBLIC "-//W3C//DTD SVG 1.1//EN" "http://www.w3.org/Graphics/SVG/1.1/DTD/svg11.dtd">
<svg version="1.1" id="Layer_1" xmlns="http://www.w3.org/2000/svg" xmlns:xlink="http://www.w3.org/1999/xlink" x="0px" y="0px"
	 width="52px" height="64px" viewBox="0 0 52 64" enable-background="new 0 0 52 64" xml:space="preserve">
<g>
	<polygon fill="#EDB056" points="41.905,11.236 41.905,10.107 40.262,8.936 39.415,9.463 	"/>
	<polygon fill="#EDB056" points="41.905,17.555 41.905,16.427 35.531,11.884 34.686,12.411 	"/>
	<polygon fill="#EDB056" points="41.905,22.745 30.819,14.846 30.819,15.975 41.905,23.875 	"/>
	<polygon fill="#EDB056" points="41.905,29.042 30.819,21.14 30.819,22.268 41.905,30.171 	"/>
	<polygon fill="#EDB056" points="41.905,35.384 30.819,27.483 30.819,28.612 41.905,36.512 	"/>
	<polygon fill="#EDB056" points="41.905,41.68 30.819,33.777 30.819,34.904 41.905,42.81 	"/>
	<polygon fill="#EDB056" points="41.905,48.021 30.819,40.121 30.819,41.251 41.905,49.15 	"/>
	<polygon fill="#EDB056" points="30.819,45.84 30.819,46.968 39.693,53.295 40.558,52.783 	"/>
	<polygon fill="#EDB056" points="26.963,60.839 27.827,60.326 23.718,57.396 23.718,58.525 	"/>
	<polygon fill="#EDB056" points="29.213,49.813 28.35,50.325 35.772,55.619 36.639,55.104 	"/>
	<polygon fill="#EDB056" points="24.826,52.411 23.96,52.927 31.385,58.218 32.249,57.705 	"/>
</g>
<g>
	<polygon fill="none" stroke="#EDB056" stroke-width="0.9661" stroke-miterlimit="10" points="29.188,3.927 29.188,47.999 
		11.001,58.777 11.001,15.264 	"/>
	<g>
		<line fill="none" stroke="#EDB056" stroke-width="0.9661" stroke-miterlimit="10" x1="25.78" y1="50.197" x2="25.78" y2="6.378"/>
	</g>
	<g>
		
			<line fill="none" stroke="#EDB056" stroke-width="0.9661" stroke-miterlimit="10" x1="22.022" y1="52.188" x2="22.022" y2="8.676"/>
	</g>
	<g>
		
			<line fill="none" stroke="#EDB056" stroke-width="0.9661" stroke-miterlimit="10" x1="14.528" y1="56.785" x2="14.482" y2="13.089"/>
	</g>
	<g>
		
			<line fill="none" stroke="#EDB056" stroke-width="0.9661" stroke-miterlimit="10" x1="18.289" y1="54.486" x2="18.239" y2="10.791"/>
	</g>
</g>
</svg>
