<?xml version="1.0" encoding="utf-8"?>
<!-- Generator: Adobe Illustrator 16.0.0, SVG Export Plug-In . SVG Version: 6.00 Build 0)  -->
<!DOCTYPE svg PUBLIC "-//W3C//DTD SVG 1.1//EN" "http://www.w3.org/Graphics/SVG/1.1/DTD/svg11.dtd">
<svg version="1.1" id="Layer_1" xmlns="http://www.w3.org/2000/svg" xmlns:xlink="http://www.w3.org/1999/xlink" x="0px" y="0px"
	 width="52px" height="64px" viewBox="0 0 52 64" enable-background="new 0 0 52 64" xml:space="preserve">
<g>
	<path fill="none" stroke="#ECAF56" stroke-width="0.9323" stroke-linecap="round" stroke-miterlimit="10" d="M16.45,28.756
		l-4.988,1.935C5.63,26.878,3.5,35.231,8.471,38.164c9.717,5.732,14.55-14.815,2.841-15.101C-0.35,22.78-2.004,44.797,16.845,44.146
		c12.958-0.449,14.786,0.421,14.786,0.421s13.221-7.578,19.452-10.516c0-1.12-16.804-2.455-16.804-2.455l-21.29,7.433"/>
	
		<line fill="none" stroke="#ECAF56" stroke-width="0.9323" stroke-linecap="round" stroke-linejoin="round" stroke-miterlimit="10" x1="8.185" y1="29.752" x2="15.748" y2="27.35"/>
	<path fill="none" stroke="#ECAF56" stroke-width="0.9323" stroke-linecap="round" stroke-miterlimit="10" d="M34.279,31.596
		l4.924-1.844c2.717-1.201,5.303-6.691,0.87-11.136c-2.176-2.184-6.018-1.611-6.616-1.46c-1.302,0.328-24.826,6.278-24.826,6.278"/>
</g>
</svg>
