<?xml version="1.0" encoding="utf-8"?>
<!-- Generator: Adobe Illustrator 16.0.0, SVG Export Plug-In . SVG Version: 6.00 Build 0)  -->
<!DOCTYPE svg PUBLIC "-//W3C//DTD SVG 1.1//EN" "http://www.w3.org/Graphics/SVG/1.1/DTD/svg11.dtd">
<svg version="1.1" id="Layer_1" xmlns="http://www.w3.org/2000/svg" xmlns:xlink="http://www.w3.org/1999/xlink" x="0px" y="0px"
	 width="52px" height="64px" viewBox="0 0 52 64" enable-background="new 0 0 52 64" xml:space="preserve">
<g>
	<g>
		<g>
			<line fill="none" stroke="#EBAF56" stroke-miterlimit="10" x1="26.916" y1="6.954" x2="25.481" y2="8.348"/>
			
				<line fill="none" stroke="#EBAF56" stroke-miterlimit="10" stroke-dasharray="3.5661,3.5661" x1="22.924" y1="10.833" x2="8.855" y2="24.499"/>
			<line fill="none" stroke="#EBAF56" stroke-miterlimit="10" x1="7.577" y1="25.742" x2="6.142" y2="27.135"/>
		</g>
	</g>
	<g>
		<g>
			<line fill="none" stroke="#EBAF56" stroke-miterlimit="10" x1="21.332" y1="6.981" x2="19.897" y2="8.375"/>
			
				<line fill="none" stroke="#EBAF56" stroke-miterlimit="10" stroke-dasharray="3.4356,3.4356" x1="17.434" y1="10.769" x2="8.809" y2="19.147"/>
			<line fill="none" stroke="#EBAF56" stroke-miterlimit="10" x1="7.577" y1="20.345" x2="6.143" y2="21.738"/>
		</g>
	</g>
	<g>
		<g>
			<line fill="none" stroke="#EBAF56" stroke-miterlimit="10" x1="30.381" y1="14.386" x2="28.946" y2="15.78"/>
			
				<line fill="none" stroke="#EBAF56" stroke-miterlimit="10" stroke-dasharray="3.997,3.997" x1="26.08" y1="18.565" x2="10.313" y2="33.885"/>
			<line fill="none" stroke="#EBAF56" stroke-miterlimit="10" x1="8.879" y1="35.277" x2="7.445" y2="36.671"/>
		</g>
	</g>
	<g>
		<g>
			<line fill="none" stroke="#EBAF56" stroke-miterlimit="10" x1="30.381" y1="8.989" x2="28.946" y2="10.382"/>
			
				<line fill="none" stroke="#EBAF56" stroke-miterlimit="10" stroke-dasharray="4.2561,4.2561" x1="25.894" y1="13.348" x2="9.104" y2="29.659"/>
			<line fill="none" stroke="#EBAF56" stroke-miterlimit="10" x1="7.577" y1="31.142" x2="6.143" y2="32.535"/>
		</g>
	</g>
	<g>
		<g>
			<line fill="none" stroke="#EBAF56" stroke-miterlimit="10" x1="30.381" y1="19.667" x2="28.934" y2="21.047"/>
			
				<line fill="none" stroke="#EBAF56" stroke-miterlimit="10" stroke-dasharray="3.6627,3.6627" x1="26.282" y1="23.574" x2="17.003" y2="32.42"/>
			<line fill="none" stroke="#EBAF56" stroke-miterlimit="10" x1="15.678" y1="33.684" x2="14.23" y2="35.063"/>
		</g>
	</g>
	<g>
		<g>
			<line fill="none" stroke="#EBAF56" stroke-miterlimit="10" x1="15.748" y1="7.009" x2="14.313" y2="8.402"/>
			
				<line fill="none" stroke="#EBAF56" stroke-miterlimit="10" stroke-dasharray="3.1306,3.1306" x1="12.068" y1="10.584" x2="8.7" y2="13.856"/>
			<line fill="none" stroke="#EBAF56" stroke-miterlimit="10" x1="7.577" y1="14.947" x2="6.143" y2="16.341"/>
		</g>
	</g>
</g>
<g>
	<line fill="none" stroke="#EBAF56" stroke-miterlimit="10" x1="28.379" y1="25.604" x2="30.381" y2="28.146"/>
	<line fill="none" stroke="#EBAF56" stroke-miterlimit="10" x1="24.022" y1="29.84" x2="30.38" y2="38.479"/>
	<line fill="none" stroke="#EBAF56" stroke-miterlimit="10" x1="18.889" y1="33.19" x2="30.382" y2="48.693"/>
	<line fill="none" stroke="#EBAF56" stroke-miterlimit="10" x1="13.738" y1="35.26" x2="26.283" y2="52.692"/>
	<line fill="none" stroke="#EBAF56" stroke-miterlimit="10" x1="8.06" y1="36.671" x2="19.821" y2="53"/>
	<line fill="none" stroke="#EBAF56" stroke-miterlimit="10" x1="6.142" y1="45.637" x2="11.556" y2="52.769"/>
</g>
<line fill="none" stroke="#EBAF56" stroke-miterlimit="10" x1="5.65" y1="7.057" x2="30.976" y2="6.928"/>
<line fill="none" stroke="#EBAF56" stroke-miterlimit="10" x1="5.65" y1="52.796" x2="30.872" y2="52.668"/>
<line fill="none" stroke="#EBAF56" stroke-miterlimit="10" x1="6.143" y1="7.057" x2="6.143" y2="52.973"/>
<line fill="none" stroke="#EBAF56" stroke-miterlimit="10" x1="30.381" y1="7.057" x2="30.381" y2="52.973"/>
<path fill="none" stroke="#EBAF56" stroke-miterlimit="10" d="M30.382,23.995c-6.323,6.825-14.749,11.64-24.233,13.397"/>
<g>
	<g>
		<polygon fill="#EBAF56" points="44.807,25.189 32.938,16.654 32.938,17.873 44.807,26.408 		"/>
		<polygon fill="#EBAF56" points="44.807,31.994 32.938,23.453 32.938,24.673 44.807,33.212 		"/>
		<polygon fill="#EBAF56" points="44.807,38.845 32.938,30.309 32.938,31.528 44.807,40.063 		"/>
		<polygon fill="#EBAF56" points="44.807,45.646 32.938,37.108 32.938,38.328 44.807,46.868 		"/>
		<polygon fill="#EBAF56" points="44.807,52.499 32.938,43.964 32.938,45.184 44.807,53.718 		"/>
		<polygon fill="#EBAF56" points="43.31,11.675 44.807,12.753 44.807,11.675 		"/>
		<polygon fill="#EBAF56" points="33.832,11.675 44.807,19.582 44.807,18.361 35.526,11.675 		"/>
		<polygon fill="#EBAF56" points="44.807,58.737 32.938,50.143 32.938,51.361 44.807,59.96 		"/>
		<polygon fill="#EBAF56" points="32.207,55.15 30.518,55.15 37.899,60.5 39.589,60.5 		"/>
		<polygon fill="#EBAF56" points="23.633,55.15 21.944,55.15 29.325,60.5 31.016,60.5 		"/>
		<polygon fill="#EBAF56" points="20.708,60.5 22.391,60.5 19.584,58.465 19.584,59.686 		"/>
	</g>
</g>
</svg>
