<?xml version="1.0" encoding="utf-8"?>
<!-- Generator: Adobe Illustrator 16.0.0, SVG Export Plug-In . SVG Version: 6.00 Build 0)  -->
<!DOCTYPE svg PUBLIC "-//W3C//DTD SVG 1.1//EN" "http://www.w3.org/Graphics/SVG/1.1/DTD/svg11.dtd">
<svg version="1.1" id="Layer_1" xmlns="http://www.w3.org/2000/svg" xmlns:xlink="http://www.w3.org/1999/xlink" x="0px" y="0px"
	 width="52px" height="64px" viewBox="0 0 52 64" enable-background="new 0 0 52 64" xml:space="preserve">
<g>
	<polygon fill="#EDB056" points="18.25,12.694 31.369,0.465 29.813,0.465 18.25,11.243 	"/>
	<polygon fill="#EDB056" points="18.25,19.771 32.884,6.132 32.884,4.681 18.25,18.323 	"/>
	<polygon fill="#EDB056" points="18.25,4.75 22.848,0.465 21.292,0.465 18.25,3.3 	"/>
	<g>
		<polygon fill="#EDB056" points="25.353,19.355 18.25,25.976 18.25,27.425 25.353,20.806 		"/>
		<polygon fill="#EDB056" points="30.919,15.618 32.884,13.786 32.884,12.334 29.363,15.618 		"/>
	</g>
	<polygon fill="#EDB056" points="25.353,26.898 18.25,33.519 18.25,34.97 25.353,28.347 	"/>
	<polygon fill="#EDB056" points="25.353,34.473 18.25,41.094 18.25,42.544 25.353,35.922 	"/>
	<polygon fill="#EDB056" points="25.353,41.914 21.19,45.794 22.746,45.794 25.353,43.364 	"/>
</g>
<g>
	<path fill="#EDB056" d="M26.693,16.865v5.265v27.587v14.304h13.68V16.865H26.693z M35.652,44.188
		c0.047,0.112,0.083,0.226,0.125,0.337c0.087,0.339,0.158,0.604,0.202,0.755c0.354,1.182,0.565,2.369,0.668,3.541
		c0.307,4.971-1.372,10.111-2.387,12.697c-0.302,0.687-0.556,1.192-0.7,1.466h-3.443l0.098-0.367
		c1.213-4.549,1.37-5.132-0.537-13.731c-0.915-4.125,0.219-8.283,1.129-11.626c0.418-1.528,0.778-2.852,0.917-4.01
		c0.75-6.254-0.196-9.457-0.711-11.199c-0.63-2.126-1.601-3.43-2.3-4.149h5.189c-0.099,0.58-0.331,1.988-0.688,4.532
		c-0.053,0.379-0.124,0.791-0.203,1.24C32.38,27.349,31.317,33.499,35.652,44.188z M29.041,29.853
		c-0.068,2.076-0.699,4.15-1.236,5.395V23.674C28.649,26.049,29.094,28.218,29.041,29.853z M27.805,49.717V37.22
		c0.913-0.63,2.251-4.382,2.346-7.336c0.104-3.187-1.396-7.047-2.346-9.15v-2.226c0.592,0.585,1.529,1.769,2.141,3.839
		c0.489,1.652,1.401,4.732,0.673,10.788c-0.131,1.089-0.48,2.377-0.889,3.871c-0.939,3.444-2.108,7.731-1.142,12.091
		c1.856,8.369,1.734,8.833,0.549,13.271l-0.164,0.618h-1.168V49.717z M34.854,62.984c0.115-0.267,0.262-0.604,0.422-1.006
		c1.204-2.67,3.146-8.061,2.438-13.833c-0.145-1.476-0.46-2.938-1.022-4.323c-4.23-10.432-3.198-16.413-2.584-19.986
		c0.078-0.458,0.152-0.881,0.206-1.267c0.394-2.798,0.639-4.237,0.713-4.668h1.498c-0.14,2.21-0.656,10.557-0.656,14.484
		c0,2.578,0.574,4.31,1.232,6.317c0.698,2.121,1.489,4.526,1.822,8.619c0.56,6.835-1.57,13.944-2.128,15.663H34.854z M39.262,62.984
		h-1.305c0.306-0.953,0.84-2.78,1.305-5.1V62.984z M39.262,42.16c-0.342-1.459-0.731-2.65-1.098-3.762
		c-0.635-1.928-1.182-3.59-1.182-6.013c0-3.934,0.523-12.373,0.659-14.484h1.62V42.16z"/>
	<path fill="#EDB056" d="M31.277,43.603c-0.486,1.948-0.195,6.326,0.606,9.186c0.621,2.215,0.454,4.126,0.354,5.267
		c-0.021,0.242-0.04,0.453-0.05,0.623c-0.002,0.091-0.016,0.365,0.197,0.572c0.121,0.117,0.283,0.182,0.457,0.182
		c0.319,0,0.554-0.213,0.702-0.372c0.83-0.888,2.885-4.848,2.159-9.754c-0.408-2.756-1.346-7.379-3.049-7.379
		C31.695,41.927,31.383,43.188,31.277,43.603z M32.361,43.836c0.125-0.5,0.25-0.73,0.322-0.828c0.408,0.356,1.293,2.199,1.92,6.438
		c0.504,3.403-0.427,6.262-1.189,7.8c0.073-1.206,0.069-2.849-0.455-4.722C32.206,49.844,31.917,45.621,32.361,43.836z"/>
</g>
</svg>
