<?xml version="1.0" encoding="utf-8"?>
<!-- Generator: Adobe Illustrator 16.0.0, SVG Export Plug-In . SVG Version: 6.00 Build 0)  -->
<!DOCTYPE svg PUBLIC "-//W3C//DTD SVG 1.1//EN" "http://www.w3.org/Graphics/SVG/1.1/DTD/svg11.dtd">
<svg version="1.1" id="Layer_1" xmlns="http://www.w3.org/2000/svg" xmlns:xlink="http://www.w3.org/1999/xlink" x="0px" y="0px"
	 width="52px" height="64px" viewBox="0 0 52 64" enable-background="new 0 0 52 64" xml:space="preserve">
<g>
	<path fill="none" stroke="#ECAF56" stroke-width="0.9323" stroke-linecap="round" stroke-miterlimit="10" d="M16.45,34.756
		l-4.988,1.935C5.63,32.878,3.5,41.231,8.471,44.164c9.717,5.732,14.55-14.815,2.841-15.101C-0.35,28.78-2.004,50.797,16.845,50.146
		c12.958-0.449,14.786,0.421,14.786,0.421s13.221-7.578,19.452-10.516c0-1.12-16.804-2.455-16.804-2.455l-21.29,7.433"/>
	
		<line fill="none" stroke="#ECAF56" stroke-width="0.9323" stroke-linecap="round" stroke-linejoin="round" stroke-miterlimit="10" x1="8.185" y1="35.752" x2="15.748" y2="33.35"/>
	<path fill="none" stroke="#ECAF56" stroke-width="0.9323" stroke-linecap="round" stroke-miterlimit="10" d="M34.279,37.596
		l4.924-1.844c2.717-1.201,5.303-6.691,0.87-11.136c-2.176-2.184-6.018-1.611-6.616-1.46c-1.302,0.328-24.826,6.278-24.826,6.278"/>
</g>
<g>
	<path fill="#ECAF56" d="M21.434,15.893c0.066,0.824,0.876,1.217,1.805,1.217c0.68,0,1.23-0.092,1.766-0.262l0.262,1.347
		c-0.654,0.262-1.452,0.393-2.316,0.393c-2.17,0-3.413-1.256-3.413-3.257c0-1.622,1.006-3.414,3.231-3.414
		c2.066,0,2.851,1.608,2.851,3.191c0,0.34-0.04,0.64-0.065,0.785H21.434z M23.775,14.532c0-0.483-0.208-1.294-1.124-1.294
		c-0.838,0-1.177,0.758-1.23,1.294H23.775z"/>
	<path fill="#ECAF56" d="M31.609,18.3c-0.354,0.157-1.02,0.288-1.778,0.288c-2.067,0-3.388-1.256-3.388-3.27
		c0-1.871,1.282-3.401,3.663-3.401c0.524,0,1.1,0.091,1.518,0.249l-0.313,1.478c-0.235-0.104-0.589-0.196-1.111-0.196
		c-1.047,0-1.729,0.746-1.715,1.792c0,1.177,0.785,1.792,1.754,1.792c0.47,0,0.837-0.078,1.138-0.196L31.609,18.3z"/>
	<path fill="#ECAF56" d="M38.883,15.187c0,2.341-1.661,3.414-3.375,3.414c-1.87,0-3.308-1.23-3.308-3.296
		c0-2.067,1.359-3.388,3.413-3.388C37.575,11.917,38.883,13.263,38.883,15.187z M34.254,15.252c0,1.099,0.456,1.923,1.308,1.923
		c0.771,0,1.268-0.771,1.268-1.923c0-0.955-0.366-1.923-1.268-1.923C34.604,13.329,34.254,14.31,34.254,15.252z"/>
</g>
<polygon fill="none" stroke="#ECAF56" stroke-width="0.9323" stroke-miterlimit="10" points="16.703,19.653 14.51,16.301 
	14.377,16.098 15.95,16.098 14.132,13.52 13.73,12.949 14.619,12.949 13.468,10.94 12.316,8.934 11.165,10.94 10.015,12.949 
	10.902,12.949 10.5,13.52 8.684,16.098 10.256,16.098 10.123,16.301 7.93,19.653 11.579,19.653 11.579,21.413 13.054,21.413 
	13.054,19.653 "/>
</svg>
