<?xml version="1.0" encoding="utf-8"?>
<!-- Generator: Adobe Illustrator 16.0.0, SVG Export Plug-In . SVG Version: 6.00 Build 0)  -->
<!DOCTYPE svg PUBLIC "-//W3C//DTD SVG 1.1//EN" "http://www.w3.org/Graphics/SVG/1.1/DTD/svg11.dtd">
<svg version="1.1" id="Layer_1" xmlns="http://www.w3.org/2000/svg" xmlns:xlink="http://www.w3.org/1999/xlink" x="0px" y="0px"
	 width="52px" height="64px" viewBox="0 0 52 64" enable-background="new 0 0 52 64" xml:space="preserve">
<g>
	<g>
		<polygon fill="#EDB056" points="42.263,21.874 45.4,24.11 45.466,24.019 45.466,22.996 43.891,21.874 		"/>
		<polygon fill="#EDB056" points="45.466,31.282 45.466,30.122 33.893,21.874 32.265,21.874 		"/>
		<polygon fill="#EDB056" points="23.305,47.666 24.933,47.666 19.673,43.92 19.673,45.079 		"/>
		<polygon fill="#EDB056" points="29.188,26.559 29.188,27.719 45.4,39.271 45.466,39.18 45.466,38.158 		"/>
		<polygon fill="#EDB056" points="29.188,34.556 29.188,35.715 45.466,47.319 45.466,46.159 		"/>
		<polygon fill="#EDB056" points="23.688,38.389 22.061,38.389 35.082,47.666 36.627,47.666 36.656,47.627 		"/>
	</g>
	<g>
		<polyline fill="none" stroke="#EDB056" stroke-miterlimit="10" points="20.236,11.156 27.512,11.156 27.512,36.775 1.893,36.775 
			1.893,29.584 		"/>
		<polygon fill="none" stroke="#EDB056" stroke-miterlimit="10" points="19.686,11.156 27.512,11.156 27.512,36.775 1.893,36.775 
			1.893,29.593 		"/>
		<polygon fill="none" stroke="#EDB056" stroke-linejoin="bevel" stroke-miterlimit="10" points="19.621,29.593 1.893,29.593 
			3.443,27.974 18.245,12.59 19.621,11.156 		"/>
		<g>
			<g>
				<line fill="none" stroke="#EDB056" stroke-miterlimit="10" x1="23.065" y1="36.775" x2="23.065" y2="11.156"/>
			</g>
			<g>
				<line fill="none" stroke="#EDB056" stroke-miterlimit="10" x1="6.696" y1="36.775" x2="6.644" y2="29.593"/>
			</g>
			<g>
				<line fill="none" stroke="#EDB056" stroke-miterlimit="10" x1="12.159" y1="36.775" x2="12.111" y2="29.593"/>
			</g>
			<g>
				<line fill="none" stroke="#EDB056" stroke-miterlimit="10" x1="17.626" y1="36.775" x2="17.573" y2="29.593"/>
			</g>
		</g>
	</g>
</g>
</svg>
