<?xml version="1.0" encoding="utf-8"?>
<!-- Generator: Adobe Illustrator 16.0.0, SVG Export Plug-In . SVG Version: 6.00 Build 0)  -->
<!DOCTYPE svg PUBLIC "-//W3C//DTD SVG 1.1//EN" "http://www.w3.org/Graphics/SVG/1.1/DTD/svg11.dtd">
<svg version="1.1" id="Layer_1" xmlns="http://www.w3.org/2000/svg" xmlns:xlink="http://www.w3.org/1999/xlink" x="0px" y="0px"
	 width="52px" height="64px" viewBox="0 0 52 64" enable-background="new 0 0 52 64" xml:space="preserve">
<g>
	<path fill="none" stroke="#EDB056" stroke-miterlimit="10" d="M46.264,15.17c1.924,0,3.205,0,3.365,0
		c0.768,0,1.347,0.392,1.347,1.151s0,4.667,0,5.231c0,0.564-0.296,0.748-0.808,1.013s-11.195,5.496-11.74,5.801
		s-1.562,0.552-1.4,2.394"/>
	<path fill="none" stroke="#EDB056" stroke-miterlimit="10" d="M34.043,53.679c0,0.403,0.601,0.729,1.096,0.729h3.83
		c0.495,0,1.097-0.325,1.097-0.729c0,0,1.328-4.184-0.731-15.198c-0.814-4.355,0.931-5.885,0.266-6.693c0,0-0.996-1.08-2.656-1.08
		c-1.661,0-2.436,1.08-2.436,1.08c-0.664,0.809,1.081,2.338,0.266,6.693C32.715,49.495,34.043,53.679,34.043,53.679z M35.526,50.331
		c0-0.403,0.401-0.73,0.896-0.73h1.263c0.495,0,0.896,0.327,0.896,0.73l-0.199,1.511c0,0.403-0.401,0.729-0.897,0.729h-0.863
		c-0.495,0-0.896-0.326-0.896-0.729L35.526,50.331z"/>
	<path fill="none" stroke="#EDB056" stroke-miterlimit="10" d="M28.759,17.532c0,0.291,0.277,0.527,0.62,0.527h16.414
		c0.342,0,0.62-0.236,0.62-0.527v-5.499c0-0.291-0.278-0.527-0.62-0.527H29.379c-0.343,0-0.62,0.236-0.62,0.527V17.532z"/>
</g>
<g>
	<g>
		<g>
			<path fill="#EDB056" stroke="#EDB056" stroke-width="0.2297" stroke-miterlimit="10" d="M29.419,46.533l0.112-0.878
				c-3.593-0.454-6.897-1.097-9.822-1.907l-0.236,0.854C22.439,45.423,25.786,46.073,29.419,46.533z"/>
		</g>
		<g>
			<path fill="#EDB056" stroke="#EDB056" stroke-width="0.2297" stroke-miterlimit="10" d="M13.79,42.628l0.35-0.812
				c-2.035-0.878-3.835-1.886-5.354-2.997l-0.523,0.715C9.834,40.684,11.694,41.725,13.79,42.628z"/>
		</g>
	</g>
	<path fill="#EDB056" stroke="#EDB056" stroke-width="0.2297" stroke-miterlimit="10" d="M31.807,31.075l-23.779,2.27
		c0,0,0.405-0.749,1.147-0.863c1.478-0.226,22.632-2.23,22.632-2.23V31.075z"/>
	<path fill="#EDB056" stroke="#EDB056" stroke-width="0.2297" stroke-miterlimit="10" d="M26.028,21.856
		c2.684-0.178,5.295-0.313,7.833-0.413v0.738c-2.521,0.099-5.116,0.234-7.784,0.411c-8.225,0.546-15.321,1.659-20.935,2.819v-0.752
		C10.763,23.503,17.839,22.399,26.028,21.856z"/>
	<path fill="#EDB056" stroke="#EDB056" stroke-width="0.2297" stroke-miterlimit="10" d="M6.333,31.499
		c2.667-4.25,13.323-7.149,27.333-7.25L33.86,23.4c-6.607,0.047-12.67,0.711-17.574,1.931c-5.542,1.378-9.312,3.427-10.9,5.926
		C4.278,33,4.201,34.934,5.146,37.002l0.014,5.6l0.885-0.016l-0.002-5.752l26.223-2.611l-0.229-0.852L5.841,35.982
		C5.303,34.466,5.524,32.788,6.333,31.499z"/>
</g>
<rect x="5.322" y="17.018" fill="#EDB056" stroke="#EDB056" stroke-width="0.1906" stroke-miterlimit="10" width="20.696" height="0.848"/>
<rect x="5.322" y="14.783" fill="#EDB056" stroke="#EDB056" stroke-width="0.1778" stroke-miterlimit="10" width="19.142" height="0.798"/>
</svg>
