<?xml version="1.0" encoding="utf-8"?>
<!-- Generator: Adobe Illustrator 16.0.0, SVG Export Plug-In . SVG Version: 6.00 Build 0)  -->
<!DOCTYPE svg PUBLIC "-//W3C//DTD SVG 1.1//EN" "http://www.w3.org/Graphics/SVG/1.1/DTD/svg11.dtd">
<svg version="1.1" id="Layer_1" xmlns="http://www.w3.org/2000/svg" xmlns:xlink="http://www.w3.org/1999/xlink" x="0px" y="0px"
	 width="86px" height="98px" viewBox="0 0 86 98" enable-background="new 0 0 86 98" xml:space="preserve">
<g>
	<polygon fill="#FFFFFF" points="26.104,27.38 25.929,25.69 19.458,25.69 19.286,27.38 	"/>
	<polygon fill="none" stroke="#FFFFFF" stroke-width="2" stroke-miterlimit="10" points="20.382,30.013 19.105,48.862 
		26.278,48.862 25.009,30.013 	"/>
	<path fill="#FFFFFF" d="M22.852,23.235c0,0-0.508-5.714,4.139-6.305c4.716-0.598,5.075-3.216,5.075-3.216s-0.378,6.874-3.105,6.684
		C26.97,20.259,24.125,20.461,22.852,23.235z"/>
	<polygon fill="#FFFFFF" points="38.493,30.958 38.339,29.55 32.647,29.55 32.496,30.958 	"/>
	<polygon fill="none" stroke="#FFFFFF" stroke-width="2" stroke-miterlimit="10" points="33.459,33.152 32.337,48.862 
		38.646,48.862 37.529,33.152 	"/>
	<path fill="#FFFFFF" d="M35.611,27.338c0,0-0.445-4.764,3.641-5.255c4.149-0.499,4.464-2.681,4.464-2.681s-0.333,5.728-2.73,5.571
		C39.234,24.856,36.732,25.024,35.611,27.338z"/>
	<polygon fill="none" stroke="#FFFFFF" stroke-width="2" stroke-miterlimit="10" points="19.105,49.047 19.105,74.878 
		66.895,74.878 66.895,49.047 	"/>
	<g>
		
			<rect x="24.651" y="64.033" fill="none" stroke="#FFFFFF" stroke-width="1.9865" stroke-miterlimit="10" width="9.122" height="10.89"/>
		
			<rect x="38.439" y="64.033" fill="none" stroke="#FFFFFF" stroke-width="1.9865" stroke-miterlimit="10" width="9.121" height="10.89"/>
		
			<rect x="52.228" y="64.033" fill="none" stroke="#FFFFFF" stroke-width="1.9865" stroke-miterlimit="10" width="9.121" height="10.89"/>
	</g>
</g>
</svg>
