<?xml version="1.0" encoding="utf-8"?>
<!-- Generator: Adobe Illustrator 16.0.0, SVG Export Plug-In . SVG Version: 6.00 Build 0)  -->
<!DOCTYPE svg PUBLIC "-//W3C//DTD SVG 1.1//EN" "http://www.w3.org/Graphics/SVG/1.1/DTD/svg11.dtd">
<svg version="1.1" id="Layer_1" xmlns="http://www.w3.org/2000/svg" xmlns:xlink="http://www.w3.org/1999/xlink" x="0px" y="0px"
	 width="86px" height="98px" viewBox="0 0 86 98" enable-background="new 0 0 86 98" xml:space="preserve">
<g>
	<g>
		<path fill="#FFFFFF" d="M68.502,30.966c-0.004,0-0.008,0-0.012,0l0,0h-3.486v-1.193c0.02-0.472-0.287-0.896-0.74-1.028
			c-2.42-0.635-4.914-0.953-7.414-0.946c-4.115,0-9.721,0.925-13.865,5.142c-4.114-4.258-9.76-5.142-13.864-5.142
			c-2.502-0.006-4.995,0.312-7.416,0.946c-0.454,0.132-0.759,0.556-0.74,1.028v1.183H17.5c-0.568,0-1.029,0.46-1.029,1.028v32.85
			c0,0.568,0.461,1.028,1.029,1.028c0.176-0.001,0.35-0.046,0.504-0.134c0.102-0.051,10.387-5.677,24.745-2.058h0.155h0.092
			c0.082,0.011,0.165,0.011,0.247,0c14.399-3.65,24.684,1.965,24.745,2.058c0.318,0.184,0.711,0.184,1.029,0
			c0.316-0.183,0.512-0.519,0.514-0.884V31.994C69.529,31.427,69.07,30.966,68.502,30.966z M18.528,63.198V33.022h2.458v25.796
			c-0.006,0.566,0.449,1.032,1.017,1.039c0.056,0.001,0.111-0.002,0.167-0.011c2.127-0.326,4.275-0.497,6.428-0.516
			c2.981-0.051,5.95,0.397,8.784,1.327C30.981,59.885,24.492,60.76,18.528,63.198z M28.596,57.284
			c-1.871,0.005-3.739,0.125-5.595,0.361v-27.06c2.003-0.447,4.047-0.674,6.099-0.679c3.847,0,9.154,0.884,12.836,5.04l0.03,25.619
			C39.828,59.167,35.651,57.284,28.596,57.284z M44.023,34.946c3.682-4.114,8.988-5.04,12.836-5.04
			c2.051,0.006,4.096,0.233,6.1,0.679v27.06c-1.848-0.238-3.705-0.362-5.566-0.371c-7.014,0-11.199,1.883-13.369,3.28V34.946z
			 M67.463,63.198c-5.979-2.445-12.482-3.32-18.895-2.54c2.848-0.933,5.83-1.381,8.824-1.327c2.168,0.013,4.328,0.181,6.471,0.504
			c0.561,0.086,1.086-0.301,1.17-0.862c0.01-0.055,0.014-0.11,0.014-0.165V33.022h2.457L67.463,63.198z"/>
	</g>
</g>
</svg>
