<?xml version="1.0" encoding="utf-8"?>
<!-- Generator: Adobe Illustrator 16.0.0, SVG Export Plug-In . SVG Version: 6.00 Build 0)  -->
<!DOCTYPE svg PUBLIC "-//W3C//DTD SVG 1.1//EN" "http://www.w3.org/Graphics/SVG/1.1/DTD/svg11.dtd">
<svg version="1.1" id="Layer_1" xmlns="http://www.w3.org/2000/svg" xmlns:xlink="http://www.w3.org/1999/xlink" x="0px" y="0px"
	 width="192px" height="140px" viewBox="0 0 192 140" enable-background="new 0 0 192 140" xml:space="preserve">
<path fill="#EDE9E7" d="M192,108.666c0,2.762-2.238,5-5,5H6.333c-2.762,0-5-2.238-5-5V6c0-2.762,2.238-5,5-5H187
	c2.762,0,5,2.238,5,5V108.666z"/>
<g>
	<path fill="#B2B2B2" d="M140.615,120.712c0,3.871-13.074,7.013-29.201,7.013s-35.174-3.03-35.174-6.904
		c0-3.871,19.047-7.124,35.174-7.124S140.615,116.838,140.615,120.712z"/>
	<g>
		<path fill="#F7F7F7" d="M148.067,36.56H70.21l10.853,82.56h0.014c-0.001,0.023-0.005,0.048-0.005,0.068
			c0,3.22,12.566,5.831,28.066,5.831s28.066-2.611,28.066-5.831c0-0.021-0.002-0.045-0.004-0.068h0.012L148.067,36.56z"/>
		<ellipse fill="#F7F7F7" cx="109.14" cy="35.684" rx="39.587" ry="1.728"/>
		<path fill="#EFEFEF" d="M89.932,37.185L70.21,36.56l10.853,82.56h0.014c-0.001,0.023-0.005,0.048-0.005,0.068
			c0,2.083,5.258,3.911,13.166,4.943V44.685L89.932,37.185z"/>
		<g>
			<path fill="#BCBCBC" d="M94.238,75.477c-15.591-4.959-26.961-17.36-26.961-31.45v-1.799h-3.774v1.799
				c0,5.065,1.275,9.998,3.791,14.663c2.388,4.429,5.78,8.416,10.083,11.856c4.24,3.391,9.126,6.059,14.522,7.932
				c0.775,0.268,1.556,0.516,2.341,0.748V75.477z"/>
			<path fill="#EA9E39" d="M148.793,43.052c-2.615,1.007-19.37,1.781-39.658,1.781c-20.244,0-36.974-0.771-39.642-1.775l0.691,4.347
				c1.552,0.993,18.396,1.776,38.951,1.776c20.559,0,37.4-0.783,38.952-1.776L148.793,43.052z"/>
			<path fill="#D6D6D6" d="M94.238,76.374c-16.121-5.012-27.915-17.803-27.915-32.348v-0.953h-1.869v0.953
				c0,4.938,1.245,9.748,3.699,14.297c2.333,4.326,5.65,8.225,9.859,11.592c4.156,3.324,8.943,5.938,14.23,7.771
				c0.662,0.229,1.327,0.444,1.995,0.647V76.374z"/>
			<path fill="#C9C9C9" d="M150.9,42.538l0.1,1.488c0,18.296-19.17,33.75-41.861,33.75c-5.217,0-10.246-0.819-14.9-2.3v3.749
				c4.834,1.43,9.834,2.153,14.9,2.153c5.889,0,11.689-0.978,17.24-2.901c5.396-1.873,10.281-4.541,14.522-7.932
				c4.303-3.44,7.693-7.428,10.081-11.856c2.518-4.665,3.793-9.598,3.793-14.663l-0.101-1.488H150.9z"/>
		</g>
		<path fill="#C9C9C9" d="M109.139,37.411c17.387,0,32.151-0.489,37.473-1.17c-4.916-0.707-19.832-1.221-37.473-1.221
			c-17.64,0-32.556,0.514-37.472,1.221C76.988,36.922,91.753,37.411,109.139,37.411z"/>
		<g>
			<g>
				<path fill="#E2E2E2" d="M69.558,35.701h-0.001l0.006,0.018C69.56,35.715,69.559,35.707,69.558,35.701z"/>
				<g>
					<path fill="#D6D6D6" d="M94.238,37.284c-8.084-0.144-14.837-0.4-19.224-0.725H70.21l0.054,0.406
						c1.789,0.627,11.18,1.149,23.975,1.38V37.284z"/>
				</g>
				<g>
					<path fill="#E2E2E2" d="M148.719,35.706c-0.074,0.246-1.32,0.479-3.51,0.69l0,0c-0.031,0.002-0.063,0.005-0.094,0.009
						c-6.264,0.594-20.016,1.006-35.977,1.006c-5.054,0-9.885-0.042-14.329-0.117c-0.191-0.004-4.942-0.105-5.132-0.109l0.951,1.12
						c0.272,0.005,4.156,0.051,4.432,0.057c4.37,0.073,9.117,0.114,14.081,0.114c21.076,0,38.265-0.733,39.151-1.652l0.025-0.027
						c0.002-0.006,0.003-0.011,0.005-0.018l0.398-1.072H148.719z"/>
				</g>
			</g>
		</g>
		<g>
			<g>
				<path fill="#B2B2B2" d="M69.915,36.763h-0.002l0.007,0.017C69.917,36.773,69.917,36.769,69.915,36.763z"/>
				<g>
					<path fill="#B2B2B2" d="M70.265,36.976c-0.187-0.06-0.303-0.122-0.34-0.187l0.413,1.09c0.014,0.015,0.031,0.028,0.052,0.043
						L70.265,36.976z"/>
					<path fill="#B2B2B2" d="M148.362,36.768c-0.075,0.245-1.31,0.479-3.479,0.688l0,0c-0.031,0.002-0.063,0.006-0.094,0.008
						c-6.208,0.595-19.835,1.006-35.651,1.006c-5.033,0-9.843-0.041-14.265-0.116c-0.212-0.006-7.201-0.093-7.412-0.099l0.127,0.903
						c0.209,0.005,7.07,0.254,7.282,0.257c4.417,0.077,9.231,0.12,14.271,0.12c20.886,0,37.918-0.732,38.798-1.65l0.023-0.029
						c0.004-0.006,0.004-0.011,0.008-0.018l0.395-1.07H148.362z"/>
				</g>
				<path fill="#A5A5A5" d="M70.39,37.922c0.979,0.671,7.504,1.046,20.809,1.29l-0.633-0.957
					c-12.716-0.229-18.406-0.659-20.301-1.279L70.39,37.922z"/>
			</g>
		</g>
		<g>
			<g>
				<g>
					<path fill="#D88E36" d="M94.238,44.688c-13.098-0.271-22.771-0.889-24.746-1.631l0.691,4.347
						c1.154,0.738,10.758,1.359,24.054,1.63V44.688z"/>
				</g>
				<g>
					<path fill="#CE9E6F" d="M94.238,45.746c-10.048-0.203-19.149-0.622-23.318-1.282l0.346,2.178
						c0.924,0.207,3.698,0.625,11.721,0.982c3.348,0.15,7.156,0.267,11.251,0.352V45.746z"/>
				</g>
			</g>
		</g>
		<path fill="#B2732F" d="M70.184,47.404c1.154,0.738,10.758,1.359,24.054,1.63v-1.059c-4.095-0.085-7.903-0.201-11.251-0.352
			c-8.023-0.357-10.797-0.775-11.721-0.982L70.184,47.404z"/>
		<polygon fill="#636363" points="70.698,40.92 67.198,40.92 67.198,47.138 71.396,47.138 		"/>
	</g>
	<g>
		<path fill="#B2B2B2" d="M90.168,129.943c-0.681,0.701-3.207,0.684-4.473,0.684c-1.267,0-28.167-0.06-29.13-0.2
			c-2.046-0.302-3.215-2.156-3.215-2.403l-0.585-2.904c0-0.248,2.194,1.402,2.437,1.402c0,0,11.557-2.519,21.235-2.479
			c13.959,0.057,16.262-0.035,15.946,1.345C92.23,126.047,90.851,129.243,90.168,129.943z"/>
		<path fill="#C9C9C9" d="M88.245,46.282c-2.526-7.527-7.328-16.333-7.861-17.329c-1.754,0.435-5.236,0.685-10.243,0.685
			c-5.511,0-9.408-0.438-9.408-0.646c0-0.014,0.02-0.025,0.055-0.038h-0.046c0,0-9.261,14.558-9.261,25.737
			c0,11.181,0,65.732,0,68.441c0,2.708,3.087,6.028,6.735,5.775h25.538c3.085,0,6.174-2.593,6.174-5.775V64.614
			C89.929,64.614,90.463,52.896,88.245,46.282z M84.313,70.386c0,0.9-0.701,4.457-3.367,3.955c-2.666-0.503-2.456-2.442-2.737-5.707
			c0,0-1.122-11.622,0.001-18.402c0.275-1.666,1.612-4.259,2.806-4.203c1.193,0.059,2.666,1.378,3.297,7.404
			C84.813,58.21,84.313,70.386,84.313,70.386z"/>
		<path fill="#FFFFFF" d="M81.998,82.668c-3.366-0.376-4.906-12.46-5.116-16.018c-0.344-5.793,1.908-18.6,1.75-18.611
			c-10.104-0.749-17.542,3.125-19.506,5.372c-2.929,3.349-2.806,8.736-2.806,8.736l0.106,23.328H87.47v-4.361
			C87.47,81.114,84.997,82.999,81.998,82.668z"/>
		<path fill="#BFBFBF" d="M82.068,42.236c-1.939,0-5.963,1.595-5.963,16.286c0,15.348,2.011,24.54,7.366,24.705
			c4.279,0.133,4.069-2.113,4.069-2.113s0.19-15.917,0-21.472C87.08,46.165,83.751,42.236,82.068,42.236z M84.313,70.874
			c0,0.896-0.701,4.432-3.367,3.93c-2.666-0.497-2.456-2.425-2.737-5.67c0,0-0.911-11.924,0.211-18.662
			c0.275-1.656,1.401-3.857,2.595-3.801c1.193,0.059,2.666,1.368,3.297,7.357C84.813,58.775,84.313,70.874,84.313,70.874z"/>
		<path fill="#B2B2B2" d="M86.792,80.966l0-0.023c0.001-0.159,0.187-15.972,0-21.449c-0.48-14.051-3.996-16.924-4.911-16.924
			c-1.625,0-5.402,1.537-5.402,15.785c0,8.029,0.543,13.894,1.658,17.929c1.133,4.097,2.871,6.208,5.167,6.28
			c0.115,0.003,0.228,0.005,0.335,0.005c1.292,0,2.242-0.25,2.747-0.724c0.429-0.404,0.409-0.844,0.408-0.855L86.792,80.966z
			 M84.313,70.874c0,0.896-0.701,4.432-3.367,3.93c-2.666-0.497-2.456-2.425-2.737-5.67c0,0-0.911-11.924,0.211-18.662
			c0.275-1.656,1.401-3.857,2.595-3.801c1.193,0.059,2.666,1.368,3.297,7.357C84.813,58.775,84.313,70.874,84.313,70.874z"/>
		<polygon fill="#EA9E39" points="56.601,123.544 87.47,123.544 87.47,85.476 56.426,85.476 		"/>
		<rect x="59.689" y="84.913" fill="#FFFFFF" width="24.414" height="32.943"/>
		<polygon fill="#F7F7F7" points="56.587,120.787 56.601,123.544 87.47,123.544 87.47,120.787 		"/>
		<g>
			<g>
				<g>
					<g>
						<path fill="#5B5B5B" d="M60.478,79.487c0.026,0.286,0.345,0.424,0.71,0.424c0.267,0,0.483-0.031,0.694-0.095l0.102,0.47
							c-0.257,0.098-0.57,0.143-0.909,0.143c-0.854,0-1.342-0.441-1.342-1.14c0-0.566,0.401-1.193,1.27-1.193
							c0.812,0,1.121,0.563,1.121,1.115c0,0.119-0.015,0.226-0.026,0.276H60.478L60.478,79.487z M61.399,79.013
							c0-0.171-0.082-0.454-0.437-0.454c-0.335,0-0.468,0.27-0.488,0.454H61.399z M64.182,78.627c0-0.266,0.242-0.48,0.54-0.48l0,0
							h0.242v1.519c0,0.293,0.01,0.529,0.02,0.719h-0.678l-0.036-0.315h-0.016c-0.098,0.136-0.334,0.364-0.787,0.364
							c-0.514,0-0.885-0.283-0.885-0.973v-1.313h0.782v1.203c0,0.326,0.119,0.521,0.396,0.521c0.217,0,0.345-0.133,0.392-0.242
							c0.02-0.042,0.03-0.091,0.03-0.15V78.627L64.182,78.627z M65.592,78.882c0-0.329-0.005-0.542-0.02-0.735h0.668l0.031,0.415
							h0.02c0.13-0.328,0.433-0.466,0.679-0.466c0.072,0,0.108,0.006,0.165,0.014v0.655c-0.062-0.01-0.124-0.02-0.211-0.02
							c-0.288,0-0.483,0.132-0.534,0.354c-0.011,0.049-0.016,0.103-0.016,0.153v1.176h-0.246c-0.298,0-0.541-0.215-0.541-0.48l0,0
							L65.592,78.882z M68.704,80.433c-0.735,0-1.301-0.43-1.301-1.152c0-0.722,0.535-1.185,1.347-1.185
							c0.767,0,1.28,0.472,1.28,1.149c0,0.813-0.652,1.188-1.321,1.188H68.704z M68.725,79.935c0.309,0,0.499-0.27,0.499-0.674
							c0-0.328-0.144-0.665-0.499-0.665c-0.37,0-0.514,0.337-0.514,0.671c0,0.38,0.18,0.668,0.509,0.668H68.725z M72.402,80.323
							c-0.139,0.061-0.401,0.105-0.699,0.105c-0.813,0-1.332-0.443-1.332-1.144c0-0.648,0.503-1.184,1.44-1.184
							c0.205,0,0.432,0.031,0.597,0.087l-0.124,0.516c-0.093-0.035-0.231-0.067-0.438-0.067c-0.411,0-0.679,0.261-0.674,0.622
							c0,0.409,0.309,0.626,0.689,0.626c0.185,0,0.329-0.028,0.448-0.074L72.402,80.323z M73.992,80.433
							c-0.735,0-1.3-0.43-1.3-1.152c0-0.722,0.534-1.185,1.347-1.185c0.766,0,1.28,0.472,1.28,1.149
							c0,0.813-0.652,1.189-1.321,1.189L73.992,80.433z M74.013,79.935c0.308,0,0.498-0.27,0.498-0.674
							c0-0.328-0.143-0.665-0.498-0.665c-0.371,0-0.514,0.337-0.514,0.671c0,0.38,0.18,0.668,0.509,0.668H74.013L74.013,79.935z
							 M76.344,80.384c-0.298,0-0.541-0.217-0.541-0.48l0,0v-2.772h0.782v3.253H76.344L76.344,80.384z"/>
					</g>
				</g>
			</g>
		</g>
		<rect x="60.951" y="87.159" fill="#F1B974" width="21.889" height="1.871"/>
		<rect x="60.951" y="100.846" fill="#F1B974" width="21.889" height="0.702"/>
		<rect x="60.951" y="96.354" fill="#F1B974" width="21.889" height="0.702"/>
		<g>
			<g>
				<path fill="#F1B974" d="M63.203,99.025c0,0.603-0.411,0.921-0.913,0.921c-0.519,0-0.883-0.357-0.883-0.887
					c0-0.556,0.388-0.919,0.912-0.919C62.856,98.141,63.203,98.507,63.203,99.025z M61.679,99.054c0,0.374,0.228,0.709,0.626,0.709
					c0.402,0,0.629-0.33,0.629-0.727c0-0.348-0.204-0.711-0.626-0.711C61.889,98.325,61.679,98.67,61.679,99.054z"/>
				<path fill="#F1B974" d="M63.75,98.17v0.555c0,0.239,0.14,0.374,0.417,0.374c0.137,0,0.286-0.042,0.387-0.099v-0.83h0.257v1.748
					h-0.257v-0.742h-0.006c-0.137,0.07-0.3,0.109-0.472,0.109c-0.26,0-0.58-0.099-0.58-0.526V98.17H63.75z"/>
				<path fill="#F1B974" d="M65.49,98.17v0.736c0,0.277-0.006,0.506-0.023,0.739l0.006,0.003c0.099-0.182,0.222-0.371,0.364-0.579
					l0.636-0.899h0.253v1.748h-0.239v-0.744c0-0.283,0.003-0.49,0.023-0.711l-0.009-0.003c-0.096,0.192-0.23,0.395-0.364,0.589
					l-0.615,0.869h-0.271V98.17H65.49z"/>
				<path fill="#F1B974" d="M68.542,99.861c-0.093,0.041-0.28,0.083-0.519,0.083c-0.554,0-0.97-0.312-0.97-0.885
					c0-0.548,0.417-0.919,1.026-0.919c0.245,0,0.399,0.047,0.466,0.078l-0.061,0.185c-0.096-0.042-0.233-0.073-0.396-0.073
					c-0.46,0-0.767,0.263-0.767,0.722c0,0.428,0.277,0.703,0.755,0.703c0.154,0,0.312-0.029,0.414-0.073L68.542,99.861z"/>
				<path fill="#F1B974" d="M69.334,98.361h-0.598V98.17h1.454v0.191h-0.6v1.557h-0.256V98.361z"/>
				<path fill="#F1B974" d="M70.648,98.17v0.736c0,0.277-0.006,0.506-0.023,0.739l0.006,0.003c0.099-0.182,0.222-0.371,0.364-0.579
					l0.636-0.899h0.253v1.748h-0.239v-0.744c0-0.283,0.003-0.49,0.023-0.711l-0.009-0.003c-0.096,0.192-0.23,0.395-0.364,0.589
					l-0.615,0.869h-0.271V98.17H70.648z"/>
				<path fill="#F1B974" d="M72.7,98.361h-0.598V98.17h1.454v0.191h-0.6v1.557H72.7V98.361z"/>
				<path fill="#F1B974" d="M74.792,99.099h-0.764v0.63h0.851v0.189h-1.104V98.17h1.061v0.189h-0.807v0.552h0.764V99.099z"/>
				<path fill="#F1B974" d="M76.575,98.17v1.748h-0.256v-1.559h-0.65v0.528c0,0.379-0.018,0.802-0.294,0.968
					c-0.073,0.042-0.187,0.083-0.3,0.083l-0.032-0.182c0.079-0.013,0.16-0.054,0.207-0.093c0.157-0.138,0.172-0.478,0.172-0.758
					V98.17H76.575z"/>
				<path fill="#F1B974" d="M77.269,98.17v0.653c0.058-0.008,0.175-0.013,0.242-0.013c0.402,0,0.758,0.158,0.758,0.545
					c0,0.163-0.058,0.282-0.151,0.373c-0.16,0.15-0.435,0.205-0.706,0.205c-0.178,0-0.312-0.011-0.396-0.021V98.17H77.269z
					 M77.269,99.744c0.058,0.011,0.123,0.013,0.21,0.013c0.283,0,0.524-0.122,0.524-0.389c0-0.275-0.248-0.379-0.527-0.379
					c-0.064,0-0.143,0.005-0.207,0.013V99.744z"/>
			</g>
		</g>
		<path fill="#A0A0A0" d="M81.11,82.353c-1.82-1.188-1.945-5.347-1.993-8.658c-0.111-0.235-0.176-0.487-0.276-0.754
			c-0.497-1.323-0.447-2.074-0.634-4.242c0,0-0.709-9.278-0.106-16.092c0.081-0.908,0.148-1.783,0.318-2.572
			c0.695-3.248,1.445-6.75,2.66-7.651c-2.064,0.624-4.974,3.646-4.974,16.14c0,0.188,0.001,0.378,0.001,0.566
			c0.072,12.51,1.509,21.267,4.987,23.291c0.03,0.018,0.185,0.06,0.185,0.06L81.11,82.353z"/>
		<path fill="#E2E2E2" d="M79.117,73.694c-0.111-0.235-0.176-0.487-0.276-0.754c-0.497-1.323-0.447-2.074-0.634-4.242
			c0,0-0.709-9.278-0.106-16.092c0.081-0.908,0.148-1.783,0.318-2.572c0.267-1.248,0.543-2.535,0.85-3.699
			c-0.567,0.854-0.997,2.006-1.161,2.982c-1.249,7.495-0.234,20.756-0.234,20.756c0.229,2.65,0.166,4.508,1.288,5.53
			C79.138,74.952,79.126,74.31,79.117,73.694z"/>
		<path fill="#BABABA" d="M84.934,53.272c-0.729-6.66-2.429-8.117-3.807-8.18c-1.376-0.063-2.676,2.385-2.995,4.225
			c-1.296,7.495-0.243,20.756-0.243,20.756c0.323,3.609,0.082,5.752,3.157,6.307c3.077,0.556,3.887-3.373,3.887-4.371
			C84.934,72.009,85.511,58.552,84.934,53.272z M84.313,70.874c0,0.896-0.701,4.432-3.367,3.93c-2.666-0.497-2.456-2.425-2.737-5.67
			c0,0-0.911-11.924,0.211-18.662c0.275-1.656,1.401-3.857,2.595-3.801c1.193,0.059,2.666,1.368,3.297,7.357
			C84.813,58.775,84.313,70.874,84.313,70.874z"/>
		<path fill="#A5A5A5" d="M79.119,73.838c-0.753-0.957-0.723-2.536-0.91-4.704c0,0-0.334-4.381-0.349-9.332
			c-0.015-2.385,0.04-4.926,0.241-7.195c0.081-0.908,0.148-1.783,0.318-2.572c0.254-1.188,0.517-2.412,0.806-3.53
			c-0.532,0.833-0.934,1.898-1.093,2.813c-1.296,7.495-0.243,20.756-0.243,20.756c0.232,2.602,0.173,4.439,1.271,5.473
			C79.14,74.966,79.127,74.392,79.119,73.838z"/>
		<path fill="#A0A0A0" d="M70.211,29.544c-5.511,0-9.407-0.499-9.407-0.735c0-0.014,0.019-0.03,0.055-0.043h-0.045
			c0,0-0.255,0.453-0.677,1.265c0,0.002,0,0.008,0,0.01c0,0.465,4.689,0.844,10.474,0.844c5.626,0,10.215-0.357,10.462-0.807
			c-0.31-0.663-0.527-1.119-0.618-1.312C78.7,29.261,75.218,29.544,70.211,29.544z"/>
		<g>
			<path fill="#F1B974" d="M78.397,24.603V17.36c0-0.215-0.188-0.389-0.421-0.389H63.104c-0.233,0-0.421,0.174-0.421,0.389v7.242
				c0,0.116,0.094,0.325,0.094,0.342c0,0.266,3.476,0.479,7.764,0.479s7.764-0.213,7.764-0.479
				C78.304,24.928,78.397,24.719,78.397,24.603z"/>
			<path fill="#E5B27A" d="M77.971,24.954c0,0.218-3.477,0.396-7.764,0.396c-4.289,0-7.764-0.178-7.764-0.396
				c0-0.008-1.644,0.392-1.309,0.456c1.325,0.259,5.054,0.443,9.447,0.443c4.31,0,7.979-0.179,9.368-0.429
				C80.333,25.355,77.971,24.944,77.971,24.954z"/>
			<ellipse fill="#F1B974" cx="70.54" cy="17.034" rx="7.624" ry="0.411"/>
			<path fill="#EA9E39" d="M80.502,26.144L80.502,26.144v-0.186c0-0.076-0.025-0.145-0.066-0.201
				c-0.004,0.005-0.014,0.01-0.019,0.016c-0.101-0.21-0.282-0.378-0.507-0.469c-1.388,0.296-5.059,0.507-9.369,0.507
				s-7.981-0.211-9.369-0.507c-0.226,0.092-0.407,0.26-0.506,0.469c-0.008-0.006-0.016-0.011-0.021-0.016
				c-0.041,0.057-0.067,0.125-0.067,0.201v2.745c0,0.085,0.047,0.271,0.047,0.291c0,0.39,4.439,0.704,9.916,0.704
				s9.916-0.314,9.916-0.704c0-0.021,0.046-0.206,0.046-0.291v-2.554C80.502,26.149,80.502,26.146,80.502,26.144z"/>
		</g>
	</g>
	<path fill="#EA9E39" d="M109.135,44.833c-5.265,0-10.291-0.05-14.896-0.145v4.346c4.59,0.094,9.622,0.146,14.896,0.146
		c20.559,0,37.4-0.783,38.952-1.776l0.719-4.228c-0.323,0.123-1.31,0.149-1.603,0.236C142.184,44.892,126.924,44.833,109.135,44.833
		z"/>
	<path fill="#F1B974" d="M109.135,45.895c-4.883,0-10.002-0.048-14.896-0.148v2.229c4.679,0.094,9.73,0.146,14.896,0.146
		c9.69,0,18.977-0.179,26.15-0.497c8.027-0.357,12.033-0.857,12.955-1.065l0.354-2.179C142.4,45.358,124.063,45.895,109.135,45.895z
		"/>
	<path fill="#C48131" d="M148.298,46.294c-0.921,0.205-4.985,0.973-13.013,1.33c-7.174,0.318-16.46,0.497-26.15,0.497
		c-5.166,0-10.218-0.052-14.896-0.146v1.059c4.59,0.094,9.622,0.146,14.896,0.146c20.559,0,37.4-0.783,38.952-1.776L148.298,46.294z
		"/>
	<path fill="#E2E2E2" d="M151.953,42.222v1.805c0,18.755-19.606,34.598-42.814,34.598c-5.209,0-10.234-0.801-14.9-2.25v1.96
		c4.829,1.458,9.832,2.196,14.9,2.196c5.771,0,11.454-0.955,16.895-2.844c5.287-1.833,10.075-4.447,14.23-7.771
		c4.209-3.367,7.527-7.266,9.859-11.592c2.455-4.549,3.699-9.359,3.699-14.297v-1.805H151.953z"/>
	<polygon fill="#C9C9C9" points="148.533,44.437 148.34,46.707 151.128,46.707 151.254,44.116 	"/>
</g>
</svg>
