<?xml version="1.0" encoding="utf-8"?>
<!-- Generator: Adobe Illustrator 16.0.0, SVG Export Plug-In . SVG Version: 6.00 Build 0)  -->
<!DOCTYPE svg PUBLIC "-//W3C//DTD SVG 1.1//EN" "http://www.w3.org/Graphics/SVG/1.1/DTD/svg11.dtd">
<svg version="1.1" id="Layer_1" xmlns="http://www.w3.org/2000/svg" xmlns:xlink="http://www.w3.org/1999/xlink" x="0px" y="0px"
	 width="192px" height="140px" viewBox="0 0 192 140" enable-background="new 0 0 192 140" xml:space="preserve">
<path fill="#E8E8E8" d="M192,108.666c0,2.762-2.238,5-5,5H6.333c-2.762,0-5-2.238-5-5V6c0-2.762,2.238-5,5-5H187
	c2.762,0,5,2.238,5,5V108.666z"/>
<g>
	<path fill="#AFAFAF" d="M173.17,116.398c0,0.727-0.834,1.315-1.863,1.315h-66.688c-1.029,0-1.863-0.59-1.863-1.315v-1.053
		c0-0.726,0.834-1.314,1.863-1.314h66.688c1.029,0,1.863,0.59,1.863,1.314V116.398z"/>
	<ellipse fill="#E5B27A" cx="85.154" cy="50.064" rx="49.645" ry="4.989"/>
	<path fill="#B2B2B2" d="M139.102,119.119c0,7.949-18.115,14.67-50.017,14.393c-37.308-0.322-51.459-6.168-51.459-14.115
		c0-7.946,23.836-14.67,51.459-14.67C116.707,104.727,139.102,111.17,139.102,119.119z"/>
	<g>
		<path fill="#B2732F" d="M171.43,112.949c0,1.189-0.834,2.154-1.863,2.154h-66.688c-1.028,0-1.862-0.965-1.862-2.154v-1.725
			c0-1.189,0.834-2.152,1.862-2.152h66.688c1.029,0,1.863,0.963,1.863,2.152V112.949z"/>
		<path fill="#D88E36" d="M169.566,108.867h-66.689c-1.029,0-1.863,0.785-1.863,1.752v0.342c0,0.967,0.834,1.75,1.863,1.75h66.689
			c1.029,0,1.863-0.783,1.863-1.75v-0.342C171.43,109.652,170.596,108.867,169.566,108.867z"/>
		<ellipse fill="#404C61" cx="165.955" cy="112.217" rx="1.123" ry="1.137"/>
		<path fill="#EFEFEF" d="M168.084,72.893v1.469c0,0.253-0.174,0.455-0.389,0.455h-1.576c-0.215,0-0.391-0.202-0.391-0.455v-1.469
			h-2.095v1.469c0,0.253-0.174,0.455-0.389,0.455h-1.576c-0.215,0-0.39-0.202-0.39-0.455v-1.469h-2.096v1.469
			c0,0.253-0.174,0.455-0.389,0.455h-1.576c-0.215,0-0.389-0.202-0.389-0.455v-1.469h-2.096v1.469c0,0.253-0.174,0.455-0.39,0.455
			h-1.575c-0.215,0-0.39-0.202-0.39-0.455v-1.469h-2.096v1.469c0,0.253-0.175,0.455-0.39,0.455h-1.576
			c-0.215,0-0.389-0.202-0.389-0.455v-1.469h-2.096v1.469c0,0.253-0.174,0.455-0.389,0.455h-1.576c-0.215,0-0.389-0.202-0.389-0.455
			v-1.469h-2.097v1.469c0,0.253-0.174,0.455-0.389,0.455h-1.576c-0.215,0-0.39-0.202-0.39-0.455v-1.469h-2.096v1.469
			c0,0.253-0.174,0.455-0.389,0.455h-1.576c-0.215,0-0.389-0.202-0.389-0.455v-1.469h-2.096v1.469c0,0.253-0.174,0.455-0.39,0.455
			h-1.575c-0.216,0-0.39-0.202-0.39-0.455v-1.469h-2.097v1.469c0,0.253-0.174,0.455-0.389,0.455h-1.576
			c-0.215,0-0.389-0.202-0.389-0.455v-1.469h-2.096v1.469c0,0.253-0.174,0.455-0.389,0.455h-1.576c-0.215,0-0.389-0.202-0.389-0.455
			v-1.469h-2.097v1.469c0,0.253-0.174,0.455-0.389,0.455h-1.576c-0.215,0-0.39-0.202-0.39-0.455v-1.469h-2.096v1.469
			c0,0.253-0.174,0.455-0.389,0.455h-1.576c-0.215,0-0.389-0.202-0.389-0.455v-1.469h-2.094v1.469c0,0.253-0.176,0.455-0.392,0.455
			h-1.573c-0.218,0-0.392-0.202-0.392-0.455v-1.469h-2.094v1.469c0,0.253-0.177,0.455-0.392,0.455h-1.574
			c-0.217,0-0.391-0.202-0.391-0.455v-1.469h-1.783l1.064,34.9h63.975l3.517-34.9H168.084z"/>
		<path fill="#F7F7F7" d="M168.084,74.361c0,0.252-0.174,0.455-0.389,0.455h-1.576c-0.215,0-0.391-0.203-0.391-0.455v-1.469h-2.095
			v1.469c0,0.252-0.174,0.455-0.389,0.455h-1.576c-0.215,0-0.39-0.203-0.39-0.455v-1.469h-2.096v1.469
			c0,0.252-0.174,0.455-0.389,0.455h-1.576c-0.215,0-0.389-0.203-0.389-0.455v-1.469h-2.096v1.469c0,0.252-0.174,0.455-0.39,0.455
			h-1.575c-0.215,0-0.39-0.203-0.39-0.455v-1.469h-2.096v1.469c0,0.252-0.175,0.455-0.39,0.455h-1.576
			c-0.215,0-0.389-0.203-0.389-0.455v-1.469h-2.096v1.469c0,0.252-0.174,0.455-0.389,0.455h-1.576c-0.215,0-0.389-0.203-0.389-0.455
			v-1.469h-2.097v1.469c0,0.252-0.174,0.455-0.389,0.455h-1.576c-0.215,0-0.39-0.203-0.39-0.455v-1.469h-0.68v34.899h28.342
			l4.254-34.899h-2.866v1.469H168.084z"/>
		<polygon fill="#BCBCBC" points="102.607,105.016 102.715,107.793 165.543,107.793 165.652,105.016 		"/>
		<polygon fill="#D6D6D6" points="102.602,105.016 166.621,105.016 166.744,101.895 102.479,101.895 		"/>
		<path fill="#C48131" d="M169.566,109.072h-31.303v6.031h31.303c1.029,0,1.863-0.965,1.863-2.154v-1.725
			C171.43,110.035,170.596,109.072,169.566,109.072z"/>
		<g>
			<path fill="#EA9E39" d="M169.566,108.867h-31.303v3.844h31.303c1.029,0,1.863-0.783,1.863-1.75v-0.342
				C171.43,109.652,170.596,108.867,169.566,108.867z"/>
		</g>
		<path fill="#CE9E6F" d="M101.039,110.883c-0.016,0.111-0.025,0.225-0.025,0.342v1.726c0,0.172,0.021,0.336,0.051,0.493h56.064
			c0.625,0,7.146,0.005,14.27-0.104c0.021-0.127,0.031-0.256,0.031-0.389v-1.726c0-0.076-0.004-0.149-0.01-0.225
			c-7.146-0.111-13.693-0.117-14.291-0.117H101.039z"/>
		<path fill="#E5B27A" d="M171.42,111c-7.146-0.111-13.693-0.117-14.291-0.117h-18.865v2.561h18.865
			c0.625,0,7.146,0.005,14.27-0.104c0.021-0.127,0.031-0.256,0.031-0.389v-1.726C171.43,111.148,171.426,111.074,171.42,111z"/>
		<polygon fill="#E2E2E2" points="167.416,101.893 138.375,101.881 138.375,105.004 167.035,105.016 		"/>
		<polygon fill="#C9C9C9" points="167.145,105.016 138.355,105.016 138.355,107.793 166.697,107.793 		"/>
	</g>
	<path fill="#C48131" d="M85.451,55.495c-26.132,0-47.548-2.182-49.5-4.951h-0.145v5.523v0.003v0.266h0.061
		c1.285,2.839,22.992,5.098,49.584,5.098c24.801,0,45.352-1.966,49.049-4.533v-0.564v-1.099v-4.274
		C130.803,53.53,110.252,55.495,85.451,55.495z"/>
	<g>
		<path fill="#DDDDDD" d="M86.894,105.08c-12.338,0-22.886-1.557-31.35-4.629c-7.011-2.547-12.658-6.146-16.784-10.703
			c-8.626-9.525-7.713-19.637-7.67-20.072h2.013v-0.001c-0.01,0.097-0.847,9.909,7.191,18.755c8.822,9.706,24.5,14.629,46.6,14.629
			c21.782,0,36.846-4.877,44.772-14.496c7.516-9.121,5.629-19.354,5.607-19.458h1.985c0.089,0.456,2.082,10.894-6.032,20.743
			c-3.744,4.545-9.068,8.131-15.822,10.659C109.301,103.543,99.035,105.08,86.894,105.08z"/>
	</g>
	<path fill="#C9C9C9" d="M134.5,66.193H35.805l1.896,53.03c-0.031,0.164-0.05,0.326-0.05,0.49c0,6.051,21.268,10.957,47.501,10.957
		c26.2,0,47.446-4.895,47.5-10.934h0.105L134.5,66.193z"/>
	<path fill="#AFAFAF" d="M134.379,69.934l0.121-3.741H35.805l0.134,3.745c8.123,2.251,27.098,3.83,49.214,3.83
		C107.281,73.768,126.264,72.188,134.379,69.934z"/>
	<path fill="#EA9E39" d="M135.982,56.878L134.578,54c-1.787,2.836-23.168,5.075-49.282,5.075c-26.685,0-48.425-2.338-49.37-5.264
		H35.75L34.343,56.7l-0.019,0.38h0.1c1.896,2.912,23.87,5.211,50.7,5.211c26.831,0,48.804-2.299,50.7-5.211L135.982,56.878z"/>
	<g>
		<g>
			<g>
				<path fill="#F7F7F7" d="M136.494,57.627l-0.133,0.164c-1.916,2.854-24.121,5.107-51.237,5.107
					c-27.115,0-49.322-2.253-51.238-5.107h-0.015l-0.313,8.689c1.93,2.875,24.291,5.142,51.596,5.142
					c27.306,0,49.667-2.267,51.597-5.142L136.494,57.627z"/>
			</g>
		</g>
	</g>
	<path fill="#C48131" d="M36.734,52.18c4.901-2.656,24.626-4.642,48.218-4.642c23.927,0,43.878,2.043,48.419,4.754
		c0.766-0.414,1.174-0.846,1.174-1.288c0-3.274-22.113-5.928-49.392-5.928c-27.278,0-49.391,2.653-49.391,5.928
		C35.763,51.407,36.098,51.799,36.734,52.18z"/>
	<path fill="#AFAFAF" d="M85.124,62.906c-4.045,0-7.979-0.051-11.754-0.146v2.541c0,1.425,1.046,2.58,2.338,2.58H94.6
		c1.291,0,2.337-1.155,2.337-2.58v-2.543C93.144,62.855,89.19,62.906,85.124,62.906z"/>
	<path fill="#F7F7F7" d="M85.124,62.906c-3.578,0-7.069-0.04-10.439-0.114v1.775c0,1.266,0.93,2.291,2.077,2.291h16.784
		c1.147,0,2.077-1.025,2.077-2.291v-1.776C92.233,62.866,88.722,62.906,85.124,62.906z"/>
	<path fill="#F7F7F7" d="M86.026,76.67c-17.406,0-32.801-0.92-42.177-2.334l1.416,44.699c8.279,3.213,23.48,5.369,40.864,5.369
		c16.169,0,30.451-1.865,39.029-4.711v-0.008l1.299-45.103C116.979,75.855,102.391,76.67,86.026,76.67z"/>
	<path fill="#F7F7F7" d="M85.767,77.193c-17.406,0-32.801-0.92-42.177-2.334l1.416,44.699c8.279,3.213,23.48,5.366,40.864,5.366
		c16.169,0,30.45-1.862,39.028-4.709v-0.006l1.299-45.104C116.719,76.379,102.131,77.193,85.767,77.193z"/>
	<path fill="#D3D3D3" d="M122.848,118.391l0.855-29.922c-7.311,1.41-22.373,3.211-37.489,3.211c-16.052,0-33.365-2.129-39.086-3.375
		l0.927,29.471c7.75,3.031,21.98,5.063,38.255,5.063c15.137,0,28.506-1.758,36.538-4.44V118.391L122.848,118.391z"/>
	<g>
		<g>
			<g>
				<g>
					<path fill="#5B5B5B" d="M67.827,86.201c0.059,0.73,0.777,1.078,1.601,1.078c0.603,0,1.09-0.082,1.566-0.244l0.232,1.195
						c-0.58,0.244-1.288,0.356-2.053,0.356c-1.925,0-3.027-1.11-3.027-2.887c0-1.438,0.904-3.027,2.865-3.027
						c1.832,0,2.528,1.429,2.528,2.83c0,0.302-0.035,0.567-0.058,0.697L67.827,86.201L67.827,86.201z M69.903,84.992
						c0-0.428-0.186-1.146-0.986-1.146c-0.754,0-1.056,0.684-1.102,1.146H69.903z M76.181,84.02c0-0.672,0.545-1.219,1.217-1.219
						l0,0h0.545v3.852c0,0.742,0.023,1.347,0.047,1.82h-1.53l-0.082-0.801h-0.035c-0.221,0.35-0.754,0.928-1.775,0.928
						c-1.16,0-1.995-0.719-1.995-2.469v-3.33h1.763v3.051c0,0.824,0.267,1.322,0.893,1.322c0.487,0,0.777-0.336,0.882-0.613
						c0.046-0.104,0.069-0.233,0.069-0.383L76.181,84.02L76.181,84.02z M79.363,84.67c0-0.836-0.011-1.381-0.046-1.869h1.508
						l0.07,1.057h0.046c0.291-0.836,0.975-1.184,1.531-1.184c0.163,0,0.244,0.012,0.372,0.035v1.658
						c-0.14-0.023-0.278-0.045-0.476-0.045c-0.65,0-1.09,0.336-1.206,0.893c-0.025,0.129-0.038,0.262-0.035,0.395v2.979H80.57
						c-0.673,0-1.218-0.545-1.218-1.217l0,0L79.363,84.67z M86.383,88.6c-1.659,0-2.935-1.088-2.935-2.922
						c0-1.832,1.207-3.004,3.039-3.004c1.729,0,2.888,1.195,2.888,2.912c0,2.064-1.473,3.014-2.981,3.014H86.383z M86.429,87.336
						c0.696,0,1.125-0.684,1.125-1.703c0-0.836-0.326-1.695-1.125-1.695c-0.835,0-1.16,0.859-1.16,1.705
						c0,0.963,0.406,1.693,1.149,1.693H86.429z M94.726,88.322c-0.314,0.15-0.905,0.266-1.578,0.266
						c-1.833,0-3.004-1.123-3.004-2.898c0-1.646,1.137-3.004,3.248-3.004c0.463,0,0.974,0.082,1.345,0.222l-0.278,1.311
						c-0.209-0.094-0.521-0.174-0.986-0.174c-0.928,0-1.531,0.66-1.52,1.578c0,1.043,0.696,1.588,1.555,1.588
						c0.418,0,0.742-0.069,1.009-0.187L94.726,88.322z M98.313,88.6c-1.658,0-2.935-1.088-2.935-2.922
						c0-1.832,1.206-3.004,3.038-3.004c1.729,0,2.889,1.195,2.889,2.912c0,2.064-1.473,3.016-2.979,3.016L98.313,88.6z
						 M98.357,87.336c0.697,0,1.125-0.684,1.125-1.703c0-0.836-0.324-1.695-1.125-1.695c-0.834,0-1.16,0.859-1.16,1.705
						c0,0.963,0.406,1.693,1.15,1.693H98.357L98.357,87.336z M103.615,88.473c-0.672,0-1.217-0.545-1.217-1.217l0,0v-7.029h1.764
						v8.246H103.615L103.615,88.473z"/>
				</g>
			</g>
		</g>
	</g>
	<path fill="#FFFFFF" d="M139.307,66.651c0,0.48-0.389,0.869-0.871,0.869l0,0c-0.479,0-0.869-0.389-0.869-0.869v-5.569
		c0-0.481,0.39-0.87,0.869-0.87l0,0c0.482,0,0.871,0.389,0.871,0.87V66.651z"/>
	<path fill="#FFFFFF" d="M32.62,66.651c0,0.48-0.39,0.869-0.87,0.869l0,0c-0.481,0-0.871-0.389-0.871-0.869v-5.569
		c0-0.481,0.389-0.87,0.871-0.87l0,0c0.48,0,0.87,0.389,0.87,0.87V66.651z"/>
	<path fill="#EA9E39" d="M85.153,44.648c-27.418,0-49.645,2.495-49.645,5.572c0,3.077,22.227,5.571,49.645,5.571
		c27.419,0,49.646-2.494,49.646-5.571C134.799,47.143,112.572,44.648,85.153,44.648z M85.153,54.878
		c-26.754,0-48.443-2.106-48.443-4.705c0-2.599,21.688-4.705,48.443-4.705c26.755,0,48.445,2.106,48.445,4.705
		C133.598,52.772,111.908,54.878,85.153,54.878z"/>
	<g>
		<g>
			<path fill="#F7F7F7" d="M69.34,101.154v4.467h0.404l3.45-4.467h1.569l-3.81,4.615c1.658,0.225,2.301,1.239,2.823,2.6
				c0.374,1.029,0.657,1.957,1.106,2.852h-1.405c-0.358-0.686-0.643-1.582-0.911-2.373c-0.463-1.33-1.105-2.242-2.808-2.242H69.34
				v4.615h-1.285v-10.066H69.34L69.34,101.154z"/>
			<path fill="#F7F7F7" d="M83.307,101.154v10.066h-1.314v-8.978h-3.331v3.047c0,2.183-0.09,4.617-1.509,5.571
				c-0.373,0.238-0.956,0.479-1.538,0.479l-0.165-1.047c0.404-0.073,0.822-0.313,1.062-0.537c0.807-0.791,0.881-2.748,0.881-4.36
				v-4.242H83.307z"/>
			<path fill="#F7F7F7" d="M90.775,106.502h-3.914v3.629h4.362v1.09h-5.662v-10.066h5.437v1.091H86.86v3.182h3.914L90.775,106.502
				L90.775,106.502z"/>
			<path fill="#F7F7F7" d="M94.135,101.154v4.242c0,1.598-0.029,2.914-0.119,4.258l0.03,0.014c0.508-1.047,1.135-2.135,1.867-3.332
				l3.257-5.182h1.299v10.066h-1.225v-4.287c0-1.627,0.016-2.822,0.119-4.093l-0.045-0.016c-0.492,1.104-1.18,2.271-1.867,3.391
				l-3.151,5.005h-1.389v-10.066H94.135z M95.779,99.047c0.059,0.463,0.208,0.928,0.911,0.928c0.688,0,0.852-0.434,0.912-0.928h1
				c-0.074,0.986-0.672,1.598-1.941,1.598c-1.225,0-1.808-0.61-1.882-1.598H95.779z"/>
		</g>
	</g>
</g>
</svg>
