<?xml version="1.0" encoding="utf-8"?>
<!-- Generator: Adobe Illustrator 16.0.0, SVG Export Plug-In . SVG Version: 6.00 Build 0)  -->
<!DOCTYPE svg PUBLIC "-//W3C//DTD SVG 1.1//EN" "http://www.w3.org/Graphics/SVG/1.1/DTD/svg11.dtd">
<svg version="1.1" id="Layer_1" xmlns="http://www.w3.org/2000/svg" xmlns:xlink="http://www.w3.org/1999/xlink" x="0px" y="0px"
	 width="192px" height="140px" viewBox="0 0 192 140" enable-background="new 0 0 192 140" xml:space="preserve">
<g>
	<path fill="#E8E8E8" d="M192,106.505c0,2.731-2.238,4.946-5,4.946H6.333c-2.762,0-5-2.215-5-4.946V4.945
		c0-2.731,2.238-4.945,5-4.945H187c2.762,0,5,2.214,5,4.945V106.505z"/>
	<g>
		<g>
			<path fill="#AFAFAF" d="M175.997,66.492c7.466,16.798,1.905,35.578-12.42,41.945c-14.325,6.369-31.993-2.09-39.458-18.889
				c-7.469-16.799-1.907-35.58,12.419-41.946C150.861,41.233,168.529,49.692,175.997,66.492z"/>
			<path fill="#D3D3D3" d="M174.212,67.076c7.468,16.795,1.907,35.576-12.419,41.943c-14.325,6.369-31.993-2.088-39.458-18.888
				c-7.467-16.801-1.905-35.58,12.42-41.947C149.079,41.817,166.746,50.273,174.212,67.076z"/>
			
				<ellipse transform="matrix(-0.2476 -0.9689 0.9689 -0.2476 110.8523 246.0687)" fill="#B2B2B2" cx="150.976" cy="79.99" rx="26.638" ry="20.051"/>
			<g>
				<path fill="none" stroke="#F7F7F7" stroke-width="2.1331" stroke-miterlimit="10" d="M166.589,70.406
					c6.451,13.437,3.181,28.516-7.307,33.676c-10.486,5.158-24.218-1.555-30.666-14.99c-6.451-13.439-3.181-28.516,7.308-33.676
					C146.409,50.255,160.141,56.967,166.589,70.406z"/>
				<path fill="none" stroke="#F7F7F7" stroke-width="2.1561" stroke-miterlimit="10" d="M163.891,71.768
					c6.52,13.58,3.213,28.821-7.388,34.035c-10.601,5.217-24.478-1.566-30.997-15.15s-3.213-28.821,7.387-34.036
					C143.491,51.398,157.369,58.183,163.891,71.768z"/>
				<path fill="none" stroke="#F7F7F7" stroke-width="2.179" stroke-miterlimit="10" d="M161.188,73.127
					c6.59,13.727,3.248,29.129-7.465,34.4c-10.711,5.27-24.738-1.586-31.326-15.313c-6.59-13.728-3.248-29.13,7.465-34.399
					C140.572,52.541,154.6,59.398,161.188,73.127z"/>
				<path fill="none" stroke="#F7F7F7" stroke-width="2.202" stroke-miterlimit="10" d="M158.488,74.486
					c6.658,13.871,3.281,29.436-7.543,34.764c-10.825,5.326-25-1.604-31.657-15.475c-6.658-13.873-3.281-29.438,7.545-34.765
					C137.654,53.684,151.829,60.613,158.488,74.486z"/>
				<path fill="none" stroke="#F7F7F7" stroke-width="2.2249" stroke-miterlimit="10" d="M155.788,75.848
					c6.728,14.016,3.313,29.742-7.623,35.125c-10.937,5.381-25.259-1.619-31.985-15.637c-6.729-14.018-3.316-29.742,7.623-35.126
					C134.736,54.829,149.061,61.83,155.788,75.848z"/>
			</g>
			
				<ellipse transform="matrix(-0.4062 -0.9138 0.9138 -0.4062 103.3089 242.2841)" fill="#AFAFAF" cx="130.375" cy="87.576" rx="35.917" ry="28.387"/>
			
				<ellipse transform="matrix(-0.4061 -0.9138 0.9138 -0.4061 100.2298 241.3802)" fill="#D3D3D3" cx="128.55" cy="88.121" rx="35.918" ry="28.385"/>
			
				<ellipse transform="matrix(-0.3499 -0.9368 0.9368 -0.3499 90.6196 239.3147)" fill="#AFAFAF" cx="128.347" cy="88.214" rx="16.525" ry="12.688"/>
			
				<ellipse transform="matrix(-0.3499 -0.9368 0.9368 -0.3499 90.6127 239.3212)" fill="#9B9B9B" cx="128.346" cy="88.22" rx="12.24" ry="9.397"/>
			<path fill="#5B5B5B" d="M137.146,84.928c-1.947-5.215-6.265-8.615-10.44-8.639c-3.479,2.624-4.699,8.275-2.662,13.727
				c1.946,5.215,6.263,8.613,10.44,8.641C137.964,96.029,139.184,90.379,137.146,84.928z"/>
			
				<ellipse transform="matrix(-0.21 -0.9777 0.9777 -0.21 104.0702 213.5203)" fill="#AFAFAF" cx="138.302" cy="64.714" rx="3.279" ry="2.488"/>
			
				<ellipse transform="matrix(-0.2098 -0.9777 0.9777 -0.2098 98.6664 257.3762)" fill="#AFAFAF" cx="153.338" cy="88.817" rx="3.277" ry="2.489"/>
			
				<ellipse transform="matrix(-0.2095 -0.9778 0.9778 -0.2095 32.8026 248.6254)" fill="#AFAFAF" cx="116.901" cy="111.053" rx="3.279" ry="2.488"/>
			
				<ellipse transform="matrix(-0.2097 -0.9778 0.9778 -0.2097 78.085 187.043)" fill="#AFAFAF" cx="114.637" cy="61.963" rx="3.279" ry="2.489"/>
			<g>
				<g>
					<path fill="#A3A3A3" stroke="#A3A3A3" stroke-width="0.4163" stroke-miterlimit="10" d="M106.227,76.053
						c-0.363-0.58-0.799-1.281-1.097-1.816l-0.015,0.011c0.172,0.563,0.337,1.174,0.506,1.856l0.597,2.401l-0.323,0.185
						l-1.688-1.731c-0.498-0.513-0.943-0.987-1.324-1.44l-0.01,0.006c0.293,0.537,0.675,1.266,1.01,1.924l0.952,1.88l-0.405,0.229
						l-2.197-4.4l0.543-0.307l1.734,1.743c0.438,0.449,0.816,0.854,1.15,1.25l0.014-0.008c-0.16-0.479-0.311-1.013-0.469-1.636
						l-0.588-2.399l0.542-0.309l2.632,4.155l-0.415,0.233L106.227,76.053z"/>
					<path fill="#A3A3A3" stroke="#A3A3A3" stroke-width="0.4163" stroke-miterlimit="10" d="M108.165,75.656l0.421,1.537
						l-0.439,0.25l-1.308-4.907l0.515-0.291l3.549,3.63l-0.453,0.259l-1.115-1.143L108.165,75.656z M109.001,74.609l-1.021-1.045
						c-0.232-0.238-0.424-0.463-0.614-0.684l-0.009,0.006c0.095,0.281,0.188,0.572,0.271,0.868l0.38,1.418L109.001,74.609z"/>
					<path fill="#A3A3A3" stroke="#A3A3A3" stroke-width="0.4163" stroke-miterlimit="10" d="M108.991,71.389
						c0.184-0.179,0.475-0.385,0.767-0.554c0.454-0.257,0.809-0.317,1.15-0.192c0.273,0.097,0.533,0.334,0.72,0.664
						c0.319,0.563,0.261,1.094-0.001,1.442l0.012,0.019c0.317-0.028,0.644,0.188,0.973,0.588c0.447,0.533,0.759,0.9,0.922,1.027
						l-0.44,0.25c-0.122-0.09-0.403-0.416-0.8-0.896c-0.432-0.533-0.734-0.654-1.132-0.454l-0.399,0.228l1.051,1.85l-0.426,0.24
						L108.991,71.389z M110.521,73.092l0.436-0.246c0.455-0.259,0.561-0.746,0.281-1.232c-0.313-0.551-0.758-0.617-1.211-0.369
						c-0.205,0.115-0.338,0.227-0.391,0.289L110.521,73.092z"/>
					<path fill="#A3A3A3" stroke="#A3A3A3" stroke-width="0.4163" stroke-miterlimit="10" d="M115.725,70.654
						c-0.361-0.581-0.799-1.28-1.096-1.814l-0.016,0.006c0.173,0.564,0.338,1.176,0.507,1.859l0.596,2.402l-0.323,0.183
						l-1.688-1.731c-0.499-0.512-0.943-0.988-1.325-1.44l-0.01,0.005c0.293,0.538,0.676,1.268,1.01,1.924l0.952,1.883l-0.404,0.229
						l-2.197-4.399l0.543-0.309l1.734,1.745c0.436,0.447,0.814,0.854,1.149,1.248l0.015-0.008c-0.16-0.479-0.313-1.014-0.47-1.635
						l-0.589-2.399l0.544-0.309l2.632,4.154l-0.415,0.235L115.725,70.654z"/>
					<path fill="#A3A3A3" stroke="#A3A3A3" stroke-width="0.4163" stroke-miterlimit="10" d="M119.52,68.097
						c0.836,1.468,0.59,2.639-0.25,3.117c-0.871,0.495-1.979-0.032-2.713-1.325c-0.771-1.354-0.625-2.611,0.256-3.111
						C117.71,66.267,118.8,66.828,119.52,68.097z M117.003,69.617c0.519,0.914,1.364,1.514,2.034,1.133
						c0.674-0.382,0.6-1.404,0.048-2.374c-0.481-0.849-1.329-1.54-2.037-1.139C116.343,67.639,116.471,68.682,117.003,69.617z"/>
					<path fill="#A3A3A3" stroke="#A3A3A3" stroke-width="0.4163" stroke-miterlimit="10" d="M121.848,69.655l-3.263-3.794
						l0.449-0.256l1.618,1.938c0.4,0.477,0.791,0.959,1.084,1.337l0.01-0.006c-0.188-0.455-0.373-1.02-0.573-1.636l-0.784-2.403
						l0.444-0.251l1.633,1.937c0.38,0.456,0.757,0.912,1.062,1.334l0.01-0.006c-0.198-0.508-0.375-1.035-0.574-1.625l-0.791-2.401
						l0.436-0.247l1.494,4.8l-0.444,0.251l-1.679-1.986c-0.414-0.486-0.719-0.865-1.008-1.271l-0.011,0.006
						c0.183,0.457,0.349,0.917,0.538,1.537l0.795,2.49L121.848,69.655z"/>
					<path fill="#A3A3A3" stroke="#A3A3A3" stroke-width="0.4163" stroke-miterlimit="10" d="M126.012,64.641l-1.281,0.729
						l0.875,1.538l1.428-0.81l0.263,0.461l-1.853,1.054l-2.426-4.271l1.777-1.011l0.264,0.464l-1.354,0.77l0.768,1.349l1.279-0.729
						L126.012,64.641z"/>
					<path fill="#A3A3A3" stroke="#A3A3A3" stroke-width="0.4163" stroke-miterlimit="10" d="M125.421,61.977l0.425-0.242
						l2.163,3.807l1.408-0.798l0.263,0.461l-1.832,1.042L125.421,61.977z"/>
					<path fill="#A3A3A3" stroke="#A3A3A3" stroke-width="0.4163" stroke-miterlimit="10" d="M127.759,60.723
						c0.229-0.198,0.517-0.412,0.854-0.602c0.611-0.348,1.15-0.412,1.638-0.228c0.49,0.182,0.942,0.579,1.335,1.271
						c0.396,0.697,0.555,1.359,0.469,1.929c-0.08,0.573-0.467,1.078-1.105,1.442c-0.305,0.172-0.568,0.297-0.803,0.388
						L127.759,60.723z M130.331,64.256c0.121-0.036,0.28-0.117,0.446-0.213c0.908-0.516,1.027-1.455,0.373-2.607
						c-0.567-1.012-1.371-1.4-2.271-0.889c-0.219,0.123-0.371,0.243-0.465,0.338L130.331,64.256z"/>
				</g>
			</g>
		</g>
		<path fill="#999999" d="M109.645,116.508h-0.619v0.95c-3.219-4.774-18.611-8.394-37.115-8.394
			c-18.506,0-33.897,3.617-37.115,8.394v-0.95h-0.621v2.774l0.002,0.005c0,0.01-0.002,0.02-0.002,0.027
			c0,5.662,16.896,10.252,37.736,10.252c20.84,0,37.734-4.59,37.734-10.252c0-0.01-0.002-0.021-0.002-0.03l0.002-0.002V116.508z"/>
		<path fill="#AFAFAF" d="M109.333,115.241h-0.642v0.92c-3.319-4.629-19.199-8.138-38.292-8.138
			c-19.092,0-34.972,3.509-38.292,8.138v-0.92h-0.64v2.688l0.001,0.006c0,0.01-0.001,0.02-0.001,0.027
			c0,5.488,17.43,9.938,38.932,9.938s38.934-4.448,38.934-9.938c0-0.01-0.002-0.021-0.002-0.031l0.002-0.002V115.241z"/>
		<ellipse fill="#F7F7F7" cx="70.4" cy="114.93" rx="38.933" ry="10.735"/>
		<g>
			<g>
				<path fill="#9B6429" d="M101.268,114.829c0,0-21.647,6.368-62.487,0c1.741-24.411,0-51.316,0-51.316h62.487V114.829z"/>
			</g>
		</g>
		<g>
			<g>
				<path fill="#F1B974" d="M70.984,78.341c-8.668,0-16.831-0.575-22.989-1.62c-7.671-1.301-10.943-2.998-10.943-5.682
					c0-2.356,2.129-2.881,3.032-3.243l2.567,1.456c-1.873,0.486-2.013,1.457-0.901,2.152c0.966,0.516,2.855,1.058,8.313,1.873
					c5.766,0.863,13.196,1.338,20.921,1.338c7.726,0,15.155-0.475,20.923-1.338c5.454-0.815,7.811-1.723,8.778-2.24
					c0.393-0.675-0.352-1.07-1.621-1.438l0.158-3.088c2.445,0.711,5.695,1.953,5.695,4.527c0,2.683-3.273,4.381-10.945,5.683
					C87.817,77.766,79.653,78.341,70.984,78.341z"/>
				<path fill="#F1B974" d="M70.984,84.316c-8.668,0-16.831-0.572-22.989-1.617c-7.671-1.303-10.944-3.002-10.944-5.684
					c0-2.355,2.13-2.879,3.033-3.244l2.567,1.459c-1.873,0.483-2.013,1.455-0.901,2.149c0.966,0.519,2.855,1.06,8.313,1.874
					c5.766,0.862,13.196,1.339,20.921,1.339c7.726,0,15.155-0.477,20.923-1.339c5.454-0.813,7.811-1.721,8.778-2.238
					c0.393-0.677-0.352-1.07-1.621-1.439l0.158-3.086c2.445,0.711,5.695,1.951,5.695,4.525c0,2.682-3.273,4.381-10.945,5.684
					C87.817,83.744,79.653,84.316,70.984,84.316z"/>
				<path fill="#F1B974" d="M70.984,90.296c-8.668,0-16.831-0.575-22.989-1.62c-7.671-1.301-10.943-2.999-10.943-5.682
					c0-2.355,2.129-2.881,3.032-3.245l2.567,1.458c-1.873,0.486-2.013,1.457-0.901,2.15c0.966,0.518,2.855,1.06,8.313,1.875
					c5.766,0.863,13.196,1.338,20.921,1.338c7.726,0,15.155-0.475,20.923-1.338c5.454-0.813,7.811-1.724,8.776-2.24
					c0.395-0.676-0.35-1.07-1.619-1.438l0.158-3.089c2.445,0.711,5.695,1.953,5.695,4.527c0,2.683-3.273,4.381-10.945,5.682
					C87.817,89.721,79.653,90.296,70.984,90.296z"/>
				<path fill="#F1B974" d="M70.984,96.271c-8.668,0-16.831-0.574-22.989-1.617c-7.671-1.303-10.944-3.002-10.944-5.684
					c0-2.355,2.13-2.88,3.033-3.244l2.567,1.459c-1.873,0.485-2.013,1.455-0.901,2.148c0.966,0.52,2.855,1.061,8.313,1.875
					c5.766,0.861,13.196,1.337,20.921,1.337c7.726,0,15.155-0.476,20.923-1.337c5.454-0.814,7.811-1.721,8.778-2.241
					c0.393-0.675-0.352-1.067-1.621-1.438l0.158-3.086c2.445,0.709,5.695,1.953,5.695,4.525c0,2.682-3.273,4.381-10.945,5.684
					C87.817,95.697,79.653,96.271,70.984,96.271z"/>
				<path fill="#F1B974" d="M70.984,102.251c-8.668,0-16.831-0.575-22.989-1.62c-7.671-1.301-10.944-2.999-10.944-5.682
					c0-2.355,2.13-2.881,3.033-3.243l2.567,1.456c-1.873,0.486-2.013,1.457-0.901,2.152c0.966,0.516,2.855,1.058,8.313,1.873
					c5.766,0.862,13.196,1.338,20.921,1.338c7.726,0,15.155-0.476,20.923-1.338c5.454-0.813,7.811-1.724,8.778-2.24
					c0.393-0.676-0.352-1.07-1.621-1.438l0.158-3.088c2.445,0.711,5.695,1.953,5.695,4.527c0,2.683-3.273,4.381-10.945,5.682
					C87.817,101.676,79.653,102.251,70.984,102.251z"/>
				<path fill="#F1B974" d="M70.984,108.227c-8.668,0-16.831-0.574-22.989-1.617c-7.671-1.303-10.943-3.002-10.943-5.684
					c0-2.355,2.129-2.879,3.032-3.244l2.567,1.457c-1.873,0.486-2.013,1.459-0.901,2.151c0.966,0.519,2.855,1.06,8.313,1.875
					c5.766,0.862,13.196,1.338,20.921,1.338c7.726,0,15.155-0.476,20.923-1.338c5.454-0.815,7.811-1.724,8.776-2.239
					c0.395-0.678-0.35-1.07-1.619-1.439l0.158-3.086c2.445,0.709,5.695,1.951,5.695,4.525c0,2.682-3.273,4.381-10.945,5.684
					C87.817,107.652,79.653,108.227,70.984,108.227z"/>
				<path fill="#F1B974" d="M70.984,114.205c-8.668,0-16.831-0.574-22.989-1.619c-7.671-1.303-10.944-3.001-10.944-5.682
					c0-2.357,2.13-2.879,3.033-3.246l2.567,1.458c-1.873,0.485-2.013,1.458-0.901,2.151c0.966,0.518,2.855,1.061,8.313,1.875
					c5.766,0.861,13.196,1.338,20.921,1.338c7.726,0,15.155-0.477,20.923-1.338c5.454-0.814,7.811-1.724,8.778-2.24
					c0.393-0.676-0.352-1.07-1.621-1.438l0.158-3.087c2.445,0.711,5.695,1.953,5.695,4.527c0,2.681-3.273,4.379-10.945,5.682
					C87.817,113.631,79.653,114.205,70.984,114.205z"/>
				<path fill="#F1B974" d="M70.984,120.182c-8.668,0-16.831-0.574-22.989-1.617c-7.671-1.303-10.943-3.002-10.943-5.684
					c0-2.355,2.129-2.879,3.032-3.244l2.567,1.457c-1.873,0.486-2.013,1.457-0.901,2.151c0.966,0.519,2.855,1.06,8.313,1.875
					c5.766,0.862,13.196,1.338,20.921,1.338c7.726,0,15.155-0.476,20.923-1.338c5.454-0.815,7.811-1.722,8.778-2.239
					c0.393-0.676-0.352-1.07-1.621-1.439l0.158-3.086c2.445,0.709,5.695,1.951,5.695,4.525c0,2.682-3.273,4.381-10.945,5.684
					C87.817,119.607,79.653,120.182,70.984,120.182z"/>
			</g>
		</g>
		<g>
			<g>
				<path fill="#EA9E39" d="M70.984,72.424c-8.668,0-16.831-0.576-22.989-1.621c-7.671-1.3-10.943-3.001-10.943-5.684
					c0-2.354,2.748-3.465,3.651-3.83l1.396,3.454c-0.345,0.139-0.611,0.265-0.816,0.376c0.968,0.516,3.323,1.425,8.781,2.24
					c5.766,0.861,13.196,1.336,20.921,1.336c7.726,0,15.155-0.475,20.923-1.336c5.455-0.815,7.811-1.723,8.777-2.24
					c-0.459-0.245-1.23-0.578-2.5-0.948l1.039-3.576c2.444,0.71,5.694,1.952,5.694,4.524c0,2.683-3.272,4.384-10.945,5.684
					C87.817,71.848,79.653,72.424,70.984,72.424z"/>
			</g>
		</g>
		<path opacity="0.7" fill="#9B6429" enable-background="new    " d="M105.504,63.758h-0.566v0.65
			c-2.938-3.27-16.996-5.745-33.896-5.745s-30.957,2.476-33.896,5.745v-0.65H36.58v1.899l0.001,0.003
			c0,0.008-0.001,0.014-0.001,0.021c0,3.875,15.429,7.018,34.462,7.018s34.462-3.143,34.462-7.018c0-0.008-0.002-0.016-0.002-0.023
			l0.002-0.001V63.758L105.504,63.758z"/>
		<path fill="#AFAFAF" d="M109.137,59.158h-0.641v0.78c-3.318-3.923-19.2-6.896-38.292-6.896c-19.092,0-34.973,2.974-38.293,6.896
			v-0.78h-0.64v2.278l0.001,0.005c0,0.008-0.001,0.018-0.001,0.023c0,4.652,17.431,8.424,38.933,8.424s38.933-3.771,38.933-8.424
			c0-0.008-0.002-0.018-0.002-0.026l0.002-0.002V59.158z"/>
		<g>
			<ellipse fill="#F7F7F7" cx="70.204" cy="59.287" rx="38.933" ry="8.424"/>
			<ellipse fill="#AFAFAF" cx="70.204" cy="58.012" rx="17.515" ry="3.331"/>
		</g>
		<ellipse fill="#AFAFAF" cx="43.368" cy="55.013" rx="3.756" ry="0.808"/>
		<ellipse fill="#AFAFAF" cx="90.308" cy="53.139" rx="3.756" ry="0.807"/>
		<ellipse fill="#AFAFAF" cx="44.929" cy="62.321" rx="4.141" ry="1.065"/>
		<ellipse fill="#AFAFAF" cx="99.57" cy="58.008" rx="3.986" ry="1.064"/>
		<ellipse fill="#AFAFAF" cx="64.583" cy="51.998" rx="4.354" ry="0.758"/>
		<g>
			<path fill="#999999" d="M63.957,123.574c-2.55-1.271-4.815-2.586-6.833-3.916c-2.295-0.186-4.466-0.418-6.477-0.692
				c2.608,2.138,5.742,4.276,9.504,6.322c2.697,0.202,5.512,0.327,8.41,0.362C67.004,125.018,65.467,124.327,63.957,123.574z"/>
			<path fill="#8C8B8B" d="M68.562,125.65c-2.898-0.035-5.713-0.16-8.41-0.362c0.757,0.411,1.535,0.819,2.344,1.22
				c0.914,0.457,1.837,0.893,2.769,1.307c1.681,0.058,3.396,0.086,5.136,0.086c1.476,0,2.93-0.021,4.362-0.062
				C72.658,127.211,70.591,126.48,68.562,125.65z"/>
			<g>
				<path fill="#9B6429" d="M57.124,119.658c0.003,0.001,0.007,0.003,0.01,0.005c-7.798-5.14-10.932-8.017-13.024-11.97
					c-2.835-5.351-2.916-4.123-2.915-4.161l-1.64-0.046l-0.944,0.641c-0.006,0.188-0.608,0.376,1.058,3.43
					c1.88,3.445,5.476,6.904,10.979,11.409C52.658,119.24,54.829,119.473,57.124,119.658z"/>
			</g>
		</g>
		<g>
			<path fill="#F1B974" d="M92.838,133.078c-7.507,0-17.059-1.521-27.458-6.867c-10.889-5.596-22.995-15.376-26.988-21.802
				c-4.027-6.483-2.248-14.753,0.872-16.95l1.919,2.723c-1.379,0.973-3.241,7.193,0.039,12.471
				c3.247,5.228,13.99,14.59,25.68,20.597c13.223,6.796,24.951,7.058,32.463,6.084c8.316-1.081,13.736-3.901,14.387-4.376
				l1.996,2.667c-1.256,0.942-7.346,3.877-15.854,4.997C97.824,132.893,95.455,133.078,92.838,133.078z"/>
		</g>
		<path fill="#9B6429" d="M115.343,125.943c0.5,0.787,0.655,1.58,0.345,1.771c-0.311,0.188-0.967-0.297-1.467-1.085
			c-0.5-0.787-0.654-1.58-0.345-1.77C114.188,124.669,114.843,125.154,115.343,125.943z"/>
		<path fill="none" stroke="#F7F7F7" stroke-width="2.202" stroke-miterlimit="10" d="M164.07,65.594c0,0,32.046,32.26,5.998,63.029
			c-10.713,12.654-30.959,5.926-30.959,5.926"/>
	</g>
</g>
</svg>
