<?xml version="1.0" encoding="utf-8"?>
<!-- Generator: Adobe Illustrator 16.0.0, SVG Export Plug-In . SVG Version: 6.00 Build 0)  -->
<!DOCTYPE svg PUBLIC "-//W3C//DTD SVG 1.1//EN" "http://www.w3.org/Graphics/SVG/1.1/DTD/svg11.dtd">
<svg version="1.1" id="Layer_1" xmlns="http://www.w3.org/2000/svg" xmlns:xlink="http://www.w3.org/1999/xlink" x="0px" y="0px"
	 width="22px" height="22px" viewBox="0 0 22 22" enable-background="new 0 0 22 22" xml:space="preserve">
<g>
	<path fill-rule="evenodd" clip-rule="evenodd" fill="#FFFFFF" d="M22,11.66c0,0.236-0.098,0.457-0.279,0.639l-9.455,9.439
		c-0.117,0.117-0.248,0.191-0.408,0.234L11.746,22H11.57l-0.027-0.008c-0.225-0.037-0.391-0.121-0.537-0.264
		c-0.35-0.348-0.701-0.693-1.047-1.049c-0.174-0.178-0.26-0.369-0.268-0.602c0-0.002,0-0.004,0-0.006
		c0-0.205,0.037-0.432,0.311-0.703c1.029-1.025,5.906-5.91,5.906-5.91l-2.406-0.01l-10.18,0.002c-0.541,0-0.924-0.365-0.932-0.887
		c-0.004-0.311-0.006-0.619-0.006-0.928c0-0.299,0.002-0.6,0.006-0.898c0.008-0.514,0.389-0.885,0.91-0.885h10.848l1.822,0.043
		c0,0-4.645-4.639-6.008-6.004c-0.178-0.18-0.275-0.404-0.275-0.637c0-0.234,0.1-0.461,0.279-0.641
		c0.277-0.277,1.07-1.057,1.07-1.057c0.117-0.114,0.246-0.188,0.408-0.229l0.107-0.026h0.188l0.041,0.01
		c0.178,0.033,0.326,0.108,0.453,0.234l9.48,9.467C21.898,11.195,22,11.426,22,11.66z"/>
</g>
</svg>
