<?xml version="1.0" encoding="utf-8"?>
<!-- Generator: Adobe Illustrator 16.0.0, SVG Export Plug-In . SVG Version: 6.00 Build 0)  -->
<!DOCTYPE svg PUBLIC "-//W3C//DTD SVG 1.1//EN" "http://www.w3.org/Graphics/SVG/1.1/DTD/svg11.dtd">
<svg version="1.1" id="Layer_1" xmlns="http://www.w3.org/2000/svg" xmlns:xlink="http://www.w3.org/1999/xlink" x="0px" y="0px"
	 width="24px" height="22px" viewBox="0 0 24 22" enable-background="new 0 0 24 22" xml:space="preserve">
<rect fill="#EDB056" width="24" height="22"/>
<path fill="#FFFFFF" d="M11.996,16.093c-0.169,0-0.333-0.069-0.459-0.197l-4.709-4.716c-0.082-0.082-0.138-0.18-0.168-0.295
	l-0.021-0.26c0.031-0.133,0.091-0.252,0.191-0.353c0.175-0.178,0.352-0.354,0.528-0.529c0.123-0.12,0.264-0.181,0.432-0.188
	c0.001,0,0.001,0,0.002,0c0.203,0,0.353,0.068,0.499,0.215l2.615,2.652l-0.001-5.844c0-0.38,0.269-0.66,0.639-0.666h0.916
	c0.363,0.005,0.639,0.286,0.639,0.653l-0.005,5.856l1.023-1.058l1.615-1.613c0.128-0.127,0.29-0.197,0.459-0.197
	c0.17,0,0.333,0.07,0.46,0.197c0.176,0.177,0.351,0.355,0.523,0.535c0.084,0.083,0.138,0.178,0.168,0.295l0.03,0.122l-0.01,0.138
	c-0.032,0.124-0.087,0.229-0.18,0.321l-4.725,4.733C12.331,16.022,12.166,16.093,11.996,16.093z"/>
</svg>
