<?xml version="1.0" encoding="utf-8"?>
<!-- Generator: Adobe Illustrator 16.0.0, SVG Export Plug-In . SVG Version: 6.00 Build 0)  -->
<!DOCTYPE svg PUBLIC "-//W3C//DTD SVG 1.1//EN" "http://www.w3.org/Graphics/SVG/1.1/DTD/svg11.dtd">
<svg version="1.1" id="Isolation_Mode" xmlns="http://www.w3.org/2000/svg" xmlns:xlink="http://www.w3.org/1999/xlink" x="0px"
	 y="0px" width="200px" height="200px" viewBox="0 0 200 200" enable-background="new 0 0 200 200" xml:space="preserve">
<path fill="#ECB056" d="M7.664,65.795c0,73.951,59.95,133.9,133.9,133.9c20.951,0,40.775-4.814,58.436-13.395V0.304H24.757
	C13.877,19.667,7.664,42.004,7.664,65.795z"/>
<g>
	<path fill-rule="evenodd" clip-rule="evenodd" fill="#FFFFFF" d="M104.303,123.158c-1.271-0.008-2.434-0.592-3.178-1.602
		c-0.741-1.006-0.954-2.285-0.584-3.506c0.16-0.531,0.449-1.098,0.754-1.697c13.442-26.452,26.886-52.896,40.336-79.337
		c0.591-1.162,1.896-3.11,4.001-3.11c0.182,0,0.368,0.015,0.555,0.044c1.315,0.208,2.366,0.906,2.957,1.966
		c0.604,1.082,0.643,2.379,0.108,3.654c-0.464,1.108-1.026,2.183-1.623,3.32c-0.229,0.438-0.458,0.875-0.682,1.315l-10.358,20.381
		c-9.352,18.4-18.703,36.799-28.042,55.205c-1.244,2.453-2.393,3.365-4.239,3.365H104.303z"/>
	<path fill-rule="evenodd" clip-rule="evenodd" fill="#FFFFFF" d="M97.449,38.198c11.736,0.024,21.48,9.795,21.469,21.531
		c-0.011,11.765-9.736,21.459-21.519,21.447c-11.735-0.012-21.54-9.805-21.521-21.494C75.898,47.996,85.759,38.174,97.449,38.198z
		 M97.344,73.437c7.609,0.029,13.762-5.989,13.848-13.545c0.086-7.698-6.126-13.961-13.82-13.93
		c-7.521,0.028-13.745,6.25-13.747,13.74C83.623,67.229,89.795,73.408,97.344,73.437z"/>
	<path fill-rule="evenodd" clip-rule="evenodd" fill="#FFFFFF" d="M152.914,75.873c11.736,0.024,21.48,9.796,21.469,21.53
		c-0.01,11.765-9.736,21.458-21.518,21.447c-11.735-0.012-21.54-9.805-21.521-21.494C131.363,85.671,141.225,75.85,152.914,75.873z
		 M152.809,111.111c7.609,0.029,13.762-5.99,13.848-13.544c0.087-7.699-6.125-13.96-13.82-13.929
		c-7.521,0.027-13.744,6.25-13.746,13.74C139.088,104.904,145.26,111.082,152.809,111.111z"/>
</g>
</svg>
