<?xml version="1.0" encoding="utf-8"?>
<!-- Generator: Adobe Illustrator 16.0.0, SVG Export Plug-In . SVG Version: 6.00 Build 0)  -->
<!DOCTYPE svg PUBLIC "-//W3C//DTD SVG 1.1//EN" "http://www.w3.org/Graphics/SVG/1.1/DTD/svg11.dtd">
<svg version="1.1" id="Layer_1" xmlns="http://www.w3.org/2000/svg" xmlns:xlink="http://www.w3.org/1999/xlink" x="0px" y="0px"
	 width="58px" height="58px" viewBox="0 0 58 58" enable-background="new 0 0 58 58" xml:space="preserve">
<g>
	<path opacity="0.66" fill="#FFFFFF" enable-background="new    " d="M22.883,20.319c-0.94,0.917-1.667,1.626-2.495,2.432
		c-2.529-2.589-5.078-5.199-7.628-7.81c-0.081,0.044-0.161,0.089-0.241,0.133c0,1.364,0.024,2.728-0.008,4.092
		c-0.026,1.122-0.848,1.777-1.932,1.61c-0.803-0.124-1.337-0.666-1.346-1.532c-0.028-2.815-0.029-5.63-0.002-8.444
		C9.238,9.908,9.92,9.237,10.83,9.229c2.787-0.027,5.574-0.026,8.361-0.001c0.999,0.009,1.595,0.66,1.609,1.624
		c0.013,0.98-0.618,1.64-1.662,1.661c-1.343,0.027-2.688,0.006-4.199,0.006C17.651,15.18,20.25,17.731,22.883,20.319z"/>
	<path opacity="0.66" fill="#FFFFFF" enable-background="new    " d="M45.646,43.063c0-1.289-0.008-2.58,0.002-3.869
		c0.011-1.174,0.621-1.832,1.662-1.827c1.037,0.006,1.637,0.659,1.642,1.851c0.011,2.646,0.011,5.297-0.004,7.942
		c-0.007,1.146-0.651,1.78-1.808,1.784c-2.677,0.015-5.353,0.017-8.025,0.004c-1.104-0.004-1.749-0.645-1.741-1.66
		c0.008-1.012,0.653-1.627,1.767-1.641c1.313-0.015,2.625-0.002,4.09-0.002c-2.703-2.674-5.293-5.236-7.912-7.828
		c0.899-0.838,1.658-1.545,2.47-2.301c2.478,2.517,5.037,5.118,7.599,7.721C45.473,43.18,45.563,43.12,45.646,43.063z"/>
	<path opacity="0.66" fill="#FFFFFF" enable-background="new    " d="M45.652,14.832c-2.729,2.762-5.287,5.355-7.821,7.922
		c-0.835-0.849-1.562-1.585-2.372-2.408c2.535-2.505,5.129-5.068,7.723-7.631c-0.029-0.066-0.061-0.132-0.089-0.199
		c-1.362,0-2.727,0.027-4.089-0.008c-1.202-0.032-1.898-1.034-1.556-2.168c0.218-0.72,0.733-1.108,1.466-1.114
		c2.813-0.02,5.625-0.024,8.438-0.004c0.885,0.007,1.582,0.693,1.59,1.582c0.024,2.812,0.027,5.624-0.002,8.436
		c-0.01,0.987-0.692,1.566-1.666,1.554c-0.955-0.014-1.592-0.619-1.613-1.616C45.632,17.813,45.652,16.446,45.652,14.832z"/>
	<path opacity="0.66" fill="#FFFFFF" enable-background="new    " d="M15.101,45.643c1.26,0,2.519-0.006,3.779,0.002
		c1.254,0.008,1.921,0.594,1.917,1.651c-0.006,1.07-0.665,1.649-1.917,1.653c-2.59,0.008-5.183,0.009-7.774-0.004
		c-1.251-0.006-1.883-0.641-1.887-1.883c-0.01-2.617-0.012-5.237-0.002-7.856c0.006-1.181,0.608-1.833,1.65-1.839
		c1.041-0.006,1.64,0.648,1.653,1.835c0.013,1.288,0.004,2.575,0.004,3.978c2.635-2.683,5.185-5.279,7.724-7.861
		c0.892,0.926,1.61,1.67,2.351,2.439c-2.496,2.463-5.093,5.026-7.692,7.59C14.973,45.445,15.037,45.545,15.101,45.643z"/>
</g>
</svg>
