<?xml version="1.0" encoding="utf-8"?>
<!-- Generator: Adobe Illustrator 16.0.0, SVG Export Plug-In . SVG Version: 6.00 Build 0)  -->
<!DOCTYPE svg PUBLIC "-//W3C//DTD SVG 1.1//EN" "http://www.w3.org/Graphics/SVG/1.1/DTD/svg11.dtd">
<svg version="1.1" id="Layer_1" xmlns="http://www.w3.org/2000/svg" xmlns:xlink="http://www.w3.org/1999/xlink" x="0px" y="0px"
	 width="192px" height="140px" viewBox="0 0 192 140" enable-background="new 0 0 192 140" xml:space="preserve">
<path fill="#EDE9E7" d="M192.127,107.819c0,2.731-2.238,4.946-5,4.946H6.46c-2.762,0-5-2.215-5-4.946V6.26
	c0-2.731,2.238-4.945,5-4.945h180.667c2.762,0,5,2.214,5,4.945V107.819z"/>
<g>
	<path fill="#FFFFFF" d="M118.144,110.797c0,13.076-21.593,23.677-48.229,23.677s-48.229-10.601-48.229-23.677
		s20.497-29.158,47.133-29.158C95.454,81.639,118.144,97.721,118.144,110.797z"/>
	<path fill="#AFAFAF" d="M60.498,95.186l-15.335,5.158c-0.465,0.156-0.99,0.11-1.406-0.129c-4.675-2.651-8.8-3.297-11.939-1.865
		c-2.868,1.309-4.713,4.419-4.819,8.118c-0.117,4.144,2.043,9.747,8.459,13.034c5.473,2.805,10.057,3.145,13.717,2.375l2.733-0.828
		c1.39-0.558,2.599-1.256,3.629-1.985c7.373-5.223,11.19-16.139,9.3-25.264L60.498,95.186z"/>
	<path fill="#FFFFFF" d="M59.914,138.539c-18.133,0-33.343-5.816-40.651-16.444c-6.727-9.78-6.24-24.613,0.294-34.26
		c5.695-8.403,17.576-11.967,27.395-12.517c0.109-0.005,3.062,0.877,5.303,1.279c1.345,0.243,16.803,5.688,16.104,6.303
		C64.204,86.563,33.991,94.14,33.991,94.14c-0.927,0.146-3.325,1.005-4.124,1.37c-3.419,1.559-6.656,5.368-6.776,9.593
		c-0.128,4.508,1.255,13.136,8.249,16.719c3.785,1.94,10.826,4.111,14.435,4.111c2.02,0,55.768-16.978,71.825-21.791
		c2.337-0.699,72.523,1.681,72.523,1.681l-0.302,2.569l-41.83,29.874C147.991,138.266,60.777,138.539,59.914,138.539z"/>
	<path fill="#C9C9C9" d="M116.436,104.264l-63.351,19.275c-5.832,2.287-12.487,1.721-19.2-1.719
		c-7.571-3.881-10.12-10.51-9.979-15.421c0.133-4.743,2.553-8.645,6.472-10.431c0.832-0.381,1.834-0.709,3.003-0.894l23.178-6.406
		l8.952-2.296c-2.946-4.842-9.917-8.405-16.594-8.953c-12.632-1.038-22.667,4.033-27.69,11.512
		c-6.198,9.229-6.017,22.489,0.409,31.834c7.401,10.763,21.881,16.376,40.79,15.81c8.896-0.268,16.23-0.377,22.268-0.377
		c18.234,0,60.64-0.341,62.709,0.148c5.091-2.527,34.466-24.939,43.598-30.423C191,105.924,122.531,103.955,116.436,104.264z"/>
	<g>
		<g>
			<g>
				<g>
					<path fill="#D3D3D3" d="M60.611,92.264c0.052-0.018,0.104-0.011,0.156-0.024l3.321-1.117c-0.079-0.225-0.144-0.459-0.231-0.681
						c-0.133-0.338-0.282-0.66-0.433-0.984l-3.901,1.173c-0.075,0.033-0.137,0.085-0.218,0.105l-1.66,0.459l-2.051,0.615
						l0.016-0.055l-14.828,4.097c1.243,0.416,2.57,0.977,3.992,1.737L60.611,92.264z"/>
				</g>
			</g>
		</g>
	</g>
	<path fill="#FFFFFF" d="M66.787,89.569c3.272,9.546,1.305,21.869-7.055,29.684c0,0,59.246-18.4,60.179-18.834
		c6.306-2.934,9.46-22.385-1.142-30.74c-9.79-7.72-26.551-2.953-26.551-2.953l-48.408,8.866
		C54.926,75.864,63.779,80.798,66.787,89.569z"/>
	<g>
		<g>
			<g>
				<path fill="#FFFFFF" d="M106.415,131.773c2.755,0,6.071,0.178,10.081,0.037c3.322-0.118,36.436,0.111,40.753,0.012l0.239-2.435
					c-4.332,0.098-37.749-0.13-41.078-0.011c-11.539,0.405-17.33,0.021-19.563-2.169c-1.249-1.225-1.687-3.42-1.614-8.103
					l-2.436-0.038c-0.07,4.61,0.296,7.873,2.344,9.88C97.174,130.939,100.501,131.773,106.415,131.773z"/>
			</g>
		</g>
		<g>
			<path fill="#828181" d="M92.879,122.627c-0.189,0-0.338-0.152-0.333-0.334l0.12-7.4c0.002-0.187,0.158-0.34,0.343-0.339
				l2.214,0.038c0.189,0,0.34,0.163,0.34,0.348l-0.127,7.387c-0.002,0.196-0.16,0.346-0.348,0.346L92.879,122.627z"/>
			<path fill="#A5733D" d="M85.23,70.963c-0.162-0.006-0.625-1.189-0.619-1.36l2.732-5.615c0.006-0.171,1.156-0.289,1.322-0.286
				l12.648,0.212c0.162,0.007,1.317,0.161,1.313,0.327l2.547,5.354c-0.006,0.172-0.504,1.69-0.657,1.683L85.23,70.963z"/>
			<path fill="#C48131" d="M84.06,76.809c-0.194,0.004-0.339-0.176-0.337-0.395l0.087-5.168c0.002-0.215,0.155-0.39,0.341-0.389
				l21.439,0.356c0.184,0.007,0.326,0.182,0.334,0.394l-0.096,5.176c-0.002,0.217-0.151,0.383-0.336,0.378L84.06,76.809z"/>
			<path fill="#A5733D" d="M88.283,81.22c-0.188,0-0.34-0.163-0.338-0.359l-3.023-2.353c0.002-0.195-0.16-1.769,0.025-1.768
				l19.645,0.327c0.194-0.002-0.019,1.221-0.021,1.413l-2.766,2.609c-0.003,0.195-0.156,0.349-0.342,0.349L88.283,81.22z"/>
			<path fill="#F1B974" d="M87.977,115.024c-0.187-0.004-0.331-0.159-0.332-0.35l0.547-33.201c0.004-0.191,0.156-0.338,0.344-0.334
				l12.327,0.201c0.192,0.004,0.338,0.163,0.259,0.09l-0.551,33.196c0.078,0.449-1.195,0.313-1.38,0.311L87.977,115.024z"/>
			<polygon fill="#FFFFFF" points="89.834,86.861 89.871,84.393 99.647,84.557 99.611,87.023 			"/>
			<g>
				<polygon fill="#F1B974" points="83.629,77.141 83.74,70.511 85.16,70.537 85.053,77.17 				"/>
				<polygon fill="#F1B974" points="104.483,77.486 104.592,70.86 106.014,70.878 105.904,77.515 				"/>
				<polygon fill="#F1B974" points="87.592,77.209 87.705,70.577 93.145,70.667 93.039,77.304 				"/>
				
					<rect x="95.953" y="71.366" transform="matrix(-0.0163 0.9999 -0.9999 -0.0163 174.9691 -23.9583)" fill="#F1B974" width="6.634" height="5.443"/>
			</g>
			<g>
				<polygon fill="#F1B974" points="85.322,69.43 87.795,64.625 91.188,64.683 89.066,69.494 				"/>
				<polygon fill="#F1B974" points="104.46,69.746 102.158,64.867 98.762,64.804 100.72,69.688 				"/>
				<polygon fill="#F1B974" points="90.045,69.511 92.102,64.697 97.85,64.792 99.739,69.67 				"/>
			</g>
			<path fill="#5B5B5B" d="M89.973,63.782c-0.192,0.002-0.337-0.183-0.332-0.409l0.01-0.497c-0.002-0.226,0.16-0.411,0.348-0.401
				l10.027,0.165c0.189-0.001,0.338,0.19,0.332,0.411l-0.005,0.502c-0.007,0.227-0.154,0.405-0.346,0.399L89.973,63.782z"/>
			<path fill="#F1B974" d="M99.133,62.602l0.377-22.606c0.004-0.191-0.146-0.354-0.334-0.354l-7.566-0.131
				c-0.191-0.003-0.347,0.155-0.348,0.351l-0.368,22.601L99.133,62.602z"/>
			<path fill="#B5B5B5" d="M95.822,27.761c0,0-0.272-8.874-0.265-9.674c0.019-0.794,2.503-1.474,2.503-1.474l1.519,10.627
				L95.822,27.761z"/>
			<path fill="#5B5B5B" d="M94.918,34.971c0,0,0.151-16.011,0.271-16.601c0.125-0.582,1.124-1.152,1.124-1.152l-0.289,17.773
				L94.918,34.971z"/>
			<path fill="#FFFFFF" d="M98.873,39.629c0-0.034,0.003-0.065,0.006-0.101l0.076-4.39c0.009-0.569-0.282-1.039-0.647-1.044
				L92.662,34c-0.37-0.007-0.67,0.454-0.682,1.018l-0.076,4.395c0.006,0.034,0.006,0.069,0.008,0.103L98.873,39.629z"/>
			<polygon fill="#5B5B5B" points="100.092,33.006 97.578,16.607 98.44,16.479 100.952,32.877 			"/>
			
				<rect x="94.7" y="33.41" transform="matrix(-0.0142 0.9999 -0.9999 -0.0142 133.6703 -57.9916)" fill="#AFAFAF" width="1.444" height="6.973"/>
			<path fill="#526752" d="M97.102,21.564c-0.284-0.004-0.508-0.238-0.502-0.514c0-0.281,0.236-0.506,0.516-0.501
				c0.277,0.006,0.506,0.237,0.5,0.515C97.61,21.347,97.376,21.566,97.102,21.564z"/>
			<path fill="#526752" d="M97.516,26.033c-0.287-0.001-0.507-0.234-0.496-0.519c0.006-0.276,0.229-0.499,0.513-0.494
				c0.281,0.004,0.507,0.237,0.503,0.515C98.027,25.815,97.793,26.035,97.516,26.033z"/>
		</g>
	</g>
	<ellipse fill="#F1B974" cx="113.323" cy="113.889" rx="4.874" ry="0.877"/>
	<ellipse fill="#F1B974" cx="94.077" cy="114.798" rx="6.488" ry="1.048"/>
	<g>
		<g>
			<path fill="#AFAFAF" d="M104.129,55.749c0,0,12.683-3.386,20.02,5.081c4.738,5.466,2.254,21.13,2.254,21.13l-2.852,0.267
				c0,0-0.547-4.296-4.264-3.602c-3.018,0.564-2.305,6.735-2.305,6.735l-5.834,0.187c0,0,0.121-3.67-0.688-3.545
				c-0.929,0.146-4.108-0.627-2.189-4.543c1.918-3.916,2.368-11.755-0.296-16.52C105.249,56.063,104.129,55.749,104.129,55.749z"/>
			<path fill="#C9C9C9" d="M112.238,85.513c-0.006-0.187-0.05-1.708-0.063-1.879c-0.084-1.119-0.535-2.025-0.93-2.421
				c-0.271-0.273-2.045,0.428-2.594-0.947c-0.217-0.541,0.01-1.448,0.533-2.514c2.089-4.265,2.498-12.328-0.294-17.324
				c-0.95-1.703-1.826-3.06-2.587-4.024c0.795-0.116,1.799-0.222,2.934-0.26c4.198-0.135,10.057,0.689,14.117,5.375
				c3.414,3.94,2.773,14.708,2.128,19.472l-1.11,0.103c-0.504-1.638-1.816-3.677-4.458-3.593c-0.266,0.009-0.542,0.039-0.82,0.092
				c-2.793,0.521-3.243,3.875-3.245,5.969c0,0.173,0.037,1.682,0.041,1.833L112.238,85.513z"/>
		</g>
		<path fill="#C48131" d="M119.305,113.173c0,2.967-2.405,5.021-5.371,5.021l0,0c-2.967,0-5.37-2.055-5.37-5.021l2.102-27.553
			c0-0.179,0.935-0.397,3.385-0.374c2.569,0.024,3.152,0.062,3.152,0.374L119.305,113.173z"/>
		<path fill="#E2AF60" d="M113.934,117.143c-2.489,0-4.299-1.65-4.32-3.932l2.047-27.522c0.368-0.046,3.979-0.078,4.545-0.044
			l2.049,27.566C118.232,115.492,116.424,117.143,113.934,117.143z"/>
		<circle fill="#FFFFFF" cx="113.934" cy="90.758" r="0.699"/>
		<circle fill="#FFFFFF" cx="113.934" cy="96.478" r="0.699"/>
		<circle fill="#FFFFFF" cx="113.934" cy="102.258" r="0.699"/>
	</g>
</g>
</svg>
