<?xml version="1.0" encoding="utf-8"?>
<!-- Generator: Adobe Illustrator 16.0.0, SVG Export Plug-In . SVG Version: 6.00 Build 0)  -->
<!DOCTYPE svg PUBLIC "-//W3C//DTD SVG 1.1//EN" "http://www.w3.org/Graphics/SVG/1.1/DTD/svg11.dtd">
<svg version="1.1" id="Layer_1" xmlns="http://www.w3.org/2000/svg" xmlns:xlink="http://www.w3.org/1999/xlink" x="0px" y="0px"
	 width="192px" height="140px" viewBox="0 0 192 140" enable-background="new 0 0 192 140" xml:space="preserve">
<g>
	<g>
		<polygon fill="#E2E2E2" points="147.875,82.22 40.531,100.132 40.531,101.431 147.875,82.806 		"/>
	</g>
	<g>
		<path fill="#EDE9E7" d="M192,107.415c0,2.731-2.238,4.946-5,4.946H6.333c-2.762,0-5-2.215-5-4.946V5.855
			c0-2.731,2.238-4.945,5-4.945H187c2.762,0,5,2.214,5,4.945V107.415z"/>
		<g>
			<path fill="#E1E1E1" d="M147.709,106.724c0,0,0-34.548,0-37.126c-4.189-0.726-3.423-4.537-3.423-4.537
				c3.538-1.476,3.349-4.768,3.259-7.038c-0.133-3.369-4.015-5.62-4.479-5.896c-0.463-0.275-0.034-0.945-0.035-0.945l0.804-0.152
				V49.45h-7.685L27.417,58.617l-0.052,8.908l6.39,1.773l0.111,56.625l-6.5-2.09l0.025,5.412l12.975,5.227L147.709,106.724z"/>
			<path fill="#C9C9C9" d="M36.942,80.314c0,0,107.041-15.165,107.344-15.254c0.671-0.197,1.472-0.873,1.472-0.873L38.491,79.023
				L36.942,80.314z"/>
			<polygon fill="#E1E1E1" points="147.709,106.724 40.365,134.473 40.365,86.514 147.709,69.598 			"/>
			<path fill="#C48131" d="M27.417,58.617l7.99,1.482v2.291l-0.102,0.599c0.001,0-0.148,0.877-0.148,0.877s4.229,1.654,5.028,7.015
				c1.106,7.412-3.243,9.434-3.243,9.434s-0.766,5.391,3.423,6.199c0,2.873,0,47.959,0,47.959l-12.975-5.227l-0.025-5.412
				l4.988,1.528l-0.11-56.628l-4.877-1.209L27.417,58.617z"/>
			<polygon fill="#C9C9C9" points="35.157,63.866 143.066,52.127 143.031,51.182 35.157,62.391 35.305,62.989 			"/>
			<polygon fill="#F7F7F7" points="35.407,60.1 143.835,49.45 143.835,51.029 35.407,62.391 			"/>
			<polygon fill="#FFFFFF" points="147.709,69.598 40.365,86.514 40.365,87.811 147.709,70.183 			"/>
			<g>
				<polygon fill="#FFFFFF" points="35.407,60.1 143.835,49.45 136.15,49.45 27.417,58.617 				"/>
			</g>
		</g>
		<g>
			<polygon fill="#E2E2E2" points="156.975,108.987 51.493,135.682 51.493,92.039 156.975,74.518 			"/>
			<polygon fill="#F9D8B7" points="158.637,109.318 53.154,136.014 53.154,92.371 158.637,74.85 			"/>
			<polygon fill="#D18F46" points="51.493,135.682 53.154,136.014 53.154,92.371 51.493,92.039 			"/>
			<polygon fill="#F9D8B7" points="53.154,101.799 53.154,92.371 158.637,74.85 158.637,83.197 			"/>
			<polygon fill="#D18F46" points="48.686,92.322 56.245,92.682 56.245,94.205 57.82,94.205 57.82,91.714 48.686,90.883 			"/>
			<g>
				<polygon fill="#DB9B5A" points="160.657,74.58 57.654,91.797 57.654,94.205 160.657,76.711 				"/>
			</g>
			<g>
				<polygon fill="#F9D8B7" points="153.156,73.912 160.629,74.592 57.82,91.714 48.602,90.869 				"/>
			</g>
			<polygon fill="#F1B974" points="158.637,105 53.154,130.034 53.154,101.008 158.637,82.157 			"/>
		</g>
		<path fill="#E2E2E2" d="M168.102,112.188l-95.798,27.164c0,0-5.348,0.156-5.35-2.084c-0.011-9.773-0.037-36.117,0.004-37.552
			c0.05-1.765-1.554-1.604-1.554-1.604l95.798-17.993c0,0,1.545-0.006,1.576,1.439c0.023,1.192,0.008,21.517,0.002,28.862
			C162.777,111.989,168.102,112.188,168.102,112.188z"/>
	</g>
	<path fill="#FFFFFF" d="M162.779,81.814c-0.001-0.117-0.002-0.206-0.002-0.256c-0.031-1.445-1.576-1.439-1.576-1.439L65.552,98.086
		l0.012,0.023c0.404,0.014,1.435,0.186,1.394,1.606c-0.001,0.05-0.003,0.134-0.004,0.241L162.779,81.814z"/>
	<path fill="#F4F4F4" d="M163.318,111.197l-0.197-0.273l-96.113,26.342l-0.054,0.017c0.026,2.225,5.349,2.069,5.349,2.069
		l95.798-27.164C168.102,112.188,163.785,111.876,163.318,111.197z"/>
	<path fill="#FFFFFF" d="M69.492,139.123c1.381,0.27,2.811,0.229,2.811,0.229l95.798-27.164c0,0-0.939-0.035-2.027-0.191
		L69.492,139.123z"/>
	<path fill="#AFAFAF" d="M72.303,139.352c0,0-5.348,0.156-5.35-2.084c-0.011-9.773-0.037-36.117,0.004-37.552
		c0.05-1.765-1.554-1.604-1.554-1.604l-0.03-0.005l0.087,0.647c0.007-0.001,0.022-0.001,0.044-0.001
		c0.095,0,0.417,0.016,0.607,0.211c0.142,0.146,0.208,0.393,0.199,0.733c-0.041,1.416-0.017,26.745-0.004,37.569
		c0.002,2.466,4.04,2.732,5.775,2.732c0.153,0,0.24-0.003,0.24-0.003l0.076-0.001l95.871-27.185l-0.07-0.618L72.303,139.352z"/>
	<path fill="#EFEFEF" d="M162.364,80.555l-95.558,18.3c0.101,0.218,0.162,0.499,0.151,0.861c-0.001,0.05-0.003,0.134-0.004,0.241
		l95.826-18.143c-0.001-0.117-0.002-0.206-0.002-0.256C162.767,81.084,162.592,80.768,162.364,80.555z"/>
	<polygon fill="#C9C9C9" points="72.519,139.961 168.27,112.812 168.199,112.193 72.519,139.29 	"/>
	<path fill="#EFEFEF" d="M164.339,111.654c-0.466-0.128-0.709-0.259-1.021-0.457l-0.197-0.273l-96.113,26.342l-0.054,0.017
		c0.005,0.364,0.479,0.92,0.72,1.167C67.917,138.697,164.485,111.694,164.339,111.654z"/>
</g>
</svg>
