<?xml version="1.0" encoding="utf-8"?>
<!-- Generator: Adobe Illustrator 16.0.0, SVG Export Plug-In . SVG Version: 6.00 Build 0)  -->
<!DOCTYPE svg PUBLIC "-//W3C//DTD SVG 1.1//EN" "http://www.w3.org/Graphics/SVG/1.1/DTD/svg11.dtd">
<svg version="1.1" id="Layer_1" xmlns="http://www.w3.org/2000/svg" xmlns:xlink="http://www.w3.org/1999/xlink" x="0px" y="0px"
	 width="52px" height="48px" viewBox="0 0 52 48" enable-background="new 0 0 52 48" xml:space="preserve">
<path fill-rule="evenodd" clip-rule="evenodd" fill="none" stroke="#EDB056" stroke-width="1.5" stroke-linecap="round" stroke-linejoin="round" stroke-miterlimit="10" d="
	M2.417,13.251c9.251,0,19.587,0,28.836,0c0.057,0.009,0.111,0.021,0.168,0.027c0.496,0.06,0.955,0.188,1.334,0.452
	c0.621,0.432,0.863,0.996,0.865,1.62c0.006,5.358,0.002,10.717,0.002,16.076c0,0.048,0,0.094,0,0.149c-5.258,0-10.5,0-15.737,0
	c-0.63-2.806-3.22-4.533-6.095-4.533c-2.746-0.099-5.083,2-6.037,4.537c-0.772,0-3.337-0.008-3.337-0.008s0-2.911,0-2.972
	c0-5.054-0.001-10.109,0-15.162C2.417,13.375,2.417,13.313,2.417,13.251z"/>
<path fill-rule="evenodd" clip-rule="evenodd" fill="none" stroke="#EDB056" stroke-width="1.5" stroke-linecap="round" stroke-linejoin="round" stroke-miterlimit="10" d="
	M50.582,32.063c-0.152,0.524-0.541,0.677-1.039,0.67c-0.52-0.007-1.621-0.029-2.141-0.02c-0.168,0.004-0.074-0.077-0.127-0.255
	c-0.771-2.571-1.951-4.552-4.58-5.088c-2.223-0.454-4.408,0.086-6.061,1.648c-0.043,0.042-0.15,0.129-0.172,0.132
	c0-4.873,0-9.23,0-14.125c0.086,0,0.285,0,0.363,0c2.68,0,5.359,0.003,8.039-0.003c0.805-0.001,1.461,0.337,1.918,0.958
	c1.195,1.625,2.258,3.335,3.059,5.194c0.336,0.782,0.613,1.585,0.711,2.438c0.006,0.041,0.02,0.081,0.029,0.121
	C50.582,26.51,50.582,29.286,50.582,32.063z M36.489,20.416l12.917-0.042"/>
<path fill-rule="evenodd" clip-rule="evenodd" fill="none" stroke="#EDB056" stroke-width="1.5" stroke-linecap="round" stroke-linejoin="round" stroke-miterlimit="10" d="
	M15.772,33.328c0.006,2.2-1.827,3.974-4.021,3.928c-2.135-0.045-3.876-1.81-3.857-3.978c0.019-2.138,1.792-3.904,3.944-3.894
	C14.025,29.395,15.772,31.145,15.772,33.328z"/>
<path fill-rule="evenodd" clip-rule="evenodd" fill="none" stroke="#EDB056" stroke-width="1.5" stroke-linecap="round" stroke-linejoin="round" stroke-miterlimit="10" d="
	M41.094,37.253c-2.197,0-3.934-1.759-3.932-3.985c0-2.125,1.779-3.879,3.939-3.883c2.186-0.004,3.941,1.764,3.939,3.969
	C45.039,35.505,43.27,37.253,41.094,37.253z"/>
</svg>
