<?xml version="1.0" encoding="utf-8"?>
<!-- Generator: Adobe Illustrator 16.0.0, SVG Export Plug-In . SVG Version: 6.00 Build 0)  -->
<!DOCTYPE svg PUBLIC "-//W3C//DTD SVG 1.1//EN" "http://www.w3.org/Graphics/SVG/1.1/DTD/svg11.dtd">
<svg version="1.1" id="Layer_1" xmlns="http://www.w3.org/2000/svg" xmlns:xlink="http://www.w3.org/1999/xlink" x="0px" y="0px"
	 width="36px" height="28px" viewBox="0 0 36 28" enable-background="new 0 0 36 28" xml:space="preserve">
<g>
	<path fill-rule="evenodd" clip-rule="evenodd" fill="#E6E5E5" d="M6.237,27.856l2.307-6.407c0.039-0.109,0.032-0.179-0.028-0.276
		C7.335,19.296,6.628,17.32,6.414,15.3C6.122,12.555,6.61,9.954,7.863,7.566c1.992-3.794,5.021-6.193,9.002-7.13
		C18.095,0.147,19.306,0,20.464,0c3.794,0,7.173,1.554,10.045,4.618c1.94,2.072,3.103,4.605,3.456,7.53
		c0.437,3.635-0.423,6.961-2.556,9.887c-1.989,2.728-4.674,4.521-7.979,5.331c-1.048,0.258-2.101,0.388-3.13,0.388
		c-1.892,0-3.773-0.439-5.591-1.308c-0.138-0.065-0.274-0.135-0.412-0.204c-0.165-0.084-0.33-0.167-0.498-0.245
		c-0.047-0.021-0.104-0.035-0.155-0.035c-2.285,0.631-4.514,1.259-6.743,1.887l-0.32,0.091l-0.337,0.078L6.237,27.856z
		 M13.711,23.538c0.126,0,0.248,0.038,0.379,0.117c1.978,1.189,4.023,1.793,6.08,1.793c1.48,0,2.995-0.313,4.503-0.933
		c2.956-1.214,5.058-3.351,6.246-6.352c1.295-3.267,1.148-6.467-0.433-9.514c-1.949-3.76-5.067-5.865-9.268-6.254
		c-0.409-0.038-0.812-0.057-1.207-0.057c-3.186,0-5.939,1.214-8.185,3.61c-2.773,2.957-3.731,6.525-2.849,10.604
		c0.324,1.493,0.989,2.899,2.034,4.299c0.104,0.138,0.123,0.265,0.064,0.422c-0.237,0.653-1.192,3.318-1.192,3.318l0.924-0.259
		c0.893-0.251,1.787-0.502,2.676-0.76C13.567,23.55,13.64,23.538,13.711,23.538z"/>
	<path fill-rule="evenodd" clip-rule="evenodd" fill="#E6E5E5" d="M12.791,10.204c-0.009-1.282,0.447-2.377,1.326-3.301
		c0.278-0.292,0.612-0.453,1.023-0.439c0.212,0.008,0.427,0.02,0.639,0.011c0.318-0.014,0.534,0.135,0.657,0.409
		c0.15,0.336,0.282,0.684,0.417,1.028c0.29,0.743,0.576,1.485,0.865,2.227c0.089,0.229,0.073,0.444-0.023,0.673
		c-0.214,0.501-0.563,0.903-0.909,1.309c-0.278,0.327-0.306,0.484-0.095,0.863c0.97,1.749,2.262,3.187,4.037,4.155
		c0.317,0.176,0.648,0.328,0.978,0.482c0.312,0.146,0.502,0.101,0.708-0.17c0.379-0.492,0.755-0.985,1.119-1.487
		c0.239-0.331,0.403-0.404,0.783-0.239c0.396,0.174,0.781,0.372,1.167,0.57c0.58,0.297,1.15,0.611,1.734,0.901
		c0.3,0.148,0.421,0.362,0.405,0.688c-0.026,0.526-0.107,1.039-0.301,1.527c-0.216,0.55-0.663,0.9-1.13,1.227
		c-1.027,0.715-2.161,0.825-3.328,0.495c-1.186-0.334-2.322-0.81-3.378-1.453c-1.194-0.729-2.227-1.65-3.157-2.688
		c-1.094-1.219-2.056-2.533-2.807-3.993C13.074,12.125,12.798,11.197,12.791,10.204z"/>
</g>
</svg>
