<?xml version="1.0" encoding="utf-8"?>
<!-- Generator: Adobe Illustrator 16.0.0, SVG Export Plug-In . SVG Version: 6.00 Build 0)  -->
<!DOCTYPE svg PUBLIC "-//W3C//DTD SVG 1.1//EN" "http://www.w3.org/Graphics/SVG/1.1/DTD/svg11.dtd">
<svg version="1.1" id="Layer_1" xmlns="http://www.w3.org/2000/svg" xmlns:xlink="http://www.w3.org/1999/xlink" x="0px" y="0px"
	 width="24px" height="24px" viewBox="0 0 24 24" enable-background="new 0 0 24 24" xml:space="preserve">
<path fill="#FFFFFF" d="M9.137,17.197c-0.593,0.605-1.193,1.199-1.793,1.797c-1.275,1.275-2.557,2.552-3.83,3.83
	c-0.211,0.212-0.455,0.332-0.756,0.335C2,23.168,1.236,22.555,1.046,21.779c-0.106-0.426-0.04-0.809,0.284-1.133
	c1.834-1.828,3.66-3.66,5.49-5.49c0.199-0.2,0.633-0.584,0.608-0.621c-0.617-0.905-1.05-1.875-1.289-2.933
	C5.89,10.497,5.865,9.386,6.056,8.269C6.25,7.156,6.65,6.125,7.255,5.173c0.608-0.956,1.378-1.762,2.308-2.412
	c3.419-2.393,8.065-1.942,10.98,1.063c2.876,2.965,3.193,7.642,0.734,10.941c-1.248,1.674-2.889,2.777-4.926,3.24
	c-2.437,0.553-4.689,0.092-6.736-1.271C9.592,16.721,9.285,17.048,9.137,17.197z M14.436,15.15c2.984-0.006,5.41-2.434,5.414-5.418
	c0.004-3.001-2.438-5.428-5.453-5.42c-2.972,0.007-5.397,2.445-5.391,5.422C9.013,12.725,11.45,15.157,14.436,15.15z"/>
</svg>
