<?xml version="1.0" encoding="utf-8"?>
<!-- Generator: Adobe Illustrator 16.0.0, SVG Export Plug-In . SVG Version: 6.00 Build 0)  -->
<!DOCTYPE svg PUBLIC "-//W3C//DTD SVG 1.1//EN" "http://www.w3.org/Graphics/SVG/1.1/DTD/svg11.dtd">
<svg version="1.1" id="Layer_1" xmlns="http://www.w3.org/2000/svg" xmlns:xlink="http://www.w3.org/1999/xlink" x="0px" y="0px"
	 width="36px" height="28px" viewBox="0 0 36 28" enable-background="new 0 0 36 28" xml:space="preserve">
<path fill="#edb056" d="M24.727,5.18c-1.266,0-2.63,0-3.273,0c-0.653,0-1.306,0.672-1.306,1.167c0,0.505,0,3.344,0,3.344
	s4.045,0,4.569,0c-0.188,2.561-0.563,4.906-0.563,4.906h-4.035V28h-6.015V14.608h-2.928V9.72h2.928c0,0,0-3.264,0-3.996
	s-0.149-5.618,6.172-5.628c0.84,0,2.761,0,4.451,0C24.727,2.213,24.727,4.518,24.727,5.18z"/>
</svg>
