<?xml version="1.0" encoding="utf-8"?>
<!-- Generator: Adobe Illustrator 16.0.0, SVG Export Plug-In . SVG Version: 6.00 Build 0)  -->
<!DOCTYPE svg PUBLIC "-//W3C//DTD SVG 1.1//EN" "http://www.w3.org/Graphics/SVG/1.1/DTD/svg11.dtd">
<svg version="1.1" id="Layer_1" xmlns="http://www.w3.org/2000/svg" xmlns:xlink="http://www.w3.org/1999/xlink" x="0px" y="0px"
	 width="36px" height="28px" viewBox="0 0 36 28" enable-background="new 0 0 36 28" xml:space="preserve">
<g>
	<path fill="#E8E8E8" d="M20.109,14.011h2.359c0.294-0.652,0.473-1.341,0.537-2.054h-2.688
		C20.291,12.667,20.224,13.355,20.109,14.011z"/>
	<path fill="#E8E8E8" d="M18.913,17.474c1.126-0.461,2.102-1.222,2.83-2.212h-1.911C19.594,16.115,19.285,16.864,18.913,17.474z"/>
	<path fill="#E8E8E8" d="M20.317,10.697h2.688c-0.064-0.713-0.243-1.401-0.537-2.05h-2.359C20.224,9.3,20.291,9.988,20.317,10.697z"
		/>
	<path fill="#E8E8E8" d="M13.732,11.957c0.031,0.707,0.109,1.397,0.232,2.054h4.862c0.126-0.659,0.202-1.347,0.232-2.054H13.732z"/>
	<path fill="#E8E8E8" d="M11.049,15.264c0.726,0.988,1.7,1.749,2.826,2.212c-0.372-0.611-0.68-1.358-0.917-2.212H11.049z"/>
	<path fill="#E8E8E8" d="M21.745,7.393c-0.73-0.989-1.706-1.75-2.828-2.21c0.368,0.607,0.679,1.356,0.913,2.21H21.745z"/>
	<path fill="#E8E8E8" d="M16.396,17.979c0.789,0,1.603-1.056,2.122-2.715h-4.245C14.794,16.923,15.607,17.979,16.396,17.979z"/>
	<path fill="#E8E8E8" d="M27.825,23.053V0c0,0-15.882,0-19.321,0C5.063,0,4.49,3.388,4.49,3.388v21.17c0,0,0,3.388,2.581,3.388
		c2.58,0,20.754,0,20.754,0v-2.442h-0.659v-2.451H27.825z M9.325,7.805l0.026-0.057c1.368-2.669,4.064-4.323,7.043-4.323
		c2.976,0,5.672,1.654,7.034,4.312l0.038,0.08c0.546,1.069,0.829,2.266,0.829,3.512c0,1.245-0.283,2.443-0.848,3.56
		c-1.382,2.692-4.076,4.343-7.052,4.343c-2.979,0-5.677-1.652-7.039-4.313l-0.036-0.091c-0.542-1.049-0.829-2.246-0.829-3.5
		C8.492,10.089,8.772,8.904,9.325,7.805z M24.628,25.502H9.212c0,0-1.804,0.205-1.804-1.247c0-1.227,1.804-1.202,1.804-1.202h15.416
		V25.502z"/>
	<path fill="#E8E8E8" d="M12.682,8.647H10.32c-0.29,0.651-0.468,1.341-0.538,2.05h2.691C12.5,9.994,12.568,9.308,12.682,8.647z"/>
	<path fill="#E8E8E8" d="M16.396,4.68c-0.789,0-1.603,1.051-2.123,2.715h4.245C17.999,5.733,17.185,4.68,16.396,4.68z"/>
	<path fill="#E8E8E8" d="M12.682,14.009c-0.113-0.663-0.182-1.351-0.208-2.052H9.782c0.07,0.711,0.248,1.401,0.538,2.052H12.682z"/>
	<path fill="#E8E8E8" d="M13.875,5.183c-1.126,0.46-2.1,1.221-2.828,2.21h1.912C13.197,6.538,13.506,5.791,13.875,5.183z"/>
	<path fill="#E8E8E8" d="M19.06,10.697c-0.03-0.703-0.106-1.391-0.232-2.05h-4.862c-0.124,0.655-0.204,1.343-0.232,2.05H19.06z"/>
</g>
</svg>
