<?xml version="1.0" encoding="utf-8"?>
<!-- Generator: Adobe Illustrator 16.0.0, SVG Export Plug-In . SVG Version: 6.00 Build 0)  -->
<!DOCTYPE svg PUBLIC "-//W3C//DTD SVG 1.1//EN" "http://www.w3.org/Graphics/SVG/1.1/DTD/svg11.dtd">
<svg version="1.1" id="Layer_1" xmlns="http://www.w3.org/2000/svg" xmlns:xlink="http://www.w3.org/1999/xlink" x="0px" y="0px"
	 width="280px" height="106px" viewBox="0 0 280 106" enable-background="new 0 0 280 106" xml:space="preserve">
<g>
	<line fill="none" stroke="#5A5456" stroke-miterlimit="10" x1="18.468" y1="60.134" x2="67.301" y2="60.134"/>
	<line fill="none" stroke="#5A5456" stroke-miterlimit="10" x1="11.932" y1="66.33" x2="50.119" y2="66.33"/>
	<line fill="none" stroke="#5A5456" stroke-miterlimit="10" x1="29.417" y1="72.288" x2="58.75" y2="72.288"/>
	<line fill="none" stroke="#5A5456" stroke-miterlimit="10" x1="211.027" y1="60.134" x2="260.609" y2="60.134"/>
	<line fill="none" stroke="#5A5456" stroke-miterlimit="10" x1="228.451" y1="66.163" x2="267.139" y2="66.163"/>
	<line fill="none" stroke="#5A5456" stroke-miterlimit="10" x1="220.267" y1="72.288" x2="248.6" y2="72.288"/>
</g>
<path fill="#E2A459" d="M129.688,104.9c-1.6-0.034-2.909-0.889-3.588-2.343c-0.722-1.541-0.546-3.029,0.508-4.305
	c0.559-0.676,1.1-1.368,1.64-2.06l0.813-1.036c0.79-0.998,1.967-1.571,3.231-1.571c0.824,0,1.612,0.249,2.279,0.719
	c1.867,1.309,2.398,3.809,1.185,5.572c-0.925,1.347-1.982,2.589-3.074,3.849c-0.662,0.766-1.637,1.149-2.98,1.175H129.688z
	 M132.291,94.82c-0.883,0-1.708,0.402-2.264,1.104l-0.807,1.028c-0.547,0.7-1.096,1.401-1.663,2.088
	c-0.749,0.906-0.86,1.886-0.34,2.994c0.492,1.055,1.321,1.604,2.466,1.632c1.001-0.02,1.638-0.251,2.068-0.749
	c1.068-1.233,2.101-2.447,2.99-3.739c0.83-1.21,0.436-2.943-0.877-3.865C133.404,94.99,132.86,94.82,132.291,94.82z
	 M147.443,104.205c-2.606-0.07-4.813-0.772-7.147-1.516c-0.529-0.169-1.044-0.333-1.573-0.494c-0.287-0.086-0.572-0.181-0.865-0.277
	l-1.361-0.453l0.669-1.066l0.785,0.25c0.443,0.148,0.784,0.264,1.13,0.367c0.539,0.164,1.063,0.33,1.58,0.496
	c2.25,0.717,4.375,1.395,6.812,1.461c0.877,0,2.682-0.497,3.008-1.311c0.07-0.177,0.134-0.524-0.231-0.873
	c-0.406-0.389-3.136-1.812-7.584-4.108c-3.693-1.908-8.643-4.467-8.922-4.848c-0.191-0.45-0.033-1.065,0.103-1.313l4.336,2.368
	c5.235,2.861,11.51,6.287,11.663,6.363c1.836,0.896,1.89,1.139,1.844,1.651c-0.16,1.788-2.062,3.301-4.15,3.304L147.443,104.205z
	 M121.128,100.732c-0.954,0-1.901-0.304-2.738-0.877c-1.624-1.116-1.979-3.562-0.776-5.341c0.682-1.011,1.45-1.978,2.192-2.911
	l0.71-0.895c1.428-1.813,2.865-3.617,4.314-5.41c0.782-0.972,1.942-1.529,3.181-1.529c0.711,0,1.418,0.189,2.044,0.546
	c1.159,0.661,2.591,2.336,2.147,3.988c-0.336,1.25-0.491,1.49-0.889,2.002l-0.098,0.128c-1.23,1.601-2.492,3.177-3.754,4.752
	c-0.604,0.754-1.209,1.51-1.811,2.268c-0.186,0.233-0.363,0.475-0.54,0.715l-0.072,0.097c-0.278,0.38-0.496,0.678-0.725,0.964
	C123.557,100.185,122.396,100.732,121.128,100.732z M127.999,84.996c-0.853,0-1.658,0.392-2.209,1.076
	c-1.446,1.791-2.879,3.592-4.305,5.399l-0.631,0.796c-0.714,0.896-1.524,1.91-2.221,2.938c-0.803,1.188-0.586,2.919,0.455,3.632
	c0.636,0.438,1.344,0.668,2.047,0.668c0.893,0,1.679-0.37,2.214-1.043c0.229-0.288,0.446-0.583,0.662-0.879
	c0.242-0.33,0.452-0.616,0.674-0.896c0.554-0.699,1.112-1.396,1.671-2.093l0.248-0.309c1.222-1.526,2.443-3.052,3.633-4.603
	l0.104-0.134c0.311-0.401,0.395-0.535,0.672-1.566c0.245-0.912-0.749-2.127-1.568-2.598
	C128.994,85.131,128.495,84.996,127.999,84.996z M154.144,100.291c-0.491,0-0.833-0.098-0.914-0.26
	c-0.018-0.033-0.054-0.115-0.035-0.152c0.089-0.178,0.825-0.31,1.312-0.396c0.43-0.078,0.852-0.154,1.247-0.273
	c2.033-0.608,2.614-1.716,2.874-2.496c0.358-1.075-0.953-1.563-1.821-1.887c-0.213-0.08-0.366-0.138-0.5-0.195
	c-6.311-2.733-17.997-9.133-18.902-9.7l-0.27-0.17c-0.657-0.41-0.972-1.089-0.856-1.831c0.192,0.064,0.659,0.254,1.493,0.776
	l0.287,0.18c0.964,0.605,13.385,7.389,19.355,9.875c0.229,0.095,0.455,0.182,0.672,0.266c0.405,0.155,0.697,0.269,0.939,0.383
	c0.587,0.276,0.861,0.785,0.918,1.138c0.288,1.841-0.591,3.222-2.612,4.105C157.044,99.779,155.324,100.291,154.144,100.291z
	 M113.131,95.398c-2.16-0.067-3.167-1.169-3.629-2.082c-0.782-1.54-0.624-3.158,0.445-4.557c0.754-0.985,1.532-1.953,2.311-2.922
	l2.286-2.859c1.44-1.807,2.881-3.613,4.327-5.416c0.301-0.374,0.638-0.721,1.001-1.029c0.832-0.701,1.778-1.072,2.737-1.072
	c0.689,0,1.34,0.189,1.935,0.563c1.568,0.979,2.306,2.878,1.793,4.615c-0.241,0.811-0.64,1.598-1.125,2.217
	c-1.974,2.523-3.971,5.028-5.969,7.535l-2.738,3.437c-0.815,1.025-1.914,1.539-3.359,1.57H113.131z M122.609,76.697
	c-0.666,0-1.337,0.27-1.94,0.779c-0.299,0.252-0.581,0.542-0.838,0.861c-1.444,1.797-2.881,3.601-4.318,5.403l-2.295,2.872
	c-0.779,0.967-1.548,1.923-2.292,2.896c-0.798,1.043-0.904,2.105-0.326,3.248c0.292,0.576,0.871,1.348,2.525,1.408
	c1.087-0.027,1.83-0.368,2.415-1.104l2.739-3.437c1.996-2.504,3.991-5.006,5.962-7.529c0.392-0.5,0.716-1.142,0.913-1.807
	c0.357-1.208-0.162-2.532-1.262-3.221C123.496,76.822,123.064,76.697,122.609,76.697z M161.246,93.768
	c-0.232,0-0.633-0.036-0.712-0.271c-0.016-0.049-0.039-0.136-0.019-0.177c0.051-0.096,0.383-0.19,0.676-0.273
	c0.562-0.161,1.321-0.378,2.021-0.976c0.703-0.598,1.37-1.739,1.222-2.68c-0.063-0.395-0.297-0.931-1.061-1.245
	c-0.462-0.192-7.134-3.703-10.462-5.563c-4.764-2.661-9.55-5.38-10.229-5.782l-0.319-0.189c-0.825-0.491-1.122-0.924-0.962-1.404
	c0.009-0.026,0.029-0.088,0.231-0.088c0.413,0,1.079,0.287,1.374,0.438l0.308,0.183c1.325,0.788,20.018,11.073,20.409,11.229
	c0.113,0.046,2.768,1.136,2.051,3.284c-0.278,0.828-0.713,1.789-1.829,2.637C163.401,93.305,162.131,93.768,161.246,93.768z
	 M107.67,87.184c-0.972,0-1.931-0.362-2.702-1.02c-1.71-1.458-1.892-4.039-0.414-5.875c0.287-0.354,0.975-1.221,0.975-1.221
	l0.196-0.249c0.766-0.97,1.635-2.069,2.539-3.123c0.787-0.915,1.921-1.44,3.11-1.44c0.182,0,0.366,0.012,0.549,0.036
	c1.385,0.188,2.57,1.06,3.172,2.333l0.065,0.126c0.278,0.53,1.015,1.939-0.407,4.011c-1.163,1.694-2.205,2.918-3.308,4.213
	l-0.574,0.674c-0.754,0.892-1.775,1.432-2.875,1.521C107.888,87.18,107.778,87.184,107.67,87.184z M111.367,75.488
	c-0.838,0-1.608,0.359-2.168,1.013c-0.868,1.01-1.73,2.102-2.491,3.064c-0.428,0.539-0.809,1.021-1.194,1.499
	c-1.075,1.332-0.966,3.121,0.252,4.162c0.55,0.468,1.224,0.725,1.898,0.725c0.077,0,0.155-0.004,0.232-0.01
	c0.771-0.063,1.492-0.45,2.033-1.09l0.557-0.654c1.09-1.278,2.119-2.486,3.25-4.133c1.004-1.464,0.599-2.23,0.331-2.738
	l-0.089-0.181c-0.428-0.902-1.237-1.498-2.219-1.631C111.627,75.498,111.496,75.488,111.367,75.488z M166.842,87.051
	c-0.249,0-0.297-0.11-0.322-0.169c-0.136-0.316,0.11-0.621,0.822-1.02c0.072-0.039,0.121-0.066,0.152-0.089
	c1.334-0.884,2.149-2.097,2.182-3.243c0.021-0.759-0.299-1.406-0.924-1.874c-2.307-1.723-6.326-4.372-10.581-7.178l-0.156-0.103
	c-5.839-3.85-12.456-8.213-15.491-10.765l-4.515-2.96l1.748-0.438l3.325,2.291c2.151,1.721,7.046,4.95,12.228,8.369
	c5.838,3.851,11.875,7.832,14.249,9.849c1.42,1.183,1.835,2.514,1.271,4.071c-0.097,0.269-1.18,2.23-3.126,3.031
	C167.342,86.975,167.052,87.051,166.842,87.051z M169.654,77.635l1.025-0.53c2.42-1.263,4.546-2.978,6.32-5.099l0.276-0.331
	l0.551,1.263c-1.856,2.184-4.069,3.953-6.576,5.259l-0.626,0.327L169.654,77.635z M104.195,76.242l-0.245-0.264
	c-0.532-0.577-1.059-1.149-1.578-1.726l-0.478-0.529l0.653-1.341l0.719,1.017c0.585,0.652,1.158,1.272,1.737,1.9l0.533,0.666
	l-0.754,0.979L104.195,76.242z M99.396,73.578c-0.107,0-0.214-0.03-0.31-0.086l-6.625-3.934c-1.216-0.725-2.428-1.445-3.644-2.16
	c-0.616-0.362-0.807-0.85-0.582-1.49c1.354-3.876,2.622-7.01,3.988-9.861l0.265-0.556l1.113,0.532l-0.268,0.556
	c-1.323,2.766-2.546,5.783-3.851,9.497l-0.082,0.231l9.774,5.803l0.148-0.278c0.066-0.124,0.127-0.252,0.18-0.38
	c0.321-0.796,0.633-1.598,0.942-2.398c0.542-1.397,1.075-2.771,1.647-4.084c2.664-6.138,5.757-11.088,9.455-15.133
	c0.66-0.722,1.361-1.362,2.104-2.039l0.468-0.431l-2.595-1.555c-2.364-1.405-4.728-2.811-7.089-4.223l-0.19-0.114l-0.165,0.149
	c-0.972,0.883-1.861,1.769-2.717,2.71l-0.416,0.457l-0.912-0.831l0.415-0.456c0.929-1.019,1.909-1.993,2.912-2.896
	c0.289-0.26,0.582-0.392,0.87-0.392c0.206,0,0.42,0.066,0.639,0.198c1.833,1.096,6.265,3.733,6.265,3.733l3.903,2.32
	c0.06,0.036,0.116,0.078,0.232,0.175l0.213,0.177c0.141,0.114,0.225,0.28,0.23,0.457c0.007,0.179-0.063,0.35-0.192,0.472
	c-0.328,0.31-0.656,0.61-0.98,0.906c-0.778,0.71-1.461,1.333-2.083,2.015c-3.603,3.94-6.623,8.779-9.235,14.792
	c-0.573,1.32-1.116,2.718-1.594,3.951c-0.347,0.896-0.659,1.701-0.983,2.501c-0.129,0.323-0.297,0.619-0.46,0.906
	c-0.096,0.168-0.168,0.297-0.241,0.431c-0.079,0.15-0.217,0.262-0.377,0.307c-0.056,0.015-0.113,0.022-0.167,0.022H99.396z
	 M180.584,73.232c-0.081,0-0.157-0.016-0.228-0.047c-0.164-0.067-0.29-0.2-0.348-0.365c-0.304-0.867-0.614-1.729-0.933-2.586
	l-0.215-0.578l1.154-0.43l0.215,0.576c0.198,0.528,0.392,1.058,0.582,1.59l0.123,0.343l3.343-1.986
	c2.096-1.245,4.19-2.489,6.291-3.726l0.213-0.126l-0.082-0.231c-0.286-0.816-0.565-1.585-0.851-2.352l-0.216-0.578l1.155-0.43
	l0.215,0.578c0.322,0.86,0.635,1.726,0.939,2.594c0.229,0.649,0.063,1.129-0.505,1.465c-2.409,1.418-4.813,2.846-7.217,4.273
	l-2.963,1.76c-0.067,0.04-0.135,0.071-0.226,0.114l-0.174,0.08c-0.083,0.04-0.175,0.062-0.269,0.062H180.584z M122.709,68.113
	c-0.911,0-1.76-0.36-2.457-1.04c-1.193-1.167-1.489-2.732-0.812-4.295c0.42-0.974,1.089-2.402,2.055-3.567
	c2.011-2.427,4.127-4.719,6.173-6.935c1.087-1.176,2.548-1.997,4.342-2.44c4.039-0.996,8.123-1.232,11.934-1.338
	c0.285-0.009,0.571-0.013,0.858-0.013c2.776,0,5.703,0.385,8.948,1.176c1.829,0.447,3.669,0.664,5.626,0.664
	c1.567,0,3.225-0.147,4.924-0.437l0.713-0.122l0.75,1.109l-1.258,0.228c-1.771,0.303-3.498,0.457-5.135,0.457
	c-2.05,0-3.983-0.229-5.912-0.7c-3.145-0.768-5.982-1.141-8.673-1.141c-0.271,0-0.541,0.003-0.81,0.011
	c-3.745,0.106-7.75,0.337-11.67,1.303c-1.58,0.391-2.8,1.072-3.731,2.082c-2.041,2.21-4.15,4.497-6.13,6.884
	c-0.863,1.041-1.481,2.364-1.872,3.269c-0.477,1.101-0.29,2.111,0.542,2.924c0.471,0.462,1.007,0.696,1.591,0.696
	c0.397,0,0.826-0.11,1.274-0.328c1.135-0.552,2.034-1.119,2.748-1.732c1.343-1.149,2.643-2.386,3.9-3.581l1.151-1.093
	c2.106-1.988,4.363-3.148,6.9-3.548c0.197-0.031,0.416-0.057,0.652-0.057c0.479,0,0.913,0.107,1.326,0.326l-0.116,1.368
	l-0.368-0.225c-0.269-0.163-0.529-0.235-0.845-0.235c-0.137,0-0.288,0.013-0.459,0.041c-2.28,0.358-4.323,1.414-6.245,3.227
	l-1.087,1.03c-1.287,1.226-2.617,2.492-4.006,3.682c-0.793,0.682-1.779,1.305-3.012,1.906
	C123.913,67.963,123.304,68.113,122.709,68.113z M177.917,67.257c-0.239-0.586-0.484-1.169-0.734-1.748l-0.245-0.564l1.131-0.49
	l0.245,0.564c0.255,0.587,0.503,1.178,0.744,1.772l0.232,0.572l-1.142,0.464L177.917,67.257z M175.62,62.128
	c-2.998-6.075-6.547-10.947-10.85-14.893c-0.139-0.127-0.211-0.31-0.198-0.5c0.014-0.188,0.111-0.357,0.268-0.464l0.186-0.129
	c0.135-0.095,0.249-0.175,0.368-0.246l2.732-1.622c2.379-1.411,4.758-2.822,7.129-4.247c0.243-0.147,0.48-0.222,0.706-0.222
	c0.445,0,0.763,0.29,0.898,0.413c2.945,2.667,5.489,5.724,7.778,9.348l0.329,0.521l-1.042,0.659l-0.331-0.521
	c-2.208-3.496-4.655-6.447-7.483-9.021l-0.165-0.151l-0.191,0.114c-2.352,1.41-4.675,2.789-6.999,4.168l-2.574,1.529l0.283,0.272
	c4.033,3.902,7.39,8.628,10.262,14.447l0.273,0.552l-1.106,0.546L175.62,62.128z M188.313,59.434
	c-0.655-1.555-1.307-2.978-1.991-4.349l-0.275-0.552l1.104-0.551l0.275,0.551c0.699,1.403,1.361,2.85,2.024,4.422l0.24,0.567
	l-1.137,0.48L188.313,59.434z M122.002,54.293c-1.1-0.138-2.231-0.28-3.316-0.497c-1.724-0.342-2.599-1.009-3.802-2.285
	l-0.423-0.449l0.898-0.846l0.423,0.448c1.108,1.178,1.75,1.646,3.145,1.922c1.039,0.206,2.079,0.337,3.181,0.476
	c0.537,0.065,1.026,0.128,1.521,0.196l0.644,0.068l-0.976,1.131C122.863,54.4,122.432,54.346,122.002,54.293z M93.572,53.373
	l0.297-0.542c0.247-0.448,0.501-0.894,0.76-1.339c1.022-1.75,2.129-3.414,3.288-4.944l0.373-0.492l0.983,0.745l-0.372,0.491
	c-1.133,1.497-2.213,3.119-3.208,4.823c-0.254,0.434-0.501,0.872-0.743,1.31l-0.297,0.542L93.572,53.373z"/>
<circle fill-rule="evenodd" clip-rule="evenodd" fill="#E2A459" cx="184.333" cy="63.089" r="1.7"/>
</svg>
