<?xml version="1.0" encoding="utf-8"?>
<!-- Generator: Adobe Illustrator 16.0.0, SVG Export Plug-In . SVG Version: 6.00 Build 0)  -->
<!DOCTYPE svg PUBLIC "-//W3C//DTD SVG 1.1//EN" "http://www.w3.org/Graphics/SVG/1.1/DTD/svg11.dtd">
<svg version="1.1" id="Layer_1" xmlns="http://www.w3.org/2000/svg" xmlns:xlink="http://www.w3.org/1999/xlink" x="0px" y="0px"
	 width="280px" height="106px" viewBox="0 0 280 106" enable-background="new 0 0 280 106" xml:space="preserve">
<line fill="none" stroke="#5A5456" stroke-miterlimit="10" x1="16.468" y1="72.134" x2="65.301" y2="72.134"/>
<line fill="none" stroke="#5A5456" stroke-miterlimit="10" x1="9.932" y1="78.33" x2="48.119" y2="78.33"/>
<line fill="none" stroke="#5A5456" stroke-miterlimit="10" x1="27.417" y1="84.288" x2="56.75" y2="84.288"/>
<line fill="none" stroke="#5A5456" stroke-miterlimit="10" x1="215.027" y1="72.134" x2="264.609" y2="72.134"/>
<line fill="none" stroke="#5A5456" stroke-miterlimit="10" x1="232.451" y1="78.163" x2="271.139" y2="78.163"/>
<line fill="none" stroke="#5A5456" stroke-miterlimit="10" x1="224.267" y1="84.288" x2="252.6" y2="84.288"/>
<line fill="none" stroke="#E2A459" stroke-width="1.1" stroke-linejoin="round" stroke-miterlimit="10" x1="170.848" y1="63.137" x2="170.848" y2="70.411"/>
<line fill="none" stroke="#E2A459" stroke-width="1.1" stroke-linejoin="round" stroke-miterlimit="10" x1="170.848" y1="46.55" x2="170.848" y2="60.188"/>
<polyline fill="none" stroke="#E2A459" stroke-width="1.1" stroke-linejoin="round" stroke-miterlimit="10" points="170.848,74.729 
	170.848,80.319 100.587,80.319 100.587,9.7 118.018,9.7 124.944,9.7 163.217,9.7 170.848,9.7 170.848,44.284 "/>
<g>
	
		<line fill="none" stroke="#E2A459" stroke-width="1.1" stroke-linejoin="round" stroke-miterlimit="10" x1="97.002" y1="21.171" x2="104.53" y2="21.171"/>
	
		<line fill="none" stroke="#E2A459" stroke-width="1.1" stroke-linejoin="round" stroke-miterlimit="10" x1="97.002" y1="31.925" x2="104.53" y2="31.925"/>
</g>
<g>
	
		<line fill="none" stroke="#E2A459" stroke-width="1.1" stroke-linejoin="round" stroke-miterlimit="10" x1="157.047" y1="76.557" x2="157.047" y2="84.084"/>
	
		<line fill="none" stroke="#E2A459" stroke-width="1.1" stroke-linejoin="round" stroke-miterlimit="10" x1="146.293" y1="76.557" x2="146.293" y2="84.084"/>
</g>
<line fill="none" stroke="#E2A459" stroke-width="1.1" stroke-linejoin="round" stroke-miterlimit="10" x1="127.897" y1="56.303" x2="134.903" y2="56.303"/>
<line fill="none" stroke="#E2A459" stroke-width="1.1" stroke-linejoin="round" stroke-miterlimit="10" x1="101.304" y1="56.303" x2="119.457" y2="56.303"/>
<line fill="none" stroke="#E2A459" stroke-width="1.1" stroke-linejoin="round" stroke-miterlimit="10" x1="134.265" y1="56.111" x2="134.265" y2="79.771"/>
<line fill="none" stroke="#E2A459" stroke-width="1.1" stroke-linejoin="round" stroke-miterlimit="10" x1="138.585" y1="10.058" x2="138.585" y2="34.435"/>
<line fill="none" stroke="#E2A459" stroke-width="1.1" stroke-linejoin="round" stroke-miterlimit="10" x1="147.983" y1="34.793" x2="127.473" y2="34.793"/>
<line fill="none" stroke="#E2A459" stroke-width="1.1" stroke-linejoin="round" stroke-miterlimit="10" x1="170.132" y1="34.793" x2="156.678" y2="34.793"/>
<line fill="none" stroke="#E2A459" stroke-width="1.1" stroke-linejoin="round" stroke-miterlimit="10" x1="156.37" y1="27.128" x2="156.37" y2="35.484"/>
<g>
	<path fill="none" stroke="#E2A459" stroke-width="1.1" stroke-linejoin="round" stroke-dasharray="14.4576" d="M148.016,35.561
		c-0.021-0.234-0.032-0.47-0.032-0.71c0-4.499,3.647-8.145,8.146-8.145c0.325,0,0.646,0.018,0.961,0.054"/>
</g>
<line fill="none" stroke="#E2A459" stroke-width="1.1" stroke-linejoin="round" stroke-miterlimit="10" x1="119.332" y1="48.651" x2="119.332" y2="57.006"/>
<g>
	<path fill="none" stroke="#E2A459" stroke-width="1.1" stroke-linejoin="round" stroke-dasharray="14.457" d="M127.688,57.083
		c0.021-0.233,0.031-0.471,0.031-0.71c0-4.499-3.646-8.146-8.145-8.146c-0.325,0-0.646,0.019-0.961,0.055"/>
</g>
<line fill="none" stroke="#E2A459" stroke-width="1.1" stroke-linejoin="round" stroke-miterlimit="10" x1="79.537" y1="9.656" x2="96.585" y2="9.656"/>
<line fill="none" stroke="#E2A459" stroke-width="1.1" stroke-linejoin="round" stroke-miterlimit="10" x1="79.537" y1="80.382" x2="96.585" y2="80.382"/>
<g>
	<g>
		<line fill="none" stroke="#E2A459" stroke-width="1.1" stroke-linejoin="round" x1="85.446" y1="9.656" x2="85.446" y2="11.09"/>
		
			<line fill="none" stroke="#E2A459" stroke-width="1.1" stroke-linejoin="round" stroke-dasharray="2.965,2.965" x1="85.446" y1="14.055" x2="85.446" y2="77.803"/>
		
			<line fill="none" stroke="#E2A459" stroke-width="1.1" stroke-linejoin="round" x1="85.446" y1="79.285" x2="85.446" y2="80.719"/>
	</g>
</g>
<g>
	<path fill="#E2A459" d="M76.473,41.263l0.539,1.215c0.149,0.356,0.264,0.631,0.367,0.884h0.034c0.218-0.31,0.333-0.494,0.608-0.837
		l1.02-1.262h1.101l-2.338,2.705l1.307,2.844h-1.032l-0.562-1.249c-0.184-0.413-0.264-0.632-0.402-0.987h-0.022
		c-0.172,0.265-0.333,0.517-0.574,0.849l-1.123,1.387h-1.101l2.431-2.854l-1.284-2.694H76.473z"/>
</g>
<g>
	<path fill="#E2A459" d="M136.726,99.451l0.54,1.215c0.149,0.356,0.264,0.631,0.366,0.884h0.035c0.217-0.31,0.333-0.494,0.607-0.838
		l1.021-1.261h1.1l-2.338,2.705l1.307,2.844h-1.032l-0.561-1.248c-0.184-0.414-0.265-0.632-0.403-0.988h-0.022
		c-0.173,0.265-0.333,0.518-0.573,0.849L135.648,105h-1.101l2.431-2.855l-1.284-2.693H136.726z"/>
</g>
<line fill="none" stroke="#E2A459" stroke-width="1.1" stroke-linejoin="round" stroke-miterlimit="10" x1="100.322" y1="100.609" x2="100.322" y2="83.56"/>
<line fill="none" stroke="#E2A459" stroke-width="1.1" stroke-linejoin="round" stroke-miterlimit="10" x1="171.048" y1="100.609" x2="171.048" y2="83.56"/>
<g>
	<g>
		
			<line fill="none" stroke="#E2A459" stroke-width="1.1" stroke-linejoin="round" x1="100.322" y1="94.699" x2="101.756" y2="94.699"/>
		
			<line fill="none" stroke="#E2A459" stroke-width="1.1" stroke-linejoin="round" stroke-dasharray="2.965,2.965" x1="104.721" y1="94.699" x2="168.469" y2="94.699"/>
		
			<line fill="none" stroke="#E2A459" stroke-width="1.1" stroke-linejoin="round" x1="169.951" y1="94.699" x2="171.385" y2="94.699"/>
	</g>
</g>
<g>
	<polygon fill="none" stroke="#E2A459" stroke-width="1.1" stroke-linejoin="round" stroke-miterlimit="10" points="191.198,76.557 
		179.632,76.557 179.632,15.256 191.198,15.256 191.198,21.063 	"/>
	
		<line fill="none" stroke="#E2A459" stroke-width="1.1" stroke-linejoin="round" stroke-miterlimit="10" x1="180.209" y1="18.533" x2="186.378" y2="18.533"/>
	
		<line fill="none" stroke="#E2A459" stroke-width="1.1" stroke-linejoin="round" stroke-miterlimit="10" x1="180.209" y1="22.691" x2="186.378" y2="22.691"/>
	
		<line fill="none" stroke="#E2A459" stroke-width="1.1" stroke-linejoin="round" stroke-miterlimit="10" x1="180.209" y1="26.849" x2="186.378" y2="26.849"/>
	
		<line fill="none" stroke="#E2A459" stroke-width="1.1" stroke-linejoin="round" stroke-miterlimit="10" x1="180.209" y1="31.01" x2="186.378" y2="31.01"/>
	
		<line fill="none" stroke="#E2A459" stroke-width="1.1" stroke-linejoin="round" stroke-miterlimit="10" x1="180.209" y1="35.166" x2="188.499" y2="35.166"/>
	
		<line fill="none" stroke="#E2A459" stroke-width="1.1" stroke-linejoin="round" stroke-miterlimit="10" x1="180.209" y1="39.324" x2="186.378" y2="39.324"/>
	
		<line fill="none" stroke="#E2A459" stroke-width="1.1" stroke-linejoin="round" stroke-miterlimit="10" x1="180.209" y1="43.483" x2="186.378" y2="43.483"/>
	
		<line fill="none" stroke="#E2A459" stroke-width="1.1" stroke-linejoin="round" stroke-miterlimit="10" x1="180.209" y1="47.642" x2="186.378" y2="47.642"/>
	
		<line fill="none" stroke="#E2A459" stroke-width="1.1" stroke-linejoin="round" stroke-miterlimit="10" x1="180.209" y1="51.801" x2="186.378" y2="51.801"/>
	
		<line fill="none" stroke="#E2A459" stroke-width="1.1" stroke-linejoin="round" stroke-miterlimit="10" x1="180.209" y1="55.958" x2="188.499" y2="55.958"/>
	
		<line fill="none" stroke="#E2A459" stroke-width="1.1" stroke-linejoin="round" stroke-miterlimit="10" x1="180.209" y1="60.117" x2="186.378" y2="60.117"/>
	
		<line fill="none" stroke="#E2A459" stroke-width="1.1" stroke-linejoin="round" stroke-miterlimit="10" x1="180.209" y1="64.275" x2="186.378" y2="64.275"/>
	
		<line fill="none" stroke="#E2A459" stroke-width="1.1" stroke-linejoin="round" stroke-miterlimit="10" x1="180.209" y1="68.433" x2="186.378" y2="68.433"/>
	
		<line fill="none" stroke="#E2A459" stroke-width="1.1" stroke-linejoin="round" stroke-miterlimit="10" x1="180.209" y1="72.592" x2="186.378" y2="72.592"/>
</g>
<polyline fill="none" stroke="#E2A459" stroke-width="1.1" stroke-linecap="square" stroke-miterlimit="10" points="208.019,67.91 
	208.019,70.462 199.415,70.462 199.415,39.633 208.019,39.633 208.019,61.099 "/>
<line fill="none" stroke="#E2A459" stroke-width="1.1" stroke-linecap="square" stroke-miterlimit="10" x1="208.019" y1="63.006" x2="208.019" y2="65.039"/>
<polyline fill="none" stroke="#E2A459" stroke-width="1.1" stroke-linecap="square" stroke-miterlimit="10" points="208.019,72.987 
	208.019,76.639 199.415,76.639 199.415,72.987 "/>
<polygon fill="none" stroke="#E2A459" stroke-width="1.1" stroke-linecap="square" stroke-miterlimit="10" points="199.882,37.478 
	203.781,30.318 207.638,37.476 "/>
<polygon fill="#E2A459" points="202.767,32.616 204.847,32.616 203.779,30.93 "/>
</svg>
