<?xml version="1.0" encoding="utf-8"?>
<!-- Generator: Adobe Illustrator 16.0.0, SVG Export Plug-In . SVG Version: 6.00 Build 0)  -->
<!DOCTYPE svg PUBLIC "-//W3C//DTD SVG 1.1//EN" "http://www.w3.org/Graphics/SVG/1.1/DTD/svg11.dtd">
<svg version="1.1" id="Layer_1" xmlns="http://www.w3.org/2000/svg" xmlns:xlink="http://www.w3.org/1999/xlink" x="0px" y="0px"
	 width="280px" height="106px" viewBox="0 0 280 106" enable-background="new 0 0 280 106" xml:space="preserve">
<line fill="none" stroke="#5A5456" stroke-miterlimit="10" x1="8.468" y1="77.134" x2="57.301" y2="77.134"/>
<line fill="none" stroke="#5A5456" stroke-miterlimit="10" x1="1.932" y1="82.33" x2="40.119" y2="82.33"/>
<line fill="none" stroke="#5A5456" stroke-miterlimit="10" x1="19.417" y1="89.288" x2="48.75" y2="89.288"/>
<line fill="none" stroke="#5A5456" stroke-miterlimit="10" x1="220.027" y1="77.134" x2="269.609" y2="77.134"/>
<line fill="none" stroke="#5A5456" stroke-miterlimit="10" x1="237.451" y1="83.163" x2="276.139" y2="83.163"/>
<line fill="none" stroke="#5A5456" stroke-miterlimit="10" x1="229.267" y1="89.288" x2="257.6" y2="89.288"/>
<g>
	<g>
		<path fill="none" stroke="#E2A459" stroke-width="1.1" stroke-miterlimit="10" d="M147.823,45.286
			c-0.356,0.265-0.707,0.536-1.056,0.815c-1.424,1.146-2.754,2.407-3.972,3.772c-2.678,2.996-4.818,6.48-6.271,10.3 M191.262,48.904
			c-6.022-6.224-14.46-10.102-23.784-10.102c-5.987,0-11.611,1.6-16.46,4.394 M195.067,90.165c3.48-5.237,5.509-11.518,5.509-18.263
			c0-6.427-1.841-12.435-5.023-17.518c-0.819-1.312-1.731-2.561-2.721-3.741 M174.973,104.142c5.515-1.28,10.506-3.942,14.586-7.604
			 M135.092,65.05c-0.467,2.213-0.713,4.503-0.713,6.853c0,18.249,14.849,33.098,33.099,33.098c1.871,0,3.708-0.156,5.495-0.458
			c0.095-0.016,0.188-0.03,0.282-0.049"/>
		<circle fill="none" stroke="#E2A459" stroke-width="1.1" stroke-miterlimit="10" cx="167.478" cy="71.902" r="2.694"/>
		
			<line fill="none" stroke="#E2A459" stroke-width="1.1" stroke-linecap="round" stroke-miterlimit="10" x1="165.126" y1="70.303" x2="152.785" y2="57.971"/>
		
			<line fill="none" stroke="#E2A459" stroke-width="1.1" stroke-linecap="round" stroke-miterlimit="10" x1="177.04" y1="62.091" x2="169.482" y2="69.654"/>
		<circle fill="#E2A459" cx="143.184" cy="72.445" r="1.253"/>
		<circle fill="#E2A459" cx="167.479" cy="47.056" r="1.253"/>
		<circle fill="#E2A459" cx="167.479" cy="96.676" r="1.253"/>
		<circle fill="#E2A459" cx="192" cy="72.445" r="1.253"/>
		<path fill="none" stroke="#E2A459" stroke-width="1.1" stroke-miterlimit="10" d="M167.478,100.724
			c-15.892,0-28.82-12.929-28.82-28.819c0-15.893,12.929-28.824,28.82-28.824c15.895,0,28.82,12.931,28.82,28.824
			C196.298,87.795,183.372,100.724,167.478,100.724z"/>
		<path fill="none" stroke="#E2A459" stroke-width="1.1" stroke-miterlimit="10" d="M157.465,40.339
			c0.021-0.926,0.034-3.209,0.034-3.558l0,0c0-2.908,2.357-5.262,5.263-5.262h9.424c2.907,0,5.263,2.354,5.263,5.262l0,0
			c0,0.336,0.015,2.84,0.041,3.458"/>
		<path fill="none" stroke="#E2A459" stroke-width="1.1" stroke-miterlimit="10" d="M165.172,30.917L165.172,30.917
			c0-0.971,0.809-1.754,1.804-1.754h1.003c0.996,0,1.805,0.784,1.805,1.754l0,0"/>
	</g>
	<g>
		<line fill="none" stroke="#E2A459" stroke-width="1.1" stroke-miterlimit="10" x1="110.61" y1="38.987" x2="110.61" y2="35.606"/>
		<polyline fill="none" stroke="#E2A459" stroke-width="1.1" stroke-miterlimit="10" points="110.61,33.159 110.61,21.407 
			127.166,21.407 127.166,42.684 110.61,42.684 110.61,41.326 		"/>
		
			<line fill="none" stroke="#E2A459" stroke-width="1.1" stroke-miterlimit="10" x1="113.897" y1="24.849" x2="123.489" y2="24.849"/>
		
			<line fill="none" stroke="#E2A459" stroke-width="1.1" stroke-miterlimit="10" x1="113.897" y1="28.168" x2="123.489" y2="28.168"/>
		
			<line fill="none" stroke="#E2A459" stroke-width="1.1" stroke-miterlimit="10" x1="113.897" y1="31.488" x2="123.489" y2="31.488"/>
		<path fill="none" stroke="#E2A459" stroke-width="1.1" stroke-miterlimit="10" d="M120.334,36.55
			c0.505,0.312,1.813,1.662,1.813,1.662s1.008-2.704,1.611-3.118"/>
	</g>
	<g>
		<g>
			<path fill-rule="evenodd" clip-rule="evenodd" fill="none" stroke="#E2A459" stroke-width="1.0365" stroke-miterlimit="10" d="
				M95.083,92.451c-0.812,0-1.53,0-2.112,0c-0.474-2.111-2.461-3.283-4.498-3.357c-2.067-0.072-4.104,1.637-4.639,3.361
				c-0.584,0-2.513-0.009-2.513-0.009s0-2.193,0-2.235c0-3.808-0.002-7.613,0-11.421c0-0.045-0.002-0.095,0-0.141
				c6.967,0,13.986,0,20.953,0c0.041,0.009,0.082,0.019,0.122,0.022c0.376,0.043,0.721,0.139,1.005,0.339
				c0.47,0.325,0.652,0.751,0.656,1.221c0.004,4.035,0.001,8.071,0.001,12.106c0,0.036,0,0.072,0,0.113c-1.597,0-4.953,0-7.729,0"/>
			<path fill-rule="evenodd" clip-rule="evenodd" fill="none" stroke="#E2A459" stroke-width="1.0365" stroke-miterlimit="10" d="
				M116.831,92.819c-0.115,0.397-0.406,0.508-0.783,0.502c-0.393-0.002-1.221-0.021-1.611-0.014
				c-0.128,0.004-0.057-0.057-0.098-0.191c-0.582-1.933-1.47-3.429-3.448-3.834c-1.676-0.34-3.319,0.065-4.565,1.244
				c-0.034,0.031-0.113,0.097-0.131,0.102c0-3.675,0.093-6.954,0.093-10.645c0.064,0,0.125,0,0.182,0c2.018,0,4.037,0.002,6.056,0
				c0.604,0,1.099,0.257,1.443,0.72c0.902,1.227,1.702,2.514,2.301,3.912c0.257,0.595,0.465,1.193,0.54,1.838
				c0.002,0.031,0.011,0.062,0.022,0.09C116.831,88.638,116.831,90.727,116.831,92.819z M106.674,84.781h9.297"/>
			<path fill-rule="evenodd" clip-rule="evenodd" fill="none" stroke="#E2A459" stroke-width="1.0365" stroke-miterlimit="10" d="
				M91.376,93.771c0.009,1.66-1.373,2.993-3.028,2.96c-1.607-0.035-2.919-1.365-2.902-2.998c0.013-1.609,1.348-2.939,2.971-2.93
				C90.063,90.809,91.376,92.127,91.376,93.771z"/>
			<path fill-rule="evenodd" clip-rule="evenodd" fill="none" stroke="#E2A459" stroke-width="1.0365" stroke-miterlimit="10" d="
				M109.683,96.729c-1.654,0-2.963-1.323-2.963-3c0-1.604,1.343-2.924,2.97-2.926c1.646-0.004,2.969,1.326,2.968,2.989
				C112.655,95.412,111.323,96.729,109.683,96.729z"/>
			
				<line fill-rule="evenodd" clip-rule="evenodd" fill="none" stroke="#E2A459" stroke-width="1.0365" stroke-miterlimit="10" x1="111.082" y1="80.183" x2="111.176" y2="84.876"/>
		</g>
		<g>
			<path fill="none" stroke="#E2A459" stroke-width="1.1" stroke-miterlimit="10" d="M87.481,60.451
				c0.094-3.524-2.389-5.498-5.196-5.498c-2.805,0-5.286,1.818-5.157,5.434c0.095,2.737,5.157,9.627,5.157,9.627
				S87.403,63.258,87.481,60.451z M82.285,62.639c-1.405,0-2.542-1.138-2.542-2.541c0-1.399,1.137-2.539,2.542-2.539
				c1.403,0,2.539,1.14,2.539,2.539C84.824,61.501,83.688,62.639,82.285,62.639z"/>
			<path fill="none" stroke="#E2A459" stroke-width="1.1" stroke-miterlimit="10" d="M115.619,56.776
				c0.122-4.592-3.112-7.164-6.768-7.164c-3.659,0-6.889,2.369-6.72,7.081c0.126,3.561,6.72,12.545,6.72,12.545
				S115.518,60.43,115.619,56.776z M108.851,59.626c-1.832,0-3.312-1.48-3.312-3.31c0-1.83,1.48-3.309,3.312-3.309
				c1.825,0,3.307,1.479,3.307,3.309C112.158,58.146,110.676,59.626,108.851,59.626z"/>
			<g>
				<path fill="none" stroke="#E2A459" stroke-width="1.1" stroke-miterlimit="10" d="M97.702,48.682
					c0.051-1.869-1.267-2.914-2.751-2.914c-1.489,0-2.802,0.962-2.732,2.881c0.05,1.449,2.732,5.099,2.732,5.099
					S97.662,50.169,97.702,48.682z"/>
				<circle fill="#E2A459" cx="94.951" cy="48.494" r="0.839"/>
			</g>
			<g>
				<g>
					<path fill="none" stroke="#E2A459" stroke-width="1.0365" stroke-linecap="round" stroke-miterlimit="10" d="M70.729,66.887
						c0,0,2.334-1.768,5.758-3.775"/>
					
						<path fill="none" stroke="#E2A459" stroke-width="1.0365" stroke-linecap="round" stroke-miterlimit="10" stroke-dasharray="13.5224,13.5224" d="
						M88.901,57.877c1.992-0.428,3.949-0.582,5.753-0.318c4.457,0.649,8.704,3.946,13.048,6.145"/>
					<path fill="none" stroke="#E2A459" stroke-width="1.0365" stroke-linecap="round" stroke-miterlimit="10" d="M114.117,65.7
						c4.034,0.273,6.692-1.249,6.692-1.249"/>
				</g>
			</g>
		</g>
	</g>
</g>
</svg>
