<?xml version="1.0" encoding="utf-8"?>
<!-- Generator: Adobe Illustrator 16.0.0, SVG Export Plug-In . SVG Version: 6.00 Build 0)  -->
<!DOCTYPE svg PUBLIC "-//W3C//DTD SVG 1.1//EN" "http://www.w3.org/Graphics/SVG/1.1/DTD/svg11.dtd">
<svg version="1.1" id="Layer_1" xmlns="http://www.w3.org/2000/svg" xmlns:xlink="http://www.w3.org/1999/xlink" x="0px" y="0px"
	 width="280px" height="106px" viewBox="0 0 280 106" enable-background="new 0 0 280 106" xml:space="preserve">
<line fill="none" stroke="#5A5456" stroke-miterlimit="10" x1="36.468" y1="76.134" x2="85.301" y2="76.134"/>
<line fill="none" stroke="#5A5456" stroke-miterlimit="10" x1="29.932" y1="82.33" x2="68.119" y2="82.33"/>
<line fill="none" stroke="#5A5456" stroke-miterlimit="10" x1="47.417" y1="88.288" x2="76.75" y2="88.288"/>
<line fill="none" stroke="#5A5456" stroke-miterlimit="10" x1="206.027" y1="76.134" x2="255.609" y2="76.134"/>
<line fill="none" stroke="#5A5456" stroke-miterlimit="10" x1="223.451" y1="82.163" x2="262.139" y2="82.163"/>
<line fill="none" stroke="#5A5456" stroke-miterlimit="10" x1="215.267" y1="88.288" x2="243.6" y2="88.288"/>
<g>
	
		<path fill="none" stroke="#E2A459" stroke-width="1.1" stroke-linecap="square" stroke-linejoin="round" stroke-miterlimit="10" d="
		M107.773,37.602c12.014,0,21.756,8.016,21.756,17.901c0,3.163-0.998,6.135-2.746,8.714c-0.958,1.404-2.139,2.693-3.503,3.832
		c0.73,1.468,2.745,4.842,6.917,7.615c0.782,0.521-10.844-2.854-13.818-3.721c-2.642,0.938-5.55,1.456-8.605,1.456
		c-12.016,0-21.757-8.012-21.757-17.896S95.757,37.602,107.773,37.602z"/>
	
		<line fill="none" stroke="#E2A459" stroke-width="1.1" stroke-linecap="square" stroke-linejoin="round" stroke-miterlimit="10" x1="118.662" y1="49.269" x2="96.407" y2="49.269"/>
	
		<line fill="none" stroke="#E2A459" stroke-width="1.1" stroke-linecap="square" stroke-linejoin="round" stroke-miterlimit="10" x1="111.486" y1="53.802" x2="96.407" y2="53.802"/>
	
		<line fill="none" stroke="#E2A459" stroke-width="1.1" stroke-linecap="square" stroke-linejoin="round" stroke-miterlimit="10" x1="118.662" y1="53.802" x2="114.791" y2="53.802"/>
	
		<line fill="none" stroke="#E2A459" stroke-width="1.1" stroke-linecap="square" stroke-linejoin="round" stroke-miterlimit="10" x1="101.576" y1="58.328" x2="96.407" y2="58.328"/>
	
		<polyline fill="none" stroke="#E2A459" stroke-width="1.1" stroke-linecap="square" stroke-linejoin="round" stroke-miterlimit="10" points="
		118.662,58.328 106.926,58.328 104.88,58.328 	"/>
	
		<line fill="none" stroke="#E2A459" stroke-width="1.3308" stroke-linecap="round" stroke-linejoin="round" stroke-miterlimit="10" x1="118.662" y1="62.858" x2="106.522" y2="62.858"/>
</g>
<path fill="none" stroke="#E2A459" stroke-width="1.1" stroke-linecap="square" stroke-linejoin="round" stroke-miterlimit="10" d="
	M137.662,85.009c-4.57,2.368-10.476,5.23-12.216,6.004c-5.248,2.331-2.914,13.987-2.914,13.987h15.842"/>
<path fill="none" stroke="#E2A459" stroke-width="1.1" stroke-linecap="square" stroke-linejoin="round" stroke-miterlimit="10" d="
	M169.065,83.565c5.42,2.78,12.979,6.8,14.435,7.447c5.246,2.331,2.915,13.987,2.915,13.987H149.12h-3.924"/>
<line fill="none" stroke="#E2A459" stroke-width="1.1" stroke-linecap="square" stroke-linejoin="round" stroke-miterlimit="10" x1="162.456" y1="73.234" x2="163.151" y2="80.963"/>
<line fill="none" stroke="#E2A459" stroke-width="1.1" stroke-linecap="square" stroke-linejoin="round" stroke-miterlimit="10" x1="139.425" y1="49.572" x2="140.108" y2="54.349"/>
<line fill="none" stroke="#E2A459" stroke-width="1.1" stroke-linecap="square" stroke-linejoin="round" stroke-miterlimit="10" x1="145.582" y1="72.39" x2="144.816" y2="80.253"/>
<circle fill="#E2A459" cx="147.786" cy="57.036" r="1.458"/>
<path fill="none" stroke="#E2A459" stroke-width="1.1" stroke-linecap="square" stroke-linejoin="round" stroke-miterlimit="10" d="
	M154.034,75.304c-7.439-0.255-9.661-3.341-12.392-10.507c-0.524-1.374-0.938-2.051-1.194-1.962c-1.962,0.683-2.518-3.596-2.73-5.032
	c-0.427-2.901,1.876-4.095,2.73-1.195"/>
<path fill="#E2A459" d="M159.139,66.513c0.04,0.641-3.346,2.891-4.955,2.891s-5.07-2.251-5.119-2.891
	c-0.021-0.272,3.245,0.742,5.037,0.759C155.94,67.287,159.122,66.24,159.139,66.513z"/>
<path fill="#E2A459" d="M150.336,54.188c-0.015,0.257-0.165,0.462-0.336,0.452l-4.492-0.246c-0.171-0.009-0.297-0.228-0.282-0.487
	l0,0c0.013-0.261,0.164-0.463,0.335-0.453l4.491,0.245C150.223,53.709,150.35,53.929,150.336,54.188L150.336,54.188z"/>
<path fill="#E2A459" d="M153.842,63.944c-0.684,0-2.035-0.538-2.063-0.865c-0.028-0.328,0.682-0.521,0.83-0.521
	c0.149,0,0.977,0.288,1.264,0.288c0.288,0,1.125-0.282,1.253-0.288s0.837,0.167,0.864,0.521
	C156.017,63.433,154.524,63.944,153.842,63.944z"/>
<circle fill="#E2A459" cx="160.411" cy="57.036" r="1.458"/>
<path fill="none" stroke="#E2A459" stroke-width="1.1" stroke-linecap="square" stroke-linejoin="round" stroke-miterlimit="10" d="
	M154.161,75.304c7.439-0.255,9.662-3.341,12.393-10.507c0.523-1.374,0.938-2.051,1.193-1.962c1.962,0.683,2.518-3.596,2.729-5.032
	c0.428-2.901-1.876-4.095-2.729-1.195"/>
<path fill="#E2A459" d="M157.86,54.188c0.014,0.257,0.165,0.462,0.336,0.452l4.491-0.246c0.171-0.009,0.297-0.228,0.283-0.487l0,0
	c-0.014-0.261-0.164-0.463-0.335-0.453l-4.491,0.245C157.973,53.709,157.846,53.929,157.86,54.188L157.86,54.188z"/>
<path fill="none" stroke="#E2A459" stroke-width="1.1" stroke-linecap="square" stroke-linejoin="round" stroke-miterlimit="10" d="
	M161.861,43.3c1.791,1.876,4.264,5.972,4.947,9.213"/>
<path fill="none" stroke="#E2A459" stroke-width="1.1" stroke-linecap="square" stroke-linejoin="round" stroke-miterlimit="10" d="
	M168.685,52.087c-0.067-1.89,0.194-4.626-0.643-7.414c-0.615-2.048-3.066-6.968-5.854-6.131c-0.404-1.469-3.622-3.902-3.622-3.902
	s-10.531-3.649-20.626,3.066c0.588,0.406,1.567,0.99,1.952,1.951c0.385,0.963-2.23,2.508-3.624,4.181
	c1.952,1.394,4.035,2.129,4.035,2.129s7.672-4.638,19.084-5.14"/>
<g>
	
		<polygon fill="none" stroke="#E2A459" stroke-width="1.1" stroke-linecap="square" stroke-linejoin="round" stroke-miterlimit="10" points="
		151.002,84.757 158.51,84.757 156.969,90.191 152.564,90.191 	"/>
	
		<polyline fill="none" stroke="#E2A459" stroke-width="1.1" stroke-linecap="square" stroke-linejoin="round" stroke-miterlimit="10" points="
		159.798,103.875 156.764,90.308 152.859,90.426 150.489,104.034 	"/>
</g>
<g>
	
		<polygon fill="none" stroke="#E2A459" stroke-width="1.1" stroke-linecap="square" stroke-linejoin="round" stroke-miterlimit="10" points="
		171.476,80.529 168.574,77.404 157.946,85.222 162.58,89.971 	"/>
</g>
<g>
	
		<polygon fill="none" stroke="#E2A459" stroke-width="1.1" stroke-linecap="square" stroke-linejoin="round" stroke-miterlimit="10" points="
		137.866,81.041 140.767,77.916 151.56,84.984 147.183,90.071 	"/>
</g>
</svg>
