<?xml version="1.0" encoding="utf-8"?>
<!-- Generator: Adobe Illustrator 16.0.0, SVG Export Plug-In . SVG Version: 6.00 Build 0)  -->
<!DOCTYPE svg PUBLIC "-//W3C//DTD SVG 1.1//EN" "http://www.w3.org/Graphics/SVG/1.1/DTD/svg11.dtd">
<svg version="1.1" id="Layer_1" xmlns="http://www.w3.org/2000/svg" xmlns:xlink="http://www.w3.org/1999/xlink" x="0px" y="0px"
	 width="86px" height="80px" viewBox="0 0 86 80" enable-background="new 0 0 86 80" xml:space="preserve">
<g>
	<g>
		<path fill="#F7F2ED" d="M5.039,79c-2.129,0-3.861-1.727-3.861-3.85V4.849C1.178,2.727,2.91,1,5.039,1h76.276
			c2.13,0,3.863,1.727,3.863,3.849V75.15c0,2.123-1.733,3.85-3.863,3.85H5.039z"/>
		<path fill="#D1D1D1" d="M81.314,2c1.579,0,2.863,1.278,2.863,2.849V75.15c0,1.571-1.284,2.85-2.863,2.85H5.039
			c-1.578,0-2.861-1.278-2.861-2.85V4.849C2.178,3.278,3.461,2,5.039,2H81.314 M81.314,0H5.039C2.353,0,0.178,2.172,0.178,4.849
			V75.15c0,2.678,2.175,4.85,4.861,4.85h76.276c2.682,0,4.863-2.17,4.863-4.85V4.849C86.178,2.171,83.998,0,81.314,0L81.314,0z"/>
	</g>
</g>
<g enable-background="new    ">
	<path fill="#374537" d="M36.175,66.77v-4.244c0-0.397-0.019-0.748-0.053-1.043s-0.103-0.543-0.203-0.739
		c-0.1-0.199-0.242-0.353-0.427-0.451c-0.186-0.103-0.428-0.146-0.728-0.146c-0.46,0-0.843,0.139-1.147,0.42
		c-0.305,0.276-0.518,0.629-0.638,1.049v5.16h-1.2v-7.5h0.84l0.226,0.916h0.06c0.271-0.32,0.583-0.582,0.938-0.787
		c0.354-0.205,0.817-0.312,1.388-0.312c0.479,0,0.873,0.095,1.178,0.277c0.306,0.188,0.542,0.508,0.712,0.969
		c0.23-0.394,0.547-0.692,0.952-0.916c0.405-0.221,0.863-0.33,1.373-0.33c0.42,0,0.775,0.05,1.065,0.146
		c0.29,0.096,0.529,0.262,0.72,0.502s0.328,0.566,0.413,0.977c0.085,0.411,0.127,0.93,0.127,1.559v4.5h-1.2V62.26
		c0-0.361-0.018-0.674-0.052-0.938c-0.035-0.266-0.105-0.486-0.21-0.66c-0.105-0.176-0.25-0.305-0.436-0.391
		c-0.185-0.084-0.428-0.127-0.728-0.127c-0.5,0-0.89,0.139-1.17,0.42c-0.28,0.276-0.48,0.68-0.601,1.199v5.01h-1.2L36.175,66.77
		L36.175,66.77z"/>
	<path fill="#374537" d="M48.355,66.77v-4.244c0-0.397-0.019-0.748-0.054-1.043c-0.034-0.295-0.104-0.543-0.202-0.739
		c-0.101-0.199-0.242-0.353-0.427-0.451c-0.188-0.103-0.43-0.146-0.729-0.146c-0.463,0-0.844,0.139-1.146,0.42
		c-0.307,0.276-0.521,0.629-0.639,1.049v5.16h-1.201v-7.5h0.841l0.225,0.916h0.062c0.271-0.32,0.582-0.582,0.938-0.787
		c0.355-0.205,0.816-0.312,1.39-0.312c0.479,0,0.873,0.095,1.178,0.277c0.306,0.183,0.543,0.508,0.714,0.969
		c0.229-0.394,0.547-0.692,0.95-0.916c0.406-0.221,0.863-0.33,1.373-0.33c0.42,0,0.774,0.05,1.063,0.146
		c0.291,0.096,0.531,0.262,0.723,0.502c0.189,0.24,0.328,0.566,0.412,0.977c0.086,0.41,0.127,0.93,0.127,1.559v4.5h-1.199V62.26
		c0-0.361-0.02-0.674-0.053-0.938c-0.035-0.266-0.104-0.486-0.209-0.66c-0.105-0.176-0.25-0.305-0.438-0.391
		c-0.188-0.084-0.431-0.127-0.729-0.127c-0.5,0-0.892,0.139-1.171,0.42c-0.28,0.276-0.479,0.68-0.602,1.199v5.01h-1.199V66.77
		H48.355z"/>
</g>
<rect x="0.95" y="32.4" fill="#C99E48" width="83.87" height="12.756"/>
<polyline fill="none" stroke="#374537" stroke-linecap="round" stroke-miterlimit="10" points="47.918,21.779 42.867,27.974 
	37.816,21.779 "/>
<g>
	<polygon fill="#F6F1F2" points="14.6,45.159 7.65,32.4 6.721,32.4 13.671,45.159 	"/>
	<polygon fill="#F6F1F2" points="2.147,32.4 1.219,32.4 8.169,45.159 9.099,45.159 	"/>
	<polygon fill="#F6F1F2" points="2.667,45.159 3.595,45.159 0.934,40.272 0.934,41.979 	"/>
	<polygon fill="#F6F1F2" points="20.105,45.159 13.152,32.4 12.222,32.4 19.176,45.159 	"/>
	<polygon fill="#F6F1F2" points="25.606,45.159 18.658,32.4 17.724,32.4 24.675,45.159 	"/>
	<polygon fill="#F6F1F2" points="31.11,45.159 24.159,32.4 23.226,32.4 30.179,45.159 	"/>
	<polygon fill="#F6F1F2" points="36.611,45.159 29.661,32.4 28.732,32.4 35.682,45.159 	"/>
	<polygon fill="#F6F1F2" points="42.115,45.159 35.163,32.4 34.235,32.4 41.186,45.159 	"/>
	<polygon fill="#F6F1F2" points="47.616,45.159 40.666,32.4 39.735,32.4 46.686,45.159 	"/>
	<polygon fill="#F6F1F2" points="53.116,45.159 46.166,32.4 45.238,32.4 52.189,45.159 	"/>
	<polygon fill="#F6F1F2" points="58.62,45.159 51.67,32.4 50.739,32.4 57.693,45.159 	"/>
	<polygon fill="#F6F1F2" points="64.125,45.159 57.174,32.4 56.243,32.4 63.195,45.159 	"/>
	<polygon fill="#F6F1F2" points="69.625,45.159 62.676,32.4 61.745,32.4 68.701,45.159 	"/>
	<polygon fill="#F6F1F2" points="75.131,45.159 68.178,32.4 67.249,32.4 74.198,45.159 	"/>
	<polygon fill="#F6F1F2" points="80.627,45.159 73.682,32.4 72.751,32.4 79.702,45.159 	"/>
	<polygon fill="#F6F1F2" points="86.133,45.159 79.184,32.4 78.255,32.4 85.206,45.159 	"/>
	<polygon fill="#F6F1F2" points="84.913,32.818 84.685,32.4 83.761,32.4 84.913,34.518 	"/>
</g>
<g>
	<g>
		<path fill="#D1D1D1" d="M81.314,2c1.579,0,2.863,1.278,2.863,2.849V75.15c0,1.571-1.284,2.85-2.863,2.85H5.039
			c-1.578,0-2.861-1.278-2.861-2.85V4.849C2.178,3.278,3.461,2,5.039,2H81.314 M81.314,0H5.039C2.353,0,0.178,2.172,0.178,4.849
			V75.15c0,2.678,2.175,4.85,4.861,4.85h76.276c2.682,0,4.863-2.17,4.863-4.85V4.849C86.178,2.171,83.998,0,81.314,0L81.314,0z"/>
	</g>
</g>
</svg>
