<?xml version="1.0" encoding="utf-8"?>
<!-- Generator: Adobe Illustrator 16.0.0, SVG Export Plug-In . SVG Version: 6.00 Build 0)  -->
<!DOCTYPE svg PUBLIC "-//W3C//DTD SVG 1.1//EN" "http://www.w3.org/Graphics/SVG/1.1/DTD/svg11.dtd">
<svg version="1.1" id="Layer_1" xmlns="http://www.w3.org/2000/svg" xmlns:xlink="http://www.w3.org/1999/xlink" x="0px" y="0px"
	 width="86px" height="80px" viewBox="0 0 86 80" enable-background="new 0 0 86 80" xml:space="preserve">
<g>
	<g>
		<g>
			<path fill="#F7F2ED" d="M3.95,79c-1.627,0-2.952-1.322-2.952-2.948V3.948C0.998,2.322,2.322,1,3.95,1h78.095
				c1.628,0,2.953,1.323,2.953,2.949v72.103c0.001,0.786-0.306,1.525-0.864,2.082C83.576,78.692,82.834,79,82.046,79H3.95z"/>
			<path fill="#D1D1D1" d="M82.045,2c1.077,0,1.953,0.874,1.953,1.949v72.105c0,0.525-0.197,1-0.571,1.374
				C83.052,77.802,82.574,78,82.046,78H3.95c-1.076,0-1.952-0.874-1.952-1.948V3.948C1.998,2.874,2.874,2,3.95,2H82.045 M82.045,0
				H3.95C1.77,0-0.002,1.771-0.002,3.948v72.104C-0.002,78.229,1.77,80,3.95,80h78.096c1.056,0,2.048-0.411,2.795-1.158
				c0.748-0.747,1.158-1.736,1.157-2.79V3.949C85.998,1.771,84.226,0,82.045,0L82.045,0z"/>
		</g>
	</g>
</g>
<g>
	<g>
		<path fill="#C99E48" d="M53.773,52.295l4.971-1.859c3.297-1.217,4.502-7.967,0.881-11.25c-2.98-2.7-7.557-1.348-7.557-1.348
			l-23.306,5.836l0,0c-4.312,1.66-7.221,4.697-7.221,9.59c0,6.357,5.154,11.504,11.505,11.504c0.681,0,2.468,0.314,3.113,0.201
			c2.067,0.092,3.422-0.09,5.591-0.201c8.001-0.401,9.346,0.629,9.346,0.629s15.961-9.153,19.647-10.621
			C71.352,53.342,53.773,52.295,53.773,52.295z"/>
		<path fill="#B68C43" stroke="#FFFFFF" stroke-width="0.7063" stroke-linecap="round" stroke-miterlimit="10" d="M35.767,49.428
			l-5.04,1.951c-5.892-3.848-8.043,4.586-3.021,7.551c9.814,5.787,14.697-14.965,2.87-15.252
			c-11.779-0.289-13.45,21.953,5.588,21.293C49.253,64.516,51.1,65.396,51.1,65.396s13.354-7.651,19.646-10.621
			c0-1.135-16.972-2.479-16.972-2.479l-21.504,7.502"/>
		
			<line fill="none" stroke="#FFFFFF" stroke-width="0.7063" stroke-linecap="round" stroke-linejoin="round" stroke-miterlimit="10" x1="27.414" y1="50.434" x2="35.057" y2="48.006"/>
		<path fill="none" stroke="#FFFFFF" stroke-width="0.7063" stroke-linecap="round" stroke-miterlimit="10" d="M53.773,52.295
			l4.971-1.859c2.744-1.217,5.355-6.762,0.881-11.25c-2.197-2.206-6.08-1.629-6.682-1.478c-1.314,0.332-25.077,6.343-25.077,6.343"
			/>
	</g>
	<g>
		<path fill="#6DBD45" d="M39.442,28.203c0.117,1.488,1.58,2.195,3.256,2.195c1.226,0,2.214-0.167,3.181-0.472l0.475,2.429
			c-1.18,0.471-2.617,0.707-4.174,0.707c-3.914,0-6.158-2.266-6.158-5.873c0-2.924,1.817-6.158,5.828-6.158
			c3.726,0,5.14,2.901,5.14,5.756c0,0.612-0.068,1.156-0.117,1.414h-7.427v0.002H39.442z M43.665,25.75
			c0-0.872-0.377-2.334-2.028-2.334c-1.51,0-2.123,1.365-2.22,2.334H43.665z"/>
		<path fill="#6DBD45" d="M57.789,32.543c-0.637,0.282-1.842,0.518-3.209,0.518c-3.729,0-6.107-2.265-6.107-5.898
			c0-3.373,2.31-6.132,6.604-6.132c0.946,0,1.981,0.166,2.737,0.449l-0.567,2.669c-0.427-0.189-1.062-0.356-2.004-0.356
			c-1.89,0-3.113,1.346-3.091,3.232c0,2.126,1.416,3.231,3.162,3.231c0.847,0,1.504-0.138,2.047-0.354L57.789,32.543z"/>
		<path fill="#6DBD45" d="M70.902,26.929c0,4.225-2.998,6.156-6.084,6.156c-3.373,0-5.971-2.218-5.971-5.944s2.452-6.11,6.155-6.11
			C68.545,21.031,70.902,23.461,70.902,26.929z M62.551,27.045c0,1.982,0.826,3.47,2.357,3.47c1.393,0,2.289-1.396,2.289-3.47
			c0-1.721-0.66-3.468-2.289-3.468C63.189,23.578,62.551,25.347,62.551,27.045z"/>
	</g>
	<g>
		<rect x="21.675" y="33.556" fill="#AC7A3D" width="2.659" height="4.602"/>
		<polygon fill="#6DBD45" points="26.962,28.942 26.719,28.576 29.555,28.576 26.28,23.927 25.555,22.902 27.157,22.902 
			25.081,19.28 23.007,15.661 20.93,19.28 18.856,22.902 20.458,22.902 19.732,23.927 16.457,28.576 19.288,28.576 19.049,28.942 
			15.097,34.986 23.009,34.986 30.914,34.986 		"/>
	</g>
</g>
</svg>
