<?xml version="1.0" encoding="utf-8"?>
<!-- Generator: Adobe Illustrator 16.0.0, SVG Export Plug-In . SVG Version: 6.00 Build 0)  -->
<!DOCTYPE svg PUBLIC "-//W3C//DTD SVG 1.1//EN" "http://www.w3.org/Graphics/SVG/1.1/DTD/svg11.dtd">
<svg version="1.1" id="Layer_1" xmlns="http://www.w3.org/2000/svg" xmlns:xlink="http://www.w3.org/1999/xlink" x="0px" y="0px"
	 width="86px" height="80px" viewBox="0 0 86 80" enable-background="new 0 0 86 80" xml:space="preserve">
<g>
	<g>
		<g>
			<path fill="#F7F2ED" d="M3.999,79c-1.654,0-3-1.343-3-2.994V3.994C1,2.343,2.345,1,3.999,1h78C83.653,1,85,2.343,85,3.994v72.012
				C85,77.657,83.653,79,81.999,79H3.999z"/>
			<path fill="#D1D1D1" d="M81.999,2C83.103,2,84,2.895,84,3.994v72.012c0,1.1-0.897,1.994-2.001,1.994h-78
				c-1.103,0-2-0.895-2-1.994V3.994C2,2.895,2.896,2,3.999,2H81.999 M81.999,0h-78C1.793,0,0,1.792,0,3.994v72.012
				C0,78.209,1.794,80,3.999,80h78C84.205,80,86,78.209,86,76.006V3.994C86,1.792,84.205,0,81.999,0L81.999,0z"/>
		</g>
	</g>
</g>
<path fill="#C59A46" d="M33.888,54.639c0,0-14.446-6.863-9.375-18.603c2.775-6.425,4.836-8.754,4.487-11.938
	c1.048,1.194,1.996,5.373,1.646,7.113c0.035,0.246,3.386-3.878,5.716-7.99c0.966-1.704,3.209-9.419,2.861-11.921
	c1.097,0,7.238,5.37,9.725,8.819c1.146,1.592,3.144,6.516,3.144,6.516s0.498-4.129-0.55-7.063c0.69,0.698,6.533,5.471,8.628,11.539
	c2.096,6.069,2.293,13.678-4.488,19.2c-6.779,5.522-6.283,4.328-6.283,4.328s4.41-7.041,0.6-15.818
	c-2.741-6.316-7.183-9.5-7.183-9.5s0.998,7.659-3.44,11.938c0.301-1.94,0.148-4.427-1.295-6.317c0.247,2.289-1.89,4.802-3.691,7.312
	C32.54,44.829,29.798,49.564,33.888,54.639z"/>
<g>
	<path fill="#374537" d="M31.883,71.131c-0.264,0.202-0.599,0.344-1.004,0.422c-0.405,0.079-0.836,0.119-1.293,0.119
		c-0.555,0-1.075-0.095-1.559-0.283c-0.484-0.188-0.906-0.478-1.267-0.863c-0.361-0.385-0.647-0.879-0.858-1.479
		c-0.211-0.604-0.317-1.313-0.317-2.143c0-0.858,0.116-1.592,0.35-2.19c0.233-0.604,0.541-1.094,0.925-1.478
		c0.382-0.383,0.812-0.659,1.287-0.838c0.476-0.174,0.959-0.262,1.453-0.262c0.528,0,0.959,0.028,1.294,0.084
		c0.334,0.059,0.621,0.135,0.858,0.23l-0.263,0.977c-0.423-0.212-1.026-0.316-1.81-0.316c-0.361,0-0.718,0.064-1.07,0.197
		c-0.352,0.131-0.666,0.348-0.944,0.646c-0.277,0.299-0.5,0.688-0.667,1.173c-0.167,0.481-0.25,1.075-0.25,1.776
		c0,0.634,0.079,1.187,0.238,1.658c0.158,0.477,0.376,0.871,0.653,1.188c0.277,0.316,0.603,0.555,0.978,0.712
		c0.374,0.157,0.78,0.235,1.221,0.235c0.396,0,0.742-0.038,1.037-0.117c0.295-0.078,0.543-0.182,0.746-0.305L31.883,71.131z"/>
	<path fill="#374537" d="M38.972,71.514h-5.466v-9.22h1.096v8.244h4.37V71.514z"/>
	<path fill="#374537" d="M44.802,68.958h-3.39l-0.92,2.556h-1.096l3.499-9.365h0.502l3.514,9.365h-1.162L44.802,68.958z
		 M41.766,68.01h2.708l-1.024-2.805l-0.33-1.396h-0.012l-0.33,1.422L41.766,68.01z"/>
	<path fill="#374537" d="M52.309,69.169c0-0.369-0.108-0.67-0.33-0.901c-0.219-0.23-0.494-0.438-0.824-0.619
		c-0.329-0.181-0.688-0.35-1.075-0.508s-0.746-0.35-1.074-0.572c-0.33-0.223-0.604-0.502-0.825-0.83
		c-0.222-0.327-0.33-0.746-0.33-1.258c0-0.719,0.252-1.291,0.754-1.711c0.5-0.422,1.215-0.633,2.141-0.633
		c0.537,0,1.023,0.038,1.465,0.118c0.438,0.078,0.783,0.179,1.031,0.304l-0.332,0.973c-0.201-0.098-0.498-0.191-0.893-0.282
		c-0.394-0.093-0.834-0.138-1.326-0.138c-0.582,0-1.021,0.132-1.308,0.391c-0.291,0.26-0.438,0.563-0.438,0.915
		c0,0.343,0.111,0.629,0.33,0.854c0.222,0.229,0.496,0.435,0.826,0.611c0.33,0.18,0.688,0.358,1.075,0.533
		c0.388,0.176,0.746,0.38,1.075,0.611c0.33,0.234,0.604,0.514,0.824,0.838c0.222,0.324,0.332,0.729,0.332,1.212
		c0,0.396-0.072,0.75-0.213,1.065c-0.143,0.314-0.348,0.59-0.621,0.814c-0.271,0.229-0.604,0.402-0.988,0.525
		c-0.389,0.121-0.827,0.187-1.32,0.187c-0.66,0-1.205-0.051-1.639-0.149c-0.432-0.104-0.766-0.213-1.004-0.336l0.369-0.977
		c0.203,0.109,0.502,0.223,0.896,0.326c0.396,0.105,0.842,0.158,1.334,0.158c0.291,0,0.563-0.026,0.817-0.086
		c0.257-0.057,0.478-0.146,0.66-0.273c0.187-0.127,0.331-0.288,0.442-0.479C52.253,69.661,52.309,69.434,52.309,69.169z"/>
	<path fill="#374537" d="M59.32,69.169c0-0.369-0.107-0.67-0.33-0.901c-0.221-0.23-0.494-0.438-0.824-0.619
		c-0.332-0.181-0.688-0.35-1.076-0.508c-0.388-0.158-0.744-0.35-1.074-0.572c-0.33-0.221-0.604-0.502-0.826-0.83
		c-0.219-0.327-0.328-0.746-0.328-1.258c0-0.719,0.25-1.291,0.752-1.711c0.503-0.422,1.216-0.633,2.142-0.633
		c0.537,0,1.022,0.038,1.466,0.118c0.438,0.078,0.782,0.179,1.03,0.304l-0.332,0.973c-0.201-0.098-0.5-0.191-0.892-0.282
		c-0.395-0.093-0.836-0.138-1.325-0.138c-0.582,0-1.021,0.132-1.312,0.391c-0.289,0.26-0.438,0.563-0.438,0.915
		c0,0.343,0.111,0.629,0.33,0.854c0.223,0.229,0.496,0.435,0.826,0.611c0.328,0.18,0.688,0.358,1.076,0.533
		c0.387,0.176,0.746,0.38,1.075,0.611c0.33,0.234,0.605,0.514,0.824,0.838c0.222,0.324,0.33,0.729,0.33,1.212
		c0,0.396-0.069,0.75-0.211,1.065c-0.144,0.314-0.351,0.59-0.621,0.814c-0.271,0.229-0.604,0.402-0.987,0.525
		c-0.39,0.121-0.828,0.187-1.322,0.187c-0.66,0-1.205-0.051-1.638-0.149c-0.432-0.104-0.766-0.213-1.004-0.336l0.371-0.977
		c0.201,0.109,0.5,0.223,0.896,0.326c0.396,0.105,0.843,0.158,1.334,0.158c0.291,0,0.563-0.026,0.816-0.086
		c0.256-0.057,0.479-0.146,0.66-0.273c0.186-0.127,0.332-0.288,0.441-0.479C59.266,69.661,59.32,69.434,59.32,69.169z"/>
</g>
</svg>
