<?xml version="1.0" encoding="utf-8"?>
<!-- Generator: Adobe Illustrator 16.0.0, SVG Export Plug-In . SVG Version: 6.00 Build 0)  -->
<!DOCTYPE svg PUBLIC "-//W3C//DTD SVG 1.1//EN" "http://www.w3.org/Graphics/SVG/1.1/DTD/svg11.dtd">
<svg version="1.1" id="Layer_1" xmlns="http://www.w3.org/2000/svg" xmlns:xlink="http://www.w3.org/1999/xlink" x="0px" y="0px"
	 width="86px" height="80px" viewBox="0 0 86 80" enable-background="new 0 0 86 80" xml:space="preserve">
<g>
	<g>
		<path fill="#F7F2ED" d="M4.861,79C2.732,79,1,77.273,1,75.15V4.849C1,2.727,2.732,1,4.861,1h76.277C83.268,1,85,2.727,85,4.849
			V75.15c0,2.123-1.732,3.85-3.862,3.85H4.861z"/>
		<path fill="#D1D1D1" d="M81.138,2C82.716,2,84,3.278,84,4.849V75.15c0,1.571-1.284,2.85-2.862,2.85H4.861
			C3.283,78,2,76.722,2,75.15V4.849C2,3.278,3.283,2,4.861,2H81.138 M81.138,0H4.861C2.175,0,0,2.172,0,4.849V75.15
			C0,77.828,2.175,80,4.861,80h76.277C83.819,80,86,77.83,86,75.15V4.849C86,2.171,83.821,0,81.138,0L81.138,0z"/>
	</g>
</g>
<g>
	<polyline fill="none" stroke="#374537" stroke-linecap="round" stroke-miterlimit="10" points="48.062,52.063 43.01,45.866 
		37.959,52.063 	"/>
	<g enable-background="new    ">
		<path fill="#374537" d="M36.31,67.152v-4.244c0-0.398-0.02-0.748-0.054-1.043s-0.103-0.543-0.203-0.74
			c-0.1-0.199-0.241-0.352-0.427-0.451c-0.186-0.102-0.428-0.146-0.729-0.146c-0.459,0-0.842,0.14-1.146,0.42
			c-0.305,0.277-0.518,0.63-0.639,1.05v5.159h-1.199v-7.5h0.84l0.227,0.916h0.06c0.271-0.319,0.583-0.581,0.938-0.786
			c0.354-0.205,0.816-0.312,1.388-0.312c0.479,0,0.872,0.094,1.178,0.277c0.306,0.188,0.542,0.508,0.712,0.969
			c0.23-0.393,0.547-0.693,0.952-0.916c0.405-0.221,0.862-0.33,1.373-0.33c0.42,0,0.774,0.049,1.065,0.146
			c0.289,0.096,0.528,0.262,0.72,0.502c0.19,0.239,0.327,0.565,0.413,0.978c0.084,0.41,0.127,0.93,0.127,1.559v4.5h-1.2v-4.514
			c0-0.361-0.019-0.674-0.052-0.938c-0.035-0.267-0.105-0.485-0.211-0.66c-0.104-0.176-0.25-0.305-0.436-0.392
			c-0.186-0.084-0.428-0.127-0.729-0.127c-0.5,0-0.889,0.14-1.17,0.42c-0.279,0.277-0.479,0.681-0.601,1.199v5.01h-1.2v-0.004H36.31
			z"/>
		<path fill="#374537" d="M48.489,67.152v-4.244c0-0.398-0.018-0.748-0.053-1.043s-0.104-0.543-0.203-0.74
			c-0.101-0.199-0.242-0.352-0.428-0.451c-0.187-0.102-0.429-0.146-0.728-0.146c-0.463,0-0.845,0.14-1.147,0.42
			c-0.306,0.277-0.519,0.63-0.638,1.05v5.159h-1.201v-7.5h0.843l0.225,0.916h0.061c0.271-0.319,0.582-0.581,0.938-0.786
			s0.817-0.312,1.39-0.312c0.479,0,0.873,0.094,1.178,0.277c0.306,0.184,0.543,0.508,0.713,0.969
			c0.229-0.393,0.547-0.693,0.951-0.916c0.406-0.221,0.863-0.33,1.373-0.33c0.42,0,0.775,0.049,1.063,0.146
			c0.291,0.096,0.53,0.262,0.723,0.502c0.188,0.239,0.328,0.565,0.412,0.978c0.086,0.409,0.127,0.93,0.127,1.559v4.5H52.89v-4.514
			c0-0.361-0.021-0.674-0.054-0.938c-0.035-0.267-0.104-0.485-0.209-0.66c-0.104-0.176-0.25-0.305-0.438-0.392
			c-0.188-0.084-0.43-0.127-0.729-0.127c-0.5,0-0.891,0.14-1.17,0.42c-0.281,0.277-0.479,0.681-0.602,1.199v5.01h-1.199V67.152z"/>
	</g>
	<rect x="1.083" y="30.783" fill="#C99E48" width="83.366" height="12.756"/>
	<polyline fill="none" stroke="#374537" stroke-linecap="round" stroke-miterlimit="10" points="48.062,20.162 43.01,26.357 
		37.959,20.162 	"/>
	<g>
		<polygon fill="#F6F1F2" points="14.072,43.542 7.151,30.783 6.225,30.783 13.146,43.542 		"/>
		<polygon fill="#F6F1F2" points="1.671,30.783 0.746,30.783 7.667,43.542 8.593,43.542 		"/>
		<polygon fill="#F6F1F2" points="2.188,43.542 3.113,43.542 0.462,38.655 0.462,40.362 		"/>
		<polygon fill="#F6F1F2" points="19.552,43.542 12.63,30.783 11.702,30.783 18.626,43.542 		"/>
		<polygon fill="#F6F1F2" points="25.029,43.542 18.111,30.783 17.181,30.783 24.103,43.542 		"/>
		<polygon fill="#F6F1F2" points="30.51,43.542 23.588,30.783 22.661,30.783 29.583,43.542 		"/>
		<polygon fill="#F6F1F2" points="35.987,43.542 29.068,30.783 28.141,30.783 35.063,43.542 		"/>
		<polygon fill="#F6F1F2" points="41.468,43.542 34.546,30.783 33.621,30.783 40.544,43.542 		"/>
		<polygon fill="#F6F1F2" points="46.946,43.542 40.026,30.783 39.099,30.783 46.021,43.542 		"/>
		<polygon fill="#F6F1F2" points="52.423,43.542 45.503,30.783 44.578,30.783 51.5,43.542 		"/>
		<polygon fill="#F6F1F2" points="57.903,43.542 50.983,30.783 50.057,30.783 56.98,43.542 		"/>
		<polygon fill="#F6F1F2" points="63.386,43.542 56.464,30.783 55.537,30.783 62.459,43.542 		"/>
		<polygon fill="#F6F1F2" points="68.861,43.542 61.942,30.783 61.016,30.783 67.941,43.542 		"/>
		<polygon fill="#F6F1F2" points="74.344,43.542 67.42,30.783 66.496,30.783 73.416,43.542 		"/>
		<polygon fill="#F6F1F2" points="79.816,43.542 72.9,30.783 71.975,30.783 78.896,43.542 		"/>
		<polygon fill="#F6F1F2" points="85.299,43.542 78.379,30.783 77.454,30.783 84.376,43.542 		"/>
		<polygon fill="#F6F1F2" points="84.084,31.201 83.857,30.783 82.937,30.783 84.084,32.9 		"/>
	</g>
</g>
<g>
	<g>
		<path fill="#D1D1D1" d="M81.138,2C82.716,2,84,3.278,84,4.849V75.15c0,1.571-1.284,2.85-2.862,2.85H4.861
			C3.283,78,2,76.722,2,75.15V4.849C2,3.278,3.283,2,4.861,2H81.138 M81.138,0H4.861C2.175,0,0,2.172,0,4.849V75.15
			C0,77.828,2.175,80,4.861,80h76.277C83.819,80,86,77.83,86,75.15V4.849C86,2.171,83.821,0,81.138,0L81.138,0z"/>
	</g>
</g>
</svg>
