<?xml version="1.0" encoding="utf-8"?>
<!-- Generator: Adobe Illustrator 16.0.0, SVG Export Plug-In . SVG Version: 6.00 Build 0)  -->
<!DOCTYPE svg PUBLIC "-//W3C//DTD SVG 1.1//EN" "http://www.w3.org/Graphics/SVG/1.1/DTD/svg11.dtd">
<svg version="1.1" id="Layer_1" xmlns="http://www.w3.org/2000/svg" xmlns:xlink="http://www.w3.org/1999/xlink" x="0px" y="0px"
	 width="86px" height="98px" viewBox="0 0 86 98" enable-background="new 0 0 86 98" xml:space="preserve">
<g>
	<circle fill="none" stroke="#FFFFFF" stroke-width="2" stroke-miterlimit="10" cx="43.849" cy="49.54" r="22.588"/>
	<g>
		<path fill="#FFFFFF" stroke="#FFFFFF" stroke-width="0.75" stroke-miterlimit="10" d="M21.808,54.502
			c3.202-3.486,7.807-5.441,12.509-4.586c9.532,1.727,11.165,20.961,16.956,20.961l1.432-0.543
			c-5.749-0.041-7.691-20.145-18.146-21.941c-4.857-0.832-9.549,1.342-13.015,4.727L21.808,54.502z"/>
	</g>
	<path fill="#FFFFFF" stroke="#FFFFFF" stroke-width="0.75" stroke-miterlimit="10" d="M37.792,71.305
		c-4.521-2.743-5.442-13.105-1.938-24.226c3.599-11.427,10.564-19.513,15.897-18.706l-1.305-0.439
		c-5.337-0.811-12.295,7.271-15.893,18.695c-3.533,11.213-2.564,21.661,2.055,24.297L37.792,71.305z"/>
	<g>
		<path fill="#FFFFFF" stroke="#FFFFFF" stroke-width="0.75" stroke-miterlimit="10" d="M33.644,29.391
			c1.561,3.238,3.19,5.606,6.713,7.041c6.092,2.475,14.271-2.26,20.383-1.678l1.098,1.01c-9.134,0.834-15.37,4.822-22.065,2.096
			c-3.869-1.573-5.755-4.194-7.467-7.74L33.644,29.391z"/>
	</g>
	<g>
		<path fill="#FFFFFF" stroke="#FFFFFF" stroke-width="0.75" stroke-miterlimit="10" d="M64.81,57.956
			c-3.521-3.297-10.726-8.216-18.688-12.572c-10.929-5.975-21.08-8.476-22.712-5.513l-0.599,1.39
			c1.633-2.967,11.718-0.477,22.583,5.447c7.899,4.308,15.354,9.384,18.716,12.829L64.81,57.956z"/>
	</g>
</g>
</svg>
