<?xml version="1.0" encoding="utf-8"?>
<!-- Generator: Adobe Illustrator 16.0.0, SVG Export Plug-In . SVG Version: 6.00 Build 0)  -->
<!DOCTYPE svg PUBLIC "-//W3C//DTD SVG 1.1//EN" "http://www.w3.org/Graphics/SVG/1.1/DTD/svg11.dtd">
<svg version="1.1" id="Layer_1" xmlns="http://www.w3.org/2000/svg" xmlns:xlink="http://www.w3.org/1999/xlink" x="0px" y="0px"
	 width="86px" height="98px" viewBox="0 0 86 98" enable-background="new 0 0 86 98" xml:space="preserve">
<g>
	<g>
		
			<rect x="12.316" y="68.994" fill="none" stroke="#FFFFFF" stroke-width="2" stroke-linecap="round" stroke-linejoin="round" stroke-miterlimit="10" width="8.24" height="8.241"/>
		
			<rect x="23.539" y="68.994" fill="none" stroke="#FFFFFF" stroke-width="2" stroke-linecap="round" stroke-linejoin="round" stroke-miterlimit="10" width="8.24" height="8.241"/>
		
			<rect x="18.41" y="57.864" fill="none" stroke="#FFFFFF" stroke-width="2" stroke-linecap="round" stroke-linejoin="round" stroke-miterlimit="10" width="8.24" height="8.239"/>
		
			<polygon fill="none" stroke="#FFFFFF" stroke-width="2" stroke-linecap="round" stroke-linejoin="round" stroke-miterlimit="10" points="
			20.557,55.463 25.374,48.627 30.191,55.463 		"/>
	</g>
	
		<circle fill="none" stroke="#FFFFFF" stroke-width="2" stroke-linecap="round" stroke-linejoin="round" stroke-miterlimit="10" cx="52.906" cy="28.102" r="8.229"/>
	<g>
		<path fill="none" stroke="#FFFFFF" stroke-width="2" stroke-linecap="round" stroke-linejoin="round" stroke-miterlimit="10" d="
			M44.717,30.06c0.173,0.63-0.201,1.28-0.833,1.453l0,0c-0.628,0.168-1.278-0.204-1.45-0.835l-0.687-2.534
			c-0.17-0.632,0.201-1.282,0.833-1.453l0,0c0.63-0.17,1.279,0.204,1.45,0.833L44.717,30.06z"/>
		
			<polyline fill="none" stroke="#FFFFFF" stroke-width="2" stroke-linecap="round" stroke-linejoin="round" stroke-miterlimit="10" points="
			41.748,28.143 34.427,29.1 37.948,37.064 43.231,31.693 		"/>
	</g>
	<g>
		<path fill="none" stroke="#FFFFFF" stroke-width="2" stroke-linecap="round" stroke-linejoin="round" stroke-miterlimit="10" d="
			M61.065,30.06c-0.173,0.63,0.202,1.28,0.833,1.453l0,0c0.627,0.168,1.278-0.204,1.448-0.835l0.688-2.534
			c0.169-0.632-0.204-1.282-0.832-1.453l0,0c-0.631-0.17-1.282,0.204-1.451,0.833L61.065,30.06z"/>
		
			<polygon fill="none" stroke="#FFFFFF" stroke-width="2" stroke-linecap="round" stroke-linejoin="round" stroke-miterlimit="10" points="
			64.034,28.143 71.115,27.671 68.692,35.716 63.087,31.459 		"/>
	</g>
	<g>
		<path fill="none" stroke="#FFFFFF" stroke-width="2" stroke-linecap="round" stroke-linejoin="round" stroke-miterlimit="10" d="
			M68.637,69.366H37.178l11.04-29.04c0,0,0.352-1.443,4.689-1.443c4.337,0,4.691,1.443,4.691,1.443L68.637,69.366z"/>
		<path fill="none" stroke="#FFFFFF" stroke-width="2" stroke-linecap="round" stroke-linejoin="round" stroke-miterlimit="10" d="
			M59.749,45.713l8.309,4.9c1.509,0.892,3.217,0.707,3.818-0.41l0,0c0.602-1.115-0.138-2.744-1.642-3.635l-10.616-6.258
			c-1.012-0.625-1.801-0.483-2.374-0.513"/>
		<path fill="none" stroke="#FFFFFF" stroke-width="2" stroke-linecap="round" stroke-linejoin="round" stroke-miterlimit="10" d="
			M46.066,45.713l-8.31,4.9c-1.509,0.892-3.218,0.707-3.82-0.41l0,0c-0.601-1.115,0.14-2.744,1.644-3.635l10.615-6.258
			c1.011-0.625,1.801-0.483,2.374-0.513"/>
	</g>
	<g>
		<path fill="none" stroke="#FFFFFF" stroke-width="2" stroke-linecap="round" stroke-linejoin="round" stroke-miterlimit="10" d="
			M51.354,69.535v5.077c0,1.449-1.036,2.623-2.313,2.623l0,0c-1.278,0-2.314-1.174-2.314-2.623v-5.077"/>
		<path fill="none" stroke="#FFFFFF" stroke-width="2" stroke-linecap="round" stroke-linejoin="round" stroke-miterlimit="10" d="
			M59.088,69.535v5.077c0,1.449-1.037,2.623-2.313,2.623l0,0c-1.279,0-2.314-1.174-2.314-2.623v-5.077"/>
	</g>
</g>
</svg>
