<?xml version="1.0" encoding="utf-8"?>
<!-- Generator: Adobe Illustrator 16.0.0, SVG Export Plug-In . SVG Version: 6.00 Build 0)  -->
<!DOCTYPE svg PUBLIC "-//W3C//DTD SVG 1.1//EN" "http://www.w3.org/Graphics/SVG/1.1/DTD/svg11.dtd">
<svg version="1.1" id="Layer_1" xmlns="http://www.w3.org/2000/svg" xmlns:xlink="http://www.w3.org/1999/xlink" x="0px" y="0px"
	 width="36px" height="28px" viewBox="0 0 36 28" enable-background="new 0 0 36 28" xml:space="preserve">
<path fill="#E6E5E5" d="M34.877,23.993c-1.235,0.772-6.257,1.005-7.474,0.119c-0.669-0.482-3.544-3.717-3.842-4.073
	c-0.505-0.591-1.284-1.097-1.897-0.369c-0.928,1.091,0.142,3.465-1.094,4.277c-0.416,0.273-0.833,0.354-1.35,0.314
	c0,0-2.886,0.073-3.652-0.065c-0.854-0.154-1.725-0.456-2.686-1.033c-1.375-0.826-3.135-2.105-4.198-3.333
	C5.79,16.485,2.527,12.526,1.018,8.322C0.707,7.458-0.114,5.747,0.665,5.007C1.722,4.238,6.914,4.021,7.723,5.21
	c0.329,0.483,0.889,2.022,1.121,2.569c0.291,0.683,2.268,4.296,2.692,4.903c0.287,0.412,1.124,1.126,1.603,1.186
	c0.44,0.057,0.59-0.446,0.745-0.961c0.257-0.858,0.049-3.95,0.071-4.629c0.02-0.579,0.071-1.396-0.272-1.87
	c-0.559-0.771-1.805-0.193-1.902-1.23c0.206-0.295,0.163-0.555,1.537-1.009c1.083-0.355,1.779-0.28,2.496-0.287
	c1.525-0.014,2.998-0.277,4.402,0.194c1.345,0.453,1.138,2.36,1.091,3.504c-0.058,1.56,0.006,3.083,0,4.667
	c-0.002,0.72-0.009,1.616,0.872,1.557c0.823-0.055,1.016-0.87,1.41-1.442c0.548-0.798,2.454-4.756,3.162-5.856
	C27,6.112,27.218,5.274,27.608,4.962c0.294-0.236,0.854-0.112,1.211-0.112c0,0,4.866-0.169,5.819-0.035
	c4.111,0.581-5.169,9.372-4.687,10.942c0.335,1.083,2.451,2.294,3.217,3.182C34.183,20.124,37.306,22.472,34.877,23.993z"/>
</svg>
