<?xml version="1.0" encoding="utf-8"?>
<!-- Generator: Adobe Illustrator 16.0.0, SVG Export Plug-In . SVG Version: 6.00 Build 0)  -->
<!DOCTYPE svg PUBLIC "-//W3C//DTD SVG 1.1//EN" "http://www.w3.org/Graphics/SVG/1.1/DTD/svg11.dtd">
<svg version="1.1" id="Layer_1" xmlns="http://www.w3.org/2000/svg" xmlns:xlink="http://www.w3.org/1999/xlink" x="0px" y="0px"
	 width="86px" height="80px" viewBox="0 0 86 80" enable-background="new 0 0 86 80" xml:space="preserve">
<g>
	<g>
		<path fill="#F7F2ED" d="M927.476,261.369c0,2.68-2.182,4.85-4.861,4.85h-76.275c-2.688,0-4.858-2.172-4.858-4.85v-70.303
			c0-2.678,2.175-4.852,4.858-4.852h76.275c2.684,0,4.861,2.171,4.861,4.852V261.369L927.476,261.369z"/>
	</g>
	<g>
		<g>
			<path fill="#D1D1D1" d="M922.612,188.217c1.578,0,2.861,1.279,2.861,2.852v70.303c0,1.57-1.283,2.854-2.861,2.854h-76.275
				c-1.576,0-2.859-1.279-2.859-2.854v-70.303c0-1.569,1.283-2.852,2.859-2.852H922.612 M922.612,186.217h-76.275
				c-2.688,0-4.859,2.172-4.859,4.852v70.303c0,2.68,2.176,4.854,4.859,4.854h76.275c2.682,0,4.861-2.172,4.861-4.854v-70.303
				C927.476,188.389,925.296,186.217,922.612,186.217L922.612,186.217z"/>
		</g>
	</g>
</g>
<g>
	<path fill="#FFFFFF" d="M899.688,244.623l-0.453,0.148c-5.728,1.871-11.731,0.584-15.675-3.357
		c-4.211-4.211-5.337-10.773-2.982-16.709l-15.743-15.742l10.332-10.333l15.743,15.743c5.935-2.352,12.498-1.227,16.708,2.984
		c3.939,3.939,5.229,9.947,3.356,15.672l-0.146,0.455L899.688,244.623z"/>
	<path fill="#D1D1D1" d="M898.612,242.871l10.461-10.461c1.583-4.846,0.669-10.1-2.871-13.639
		c-4.061-4.06-10.372-4.668-15.738-2.016l-15.299-15.299l-7.504,7.504l15.299,15.3c-2.652,5.364-2.044,11.681,2.015,15.737
		C888.514,243.539,893.768,244.453,898.612,242.871z"/>
	
		<rect x="863.208" y="202.887" transform="matrix(0.7071 -0.7071 0.7071 0.7071 110.798 674.7614)" fill="#B2ADAD" width="13.28" height="1.516"/>
	
		<line fill="none" stroke="#FFFFFF" stroke-width="0.4255" stroke-miterlimit="10" x1="869.469" y1="209.939" x2="873.128" y2="206.282"/>
	
		<line fill="none" stroke="#FFFFFF" stroke-width="0.4255" stroke-miterlimit="10" x1="873.018" y1="213.488" x2="876.677" y2="209.831"/>
	
		<line fill="none" stroke="#FFFFFF" stroke-width="0.4255" stroke-miterlimit="10" x1="876.566" y1="217.038" x2="880.225" y2="213.38"/>
	
		<line fill="none" stroke="#FFFFFF" stroke-width="0.4255" stroke-miterlimit="10" x1="880.115" y1="220.587" x2="883.773" y2="216.928"/>
	
		<line fill="none" stroke="#FFFFFF" stroke-width="0.3723" stroke-miterlimit="10" x1="871.15" y1="211.809" x2="873.449" y2="209.512"/>
	
		<line fill="none" stroke="#FFFFFF" stroke-width="0.3723" stroke-miterlimit="10" x1="874.698" y1="215.355" x2="876.997" y2="213.059"/>
	
		<line fill="none" stroke="#FFFFFF" stroke-width="0.3723" stroke-miterlimit="10" x1="878.247" y1="218.904" x2="880.545" y2="216.607"/>
	<path fill="#E5BB70" d="M883.48,229.333c-0.455,3.478,0.549,6.894,2.906,9.253c1.956,1.956,4.655,3.033,7.602,3.033
		c0,0,0,0,0.001,0c1.188,0,2.383-0.174,3.56-0.514l9.76-9.76c0.194-0.673,0.313-1.345,0.396-2.015L883.48,229.333L883.48,229.333z"
		/>
</g>
<g>
	<rect x="843.531" y="249.309" fill="#D1D1D1" width="81.891" height="7.017"/>
</g>
<path fill="#E5BB70" d="M863.348,211.958l1.942,3.364c0,0,1.652,2.924,1.943,3.962c0.29,1.036,0.29,4.766-4.035,4.766
	c-4.324,0-4.19-3.716-3.735-4.766s1.941-3.962,1.941-3.962L863.348,211.958z"/>
<g>
	<path fill="#E5BB70" d="M877,247.309V246.5c0-1.104-0.896-2-2-2h-21.5c-1.104,0-2,0.896-2,2v0.809H877z"/>
</g>
<g>
	<g>
		<path fill="#F7F2ED" d="M4.861,79c-2.129,0-3.859-1.729-3.859-3.848V4.846c0-2.121,1.73-3.851,3.859-3.851h76.279
			C83.271,0.996,85,2.725,85,4.846v70.306C85,77.271,83.271,79,81.143,79H4.861z"/>
		<path fill="#D1D1D1" d="M81.143,2C82.719,2,84,3.277,84,4.849v70.303C84,76.723,82.719,78,81.143,78H4.861
			c-1.577,0-2.859-1.277-2.859-2.848V4.849C2.002,3.277,3.284,2,4.861,2H81.143 M81.143,0H4.861c-2.686,0-4.859,2.172-4.859,4.85
			v70.303C0.002,77.828,2.178,80,4.861,80h76.279C83.826,80,86,77.828,86,75.152V4.849C86,2.171,83.826,0,81.143,0L81.143,0z"/>
	</g>
</g>
<g>
	<path fill="#C99E48" d="M74.17,49.336c0,0.297-0.215,0.537-0.479,0.537H13.809c-0.265,0-0.48-0.24-0.48-0.537v-2.152
		c0-0.296,0.216-0.537,0.48-0.537h59.883c0.264,0,0.479,0.241,0.479,0.537V49.336z"/>
	<path fill="#D1D1D1" d="M74.17,54.355c0,0.297-0.215,0.539-0.479,0.539H13.809c-0.265,0-0.48-0.242-0.48-0.539v-2.151
		c0-0.296,0.216-0.536,0.48-0.536h59.883c0.264,0,0.479,0.24,0.479,0.536V54.355z"/>
	<g>
		<path fill="#C99E48" d="M29.82,43.171c0.361,0.276,0.887,0.837,1.094,1.022c0.787,0.696,0.428,0.805,0.428,0.803l-3.225-0.017
			c0,0-1.193,0.353-0.4-2.092C28.24,41.278,28.406,42.092,29.82,43.171z"/>
		<path fill="#C99E48" d="M34.244,35.56c-1.799-1.063-4.918-2.08-5.477-2.081c-0.639,0-0.381,2.318,0.387,2.824
			c0.703,0.462,1.936,1.326,3.404,3.092c0.75,0.904,0.984,1.299,1.238,1.239c0.311-1.271,0.48-2.634,0.48-4.051
			C34.277,36.237,34.264,35.897,34.244,35.56z"/>
		<path fill="#C99E48" d="M20.879,36.109c0.102-0.921,0.281-1.773,0.525-2.525c0.035-0.106-0.061-0.464-0.146-0.543
			c-0.383-0.355-0.781-0.742-1.195-1.178c-1.328-1.401-1.83-2.188-2.133-2.587c-0.611,1.201-1.078,2.56-1.359,4.023
			c0.992,0.877,2.533,2.07,4.043,3.061C20.689,36.41,20.863,36.241,20.879,36.109z"/>
		<path fill="#C99E48" d="M26.666,31.015c-0.104,0.315,0.877,1.467,2.102,1.602c1.643,0.18,4.234,1.118,5.352,1.626
			c-0.24-1.797-0.754-3.459-1.479-4.9c-0.668-0.227-1.367-0.378-2.006-0.439C28.477,28.695,26.881,30.369,26.666,31.015z"/>
		<path fill="#C99E48" d="M23.623,30.046c0.086,0.213,0.115,0.477,0.801,0.307c0.318-0.078,0.578-0.078,0.758-0.059
			c0.18,0.02,0.455-0.072,0.533-0.134c1.33-1.034,1.244-1.226,2.586-2.102c1.074-0.702,2.275-0.654,3.305-0.435
			c-1.355-1.876-3.133-3.153-5.115-3.529c-1.283,0.754-2.184,1.698-2.689,2.969C23.428,28.003,23.395,29.464,23.623,30.046z"/>
		<path fill="#C99E48" d="M22.049,32.09c0.244-0.43,0.516-0.788,0.807-1.06c0.049-0.045,0.094-0.284,0.037-0.48
			c-0.225-0.785-0.658-2.934,0.559-4.947c0.367-0.607,1.072-1.167,1.609-1.619c-2.629,0.083-4.979,1.741-6.588,4.328
			c0.094,0.19,0.197,0.386,0.318,0.592c0.744,1.249,1.936,2.426,2.934,3.289C21.787,32.246,22,32.174,22.049,32.09z"/>
		<path fill="#C99E48" d="M16.682,38.857c0.822,0.688,2.65,1.597,4.273,2.257c0.066,0.026,0.137-0.188,0.109-0.322
			c-0.18-0.903-0.283-1.899-0.283-2.947c0-0.115-0.146-0.437-0.223-0.485c-1.861-1.179-3.586-2.541-4.156-2.999
			c-0.092,0.721-0.143,1.463-0.143,2.222c0,0.66,0.037,1.308,0.107,1.941C16.467,38.648,16.57,38.763,16.682,38.857z"/>
		<path fill="#C99E48" d="M22.799,44.611c-0.49-0.482-0.922-1.212-1.258-2.115c-0.029-0.076-0.184-0.265-0.234-0.28
			c-2.393-0.767-3.783-1.509-4.146-1.7c-0.113-0.059-0.225,0.172-0.311,0.554c0.43,1.575,1.076,2.997,1.893,4.196
			c1.238,0.012,2.963-0.076,4.105-0.145C23.074,45.107,23.008,44.813,22.799,44.611z"/>
		<path fill="#C99E48" d="M32.471,40.732c-0.783-0.771-2.082-2.503-2.855-2.956c-0.691-0.405-0.525-0.408-0.846,0.721
			c-0.219,0.771-0.465,1.421-0.529,1.827c-0.119,0.739,1.045,1.351,2.238,2.563c0.871,0.886,1.395,1.415,1.766,1.671
			c0.475-0.813,0.877-1.709,1.195-2.674C33.186,41.482,32.838,41.094,32.471,40.732z"/>
	</g>
	<g>
		<path fill="#C99E48" d="M66.594,43.171c0.361,0.276,0.885,0.837,1.094,1.022c0.787,0.696,0.428,0.805,0.428,0.803l-3.225-0.017
			c0,0-1.193,0.353-0.398-2.092C65.014,41.278,65.18,42.092,66.594,43.171z"/>
		<path fill="#C99E48" d="M71.02,35.56c-1.801-1.063-4.92-2.08-5.477-2.081c-0.641,0-0.381,2.318,0.387,2.824
			c0.701,0.462,1.934,1.326,3.402,3.092c0.75,0.904,0.984,1.299,1.24,1.239c0.309-1.271,0.479-2.634,0.479-4.051
			C71.051,36.237,71.039,35.897,71.02,35.56z"/>
		<path fill="#C99E48" d="M57.652,36.109c0.102-0.921,0.281-1.773,0.527-2.525c0.033-0.106-0.063-0.464-0.148-0.543
			c-0.385-0.355-0.781-0.742-1.195-1.178c-1.328-1.401-1.828-2.188-2.133-2.587c-0.611,1.201-1.078,2.56-1.359,4.023
			c0.992,0.877,2.533,2.07,4.043,3.061C57.465,36.41,57.639,36.241,57.652,36.109z"/>
		<path fill="#C99E48" d="M63.439,31.015c-0.104,0.315,0.879,1.467,2.104,1.602c1.641,0.18,4.232,1.118,5.35,1.626
			c-0.24-1.797-0.754-3.459-1.479-4.9c-0.668-0.227-1.367-0.378-2.008-0.439C65.25,28.695,63.656,30.369,63.439,31.015z"/>
		<path fill="#C99E48" d="M60.398,30.046c0.084,0.213,0.113,0.477,0.799,0.307c0.318-0.078,0.578-0.078,0.758-0.059
			c0.18,0.02,0.455-0.072,0.535-0.134c1.33-1.034,1.242-1.226,2.584-2.102c1.074-0.702,2.275-0.654,3.305-0.435
			c-1.354-1.876-3.131-3.153-5.113-3.529c-1.285,0.754-2.184,1.698-2.691,2.969C60.201,28.003,60.168,29.464,60.398,30.046z"/>
		<path fill="#C99E48" d="M58.822,32.09c0.244-0.43,0.516-0.788,0.807-1.06c0.051-0.045,0.094-0.284,0.037-0.48
			c-0.225-0.785-0.658-2.934,0.559-4.947c0.367-0.607,1.072-1.167,1.609-1.619c-2.629,0.083-4.979,1.741-6.588,4.328
			c0.096,0.19,0.197,0.386,0.32,0.592c0.742,1.249,1.934,2.426,2.932,3.289C58.561,32.246,58.775,32.174,58.822,32.09z"/>
		<path fill="#C99E48" d="M53.455,38.857c0.822,0.688,2.65,1.597,4.273,2.257c0.066,0.026,0.139-0.188,0.111-0.322
			c-0.182-0.903-0.285-1.899-0.285-2.947c0-0.115-0.145-0.437-0.223-0.485c-1.859-1.179-3.586-2.541-4.156-2.999
			c-0.092,0.721-0.143,1.463-0.143,2.222c0,0.66,0.037,1.308,0.107,1.941C53.24,38.648,53.342,38.763,53.455,38.857z"/>
		<path fill="#C99E48" d="M59.574,44.611c-0.494-0.482-0.924-1.212-1.26-2.115c-0.027-0.076-0.184-0.265-0.234-0.28
			c-2.393-0.767-3.783-1.509-4.145-1.7c-0.113-0.059-0.227,0.172-0.313,0.554c0.43,1.575,1.078,2.997,1.893,4.196
			c1.238,0.012,2.963-0.076,4.105-0.145C59.85,45.107,59.781,44.813,59.574,44.611z"/>
		<path fill="#C99E48" d="M69.244,40.732c-0.783-0.771-2.082-2.503-2.855-2.956c-0.691-0.405-0.523-0.408-0.844,0.721
			c-0.221,0.771-0.465,1.421-0.531,1.827c-0.119,0.739,1.045,1.351,2.238,2.563c0.871,0.886,1.395,1.415,1.766,1.671
			c0.475-0.813,0.879-1.709,1.197-2.674C69.959,41.482,69.611,41.094,69.244,40.732z"/>
	</g>
	<g>
		<path fill="#986F2B" d="M47.133,43.582c0.291,0.223,0.711,0.672,0.879,0.82c0.633,0.561,0.344,0.648,0.344,0.648l-2.592-0.016
			c0,0-0.961,0.283-0.322-1.682C45.861,42.061,45.996,42.715,47.133,43.582z"/>
		<path fill="#986F2B" d="M50.689,37.464c-1.445-0.854-3.955-1.672-4.402-1.673c-0.516-0.001-0.307,1.864,0.311,2.271
			c0.564,0.37,1.555,1.064,2.736,2.485c0.604,0.727,0.791,1.044,0.996,0.996c0.25-1.022,0.385-2.117,0.385-3.258
			C50.715,38.008,50.705,37.735,50.689,37.464z"/>
		<path fill="#986F2B" d="M39.945,37.906c0.082-0.741,0.227-1.426,0.422-2.03c0.029-0.085-0.049-0.374-0.115-0.437
			c-0.311-0.285-0.629-0.596-0.963-0.946c-1.068-1.127-1.471-1.76-1.715-2.081c-0.49,0.967-0.865,2.058-1.092,3.235
			c0.797,0.705,2.035,1.664,3.25,2.46C39.793,38.146,39.934,38.012,39.945,37.906z"/>
		<path fill="#986F2B" d="M44.598,33.811c-0.084,0.254,0.705,1.179,1.689,1.287c1.32,0.146,3.402,0.9,4.303,1.308
			c-0.195-1.444-0.607-2.781-1.191-3.939c-0.535-0.183-1.098-0.304-1.611-0.353C46.053,31.947,44.771,33.292,44.598,33.811z"/>
		<path fill="#986F2B" d="M42.152,33.032c0.068,0.171,0.092,0.383,0.645,0.247c0.254-0.063,0.463-0.063,0.607-0.047
			c0.145,0.015,0.365-0.059,0.43-0.109c1.068-0.83,0.998-0.986,2.076-1.689c0.865-0.563,1.832-0.525,2.658-0.348
			c-1.09-1.508-2.52-2.535-4.111-2.838c-1.033,0.607-1.756,1.365-2.162,2.387C41.994,31.39,41.969,32.564,42.152,33.032z"/>
		<path fill="#986F2B" d="M40.885,34.675c0.197-0.345,0.414-0.633,0.65-0.853c0.039-0.036,0.074-0.227,0.029-0.386
			c-0.18-0.63-0.529-2.358,0.447-3.976c0.297-0.489,0.863-0.938,1.295-1.302c-2.113,0.067-4,1.4-5.295,3.479
			c0.074,0.153,0.158,0.311,0.256,0.477c0.598,1.003,1.557,1.95,2.357,2.644C40.676,34.8,40.848,34.743,40.885,34.675z"/>
		<path fill="#986F2B" d="M36.57,40.115c0.662,0.553,2.131,1.283,3.436,1.813c0.055,0.022,0.109-0.148,0.088-0.259
			c-0.145-0.726-0.227-1.524-0.227-2.368c0-0.093-0.119-0.352-0.18-0.391c-1.494-0.947-2.883-2.042-3.34-2.411
			c-0.074,0.581-0.113,1.177-0.113,1.786c0,0.532,0.027,1.053,0.084,1.563C36.398,39.945,36.48,40.039,36.57,40.115z"/>
		<path fill="#986F2B" d="M41.488,44.74c-0.395-0.388-0.74-0.975-1.01-1.701c-0.023-0.061-0.148-0.213-0.189-0.225
			c-1.924-0.615-3.041-1.213-3.332-1.365c-0.092-0.049-0.18,0.137-0.25,0.443c0.344,1.267,0.865,2.41,1.521,3.375
			c0.994,0.009,2.383-0.063,3.301-0.117C41.711,45.139,41.656,44.902,41.488,44.74z"/>
		<path fill="#986F2B" d="M49.264,41.622c-0.629-0.618-1.674-2.013-2.295-2.376c-0.555-0.325-0.422-0.328-0.68,0.58
			c-0.176,0.621-0.375,1.141-0.428,1.469c-0.094,0.595,0.842,1.085,1.801,2.059c0.701,0.713,1.121,1.139,1.418,1.346
			c0.383-0.654,0.705-1.376,0.963-2.15C49.838,42.225,49.559,41.912,49.264,41.622z"/>
	</g>
</g>
</svg>
