<?xml version="1.0" encoding="utf-8"?>
<!-- Generator: Adobe Illustrator 16.0.0, SVG Export Plug-In . SVG Version: 6.00 Build 0)  -->
<!DOCTYPE svg PUBLIC "-//W3C//DTD SVG 1.1//EN" "http://www.w3.org/Graphics/SVG/1.1/DTD/svg11.dtd">
<svg version="1.1" id="Layer_1" xmlns="http://www.w3.org/2000/svg" xmlns:xlink="http://www.w3.org/1999/xlink" x="0px" y="0px"
	 width="86px" height="80px" viewBox="0 0 86 80" enable-background="new 0 0 86 80" xml:space="preserve">
<g>
	<g>
		<path fill="#F7F2ED" d="M927.476,261.369c0,2.68-2.182,4.85-4.861,4.85h-76.275c-2.688,0-4.858-2.172-4.858-4.85v-70.303
			c0-2.678,2.175-4.852,4.858-4.852h76.275c2.684,0,4.861,2.171,4.861,4.852V261.369L927.476,261.369z"/>
	</g>
	<g>
		<g>
			<path fill="#D1D1D1" d="M922.612,188.217c1.578,0,2.861,1.279,2.861,2.852v70.303c0,1.57-1.283,2.854-2.861,2.854h-76.275
				c-1.576,0-2.859-1.279-2.859-2.854v-70.303c0-1.569,1.283-2.852,2.859-2.852H922.612 M922.612,186.217h-76.275
				c-2.688,0-4.859,2.172-4.859,4.852v70.303c0,2.68,2.176,4.854,4.859,4.854h76.275c2.682,0,4.861-2.172,4.861-4.854v-70.303
				C927.476,188.389,925.296,186.217,922.612,186.217L922.612,186.217z"/>
		</g>
	</g>
</g>
<g>
	<path fill="#FFFFFF" d="M899.688,244.623l-0.453,0.148c-5.728,1.871-11.731,0.584-15.675-3.357
		c-4.211-4.211-5.337-10.773-2.982-16.709l-15.743-15.742l10.332-10.333l15.743,15.743c5.935-2.352,12.498-1.227,16.708,2.984
		c3.939,3.939,5.229,9.947,3.356,15.672l-0.146,0.455L899.688,244.623z"/>
	<path fill="#D1D1D1" d="M898.612,242.871l10.461-10.461c1.583-4.846,0.669-10.1-2.871-13.639
		c-4.061-4.06-10.372-4.668-15.738-2.016l-15.299-15.299l-7.504,7.504l15.299,15.3c-2.652,5.364-2.044,11.681,2.015,15.737
		C888.514,243.539,893.768,244.453,898.612,242.871z"/>
	
		<rect x="863.208" y="202.887" transform="matrix(0.7071 -0.7071 0.7071 0.7071 110.798 674.7614)" fill="#B2ADAD" width="13.28" height="1.516"/>
	
		<line fill="none" stroke="#FFFFFF" stroke-width="0.4255" stroke-miterlimit="10" x1="869.469" y1="209.939" x2="873.128" y2="206.282"/>
	
		<line fill="none" stroke="#FFFFFF" stroke-width="0.4255" stroke-miterlimit="10" x1="873.018" y1="213.488" x2="876.677" y2="209.831"/>
	
		<line fill="none" stroke="#FFFFFF" stroke-width="0.4255" stroke-miterlimit="10" x1="876.566" y1="217.038" x2="880.225" y2="213.38"/>
	
		<line fill="none" stroke="#FFFFFF" stroke-width="0.4255" stroke-miterlimit="10" x1="880.115" y1="220.587" x2="883.773" y2="216.928"/>
	
		<line fill="none" stroke="#FFFFFF" stroke-width="0.3723" stroke-miterlimit="10" x1="871.15" y1="211.809" x2="873.449" y2="209.512"/>
	
		<line fill="none" stroke="#FFFFFF" stroke-width="0.3723" stroke-miterlimit="10" x1="874.698" y1="215.355" x2="876.997" y2="213.059"/>
	
		<line fill="none" stroke="#FFFFFF" stroke-width="0.3723" stroke-miterlimit="10" x1="878.247" y1="218.904" x2="880.545" y2="216.607"/>
	<path fill="#E5BB70" d="M883.48,229.333c-0.455,3.478,0.549,6.894,2.906,9.253c1.956,1.956,4.655,3.033,7.602,3.033
		c0,0,0,0,0.001,0c1.188,0,2.383-0.174,3.56-0.514l9.76-9.76c0.194-0.673,0.313-1.345,0.396-2.015L883.48,229.333L883.48,229.333z"
		/>
</g>
<g>
	<rect x="843.531" y="249.309" fill="#D1D1D1" width="81.891" height="7.017"/>
</g>
<path fill="#E5BB70" d="M863.348,211.958l1.942,3.364c0,0,1.652,2.924,1.943,3.962c0.29,1.036,0.29,4.766-4.035,4.766
	c-4.324,0-4.19-3.716-3.735-4.766s1.941-3.962,1.941-3.962L863.348,211.958z"/>
<g>
	<path fill="#E5BB70" d="M877,247.309V246.5c0-1.104-0.896-2-2-2h-21.5c-1.104,0-2,0.896-2,2v0.809H877z"/>
</g>
<g>
	<g>
		<path fill="#F7F2ED" d="M4.861,78.999c-2.129,0-3.859-1.728-3.859-3.848V4.846c0-2.121,1.73-3.851,3.859-3.851h76.28
			C83.271,0.995,85,2.725,85,4.846v70.306c0,2.12-1.729,3.848-3.857,3.848H4.861z"/>
		<path fill="#D1D1D1" d="M81.143,1.999c1.576,0,2.857,1.277,2.857,2.85v70.303c0,1.57-1.281,2.848-2.857,2.848H4.861
			c-1.576,0-2.859-1.276-2.859-2.848V4.849c0-1.572,1.283-2.85,2.859-2.85H81.143 M81.143-0.001H4.861
			c-2.685,0-4.859,2.172-4.859,4.85v70.303C0.001,77.827,2.177,80,4.861,80h76.28C83.826,80,86,77.827,86,75.151V4.849
			C86,2.171,83.826-0.001,81.143-0.001L81.143-0.001z"/>
	</g>
</g>
<path fill="#C99E48" d="M74.17,49.335c0,0.297-0.215,0.538-0.479,0.538H13.808c-0.264,0-0.479-0.241-0.479-0.538v-2.151
	c0-0.297,0.216-0.538,0.479-0.538h59.883c0.264,0,0.479,0.241,0.479,0.538V49.335z"/>
<path fill="#D1D1D1" d="M74.17,54.355c0,0.297-0.215,0.538-0.479,0.538H13.808c-0.264,0-0.479-0.241-0.479-0.538v-2.152
	c0-0.295,0.216-0.536,0.479-0.536h59.883c0.264,0,0.479,0.241,0.479,0.536V54.355z"/>
<g>
	<path fill="#986F2B" d="M47.408,43.581c0.291,0.224,0.711,0.673,0.879,0.821c0.633,0.561,0.344,0.648,0.344,0.648l-2.592-0.016
		c0,0-0.961,0.283-0.322-1.682C46.137,42.06,46.271,42.714,47.408,43.581z"/>
	<path fill="#986F2B" d="M50.965,37.463c-1.445-0.854-3.955-1.672-4.402-1.672c-0.516-0.001-0.307,1.864,0.311,2.27
		c0.564,0.371,1.555,1.064,2.736,2.486c0.604,0.727,0.791,1.043,0.996,0.996c0.25-1.023,0.385-2.117,0.385-3.258
		C50.99,38.008,50.98,37.734,50.965,37.463z"/>
	<path fill="#986F2B" d="M40.22,37.905c0.082-0.741,0.227-1.426,0.422-2.03c0.029-0.085-0.049-0.374-0.115-0.437
		c-0.311-0.285-0.629-0.596-0.963-0.946c-1.068-1.127-1.471-1.76-1.715-2.081c-0.49,0.967-0.865,2.058-1.092,3.235
		c0.797,0.705,2.035,1.664,3.25,2.461C40.068,38.146,40.208,38.011,40.22,37.905z"/>
	<path fill="#986F2B" d="M44.873,33.81c-0.084,0.254,0.705,1.179,1.689,1.287c1.32,0.146,3.402,0.9,4.303,1.308
		c-0.195-1.444-0.607-2.781-1.191-3.939c-0.535-0.183-1.098-0.304-1.611-0.353C46.328,31.947,45.047,33.292,44.873,33.81z"/>
	<path fill="#986F2B" d="M42.427,33.032c0.068,0.171,0.092,0.383,0.645,0.247c0.254-0.063,0.463-0.063,0.608-0.047
		c0.145,0.015,0.365-0.059,0.43-0.109c1.068-0.83,0.998-0.986,2.076-1.689c0.865-0.563,1.832-0.525,2.658-0.348
		c-1.09-1.508-2.52-2.535-4.111-2.838c-1.033,0.607-1.756,1.365-2.163,2.387C42.269,31.389,42.244,32.563,42.427,33.032z"/>
	<path fill="#986F2B" d="M41.16,34.674c0.197-0.345,0.414-0.633,0.65-0.853c0.039-0.036,0.074-0.227,0.029-0.386
		c-0.18-0.63-0.529-2.358,0.447-3.976c0.297-0.489,0.863-0.938,1.295-1.302c-2.114,0.067-4,1.4-5.295,3.479
		c0.074,0.153,0.158,0.311,0.256,0.477c0.598,1.003,1.557,1.95,2.357,2.644C40.951,34.8,41.123,34.742,41.16,34.674z"/>
	<path fill="#986F2B" d="M36.845,40.115c0.662,0.552,2.131,1.283,3.436,1.813c0.055,0.021,0.109-0.149,0.088-0.26
		c-0.145-0.726-0.227-1.524-0.227-2.367c0-0.094-0.119-0.352-0.18-0.391c-1.494-0.947-2.883-2.042-3.34-2.412
		c-0.074,0.581-0.113,1.177-0.113,1.787c0,0.531,0.027,1.053,0.084,1.562C36.673,39.945,36.755,40.039,36.845,40.115z"/>
	<path fill="#986F2B" d="M41.763,44.739c-0.395-0.388-0.74-0.974-1.01-1.7c-0.023-0.061-0.148-0.213-0.189-0.225
		c-1.924-0.616-3.041-1.213-3.332-1.366c-0.092-0.049-0.18,0.138-0.25,0.443c0.344,1.267,0.865,2.411,1.521,3.375
		c0.994,0.009,2.383-0.062,3.301-0.117C41.986,45.139,41.931,44.902,41.763,44.739z"/>
	<path fill="#986F2B" d="M49.539,41.621c-0.629-0.618-1.674-2.012-2.295-2.375c-0.555-0.326-0.422-0.328-0.68,0.58
		c-0.176,0.621-0.375,1.141-0.428,1.469c-0.094,0.594,0.842,1.084,1.801,2.059c0.701,0.713,1.121,1.139,1.418,1.345
		c0.383-0.653,0.705-1.376,0.963-2.149C50.113,42.225,49.834,41.912,49.539,41.621z"/>
</g>
<g>
	<path fill="#C99E48" d="M65.945,43.581c0.291,0.224,0.713,0.673,0.881,0.821c0.631,0.561,0.344,0.648,0.344,0.648l-2.592-0.016
		c0,0-0.961,0.283-0.322-1.682C64.676,42.06,64.811,42.714,65.945,43.581z"/>
	<path fill="#C99E48" d="M69.504,37.463c-1.447-0.854-3.955-1.672-4.402-1.672c-0.516-0.001-0.309,1.864,0.311,2.27
		c0.564,0.371,1.555,1.064,2.736,2.486c0.604,0.727,0.791,1.043,0.996,0.996c0.248-1.023,0.385-2.117,0.385-3.258
		C69.529,38.008,69.518,37.734,69.504,37.463z"/>
	<path fill="#C99E48" d="M58.758,37.905c0.084-0.741,0.229-1.426,0.424-2.03c0.027-0.085-0.049-0.374-0.117-0.437
		c-0.309-0.285-0.627-0.596-0.961-0.946c-1.068-1.127-1.471-1.76-1.715-2.081c-0.492,0.967-0.865,2.058-1.094,3.235
		c0.799,0.705,2.037,1.664,3.252,2.461C58.607,38.146,58.748,38.011,58.758,37.905z"/>
	<path fill="#C99E48" d="M63.412,33.81c-0.084,0.254,0.705,1.179,1.689,1.287c1.32,0.146,3.402,0.9,4.301,1.308
		c-0.193-1.444-0.607-2.781-1.189-3.939c-0.535-0.183-1.098-0.304-1.611-0.353C64.865,31.947,63.584,33.292,63.412,33.81z"/>
	<path fill="#C99E48" d="M60.967,33.032c0.068,0.171,0.09,0.383,0.643,0.247c0.256-0.063,0.465-0.063,0.609-0.047
		c0.145,0.015,0.365-0.059,0.428-0.109c1.07-0.83,1-0.986,2.078-1.689c0.863-0.563,1.83-0.525,2.656-0.348
		c-1.088-1.508-2.518-2.535-4.111-2.838c-1.031,0.607-1.756,1.365-2.16,2.387C60.809,31.389,60.781,32.563,60.967,33.032z"/>
	<path fill="#C99E48" d="M59.699,34.674c0.195-0.345,0.414-0.633,0.65-0.853c0.039-0.036,0.074-0.227,0.029-0.386
		c-0.182-0.63-0.529-2.358,0.447-3.976c0.297-0.489,0.863-0.938,1.295-1.302c-2.113,0.067-4,1.4-5.295,3.479
		c0.074,0.153,0.158,0.311,0.256,0.477c0.598,1.003,1.557,1.95,2.357,2.644C59.49,34.8,59.662,34.742,59.699,34.674z"/>
	<path fill="#C99E48" d="M55.385,40.115c0.662,0.552,2.131,1.283,3.436,1.813c0.055,0.021,0.109-0.149,0.088-0.26
		c-0.145-0.726-0.227-1.524-0.227-2.367c0-0.094-0.119-0.352-0.18-0.391c-1.494-0.947-2.883-2.042-3.34-2.412
		c-0.074,0.581-0.115,1.177-0.115,1.787c0,0.531,0.029,1.053,0.084,1.562C55.211,39.945,55.295,40.039,55.385,40.115z"/>
	<path fill="#C99E48" d="M60.303,44.739c-0.395-0.388-0.74-0.974-1.012-1.7c-0.021-0.061-0.148-0.213-0.188-0.225
		c-1.924-0.616-3.041-1.213-3.334-1.366c-0.09-0.049-0.18,0.138-0.25,0.443c0.346,1.267,0.867,2.411,1.523,3.375
		c0.994,0.009,2.381-0.062,3.301-0.117C60.525,45.139,60.469,44.902,60.303,44.739z"/>
	<path fill="#C99E48" d="M68.078,41.621c-0.631-0.618-1.674-2.012-2.297-2.375c-0.555-0.326-0.42-0.328-0.678,0.58
		c-0.178,0.621-0.375,1.141-0.428,1.469c-0.094,0.594,0.842,1.084,1.801,2.059c0.701,0.713,1.119,1.139,1.418,1.345
		c0.383-0.653,0.705-1.376,0.963-2.149C68.65,42.225,68.373,41.912,68.078,41.621z"/>
</g>
<g>
	<path fill="#C99E48" d="M28.869,43.581c0.291,0.224,0.712,0.673,0.88,0.821c0.632,0.561,0.344,0.648,0.344,0.648L27.5,45.035
		c0,0-0.961,0.283-0.322-1.682C27.598,42.06,27.733,42.714,28.869,43.581z"/>
	<path fill="#C99E48" d="M32.426,37.463c-1.446-0.854-3.955-1.672-4.402-1.672c-0.516-0.001-0.308,1.864,0.311,2.27
		c0.564,0.371,1.555,1.064,2.736,2.486c0.604,0.727,0.791,1.043,0.996,0.996c0.249-1.023,0.385-2.117,0.385-3.258
		C32.452,38.008,32.441,37.734,32.426,37.463z"/>
	<path fill="#C99E48" d="M21.681,37.905c0.083-0.741,0.228-1.426,0.423-2.03c0.028-0.085-0.049-0.374-0.116-0.437
		c-0.31-0.285-0.628-0.596-0.962-0.946c-1.068-1.127-1.471-1.76-1.715-2.081c-0.491,0.967-0.865,2.058-1.093,3.235
		c0.798,0.705,2.036,1.664,3.251,2.461C21.53,38.146,21.67,38.011,21.681,37.905z"/>
	<path fill="#C99E48" d="M26.334,33.81c-0.084,0.254,0.705,1.179,1.689,1.287c1.32,0.146,3.402,0.9,4.302,1.308
		c-0.194-1.444-0.607-2.781-1.19-3.939c-0.535-0.183-1.098-0.304-1.611-0.353C27.789,31.947,26.507,33.292,26.334,33.81z"/>
	<path fill="#C99E48" d="M23.889,33.032c0.068,0.171,0.091,0.383,0.644,0.247c0.255-0.063,0.464-0.063,0.608-0.047
		c0.145,0.015,0.365-0.059,0.429-0.109c1.069-0.83,0.999-0.986,2.077-1.689c0.864-0.563,1.831-0.525,2.657-0.348
		c-1.089-1.508-2.519-2.535-4.111-2.838c-1.032,0.607-1.756,1.365-2.161,2.387C23.731,31.389,23.705,32.563,23.889,33.032z"/>
	<path fill="#C99E48" d="M22.622,34.674c0.196-0.345,0.414-0.633,0.65-0.853c0.039-0.036,0.074-0.227,0.029-0.386
		c-0.181-0.63-0.529-2.358,0.447-3.976c0.297-0.489,0.863-0.938,1.295-1.302c-2.113,0.067-4,1.4-5.295,3.479
		c0.074,0.153,0.158,0.311,0.256,0.477c0.598,1.003,1.557,1.95,2.357,2.644C22.413,34.8,22.584,34.742,22.622,34.674z"/>
	<path fill="#C99E48" d="M18.307,40.115c0.662,0.552,2.131,1.283,3.436,1.813c0.055,0.021,0.109-0.149,0.088-0.26
		c-0.145-0.726-0.227-1.524-0.227-2.367c0-0.094-0.119-0.352-0.18-0.391c-1.494-0.947-2.883-2.042-3.34-2.412
		c-0.074,0.581-0.114,1.177-0.114,1.787c0,0.531,0.028,1.053,0.084,1.562C18.134,39.945,18.217,40.039,18.307,40.115z"/>
	<path fill="#C99E48" d="M23.225,44.739c-0.395-0.388-0.74-0.974-1.011-1.7c-0.022-0.061-0.148-0.213-0.188-0.225
		c-1.924-0.616-3.041-1.213-3.333-1.366c-0.091-0.049-0.18,0.138-0.25,0.443c0.345,1.267,0.866,2.411,1.522,3.375
		c0.994,0.009,2.382-0.062,3.301-0.117C23.448,45.139,23.392,44.902,23.225,44.739z"/>
	<path fill="#C99E48" d="M31,41.621c-0.63-0.618-1.674-2.012-2.296-2.375c-0.555-0.326-0.421-0.328-0.679,0.58
		c-0.177,0.621-0.375,1.141-0.428,1.469c-0.094,0.594,0.842,1.084,1.801,2.059c0.701,0.713,1.12,1.139,1.418,1.345
		c0.383-0.653,0.705-1.376,0.963-2.149C31.574,42.225,31.295,41.912,31,41.621z"/>
</g>
</svg>
