<?xml version="1.0" encoding="utf-8"?>
<!-- Generator: Adobe Illustrator 16.0.0, SVG Export Plug-In . SVG Version: 6.00 Build 0)  -->
<!DOCTYPE svg PUBLIC "-//W3C//DTD SVG 1.1//EN" "http://www.w3.org/Graphics/SVG/1.1/DTD/svg11.dtd">
<svg version="1.1" id="Layer_1" xmlns="http://www.w3.org/2000/svg" xmlns:xlink="http://www.w3.org/1999/xlink" x="0px" y="0px"
	 width="86px" height="80px" viewBox="0 0 86 80" enable-background="new 0 0 86 80" xml:space="preserve">
<g>
	<g>
		<path fill="#F7F2ED" d="M927.476,261.369c0,2.68-2.182,4.85-4.861,4.85h-76.275c-2.688,0-4.858-2.172-4.858-4.85v-70.303
			c0-2.678,2.175-4.852,4.858-4.852h76.275c2.684,0,4.861,2.171,4.861,4.852V261.369L927.476,261.369z"/>
	</g>
	<g>
		<g>
			<path fill="#D1D1D1" d="M922.612,188.217c1.578,0,2.861,1.279,2.861,2.852v70.303c0,1.57-1.283,2.854-2.861,2.854h-76.275
				c-1.576,0-2.859-1.279-2.859-2.854v-70.303c0-1.569,1.283-2.852,2.859-2.852H922.612 M922.612,186.217h-76.275
				c-2.688,0-4.859,2.172-4.859,4.852v70.303c0,2.68,2.176,4.854,4.859,4.854h76.275c2.682,0,4.861-2.172,4.861-4.854v-70.303
				C927.476,188.389,925.296,186.217,922.612,186.217L922.612,186.217z"/>
		</g>
	</g>
</g>
<g>
	<path fill="#FFFFFF" d="M899.688,244.623l-0.453,0.148c-5.728,1.871-11.731,0.584-15.675-3.357
		c-4.211-4.211-5.337-10.773-2.982-16.709l-15.743-15.742l10.332-10.333l15.743,15.743c5.935-2.352,12.498-1.227,16.708,2.984
		c3.939,3.939,5.229,9.947,3.356,15.672l-0.146,0.455L899.688,244.623z"/>
	<path fill="#D1D1D1" d="M898.612,242.871l10.461-10.461c1.583-4.846,0.669-10.1-2.871-13.639
		c-4.061-4.06-10.372-4.668-15.738-2.016l-15.299-15.299l-7.504,7.504l15.299,15.3c-2.652,5.364-2.044,11.681,2.015,15.737
		C888.514,243.539,893.768,244.453,898.612,242.871z"/>
	
		<rect x="863.208" y="202.887" transform="matrix(0.7071 -0.7071 0.7071 0.7071 110.798 674.7614)" fill="#B2ADAD" width="13.28" height="1.516"/>
	
		<line fill="none" stroke="#FFFFFF" stroke-width="0.4255" stroke-miterlimit="10" x1="869.469" y1="209.939" x2="873.128" y2="206.282"/>
	
		<line fill="none" stroke="#FFFFFF" stroke-width="0.4255" stroke-miterlimit="10" x1="873.018" y1="213.488" x2="876.677" y2="209.831"/>
	
		<line fill="none" stroke="#FFFFFF" stroke-width="0.4255" stroke-miterlimit="10" x1="876.566" y1="217.038" x2="880.225" y2="213.38"/>
	
		<line fill="none" stroke="#FFFFFF" stroke-width="0.4255" stroke-miterlimit="10" x1="880.115" y1="220.587" x2="883.773" y2="216.928"/>
	
		<line fill="none" stroke="#FFFFFF" stroke-width="0.3723" stroke-miterlimit="10" x1="871.15" y1="211.809" x2="873.449" y2="209.512"/>
	
		<line fill="none" stroke="#FFFFFF" stroke-width="0.3723" stroke-miterlimit="10" x1="874.698" y1="215.355" x2="876.997" y2="213.059"/>
	
		<line fill="none" stroke="#FFFFFF" stroke-width="0.3723" stroke-miterlimit="10" x1="878.247" y1="218.904" x2="880.545" y2="216.607"/>
	<path fill="#E5BB70" d="M883.48,229.333c-0.455,3.478,0.549,6.894,2.906,9.253c1.956,1.956,4.655,3.033,7.602,3.033
		c0,0,0,0,0.001,0c1.188,0,2.383-0.174,3.56-0.514l9.76-9.76c0.194-0.673,0.313-1.345,0.396-2.015L883.48,229.333L883.48,229.333z"
		/>
</g>
<g>
	<rect x="843.531" y="249.309" fill="#D1D1D1" width="81.891" height="7.017"/>
</g>
<path fill="#E5BB70" d="M863.348,211.958l1.942,3.364c0,0,1.652,2.924,1.943,3.962c0.29,1.036,0.29,4.766-4.035,4.766
	c-4.324,0-4.19-3.716-3.735-4.766s1.941-3.962,1.941-3.962L863.348,211.958z"/>
<g>
	<path fill="#E5BB70" d="M877,247.309V246.5c0-1.104-0.896-2-2-2h-21.5c-1.104,0-2,0.896-2,2v0.809H877z"/>
</g>
<g>
	<g>
		<g>
			<path fill="#F7F2ED" d="M4.861,79c-2.13,0-3.859-1.728-3.859-3.848V4.847c0-2.121,1.729-3.851,3.859-3.851H81.14
				c2.131,0,3.86,1.729,3.86,3.851v70.306C85,77.272,83.271,79,81.142,79H4.861z"/>
			<path fill="#D1D1D1" d="M81.142,2C82.718,2,84,3.277,84,4.85v70.303C84,76.723,82.718,78,81.142,78H4.861
				c-1.578,0-2.859-1.276-2.859-2.848V4.85C2.002,3.277,3.283,2,4.861,2H81.142 M81.142,0H4.861C2.176,0,0.002,2.172,0.002,4.85
				v70.303c0,2.676,2.175,4.849,4.859,4.849H81.14c2.687,0,4.86-2.173,4.86-4.849V4.85C86,2.172,83.826,0,81.142,0L81.142,0z"/>
		</g>
	</g>
	<g>
		<path fill="#C99E48" d="M74.17,49.336c0,0.297-0.215,0.538-0.479,0.538H13.808c-0.265,0-0.479-0.241-0.479-0.538v-2.151
			c0-0.297,0.215-0.538,0.479-0.538h59.884c0.264,0,0.479,0.241,0.479,0.538V49.336z"/>
		<path fill="#D1D1D1" d="M74.17,54.356c0,0.297-0.215,0.538-0.479,0.538H13.808c-0.265,0-0.479-0.241-0.479-0.538v-2.152
			c0-0.295,0.215-0.536,0.479-0.536h59.884c0.264,0,0.479,0.241,0.479,0.536V54.356z"/>
	</g>
	<g>
		<path fill="#986F2B" d="M34.4,26.887v-2.325c0-0.785-0.535-1.421-1.195-1.421h-3.187c-0.533,0-1.173,0.401-1.326,0.974
			C29.951,25.265,32.993,26.618,34.4,26.887z"/>
		<path fill="#986F2B" d="M34.4,37.435v-2.587c0,0-0.107-0.36-0.519-0.52c-1.734-0.673-3.97-1.711-4.766-2.28
			c-0.244-0.175-0.402-0.17-0.405,0.172c-0.008,0.598-0.021,1.962-0.019,2.204c0.008,0.636,0.368,0.993,0.724,1.221
			c1.535,0.982,4.164,1.987,4.48,2.046C34.302,37.765,34.4,37.435,34.4,37.435z"/>
		<path fill="#986F2B" d="M28.692,37.774c0,0.258-0.187,1.188,0,2.757c0.02,0.171,0.288,0.502,0.362,0.558
			c1.284,0.97,3.58,1.844,4.576,2.2c0.454,0.162,0.796,0.213,0.77-0.127s-0.055-2.718-0.055-2.718s0.084-0.344-0.396-0.464
			c-0.442-0.11-1.753-0.509-3.398-1.442C29.057,37.691,28.692,37.308,28.692,37.774z"/>
		<path fill="#986F2B" d="M34.4,31.92v-2.46c0,0,0.189-0.351-0.45-0.642c-0.638-0.291-3.903-1.438-5.049-2.557
			c-0.103-0.1-0.29-0.194-0.315,0.017c-0.026,0.211,0.106,2.418,0.106,2.418s-0.106,0.764,0.478,1.23
			c0.455,0.364,3.346,1.993,4.692,2.3C34.229,32.31,34.4,31.92,34.4,31.92z"/>
		<path fill="#986F2B" d="M28.692,44.562c0.067,0.741,0.584,0.597,0.956,0.638c0.371,0.041,3.187,0,3.187,0s1.339,0.06,0.583-0.171
			c-1.806-0.552-3.467-1.373-4.46-1.951C28.374,42.737,28.639,43.968,28.692,44.562z"/>
	</g>
	<g>
		<path fill="#C99E48" d="M46.086,26.887v-2.325c0-0.785-0.535-1.421-1.195-1.421h-3.187c-0.535,0-1.174,0.401-1.326,0.974
			C41.638,25.265,44.679,26.618,46.086,26.887z"/>
		<path fill="#C99E48" d="M46.086,37.435v-2.587c0,0-0.107-0.36-0.518-0.52c-1.735-0.673-3.971-1.711-4.768-2.28
			c-0.244-0.175-0.4-0.17-0.405,0.172c-0.008,0.598-0.021,1.962-0.018,2.204c0.008,0.636,0.368,0.993,0.724,1.221
			c1.534,0.982,4.162,1.987,4.479,2.046C45.985,37.765,46.086,37.435,46.086,37.435z"/>
		<path fill="#C99E48" d="M40.378,37.774c0,0.258-0.188,1.188,0,2.757c0.02,0.171,0.289,0.502,0.36,0.558
			c1.284,0.97,3.583,1.844,4.578,2.2c0.453,0.162,0.794,0.213,0.77-0.127c-0.027-0.34-0.056-2.718-0.056-2.718
			s0.085-0.344-0.396-0.464c-0.442-0.11-1.752-0.509-3.4-1.442C40.741,37.691,40.378,37.308,40.378,37.774z"/>
		<path fill="#C99E48" d="M46.086,31.92v-2.46c0,0,0.189-0.351-0.451-0.642c-0.638-0.291-3.903-1.438-5.049-2.557
			c-0.102-0.1-0.288-0.194-0.314,0.017c-0.025,0.211,0.106,2.418,0.106,2.418s-0.106,0.764,0.479,1.23
			c0.455,0.364,3.345,1.993,4.691,2.3C45.914,32.31,46.086,31.92,46.086,31.92z"/>
		<path fill="#C99E48" d="M40.378,44.562c0.067,0.741,0.582,0.597,0.955,0.638c0.371,0.041,3.188,0,3.188,0s1.338,0.06,0.581-0.171
			c-1.804-0.552-3.464-1.373-4.46-1.951C40.059,42.737,40.323,43.968,40.378,44.562z"/>
	</g>
	<g>
		<path fill="#C99E48" d="M22.714,26.887v-2.325c0-0.785-0.535-1.421-1.195-1.421h-3.187c-0.535,0-1.174,0.401-1.326,0.974
			C18.266,25.265,21.307,26.618,22.714,26.887z"/>
		<path fill="#C99E48" d="M22.714,37.435v-2.587c0,0-0.107-0.36-0.518-0.52c-1.735-0.673-3.971-1.711-4.768-2.28
			c-0.244-0.175-0.4-0.17-0.405,0.172c-0.008,0.598-0.021,1.962-0.018,2.204c0.008,0.636,0.368,0.993,0.724,1.221
			c1.534,0.982,4.162,1.987,4.479,2.046C22.613,37.765,22.714,37.435,22.714,37.435z"/>
		<path fill="#C99E48" d="M17.006,37.774c0,0.258-0.188,1.188,0,2.757c0.02,0.171,0.289,0.502,0.36,0.558
			c1.284,0.97,3.583,1.844,4.578,2.2c0.453,0.162,0.794,0.213,0.77-0.127c-0.027-0.34-0.056-2.718-0.056-2.718
			s0.085-0.344-0.396-0.464c-0.442-0.11-1.752-0.509-3.4-1.442C17.369,37.691,17.006,37.308,17.006,37.774z"/>
		<path fill="#C99E48" d="M22.714,31.92v-2.46c0,0,0.189-0.351-0.451-0.642c-0.638-0.291-3.903-1.438-5.049-2.557
			c-0.102-0.1-0.288-0.194-0.314,0.017c-0.025,0.211,0.106,2.418,0.106,2.418s-0.106,0.764,0.479,1.23
			c0.455,0.364,3.345,1.993,4.691,2.3C22.542,32.31,22.714,31.92,22.714,31.92z"/>
		<path fill="#C99E48" d="M17.006,44.562c0.067,0.741,0.582,0.597,0.955,0.638c0.371,0.041,3.188,0,3.188,0s1.338,0.06,0.581-0.171
			c-1.804-0.552-3.464-1.373-4.46-1.951C16.687,42.737,16.951,43.968,17.006,44.562z"/>
	</g>
	<g>
		<path fill="#986F2B" d="M57.772,26.887v-2.325c0-0.785-0.534-1.421-1.195-1.421h-3.187c-0.534,0-1.174,0.401-1.327,0.974
			C53.324,25.265,56.365,26.618,57.772,26.887z"/>
		<path fill="#986F2B" d="M57.772,37.435v-2.587c0,0-0.108-0.36-0.518-0.52c-1.735-0.673-3.971-1.711-4.767-2.28
			c-0.245-0.175-0.401-0.17-0.406,0.172c-0.008,0.598-0.021,1.962-0.019,2.204c0.008,0.636,0.369,0.993,0.725,1.221
			c1.535,0.982,4.163,1.987,4.479,2.046C57.673,37.765,57.772,37.435,57.772,37.435z"/>
		<path fill="#986F2B" d="M52.063,37.774c0,0.258-0.186,1.188,0,2.757c0.02,0.171,0.29,0.502,0.362,0.558
			c1.285,0.97,3.582,1.844,4.576,2.2c0.455,0.162,0.796,0.213,0.771-0.127c-0.026-0.34-0.054-2.718-0.054-2.718
			s0.083-0.344-0.398-0.464c-0.442-0.11-1.751-0.509-3.398-1.442C52.428,37.691,52.063,37.308,52.063,37.774z"/>
		<path fill="#986F2B" d="M57.772,31.92v-2.46c0,0,0.188-0.351-0.449-0.642c-0.64-0.291-3.903-1.438-5.051-2.557
			c-0.101-0.1-0.288-0.194-0.314,0.017c-0.025,0.211,0.105,2.418,0.105,2.418s-0.105,0.764,0.479,1.23
			c0.456,0.364,3.346,1.993,4.691,2.3C57.602,32.31,57.772,31.92,57.772,31.92z"/>
		<path fill="#986F2B" d="M52.063,44.562c0.067,0.741,0.584,0.597,0.956,0.638s3.187,0,3.187,0s1.341,0.06,0.584-0.171
			c-1.805-0.552-3.466-1.373-4.461-1.951C51.745,42.737,52.011,43.968,52.063,44.562z"/>
	</g>
	<g>
		<path fill="#C99E48" d="M69.459,26.887v-2.325c0-0.785-0.533-1.421-1.194-1.421h-3.188c-0.533,0-1.173,0.401-1.326,0.974
			C65.011,25.265,68.053,26.618,69.459,26.887z"/>
		<path fill="#C99E48" d="M69.459,37.435v-2.587c0,0-0.107-0.36-0.518-0.52c-1.735-0.673-3.971-1.711-4.766-2.28
			c-0.245-0.175-0.402-0.17-0.406,0.172c-0.008,0.598-0.021,1.962-0.019,2.204c0.008,0.636,0.368,0.993,0.725,1.221
			c1.535,0.982,4.164,1.987,4.479,2.046C69.361,37.765,69.459,37.435,69.459,37.435z"/>
		<path fill="#C99E48" d="M63.751,37.774c0,0.258-0.185,1.188,0,2.757c0.02,0.171,0.289,0.502,0.362,0.558
			c1.285,0.97,3.581,1.844,4.577,2.2c0.453,0.162,0.795,0.213,0.769-0.127c-0.025-0.34-0.053-2.718-0.053-2.718
			s0.082-0.344-0.397-0.464c-0.443-0.11-1.752-0.509-3.399-1.442C64.116,37.691,63.751,37.308,63.751,37.774z"/>
		<path fill="#C99E48" d="M69.459,31.92v-2.46c0,0,0.189-0.351-0.449-0.642c-0.639-0.291-3.903-1.438-5.05-2.557
			c-0.102-0.1-0.288-0.194-0.314,0.017c-0.026,0.211,0.105,2.418,0.105,2.418s-0.105,0.764,0.479,1.23
			c0.455,0.364,3.346,1.993,4.691,2.3C69.288,32.31,69.459,31.92,69.459,31.92z"/>
		<path fill="#C99E48" d="M63.751,44.562c0.067,0.741,0.584,0.597,0.956,0.638c0.373,0.041,3.187,0,3.187,0s1.341,0.06,0.584-0.171
			c-1.805-0.552-3.467-1.373-4.461-1.951C63.433,42.737,63.697,43.968,63.751,44.562z"/>
	</g>
</g>
</svg>
