<?xml version="1.0" encoding="utf-8"?>
<!-- Generator: Adobe Illustrator 16.0.0, SVG Export Plug-In . SVG Version: 6.00 Build 0)  -->
<!DOCTYPE svg PUBLIC "-//W3C//DTD SVG 1.1//EN" "http://www.w3.org/Graphics/SVG/1.1/DTD/svg11.dtd">
<svg version="1.1" id="Layer_1" xmlns="http://www.w3.org/2000/svg" xmlns:xlink="http://www.w3.org/1999/xlink" x="0px" y="0px"
	 width="86px" height="80px" viewBox="0 0 86 80" enable-background="new 0 0 86 80" xml:space="preserve">
<g>
	<g>
		<g>
			<path fill="#F7F2ED" d="M4.859,79.002C2.729,79.002,1,77.274,1,75.154V4.849c0-2.121,1.729-3.851,3.859-3.851h76.278
				c2.131,0,3.86,1.729,3.86,3.851v70.306c0,2.12-1.729,3.848-3.858,3.848H4.859z"/>
			<path fill="#D1D1D1" d="M81.14,2c1.576,0,2.858,1.277,2.858,2.85v70.303c0,1.57-1.282,2.848-2.858,2.848H4.859
				C3.281,78,2,76.723,2,75.152V4.849C2,3.277,3.281,2,4.859,2H81.14 M81.14,0H4.859C2.174,0,0,2.171,0,4.849v70.303
				C0,77.828,2.175,80,4.859,80h76.278c2.687,0,4.86-2.172,4.86-4.848V4.849C85.998,2.171,83.824,0,81.14,0L81.14,0z"/>
		</g>
	</g>
	<g>
		<g>
			<path fill="#C99E48" d="M70.669,41.483c0,0.238-0.191,0.432-0.425,0.432H17.028c-0.235,0-0.426-0.193-0.426-0.432v-1.726
				c0-0.238,0.191-0.431,0.426-0.431h53.216c0.233,0,0.425,0.193,0.425,0.431V41.483z"/>
			<path fill="#D1D1D1" d="M70.669,45.512c0,0.238-0.191,0.433-0.425,0.433H17.028c-0.235,0-0.426-0.194-0.426-0.433v-1.728
				c0-0.236,0.191-0.43,0.426-0.43h53.216c0.233,0,0.425,0.193,0.425,0.43V45.512z"/>
		</g>
		<path fill="#C99E48" d="M55.86,36.464c0,0-1.111-2.675-1.158-4.539c-0.038,0.046-0.078,0.092-0.115,0.138
			c-0.517,0.624-0.985,1.382-1.283,2.18c0.574,2.164,1.014,3.474,1.668,4.293C54.972,38.538,56.009,38.136,55.86,36.464z"/>
		<path fill="#C99E48" d="M54.983,27.955c0.513-1.634,1.489-2.586,2.28-2.972c0.303-0.147,0.601-0.224,0.839-0.224
			c0.175,0,0.317,0.041,0.405,0.125c0.175,0.166,0.315,0.332,0.439,0.499c0.195-0.122,0.398-0.246,0.587-0.365
			c0.249-0.158,0.539-0.242,0.843-0.242c0.143,0,0.28,0.024,0.413,0.06c-0.229-0.39-0.529-0.769-0.911-1.131
			c-0.821-0.778-2.201-0.867-3.515-0.226c-1.194,0.582-2.255,1.697-2.912,3.269C53.983,27.103,54.488,27.505,54.983,27.955z"/>
		<g>
			<path fill="#C99E48" d="M63.062,33.718l0.33-0.463c0.559-0.771,1.182-1.997,1.841-3.346c-0.351-0.64-0.726-1.284-1.132-1.927
				c-0.074,0.152-0.147,0.305-0.221,0.457c-0.769,1.585-1.492,3.082-2.071,3.88l-0.343,0.479c-0.108,0.153-0.252,0.355-0.414,0.582
				c0.065,0.793,0.203,1.621,0.442,2.46C62.02,35.168,62.544,34.448,63.062,33.718z"/>
			<path fill="#C99E48" d="M65.942,25.881c0.228,0.337,0.471,0.716,0.72,1.114c0.084-0.166,0.17-0.329,0.255-0.491
				C66.61,26.227,66.286,26.013,65.942,25.881z"/>
			<path fill="#C99E48" d="M59.144,37.46c-0.148-0.403-0.271-0.803-0.377-1.201c-0.021,0.02-0.038,0.044-0.058,0.064
				c0.004,0.612-0.011,1.484-0.306,2.3h0.474c0.178-0.141,0.357-0.296,0.536-0.462C59.307,37.898,59.217,37.657,59.144,37.46z"/>
			<path fill="#C99E48" d="M68.251,24.253c0.098-0.135,0.195-0.267,0.289-0.381c0.313-0.377,0.229-0.913-0.189-1.196
				c-0.418-0.283-1.01-0.207-1.325,0.171c-0.149,0.18-0.299,0.382-0.448,0.595C67.12,23.598,67.688,23.86,68.251,24.253z"/>
		</g>
		<path fill="#98702A" d="M69.446,26.002c-1.904-2.552-4.312-2.532-5.611-2.278c-0.485-0.606-0.924-1.105-1.281-1.464
			c-0.348-0.348-0.938-0.375-1.321-0.063s-0.415,0.846-0.069,1.192c0.258,0.259,0.554,0.589,0.876,0.977
			c-0.329,0.173-0.641,0.375-0.934,0.592c0.183,0.095,0.346,0.221,0.47,0.38c0.227,0.288,0.313,0.64,0.246,0.987
			c-0.066,0.349-0.279,0.653-0.601,0.856c-0.403,0.257-0.821,0.515-1.249,0.777c-0.323,0.199-0.647,0.405-0.973,0.608
			c-0.308,1.833-0.729,5.259,0.566,8.765c0.128,0.349,0.297,0.804,0.523,1.291h3.098c0.325-0.385,0.7-0.824,1.179-1.365
			c0.404-0.456,0.911-0.965,1.447-1.504c0.544-0.545,1.128-1.134,1.69-1.753c0.324,1.082,0.486,2.102,0.411,2.982
			c-0.059,0.683-0.258,1.224-0.603,1.641h2.086c0.191-0.458,0.334-0.952,0.381-1.511c0.124-1.433-0.249-3.1-0.894-4.8
			C70.302,30.329,71.043,28.139,69.446,26.002z M64.42,34.626c-0.554,0.558-1.077,1.084-1.515,1.578
			c-0.498,0.563-0.901,1.034-1.238,1.431c-0.139-0.323-0.247-0.616-0.328-0.835c-1.292-3.502-0.665-7.016-0.396-8.517l0.063-0.363
			c0.104-0.621,0.923-1.599,2.106-2.169c1.286,1.76,2.715,4.074,3.681,6.322C66.129,32.881,65.312,33.73,64.42,34.626z
			 M68.004,30.29c-0.877-1.799-1.96-3.544-2.985-4.989c1.108,0.016,2.073,0.567,2.877,1.645
			C68.678,27.994,68.609,29.099,68.004,30.29z"/>
		<path fill="#98702A" d="M20.56,29.141c0.155,0.27,0.303,0.523,0.436,0.752l0.057,0.096c0.31,0.534,0.585,1.008,0.798,1.39
			c0.165-0.773,0.317-1.463,0.38-1.627c0.042-0.108,0.08-0.199,0.114-0.275c0.129,0.213,0.264,0.504,0.4,0.832
			c0.156-0.289,0.316-0.555,0.483-0.786c0.459-0.637,1.017-1.183,1.629-1.632c-0.111-0.414-0.139-0.833-0.06-1.258
			c0.122-0.656,0.441-1.155,0.953-1.482c0.446-0.287,1.043-0.44,1.669-0.44c0.196,0,0.394,0.015,0.59,0.045
			c0.433,0.067,0.791,0.295,1.093,0.696c0.244,0.322,0.43,0.752,0.561,1.233c0.776,0.144,1.426,0.434,1.963,0.793
			c-0.105-1.064-0.419-2.125-1.036-2.942c-0.575-0.763-1.362-1.241-2.276-1.383c-1.314-0.203-2.626,0.042-3.606,0.672
			c-0.902,0.579-1.485,1.458-1.685,2.539c-0.085,0.459-0.099,0.911-0.04,1.357c-0.201-0.104-0.415-0.159-0.648-0.166
			C21.201,27.55,20.741,28.665,20.56,29.141z"/>
		<path fill="#98702A" d="M19.671,27.579c0.451-1.45,1.105-2.84,2.04-4.013c0.291-0.364,0.198-0.872-0.206-1.134
			c-0.404-0.261-0.967-0.178-1.256,0.186c-0.696,0.875-1.249,1.852-1.696,2.876C18.892,26.163,19.282,26.883,19.671,27.579z"/>
		<path fill="#98702A" d="M20.622,36.575c0.128-0.416,0.255-0.874,0.389-1.351c-0.431-0.644-0.697-1.1-1.328-2.274
			c-0.214,0.998-0.479,2.2-0.734,3.221c-0.148-1.23-0.202-2.858-0.044-4.603c-0.09-0.157-0.185-0.319-0.284-0.489
			c-0.368-0.634-0.77-1.326-1.169-2.031c-0.792,3.943-0.376,7.884,0.247,9.577h2.369c0.114-0.274,0.232-0.634,0.363-1.082
			C20.463,37.213,20.525,36.888,20.622,36.575z"/>
		<path fill="#98702A" d="M30.812,31.717c0.147-0.258,0.32-0.557,0.511-0.885c0.001-0.006,0.002-0.012,0.003-0.017
			c-0.605-0.811-1.082-1.26-1.534-1.507c-0.021,0.145-0.044,0.29-0.076,0.431c-0.084,0.371-0.172,0.838-0.27,1.357
			c-0.045,0.242-0.098,0.522-0.158,0.828c-0.781-0.352-1.496-0.754-2.097-1.185c-0.341-0.246-0.633-0.491-0.902-0.735
			c-0.286,0.247-0.555,0.531-0.79,0.855c-0.1,0.139-0.196,0.299-0.289,0.467c0.265,0.23,0.547,0.458,0.859,0.684
			c0.809,0.581,1.791,1.112,2.857,1.559c-0.328,1.321-0.766,2.602-1.31,2.905c-0.173,0.097-0.251,0.074-0.291,0.063
			c-0.083-0.025-0.529-0.203-1.061-1.346c-0.145-0.313-0.372-1.066-0.614-1.864c-0.199-0.656-0.382-1.238-0.56-1.779
			c-0.381,0.754-0.712,1.728-1.015,2.743c0.205,0.667,0.377,1.202,0.528,1.528c0.006,0.012,0.012,0.023,0.018,0.034
			c0.207,0.324,0.436,0.706,0.657,1.115c0.44,0.583,0.936,0.954,1.498,1.117c0.593,0.172,1.21,0.092,1.787-0.229
			c0.339-0.188,0.629-0.477,0.885-0.833C29.37,35.072,30.028,33.098,30.812,31.717z"/>
		<path fill="#C99E48" d="M58.496,28.9c-0.17,0.111-0.344,0.215-0.513,0.327c-0.317,0.309-0.677,0.604-1.057,0.889
			c0.325,0.484,0.606,1.005,0.849,1.549c0.162-0.116,0.321-0.233,0.477-0.353C58.293,30.303,58.406,29.47,58.496,28.9z"/>
		<g>
			<path fill="#98702A" d="M53.377,38.248c-0.25-0.292-0.433-0.602-0.567-0.921v1.297h1.046
				C53.677,38.532,53.514,38.408,53.377,38.248z"/>
			<path fill="#98702A" d="M33.188,23.316c-0.193-0.067-0.403-0.098-0.617-0.047c-0.545,0.128-0.874,0.632-0.731,1.125
				c0.303,1.049,0.779,2.321,1.348,3.572V23.316z"/>
			<path fill="#98702A" d="M61.212,25.569c-0.323-0.416-0.961-0.517-1.422-0.223c-0.395,0.25-0.804,0.503-1.22,0.759
				c-1.179,0.726-2.447,1.508-3.611,2.399c-0.71-0.67-1.406-1.232-2.149-1.678v2.354c0.22,0.183,0.44,0.377,0.666,0.591
				C53.24,30,53.024,30.245,52.81,30.487v3.846c0.308-0.92,0.832-1.797,1.421-2.508c0.169-0.206,0.351-0.405,0.541-0.599
				c0.922,1.341,1.449,3.045,1.449,4.772l0.001,0.271c0.009,1.309-0.062,1.964-0.733,2.313c-0.032,0.017-0.064,0.027-0.099,0.042
				h2.554c0.319-0.785,0.325-1.648,0.321-2.365l-0.001-0.261c0-2.204-0.733-4.394-1.998-6.078c1.07-0.821,2.274-1.564,3.456-2.292
				c0.425-0.262,0.841-0.519,1.243-0.773C61.427,26.562,61.538,25.986,61.212,25.569z"/>
		</g>
		<path fill="#C99E48" d="M33.188,28.97c-0.043-0.087-0.088-0.171-0.131-0.259c-0.084,0.146-0.17,0.295-0.252,0.438
			c-0.987-1.2-2.223-2.164-4.172-2.167c-0.003,0-0.005,0-0.009,0c-1.869,0-3.793,1.057-5.023,2.76
			c-0.593,0.82-1.049,1.94-1.436,3.124c-0.142-0.255-0.305-0.558-0.51-0.94c-0.231-0.432-0.605-1.076-1.042-1.83
			c-1.198-2.062-3.204-5.513-3.474-6.881c-0.088-0.447-0.552-0.742-1.058-0.666c-0.495,0.08-0.826,0.508-0.737,0.955
			c0.32,1.619,2.247,4.935,3.654,7.357c0.426,0.735,0.79,1.36,1.015,1.782c0.733,1.368,0.979,1.785,1.476,2.516
			c-0.004,0.012-0.007,0.024-0.01,0.035c-0.147,0.528-0.288,1.033-0.428,1.487c-0.2,0.649-0.248,1.315-0.167,1.943h1.847
			c-0.091-0.452-0.085-0.974,0.077-1.501c0.001-0.002,0.001-0.003,0.002-0.005c0.334,0.545,0.604,1.059,0.806,1.506h1.943
			c-0.423-1.194-1.234-2.464-1.688-3.124l-0.396-0.574c-0.009-0.014-0.019-0.026-0.028-0.041c0.453-1.598,0.975-3.265,1.681-4.243
			c0.897-1.242,2.236-2.013,3.496-2.013c0.002,0,0.003,0,0.005,0c1.228,0.002,2.042,0.538,3.217,2.167
			c-0.242,0.416-0.459,0.789-0.638,1.104c-1,1.762-1.758,4.419-1.056,6.724h1.936c-0.789-1.809-0.237-4.247,0.743-5.972
			c0.008-0.013,0.016-0.027,0.022-0.041C32.981,32.937,33.188,28.97,33.188,28.97z"/>
		<path fill="#C99E48" d="M54.477,22.455c-0.348-0.344-0.939-0.367-1.321-0.053c-0.111,0.092-0.228,0.219-0.346,0.365v3.59
			c0.035,0.02,0.072,0.034,0.107,0.055c0.577-1.415,1.117-2.447,1.502-2.765C54.8,23.332,54.825,22.797,54.477,22.455z"/>
	</g>
	<g enable-background="new    ">
		<path fill="#374537" d="M36.308,69.87v-4.244c0-0.398-0.02-0.748-0.053-1.043s-0.104-0.543-0.203-0.74
			c-0.1-0.199-0.242-0.352-0.428-0.451c-0.186-0.102-0.428-0.145-0.729-0.145c-0.459,0-0.844,0.139-1.146,0.42
			c-0.305,0.275-0.518,0.629-0.639,1.049v5.16h-1.199v-7.5h0.84l0.227,0.916h0.063c0.271-0.32,0.582-0.582,0.938-0.787
			c0.354-0.205,0.814-0.313,1.389-0.313c0.48,0,0.871,0.094,1.178,0.275c0.309,0.189,0.541,0.51,0.711,0.971
			c0.23-0.395,0.547-0.691,0.953-0.916c0.404-0.223,0.861-0.33,1.373-0.33c0.42,0,0.773,0.049,1.064,0.145
			c0.289,0.098,0.527,0.264,0.721,0.502c0.189,0.24,0.326,0.564,0.412,0.98c0.084,0.41,0.127,0.93,0.127,1.559v4.5h-1.199v-4.514
			c0-0.361-0.02-0.674-0.053-0.939c-0.035-0.268-0.105-0.484-0.211-0.658c-0.104-0.178-0.25-0.307-0.438-0.395
			c-0.184-0.084-0.428-0.127-0.727-0.127c-0.5,0-0.893,0.141-1.17,0.42c-0.281,0.277-0.48,0.684-0.604,1.199v5.01h-1.197V69.87
			L36.308,69.87z"/>
		<path fill="#374537" d="M48.488,69.87v-4.244c0-0.398-0.018-0.748-0.053-1.043s-0.104-0.543-0.203-0.74
			c-0.102-0.199-0.242-0.352-0.428-0.451c-0.188-0.102-0.43-0.145-0.729-0.145c-0.463,0-0.846,0.139-1.146,0.42
			c-0.307,0.275-0.52,0.629-0.639,1.049v5.16H44.09v-7.5h0.844l0.225,0.916h0.061c0.271-0.32,0.582-0.582,0.939-0.787
			c0.355-0.205,0.816-0.313,1.389-0.313c0.48,0,0.873,0.094,1.18,0.275c0.307,0.186,0.543,0.51,0.713,0.971
			c0.229-0.395,0.547-0.691,0.951-0.916c0.404-0.223,0.861-0.33,1.373-0.33c0.42,0,0.773,0.049,1.063,0.145
			c0.291,0.098,0.529,0.264,0.723,0.502c0.189,0.24,0.328,0.564,0.412,0.98c0.086,0.408,0.127,0.93,0.127,1.559v4.5h-1.197v-4.514
			c0-0.361-0.021-0.674-0.055-0.939c-0.035-0.268-0.104-0.484-0.209-0.658c-0.104-0.178-0.25-0.307-0.438-0.395
			c-0.189-0.084-0.432-0.127-0.73-0.127c-0.5,0-0.891,0.141-1.17,0.42c-0.281,0.277-0.479,0.684-0.602,1.199v5.01h-1.199V69.87
			L48.488,69.87z"/>
	</g>
	<polyline fill="none" stroke="#374537" stroke-width="0.9248" stroke-linecap="round" stroke-miterlimit="10" points="47.67,54.15 
		42.998,48.421 38.328,54.15 	"/>
	<polyline fill="none" stroke="#374537" stroke-width="0.8954" stroke-linecap="round" stroke-miterlimit="10" points="
		47.67,30.696 42.998,36.066 38.328,30.696 	"/>
</g>
</svg>
