<?xml version="1.0" encoding="utf-8"?>
<!-- Generator: Adobe Illustrator 16.0.0, SVG Export Plug-In . SVG Version: 6.00 Build 0)  -->
<!DOCTYPE svg PUBLIC "-//W3C//DTD SVG 1.1//EN" "http://www.w3.org/Graphics/SVG/1.1/DTD/svg11.dtd">
<svg version="1.1" id="Layer_1" xmlns="http://www.w3.org/2000/svg" xmlns:xlink="http://www.w3.org/1999/xlink" x="0px" y="0px"
	 width="86px" height="80px" viewBox="0 0 86 80" enable-background="new 0 0 86 80" xml:space="preserve">
<g>
	<g>
		<path fill="#F7F2ED" d="M927.476,261.369c0,2.68-2.182,4.85-4.861,4.85h-76.275c-2.688,0-4.858-2.172-4.858-4.85v-70.303
			c0-2.678,2.175-4.852,4.858-4.852h76.275c2.684,0,4.861,2.171,4.861,4.852V261.369L927.476,261.369z"/>
	</g>
	<g>
		<g>
			<path fill="#D1D1D1" d="M922.612,188.217c1.578,0,2.861,1.279,2.861,2.852v70.303c0,1.57-1.283,2.854-2.861,2.854h-76.275
				c-1.576,0-2.859-1.279-2.859-2.854v-70.303c0-1.569,1.283-2.852,2.859-2.852H922.612 M922.612,186.217h-76.275
				c-2.688,0-4.859,2.172-4.859,4.852v70.303c0,2.68,2.176,4.854,4.859,4.854h76.275c2.682,0,4.861-2.172,4.861-4.854v-70.303
				C927.476,188.389,925.296,186.217,922.612,186.217L922.612,186.217z"/>
		</g>
	</g>
</g>
<g>
	<path fill="#FFFFFF" d="M899.688,244.623l-0.453,0.148c-5.728,1.871-11.731,0.584-15.675-3.357
		c-4.211-4.211-5.337-10.773-2.982-16.709l-15.743-15.742l10.332-10.333l15.743,15.743c5.935-2.352,12.498-1.227,16.708,2.984
		c3.939,3.939,5.229,9.947,3.356,15.672l-0.146,0.455L899.688,244.623z"/>
	<path fill="#D1D1D1" d="M898.612,242.871l10.461-10.461c1.583-4.846,0.669-10.1-2.871-13.639
		c-4.061-4.06-10.372-4.668-15.738-2.016l-15.299-15.299l-7.504,7.504l15.299,15.3c-2.652,5.364-2.044,11.681,2.015,15.737
		C888.514,243.539,893.768,244.453,898.612,242.871z"/>
	
		<rect x="863.208" y="202.887" transform="matrix(0.7071 -0.7071 0.7071 0.7071 110.798 674.7614)" fill="#B2ADAD" width="13.28" height="1.516"/>
	
		<line fill="none" stroke="#FFFFFF" stroke-width="0.4255" stroke-miterlimit="10" x1="869.469" y1="209.939" x2="873.128" y2="206.282"/>
	
		<line fill="none" stroke="#FFFFFF" stroke-width="0.4255" stroke-miterlimit="10" x1="873.018" y1="213.488" x2="876.677" y2="209.831"/>
	
		<line fill="none" stroke="#FFFFFF" stroke-width="0.4255" stroke-miterlimit="10" x1="876.566" y1="217.038" x2="880.225" y2="213.38"/>
	
		<line fill="none" stroke="#FFFFFF" stroke-width="0.4255" stroke-miterlimit="10" x1="880.115" y1="220.587" x2="883.773" y2="216.928"/>
	
		<line fill="none" stroke="#FFFFFF" stroke-width="0.3723" stroke-miterlimit="10" x1="871.15" y1="211.809" x2="873.449" y2="209.512"/>
	
		<line fill="none" stroke="#FFFFFF" stroke-width="0.3723" stroke-miterlimit="10" x1="874.698" y1="215.355" x2="876.997" y2="213.059"/>
	
		<line fill="none" stroke="#FFFFFF" stroke-width="0.3723" stroke-miterlimit="10" x1="878.247" y1="218.904" x2="880.545" y2="216.607"/>
	<path fill="#E5BB70" d="M883.48,229.333c-0.455,3.478,0.549,6.894,2.906,9.253c1.956,1.956,4.655,3.033,7.602,3.033
		c0,0,0,0,0.001,0c1.188,0,2.383-0.174,3.56-0.514l9.76-9.76c0.194-0.673,0.313-1.345,0.396-2.015L883.48,229.333L883.48,229.333z"
		/>
</g>
<g>
	<rect x="843.531" y="249.309" fill="#D1D1D1" width="81.891" height="7.017"/>
</g>
<path fill="#E5BB70" d="M863.348,211.958l1.942,3.364c0,0,1.652,2.924,1.943,3.962c0.29,1.036,0.29,4.766-4.035,4.766
	c-4.324,0-4.19-3.716-3.735-4.766s1.941-3.962,1.941-3.962L863.348,211.958z"/>
<g>
	<path fill="#E5BB70" d="M877,247.309V246.5c0-1.104-0.896-2-2-2h-21.5c-1.104,0-2,0.896-2,2v0.809H877z"/>
</g>
<g>
	<g>
		<path fill="#F7F2ED" d="M4.859,79C2.73,79,1,77.272,1,75.152V4.847c0-2.121,1.73-3.851,3.859-3.851h76.279
			c2.131,0,3.859,1.729,3.859,3.851v70.306c0,2.12-1.729,3.848-3.857,3.848H4.859z"/>
		<path fill="#D1D1D1" d="M81.141,2c1.576,0,2.857,1.277,2.857,2.85v70.303c0,1.57-1.281,2.848-2.857,2.848H4.859
			C3.282,78,2,76.724,2,75.152V4.85C2,3.277,3.282,2,4.859,2H81.141 M81.141,0H4.859C2.174,0,0,2.172,0,4.85v70.303
			c0,2.676,2.176,4.849,4.859,4.849h76.279c2.686,0,4.859-2.173,4.859-4.849V4.85C85.998,2.172,83.824,0,81.141,0L81.141,0z"/>
	</g>
</g>
<path fill="#D1D1D1" d="M74.168,54.356c0,0.297-0.215,0.538-0.479,0.538H13.807c-0.265,0-0.48-0.241-0.48-0.538v-2.151
	c0-0.297,0.216-0.537,0.48-0.537h59.883c0.264,0,0.479,0.24,0.479,0.537V54.356z"/>
<g>
	<g>
		<path fill="#C99E48" d="M60.462,43.481c0.307,0.236,0.752,0.712,0.93,0.87c0.666,0.594,0.363,0.688,0.363,0.688l-2.736-0.017
			c0,0-1.015,0.3-0.34-1.782C59.122,41.869,59.264,42.563,60.462,43.481z"/>
		<path fill="#C99E48" d="M64.219,36.999c-1.528-0.905-4.176-1.771-4.647-1.772c-0.545-0.001-0.326,1.975,0.328,2.406
			c0.596,0.392,1.641,1.127,2.888,2.633c0.638,0.77,0.835,1.106,1.052,1.057c0.262-1.084,0.406-2.244,0.406-3.453
			C64.245,37.576,64.232,37.286,64.219,36.999z"/>
		<path fill="#C99E48" d="M52.874,37.467c0.089-0.785,0.241-1.511,0.447-2.151c0.029-0.089-0.051-0.395-0.123-0.462
			c-0.326-0.302-0.662-0.631-1.015-1.002c-1.128-1.194-1.553-1.865-1.811-2.205c-0.52,1.024-0.913,2.18-1.154,3.427
			c0.843,0.747,2.15,1.763,3.433,2.608C52.716,37.723,52.864,37.579,52.874,37.467z"/>
		<path fill="#C99E48" d="M57.788,33.127c-0.089,0.27,0.744,1.25,1.783,1.364c1.394,0.154,3.592,0.954,4.54,1.386
			c-0.204-1.53-0.642-2.947-1.256-4.174c-0.564-0.194-1.158-0.322-1.701-0.373C59.321,31.153,57.969,32.579,57.788,33.127z"/>
		<path fill="#C99E48" d="M55.206,32.303c0.072,0.181,0.095,0.406,0.679,0.261c0.27-0.067,0.49-0.067,0.644-0.049
			c0.152,0.016,0.385-0.063,0.451-0.115c1.13-0.88,1.056-1.045,2.193-1.791c0.912-0.597,1.933-0.556,2.805-0.369
			c-1.148-1.599-2.658-2.687-4.341-3.007c-1.088,0.644-1.854,1.446-2.28,2.529C55.039,30.563,55.011,31.807,55.206,32.303z"/>
		<path fill="#C99E48" d="M53.868,34.044c0.206-0.366,0.438-0.671,0.687-0.904c0.041-0.039,0.078-0.241,0.031-0.409
			c-0.192-0.667-0.56-2.499,0.472-4.213c0.313-0.518,0.911-0.995,1.367-1.379c-2.23,0.071-4.223,1.483-5.59,3.686
			c0.078,0.162,0.167,0.329,0.271,0.505c0.631,1.063,1.643,2.066,2.488,2.801C53.647,34.177,53.829,34.116,53.868,34.044z"/>
		<path fill="#C99E48" d="M49.313,39.809c0.699,0.586,2.249,1.359,3.627,1.921c0.058,0.023,0.115-0.158,0.093-0.274
			c-0.152-0.77-0.239-1.616-0.239-2.51c0-0.099-0.126-0.372-0.189-0.414c-1.578-1.003-3.044-2.164-3.526-2.555
			c-0.078,0.615-0.121,1.248-0.121,1.893c0,0.564,0.03,1.116,0.089,1.655C49.13,39.629,49.219,39.729,49.313,39.809z"/>
		<path fill="#C99E48" d="M54.505,44.709c-0.416-0.41-0.781-1.031-1.067-1.802c-0.023-0.065-0.157-0.226-0.198-0.239
			c-2.031-0.652-3.21-1.284-3.52-1.446c-0.095-0.052-0.189,0.146-0.264,0.47c0.364,1.342,0.915,2.555,1.607,3.576
			c1.05,0.01,2.514-0.065,3.485-0.124C54.74,45.131,54.681,44.881,54.505,44.709z"/>
		<path fill="#C99E48" d="M62.713,41.404c-0.665-0.654-1.767-2.131-2.425-2.517c-0.585-0.345-0.442-0.348-0.715,0.614
			c-0.188,0.658-0.396,1.209-0.451,1.557c-0.1,0.63,0.889,1.15,1.9,2.182c0.74,0.755,1.182,1.207,1.497,1.425
			c0.404-0.692,0.744-1.458,1.017-2.278C63.317,42.044,63.024,41.713,62.713,41.404z"/>
	</g>
	<g>
		<path fill="#C99E48" d="M34.756,43.481c0.308,0.236,0.751,0.712,0.928,0.87c0.668,0.594,0.363,0.688,0.363,0.688l-2.736-0.017
			c0,0-1.015,0.3-0.34-1.782C33.414,41.869,33.556,42.563,34.756,43.481z"/>
		<path fill="#C99E48" d="M38.511,36.999c-1.526-0.905-4.176-1.771-4.647-1.772c-0.545-0.001-0.324,1.975,0.328,2.406
			c0.596,0.392,1.641,1.127,2.888,2.633c0.638,0.77,0.836,1.106,1.052,1.057c0.265-1.084,0.406-2.244,0.406-3.453
			C38.537,37.576,38.527,37.286,38.511,36.999z"/>
		<path fill="#C99E48" d="M27.168,37.467c0.087-0.785,0.239-1.511,0.445-2.151c0.031-0.089-0.051-0.395-0.121-0.462
			c-0.328-0.302-0.664-0.631-1.017-1.002c-1.128-1.194-1.553-1.865-1.811-2.205c-0.518,1.024-0.913,2.18-1.152,3.427
			c0.841,0.747,2.148,1.763,3.431,2.608C27.008,37.723,27.156,37.579,27.168,37.467z"/>
		<path fill="#C99E48" d="M32.08,33.127c-0.089,0.27,0.744,1.25,1.783,1.364c1.394,0.154,3.592,0.954,4.542,1.386
			c-0.206-1.53-0.642-2.947-1.258-4.174c-0.564-0.194-1.158-0.322-1.701-0.373C33.616,31.153,32.263,32.579,32.08,33.127z"/>
		<path fill="#C99E48" d="M29.498,32.303c0.072,0.181,0.097,0.406,0.681,0.261c0.268-0.067,0.488-0.067,0.642-0.049
			c0.152,0.016,0.385-0.063,0.453-0.115c1.128-0.88,1.054-1.045,2.191-1.791c0.914-0.597,1.935-0.556,2.807-0.369
			c-1.15-1.599-2.66-2.687-4.34-3.007c-1.091,0.644-1.854,1.446-2.283,2.529C29.331,30.563,29.305,31.807,29.498,32.303z"/>
		<path fill="#C99E48" d="M28.16,34.044c0.208-0.366,0.438-0.671,0.687-0.904c0.041-0.039,0.078-0.241,0.031-0.409
			c-0.19-0.667-0.559-2.499,0.472-4.213c0.313-0.518,0.911-0.995,1.367-1.379c-2.23,0.071-4.223,1.483-5.59,3.686
			c0.078,0.162,0.167,0.329,0.271,0.505c0.631,1.063,1.643,2.066,2.488,2.801C27.939,34.177,28.121,34.116,28.16,34.044z"/>
		<path fill="#C99E48" d="M23.605,39.809c0.699,0.586,2.249,1.359,3.627,1.921c0.058,0.023,0.115-0.158,0.093-0.274
			c-0.152-0.77-0.239-1.616-0.239-2.51c0-0.099-0.126-0.372-0.189-0.414c-1.577-1.003-3.044-2.164-3.526-2.555
			c-0.078,0.615-0.119,1.248-0.119,1.893c0,0.564,0.029,1.116,0.089,1.655C23.424,39.629,23.511,39.729,23.605,39.809z"/>
		<path fill="#C99E48" d="M28.797,44.709c-0.416-0.41-0.781-1.031-1.065-1.802c-0.025-0.065-0.157-0.226-0.2-0.239
			c-2.031-0.652-3.21-1.284-3.518-1.446c-0.097-0.052-0.189,0.146-0.264,0.47c0.362,1.342,0.913,2.555,1.606,3.576
			c1.049,0.01,2.515-0.065,3.484-0.124C29.032,45.131,28.975,44.881,28.797,44.709z"/>
		<path fill="#C99E48" d="M37.005,41.404c-0.663-0.654-1.767-2.131-2.422-2.517c-0.586-0.345-0.445-0.348-0.718,0.614
			c-0.186,0.658-0.396,1.209-0.451,1.557c-0.1,0.63,0.889,1.15,1.9,2.182c0.74,0.755,1.184,1.207,1.497,1.425
			c0.404-0.692,0.744-1.458,1.017-2.278C37.611,42.044,37.316,41.713,37.005,41.404z"/>
	</g>
	<g>
		<path fill="#986F2B" d="M45.972,30.214v-1.898c0-0.64-0.41-1.158-0.917-1.158h-2.45c-0.408,0-0.898,0.327-1.017,0.794
			C42.556,28.89,44.892,29.994,45.972,30.214z"/>
		<path fill="#986F2B" d="M45.972,38.816v-2.11c0,0-0.082-0.294-0.397-0.424c-1.334-0.549-3.05-1.395-3.66-1.859
			c-0.188-0.143-0.31-0.139-0.313,0.14c-0.004,0.488-0.015,1.602-0.013,1.797c0.005,0.519,0.283,0.811,0.555,0.996
			c1.18,0.801,3.198,1.621,3.441,1.669C45.896,39.086,45.972,38.816,45.972,38.816z"/>
		<path fill="#986F2B" d="M41.588,39.094c0,0.209-0.142,0.968,0,2.248c0.015,0.139,0.221,0.409,0.276,0.455
			c0.988,0.791,2.751,1.504,3.516,1.795c0.349,0.133,0.61,0.174,0.592-0.104c-0.021-0.276-0.041-2.216-0.041-2.216
			s0.062-0.281-0.306-0.379c-0.34-0.09-1.346-0.415-2.61-1.176C41.869,39.025,41.588,38.713,41.588,39.094z"/>
		<path fill="#986F2B" d="M45.972,34.318v-2.006c0,0,0.145-0.285-0.347-0.523c-0.488-0.238-2.997-1.173-3.876-2.086
			c-0.078-0.081-0.223-0.158-0.243,0.014c-0.019,0.173,0.082,1.972,0.082,1.972s-0.082,0.623,0.367,1.004
			c0.349,0.297,2.569,1.625,3.603,1.876C45.84,34.636,45.972,34.318,45.972,34.318z"/>
		<path fill="#986F2B" d="M41.588,44.629c0.05,0.605,0.448,0.487,0.734,0.521c0.286,0.034,2.447,0,2.447,0s1.029,0.048,0.447-0.14
			c-1.385-0.449-2.661-1.119-3.427-1.592C41.343,43.141,41.547,44.145,41.588,44.629z"/>
	</g>
	<g>
		<path fill="#986F2B" d="M71.678,30.214v-1.898c0-0.64-0.409-1.158-0.918-1.158h-2.447c-0.41,0-0.9,0.327-1.019,0.794
			C68.263,28.89,70.598,29.994,71.678,30.214z"/>
		<path fill="#986F2B" d="M71.678,38.816v-2.11c0,0-0.083-0.294-0.397-0.424c-1.334-0.549-3.05-1.395-3.659-1.859
			c-0.188-0.143-0.311-0.139-0.313,0.14c-0.006,0.488-0.017,1.602-0.015,1.797c0.006,0.519,0.283,0.811,0.556,0.996
			c1.18,0.801,3.198,1.621,3.441,1.669C71.603,39.086,71.678,38.816,71.678,38.816z"/>
		<path fill="#986F2B" d="M67.294,39.094c0,0.209-0.142,0.968,0,2.248c0.016,0.139,0.222,0.409,0.278,0.455
			c0.987,0.791,2.75,1.504,3.515,1.795c0.349,0.133,0.611,0.174,0.591-0.104c-0.02-0.276-0.041-2.216-0.041-2.216
			s0.063-0.281-0.305-0.379c-0.341-0.09-1.346-0.415-2.611-1.176C67.574,39.025,67.294,38.713,67.294,39.094z"/>
		<path fill="#986F2B" d="M71.678,34.318v-2.006c0,0,0.146-0.285-0.345-0.523c-0.49-0.238-2.998-1.173-3.878-2.086
			c-0.078-0.081-0.222-0.158-0.242,0.014c-0.02,0.173,0.081,1.972,0.081,1.972s-0.081,0.623,0.367,1.004
			c0.351,0.297,2.569,1.625,3.604,1.876C71.547,34.636,71.678,34.318,71.678,34.318z"/>
		<path fill="#986F2B" d="M67.294,44.629c0.052,0.605,0.448,0.487,0.734,0.521c0.286,0.034,2.447,0,2.447,0s1.03,0.048,0.448-0.14
			c-1.386-0.449-2.661-1.119-3.426-1.592C67.049,43.141,67.253,44.145,67.294,44.629z"/>
	</g>
	<g>
		<path fill="#986F2B" d="M20.265,30.214v-1.898c0-0.64-0.41-1.158-0.917-1.158h-2.448c-0.41,0-0.9,0.327-1.02,0.794
			C16.849,28.89,19.185,29.994,20.265,30.214z"/>
		<path fill="#986F2B" d="M20.265,38.816v-2.11c0,0-0.083-0.294-0.397-0.424c-1.333-0.549-3.05-1.395-3.66-1.859
			c-0.188-0.143-0.31-0.139-0.313,0.14c-0.005,0.488-0.017,1.602-0.015,1.797c0.007,0.519,0.284,0.811,0.558,0.996
			c1.179,0.801,3.197,1.621,3.44,1.669C20.189,39.086,20.265,38.816,20.265,38.816z"/>
		<path fill="#986F2B" d="M15.88,39.094c0,0.209-0.141,0.968,0,2.248c0.016,0.139,0.223,0.409,0.279,0.455
			c0.986,0.791,2.75,1.504,3.515,1.795c0.349,0.133,0.61,0.174,0.591-0.104c-0.021-0.276-0.041-2.216-0.041-2.216
			s0.063-0.281-0.305-0.379c-0.342-0.09-1.346-0.415-2.611-1.176C16.162,39.025,15.88,38.713,15.88,39.094z"/>
		<path fill="#986F2B" d="M20.265,34.318v-2.006c0,0,0.146-0.285-0.345-0.523c-0.491-0.238-2.998-1.173-3.879-2.086
			c-0.077-0.081-0.222-0.158-0.241,0.014c-0.021,0.173,0.08,1.972,0.08,1.972s-0.08,0.623,0.368,1.004
			c0.35,0.297,2.569,1.625,3.604,1.876C20.133,34.636,20.265,34.318,20.265,34.318z"/>
		<path fill="#986F2B" d="M15.88,44.629c0.052,0.605,0.45,0.487,0.735,0.521c0.287,0.034,2.447,0,2.447,0s1.029,0.048,0.448-0.14
			c-1.386-0.449-2.662-1.119-3.426-1.592C15.636,43.141,15.84,44.145,15.88,44.629z"/>
	</g>
</g>
<path fill="#C99E48" d="M74.168,49.336c0,0.297-0.215,0.538-0.479,0.538H13.807c-0.265,0-0.48-0.241-0.48-0.538v-2.151
	c0-0.296,0.216-0.538,0.48-0.538h59.883c0.264,0,0.479,0.242,0.479,0.538V49.336z"/>
</svg>
