<?xml version="1.0" encoding="utf-8"?>
<!-- Generator: Adobe Illustrator 16.0.0, SVG Export Plug-In . SVG Version: 6.00 Build 0)  -->
<!DOCTYPE svg PUBLIC "-//W3C//DTD SVG 1.1//EN" "http://www.w3.org/Graphics/SVG/1.1/DTD/svg11.dtd">
<svg version="1.1" id="Layer_1" xmlns="http://www.w3.org/2000/svg" xmlns:xlink="http://www.w3.org/1999/xlink" x="0px" y="0px"
	 width="86px" height="80px" viewBox="0 0 86 80" enable-background="new 0 0 86 80" xml:space="preserve">
<g>
	<g>
		<path fill="#F7F2ED" d="M4.861,79.665c-2.13,0-3.859-1.728-3.859-3.848V5.512c0-2.121,1.729-3.851,3.859-3.851H81.14
			c2.131,0,3.86,1.729,3.86,3.851v70.306c0,2.12-1.729,3.848-3.858,3.848H4.861z"/>
		<path fill="#D1D1D1" d="M81.142,1.999c1.576,0,2.858,1.277,2.858,2.85v70.303c0,1.57-1.282,2.848-2.858,2.848H4.861
			c-1.578,0-2.859-1.276-2.859-2.848V4.849c0-1.572,1.281-2.85,2.859-2.85H81.142 M81.142-0.001H4.861
			c-2.686,0-4.859,2.172-4.859,4.85v70.303C0.002,77.827,2.177,80,4.861,80H81.14c2.687,0,4.86-2.173,4.86-4.849V4.849
			C86,2.171,83.826-0.001,81.142-0.001L81.142-0.001z"/>
	</g>
</g>
<g>
	<g>
		<path fill="#C99E48" d="M74.138,43.71c0,0.297-0.215,0.538-0.479,0.538H13.775c-0.265,0-0.479-0.241-0.479-0.538v-2.151
			c0-0.297,0.215-0.538,0.479-0.538h59.884c0.264,0,0.479,0.241,0.479,0.538V43.71z"/>
		<path fill="#D1D1D1" d="M74.138,48.73c0,0.297-0.215,0.538-0.479,0.538H13.775c-0.265,0-0.479-0.241-0.479-0.538v-2.152
			c0-0.295,0.215-0.536,0.479-0.536h59.884c0.264,0,0.479,0.241,0.479,0.536V48.73z"/>
	</g>
	<g>
		<path fill="#98702A" d="M34.446,31.654c1.213,1.724,1.657,2.306,2.443,3.193c-0.231,0.633-0.455,1.237-0.678,1.787
			c-0.494,1.219-0.66,2.439-0.533,3.511h2.326c-0.143-0.665-0.081-1.612,0.338-2.648c0.093-0.229,0.186-0.466,0.278-0.712
			c0.597,0.816,1.187,2.363,1.336,3.36h2.324c-0.175-1.995-1.449-4.366-2.133-5.122l-0.62-0.684c0.758-2.016,1.63-4.081,2.792-5.306
			c1.63-1.716,4.131-2.78,6.53-2.78c0.003,0,0.007,0,0.01,0c2.589,0.003,4.116,0.965,5.93,2.86
			c-0.353,0.378-0.686,0.771-0.992,1.181c-1.918,2.57-3.329,6.551-1.539,9.851h2.959c-0.201-0.114-0.385-0.269-0.539-0.468
			c-1.885-2.435-0.66-5.835,0.961-8.007c0.19-0.255,0.395-0.504,0.608-0.746c1.037,1.671,1.631,3.796,1.631,5.948l0.001,0.338
			c0.01,1.631-0.069,2.447-0.824,2.882c-0.037,0.021-0.074,0.034-0.112,0.053h2.874c0.359-0.978,0.366-2.054,0.361-2.947
			l-0.001-0.325c0-2.746-0.824-5.478-2.248-7.575c1.204-1.023,2.56-1.948,3.889-2.855c0.479-0.326,0.947-0.646,1.399-0.965
			c0.52-0.365,0.645-1.083,0.278-1.602c-0.364-0.519-1.081-0.644-1.601-0.278c-0.443,0.312-0.904,0.626-1.373,0.946
			c-1.326,0.905-2.753,1.879-4.063,2.99c-2.177-2.273-4.227-3.575-7.596-3.58c-0.004,0-0.008,0-0.012,0
			c-3.009,0-6.149,1.339-8.198,3.497c-1.207,1.271-2.089,3.082-2.832,4.932c-0.387-0.491-0.808-1.074-1.495-2.051
			c-1.491-2.12-2.998-5.961-3.658-8.5c-0.16-0.614-0.79-0.985-1.401-0.823c-0.614,0.16-0.983,0.788-0.823,1.402
			C31.173,25.213,32.781,29.289,34.446,31.654z"/>
	</g>
	<path fill="#98702A" d="M54.104,29.127c-0.03-0.031-0.06-0.057-0.091-0.086c-0.004,0.073-0.012,0.143-0.016,0.217
		C54.034,29.214,54.065,29.17,54.104,29.127z"/>
	<path fill="#C99E48" d="M57.38,37.214l-0.001-0.34c0-0.048-0.008-0.095-0.009-0.142c-0.235-0.723-0.496-1.648-0.777-2.854
		c-0.027-0.118-0.054-0.235-0.079-0.352c0.097-0.055,0.194-0.115,0.292-0.171c-0.177-0.54-0.379-1.067-0.635-1.558
		c-0.044,0.057-0.088,0.113-0.131,0.171c-0.581,0.778-1.108,1.724-1.443,2.717c0.646,2.698,1.288,4.438,2.024,5.459h0.207
		l-0.104-0.45C57.271,39.391,57.39,38.889,57.38,37.214z"/>
	<path fill="#C99E48" d="M48.778,34.73c0.144-0.731,0.299-1.478,0.475-2.241c-0.119-0.09-0.24-0.173-0.355-0.276l0.083-0.174
		c0.244-0.506,0.521-1.089,0.8-1.7c0.291-1.12,0.607-2.244,0.946-3.341c-0.534-0.141-1.109-0.233-1.776-0.24
		c-0.462,1.305-1.057,2.611-1.535,3.619c-0.519-0.857-0.929-1.82-1.188-2.765c-0.038-0.137-0.053-0.261-0.084-0.393
		c-0.696,0.235-1.361,0.555-1.973,0.948c0.001,0.003,0.001,0.006,0.002,0.009c0.426,1.548,1.18,3.142,2.195,4.439
		c-0.199,0.471-0.399,0.98-0.607,1.51c-0.803,2.044-1.78,4.522-3.053,5.494c0.026,0.161,0.059,0.324,0.072,0.482l0.004,0.044h2.352
		c1.104-1.435,1.89-3.413,2.607-5.241c0.089-0.227,0.176-0.447,0.262-0.664C48.252,34.426,48.513,34.586,48.778,34.73z"/>
	<path fill="#C99E48" d="M46.233,23.776c0.012-0.028,0.015-0.06,0.026-0.087c0.403-0.995,1.12-2.093,1.813-2.306
		c0.062-0.019,0.136-0.036,0.227-0.036c0.164,0,0.381,0.054,0.667,0.244c0.55,0.366,0.744,1.055,0.72,1.906
		c0.762,0.053,1.457,0.176,2.1,0.361c0.112-1.668-0.287-3.14-1.638-4.04c-1.106-0.739-2.081-0.664-2.701-0.472
		c-1.777,0.547-2.803,2.658-3.161,3.541c-0.22,0.542-0.341,1.116-0.416,1.707C44.629,24.244,45.423,23.967,46.233,23.776z"/>
	<path fill="#C99E48" d="M56.487,26.849c0.576-2.036,1.676-3.223,2.565-3.703c0.341-0.184,0.676-0.278,0.944-0.278
		c0.196,0,0.356,0.051,0.455,0.155c0.197,0.207,0.355,0.414,0.495,0.622c0.22-0.151,0.448-0.305,0.66-0.455
		c0.28-0.197,0.607-0.301,0.949-0.301c0.16,0,0.314,0.03,0.465,0.075c-0.259-0.486-0.597-0.958-1.026-1.409
		c-0.924-0.971-2.477-1.081-3.954-0.282c-1.345,0.726-2.538,2.115-3.277,4.074C55.361,25.787,55.93,26.288,56.487,26.849z"/>
	<path fill="#98702A" d="M36.735,30.045c0.409,0.58,0.71,1.003,0.958,1.341c0.11-0.257,0.235-0.522,0.359-0.786
		c-0.247-0.861-0.421-1.895-0.485-3.194c-0.083-1.675,0.762-3.666,1.844-4.347c0.236-0.148,0.466-0.223,0.697-0.223
		c0.206,0,0.414,0.059,0.631,0.176c0.591,0.321,1.073,1.313,1.403,2.541c0.564-0.38,1.169-0.708,1.795-0.992
		c-0.479-1.51-1.211-2.775-2.232-3.33c-1.105-0.599-2.304-0.561-3.373,0.113c-1.71,1.076-2.908,3.725-2.788,6.161
		c0.01,0.208,0.032,0.392,0.047,0.589C35.964,28.825,36.35,29.496,36.735,30.045z"/>
	<path fill="#98702A" d="M44.754,36.025c-0.681-0.374-1.383-0.658-2.063-0.934c-0.093-0.038-0.186-0.076-0.278-0.113
		c0.755-0.658,1.347-1.488,1.748-2.475c0.413-1.016,0.559-2.756,0.411-4.582c-0.704,0.4-1.35,0.888-1.89,1.456
		c-0.018,0.019-0.035,0.042-0.053,0.062c-0.01,0.916-0.117,1.738-0.346,2.3c-0.435,1.066-1.132,1.768-1.923,2.223
		c-0.041-0.027-0.078-0.061-0.118-0.088c-0.046,0.118-0.094,0.236-0.139,0.355l0.414,0.457c0.362,0.4,0.893,1.244,1.352,2.257
		c0.02,0.008,0.041,0.017,0.061,0.024c0.653,0.266,1.271,0.516,1.847,0.832c1.222,0.672,1.793,1.507,2.151,2.345h2.164
		C47.672,38.87,46.929,37.221,44.754,36.025z"/>
	<g>
		<path fill="#C99E48" d="M65.577,34.031l0.371-0.576c0.629-0.961,1.33-2.488,2.071-4.171c-0.394-0.797-0.816-1.6-1.273-2.401
			c-0.083,0.19-0.166,0.379-0.249,0.569c-0.863,1.976-1.679,3.842-2.33,4.836l-0.385,0.597c-0.123,0.192-0.284,0.444-0.467,0.725
			c0.074,0.988,0.229,2.022,0.497,3.067C64.405,35.838,64.995,34.941,65.577,34.031z"/>
		<path fill="#C99E48" d="M68.819,24.264c0.255,0.42,0.529,0.893,0.809,1.388c0.096-0.208,0.191-0.41,0.287-0.612
			C69.57,24.695,69.206,24.429,68.819,24.264z"/>
		<path fill="#C99E48" d="M61.168,38.695c-0.167-0.502-0.304-1.002-0.424-1.497c-0.022,0.026-0.044,0.055-0.065,0.081
			c0.004,0.762-0.012,1.85-0.344,2.866h0.533c0.2-0.176,0.401-0.368,0.604-0.575C61.352,39.242,61.25,38.94,61.168,38.695z"/>
		<path fill="#C99E48" d="M71.417,22.236c0.109-0.168,0.219-0.333,0.325-0.475c0.353-0.471,0.257-1.138-0.214-1.491
			c-0.47-0.353-1.137-0.257-1.491,0.213c-0.168,0.224-0.336,0.476-0.504,0.742C70.144,21.419,70.782,21.746,71.417,22.236z"/>
	</g>
	<path fill="#98702A" d="M72.763,24.415c-2.144-3.181-4.853-3.155-6.315-2.839c-0.546-0.755-1.04-1.377-1.442-1.825
		c-0.39-0.434-1.055-0.466-1.486-0.078c-0.432,0.389-0.467,1.054-0.078,1.486c0.291,0.323,0.624,0.734,0.986,1.218
		c-0.371,0.216-0.722,0.467-1.051,0.737c0.205,0.118,0.39,0.275,0.529,0.475c0.254,0.359,0.352,0.796,0.276,1.23
		c-0.075,0.435-0.315,0.813-0.677,1.067c-0.453,0.319-0.924,0.641-1.405,0.969c-0.363,0.248-0.729,0.504-1.094,0.758
		c-0.347,2.285-0.82,6.554,0.637,10.924c0.145,0.434,0.334,1.002,0.59,1.608h3.484c0.367-0.479,0.789-1.027,1.327-1.7
		c0.455-0.568,1.025-1.203,1.629-1.875c0.611-0.681,1.269-1.414,1.902-2.186c0.364,1.348,0.547,2.619,0.463,3.716
		c-0.066,0.853-0.291,1.525-0.679,2.045h2.347c0.217-0.569,0.376-1.187,0.43-1.883c0.139-1.785-0.28-3.863-1.006-5.981
		C73.725,29.809,74.558,27.079,72.763,24.415z M67.106,35.164c-0.624,0.695-1.213,1.352-1.705,1.967
		c-0.561,0.7-1.014,1.287-1.394,1.783c-0.155-0.402-0.277-0.768-0.369-1.042c-1.454-4.364-0.748-8.744-0.447-10.615l0.072-0.453
		c0.116-0.774,1.037-1.993,2.37-2.704c1.446,2.194,3.055,5.078,4.142,7.879C69.029,32.988,68.109,34.047,67.106,35.164z
		 M71.139,29.759c-0.986-2.242-2.206-4.416-3.359-6.218c1.247,0.021,2.333,0.707,3.237,2.05
		C71.897,26.897,71.82,28.275,71.139,29.759z"/>
	<g>
		<path fill="#C99E48" d="M34.813,26.429c0.947-1.895,1.835-3.792,2.375-5.293c0.191-0.533-0.085-1.121-0.619-1.313
			c-0.531-0.191-1.121,0.086-1.313,0.619c-0.347,0.964-0.869,2.145-1.457,3.382C34.093,24.674,34.439,25.563,34.813,26.429z"/>
		<path fill="#C99E48" d="M32.804,30.326c0.039-0.074,0.08-0.154,0.119-0.229c-0.389-0.724-0.761-1.503-1.11-2.306
			c-0.095,0.183-0.191,0.369-0.284,0.546c-1.111-1.497-2.501-2.697-4.695-2.701c-0.003,0-0.006,0-0.01,0
			c-2.103,0-4.269,1.317-5.652,3.44c-0.667,1.023-1.181,2.419-1.615,3.892c-0.159-0.317-0.344-0.695-0.574-1.171
			c-0.26-0.539-0.681-1.341-1.173-2.28c-1.348-2.57-3.604-6.872-3.909-8.577c-0.099-0.557-0.621-0.925-1.19-0.83
			c-0.558,0.1-0.93,0.633-0.829,1.191c0.36,2.017,2.528,6.15,4.111,9.168c0.479,0.915,0.889,1.695,1.143,2.221
			c0.825,1.705,1.102,2.225,1.66,3.136c-0.004,0.015-0.008,0.029-0.011,0.044c-0.166,0.657-0.324,1.286-0.481,1.854
			c-0.225,0.808-0.278,1.639-0.188,2.421h2.078c-0.103-0.563-0.096-1.212,0.087-1.871c0.001-0.001,0.001-0.003,0.002-0.005
			c0.376,0.68,0.68,1.319,0.907,1.876h2.187c-0.476-1.487-1.389-3.071-1.898-3.894l-0.446-0.715
			c-0.011-0.018-0.021-0.034-0.031-0.051c0.51-1.992,1.097-4.068,1.892-5.289c1.01-1.547,2.517-2.508,3.934-2.508
			c0.002,0,0.004,0,0.006,0c1.382,0.002,2.298,0.67,3.62,2.701c-0.272,0.518-0.517,0.982-0.718,1.375
			c-1.126,2.197-1.979,5.508-1.188,8.38h2.179c-0.888-2.254-0.267-5.293,0.836-7.442c0.009-0.018,0.018-0.033,0.025-0.051
			c0.538,1.514,0.841,3.327,0.841,5.164l0.001,0.317c0.002,0.688,0.003,1.429-0.118,2.012h2.08c0.09-0.666,0.093-1.36,0.091-2.02
			l-0.001-0.31C34.477,35.023,33.872,32.34,32.804,30.326z"/>
	</g>
	<g>
		<path fill="#C99E48" d="M54.161,24.926c0.649-1.763,1.258-3.049,1.69-3.445c0.429-0.393,0.458-1.059,0.064-1.487
			c-0.392-0.428-1.057-0.457-1.486-0.065c-0.642,0.587-1.396,2.092-2.15,4.072C52.957,24.239,53.577,24.553,54.161,24.926z"/>
		<path fill="#C99E48" d="M51.892,32.576c0.358-1.495,0.765-2.988,1.184-4.377c-0.586-0.469-1.187-0.83-1.865-1.072
			c-1.34,4.325-2.482,9.576-2.691,13.019h2.096c0.051-0.869,0.168-1.854,0.334-2.903C50.858,35.635,51.248,34.025,51.892,32.576z"/>
	</g>
	<g>
		<path fill="#98702A" d="M17.75,28.327c0.175,0.336,0.341,0.652,0.49,0.938l0.063,0.12c0.349,0.666,0.658,1.256,0.898,1.732
			c0.186-0.963,0.357-1.824,0.428-2.029c0.047-0.134,0.09-0.248,0.129-0.343c0.145,0.266,0.297,0.629,0.45,1.038
			c0.176-0.36,0.355-0.691,0.543-0.979c0.518-0.794,1.145-1.475,1.833-2.034c-0.125-0.517-0.156-1.038-0.067-1.568
			c0.137-0.817,0.497-1.439,1.072-1.848c0.502-0.357,1.174-0.549,1.879-0.549c0.22,0,0.442,0.019,0.663,0.057
			c0.487,0.083,0.89,0.367,1.23,0.867c0.274,0.403,0.483,0.938,0.631,1.538c0.873,0.18,1.604,0.541,2.209,0.988
			c-0.119-1.327-0.472-2.648-1.166-3.667c-0.647-0.951-1.533-1.547-2.562-1.724c-1.479-0.252-2.955,0.053-4.059,0.838
			c-1.016,0.722-1.671,1.816-1.896,3.165c-0.096,0.572-0.11,1.135-0.045,1.69c-0.226-0.129-0.467-0.197-0.729-0.206
			C18.472,26.343,17.954,27.733,17.75,28.327z"/>
		<path fill="#98702A" d="M31.492,34.109c-0.135,0.367-0.249,0.751-0.35,1.141c0.192,0.065,0.391,0.136,0.588,0.209
			C31.663,35.002,31.597,34.543,31.492,34.109z"/>
		<path fill="#98702A" d="M16.75,26.38c0.507-1.808,1.244-3.54,2.295-5.001c0.327-0.455,0.224-1.087-0.231-1.414
			c-0.454-0.326-1.088-0.223-1.413,0.231c-0.784,1.09-1.406,2.308-1.909,3.585C15.873,24.616,16.312,25.513,16.75,26.38z"/>
		<path fill="#98702A" d="M17.82,37.591c0.144-0.518,0.287-1.087,0.438-1.683c-0.485-0.801-0.784-1.37-1.494-2.835
			c-0.241,1.245-0.539,2.743-0.826,4.015c-0.167-1.534-0.228-3.563-0.05-5.736c-0.102-0.195-0.208-0.398-0.319-0.609
			c-0.414-0.791-0.866-1.652-1.315-2.532c-0.891,4.915-0.424,9.826,0.277,11.936h2.666c0.128-0.341,0.262-0.791,0.408-1.347
			C17.642,38.389,17.711,37.982,17.82,37.591z"/>
		<path fill="#98702A" d="M36.085,34.683c-0.462-0.062-0.946-0.184-1.438-0.336c0.129,0.704,0.215,1.429,0.263,2.171
			c0.254,0.06,0.509,0.113,0.764,0.152c0.028-0.074,0.046-0.149,0.076-0.223c0.188-0.464,0.376-0.967,0.569-1.493
			C36.238,34.862,36.161,34.772,36.085,34.683z"/>
		<path fill="#98702A" d="M29.286,31.538c0.166-0.322,0.359-0.694,0.575-1.103c0.001-0.008,0.003-0.015,0.004-0.021
			c-0.682-1.011-1.218-1.57-1.727-1.878c-0.024,0.18-0.05,0.361-0.086,0.537c-0.095,0.461-0.193,1.043-0.304,1.691
			c-0.051,0.302-0.11,0.652-0.178,1.033c-0.879-0.439-1.684-0.939-2.359-1.478c-0.384-0.306-0.712-0.61-1.015-0.916
			c-0.322,0.309-0.625,0.663-0.889,1.067c-0.112,0.173-0.221,0.372-0.325,0.582c0.299,0.287,0.615,0.572,0.967,0.852
			c0.91,0.725,2.015,1.387,3.216,1.943c-0.369,1.646-0.862,3.242-1.475,3.621c-0.194,0.121-0.282,0.092-0.327,0.078
			c-0.094-0.031-0.595-0.254-1.193-1.678c-0.163-0.39-0.419-1.328-0.691-2.322c-0.224-0.818-0.43-1.543-0.63-2.217
			c-0.429,0.939-0.802,2.151-1.142,3.417c0.23,0.833,0.425,1.499,0.595,1.905c0.006,0.016,0.013,0.028,0.02,0.043
			c0.232,0.404,0.49,0.879,0.739,1.389c0.496,0.728,1.053,1.189,1.686,1.393c0.667,0.215,1.362,0.115,2.011-0.285
			c0.382-0.236,0.707-0.594,0.996-1.039C27.663,35.718,28.404,33.259,29.286,31.538z"/>
	</g>
	<path fill="#C99E48" d="M60.439,28.027c-0.191,0.138-0.387,0.268-0.577,0.407c-0.357,0.385-0.761,0.753-1.189,1.107
		c0.366,0.604,0.684,1.253,0.955,1.931c0.183-0.143,0.361-0.29,0.536-0.439C60.211,29.775,60.338,28.736,60.439,28.027z"/>
</g>
<g>
	<g enable-background="new    ">
		<path fill="#374537" d="M36.31,71.844V67.6c0-0.398-0.02-0.748-0.053-1.043s-0.104-0.543-0.203-0.74
			c-0.1-0.199-0.242-0.352-0.428-0.451c-0.186-0.102-0.428-0.145-0.729-0.145c-0.459,0-0.844,0.139-1.146,0.42
			c-0.305,0.275-0.518,0.629-0.639,1.049v5.16h-1.199v-7.5h0.84l0.227,0.916h0.063c0.271-0.32,0.582-0.582,0.938-0.787
			c0.354-0.205,0.814-0.313,1.389-0.313c0.48,0,0.871,0.094,1.178,0.275c0.309,0.189,0.541,0.51,0.711,0.971
			c0.23-0.395,0.547-0.691,0.953-0.916c0.404-0.223,0.861-0.33,1.373-0.33c0.42,0,0.773,0.049,1.064,0.145
			c0.289,0.098,0.527,0.264,0.721,0.502c0.189,0.24,0.326,0.564,0.412,0.98c0.084,0.41,0.127,0.93,0.127,1.559v4.5h-1.199v-4.514
			c0-0.361-0.02-0.674-0.053-0.939c-0.035-0.268-0.105-0.484-0.211-0.658c-0.104-0.178-0.25-0.307-0.438-0.395
			c-0.184-0.084-0.428-0.127-0.727-0.127c-0.5,0-0.893,0.141-1.17,0.42c-0.281,0.277-0.48,0.684-0.604,1.199v5.01H36.31V71.844
			L36.31,71.844z"/>
		<path fill="#374537" d="M48.489,71.844V67.6c0-0.398-0.018-0.748-0.053-1.043s-0.104-0.543-0.203-0.74
			c-0.102-0.199-0.242-0.352-0.428-0.451c-0.188-0.102-0.43-0.145-0.729-0.145c-0.463,0-0.846,0.139-1.146,0.42
			c-0.307,0.275-0.52,0.629-0.639,1.049v5.16h-1.201v-7.5h0.844l0.225,0.916h0.061c0.271-0.32,0.582-0.582,0.939-0.787
			c0.355-0.205,0.816-0.313,1.389-0.313c0.48,0,0.873,0.094,1.18,0.275c0.307,0.186,0.543,0.51,0.713,0.971
			c0.229-0.395,0.547-0.691,0.951-0.916c0.404-0.223,0.861-0.33,1.373-0.33c0.42,0,0.773,0.049,1.063,0.145
			c0.291,0.098,0.529,0.264,0.723,0.502c0.189,0.24,0.328,0.564,0.412,0.98c0.086,0.408,0.127,0.93,0.127,1.559v4.5h-1.197v-4.514
			c0-0.361-0.021-0.674-0.055-0.939c-0.035-0.268-0.104-0.484-0.209-0.658c-0.104-0.178-0.25-0.307-0.438-0.395
			c-0.189-0.084-0.432-0.127-0.73-0.127c-0.5,0-0.891,0.141-1.17,0.42c-0.281,0.277-0.479,0.684-0.602,1.199v5.01h-1.199V71.844
			L48.489,71.844z"/>
	</g>
	<polyline fill="none" stroke="#374537" stroke-width="0.9248" stroke-linecap="round" stroke-miterlimit="10" points="
		47.703,58.115 43.031,52.387 38.361,58.115 	"/>
	<polyline fill="none" stroke="#374537" stroke-width="0.8954" stroke-linecap="round" stroke-miterlimit="10" points="
		47.703,10.663 43.031,16.033 38.361,10.663 	"/>
</g>
</svg>
