<?xml version="1.0" encoding="utf-8"?>
<!-- Generator: Adobe Illustrator 16.0.0, SVG Export Plug-In . SVG Version: 6.00 Build 0)  -->
<!DOCTYPE svg PUBLIC "-//W3C//DTD SVG 1.1//EN" "http://www.w3.org/Graphics/SVG/1.1/DTD/svg11.dtd">
<svg version="1.1" id="Layer_1" xmlns="http://www.w3.org/2000/svg" xmlns:xlink="http://www.w3.org/1999/xlink" x="0px" y="0px"
	 width="86px" height="80px" viewBox="0 0 86 80" enable-background="new 0 0 86 80" xml:space="preserve">
<g>
	<g>
		<g>
			<path fill="#F7F2ED" d="M4.859,78.999C2.729,78.999,1,77.271,1,75.151V4.846c0-2.121,1.729-3.851,3.859-3.851h76.278
				c2.131,0,3.86,1.729,3.86,3.851v70.306c0,2.12-1.729,3.848-3.858,3.848H4.859z"/>
			<path fill="#D1D1D1" d="M81.14,1.999c1.576,0,2.858,1.277,2.858,2.85v70.303c0,1.57-1.282,2.848-2.858,2.848H4.859
				C3.281,77.999,2,76.723,2,75.151V4.849c0-1.572,1.281-2.85,2.859-2.85H81.14 M81.14-0.001H4.859C2.174-0.001,0,2.171,0,4.849
				v70.303C0,77.827,2.175,80,4.859,80h76.278c2.687,0,4.86-2.173,4.86-4.849V4.849C85.998,2.171,83.824-0.001,81.14-0.001
				L81.14-0.001z"/>
		</g>
	</g>
	<g>
		<g>
			<path fill="#C99E48" d="M70.112,41.477c0,0.221-0.06,0.4-0.133,0.4H53.349c-0.074,0-0.133-0.18-0.133-0.4v-1.604
				c0-0.222,0.059-0.401,0.133-0.401h16.631c0.073,0,0.133,0.179,0.133,0.401V41.477z"/>
			<path fill="#D1D1D1" d="M70.112,45.22c0,0.224-0.06,0.402-0.133,0.402H53.349c-0.074,0-0.133-0.179-0.133-0.402v-1.605
				c0-0.22,0.059-0.399,0.133-0.399h16.631c0.073,0,0.133,0.18,0.133,0.399V45.22z"/>
		</g>
		<g>
			<path fill="#C99E48" d="M32.812,41.477c0,0.221-0.06,0.4-0.133,0.4h-16.63c-0.074,0-0.133-0.18-0.133-0.4v-1.604
				c0-0.222,0.06-0.401,0.133-0.401h16.63c0.074,0,0.133,0.179,0.133,0.401V41.477z"/>
			<path fill="#D1D1D1" d="M32.812,45.22c0,0.224-0.06,0.402-0.133,0.402h-16.63c-0.074,0-0.133-0.179-0.133-0.402v-1.605
				c0-0.22,0.06-0.399,0.133-0.399h16.63c0.074,0,0.133,0.18,0.133,0.399V45.22z"/>
		</g>
		<g>
			<g>
				<path fill="#98702A" d="M35.288,31.732c1.117,1.389,1.526,1.858,2.25,2.575c-0.213,0.509-0.419,0.998-0.624,1.441
					c-0.455,0.983-0.608,1.967-0.491,2.832h2.143c-0.131-0.536-0.075-1.301,0.311-2.136c0.085-0.184,0.171-0.376,0.256-0.573
					c0.549,0.657,1.093,1.903,1.23,2.709h2.141c-0.162-1.609-1.334-3.52-1.964-4.132l-0.571-0.55
					c0.698-1.625,1.501-3.292,2.572-4.279c1.501-1.385,3.804-2.243,6.014-2.243c0.003,0,0.007,0,0.01,0
					c2.384,0.002,3.791,0.779,5.461,2.308c-0.324,0.304-0.632,0.621-0.914,0.953c-1.767,2.073-3.066,5.282-1.417,7.943h2.725
					c-0.185-0.093-0.354-0.216-0.496-0.378c-1.735-1.963-0.608-4.706,0.885-6.457c0.176-0.207,0.363-0.407,0.561-0.602
					c0.955,1.348,1.502,3.061,1.502,4.795l0.001,0.273c0.009,1.316-0.064,1.975-0.759,2.325c-0.035,0.017-0.069,0.028-0.104,0.042
					h2.647c0.33-0.788,0.337-1.657,0.332-2.377l-0.001-0.264c0-2.214-0.759-4.417-2.07-6.108c1.109-0.825,2.357-1.571,3.581-2.303
					c0.44-0.263,0.872-0.521,1.29-0.778c0.478-0.294,0.593-0.874,0.256-1.291c-0.336-0.419-0.996-0.52-1.475-0.225
					c-0.408,0.251-0.832,0.505-1.265,0.763c-1.221,0.73-2.535,1.516-3.742,2.411c-2.005-1.833-3.893-2.883-6.996-2.887
					c-0.003,0-0.007,0-0.011,0c-2.771,0-5.663,1.08-7.55,2.82c-1.112,1.025-1.924,2.484-2.608,3.977
					c-0.356-0.396-0.744-0.866-1.377-1.654c-1.373-1.71-2.761-4.807-3.369-6.854c-0.147-0.496-0.728-0.795-1.291-0.665
					c-0.565,0.129-0.905,0.635-0.758,1.13C32.272,26.537,33.754,29.823,35.288,31.732z"/>
			</g>
			<path fill="#98702A" d="M53.392,29.693c-0.028-0.025-0.055-0.045-0.084-0.07c-0.003,0.06-0.01,0.116-0.014,0.176
				C53.328,29.763,53.357,29.728,53.392,29.693z"/>
			<path fill="#C99E48" d="M56.409,36.215l-0.001-0.274c0-0.038-0.007-0.075-0.008-0.115c-0.217-0.583-0.457-1.328-0.716-2.299
				c-0.025-0.096-0.049-0.19-0.073-0.285c0.089-0.043,0.18-0.094,0.27-0.137c-0.163-0.437-0.35-0.861-0.585-1.257
				c-0.04,0.046-0.081,0.093-0.12,0.138c-0.535,0.628-1.021,1.39-1.33,2.191c0.596,2.176,1.188,3.58,1.865,4.403h0.19l-0.095-0.362
				C56.31,37.971,56.418,37.566,56.409,36.215z"/>
			<path fill="#C99E48" d="M48.487,34.213c0.133-0.59,0.275-1.193,0.437-1.808c-0.109-0.072-0.221-0.141-0.326-0.223l0.076-0.14
				c0.225-0.408,0.479-0.879,0.736-1.372c0.269-0.904,0.559-1.81,0.871-2.695c-0.491-0.113-1.021-0.187-1.636-0.193
				c-0.425,1.053-0.974,2.106-1.413,2.918c-0.479-0.69-0.855-1.467-1.096-2.229c-0.035-0.11-0.048-0.21-0.077-0.316
				c-0.642,0.189-1.253,0.448-1.817,0.764c0.001,0.004,0.001,0.005,0.002,0.009c0.393,1.247,1.087,2.533,2.022,3.58
				c-0.184,0.38-0.368,0.791-0.56,1.218c-0.739,1.648-1.64,3.646-2.811,4.431c0.024,0.13,0.054,0.262,0.067,0.389l0.004,0.035h2.164
				c1.019-1.158,1.741-2.752,2.402-4.228c0.082-0.181,0.161-0.361,0.241-0.535C48.003,33.967,48.242,34.097,48.487,34.213z"/>
			<path fill="#C99E48" d="M46.144,25.377c0.011-0.021,0.013-0.048,0.024-0.07c0.371-0.802,1.031-1.688,1.669-1.86
				c0.057-0.016,0.125-0.029,0.209-0.029c0.151,0,0.351,0.043,0.613,0.197c0.508,0.295,0.686,0.851,0.663,1.537
				c0.702,0.043,1.343,0.142,1.935,0.292c0.104-1.345-0.265-2.531-1.509-3.258c-1.019-0.596-1.916-0.535-2.487-0.38
				c-1.638,0.441-2.582,2.144-2.911,2.856c-0.203,0.437-0.314,0.9-0.384,1.375C44.666,25.755,45.396,25.532,46.144,25.377z"/>
			<path fill="#C99E48" d="M55.587,27.855c0.531-1.642,1.544-2.599,2.363-2.986c0.313-0.148,0.622-0.225,0.87-0.225
				c0.18,0,0.328,0.041,0.419,0.125c0.182,0.166,0.328,0.333,0.456,0.501c0.202-0.122,0.413-0.247,0.608-0.367
				c0.258-0.159,0.559-0.242,0.874-0.242c0.147,0,0.289,0.023,0.428,0.059c-0.238-0.392-0.55-0.772-0.945-1.137
				c-0.851-0.782-2.281-0.871-3.642-0.227c-1.239,0.585-2.338,1.706-3.019,3.286C54.551,27,55.073,27.404,55.587,27.855z"/>
			<path fill="#98702A" d="M37.396,30.433c0.377,0.469,0.654,0.81,0.882,1.082c0.102-0.206,0.217-0.421,0.331-0.634
				c-0.228-0.694-0.388-1.528-0.447-2.577c-0.077-1.35,0.702-2.956,1.698-3.505c0.217-0.121,0.429-0.18,0.642-0.18
				c0.189,0,0.381,0.047,0.581,0.143c0.544,0.258,0.988,1.058,1.292,2.048c0.52-0.306,1.076-0.571,1.653-0.799
				c-0.441-1.217-1.116-2.238-2.056-2.686c-1.018-0.483-2.122-0.452-3.107,0.091c-1.575,0.868-2.678,3.004-2.567,4.969
				c0.009,0.168,0.03,0.317,0.043,0.476C36.686,29.45,37.041,29.991,37.396,30.433z"/>
			<path fill="#98702A" d="M44.781,35.257c-0.627-0.302-1.274-0.532-1.899-0.753c-0.085-0.03-0.171-0.061-0.256-0.092
				c0.695-0.53,1.239-1.2,1.609-1.996c0.38-0.819,0.515-2.222,0.378-3.694c-0.648,0.323-1.243,0.716-1.74,1.174
				c-0.016,0.016-0.032,0.034-0.048,0.051c-0.01,0.739-0.108,1.401-0.318,1.854c-0.4,0.861-1.042,1.427-1.771,1.794
				c-0.038-0.021-0.072-0.049-0.108-0.072c-0.042,0.096-0.086,0.191-0.128,0.288l0.381,0.368c0.334,0.324,0.822,1.003,1.245,1.821
				c0.018,0.006,0.038,0.013,0.056,0.02c0.602,0.213,1.171,0.415,1.7,0.67c1.126,0.541,1.651,1.215,1.982,1.891h1.993
				C47.468,37.551,46.783,36.221,44.781,35.257z"/>
			<g>
				<path fill="#C99E48" d="M63.959,33.649l0.342-0.466c0.579-0.775,1.225-2.006,1.907-3.363c-0.361-0.644-0.751-1.291-1.172-1.937
					c-0.077,0.153-0.153,0.306-0.229,0.459c-0.795,1.593-1.546,3.098-2.146,3.901l-0.354,0.48c-0.113,0.156-0.261,0.358-0.43,0.585
					c0.068,0.797,0.211,1.631,0.458,2.473C62.88,35.106,63.423,34.382,63.959,33.649z"/>
				<path fill="#C99E48" d="M66.946,25.771c0.233,0.339,0.486,0.72,0.743,1.12c0.089-0.168,0.177-0.331,0.265-0.494
					C67.637,26.119,67.302,25.904,66.946,25.771z"/>
				<path fill="#C99E48" d="M59.898,37.409c-0.154-0.404-0.279-0.807-0.39-1.207c-0.021,0.022-0.041,0.044-0.061,0.065
					c0.004,0.615-0.012,1.492-0.317,2.312h0.492c0.184-0.143,0.369-0.298,0.555-0.464C60.067,37.852,59.974,37.607,59.898,37.409z"
					/>
				<path fill="#C99E48" d="M69.338,24.136c0.101-0.136,0.201-0.269,0.3-0.384c0.325-0.379,0.236-0.918-0.197-1.202
					c-0.433-0.284-1.047-0.207-1.374,0.172c-0.153,0.181-0.309,0.383-0.464,0.599C68.165,23.477,68.753,23.74,69.338,24.136z"/>
			</g>
			<path fill="#98702A" d="M70.577,25.893c-1.975-2.566-4.469-2.545-5.816-2.29c-0.503-0.609-0.958-1.111-1.328-1.472
				c-0.359-0.35-0.972-0.375-1.369-0.062c-0.397,0.313-0.43,0.85-0.072,1.198c0.269,0.26,0.574,0.593,0.909,0.982
				c-0.342,0.173-0.665,0.376-0.968,0.594c0.188,0.095,0.358,0.222,0.486,0.382c0.234,0.29,0.324,0.643,0.255,0.993
				c-0.069,0.351-0.29,0.655-0.623,0.86c-0.417,0.257-0.852,0.518-1.294,0.782c-0.335,0.2-0.672,0.406-1.008,0.611
				c-0.319,1.843-0.755,5.286,0.587,8.81c0.133,0.351,0.308,0.807,0.543,1.297h3.209c0.338-0.386,0.727-0.828,1.223-1.372
				c0.419-0.458,0.944-0.971,1.5-1.512c0.563-0.549,1.168-1.14,1.752-1.764c0.336,1.088,0.504,2.114,0.427,2.998
				c-0.062,0.687-0.269,1.23-0.625,1.649h2.161c0.199-0.459,0.347-0.957,0.396-1.519c0.128-1.439-0.258-3.116-0.927-4.825
				C71.463,30.242,72.23,28.042,70.577,25.893z M65.368,34.562c-0.575,0.56-1.117,1.089-1.57,1.586
				c-0.517,0.564-0.934,1.039-1.284,1.437c-0.143-0.323-0.255-0.619-0.34-0.839c-1.339-3.52-0.689-7.052-0.412-8.561l0.066-0.365
				c0.107-0.624,0.956-1.607,2.184-2.181c1.332,1.77,2.813,4.096,3.814,6.354C67.139,32.807,66.291,33.661,65.368,34.562z
				 M69.082,30.202c-0.909-1.808-2.032-3.561-3.095-5.014c1.149,0.017,2.149,0.571,2.981,1.653
				C69.78,27.895,69.71,29.005,69.082,30.202z"/>
			<g>
				<path fill="#C99E48" d="M35.626,27.518c0.873-1.529,1.69-3.059,2.187-4.27c0.177-0.43-0.078-0.904-0.57-1.06
					c-0.489-0.154-1.032,0.07-1.208,0.499c-0.319,0.778-0.8,1.73-1.342,2.728C34.962,26.103,35.281,26.819,35.626,27.518z"/>
				<path fill="#C99E48" d="M33.775,30.659c0.036-0.059,0.074-0.123,0.11-0.183c-0.358-0.583-0.701-1.212-1.023-1.86
					c-0.087,0.147-0.176,0.297-0.262,0.44c-1.023-1.207-2.303-2.175-4.324-2.178c-0.003,0-0.006,0-0.009,0
					c-1.937,0-3.932,1.063-5.206,2.774c-0.615,0.824-1.087,1.95-1.488,3.14c-0.146-0.257-0.316-0.561-0.529-0.946
					c-0.239-0.434-0.627-1.081-1.08-1.838c-1.241-2.074-3.32-5.542-3.601-6.917c-0.091-0.449-0.572-0.746-1.097-0.668
					c-0.514,0.08-0.856,0.51-0.763,0.959c0.332,1.627,2.328,4.961,3.787,7.395c0.441,0.738,0.818,1.368,1.052,1.792
					c0.76,1.374,1.015,1.793,1.529,2.529c-0.003,0.012-0.007,0.023-0.01,0.035c-0.153,0.531-0.298,1.038-0.443,1.495
					c-0.207,0.651-0.256,1.322-0.174,1.953h1.914c-0.094-0.454-0.088-0.978,0.08-1.509c0.001-0.002,0.001-0.003,0.002-0.004
					c0.346,0.548,0.626,1.063,0.835,1.513h2.014c-0.438-1.201-1.279-2.477-1.749-3.14l-0.411-0.577
					c-0.01-0.013-0.02-0.027-0.029-0.042c0.47-1.606,1.01-3.281,1.743-4.264c0.93-1.25,2.317-2.024,3.623-2.024
					c0.002,0,0.003,0,0.005,0c1.273,0.003,2.117,0.541,3.334,2.179c-0.251,0.418-0.476,0.793-0.661,1.109
					c-1.037,1.771-1.822,4.443-1.095,6.758h2.007c-0.818-1.818-0.246-4.269,0.77-6.002c0.008-0.014,0.016-0.028,0.023-0.042
					c0.495,1.22,0.774,2.683,0.774,4.165l0,0.256c0.002,0.554,0.003,1.151-0.109,1.622h1.916c0.083-0.538,0.085-1.096,0.084-1.629
					l-0.001-0.25C35.316,34.449,34.759,32.283,33.775,30.659z"/>
			</g>
			<g>
				<path fill="#C99E48" d="M53.444,26.305c0.599-1.422,1.159-2.459,1.558-2.779c0.395-0.316,0.422-0.854,0.06-1.199
					c-0.361-0.346-0.974-0.368-1.369-0.053c-0.591,0.474-1.286,1.688-1.98,3.285C52.336,25.751,52.907,26.004,53.444,26.305z"/>
				<path fill="#C99E48" d="M51.354,32.475c0.33-1.206,0.704-2.411,1.091-3.53c-0.54-0.379-1.093-0.67-1.719-0.866
					c-1.233,3.489-2.286,7.725-2.479,10.5h1.93c0.047-0.701,0.155-1.496,0.308-2.343C50.403,34.941,50.763,33.645,51.354,32.475z"/>
			</g>
			<g>
				<path fill="#98702A" d="M19.91,29.048c0.161,0.271,0.314,0.526,0.452,0.755l0.059,0.097c0.321,0.537,0.606,1.014,0.827,1.396
					c0.171-0.775,0.329-1.47,0.394-1.635c0.043-0.108,0.083-0.2,0.119-0.277c0.133,0.215,0.273,0.507,0.415,0.836
					c0.162-0.29,0.327-0.557,0.5-0.79c0.477-0.64,1.054-1.189,1.688-1.64c-0.115-0.417-0.144-0.837-0.062-1.266
					c0.126-0.659,0.458-1.161,0.988-1.49c0.462-0.288,1.081-0.442,1.73-0.442c0.203,0,0.408,0.015,0.611,0.046
					c0.449,0.068,0.82,0.296,1.133,0.699c0.253,0.325,0.446,0.757,0.581,1.241c0.804,0.145,1.478,0.436,2.035,0.797
					c-0.11-1.07-0.434-2.136-1.074-2.957c-0.597-0.768-1.412-1.248-2.359-1.391c-1.362-0.203-2.722,0.043-3.738,0.677
					c-0.936,0.582-1.539,1.464-1.747,2.552c-0.088,0.461-0.102,0.915-0.042,1.362c-0.208-0.104-0.43-0.159-0.672-0.165
					C20.575,27.448,20.098,28.569,19.91,29.048z"/>
				<path fill="#98702A" d="M32.567,33.711c-0.124,0.296-0.229,0.605-0.322,0.919c0.178,0.053,0.36,0.11,0.542,0.169
					C32.725,34.43,32.663,34.061,32.567,33.711z"/>
				<path fill="#98702A" d="M18.989,27.478c0.467-1.457,1.146-2.854,2.114-4.033c0.301-0.367,0.206-0.876-0.213-1.14
					c-0.418-0.263-1.002-0.181-1.302,0.187c-0.722,0.879-1.295,1.861-1.759,2.891C18.182,26.056,18.585,26.778,18.989,27.478z"/>
				<path fill="#98702A" d="M19.975,36.519c0.132-0.417,0.264-0.877,0.403-1.356c-0.447-0.647-0.722-1.106-1.376-2.287
					c-0.222,1.004-0.497,2.212-0.761,3.237c-0.154-1.237-0.21-2.874-0.046-4.625c-0.094-0.157-0.192-0.322-0.294-0.493
					c-0.381-0.636-0.798-1.332-1.212-2.042c-0.82,3.963-0.39,7.924,0.256,9.626H19.4c0.118-0.275,0.241-0.638,0.376-1.086
					C19.81,37.163,19.875,36.835,19.975,36.519z"/>
				<path fill="#98702A" d="M36.797,34.174c-0.426-0.049-0.872-0.148-1.325-0.271c0.119,0.567,0.198,1.151,0.242,1.75
					c0.233,0.049,0.468,0.092,0.703,0.123c0.026-0.06,0.042-0.119,0.07-0.179c0.172-0.374,0.346-0.78,0.524-1.204
					C36.938,34.318,36.867,34.246,36.797,34.174z"/>
				<path fill="#98702A" d="M30.535,31.638c0.153-0.26,0.331-0.56,0.53-0.89c0.001-0.005,0.003-0.011,0.003-0.017
					c-0.627-0.815-1.121-1.267-1.59-1.515c-0.023,0.146-0.046,0.292-0.08,0.434c-0.087,0.372-0.178,0.841-0.279,1.364
					c-0.047,0.242-0.102,0.525-0.164,0.833c-0.809-0.354-1.55-0.759-2.173-1.192c-0.353-0.245-0.656-0.492-0.935-0.739
					c-0.297,0.249-0.576,0.535-0.818,0.861c-0.104,0.14-0.204,0.3-0.299,0.471c0.275,0.231,0.566,0.46,0.89,0.687
					c0.838,0.583,1.855,1.118,2.962,1.566c-0.34,1.328-0.794,2.614-1.358,2.919c-0.179,0.098-0.26,0.075-0.302,0.063
					c-0.086-0.023-0.548-0.203-1.099-1.353c-0.15-0.314-0.386-1.07-0.637-1.872c-0.206-0.66-0.396-1.244-0.58-1.788
					c-0.396,0.758-0.739,1.736-1.052,2.756c0.213,0.671,0.392,1.209,0.548,1.537c0.005,0.013,0.011,0.022,0.018,0.035
					c0.214,0.325,0.451,0.708,0.681,1.121c0.457,0.585,0.97,0.958,1.552,1.121c0.615,0.175,1.255,0.093,1.852-0.229
					c0.352-0.189,0.651-0.48,0.917-0.838C29.04,35.009,29.723,33.025,30.535,31.638z"/>
			</g>
			<path fill="#C99E48" d="M59.227,28.806c-0.175,0.111-0.355,0.216-0.531,0.329c-0.328,0.311-0.7,0.607-1.095,0.893
				c0.337,0.488,0.629,1.012,0.88,1.558c0.168-0.116,0.332-0.234,0.493-0.354C59.017,30.216,59.134,29.378,59.227,28.806z"/>
		</g>
	</g>
	<g enable-background="new    ">
		<path fill="#374537" d="M36.275,70.192v-4.244c0-0.398-0.02-0.748-0.053-1.043s-0.104-0.543-0.203-0.74
			c-0.1-0.199-0.242-0.352-0.428-0.451c-0.186-0.102-0.428-0.145-0.729-0.145c-0.459,0-0.844,0.139-1.146,0.42
			c-0.305,0.275-0.518,0.629-0.639,1.049v5.16h-1.199v-7.5h0.84l0.227,0.916h0.063c0.271-0.32,0.582-0.582,0.938-0.787
			c0.354-0.205,0.814-0.313,1.389-0.313c0.48,0,0.871,0.094,1.178,0.275c0.309,0.189,0.541,0.51,0.711,0.971
			c0.23-0.395,0.547-0.691,0.953-0.916c0.404-0.223,0.861-0.33,1.373-0.33c0.42,0,0.773,0.049,1.064,0.145
			c0.289,0.098,0.527,0.264,0.721,0.502c0.189,0.24,0.326,0.564,0.412,0.98c0.084,0.41,0.127,0.93,0.127,1.559v4.5h-1.199v-4.514
			c0-0.361-0.02-0.674-0.053-0.939c-0.035-0.268-0.105-0.484-0.211-0.658c-0.104-0.178-0.25-0.307-0.438-0.395
			c-0.184-0.084-0.428-0.127-0.727-0.127c-0.5,0-0.893,0.141-1.17,0.42c-0.281,0.277-0.48,0.684-0.604,1.199v5.01h-1.197V70.192
			L36.275,70.192z"/>
		<path fill="#374537" d="M48.455,70.192v-4.244c0-0.398-0.018-0.748-0.053-1.043s-0.104-0.543-0.203-0.74
			c-0.102-0.199-0.242-0.352-0.428-0.451c-0.188-0.102-0.43-0.145-0.729-0.145c-0.463,0-0.846,0.139-1.146,0.42
			c-0.307,0.275-0.52,0.629-0.639,1.049v5.16h-1.201v-7.5H44.9l0.225,0.916h0.061c0.271-0.32,0.582-0.582,0.939-0.787
			c0.355-0.205,0.816-0.313,1.389-0.313c0.48,0,0.873,0.094,1.18,0.275c0.307,0.186,0.543,0.51,0.713,0.971
			c0.229-0.395,0.547-0.691,0.951-0.916c0.404-0.223,0.861-0.33,1.373-0.33c0.42,0,0.773,0.049,1.063,0.145
			c0.291,0.098,0.529,0.264,0.723,0.502c0.189,0.24,0.328,0.564,0.412,0.98c0.086,0.408,0.127,0.93,0.127,1.559v4.5h-1.197v-4.514
			c0-0.361-0.021-0.674-0.055-0.939c-0.035-0.268-0.104-0.484-0.209-0.658c-0.104-0.178-0.25-0.307-0.438-0.395
			c-0.189-0.084-0.432-0.127-0.73-0.127c-0.5,0-0.891,0.141-1.17,0.42c-0.281,0.277-0.479,0.684-0.602,1.199v5.01h-1.199V70.192
			L48.455,70.192z"/>
	</g>
	<polyline fill="none" stroke="#374537" stroke-width="0.9248" stroke-linecap="round" stroke-miterlimit="10" points="
		47.67,50.302 43,44.573 38.328,50.302 	"/>
	<polyline fill="none" stroke="#374537" stroke-width="0.8954" stroke-linecap="round" stroke-miterlimit="10" points="47.67,12.12 
		43,17.49 38.328,12.12 	"/>
</g>
</svg>
