<?xml version="1.0" encoding="utf-8"?>
<!-- Generator: Adobe Illustrator 16.0.0, SVG Export Plug-In . SVG Version: 6.00 Build 0)  -->
<!DOCTYPE svg PUBLIC "-//W3C//DTD SVG 1.1//EN" "http://www.w3.org/Graphics/SVG/1.1/DTD/svg11.dtd">
<svg version="1.1" id="Layer_1" xmlns="http://www.w3.org/2000/svg" xmlns:xlink="http://www.w3.org/1999/xlink" x="0px" y="0px"
	 width="86px" height="80px" viewBox="0 0 86 80" enable-background="new 0 0 86 80" xml:space="preserve">
<g>
	<g>
		<path fill="#F7F2ED" d="M927.476,261.369c0,2.68-2.182,4.85-4.861,4.85h-76.275c-2.688,0-4.858-2.172-4.858-4.85v-70.303
			c0-2.678,2.175-4.852,4.858-4.852h76.275c2.684,0,4.861,2.171,4.861,4.852V261.369L927.476,261.369z"/>
	</g>
	<g>
		<g>
			<path fill="#D1D1D1" d="M922.612,188.217c1.578,0,2.861,1.279,2.861,2.852v70.303c0,1.57-1.283,2.854-2.861,2.854h-76.275
				c-1.576,0-2.859-1.279-2.859-2.854v-70.303c0-1.569,1.283-2.852,2.859-2.852H922.612 M922.612,186.217h-76.275
				c-2.688,0-4.859,2.172-4.859,4.852v70.303c0,2.68,2.176,4.854,4.859,4.854h76.275c2.682,0,4.861-2.172,4.861-4.854v-70.303
				C927.476,188.389,925.296,186.217,922.612,186.217L922.612,186.217z"/>
		</g>
	</g>
</g>
<g>
	<path fill="#FFFFFF" d="M899.688,244.623l-0.453,0.148c-5.728,1.871-11.731,0.584-15.675-3.357
		c-4.211-4.211-5.337-10.773-2.982-16.709l-15.743-15.742l10.332-10.333l15.743,15.743c5.935-2.352,12.498-1.227,16.708,2.984
		c3.939,3.939,5.229,9.947,3.356,15.672l-0.146,0.455L899.688,244.623z"/>
	<path fill="#D1D1D1" d="M898.612,242.871l10.461-10.461c1.583-4.846,0.669-10.1-2.871-13.639
		c-4.061-4.06-10.372-4.668-15.738-2.016l-15.299-15.299l-7.504,7.504l15.299,15.3c-2.652,5.364-2.044,11.681,2.015,15.737
		C888.514,243.539,893.768,244.453,898.612,242.871z"/>
	
		<rect x="863.208" y="202.887" transform="matrix(0.7071 -0.7071 0.7071 0.7071 110.798 674.7614)" fill="#B2ADAD" width="13.28" height="1.516"/>
	
		<line fill="none" stroke="#FFFFFF" stroke-width="0.4255" stroke-miterlimit="10" x1="869.469" y1="209.939" x2="873.128" y2="206.282"/>
	
		<line fill="none" stroke="#FFFFFF" stroke-width="0.4255" stroke-miterlimit="10" x1="873.018" y1="213.488" x2="876.677" y2="209.831"/>
	
		<line fill="none" stroke="#FFFFFF" stroke-width="0.4255" stroke-miterlimit="10" x1="876.566" y1="217.038" x2="880.225" y2="213.38"/>
	
		<line fill="none" stroke="#FFFFFF" stroke-width="0.4255" stroke-miterlimit="10" x1="880.115" y1="220.587" x2="883.773" y2="216.928"/>
	
		<line fill="none" stroke="#FFFFFF" stroke-width="0.3723" stroke-miterlimit="10" x1="871.15" y1="211.809" x2="873.449" y2="209.512"/>
	
		<line fill="none" stroke="#FFFFFF" stroke-width="0.3723" stroke-miterlimit="10" x1="874.698" y1="215.355" x2="876.997" y2="213.059"/>
	
		<line fill="none" stroke="#FFFFFF" stroke-width="0.3723" stroke-miterlimit="10" x1="878.247" y1="218.904" x2="880.545" y2="216.607"/>
	<path fill="#E5BB70" d="M883.48,229.333c-0.455,3.478,0.549,6.894,2.906,9.253c1.956,1.956,4.655,3.033,7.602,3.033
		c0,0,0,0,0.001,0c1.188,0,2.383-0.174,3.56-0.514l9.76-9.76c0.194-0.673,0.313-1.345,0.396-2.015L883.48,229.333L883.48,229.333z"
		/>
</g>
<g>
	<rect x="843.531" y="249.309" fill="#D1D1D1" width="81.891" height="7.017"/>
</g>
<path fill="#E5BB70" d="M863.348,211.958l1.942,3.364c0,0,1.652,2.924,1.943,3.962c0.29,1.036,0.29,4.766-4.035,4.766
	c-4.324,0-4.19-3.716-3.735-4.766s1.941-3.962,1.941-3.962L863.348,211.958z"/>
<g>
	<path fill="#E5BB70" d="M877,247.309V246.5c0-1.104-0.896-2-2-2h-21.5c-1.104,0-2,0.896-2,2v0.809H877z"/>
</g>
<g>
	<g>
		<path fill="#F7F2ED" d="M4.859,79C2.73,79,1,77.271,1,75.152V4.847c0-2.121,1.73-3.851,3.859-3.851h76.279
			c2.131,0,3.859,1.729,3.859,3.851v70.306c0,2.119-1.729,3.848-3.857,3.848H4.859z"/>
		<path fill="#D1D1D1" d="M81.141,2c1.576,0,2.857,1.277,2.857,2.85v70.303c0,1.57-1.281,2.848-2.857,2.848H4.859
			C3.282,78,2,76.723,2,75.152V4.85C2,3.277,3.282,2,4.859,2H81.141 M81.141,0H4.859C2.174,0,0,2.172,0,4.85v70.303
			C0,77.828,2.176,80,4.859,80h76.279c2.686,0,4.859-2.172,4.859-4.848V4.85C85.998,2.172,83.824,0,81.141,0L81.141,0z"/>
	</g>
</g>
<g>
	<g>
		<polygon fill="#C99E48" points="45.844,28.278 72.01,46.924 72.01,41.342 53.679,28.278 		"/>
		<polygon fill="#B28A43" points="36.92,28.278 36.92,31.968 72.01,56.973 72.01,51.381 39.586,28.278 		"/>
		<polygon fill="#986F2B" points="36.92,42.023 66.888,63.369 72.01,63.369 72.01,61.434 36.92,36.433 		"/>
		<polygon fill="#8B6928" points="36.92,52.063 52.787,63.369 60.633,63.369 36.92,46.475 		"/>
		<polygon fill="#8B6928" points="36.92,63.268 37.063,63.369 44.9,63.369 36.92,57.684 		"/>
		
			<linearGradient id="SVGID_1_" gradientUnits="userSpaceOnUse" x1="-150.7676" y1="-0.4614" x2="-41.4876" y2="-0.4614" gradientTransform="matrix(0.8144 0.5802 -0.5802 0.8144 165.1163 100.9819)">
			<stop  offset="0.0345" style="stop-color:#BC9645"/>
			<stop  offset="0.4221" style="stop-color:#C39C48"/>
			<stop  offset="1" style="stop-color:#C79F4A"/>
		</linearGradient>
		<polygon fill="url(#SVGID_1_)" points="67.785,28.278 59.941,28.278 72.01,36.878 72.01,31.289 		"/>
	</g>
	<g>
		<rect x="13.988" y="14.631" fill="none" width="33.951" height="33.951"/>
		<polygon fill="#B57C3B" points="38.525,14.631 47.939,14.631 47.939,48.582 13.988,48.582 13.988,39.064 		"/>
		<polygon fill="#D1D1D1" points="38.525,39.064 13.988,39.064 16.135,36.918 36.621,16.532 38.525,14.631 		"/>
		<g>
			<polygon fill="#C99E48" points="48.137,48.582 48.137,14.631 44.685,14.631 44.956,48.582 			"/>
			<g>
				<polygon fill="#C99E48" points="41.151,14.631 38.525,14.631 38.525,39.064 36.92,39.064 36.997,48.582 41.421,48.582 				"/>
			</g>
			<g>
				<polygon fill="#C99E48" points="13.988,39.064 13.988,48.582 17.536,48.582 17.46,39.064 				"/>
			</g>
			<g>
				<polygon fill="#C99E48" points="20.991,39.064 21.066,48.582 25.497,48.582 25.422,39.064 				"/>
			</g>
			<g>
				<polygon fill="#C99E48" points="28.955,39.064 29.032,48.582 33.463,48.582 33.388,39.064 				"/>
			</g>
		</g>
		<polygon fill="#959595" points="38.525,39.064 13.988,39.064 16.135,36.918 36.621,36.918 36.621,16.532 38.525,14.631 		"/>
	</g>
</g>
</svg>
