<?xml version="1.0" encoding="utf-8"?>
<!-- Generator: Adobe Illustrator 16.0.0, SVG Export Plug-In . SVG Version: 6.00 Build 0)  -->
<!DOCTYPE svg PUBLIC "-//W3C//DTD SVG 1.1//EN" "http://www.w3.org/Graphics/SVG/1.1/DTD/svg11.dtd">
<svg version="1.1" id="Layer_1" xmlns="http://www.w3.org/2000/svg" xmlns:xlink="http://www.w3.org/1999/xlink" x="0px" y="0px"
	 width="58px" height="58px" viewBox="0 0 58 58" enable-background="new 0 0 58 58" xml:space="preserve">
<path opacity="0.66" fill="#FFFFFF" d="M58.167,53.091c0,2.801-2.271,5.072-5.072,5.072H5.076c-2.802,0-5.072-2.271-5.072-5.072
	V5.072C0.004,2.271,2.274,0,5.076,0h48.019c2.802,0,5.072,2.271,5.072,5.072V53.091z"/>
<g>
	<path opacity="0.66" fill-rule="evenodd" clip-rule="evenodd" fill="#969696" d="M22.883,20.319
		c-0.94,0.917-1.667,1.626-2.495,2.432c-2.529-2.589-5.078-5.199-7.628-7.81c-0.081,0.044-0.161,0.089-0.241,0.133
		c0,1.364,0.024,2.728-0.008,4.092c-0.026,1.122-0.848,1.777-1.932,1.61c-0.803-0.124-1.337-0.666-1.346-1.532
		c-0.028-2.815-0.029-5.63-0.002-8.444C9.238,9.908,9.92,9.237,10.83,9.229c2.787-0.027,5.574-0.026,8.361-0.001
		c0.999,0.009,1.595,0.66,1.609,1.624c0.013,0.98-0.618,1.64-1.662,1.661c-1.343,0.027-2.688,0.006-4.199,0.006
		C17.651,15.18,20.25,17.731,22.883,20.319z"/>
	<path opacity="0.66" fill-rule="evenodd" clip-rule="evenodd" fill="#969696" d="M45.646,43.063c0-1.29-0.008-2.58,0.003-3.87
		c0.01-1.173,0.621-1.831,1.662-1.827c1.037,0.006,1.636,0.66,1.641,1.851c0.011,2.647,0.011,5.296-0.004,7.942
		c-0.006,1.145-0.651,1.78-1.808,1.785c-2.676,0.014-5.352,0.016-8.025,0.003c-1.104-0.004-1.749-0.644-1.741-1.66
		c0.008-1.012,0.654-1.627,1.766-1.641c1.313-0.014,2.626-0.002,4.09-0.002c-2.702-2.674-5.292-5.236-7.912-7.827
		c0.9-0.838,1.659-1.545,2.47-2.302c2.477,2.517,5.037,5.119,7.599,7.722C45.473,43.179,45.562,43.12,45.646,43.063z"/>
	<path opacity="0.66" fill-rule="evenodd" clip-rule="evenodd" fill="#969696" d="M45.653,14.832
		c-2.729,2.762-5.288,5.355-7.822,7.922c-0.835-0.849-1.562-1.585-2.372-2.408c2.535-2.505,5.129-5.068,7.723-7.631
		c-0.029-0.066-0.061-0.132-0.089-0.199c-1.363,0-2.727,0.027-4.089-0.008c-1.202-0.032-1.899-1.034-1.556-2.168
		c0.218-0.72,0.734-1.108,1.466-1.114c2.812-0.02,5.625-0.024,8.437-0.004c0.885,0.007,1.582,0.693,1.59,1.582
		c0.025,2.812,0.028,5.624-0.001,8.436c-0.011,0.987-0.693,1.566-1.667,1.554c-0.954-0.014-1.592-0.619-1.613-1.616
		C45.632,17.813,45.653,16.446,45.653,14.832z"/>
	<path opacity="0.66" fill-rule="evenodd" clip-rule="evenodd" fill="#969696" d="M15.101,45.642c1.26,0,2.519-0.006,3.779,0.002
		c1.254,0.009,1.921,0.594,1.917,1.652c-0.006,1.07-0.665,1.649-1.917,1.653c-2.59,0.008-5.183,0.009-7.774-0.004
		c-1.251-0.005-1.883-0.641-1.887-1.882c-0.01-2.618-0.012-5.238-0.002-7.857c0.006-1.181,0.608-1.833,1.65-1.839
		c1.041-0.006,1.64,0.648,1.653,1.835c0.013,1.288,0.004,2.576,0.004,3.978c2.635-2.683,5.185-5.279,7.724-7.861
		c0.892,0.925,1.61,1.67,2.351,2.439c-2.496,2.463-5.093,5.026-7.692,7.59C14.973,45.445,15.037,45.545,15.101,45.642z"/>
</g>
</svg>
