<?xml version="1.0" encoding="utf-8"?>
<!-- Generator: Adobe Illustrator 16.0.0, SVG Export Plug-In . SVG Version: 6.00 Build 0)  -->
<!DOCTYPE svg PUBLIC "-//W3C//DTD SVG 1.1//EN" "http://www.w3.org/Graphics/SVG/1.1/DTD/svg11.dtd">
<svg version="1.1" id="Layer_1" xmlns="http://www.w3.org/2000/svg" xmlns:xlink="http://www.w3.org/1999/xlink" x="0px" y="0px"
	 width="18px" height="18px" viewBox="0 0 18 18" enable-background="new 0 0 18 18" xml:space="preserve">
<g>
	<path fill-rule="evenodd" clip-rule="evenodd" fill="#EDB056" d="M8.733,18c-0.119,0-0.237,0-0.356,0
		c-0.019-0.005-0.039-0.015-0.06-0.017c-0.341-0.054-0.638-0.191-0.884-0.42c-0.296-0.275-0.591-0.55-0.883-0.829
		c-0.284-0.273-0.443-0.604-0.458-0.987c-0.018-0.45,0.166-0.821,0.503-1.137c1.141-1.065,2.277-2.135,3.416-3.203
		c0.023-0.022,0.047-0.049,0.083-0.087c-0.042,0-0.06,0-0.077,0c-2.798,0-5.596-0.001-8.395,0.002c-0.9,0-1.596-0.627-1.607-1.464
		c-0.007-0.483-0.007-0.966,0-1.448C0.026,7.581,0.72,6.947,1.604,6.948c0.77,0.001,1.539,0,2.308,0c2.015,0,4.03,0,6.045,0
		c0.039,0,0.077,0,0.115,0c0.006-0.012,0.012-0.024,0.017-0.036c-0.041-0.03-0.085-0.058-0.122-0.093
		C8.83,5.755,7.694,4.69,6.561,3.624C5.929,3.029,5.932,2.115,6.563,1.522C6.86,1.243,7.161,0.968,7.46,0.692
		C7.662,0.506,7.9,0.38,8.174,0.314C8.24,0.297,8.309,0.283,8.376,0.269c0.119,0,0.238,0,0.356,0
		c0.023,0.006,0.045,0.014,0.069,0.019C9.12,0.342,9.397,0.471,9.627,0.687c2.63,2.465,5.263,4.931,7.893,7.396
		c0.637,0.599,0.641,1.514,0.005,2.111c-2.623,2.457-5.249,4.915-7.871,7.374c-0.203,0.19-0.442,0.319-0.72,0.386
		C8.868,17.971,8.8,17.984,8.733,18z"/>
</g>
</svg>
