<?xml version="1.0" encoding="utf-8"?>
<!-- Generator: Adobe Illustrator 16.0.0, SVG Export Plug-In . SVG Version: 6.00 Build 0)  -->
<!DOCTYPE svg PUBLIC "-//W3C//DTD SVG 1.1//EN" "http://www.w3.org/Graphics/SVG/1.1/DTD/svg11.dtd">
<svg version="1.1" id="Layer_1" xmlns="http://www.w3.org/2000/svg" xmlns:xlink="http://www.w3.org/1999/xlink" x="0px" y="0px"
	 width="86px" height="98px" viewBox="0 0 86 98" enable-background="new 0 0 86 98" xml:space="preserve">
<g>
	<g>
		<path fill="#FFFFFF" d="M20.679,55.052c0,0.249-0.19,0.451-0.425,0.451h-3.284c-0.238,0-0.428-0.202-0.428-0.451V39.493
			c0-0.25,0.19-0.451,0.428-0.451h3.284c0.235,0,0.425,0.201,0.425,0.451V55.052z"/>
		<path fill="#FFFFFF" d="M26.986,57.246c0,0.32-0.192,0.583-0.426,0.583h-3.287c-0.235,0-0.428-0.263-0.428-0.583V37.297
			c0-0.321,0.193-0.58,0.428-0.58h3.287c0.234,0,0.426,0.259,0.426,0.58V57.246z"/>
	</g>
	<g>
		<path fill="#FFFFFF" d="M65.426,55.052c0,0.249,0.191,0.451,0.428,0.451h3.283c0.236,0,0.428-0.202,0.428-0.451V39.493
			c0-0.25-0.191-0.451-0.428-0.451h-3.283c-0.236,0-0.428,0.201-0.428,0.451V55.052z"/>
		<path fill="#FFFFFF" d="M59.12,57.246c0,0.32,0.194,0.583,0.427,0.583h3.284c0.239,0,0.429-0.263,0.429-0.583V37.297
			c0-0.321-0.189-0.58-0.429-0.58h-3.284c-0.232,0-0.427,0.259-0.427,0.58V57.246z"/>
	</g>
	<line fill="none" stroke="#FFFFFF" stroke-width="2" stroke-miterlimit="10" x1="28.802" y1="47.044" x2="57.189" y2="47.044"/>
	<line fill="none" stroke="#FFFFFF" stroke-width="2" stroke-miterlimit="10" x1="71.145" y1="47.044" x2="74.555" y2="47.044"/>
	<line fill="none" stroke="#FFFFFF" stroke-width="2" stroke-miterlimit="10" x1="11.695" y1="47.044" x2="15.104" y2="47.044"/>
</g>
</svg>
