<?xml version="1.0" encoding="utf-8"?>
<!-- Generator: Adobe Illustrator 16.0.0, SVG Export Plug-In . SVG Version: 6.00 Build 0)  -->
<!DOCTYPE svg PUBLIC "-//W3C//DTD SVG 1.1//EN" "http://www.w3.org/Graphics/SVG/1.1/DTD/svg11.dtd">
<svg version="1.1" id="Layer_1" xmlns="http://www.w3.org/2000/svg" xmlns:xlink="http://www.w3.org/1999/xlink" x="0px" y="0px"
	 width="86px" height="98px" viewBox="0 0 86 98" enable-background="new 0 0 86 98" xml:space="preserve">
<g>
	<g>
		<g>
			
				<rect x="25.001" y="43.507" fill="none" stroke="#FFFFFF" stroke-width="1.4104" stroke-miterlimit="10" width="5.188" height="17.315"/>
			<path fill="none" stroke="#FFFFFF" stroke-width="1.4104" stroke-miterlimit="10" d="M32.546,63.678
				c0,0.26-0.211,0.471-0.471,0.471h-8.803c-0.26,0-0.472-0.211-0.472-0.471v-2.359c0-0.26,0.211-0.472,0.472-0.472h8.803
				c0.26,0,0.471,0.212,0.471,0.472V63.678z"/>
			<path fill="none" stroke="#FFFFFF" stroke-width="1.4104" stroke-miterlimit="10" d="M32.546,43.025
				c0,0.26-0.211,0.471-0.471,0.471h-8.803c-0.26,0-0.472-0.211-0.472-0.471v-2.359c0-0.26,0.211-0.471,0.472-0.471h8.803
				c0.26,0,0.471,0.211,0.471,0.471V43.025z"/>
		</g>
		<g>
			
				<rect x="40.329" y="43.507" fill="none" stroke="#FFFFFF" stroke-width="1.4104" stroke-miterlimit="10" width="5.187" height="17.315"/>
			<path fill="none" stroke="#FFFFFF" stroke-width="1.4104" stroke-miterlimit="10" d="M47.873,63.678
				c0,0.26-0.211,0.471-0.472,0.471h-8.803c-0.261,0-0.471-0.211-0.471-0.471v-2.359c0-0.26,0.21-0.472,0.471-0.472h8.803
				c0.261,0,0.472,0.212,0.472,0.472V63.678z"/>
			<path fill="none" stroke="#FFFFFF" stroke-width="1.4104" stroke-miterlimit="10" d="M47.873,43.025
				c0,0.26-0.211,0.471-0.472,0.471h-8.803c-0.261,0-0.471-0.211-0.471-0.471v-2.359c0-0.26,0.21-0.471,0.471-0.471h8.803
				c0.261,0,0.472,0.211,0.472,0.471V43.025z"/>
		</g>
		<g>
			
				<rect x="55.654" y="43.507" fill="none" stroke="#FFFFFF" stroke-width="1.4104" stroke-miterlimit="10" width="5.188" height="17.315"/>
			<path fill="none" stroke="#FFFFFF" stroke-width="1.4104" stroke-miterlimit="10" d="M63.201,63.678
				c0,0.26-0.213,0.471-0.473,0.471h-8.804c-0.26,0-0.471-0.211-0.471-0.471v-2.359c0-0.26,0.211-0.472,0.471-0.472h8.804
				c0.26,0,0.473,0.212,0.473,0.472V63.678z"/>
			<path fill="none" stroke="#FFFFFF" stroke-width="1.4104" stroke-miterlimit="10" d="M63.201,43.025
				c0,0.26-0.213,0.471-0.473,0.471h-8.804c-0.26,0-0.471-0.211-0.471-0.471v-2.359c0-0.26,0.211-0.471,0.471-0.471h8.804
				c0.26,0,0.473,0.211,0.473,0.471V43.025z"/>
		</g>
	</g>
	<path fill="none" stroke="#FFFFFF" stroke-width="1.4104" stroke-miterlimit="10" d="M67.13,67.333
		c0,0.259-0.211,0.471-0.472,0.471H19.341c-0.26,0-0.471-0.212-0.471-0.471v-2.674c0-0.261,0.211-0.472,0.471-0.472h47.317
		c0.261,0,0.472,0.211,0.472,0.472V67.333z"/>
	<path fill="none" stroke="#FFFFFF" stroke-width="1.4104" stroke-miterlimit="10" d="M68.78,71.418
		c0,0.262-0.212,0.472-0.471,0.472H17.692c-0.261,0-0.472-0.21-0.472-0.472v-3.143c0-0.262,0.211-0.472,0.472-0.472H68.31
		c0.259,0,0.471,0.21,0.471,0.472V71.418z"/>
	<g>
		<path fill="none" stroke="#FFFFFF" stroke-width="1.4104" stroke-miterlimit="10" d="M67.366,39.586
			c0,0.261-0.212,0.472-0.472,0.472H19.106c-0.261,0-0.472-0.211-0.472-0.472V36.6c0-0.26,0.211-0.472,0.472-0.472h47.788
			c0.26,0,0.472,0.212,0.472,0.472V39.586z"/>
		<polygon fill="none" stroke="#FFFFFF" stroke-width="1.2958" stroke-miterlimit="10" points="23.286,36.127 43.005,22.77 
			62.437,36.127 		"/>
		
			<polyline fill="none" stroke="#FFFFFF" stroke-width="1.3195" stroke-linecap="round" stroke-linejoin="round" stroke-miterlimit="10" points="
			18.636,35.975 43.005,19.335 66.854,35.975 		"/>
	</g>
</g>
</svg>
