<?xml version="1.0" encoding="utf-8"?>
<!-- Generator: Adobe Illustrator 16.0.0, SVG Export Plug-In . SVG Version: 6.00 Build 0)  -->
<!DOCTYPE svg PUBLIC "-//W3C//DTD SVG 1.1//EN" "http://www.w3.org/Graphics/SVG/1.1/DTD/svg11.dtd">
<svg version="1.1" id="Layer_1" xmlns="http://www.w3.org/2000/svg" xmlns:xlink="http://www.w3.org/1999/xlink" x="0px" y="0px"
	 width="36px" height="28px" viewBox="0 0 36 28" enable-background="new 0 0 36 28" xml:space="preserve">
<path fill="#E6E5E5" d="M31.206,8.215c-0.068-1.488-0.304-2.504-0.649-3.394c-0.358-0.919-0.835-1.698-1.612-2.475
	c-0.776-0.777-1.556-1.256-2.476-1.612c-0.89-0.346-1.905-0.582-3.394-0.65C21.584,0.016,21.108,0,17.313,0
	c-3.796,0-4.273,0.016-5.764,0.084c-1.487,0.068-2.504,0.304-3.393,0.65C7.236,1.091,6.458,1.57,5.68,2.347
	C4.903,3.124,4.425,3.903,4.067,4.822C3.722,5.711,3.486,6.728,3.418,8.215c-0.068,1.49-0.084,1.967-0.084,5.763
	c0,3.797,0.016,4.271,0.084,5.764c0.068,1.488,0.304,2.503,0.649,3.393c0.357,0.92,0.836,1.699,1.613,2.476
	c0.777,0.777,1.556,1.255,2.476,1.612c0.889,0.346,1.905,0.583,3.393,0.649c1.491,0.068,1.967,0.085,5.764,0.085
	c3.796,0,4.271-0.017,5.763-0.085c1.488-0.066,2.504-0.304,3.394-0.649c0.92-0.357,1.699-0.835,2.476-1.612
	c0.777-0.776,1.254-1.556,1.612-2.476c0.346-0.89,0.581-1.904,0.649-3.393c0.068-1.492,0.085-1.967,0.085-5.764
	C31.291,10.182,31.274,9.706,31.206,8.215z M28.69,19.628c-0.062,1.362-0.289,2.104-0.48,2.596
	c-0.254,0.651-0.558,1.118-1.046,1.606c-0.489,0.488-0.955,0.792-1.607,1.046c-0.492,0.191-1.232,0.42-2.595,0.48
	c-1.475,0.067-1.917,0.082-5.649,0.082c-3.733,0-4.175-0.015-5.648-0.082c-1.363-0.061-2.104-0.289-2.596-0.48
	c-0.652-0.254-1.118-0.558-1.608-1.046c-0.489-0.488-0.792-0.955-1.045-1.606c-0.191-0.492-0.419-1.233-0.481-2.596
	c-0.067-1.475-0.082-1.917-0.082-5.648c0-3.733,0.014-4.175,0.082-5.649c0.063-1.363,0.29-2.104,0.481-2.596
	c0.253-0.651,0.557-1.118,1.045-1.606C7.95,3.639,8.416,3.336,9.069,3.082c0.492-0.192,1.232-0.419,2.596-0.481
	c1.473-0.068,1.916-0.082,5.648-0.082c3.732,0,4.174,0.014,5.649,0.082c1.362,0.062,2.103,0.29,2.595,0.481
	c0.652,0.254,1.118,0.557,1.607,1.046c0.488,0.489,0.792,0.955,1.046,1.606c0.191,0.493,0.419,1.233,0.48,2.596
	c0.067,1.474,0.082,1.916,0.082,5.649C28.772,17.711,28.758,18.153,28.69,19.628z"/>
<circle fill="#E6E5E5" cx="24.774" cy="6.517" r="1.677"/>
<path fill="#E6E5E5" d="M17.313,6.8c-3.965,0-7.178,3.213-7.178,7.178s3.213,7.178,7.178,7.178c3.964,0,7.177-3.213,7.177-7.178
	S21.277,6.8,17.313,6.8z M17.313,18.638c-2.573,0-4.66-2.086-4.66-4.659s2.086-4.659,4.66-4.659c2.573,0,4.659,2.085,4.659,4.659
	S19.886,18.638,17.313,18.638z"/>
</svg>
