<?xml version="1.0" encoding="utf-8"?>
<!-- Generator: Adobe Illustrator 16.0.0, SVG Export Plug-In . SVG Version: 6.00 Build 0)  -->
<!DOCTYPE svg PUBLIC "-//W3C//DTD SVG 1.1//EN" "http://www.w3.org/Graphics/SVG/1.1/DTD/svg11.dtd">
<svg version="1.1" id="Layer_1" xmlns="http://www.w3.org/2000/svg" xmlns:xlink="http://www.w3.org/1999/xlink" x="0px" y="0px"
	 width="36px" height="28px" viewBox="0 0 36 28" enable-background="new 0 0 36 28" xml:space="preserve">
<g>
	<path fill="#EDB056" d="M18.223,28c-2.744-0.063-5.47-0.12-8.196-0.189c-1.442-0.037-3.129-1.002-3.266-3.107
		c-0.175-2.672-0.2-5.34,0.038-8.008c0.126-1.4,1.268-2.541,2.748-2.745c0.586-0.083,1.182-0.119,1.775-0.121
		c4.595-0.01,9.192-0.013,13.788,0.004c0.701,0.002,1.416,0.042,2.096,0.192c1.443,0.321,2.326,1.438,2.441,2.909
		c0.203,2.594,0.205,5.185,0.004,7.777c-0.141,1.786-1.392,3.033-3.198,3.091C23.705,27.893,20.955,27.938,18.223,28z
		 M20.072,24.788c0.156,0.116,0.273,0.215,0.398,0.296c1.051,0.686,2.086,0.193,2.198-1.044c0.013-0.13,0.013-0.265,0.013-0.396
		c0-1.056,0.002-2.11-0.002-3.166c-0.002-0.317-0.008-0.64-0.046-0.955c-0.124-1.022-1.048-1.514-1.97-1.045
		c-0.2,0.103-0.377,0.25-0.602,0.402c0-0.986,0-1.945,0-2.92c-0.481,0-0.926,0-1.391,0c0,3.112,0,6.205,0,9.314
		c0.469,0,0.914,0,1.374,0C20.057,25.12,20.063,24.98,20.072,24.788z M26.48,22.826c-0.027,0.348-0.039,0.676-0.086,1
		c-0.049,0.337-0.291,0.438-0.603,0.423c-0.306-0.013-0.554-0.192-0.565-0.488c-0.022-0.577-0.008-1.159-0.008-1.765
		c0.454,0,0.881,0,1.307,0c0.438,0,0.875,0,1.297,0c0-0.798,0.068-1.569-0.018-2.324c-0.093-0.783-0.621-1.273-1.408-1.414
		c-0.299-0.053-0.617-0.049-0.92-0.014c-0.968,0.113-1.701,0.883-1.72,1.828c-0.021,1.166-0.024,2.332,0.002,3.494
		c0.025,1.084,0.694,1.779,1.769,1.904c1.619,0.191,2.771-1.143,2.283-2.646C27.366,22.826,26.92,22.826,26.48,22.826z
		 M17.239,25.283c0-2.301,0-4.57,0-6.861c-0.457,0-0.891,0-1.371,0c0,0.145,0,0.273,0,0.401c0,1.528,0.002,3.059-0.001,4.587
		c0,0.332-0.479,0.742-0.839,0.73c-0.272-0.008-0.363-0.168-0.363-0.656c0-1.562,0-3.123,0-4.686c0-0.126,0-0.252,0-0.382
		c-0.493,0-0.93,0-1.405,0c0,0.133,0,0.252,0,0.369c0,1.671-0.001,3.344,0,5.015c0,0.21-0.007,0.42,0.008,0.627
		c0.048,0.696,0.454,1.028,1.144,0.953c0.445-0.049,0.808-0.268,1.14-0.55c0.087-0.074,0.176-0.147,0.299-0.252
		c0.015,0.269,0.027,0.481,0.04,0.703C16.345,25.283,16.773,25.283,17.239,25.283z M13.264,15.973c-1.638,0-3.234,0-4.831,0
		c0,0.461,0,0.893,0,1.346c0.543,0,1.056,0,1.607,0c0,2.664,0,5.307,0,7.949c0.548,0,1.057,0,1.59,0c0-2.662,0-5.295,0-7.965
		c0.56,0,1.092,0,1.634,0C13.264,16.842,13.264,16.415,13.264,15.973z"/>
	<path fill="#EDB056" d="M15.078,7.924c0-0.638,0-1.276,0-1.914c0-1.512,0.656-2.254,2.171-2.455
		c0.638-0.084,1.25,0.004,1.813,0.331c0.685,0.396,1.047,1,1.054,1.787c0.013,1.528,0.021,3.059-0.003,4.587
		c-0.016,1.221-0.711,1.981-1.921,2.179c-0.633,0.103-1.253,0.073-1.839-0.205c-0.743-0.354-1.198-0.945-1.241-1.771
		c-0.043-0.845-0.01-1.693-0.01-2.54C15.095,7.924,15.087,7.924,15.078,7.924z M16.883,8.004c0,0.748-0.004,1.495,0.003,2.242
		c0.002,0.526,0.21,0.738,0.704,0.739c0.516,0.001,0.754-0.223,0.756-0.735c0.003-1.505,0.002-3.01,0-4.516
		c-0.001-0.437-0.305-0.725-0.754-0.728c-0.431-0.002-0.706,0.274-0.709,0.724C16.881,6.488,16.883,7.247,16.883,8.004z"/>
	<path fill="#EDB056" d="M12.902,12.259c-0.665,0-1.313,0-1.968,0c-0.006-0.125,0-0.24,0-0.356c-0.001-1.199,0.028-2.397,0-3.595
		c-0.011-0.441-0.08-0.897-0.218-1.316c-0.64-1.949-1.312-3.887-1.974-5.831c-0.04-0.123-0.077-0.248-0.134-0.427
		c0.648,0,1.259-0.01,1.866,0.013c0.07,0.002,0.163,0.178,0.194,0.288c0.365,1.321,0.722,2.646,1.082,3.97
		c0.029,0.108,0.072,0.213,0.108,0.319c0.032,0.001,0.064,0.001,0.097,0.001c0.037-0.117,0.08-0.233,0.111-0.351
		c0.344-1.316,0.688-2.633,1.022-3.952c0.054-0.216,0.133-0.307,0.371-0.298c0.547,0.021,1.097,0.007,1.688,0.007
		c-0.053,0.171-0.09,0.305-0.135,0.436c-0.641,1.868-1.292,3.732-1.917,5.604c-0.119,0.357-0.18,0.75-0.186,1.127
		c-0.022,1.318-0.01,2.639-0.01,3.957C12.902,11.984,12.902,12.112,12.902,12.259z"/>
	<path fill="#EDB056" d="M21.604,3.771c0.571,0,1.127,0,1.729,0c0,0.143,0,0.271,0,0.399c0,1.979-0.001,3.958,0.002,5.938
		c0,0.259-0.051,0.563,0.248,0.698c0.291,0.133,0.555-0.008,0.796-0.179c0.302-0.212,0.462-0.458,0.457-0.871
		c-0.026-1.869-0.013-3.738-0.013-5.608c0-0.118,0-0.237,0-0.394c0.559,0,1.084-0.005,1.607,0.007
		c0.049,0.001,0.115,0.104,0.141,0.17c0.025,0.069,0.007,0.153,0.007,0.23c0,2.573,0,5.147,0,7.72c0,0.118,0,0.235,0,0.375
		c-0.595,0-1.147,0-1.744,0c0-0.282,0-0.56,0-0.9c-0.237,0.197-0.414,0.355-0.604,0.498c-0.439,0.331-0.924,0.545-1.492,0.522
		c-0.575-0.024-0.953-0.321-1.078-0.881c-0.045-0.202-0.069-0.413-0.07-0.62c-0.005-2.277-0.002-4.553-0.002-6.829
		C21.586,3.959,21.598,3.875,21.604,3.771z"/>
	<path fill="#EDB056" d="M20.063,21.834c0-0.636,0.016-1.271-0.006-1.908c-0.012-0.342,0.197-0.441,0.452-0.496
		c0.272-0.058,0.541-0.017,0.657,0.286c0.053,0.14,0.07,0.302,0.07,0.451c0.006,1.151,0.016,2.306-0.008,3.456
		c-0.004,0.203-0.104,0.518-0.248,0.578c-0.192,0.084-0.481,0.005-0.707-0.07c-0.1-0.033-0.198-0.229-0.201-0.354
		C20.051,23.129,20.063,22.48,20.063,21.834z"/>
	<path fill="#EDB056" d="M25.216,20.92c0-0.32-0.017-0.617,0.005-0.91c0.026-0.369,0.25-0.57,0.596-0.578
		c0.35-0.008,0.563,0.174,0.598,0.56c0.027,0.303,0.005,0.608,0.005,0.93C26.018,20.92,25.639,20.92,25.216,20.92z"/>
</g>
</svg>
