<?xml version="1.0" encoding="utf-8"?>
<!-- Generator: Adobe Illustrator 16.0.0, SVG Export Plug-In . SVG Version: 6.00 Build 0)  -->
<!DOCTYPE svg PUBLIC "-//W3C//DTD SVG 1.1//EN" "http://www.w3.org/Graphics/SVG/1.1/DTD/svg11.dtd">
<svg version="1.1" id="Layer_1" xmlns="http://www.w3.org/2000/svg" xmlns:xlink="http://www.w3.org/1999/xlink" x="0px" y="0px"
	 width="45px" height="48px" viewBox="0 0 45 48" enable-background="new 0 0 45 48" xml:space="preserve">
<g>
	<path fill="#B9976C" d="M40.459,3.659c-1.271-1.271-2.968-1.634-3.791-0.811L22.026,17.49L7.384,2.849
		C6.561,2.025,4.863,2.388,3.593,3.659c-1.27,1.27-1.633,2.967-0.81,3.79l16.002,16.002c0.204,0.371,0.471,0.736,0.807,1.072
		s0.702,0.604,1.074,0.809l0.002,0.002c0.335,0.336,0.819,0.465,1.357,0.425c0.538,0.04,1.022-0.089,1.357-0.425l0.003-0.002
		c0.372-0.204,0.737-0.473,1.073-0.809s0.604-0.701,0.808-1.072L41.27,7.449C42.092,6.626,41.729,4.929,40.459,3.659z"/>
	<path fill="#B9976C" d="M40.459,22.659c-1.271-1.271-2.968-1.634-3.791-0.811L22.026,36.49L7.384,21.849
		c-0.823-0.823-2.521-0.461-3.791,0.811c-1.27,1.27-1.633,2.967-0.81,3.79l16.002,16.002c0.204,0.371,0.471,0.736,0.807,1.072
		s0.702,0.604,1.074,0.809l0.002,0.002c0.335,0.336,0.819,0.465,1.357,0.425c0.538,0.04,1.022-0.089,1.357-0.425l0.003-0.002
		c0.372-0.204,0.737-0.473,1.073-0.809s0.604-0.701,0.808-1.072L41.27,26.449C42.092,25.626,41.729,23.929,40.459,22.659z"/>
</g>
</svg>
