<?xml version="1.0" encoding="utf-8"?>
<!-- Generator: Adobe Illustrator 16.0.0, SVG Export Plug-In . SVG Version: 6.00 Build 0)  -->
<!DOCTYPE svg PUBLIC "-//W3C//DTD SVG 1.1//EN" "http://www.w3.org/Graphics/SVG/1.1/DTD/svg11.dtd">
<svg version="1.1" id="Layer_1" xmlns="http://www.w3.org/2000/svg" xmlns:xlink="http://www.w3.org/1999/xlink" x="0px" y="0px"
	 width="45px" height="48px" viewBox="0 0 45 48" enable-background="new 0 0 45 48" xml:space="preserve">
<path fill="#D3BDA2" d="M42.864,39.463L27.72,24.849l15.145-14.615c1.441-1.391,1.521-3.647,0.177-5.04S39.44,3.8,37.997,5.192
	L22.674,19.979L7.351,5.192C5.907,3.8,3.65,3.801,2.307,5.193s-1.265,3.649,0.177,5.04l15.145,14.615L2.483,39.463
	c-1.442,1.393-1.521,3.648-0.177,5.04c1.344,1.395,3.601,1.395,5.044,0.002l15.323-14.787l15.323,14.787
	c1.443,1.393,3.7,1.393,5.044-0.002C44.385,43.111,44.307,40.855,42.864,39.463z"/>
</svg>
