<?xml version="1.0" encoding="utf-8"?>
<!-- Generator: Adobe Illustrator 16.0.0, SVG Export Plug-In . SVG Version: 6.00 Build 0)  -->
<!DOCTYPE svg PUBLIC "-//W3C//DTD SVG 1.1//EN" "http://www.w3.org/Graphics/SVG/1.1/DTD/svg11.dtd">
<svg version="1.1" id="Layer_1" xmlns="http://www.w3.org/2000/svg" xmlns:xlink="http://www.w3.org/1999/xlink" x="0px" y="0px"
	 width="150px" height="150px" viewBox="0 0 150 150" enable-background="new 0 0 150 150" xml:space="preserve">
<g>
	<g>
		<g>
			<polygon fill="#636463" points="15.435,79.992 15.435,37.405 20.655,30.492 130.214,30.492 135.437,37.405 135.437,79.992 			"/>
			<rect x="118.396" y="31.229" fill="#C89E46" width="4.285" height="48.005"/>
			<rect x="26.541" y="31.24" fill="#C89E46" width="4.284" height="48.005"/>
			<g>
				<rect x="20.657" y="30.492" fill="#D0D1D1" width="109.557" height="10.843"/>
				<g>
					<rect x="20.657" y="39.168" fill="#FFFFFF" width="109.557" height="0.879"/>
					<rect x="20.657" y="31.78" fill="#FFFFFF" width="109.557" height="0.88"/>
				</g>
			</g>
			<g>
				<rect x="15.435" y="43.749" fill="#D0D1D1" width="120.001" height="10.844"/>
				<g>
					<rect x="15.435" y="52.425" fill="#FFFFFF" width="120.001" height="0.879"/>
					<rect x="15.435" y="45.036" fill="#FFFFFF" width="120.001" height="0.88"/>
				</g>
			</g>
			<g>
				<rect x="15.435" y="56.706" fill="#D0D1D1" width="120.001" height="10.842"/>
				<g>
					<rect x="15.435" y="65.381" fill="#FFFFFF" width="120.001" height="0.88"/>
					<rect x="15.435" y="57.992" fill="#FFFFFF" width="120.001" height="0.88"/>
				</g>
			</g>
		</g>
		<g>
			<polygon fill="#636463" points="15.435,108.881 15.435,69.555 135.437,69.555 135.437,109.37 128.093,119.055 22.339,119.055 			
				"/>
			<rect x="118.396" y="70.292" fill="#C89E46" width="4.285" height="48.006"/>
			<rect x="26.541" y="70.303" fill="#C89E46" width="4.284" height="48.005"/>
			<g>
				<rect x="15.435" y="69.555" fill="#D0D1D1" width="120.001" height="10.843"/>
				<g>
					<rect x="15.435" y="78.232" fill="#FFFFFF" width="120.001" height="0.879"/>
					<rect x="15.435" y="70.843" fill="#FFFFFF" width="120.001" height="0.879"/>
				</g>
			</g>
			<g>
				<rect x="15.435" y="82.812" fill="#D0D1D1" width="120.001" height="10.845"/>
				<g>
					<rect x="15.435" y="91.487" fill="#FFFFFF" width="120.001" height="0.88"/>
					<rect x="15.435" y="84.101" fill="#FFFFFF" width="120.001" height="0.878"/>
				</g>
			</g>
			<g>
				<rect x="15.435" y="95.45" fill="#D0D1D1" width="120.001" height="10.843"/>
				<g>
					<rect x="15.435" y="104.126" fill="#FFFFFF" width="120.001" height="0.88"/>
					<rect x="15.435" y="96.737" fill="#FFFFFF" width="120.001" height="0.879"/>
				</g>
			</g>
			<g>
				<rect x="25.227" y="108.213" fill="#D0D1D1" width="100.417" height="10.842"/>
				<g>
					<rect x="25.227" y="116.889" fill="#FFFFFF" width="100.417" height="0.88"/>
					<rect x="25.227" y="109.5" fill="#FFFFFF" width="100.417" height="0.879"/>
				</g>
			</g>
		</g>
	</g>
	<g>
		<path fill="#FFFFFF" d="M75.436,14.541c32.832,0,59.543,26.71,59.543,59.542s-26.711,59.541-59.543,59.541
			s-59.543-26.71-59.543-59.541S42.604,14.541,75.436,14.541 M75.436,3.77c-38.835,0-70.314,31.479-70.314,70.313
			s31.479,70.313,70.314,70.313s70.314-31.479,70.314-70.313S114.271,3.77,75.436,3.77L75.436,3.77z"/>
	</g>
	<circle fill="none" stroke="#D0D1D1" stroke-width="3.9168" stroke-miterlimit="10" cx="75.436" cy="74.082" r="70.314"/>
	<g>
		<g>
			<path fill="#5E5F5E" d="M68.312,106.294c-0.805-1.595-1.507-2.652-1.507-2.652s-5.616,1.585-8.929,2.652H68.312z"/>
			<path fill="#5E5F5E" d="M60.472,119.207h7.812c3.567-2.543,2.536-7.447,1.021-11.145H55.487
				C55.528,112.085,57.408,116.912,60.472,119.207z"/>
		</g>
		<g>
			<path fill="#5E5F5E" d="M66.438,93.656c0.193-1.353,0.405-2.691,0.616-3.736c0.597-2.95,0.82-5.109,0.761-7.108H47.927
				c0.324,3.792,1.077,7.595,2.063,10.845H66.438z"/>
			<path fill="#5E5F5E" d="M50.736,95.45c1.234,3.405,2.725,5.932,4.203,6.706c1.928-0.537,10.813-2.554,10.813-2.554
				s0.202-1.885,0.495-4.152H50.736z"/>
		</g>
		<g>
			<path fill="#5E5F5E" d="M64.037,67.469c-2.675-4.089-6.982-4.07-9.098-3.584c-2.049,0.471-3.579,1.76-4.688,3.584H64.037z"/>
			<path fill="#5E5F5E" d="M65.125,69.644H49.112c-1.066,3.026-1.407,6.865-1.239,10.844h19.741
				c-0.315-2.498-1.028-5.098-1.964-9.094C65.501,70.758,65.32,70.186,65.125,69.644z"/>
		</g>
	</g>
	<g>
		<linearGradient id="SVGID_1_" gradientUnits="userSpaceOnUse" x1="95.7988" y1="43.9414" x2="93.4426" y2="77.9628">
			<stop  offset="0" style="stop-color:#5E5F5E"/>
			<stop  offset="1" style="stop-color:#5E5F5E;stop-opacity:0"/>
		</linearGradient>
		<path fill="url(#SVGID_1_)" d="M101.3,41.438c-0.887-0.826-1.936-1.424-3.184-1.711c-1.725-0.396-4.905-0.479-7.473,1.711H101.3z"
			/>
		<linearGradient id="SVGID_2_" gradientUnits="userSpaceOnUse" x1="96.1787" y1="44.2729" x2="93.8215" y2="78.3084">
			<stop  offset="0" style="stop-color:#5E5F5E"/>
			<stop  offset="1" style="stop-color:#59595C;stop-opacity:0"/>
		</linearGradient>
		<path fill="url(#SVGID_2_)" d="M105.215,54.593c-0.042-4.213-0.725-8.115-2.335-10.844H88.928c-0.669,1.06-1.234,2.374-1.623,4.03
			c-0.664,2.814-1.214,4.932-1.594,6.814H105.215z"/>
		<g>
			<linearGradient id="SVGID_3_" gradientUnits="userSpaceOnUse" x1="96.1162" y1="43.9644" x2="93.759" y2="77.9986">
				<stop  offset="0" style="stop-color:#5E5F5E"/>
				<stop  offset="1" style="stop-color:#59595C;stop-opacity:0"/>
			</linearGradient>
			<path fill="url(#SVGID_3_)" d="M86.225,67.469h17.333c0.854-3.351,1.45-7.111,1.615-10.767H85.312
				c-0.318,2.617-0.186,5.149,0.61,9.087C86.022,66.291,86.125,66.865,86.225,67.469z"/>
			<linearGradient id="SVGID_4_" gradientUnits="userSpaceOnUse" x1="96.5244" y1="43.9956" x2="94.1674" y2="78.0272">
				<stop  offset="0" style="stop-color:#5E5F5E"/>
				<stop  offset="1" style="stop-color:#59595C;stop-opacity:0"/>
			</linearGradient>
			<path fill="url(#SVGID_4_)" d="M86.556,69.66c0.424,3,0.749,6.023,0.749,6.023s8.884,2.016,10.812,2.554
				c1.736-0.91,3.491-4.239,4.823-8.578H86.556z"/>
		</g>
	</g>
</g>
</svg>
