<?xml version="1.0" encoding="utf-8"?>
<!-- Generator: Adobe Illustrator 16.0.0, SVG Export Plug-In . SVG Version: 6.00 Build 0)  -->
<!DOCTYPE svg PUBLIC "-//W3C//DTD SVG 1.1//EN" "http://www.w3.org/Graphics/SVG/1.1/DTD/svg11.dtd">
<svg version="1.1" id="Layer_1" xmlns="http://www.w3.org/2000/svg" xmlns:xlink="http://www.w3.org/1999/xlink" x="0px" y="0px"
	 width="150px" height="150px" viewBox="0 0 150 150" enable-background="new 0 0 150 150" xml:space="preserve">
<circle fill="none" stroke="#D1D1D1" stroke-width="4" stroke-miterlimit="10" cx="74.994" cy="74.101" r="70.424"/>
<g>
	<path fill="#C99E48" d="M124.238,86.919c0,0.48-0.348,0.871-0.775,0.871H26.523c-0.428,0-0.775-0.391-0.775-0.871v-3.482
		c0-0.48,0.348-0.871,0.775-0.871h96.939c0.428,0,0.775,0.391,0.775,0.871V86.919z"/>
	<path fill="#D1D1D1" d="M124.238,95.046c0,0.48-0.348,0.871-0.775,0.871H26.523c-0.428,0-0.775-0.391-0.775-0.871v-3.482
		c0-0.48,0.348-0.869,0.775-0.869h96.939c0.428,0,0.775,0.389,0.775,0.869V95.046z"/>
	<g>
		<path fill="#C99E48" d="M52.443,76.94c0.586,0.447,1.436,1.355,1.771,1.654c1.275,1.127,0.693,1.303,0.693,1.301l-5.221-0.027
			c0,0-1.932,0.57-0.648-3.387C49.887,73.876,50.156,75.192,52.443,76.94z"/>
		<path fill="#C99E48" d="M59.607,64.618c-2.914-1.719-7.963-3.367-8.865-3.368c-1.035-0.001-0.619,3.753,0.625,4.571
			c1.137,0.748,3.131,2.146,5.51,5.007c1.215,1.462,1.594,2.101,2.006,2.005c0.502-2.059,0.775-4.264,0.775-6.559
			C59.658,65.716,59.639,65.165,59.607,64.618z"/>
		<path fill="#C99E48" d="M37.971,65.509c0.164-1.491,0.455-2.871,0.85-4.088c0.057-0.172-0.098-0.752-0.236-0.88
			c-0.621-0.575-1.266-1.2-1.936-1.906c-2.15-2.269-2.961-3.542-3.451-4.188c-0.992,1.945-1.746,4.144-2.201,6.514
			c1.605,1.42,4.102,3.352,6.545,4.955C37.664,65.995,37.945,65.722,37.971,65.509z"/>
		<path fill="#C99E48" d="M47.34,57.262c-0.17,0.511,1.42,2.374,3.402,2.593c2.658,0.291,6.854,1.811,8.662,2.633
			c-0.391-2.91-1.221-5.601-2.395-7.934c-1.08-0.367-2.213-0.612-3.248-0.711C50.268,53.507,47.686,56.217,47.34,57.262z"/>
		<path fill="#C99E48" d="M42.414,55.694c0.137,0.345,0.184,0.771,1.295,0.496c0.516-0.127,0.936-0.127,1.227-0.096
			c0.291,0.032,0.736-0.117,0.863-0.217c2.154-1.673,2.014-1.984,4.186-3.402c1.74-1.136,3.686-1.059,5.35-0.703
			c-2.193-3.037-5.07-5.104-8.279-5.713c-2.078,1.221-3.535,2.748-4.354,4.806C42.096,52.386,42.043,54.751,42.414,55.694z"/>
		<path fill="#C99E48" d="M39.863,59.002c0.395-0.696,0.834-1.275,1.307-1.716c0.08-0.074,0.152-0.459,0.061-0.777
			c-0.363-1.27-1.066-4.75,0.904-8.008c0.594-0.984,1.734-1.89,2.605-2.622c-4.256,0.135-8.059,2.818-10.664,7.006
			c0.152,0.309,0.318,0.625,0.516,0.958c1.203,2.021,3.133,3.928,4.748,5.324C39.441,59.254,39.785,59.138,39.863,59.002z"/>
		<path fill="#C99E48" d="M31.176,69.958c1.33,1.113,4.289,2.584,6.918,3.652c0.107,0.043,0.223-0.303,0.178-0.521
			c-0.293-1.463-0.459-3.074-0.459-4.771c0-0.187-0.236-0.708-0.361-0.786c-3.012-1.908-5.805-4.112-6.727-4.855
			c-0.148,1.168-0.232,2.369-0.232,3.598c0,1.068,0.061,2.118,0.174,3.143C30.826,69.618,30.994,69.804,31.176,69.958z"/>
		<path fill="#C99E48" d="M41.078,79.271c-0.795-0.779-1.492-1.961-2.037-3.422c-0.045-0.125-0.297-0.43-0.379-0.455
			c-3.873-1.24-6.125-2.443-6.711-2.752c-0.184-0.096-0.363,0.277-0.504,0.896c0.695,2.549,1.744,4.852,3.064,6.793
			c2.006,0.02,4.797-0.123,6.646-0.234C41.525,80.075,41.416,79.599,41.078,79.271z"/>
		<path fill="#C99E48" d="M56.734,72.993c-1.268-1.248-3.369-4.053-4.621-4.785c-1.119-0.656-0.85-0.661-1.369,1.168
			c-0.355,1.249-0.752,2.299-0.857,2.957c-0.193,1.197,1.691,2.186,3.623,4.148c1.41,1.434,2.258,2.291,2.857,2.705
			c0.77-1.314,1.422-2.768,1.938-4.328C57.891,74.208,57.33,73.577,56.734,72.993z"/>
	</g>
	<g>
		<path fill="#C99E48" d="M111.973,76.94c0.586,0.447,1.434,1.355,1.771,1.654c1.275,1.127,0.693,1.303,0.693,1.301l-5.223-0.027
			c0,0-1.932,0.57-0.645-3.387C109.416,73.876,109.686,75.192,111.973,76.94z"/>
		<path fill="#C99E48" d="M119.137,64.618c-2.914-1.719-7.963-3.367-8.865-3.368c-1.037-0.001-0.617,3.753,0.627,4.571
			c1.135,0.748,3.129,2.146,5.508,5.007c1.215,1.462,1.594,2.101,2.008,2.005c0.498-2.059,0.773-4.264,0.773-6.559
			C119.188,65.716,119.168,65.165,119.137,64.618z"/>
		<path fill="#C99E48" d="M97.5,65.509c0.164-1.491,0.455-2.871,0.852-4.088c0.055-0.172-0.1-0.752-0.238-0.88
			c-0.623-0.575-1.266-1.2-1.936-1.906c-2.15-2.269-2.961-3.542-3.453-4.188c-0.99,1.945-1.744,4.144-2.199,6.514
			c1.605,1.42,4.1,3.352,6.545,4.955C97.193,65.995,97.477,65.722,97.5,65.509z"/>
		<path fill="#C99E48" d="M106.869,57.262c-0.17,0.511,1.42,2.374,3.402,2.593c2.656,0.291,6.854,1.811,8.662,2.633
			c-0.391-2.91-1.221-5.601-2.395-7.934c-1.08-0.367-2.213-0.612-3.25-0.711C109.797,53.507,107.217,56.217,106.869,57.262z"/>
		<path fill="#C99E48" d="M101.943,55.694c0.137,0.345,0.184,0.771,1.295,0.496c0.516-0.127,0.936-0.127,1.227-0.096
			c0.291,0.032,0.736-0.117,0.865-0.217c2.152-1.673,2.012-1.984,4.184-3.402c1.738-1.136,3.684-1.059,5.35-0.703
			c-2.191-3.037-5.07-5.104-8.279-5.713c-2.078,1.221-3.535,2.748-4.354,4.806C101.625,52.386,101.572,54.751,101.943,55.694z"/>
		<path fill="#C99E48" d="M99.393,59.002c0.395-0.696,0.834-1.275,1.307-1.716c0.08-0.074,0.152-0.459,0.061-0.777
			c-0.363-1.27-1.066-4.75,0.904-8.008c0.594-0.984,1.734-1.89,2.605-2.622c-4.256,0.135-8.061,2.818-10.664,7.006
			c0.152,0.309,0.318,0.625,0.516,0.958c1.201,2.021,3.133,3.928,4.748,5.324C98.969,59.254,99.316,59.138,99.393,59.002z"/>
		<path fill="#C99E48" d="M90.705,69.958c1.33,1.113,4.289,2.584,6.918,3.652c0.105,0.043,0.223-0.303,0.178-0.521
			c-0.293-1.463-0.459-3.074-0.459-4.771c0-0.187-0.236-0.708-0.361-0.786c-3.012-1.908-5.805-4.112-6.727-4.855
			c-0.15,1.168-0.232,2.369-0.232,3.598c0,1.068,0.061,2.118,0.174,3.143C90.355,69.618,90.521,69.804,90.705,69.958z"/>
		<path fill="#C99E48" d="M100.609,79.271c-0.799-0.779-1.494-1.961-2.037-3.422c-0.047-0.125-0.299-0.43-0.381-0.455
			c-3.873-1.24-6.125-2.443-6.711-2.752c-0.184-0.096-0.363,0.277-0.504,0.896c0.695,2.549,1.744,4.852,3.064,6.793
			c2.004,0.02,4.797-0.123,6.645-0.234C101.055,80.075,100.945,79.599,100.609,79.271z"/>
		<path fill="#C99E48" d="M116.264,72.993c-1.268-1.248-3.369-4.053-4.621-4.785c-1.119-0.656-0.85-0.661-1.369,1.168
			c-0.355,1.249-0.752,2.299-0.857,2.957c-0.193,1.197,1.691,2.186,3.623,4.148c1.41,1.434,2.258,2.291,2.857,2.705
			c0.77-1.314,1.422-2.768,1.938-4.328C117.42,74.208,116.859,73.577,116.264,72.993z"/>
	</g>
	<g>
		<path fill="#986F2B" d="M80.469,77.604c0.471,0.361,1.152,1.09,1.424,1.33c1.023,0.906,0.557,1.049,0.557,1.049l-4.195-0.025
			c0,0-1.555,0.459-0.521-2.723C78.412,75.142,78.631,76.2,80.469,77.604z"/>
		<path fill="#986F2B" d="M86.229,67.701c-2.342-1.382-6.402-2.707-7.127-2.708c-0.834-0.001-0.498,3.018,0.502,3.676
			c0.914,0.6,2.518,1.724,4.43,4.023c0.977,1.176,1.281,1.689,1.613,1.613c0.402-1.656,0.623-3.428,0.623-5.273
			C86.27,68.583,86.252,68.141,86.229,67.701z"/>
		<path fill="#986F2B" d="M68.834,68.417c0.133-1.199,0.367-2.309,0.686-3.286c0.045-0.138-0.08-0.604-0.189-0.708
			c-0.502-0.461-1.018-0.964-1.557-1.531c-1.73-1.824-2.381-2.848-2.775-3.367c-0.797,1.564-1.402,3.33-1.77,5.236
			c1.291,1.141,3.297,2.693,5.262,3.982C68.59,68.808,68.816,68.588,68.834,68.417z"/>
		<path fill="#986F2B" d="M76.367,61.788c-0.137,0.41,1.141,1.908,2.734,2.083c2.137,0.235,5.508,1.456,6.963,2.116
			c-0.314-2.338-0.982-4.502-1.926-6.377c-0.867-0.295-1.777-0.492-2.609-0.571C78.721,58.771,76.646,60.948,76.367,61.788z"/>
		<path fill="#986F2B" d="M72.408,60.527c0.109,0.276,0.146,0.62,1.041,0.399c0.414-0.104,0.752-0.104,0.986-0.076
			c0.232,0.025,0.59-0.096,0.693-0.176c1.73-1.344,1.617-1.596,3.363-2.734c1.398-0.913,2.963-0.851,4.301-0.564
			c-1.764-2.441-4.076-4.104-6.656-4.594c-1.67,0.982-2.842,2.209-3.498,3.863C72.152,57.868,72.109,59.77,72.408,60.527z"/>
		<path fill="#986F2B" d="M70.357,63.187c0.316-0.56,0.67-1.025,1.051-1.38c0.064-0.06,0.121-0.368,0.047-0.625
			c-0.291-1.02-0.855-3.817,0.727-6.437c0.479-0.791,1.396-1.519,2.096-2.107c-3.422,0.108-6.477,2.266-8.572,5.631
			c0.121,0.248,0.256,0.503,0.414,0.771c0.967,1.625,2.52,3.157,3.816,4.28C70.018,63.39,70.295,63.296,70.357,63.187z"/>
		<path fill="#986F2B" d="M63.373,71.993c1.07,0.895,3.447,2.078,5.561,2.936c0.088,0.035,0.178-0.242,0.143-0.42
			c-0.234-1.176-0.367-2.469-0.367-3.834c0-0.15-0.191-0.568-0.291-0.632c-2.42-1.533-4.666-3.306-5.406-3.903
			c-0.121,0.939-0.186,1.904-0.186,2.893c0,0.859,0.047,1.703,0.137,2.527C63.092,71.72,63.227,71.87,63.373,71.993z"/>
		<path fill="#986F2B" d="M71.334,79.479c-0.641-0.627-1.199-1.576-1.637-2.752c-0.037-0.1-0.24-0.346-0.307-0.365
			c-3.113-0.996-4.922-1.963-5.395-2.211c-0.146-0.078-0.291,0.223-0.404,0.719c0.559,2.051,1.402,3.902,2.463,5.463
			c1.611,0.016,3.857-0.1,5.344-0.189C71.693,80.126,71.604,79.743,71.334,79.479z"/>
		<path fill="#986F2B" d="M83.92,74.433c-1.02-1.002-2.709-3.258-3.717-3.846c-0.898-0.527-0.682-0.531-1.1,0.939
			c-0.285,1.004-0.605,1.846-0.691,2.377c-0.152,0.963,1.361,1.756,2.914,3.332c1.135,1.154,1.814,1.844,2.297,2.178
			c0.619-1.059,1.143-2.227,1.559-3.48C84.848,75.409,84.396,74.903,83.92,74.433z"/>
	</g>
</g>
</svg>
