<?xml version="1.0" encoding="utf-8"?>
<!-- Generator: Adobe Illustrator 16.0.0, SVG Export Plug-In . SVG Version: 6.00 Build 0)  -->
<!DOCTYPE svg PUBLIC "-//W3C//DTD SVG 1.1//EN" "http://www.w3.org/Graphics/SVG/1.1/DTD/svg11.dtd">
<svg version="1.1" id="Layer_1" xmlns="http://www.w3.org/2000/svg" xmlns:xlink="http://www.w3.org/1999/xlink" x="0px" y="0px"
	 width="150px" height="150px" viewBox="0 0 150 150" enable-background="new 0 0 150 150" xml:space="preserve">
<circle fill="none" stroke="#D1D1D1" stroke-width="4" stroke-miterlimit="10" cx="75.282" cy="74.847" r="70.423"/>
<g>
	<path fill="#C99E48" d="M98.326,76.252l11.576-4.331c7.667-2.824,10.47-18.536,2.047-26.178c-6.93-6.287-17.582-3.133-17.582-3.133
		L40.128,56.19l0,0C30.1,60.057,23.332,67.119,23.332,78.51c0,14.785,11.986,26.771,26.771,26.771c1.582,0,5.737,0.729,7.245,0.467
		c4.805,0.207,7.959-0.212,13.008-0.467c18.622-0.939,21.749,1.455,21.749,1.455s37.139-21.297,45.721-24.713
		C139.231,78.688,98.326,76.252,98.326,76.252z"/>
	<path fill="#B68C43" stroke="#FFFFFF" stroke-width="1.6435" stroke-linecap="round" stroke-miterlimit="10" d="M56.423,69.58
		l-11.726,4.541c-13.706-8.958-18.712,10.678-7.028,17.571c22.837,13.472,34.199-34.826,6.676-35.496
		c-27.411-0.666-31.3,51.084,13.004,49.551c30.457-1.056,34.757,0.988,34.757,0.988s31.074-17.807,45.721-24.713
		c0-2.632-39.5-5.771-39.5-5.771L48.287,93.719"/>
	
		<line fill="none" stroke="#FFFFFF" stroke-width="1.6435" stroke-linecap="round" stroke-linejoin="round" stroke-miterlimit="10" x1="36.995" y1="71.921" x2="54.771" y2="66.271"/>
	<path fill="none" stroke="#FFFFFF" stroke-width="1.6435" stroke-linecap="round" stroke-miterlimit="10" d="M98.326,76.252
		l11.576-4.331c6.385-2.824,12.462-15.731,2.047-26.178c-5.117-5.133-14.146-3.785-15.549-3.432
		c-3.063,0.77-58.356,14.755-58.356,14.755"/>
</g>
</svg>
