<?xml version="1.0" encoding="utf-8"?>
<!-- Generator: Adobe Illustrator 16.0.0, SVG Export Plug-In . SVG Version: 6.00 Build 0)  -->
<!DOCTYPE svg PUBLIC "-//W3C//DTD SVG 1.1//EN" "http://www.w3.org/Graphics/SVG/1.1/DTD/svg11.dtd">
<svg version="1.1" id="Layer_1" xmlns="http://www.w3.org/2000/svg" xmlns:xlink="http://www.w3.org/1999/xlink" x="0px" y="0px"
	 width="150px" height="150px" viewBox="0 0 150 150" enable-background="new 0 0 150 150" xml:space="preserve">
<circle fill="none" stroke="#D1D1D1" stroke-width="4" stroke-miterlimit="10" cx="75.282" cy="74.847" r="70.423"/>
<g>
	<path fill="#C99E48" d="M94.777,88.946l10.566-3.953c6.998-2.578,9.555-16.918,1.867-23.893
		c-6.324-5.738-16.047-2.859-16.047-2.859L41.662,70.636l0,0c-9.152,3.529-15.33,9.975-15.33,20.371
		c0,13.494,10.94,24.434,24.434,24.434c1.443,0,5.236,0.666,6.612,0.426c4.386,0.189,7.265-0.193,11.872-0.426
		c16.996-0.857,19.849,1.328,19.849,1.328s33.896-19.438,41.729-22.555C132.111,91.169,94.777,88.946,94.777,88.946z"/>
	<path fill="#B68C43" stroke="#FFFFFF" stroke-width="1.5" stroke-linecap="round" stroke-miterlimit="10" d="M56.534,82.856
		l-10.702,4.145c-12.509-8.176-17.079,9.746-6.415,16.037c20.844,12.295,31.213-31.785,6.094-32.396
		c-25.018-0.607-28.567,46.625,11.868,45.225c27.797-0.963,31.721,0.902,31.721,0.902s28.361-16.252,41.729-22.555
		c0-2.402-36.051-5.268-36.051-5.268l-45.669,15.941"/>
	
		<line fill="none" stroke="#FFFFFF" stroke-width="1.5" stroke-linecap="round" stroke-linejoin="round" stroke-miterlimit="10" x1="38.802" y1="84.993" x2="55.026" y2="79.837"/>
	<path fill="none" stroke="#FFFFFF" stroke-width="1.5" stroke-linecap="round" stroke-miterlimit="10" d="M94.777,88.946
		l10.566-3.953c5.826-2.578,11.373-14.357,1.867-23.893c-4.67-4.686-12.91-3.455-14.191-3.133
		c-2.795,0.703-53.26,13.467-53.26,13.467"/>
</g>
<g>
	<path fill="#6DBD45" d="M67.223,42.389c0.141,1.768,1.88,2.61,3.873,2.61c1.459,0,2.638-0.197,3.788-0.562l0.562,2.891
		c-1.403,0.561-3.115,0.842-4.967,0.842c-4.658,0-7.324-2.694-7.324-6.987c0-3.479,2.161-7.324,6.931-7.324
		c4.434,0,6.118,3.451,6.118,6.847c0,0.729-0.084,1.375-0.141,1.684H67.223z M72.246,39.47c0-1.038-0.449-2.778-2.413-2.778
		c-1.796,0-2.525,1.627-2.638,2.778H72.246z"/>
	<path fill="#6DBD45" d="M89.055,47.552c-0.758,0.337-2.189,0.618-3.816,0.618c-4.434,0-7.269-2.694-7.269-7.015
		c0-4.013,2.75-7.296,7.857-7.296c1.122,0,2.357,0.196,3.255,0.533l-0.673,3.171c-0.506-0.225-1.263-0.421-2.386-0.421
		c-2.245,0-3.704,1.6-3.676,3.845c0,2.525,1.684,3.844,3.76,3.844c1.011,0,1.796-0.168,2.441-0.421L89.055,47.552z"/>
	<path fill="#6DBD45" d="M104.656,40.874c0,5.023-3.564,7.324-7.24,7.324c-4.013,0-7.1-2.638-7.1-7.071s2.919-7.268,7.324-7.268
		C101.85,33.858,104.656,36.749,104.656,40.874z M94.723,41.014c0,2.357,0.981,4.125,2.806,4.125c1.655,0,2.722-1.656,2.722-4.125
		c0-2.048-0.785-4.125-2.722-4.125C95.479,36.889,94.723,38.993,94.723,41.014z"/>
</g>
<g>
	<rect x="46.083" y="48.753" fill="#AC7A3D" width="3.166" height="5.477"/>
	<polygon fill="#6DBD45" points="52.371,43.263 52.086,42.829 55.459,42.829 51.561,37.296 50.7,36.074 52.605,36.074 
		50.134,31.765 47.665,27.459 45.196,31.765 42.726,36.074 44.63,36.074 43.77,37.296 39.873,42.829 43.245,42.829 42.959,43.263 
		38.254,50.454 47.666,50.454 57.077,50.454 	"/>
</g>
</svg>
