<?xml version="1.0" encoding="utf-8"?>
<!-- Generator: Adobe Illustrator 16.0.0, SVG Export Plug-In . SVG Version: 6.00 Build 0)  -->
<!DOCTYPE svg PUBLIC "-//W3C//DTD SVG 1.1//EN" "http://www.w3.org/Graphics/SVG/1.1/DTD/svg11.dtd">
<svg version="1.1" id="Layer_1" xmlns="http://www.w3.org/2000/svg" xmlns:xlink="http://www.w3.org/1999/xlink" x="0px" y="0px"
	 width="150px" height="150px" viewBox="0 0 150 150" enable-background="new 0 0 150 150" xml:space="preserve">
<path fill="#C99E48" d="M75.402,9.596c-0.277,0-0.55,0.018-0.826,0.021v101.678h53.293c7.509-10.531,11.943-23.398,11.945-37.291
	C139.814,38.49,110.917,9.596,75.402,9.596z"/>
<path fill="#FFFFFF" d="M133.947,72.347V47.2c-7.477-16.264-21.526-28.897-38.735-34.474v59.621H133.947z"/>
<path fill="#D1D1D1" d="M131.938,70.329v-27.16c-7.506-13.702-19.848-24.391-34.713-29.76v56.92H131.938z"/>
<rect x="99.473" y="35.647" fill="#FFFFFF" width="14.33" height="32.839"/>
<rect x="115.837" y="35.647" fill="#FFFFFF" width="13.851" height="32.839"/>
<g>
	<g>
		<rect x="25.653" y="70.215" fill="#D1D1D1" width="61.256" height="3.138"/>
		<rect x="28.279" y="75.146" fill="#D1D1D1" width="24.651" height="27.336"/>
		<rect x="31.123" y="78.089" fill="#C99E48" width="18.97" height="21.448"/>
		<polygon fill="#D1D1D1" points="31.674,111.348 28.565,111.348 28.565,103.282 33.107,103.282 		"/>
		<polygon fill="#D1D1D1" points="52.862,111.348 49.754,111.348 48.321,103.282 52.862,103.282 		"/>
		<polygon fill="#D1D1D1" points="84.866,111.348 81.759,111.348 80.325,74.622 84.866,74.622 		"/>
		<ellipse fill="#D1D1D1" cx="45.987" cy="83.99" rx="2.28" ry="2.361"/>
		<ellipse fill="#A2A2A3" cx="45.987" cy="83.99" rx="1.463" ry="1.515"/>
	</g>
	<rect x="25.653" y="73.83" fill="#FFFFFF" width="61.251" height="1.389"/>
	<rect x="25.653" y="72.796" fill="#A2A2A3" width="61.251" height="1.11"/>
	<rect x="28.36" y="101.462" fill="#A2A2A3" width="24.641" height="1.108"/>
</g>
<path fill="#FFFFFF" d="M75.402,3.687c-38.836,0-70.318,31.482-70.318,70.317c0,38.837,31.482,70.32,70.318,70.32
	c38.836,0,70.321-31.482,70.321-70.32C145.723,35.169,114.238,3.687,75.402,3.687z M75.402,138.414
	c-35.515,0-64.409-28.895-64.409-64.41c0-35.515,28.894-64.408,64.409-64.408c35.515,0,64.413,28.894,64.413,64.408
	C139.813,109.52,110.917,138.414,75.402,138.414z"/>
<path fill="#A2A2A3" d="M75.402,138.414c21.159,0,39.961-10.258,51.711-26.059H23.691C35.44,128.156,54.245,138.414,75.402,138.414z
	"/>
<g>
	<circle fill="none" stroke="#D1D1D1" stroke-width="3.9171" stroke-miterlimit="10" cx="75.403" cy="74.004" r="70.319"/>
</g>
<path fill="#FFFFFF" d="M99.473,34h14.33V22.328c-3.929-2.926-8.203-6.407-12.746-8.388h-1.584V34z"/>
<path fill="#FFFFFF" d="M125.827,34c-2.953-3.714-6.302-7.098-9.99-10.081V34H125.827z"/>
</svg>
