<?xml version="1.0" encoding="utf-8"?>
<!-- Generator: Adobe Illustrator 16.0.0, SVG Export Plug-In . SVG Version: 6.00 Build 0)  -->
<!DOCTYPE svg PUBLIC "-//W3C//DTD SVG 1.1//EN" "http://www.w3.org/Graphics/SVG/1.1/DTD/svg11.dtd">
<svg version="1.1" id="Layer_1" xmlns="http://www.w3.org/2000/svg" xmlns:xlink="http://www.w3.org/1999/xlink" x="0px" y="0px"
	 width="150px" height="150px" viewBox="0 0 150 150" enable-background="new 0 0 150 150" xml:space="preserve">
<g>
	<circle fill="none" stroke="#D1D1D1" stroke-width="4" stroke-miterlimit="10" cx="75.277" cy="74.243" r="70.23"/>
	<g>
		<path fill="#D1D1D1" d="M110.238,92.376c0,0,0-32.978,0-35.439c-3.78-0.693-3.089-4.332-3.089-4.332
			c3.192-1.408,3.022-4.55,2.939-6.718c-0.119-3.216-3.621-5.365-4.04-5.627c-0.418-0.263-0.031-0.902-0.031-0.902l0.725-0.146
			v-1.507h-6.934l-59.447,9.701l-0.047,8.503l5.766,1.693l0.099,54.054l-5.865-1.996l0.023,5.167l11.707,4.989L110.238,92.376z"/>
		<path fill="#A6A8AB" d="M48.956,68.117c0,0,57.918-15.427,58.193-15.512c0.606-0.188,1.327-0.833,1.327-0.833L50.354,66.886
			L48.956,68.117z"/>
		<polygon fill="#D1D1D1" points="110.238,92.376 52.045,119.816 52.045,74.035 110.238,56.937 		"/>
		<path fill="#C99E48" d="M40.361,47.406l7.21,1.417v2.186l-0.092,0.571c0.001,0-0.134,0.838-0.134,0.838s3.815,1.579,4.537,6.697
			c0.998,7.074-2.927,9.003-2.927,9.003s-0.691,5.146,3.089,5.918c0,2.742,0,45.781,0,45.781l-11.707-4.989l-0.023-5.167
			l5.865,1.996l-0.099-54.054l-5.766-1.693L40.361,47.406z"/>
		<polygon fill="#A6A8AB" points="47.346,52.417 106.049,40.26 106.018,39.357 47.346,51.008 47.48,51.579 		"/>
		<polygon fill="#FFFFFF" points="47.572,48.822 106.742,37.705 106.742,39.211 47.572,51.008 		"/>
		<polygon fill="#FFFFFF" points="110.238,56.937 52.045,74.035 52.045,75.275 110.238,57.496 		"/>
	</g>
</g>
</svg>
