<?xml version="1.0" encoding="utf-8"?>
<!-- Generator: Adobe Illustrator 16.0.0, SVG Export Plug-In . SVG Version: 6.00 Build 0)  -->
<!DOCTYPE svg PUBLIC "-//W3C//DTD SVG 1.1//EN" "http://www.w3.org/Graphics/SVG/1.1/DTD/svg11.dtd">
<svg version="1.1" id="Layer_1" xmlns="http://www.w3.org/2000/svg" xmlns:xlink="http://www.w3.org/1999/xlink" x="0px" y="0px"
	 width="150px" height="150px" viewBox="0 0 150 150" enable-background="new 0 0 150 150" xml:space="preserve">
<circle fill="none" stroke="#D1D1D1" stroke-width="4" stroke-miterlimit="10" cx="75.689" cy="73.637" r="70.183"/>
<g>
	<polygon fill="#BFBEBE" points="53.538,68.438 54.67,68.438 50.083,53.75 49.978,58.405 	"/>
	<polygon fill="#A2A2A3" points="95.449,68.598 94.316,68.598 98.987,53.74 99.009,58.567 	"/>
	<polygon fill="#A2A2A3" points="21.337,72.969 20.284,69.88 14.521,61.79 14.52,65.997 	"/>
	<polygon fill="#A2A2A3" points="130.885,72.159 128.964,72.005 136.872,60.833 137.196,64.876 	"/>
	<rect x="16.645" y="66.832" fill="#D1D1D1" width="116.991" height="1.488"/>
	<path fill="#C99E48" d="M132.988,68.267H18.586c0,0,21.121,22.971,21.521,23.791l69.094,0.008
		C109.605,91.246,132.988,68.267,132.988,68.267z"/>
	<rect x="50.916" y="29.977" fill="#A2A2A3" width="2.999" height="36.848"/>
	<rect x="94.669" y="29.977" fill="#A2A2A3" width="2.999" height="36.849"/>
	<polygon fill="#D1D1D1" points="52.081,57.441 46.978,57.441 61.037,91.912 62.762,91.912 	"/>
	<polygon fill="#D1D1D1" points="96.977,57.441 102.082,57.441 88.166,91.912 86.436,91.912 	"/>
	<rect x="48.749" y="53.75" fill="#D1D1D1" width="1.334" height="4.499"/>
	<rect x="46.967" y="56.788" fill="#D1D1D1" width="5.212" height="0.704"/>
	<g>
		<polygon fill="#D1D1D1" points="16.546,65.477 11.443,65.477 38.786,92.236 40.512,92.236 		"/>
		<rect x="13.197" y="61.8" fill="#D1D1D1" width="1.352" height="4.485"/>
		<rect x="11.431" y="64.824" fill="#D1D1D1" width="5.213" height="0.704"/>
	</g>
	<g>
		<polygon fill="#D1D1D1" points="134.833,64.886 139.937,64.886 109.535,92.236 107.809,92.236 		"/>
		<rect x="136.83" y="60.725" fill="#D1D1D1" width="0.939" height="4.97"/>
		<rect x="134.734" y="64.233" fill="#D1D1D1" width="5.213" height="0.704"/>
	</g>
	<rect x="98.983" y="53.75" fill="#D1D1D1" width="1.443" height="4.499"/>
	<rect x="96.968" y="56.788" fill="#D1D1D1" width="5.132" height="0.704"/>
	<rect x="26.596" y="78.792" fill="#D1D1D1" width="96.441" height="0.989"/>
	<rect x="33.957" y="86.532" fill="#D1D1D1" width="79.937" height="0.921"/>
	<rect x="39.499" y="91.539" fill="#D1D1D1" width="70.068" height="0.697"/>
	<g>
		<g>
			<ellipse fill="#FFFFFF" cx="44.8" cy="83.29" rx="2.852" ry="0.851"/>
			<ellipse fill="#B7B7B7" cx="44.8" cy="83.352" rx="2.162" ry="0.546"/>
		</g>
		<ellipse fill="#FFFFFF" cx="44.801" cy="83.079" rx="1.517" ry="0.516"/>
	</g>
	<g>
		<g>
			<ellipse fill="#FFFFFF" cx="73.744" cy="83.29" rx="2.852" ry="0.851"/>
			<ellipse fill="#B7B7B7" cx="73.744" cy="83.352" rx="2.162" ry="0.546"/>
		</g>
		<ellipse fill="#FFFFFF" cx="73.744" cy="83.079" rx="1.518" ry="0.516"/>
	</g>
	<g>
		<g>
			<ellipse fill="#FFFFFF" cx="104.934" cy="83.29" rx="2.852" ry="0.851"/>
			<ellipse fill="#B7B7B7" cx="104.933" cy="83.352" rx="2.162" ry="0.546"/>
		</g>
		<ellipse fill="#FFFFFF" cx="104.934" cy="83.079" rx="1.517" ry="0.516"/>
	</g>
</g>
</svg>
