<?xml version="1.0" encoding="utf-8"?>
<!-- Generator: Adobe Illustrator 16.0.0, SVG Export Plug-In . SVG Version: 6.00 Build 0)  -->
<!DOCTYPE svg PUBLIC "-//W3C//DTD SVG 1.1//EN" "http://www.w3.org/Graphics/SVG/1.1/DTD/svg11.dtd">
<svg version="1.1" id="Layer_1" xmlns="http://www.w3.org/2000/svg" xmlns:xlink="http://www.w3.org/1999/xlink" x="0px" y="0px"
	 width="150px" height="150px" viewBox="0 0 150 150" enable-background="new 0 0 150 150" xml:space="preserve">
<g>
	<g>
		<path fill="#C99E48" d="M41.03,79.792c0,0.346-0.267,0.627-0.596,0.627h-4.605c-0.332,0-0.6-0.281-0.6-0.627V58.274
			c0-0.346,0.268-0.625,0.6-0.625h4.605c0.329,0,0.596,0.28,0.596,0.625V79.792z"/>
		<path fill="#C99E48" d="M49.872,82.83c0,0.444-0.268,0.806-0.596,0.806h-4.608c-0.329,0-0.6-0.361-0.6-0.806V55.238
			c0-0.445,0.271-0.805,0.6-0.805h4.608c0.328,0,0.596,0.36,0.596,0.805V82.83z"/>
	</g>
	<g>
		<path fill="#C99E48" d="M110.054,79.792c0,0.346,0.267,0.627,0.6,0.627h4.604c0.33,0,0.597-0.281,0.597-0.627V58.274
			c0-0.346-0.267-0.625-0.597-0.625h-4.604c-0.333,0-0.6,0.28-0.6,0.625V79.792z"/>
		<path fill="#C99E48" d="M101.212,82.83c0,0.444,0.271,0.806,0.599,0.806h4.605c0.333,0,0.6-0.361,0.6-0.806V55.238
			c0-0.445-0.267-0.805-0.6-0.805h-4.605c-0.327,0-0.599,0.36-0.599,0.805V82.83z"/>
	</g>
	<path fill="#D1D1D1" d="M98.804,69.972c0,0.445-0.349,0.804-0.777,0.804H52.657c-0.427,0-0.772-0.359-0.772-0.804v-2.813
		c0-0.443,0.345-0.804,0.772-0.804h45.369c0.429,0,0.777,0.361,0.777,0.804V69.972z"/>
	<path fill="#D1D1D1" d="M32.455,69.972c0,0.445-0.034,0.804-0.083,0.804h-4.777c-0.047,0-0.082-0.359-0.082-0.804v-2.813
		c0-0.443,0.035-0.804,0.082-0.804h4.777c0.049,0,0.083,0.361,0.083,0.804V69.972z"/>
	<path fill="#D1D1D1" d="M123.532,69.972c0,0.445-0.036,0.804-0.081,0.804h-4.78c-0.045,0-0.083-0.359-0.083-0.804v-2.813
		c0-0.443,0.038-0.804,0.083-0.804h4.78c0.045,0,0.081,0.361,0.081,0.804V69.972z"/>
</g>
<circle fill="none" stroke="#D1D1D1" stroke-width="4" stroke-miterlimit="10" cx="75.523" cy="73.923" r="70.539"/>
<path fill="#A2A2A3" d="M121.061,93.092c0,0.543-0.439,0.982-0.982,0.982h-89.11c-0.543,0-0.982-0.439-0.982-0.982v-3.273
	c0-0.543,0.439-0.982,0.982-0.982h89.11c0.543,0,0.982,0.439,0.982,0.982V93.092z"/>
</svg>
