<?xml version="1.0" encoding="utf-8"?>
<!-- Generator: Adobe Illustrator 16.0.0, SVG Export Plug-In . SVG Version: 6.00 Build 0)  -->
<!DOCTYPE svg PUBLIC "-//W3C//DTD SVG 1.1//EN" "http://www.w3.org/Graphics/SVG/1.1/DTD/svg11.dtd">
<svg version="1.1" id="Layer_1" xmlns="http://www.w3.org/2000/svg" xmlns:xlink="http://www.w3.org/1999/xlink" x="0px" y="0px"
	 width="150px" height="150px" viewBox="0 0 150 150" enable-background="new 0 0 150 150" xml:space="preserve">
<g>
	<circle fill="none" stroke="#D1D1D1" stroke-width="3.8956" stroke-miterlimit="10" cx="75.408" cy="73.818" r="69.933"/>
	<path fill="#C99E48" d="M21.074,107.137c3.945,6.521,9.024,12.282,14.979,16.986c0.442,0.349,2.248,0.928,3.045,1.029h72.311
		c1.826,0,2.965-0.722,3.432-1.093c5.999-4.756,11.104-10.587,15.057-17.183c0.2-0.332-1.198-1.004-1.689-1.004
		c-3.407,0-103.23-0.002-105.91,0C21.857,105.873,20.82,106.718,21.074,107.137z"/>
	<g>
		<polygon fill="#D1D1D1" points="110.186,111.339 75.69,111.339 69.021,60.078 116.854,60.078 		"/>
		<polygon fill="#A2A2A3" points="117.031,66.68 68.914,66.68 68.559,63.792 117.317,63.792 		"/>
		<path fill="none" stroke="#A2A2A3" stroke-width="2.2778" stroke-linecap="square" stroke-miterlimit="10" d="M119.816,64.715
			c0,12.189-12.665,22.071-26.878,22.071c-14.215,0-26.879-9.882-26.879-22.071"/>
		<polygon fill="#FFFFFF" points="110.186,111.517 75.69,111.517 75.355,109.637 110.497,109.637 		"/>
	</g>
	<g>
		<rect x="59.956" y="29.619" fill="#C99E48" width="2.323" height="68.141"/>
		<path fill="#636363" d="M62.72,31.777h-3.204V19.936c0-0.853,0.716-1.544,1.602-1.544l0,0c0.884,0,1.602,0.691,1.602,1.544V31.777
			z"/>
		<path fill="#FFFFFF" d="M42.245,118.494c-1.537,0-2.423-1.191-2.594-2.299l-0.035-0.219l0.766-4.604
			c0.022-0.362,0.147-1.186,0.791-1.835c0.348-0.353,0.972-0.771,1.965-0.771h35.355c2.305,0,3.021,1.322,3.142,1.587l0.074,0.163
			l0.877,5.253c0.028,0.271,0.083,1.204-0.593,1.95c-0.32,0.354-0.91,0.775-1.896,0.775H42.245z"/>
		<path fill="#D1D1D1" d="M80.098,117.113c-1.234,0-36.799,0-37.853,0c-1.055,0-1.23-1.131-1.23-1.131l0.744-4.468
			c0,0-0.014-1.367,1.379-1.367c1.392,0,33.822,0,35.355,0s1.886,0.775,1.886,0.775l0.845,5.071
			C81.224,115.994,81.333,117.113,80.098,117.113z"/>
		<path fill="#636363" d="M63.639,111.893c0,1.737-5.042,1.747-5.042,0c0-1.745,0-14.133,0-14.133h5.042
			C63.639,97.76,63.639,110.643,63.639,111.893z"/>
		<path fill="#636363" d="M41.141,116.372c0.15,0.327,0.464,0.741,1.104,0.741c1.054,0,36.619,0,37.853,0
			c0.754,0,1.006-0.416,1.087-0.741H41.141z"/>
		<path fill="#D1D1D1" d="M64.566,101.041c0,0.422-0.229,0.762-0.516,0.762h-5.932c-0.286,0-0.516-0.34-0.516-0.762l0,0
			c0-0.425,0.229-0.765,0.516-0.765h5.932C64.336,100.276,64.566,100.616,64.566,101.041L64.566,101.041z"/>
	</g>
	<polygon fill="#636363" points="116.553,62.785 116.123,66.644 118.705,66.644 118.705,62.785 	"/>
	<polygon fill="#636363" points="69.321,62.786 67.171,62.786 67.171,66.646 69.75,66.646 	"/>
</g>
</svg>
