<?xml version="1.0" encoding="utf-8"?>
<!-- Generator: Adobe Illustrator 16.0.0, SVG Export Plug-In . SVG Version: 6.00 Build 0)  -->
<!DOCTYPE svg PUBLIC "-//W3C//DTD SVG 1.1//EN" "http://www.w3.org/Graphics/SVG/1.1/DTD/svg11.dtd">
<svg version="1.1" id="Layer_1" xmlns="http://www.w3.org/2000/svg" xmlns:xlink="http://www.w3.org/1999/xlink" x="0px" y="0px"
	 width="150px" height="150px" viewBox="0 0 150 150" enable-background="new 0 0 150 150" xml:space="preserve">
<g>
	<path fill="#A2A2A3" d="M133.391,43.77L59.044,61.767V82.54l80.55-21.136C138.373,55.163,136.256,49.242,133.391,43.77z"/>
	<path fill="#A2A2A3" d="M140.396,81.398L98.962,93.101l0.009,21.028l34.902-10.828C137.256,96.574,139.515,89.194,140.396,81.398z"
		/>
	<polygon fill="#A2A2A3" points="58.815,101.066 98.971,114.129 98.962,93.505 58.815,82.351 	"/>
	<polygon fill="#A2A2A3" points="20.222,71.652 59.102,82.63 59.171,61.948 20.222,52.021 	"/>
	<path fill="#D1D1D1" d="M20.164,51.931l38.948,10.222l74.341-18.266c-2.787-5.348-6.286-10.262-10.378-14.62L20.164,51.931z"/>
	<path fill="#D1D1D1" d="M98.973,93.482l41.385-11.781c0.298-2.527,0.468-5.092,0.468-7.697c0-4.319-0.432-8.538-1.233-12.626
		l-80.48,21.045L98.973,93.482z"/>
	
		<line fill="none" stroke="#FFFFFF" stroke-width="0.4847" stroke-miterlimit="10" x1="19.847" y1="52.025" x2="59.329" y2="62.458"/>
	
		<line fill="none" stroke="#FFFFFF" stroke-width="0.5627" stroke-miterlimit="10" x1="98.784" y1="93.429" x2="98.784" y2="114.59"/>
	
		<line fill="none" stroke="#FFFFFF" stroke-width="0.5666" stroke-miterlimit="10" x1="58.857" y1="62.594" x2="58.857" y2="82.875"/>
	<g>
		<polygon fill="#B28A41" points="59.899,61.817 59.147,62.237 59.111,67.411 59.875,67.221 		"/>
		<path fill="#DFB874" d="M130.972,39.711L48.643,58.675l11.257,3.142l73.576-17.884C132.916,42.858,131.588,40.752,130.972,39.711z
			"/>
		<path fill="#FFFFFF" d="M130.817,40.931L51.832,59.498l1.36,0.35l77.921-18.404C131.017,41.271,130.917,41.102,130.817,40.931z"/>
		<path fill="#FFFFFF" d="M131.926,42.206L55.844,60.603l1.333,0.356l75.035-18.219C132.117,42.562,132.023,42.383,131.926,42.206z"
			/>
		<path fill="#C99E48" d="M133.476,43.933L59.899,61.817l-0.025,5.404l75.627-19.039C134.878,46.737,134.197,45.322,133.476,43.933z
			"/>
		<polygon fill="#B28A41" points="48.535,59.251 48.553,58.669 59.899,61.817 59.147,62.237 		"/>
	</g>
	
		<line fill="none" stroke="#FFFFFF" stroke-width="0.4924" stroke-miterlimit="10" x1="58.687" y1="82.521" x2="99.133" y2="93.756"/>
	<g>
		<path fill="#DFB874" d="M141.575,74.582L87.404,89.437l12.131,3.394l40.887-11.634C140.607,79.512,141.521,76.302,141.575,74.582z
			"/>
		<g>
			<path fill="#FFFFFF" d="M140.311,76.133L90.165,90.12l1.351,0.403l48.747-13.646C140.278,76.629,140.299,76.382,140.311,76.133z"
				/>
			<path fill="#FFFFFF" d="M140.263,78.297l-46.018,13.01l1.83,0.512l43.706-12.333C139.804,79.231,140.244,78.552,140.263,78.297z"
				/>
		</g>
		<polygon fill="#B28A41" points="99.032,98.725 99.547,98.788 99.547,92.788 98.973,93.454 		"/>
		<polygon fill="#B28A41" points="87.4,90.158 87.404,89.437 99.476,92.83 99.032,93.542 		"/>
		<path fill="#C99E48" d="M140.426,81.169L99.547,92.788v6l39.961-11.686C139.903,85.154,140.205,83.175,140.426,81.169z"/>
	</g>
	<path fill="#FFFFFF" d="M139.936,80.703L98.699,92.451l0.867,0.794l40.804-11.645C140.394,81.398,139.914,80.906,139.936,80.703z"
		/>
	<polygon fill="#FFFFFF" points="133.845,44.465 133.468,43.712 59.471,61.687 59.884,62.391 	"/>
	<path fill="#FFFFFF" d="M75.402,3.687c-38.836,0-70.318,31.482-70.318,70.317c0,38.837,31.482,70.32,70.318,70.32
		c38.837,0,70.32-31.482,70.32-70.32C145.722,35.169,114.239,3.687,75.402,3.687z M75.402,138.414
		c-35.515,0-64.409-28.895-64.409-64.41c0-35.515,28.894-64.408,64.409-64.408s64.412,28.894,64.412,64.408
		C139.813,109.52,110.917,138.414,75.402,138.414z"/>
	<g>
		<circle fill="none" stroke="#D1D1D1" stroke-width="3.9171" stroke-miterlimit="10" cx="75.403" cy="74.004" r="70.319"/>
	</g>
</g>
</svg>
