<?xml version="1.0" encoding="utf-8"?>
<!-- Generator: Adobe Illustrator 16.0.0, SVG Export Plug-In . SVG Version: 6.00 Build 0)  -->
<!DOCTYPE svg PUBLIC "-//W3C//DTD SVG 1.1//EN" "http://www.w3.org/Graphics/SVG/1.1/DTD/svg11.dtd">
<svg version="1.1" id="Layer_1" xmlns="http://www.w3.org/2000/svg" xmlns:xlink="http://www.w3.org/1999/xlink" x="0px" y="0px"
	 width="105px" height="115px" viewBox="0 0 105 115" enable-background="new 0 0 105 115" xml:space="preserve">
<g>
	<g>
		<path fill="#D3AB6C" d="M36.336,85.9H1.586c-0.591,0-1.071-0.48-1.071-1.071V1.071C0.516,0.479,0.995,0,1.586,0h62.504
			c0.592,0,1.071,0.479,1.071,1.071v12.813c0,0.592-0.479,1.071-1.071,1.071c-0.591,0-1.07-0.479-1.07-1.071V2.143H2.658v81.616
			h33.678c0.592,0,1.071,0.478,1.071,1.07C37.407,85.42,36.928,85.9,36.336,85.9z"/>
	</g>
</g>
<rect x="9.876" y="12.061" fill="#D3AB6C" width="45.925" height="1.646"/>
<rect x="9.876" y="19.55" fill="#D3AB6C" width="45.925" height="1.645"/>
<rect x="9.876" y="27.041" fill="#D3AB6C" width="12.958" height="1.646"/>
<g>
	<polygon fill="#D3AB6C" points="70.001,52.998 35.886,39.508 70.001,26.018 104.117,39.508 	"/>
	<path fill="#BA8A4A" d="M70.001,56.307l-23.762-9.396V79.07c0,4.496,10.639,8.142,23.762,8.142c13.125,0,23.763-3.646,23.763-8.142
		V46.911L70.001,56.307z"/>
	<linearGradient id="SVGID_1_" gradientUnits="userSpaceOnUse" x1="101.7783" y1="57.3589" x2="103.9209" y2="57.3589">
		<stop  offset="0.0345" style="stop-color:#BC9645"/>
		<stop  offset="0.4221" style="stop-color:#C39C48"/>
		<stop  offset="1" style="stop-color:#C79F4A"/>
	</linearGradient>
	
		<line fill="none" stroke="url(#SVGID_1_)" stroke-width="2.1424" stroke-linecap="round" stroke-linejoin="round" stroke-miterlimit="10" x1="102.85" y1="43.972" x2="102.85" y2="70.746"/>
	<path fill="#BB8F45" d="M105,77.985c0,2.396-0.962,2.169-2.15,2.169s-2.15,0.228-2.15-2.169c0-2.398,0.962-4.886,2.15-4.886
		S105,75.587,105,77.985z"/>
</g>
<g>
	<path fill="#D3AB6C" d="M19.291,50.973c-6.36,0-11.516,5.156-11.516,11.517c0,6.363,5.156,11.518,11.516,11.518
		c6.362,0,11.519-5.154,11.519-11.518C30.81,56.129,25.653,50.973,19.291,50.973z M19.291,71.064c-4.735,0-8.573-3.839-8.573-8.574
		c0-4.734,3.838-8.572,8.573-8.572s8.575,3.838,8.575,8.572C27.866,67.226,24.026,71.064,19.291,71.064z"/>
	<path fill="#BB8F45" d="M7.775,78.373l3.103-4.995c0,0,1.302,1.232,2.209,1.734c1.419,0.789,3.312,1,3.312,1l-3.682,5.681
		l-1.525-3.104L7.775,78.373z"/>
	<path fill="#BB8F45" d="M30.81,78.057l-3.103-4.995c0,0-1.302,1.231-2.209,1.735c-1.42,0.79-3.313,1.001-3.313,1.001l3.681,5.679
		l1.526-3.104L30.81,78.057z"/>
	<circle fill="#FFFFFF" cx="19.292" cy="62.49" r="9.425"/>
</g>
<text transform="matrix(1 0 0 1 11.5444 63.7744)" fill="#C99E48" font-family="'MyriadPro-BoldCond'" font-size="4.2847">Certificate</text>
</svg>
