<?xml version="1.0" encoding="utf-8"?>
<!-- Generator: Adobe Illustrator 16.0.0, SVG Export Plug-In . SVG Version: 6.00 Build 0)  -->
<!DOCTYPE svg PUBLIC "-//W3C//DTD SVG 1.1//EN" "http://www.w3.org/Graphics/SVG/1.1/DTD/svg11.dtd">
<svg version="1.1" id="Layer_1" xmlns="http://www.w3.org/2000/svg" xmlns:xlink="http://www.w3.org/1999/xlink" x="0px" y="0px"
	 width="105px" height="115px" viewBox="0 0 105 115" enable-background="new 0 0 105 115" xml:space="preserve">
<g>
	<path fill="#D3AB6C" d="M93.139,36.534c3.273-3.05,5.325-7.411,5.325-12.255c0-9.222-7.422-16.695-16.577-16.695
		c-9.156,0-16.577,7.473-16.577,16.695c0,2.123,0.396,4.15,1.114,6.018C79.236,31.51,90.292,34.692,93.139,36.534z"/>
	<path fill="#BB8F45" d="M62.577,29.998c-0.529-1.815-0.817-3.732-0.817-5.719c0-11.194,9.011-20.271,20.127-20.271
		c11.114,0,20.127,9.076,20.127,20.271c0,5.914-2.518,11.235-6.529,14.941c0.508,0.851,0.96,1.804,1.356,2.8
		c4.99-4.27,8.159-10.631,8.159-17.742C105,11.423,94.65,1,81.887,1C69.121,1,58.771,11.423,58.771,24.278
		c0,1.921,0.237,3.789,0.673,5.575C60.494,29.885,61.539,29.935,62.577,29.998z"/>
	
		<line fill="none" stroke="#FFFFFF" stroke-width="1.8912" stroke-linecap="round" stroke-linejoin="round" stroke-miterlimit="10" x1="81.887" y1="12.214" x2="81.62" y2="24.278"/>
	
		<line fill="none" stroke="#FFFFFF" stroke-width="1.8912" stroke-linecap="round" stroke-linejoin="round" stroke-miterlimit="10" x1="90.45" y1="24.275" x2="81.62" y2="24.292"/>
</g>
<rect x="26.717" y="90.605" fill="#BB8F45" width="60.305" height="4.955"/>
<path fill="#D3AB6C" d="M87.022,82.319c0,0-0.326-2.734-1.269-4.922C84.812,75.209,72.18,58.184,72.18,58.184v-7.134h-8.673v4.756
	H50.498v-4.756h-8.784v7.134c0,0-11.765,16.052-13.085,18.626c-1.32,2.576-1.912,5.51-1.912,5.51h0.251l-0.251,0.633v6.389h60.305
	v-6.09l-0.13-0.932H87.022z"/>
<path fill="#BB8F45" d="M17.978,54.373c0,0,5.185,1.424,9.615,1.329c4.431-0.093,9.831-3.417,9.831-3.417s0.028,2.942,0,4.083
	c-0.027,1.139-0.929,7.405-9.716,7.215c-8.787-0.191-9.258-2.182-9.729-5.648C17.507,54.468,17.978,54.373,17.978,54.373z"/>
<path fill="#BB8F45" d="M95.554,54.373c0,0-5.186,1.424-9.616,1.329c-4.43-0.093-9.831-3.417-9.831-3.417s-0.027,2.942,0,4.083
	c0.028,1.139,0.93,7.405,9.717,7.215c8.787-0.191,9.259-2.182,9.73-5.648C96.023,54.468,95.554,54.373,95.554,54.373z"/>
<path fill="#D3AB6C" d="M58.325,42.819c13.008,0.333,15.608,2.673,16.699,3.864c1.131,1.234,0.944,3.323,0.944,3.323
	c1.224,1.043,7.352,3.513,10.367,3.607s9.427-0.381,9.427-1.329c0-0.95-1.697-10.443-4.524-12.722
	c-1.595-1.283-15.811-5.657-32.065-6.131l-5.097,0.017c-16.049,0.543-29.995,4.843-31.573,6.114
	c-2.828,2.279-4.525,11.771-4.525,12.722c0,0.948,6.41,1.424,9.426,1.329s9.144-2.564,10.369-3.607c0,0-0.188-2.088,0.942-3.323
	c1.073-1.17,3.601-3.449,16.027-3.845L58.325,42.819z"/>
<g>
	<path fill="#FFFFFF" d="M48.708,69.272c0,0.979,0.241,1.775-1.013,1.775h-4.949c-1.254,0-1.013-0.796-1.013-1.775l0,0
		c0-0.98-0.242-1.774,1.013-1.774h4.949C48.949,67.498,48.708,68.292,48.708,69.272L48.708,69.272z"/>
	<path fill="#FFFFFF" d="M59.831,69.272c0,0.979,0.24,1.775-1.014,1.775h-4.948c-1.254,0-1.014-0.796-1.014-1.775l0,0
		c0-0.98-0.24-1.774,1.014-1.774h4.948C60.071,67.498,59.831,68.292,59.831,69.272L59.831,69.272z"/>
	<path fill="#FFFFFF" d="M71.426,69.272c0,0.979,0.24,1.775-1.013,1.775h-4.949c-1.255,0-1.014-0.796-1.014-1.775l0,0
		c0-0.98-0.241-1.774,1.014-1.774h4.949C71.666,67.498,71.426,68.292,71.426,69.272L71.426,69.272z"/>
</g>
<g>
	<path fill="#FFFFFF" d="M48.708,81.608c0,0.981,0.241,1.774-1.013,1.774h-4.949c-1.254,0-1.013-0.793-1.013-1.774l0,0
		c0-0.979-0.242-1.774,1.013-1.774h4.949C48.949,79.834,48.708,80.629,48.708,81.608L48.708,81.608z"/>
	<path fill="#FFFFFF" d="M59.831,81.608c0,0.981,0.24,1.774-1.014,1.774h-4.948c-1.254,0-1.014-0.793-1.014-1.774l0,0
		c0-0.979-0.24-1.774,1.014-1.774h4.948C60.071,79.834,59.831,80.629,59.831,81.608L59.831,81.608z"/>
	<path fill="#FFFFFF" d="M71.426,81.608c0,0.981,0.24,1.774-1.013,1.774h-4.949c-1.255,0-1.014-0.793-1.014-1.774l0,0
		c0-0.979-0.241-1.774,1.014-1.774h4.949C71.666,79.834,71.426,80.629,71.426,81.608L71.426,81.608z"/>
</g>
<g>
	<path fill="#FFFFFF" d="M48.708,75.439c0,0.981,0.241,1.776-1.013,1.776h-4.949c-1.254,0-1.013-0.795-1.013-1.776l0,0
		c0-0.979-0.242-1.774,1.013-1.774h4.949C48.949,73.665,48.708,74.461,48.708,75.439L48.708,75.439z"/>
	<path fill="#FFFFFF" d="M60.067,75.439c0,0.981,0.24,1.776-1.014,1.776h-4.948c-1.255,0-1.015-0.795-1.015-1.776l0,0
		c0-0.979-0.24-1.774,1.015-1.774h4.948C60.308,73.665,60.067,74.461,60.067,75.439L60.067,75.439z"/>
	<path fill="#FFFFFF" d="M71.426,75.439c0,0.981,0.24,1.776-1.013,1.776h-4.949c-1.255,0-1.014-0.795-1.014-1.776l0,0
		c0-0.979-0.241-1.774,1.014-1.774h4.949C71.666,73.665,71.426,74.461,71.426,75.439L71.426,75.439z"/>
</g>
<path fill="none" stroke="#C99E48" stroke-width="1.8912" stroke-linecap="round" stroke-linejoin="round" stroke-miterlimit="10" d="
	M23.433,19.5c-1.732,0.205-3.406,0.587-5.005,1.13c-1.924,0.652-3.741,1.536-5.423,2.617c-0.836,0.537-1.639,1.124-2.405,1.755
	c-1.889,1.554-3.554,3.383-4.946,5.422c-2.797,4.1-4.482,9.052-4.655,14.362"/>
<path fill="none" stroke="#C99E48" stroke-width="1.8912" stroke-linecap="round" stroke-linejoin="round" stroke-miterlimit="10" d="
	M19.969,25.623c-4.186,1.429-7.739,4.219-10.212,7.844c-2.246,3.29-3.598,7.265-3.736,11.526"/>
<path fill="none" stroke="#C99E48" stroke-width="1.8912" stroke-linecap="round" stroke-linejoin="round" stroke-miterlimit="10" d="
	M19.678,31.333c-2.355,1.183-4.363,2.966-5.853,5.15c-1.696,2.487-2.714,5.493-2.819,8.715"/>
</svg>
