<?xml version="1.0" encoding="utf-8"?>
<!-- Generator: Adobe Illustrator 16.0.0, SVG Export Plug-In . SVG Version: 6.00 Build 0)  -->
<!DOCTYPE svg PUBLIC "-//W3C//DTD SVG 1.1//EN" "http://www.w3.org/Graphics/SVG/1.1/DTD/svg11.dtd">
<svg version="1.1" id="Layer_1" xmlns="http://www.w3.org/2000/svg" xmlns:xlink="http://www.w3.org/1999/xlink" x="0px" y="0px"
	 width="105px" height="115px" viewBox="0 0 105 115" enable-background="new 0 0 105 115" xml:space="preserve">
<path fill="#BA8A4A" d="M14.58,40.827L1.434,34.652c0,0,0.878-11.647,5.265-20.049c4.388-8.402,8.73-11.179,8.73-11.179
	l16.246,8.716L14.58,40.827z"/>
<path fill="#D3AB6C" d="M68.179,45.885c1.23,0.686,3.624,2.408,5.412,3.63c6.838,4.679,7.814,5.29,8.615,3.287
	c1.266-3.162,1.809-5.209-1.896-8.455c-1.709-1.495-23.796-18.146-23.796-18.146s-3.146-0.308-4.698,0.639
	c-0.634,0.387-6.02,6.678-7.188,7.61c-1.994,1.589-5.415,2.956-8.155-0.143c-1.557-1.76-1.543-3.853,0.092-6.688
	c1.901-3.297,10.063-11.598,10.063-11.598s-8.315,1.859-9.274,1.66c-0.96-0.199-5.698-1.785-5.698-1.785l-13.76,23.312l5.347,8.284
	c0,0,2.942-4.065,5.816-2.565c2.036,1.061,4.032,3.542,4.229,3.869c1.207-1.667,2.646-5.752,8.38-1.567
	c4.093,2.985,1.895,5.831,1.895,5.831s2.098,0.419,3.804,1.783c2.725,2.176,1.666,5.666,1.666,5.666s2.424,0.092,4.419,2.19
	c2.423,2.543,0.013,6.228,0.013,6.228s6.967,5.691,10.267,5.004c3.173-0.66,4.489-2.93,2.871-4.468
	c-1.903-1.809-8.865-5.451-8.912-6.796c-0.051-1.488,0.391-1.055,3.084,0.647c4.389,2.777,7.397,4.837,8.202,5.385
	c1.664,1.131,3.619,1.209,5.659-0.737c2.166-2.068,1.545-3.677,0.221-4.771c-1.526-1.265-9.677-6.619-11.329-7.684
	c-1.538-0.994-1.014-2.396,0.574-1.455c1.928,1.14,10.008,6.403,10.983,7.002c2.309,1.421,3.937,2.755,5.884-0.827
	c2.057-3.783-0.576-4.649-5.048-7.477c-1.48-0.936-7.632-4.992-8.42-5.514C66.714,46.713,66.947,45.201,68.179,45.885z"/>
<path fill="#D3AB6C" d="M28.277,54.844c-1.086,1.384-3.065,1.604-4.418,0.493l-0.368-0.305c-1.354-1.109-1.569-3.134-0.484-4.517
	l2.111-2.689c1.086-1.385,3.064-1.607,4.417-0.495l0.37,0.305c1.353,1.111,1.569,3.134,0.482,4.518L28.277,54.844z"/>
<path fill="#D3AB6C" d="M49.458,71.98c-1.303,1.662-3.458,2.107-4.811,0.997l-0.368-0.306c-1.354-1.109-1.394-3.357-0.09-5.02
	l2.532-3.227c1.303-1.659,3.458-2.106,4.811-0.995l0.369,0.304c1.354,1.112,1.395,3.36,0.09,5.021L49.458,71.98z"/>
<path fill="#D3AB6C" d="M34.32,62.847c-0.852,1.175-2.667,1.274-4.052,0.224l-1.02-0.773c-1.386-1.051-1.819-2.856-0.967-4.031
	l7.266-10.021c0.852-1.176,2.666-1.276,4.052-0.226l1.02,0.775c1.385,1.051,1.818,2.857,0.965,4.031L34.32,62.847z"/>
<path fill="#D3AB6C" d="M41.146,68.592c-0.716,0.986-2.324,1.009-3.592,0.046l-0.934-0.708c-1.267-0.963-1.716-2.543-1-3.53
	l6.104-8.419c0.716-0.987,2.053-1.017,3.592-0.047c1.539,0.971,3.047,2.736,1.933,4.24L41.146,68.592z"/>
<path fill="#E5BC89" d="M73.114,10.935L87.144,0c0,0,3.747,1.539,9.742,9.726c6.218,8.49,8.114,16.945,8.114,16.945l-10.764,9.453
	L73.114,10.935z"/>
<path fill="#FFFFFF" d="M98.857,26.831c-0.07,1.543-1.35,2.735-2.857,2.664c-1.509-0.071-2.675-1.38-2.604-2.922
	c0.068-1.542,1.349-2.735,2.856-2.665C97.761,23.98,98.926,25.289,98.857,26.831z"/>
<path fill="#FFFFFF" d="M11.663,30.39c-0.053,1.543-1.317,2.751-2.826,2.698C7.328,33.034,6.147,31.74,6.2,30.195
	c0.052-1.542,1.317-2.75,2.826-2.697C10.535,27.552,11.715,28.846,11.663,30.39z"/>
<path fill="#D3AB6C" d="M57.013,24.531c0,0-0.209-0.006-0.375-0.007c-1.736-0.015-5.912,0.1-7.17,1.463
	c-0.339,0.367-0.787,0.875-1.293,1.451c-1.454,1.651-3.445,3.913-4.683,4.887c-0.125,0.098-0.281,0.242-0.463,0.412
	c-0.686,0.635-1.832,1.699-3.082,1.689c-0.602-0.005-1.167-0.248-1.73-0.743c-1.967-1.728-1.105-3.67-0.002-5.344
	c2.425-3.679,8.898-10.754,8.964-10.826c2.557-2.644,14.591-0.943,17.259-0.921c0.649,0.005,1.034,0.02,1.037,0.02l0.084,0.004
	l6.809-2.874l18.227,21.851l-8.702,7.563L57.013,24.531z"/>
</svg>
