<?xml version="1.0" encoding="utf-8"?>
<!-- Generator: Adobe Illustrator 16.0.0, SVG Export Plug-In . SVG Version: 6.00 Build 0)  -->
<!DOCTYPE svg PUBLIC "-//W3C//DTD SVG 1.1//EN" "http://www.w3.org/Graphics/SVG/1.1/DTD/svg11.dtd">
<svg version="1.1" id="Layer_1" xmlns="http://www.w3.org/2000/svg" xmlns:xlink="http://www.w3.org/1999/xlink" x="0px" y="0px"
	 width="105px" height="115px" viewBox="0 0 105 115" enable-background="new 0 0 105 115" xml:space="preserve">
<g>
	
		<path fill="none" stroke="#CA9F45" stroke-width="1.1361" stroke-linecap="round" stroke-linejoin="round" stroke-miterlimit="10" d="
		M72.321,19.524c0,2.023,0,3.582,4.798,3.661l7.739,6.535l-2.771-6.535h7.018c2.021,0,3.661-1.638,3.661-3.661v-6.408
		c0-2.021-1.64-3.661-3.661-3.661H75.982c-2.021,0-3.661,1.64-3.661,3.661V19.524z"/>
</g>
<g>
	<path fill="#D3AB6C" d="M98.569,43.103c0,5.334-4.324,9.66-9.655,9.66c-5.336,0-9.661-4.325-9.661-9.66
		c0-5.335,4.325-9.658,9.661-9.658C94.245,33.444,98.569,37.767,98.569,43.103z"/>
	<path fill="#D3AB6C" d="M99.466,56.974H80.143c-0.786,0-1.441,0.073-2.028,0.188c-0.723,0.056-1.33,0.192-1.646,0.418L64.65,66.126
		l-6.38-11.295c-0.659-1.095-2.531-1.173-4.189-0.18c-1.657,0.993-2.468,2.687-1.811,3.78l8.089,14.126
		c0.146,0.313,0.314,0.624,0.532,0.927c1.213,1.681,3.092,1.956,4.204,1.15l9.931-6.902v33.875c0,1.764,1.349,1.643,5.116,1.643
		h19.323c3.767,0,5.115,0.121,5.115-1.643V60.164C104.581,58.402,103.232,56.974,99.466,56.974z"/>
</g>
<circle fill="#D3AB6C" cx="11.589" cy="57.568" r="9.658"/>
<path fill="#D3AB6C" d="M5.105,94.162c0,1.307,0.994,2.364,2.221,2.364h13.846c1.226,0,2.22-1.058,2.22-2.364
	c0,0-0.593-9.276-2.146-15.805c-0.89-3.747-1.893-9.188-10.285-9.188c-2.771,0-5.856,1.51-5.856,4.8V94.162z"/>
<path fill="#BB8F45" d="M67.091,101.297c0,1.08-0.341,1.955-0.761,1.955H0.841c-0.42,0-0.761-0.875-0.761-1.955l0,0
	c0-1.08,0.34-1.953,0.761-1.953H66.33C66.75,99.344,67.091,100.217,67.091,101.297L67.091,101.297z"/>
<path fill="#C99E48" stroke="#FFFFFF" stroke-width="1.1361" stroke-miterlimit="10" d="M30.357,91.364H17.328l-1.872-15.08
	c-0.873-4.299-1.41-5.077-4.362-4.844c-2.949,0.233-3.452,2.626-3.306,3.763l1.558,20.146c0.021,0.166,0.091,0.317,0.184,0.46
	c0.28,1.224,0.974,2.096,1.792,2.096h19.035c1.063,0,1.926-1.466,1.926-3.271C32.284,92.828,31.42,91.364,30.357,91.364z"/>
<g>
	<path fill="#D3AB6C" d="M34.538,91.506l0.738,4.064c0,0.506,0.509,0.916,1.136,0.916h4.682c0.627,0,1.136-0.41,1.136-0.916
		l0.738-4.064H34.538z"/>
	<path fill="#D3AB6C" d="M43.166,90.428l0.201-1.11c0-0.506-0.509-0.915-1.136-0.915h-6.954c-0.627,0-1.137,0.409-1.137,0.915
		l0.201,1.11H43.166z"/>
</g>
<g>
	<polygon fill="#AC7A3D" points="51.105,11.432 65.736,21.858 65.736,18.737 55.486,11.432 	"/>
	<polygon fill="#AC7A3D" points="46.115,11.432 46.115,13.496 65.736,27.477 65.736,24.35 47.606,11.432 	"/>
	<polygon fill="#AC7A3D" points="46.115,19.118 62.872,31.054 65.736,31.054 65.736,29.97 46.115,15.992 	"/>
	<polygon fill="#AC7A3D" points="46.115,24.731 54.987,31.054 59.375,31.054 46.115,21.607 	"/>
	<polygon fill="#AC7A3D" points="46.115,30.997 46.195,31.054 50.577,31.054 46.115,27.875 	"/>
	<polygon fill="#AC7A3D" points="63.374,11.432 58.987,11.432 65.736,16.242 65.736,13.115 	"/>
</g>
<g>
	<polygon fill="#BB8F45" points="38.926,30.82 38.774,11.432 36.26,11.432 36.415,30.82 	"/>
	<polygon fill="#BB8F45" points="34.407,30.82 34.256,11.432 31.738,11.432 31.894,30.82 	"/>
	<polygon fill="#BB8F45" points="29.885,30.82 29.729,11.432 27.217,11.432 27.37,30.82 	"/>
	<polygon fill="#BB8F45" points="23.35,30.82 25.365,30.82 25.212,11.432 23.35,11.432 	"/>
	<polygon fill="#BB8F45" points="42.74,30.82 42.74,11.432 40.779,11.432 40.933,30.82 	"/>
</g>
<line fill="none" stroke="#CA9F45" stroke-width="1.1361" stroke-linecap="round" stroke-linejoin="round" stroke-miterlimit="10" x1="76.338" y1="14.007" x2="88.912" y2="14.007"/>
<line fill="none" stroke="#CA9F45" stroke-width="1.1361" stroke-linecap="round" stroke-linejoin="round" stroke-miterlimit="10" x1="76.338" y1="17.38" x2="82.624" y2="17.38"/>
<g>
	<rect x="0.354" y="11.432" fill="#BB8F45" width="9.811" height="9.812"/>
	<rect x="10.165" y="21.244" fill="#BB8F45" width="9.81" height="9.81"/>
	<rect x="0.354" y="21.244" fill="#ECDEC9" width="9.811" height="9.81"/>
	<rect x="10.165" y="11.432" fill="#ECDEC9" width="9.81" height="9.81"/>
</g>
</svg>
