<?xml version="1.0" encoding="utf-8"?>
<!-- Generator: Adobe Illustrator 16.0.0, SVG Export Plug-In . SVG Version: 6.00 Build 0)  -->
<!DOCTYPE svg PUBLIC "-//W3C//DTD SVG 1.1//EN" "http://www.w3.org/Graphics/SVG/1.1/DTD/svg11.dtd">
<svg version="1.1" id="Layer_1" xmlns="http://www.w3.org/2000/svg" xmlns:xlink="http://www.w3.org/1999/xlink" x="0px" y="0px"
	 width="105px" height="115px" viewBox="0 0 105 115" enable-background="new 0 0 105 115" xml:space="preserve">
<rect x="9.496" y="76.796" fill="#AC7A3D" width="10.534" height="34.884"/>
<polygon fill="#D3AB6C" points="82.69,1.972 79.849,1.442 79.849,1.443 74.036,0.36 73.489,3.293 76.865,3.921 50.053,23.233 
	39.67,12.857 39.65,12.87 39.636,12.851 6.108,40.484 8.003,43.337 38.756,17.673 49.154,28.071 78.87,6.699 78.187,10.374 
	81.025,10.904 82.145,4.905 82.145,4.905 82.69,1.973 82.69,1.973 "/>
<path fill="#BB8F45" d="M62.862,33.913c-13.665-2.183-26.514,7.125-28.699,20.79c-2.184,13.667,7.124,26.515,20.788,28.7
	c13.667,2.184,26.516-7.122,28.7-20.79C85.837,48.948,76.529,36.099,62.862,33.913z M55.465,80.184
	c-11.886-1.9-19.984-13.079-18.083-24.967C39.281,43.33,50.46,35.231,62.347,37.132c11.888,1.901,19.987,13.078,18.088,24.965
	C78.532,73.985,67.355,82.084,55.465,80.184z"/>
<path fill="#D3AB6C" d="M63.229,31.621c-14.931-2.387-28.971,7.782-31.358,22.715c-2.388,14.933,7.781,28.973,22.714,31.358
	c14.932,2.387,28.972-7.783,31.358-22.716C88.331,48.049,78.16,34.007,63.229,31.621z M55.147,82.178
	c-12.989-2.075-21.836-14.29-19.76-27.279s14.29-21.837,27.279-19.761c12.989,2.077,21.837,14.29,19.761,27.279
	C80.352,75.407,68.138,84.254,55.147,82.178z"/>
<g>
	<path fill="#BB8F45" d="M95.216,104.594L77.177,79.651c-0.889-1.229-3.056-1.177-4.84,0.117c-1.781,1.291-2.507,3.332-1.618,4.56
		l18.038,24.943L95.216,104.594z"/>
	<path fill="#BB8F45" d="M97.16,107.28l-6.456,4.677l1.56,2.154c0.889,1.228,3.055,1.179,4.839-0.113
		c1.783-1.293,2.509-3.336,1.618-4.563L97.16,107.28z"/>
</g>
<path fill="none" stroke="#CBC9C5" stroke-width="1.3267" stroke-linecap="round" stroke-linejoin="round" stroke-miterlimit="10" d="
	M70.097,74.352c3.413-2.501,6.082-6.081,7.427-10.433c1.011-3.266,1.158-6.593,0.575-9.736"/>
<path fill="none" stroke="#CBC9C5" stroke-width="1.3267" stroke-linecap="round" stroke-linejoin="round" stroke-miterlimit="10" d="
	M43.787,46.025c-0.943,1.273-1.751,2.681-2.397,4.207c-0.77,1.824-1.255,3.698-1.476,5.57"/>
<g>
	<path fill="#D3AB6C" d="M59.261,87.648L59.261,87.648c-2.129,0-4.246-0.241-6.33-0.702v24.733h11.94V87.096
		C63.048,87.445,61.176,87.648,59.261,87.648z"/>
</g>
<g>
	<path fill="#BB8F45" d="M33.276,71.979c-1.259-2.387-2.148-4.897-2.71-7.464v47.164h10.94V81.651
		C38.133,79.096,35.311,75.835,33.276,71.979z"/>
</g>
<path fill="#BB8F45" d="M44.341,72.274V58.271h-5.564C38.781,63.511,40.823,68.515,44.341,72.274z"/>
<path fill="#D3AB6C" d="M49.313,76.277c1.214,0.646,2.512,1.185,3.89,1.592c1.973,0.584,4.01,0.88,6.054,0.88
	c2.766,0,5.417-0.525,7.846-1.485V43.62H49.313V76.277z"/>
</svg>
