<?xml version="1.0" encoding="utf-8"?>
<!-- Generator: Adobe Illustrator 16.0.0, SVG Export Plug-In . SVG Version: 6.00 Build 0)  -->
<!DOCTYPE svg PUBLIC "-//W3C//DTD SVG 1.1//EN" "http://www.w3.org/Graphics/SVG/1.1/DTD/svg11.dtd">
<svg version="1.1" id="Layer_1" xmlns="http://www.w3.org/2000/svg" xmlns:xlink="http://www.w3.org/1999/xlink" x="0px" y="0px"
	 width="105px" height="115px" viewBox="0 0 105 115" enable-background="new 0 0 105 115" xml:space="preserve">
<g>
	<path fill="#D3AB6C" d="M52.377,1.14c-22.381,0-40.525,18.102-40.525,40.433c0,22.331,18.145,40.433,40.525,40.433
		c22.383,0,40.526-18.102,40.526-40.433C92.903,19.242,74.76,1.14,52.377,1.14z M52.377,71.666
		c-16.658,0-30.163-13.474-30.163-30.094s13.505-30.093,30.163-30.093c16.66,0,30.164,13.473,30.164,30.093
		S69.037,71.666,52.377,71.666z"/>
	<path fill="#D3AB6C" d="M52.363,15.144c-14.622,0-26.475,11.827-26.475,26.417c0,14.588,11.853,26.413,26.475,26.413
		c14.623,0,26.476-11.825,26.476-26.413C78.839,26.971,66.986,15.144,52.363,15.144z M38.689,55.049c-0.369,0-4.44,0-4.44,0
		s-2.799-6.092-2.591-13.662c0.189-6.917,1.11-6.831,1.11-6.831h5.921C39.985,36.957,42.02,46.557,38.689,55.049z M71.668,48.081
		c-0.498,2.576-1.318,2.468-6.592,2.514c-0.115,0.022-0.272,0.277,0.069,0.251c4.581-0.228,4.211,0.396,4.117,1.942
		c-0.146,2.442-2.451,2.4-10.315,2.861c-4.988,0.292-8.698-0.877-11.561-2.631c-0.625-0.498-1.672-0.829-2.287-0.991
		c-0.294-0.078-0.45-0.274-0.391-0.577c0.306-1.554,1.14-6.953-0.098-14.679c-0.106-0.658,1.666-2.031,2.96-3.324
		c1.296-1.292,3.64-3.037,5.469-4.722c2.488-2.293,0.823-7.647,3.229-7.462c2.406,0.184,2.591,2.56,2.59,5.354
		c-0.002,4.062-2.404,5.909-2.404,7.2c0,1.292,1.667,1.801,6.476,1.663c2.945-0.086,9.147,0.145,9.247,2.215
		c0.177,3.671-0.74,2.261-5.864,2.467c-0.647,0.026-0.577,0.23-0.289,0.229c4.48-0.042,7.005-0.188,6.708,2.773
		c-0.301,3-1.67,2.235-6.431,2.465c-0.512,0.026-0.508,0.306-0.049,0.299c0.457-0.006,2.773-0.162,3.704-0.156
		C70.845,45.779,72.063,46.05,71.668,48.081z"/>
	<path fill="#BB8F45" d="M11.852,97.329L22.769,79.79c0,0,4.583,4.324,7.773,6.092C35.538,88.65,42.2,89.39,42.2,89.39
		l-12.955,19.939L23.88,98.437L11.852,97.329z"/>
	<path fill="#BB8F45" d="M92.903,96.222l-10.918-17.54c0,0-4.58,4.325-7.771,6.093c-4.997,2.769-11.658,3.508-11.658,3.508
		l12.952,19.939l5.367-10.893L92.903,96.222z"/>
</g>
</svg>
