<?xml version="1.0" encoding="utf-8"?>
<!-- Generator: Adobe Illustrator 16.0.0, SVG Export Plug-In . SVG Version: 6.00 Build 0)  -->
<!DOCTYPE svg PUBLIC "-//W3C//DTD SVG 1.1//EN" "http://www.w3.org/Graphics/SVG/1.1/DTD/svg11.dtd">
<svg version="1.1" id="Layer_1" xmlns="http://www.w3.org/2000/svg" xmlns:xlink="http://www.w3.org/1999/xlink" x="0px" y="0px"
	 width="105px" height="115px" viewBox="0 0 105 115" enable-background="new 0 0 105 115" xml:space="preserve">
<g>
	<path fill="#D3AB6C" d="M44.419,10.67c-3.39,7.542-6.187,18.436-6.187,30.552c0,8.429,0.921,16.267,2.503,22.799h25.013
		c1.581-6.532,2.503-14.37,2.503-22.799c0-12.116-2.792-23.01-6.181-30.552H44.419z"/>
	<ellipse fill="#FFFFFF" cx="53.604" cy="31.819" rx="10.738" ry="11.839"/>
	<path fill="#BA8A4A" d="M68.209,44.479c-0.002,0.003-0.003,0.006-0.005,0.008C68,51.652,67.129,58.303,65.76,63.97
		c0.015,0.022,0.025,0.039,0.025,0.039s9.338,5.247,9.329,4.812C74.888,55.872,68.248,44.415,68.209,44.479z"/>
	<path fill="#BA8A4A" d="M38.333,44.479c0.003,0.003,0.003,0.006,0.004,0.008c0.205,7.165,1.076,13.815,2.445,19.482
		c-0.015,0.022-0.024,0.039-0.024,0.039s-9.339,5.247-9.331,4.812C31.655,55.872,38.295,44.415,38.333,44.479z"/>
	<path fill="#BA8A4A" d="M53.604,19.979c-5.931,0-10.738,5.301-10.738,11.84c0,6.539,4.808,11.839,10.738,11.839
		s10.738-5.301,10.738-11.839C64.342,25.28,59.534,19.979,53.604,19.979z M53.604,41.076c-4.528,0-8.212-4.153-8.212-9.256
		c0-5.104,3.684-9.258,8.212-9.258s8.212,4.154,8.212,9.258C61.815,36.922,58.132,41.076,53.604,41.076z"/>
	<path fill="#BA8A4A" d="M44.931,9.566h16.627C58.704,3.595,55.515,0,53.242,0C50.977,0,47.788,3.595,44.931,9.566z"/>
	<path fill="#D3AB6C" d="M64.254,68.821c0.363-1.094,0.707-2.238,1.027-3.434H41.033c0.321,1.195,0.664,2.34,1.027,3.434H64.254z"/>
	<rect x="52.599" y="45.641" fill="#BA8A4A" width="1.437" height="23.056"/>
	<path fill="#BA8A4A" d="M44,70.539c0.596,8.395,1.693,15.702,3.124,21.125c0.385,1.466,1.851-17.026,2.282-15.853
		c1.416,3.855,2.002,25.879,3.752,25.879c1.726,0,2.191-21.758,3.594-25.511c0.467-1.251,2.064,16.933,2.48,15.342
		c1.41-5.407,2.493-12.66,3.084-20.982H44z"/>
	<g>
		<g>
			<g>
				<rect x="16.192" y="35.829" fill="#D3AB6C" width="0.958" height="30.171"/>
			</g>
			<g>
				<rect x="16.192" y="68.944" fill="#D3AB6C" width="0.958" height="5.15"/>
			</g>
			<g>
				<rect x="16.192" y="77.636" fill="#D3AB6C" width="0.958" height="3.219"/>
			</g>
		</g>
	</g>
	<g>
		<g>
			<g>
				<rect x="93.796" y="35.829" fill="#D3AB6C" width="0.958" height="30.171"/>
			</g>
			<g>
				<rect x="93.796" y="68.944" fill="#D3AB6C" width="0.958" height="5.15"/>
			</g>
			<g>
				<rect x="93.796" y="77.636" fill="#D3AB6C" width="0.958" height="3.219"/>
			</g>
		</g>
	</g>
	<g>
		<g>
			<g>
				<rect x="28.648" y="20.008" fill="#D3AB6C" width="0.958" height="16.972"/>
			</g>
			<g>
				<rect x="28.648" y="39.695" fill="#D3AB6C" width="0.958" height="4.751"/>
			</g>
			<g>
				<rect x="28.648" y="47.714" fill="#D3AB6C" width="0.958" height="2.97"/>
			</g>
		</g>
	</g>
	<g>
		<g>
			<g>
				<rect x="82.33" y="25.895" fill="#D3AB6C" width="0.897" height="16.158"/>
			</g>
			<g>
				<rect x="82.33" y="44.638" fill="#D3AB6C" width="0.897" height="4.524"/>
			</g>
			<g>
				<rect x="82.33" y="52.273" fill="#D3AB6C" width="0.897" height="2.827"/>
			</g>
		</g>
	</g>
	<path fill="#D3AB6C" d="M50.694,113.095c0.329-0.814,0.506-1.683,0.506-2.585c0-4.64-4.682-8.403-10.459-8.403
		c-0.295,0-0.587,0.013-0.875,0.031c-1.48-4.319-6.031-7.464-11.418-7.464c-4.808,0-8.948,2.507-10.835,6.116
		c-1.507-0.605-3.179-0.945-4.943-0.945c-6.587,0-11.926,4.703-11.926,10.503c0,0.952,0.146,1.87,0.416,2.747H50.694z"/>
	<path fill="#D3AB6C" d="M103.683,113.095c0.838-1.439,1.317-3.076,1.317-4.814c0-5.73-5.156-10.375-11.517-10.375
		c-0.262,0-0.52,0.011-0.776,0.026c-1.524-5.039-6.74-8.753-12.941-8.753c-7.396,0-13.395,5.282-13.395,11.796
		c0,0.906,0.12,1.785,0.339,2.632c-1.267-0.346-2.613-0.53-4.009-0.53c-6.748,0-12.344,4.337-13.396,10.019H103.683z"/>
</g>
</svg>
