<?xml version="1.0" encoding="utf-8"?>
<!-- Generator: Adobe Illustrator 16.0.0, SVG Export Plug-In . SVG Version: 6.00 Build 0)  -->
<!DOCTYPE svg PUBLIC "-//W3C//DTD SVG 1.1//EN" "http://www.w3.org/Graphics/SVG/1.1/DTD/svg11.dtd">
<svg version="1.1" id="Layer_1" xmlns="http://www.w3.org/2000/svg" xmlns:xlink="http://www.w3.org/1999/xlink" x="0px" y="0px"
	 width="105px" height="115px" viewBox="0 0 105 115" enable-background="new 0 0 105 115" xml:space="preserve">
<g>
	<g>
		<g>
			<path fill="#D3AB6C" d="M62.693,79.402H2.542c-0.668,0-1.21-0.543-1.21-1.211v-75.7c0-0.668,0.542-1.21,1.21-1.21h76.399
				c0.67,0,1.211,0.542,1.211,1.21v11.58c0,0.668-0.541,1.21-1.211,1.21c-0.668,0-1.211-0.542-1.211-1.21V3.702H3.753V76.98h58.94
				c0.668,0,1.211,0.541,1.211,1.211C63.904,78.859,63.361,79.402,62.693,79.402z"/>
		</g>
	</g>
	<path fill="#D3AB6C" d="M94.77,29.091c0,4.813-3.902,8.716-8.717,8.716s-8.717-3.903-8.717-8.716c0-4.816,3.902-8.718,8.717-8.718
		S94.77,24.274,94.77,29.091z"/>
	<path fill="#D3AB6C" d="M95.578,41.607H78.139c-0.711,0-1.303,0.068-1.832,0.171c-0.65,0.051-1.201,0.174-1.484,0.378
		l-10.666,7.713l-5.758-10.194c-0.596-0.988-2.287-1.059-3.781-0.162c-1.496,0.896-2.229,2.423-1.635,3.411l7.301,12.749
		c0.131,0.284,0.285,0.564,0.479,0.836c1.096,1.518,2.791,1.766,3.795,1.039l8.965-6.229v11.208c0,1.59,1.217,1.482,4.617,1.482
		h17.439c3.398,0,4.615,0.107,4.615-1.482V44.488C100.193,42.897,98.977,41.607,95.578,41.607z"/>
	<path fill="#BB8F45" d="M56.186,43.155c0.207,0.125,0.273,0.393,0.15,0.599l0,0c-0.125,0.206-0.395,0.275-0.6,0.149L36.676,32.458
		c-0.205-0.123-0.273-0.391-0.148-0.597l0,0c0.125-0.208,0.392-0.275,0.599-0.15L56.186,43.155z"/>
	<path fill="#BB8F45" d="M104.561,69.594c-0.979,2.07-1.756,3.93-3.93,3.93H69.188c-2.172,0-2.623-1.213-3.932-3.93
		c-0.76-1.58-1.035-2.533,1.135-2.533h37.035C105.598,67.061,105.041,68.578,104.561,69.594z"/>
	<path fill="#BB8F45" d="M101.418,86.102c0,0.305-0.625,0.551-1.398,0.551H70.205c-0.77,0-1.396-0.246-1.396-0.551v-8.912
		c0-0.305,0.627-0.551,1.396-0.551h29.814c0.773,0,1.398,0.246,1.398,0.551V86.102z"/>
	<rect x="12.675" y="14.448" fill="#BB8F45" width="56.133" height="2.795"/>
	<rect x="12.675" y="22.135" fill="#BB8F45" width="56.133" height="2.794"/>
	<rect x="12.675" y="29.421" fill="#BB8F45" width="15.838" height="2.795"/>
</g>
</svg>
