<?xml version="1.0" encoding="utf-8"?>
<!-- Generator: Adobe Illustrator 16.0.0, SVG Export Plug-In . SVG Version: 6.00 Build 0)  -->
<!DOCTYPE svg PUBLIC "-//W3C//DTD SVG 1.1//EN" "http://www.w3.org/Graphics/SVG/1.1/DTD/svg11.dtd">
<svg version="1.1" id="Layer_1" xmlns="http://www.w3.org/2000/svg" xmlns:xlink="http://www.w3.org/1999/xlink" x="0px" y="0px"
	 width="380px" height="315px" viewBox="0 0 380 315" enable-background="new 0 0 380 315" xml:space="preserve">
<path fill="none" stroke="#CB4D49" stroke-width="2.8469" stroke-miterlimit="10" d="M48.802,233.26
	c29.997-3.243,144.65-7.89,239.641-103.59"/>
<g>
	<g>
		<path fill="#FFFFFF" stroke="#B2ADAD" stroke-width="2.3053" stroke-linecap="round" stroke-miterlimit="10" d="M155.845,83.844
			c-1.28-2.562-0.377-14.438,5.779-26.617c6.147-12.179,11.926-20.591,16.572-25.239c4.646-4.646,8.912-9.792,9.165-10.545
			c0.253-0.753,1.634-3.139,4.772-4.143c3.135-1.007,10.926-6.91,11.55-7.41c0.63-0.5,3.268-3.389,8.418-1.004
			c5.146,2.384,7.654,0.75,8.161,1.63c0.499,0.881,4.892,9.545,5.392,11.299c0.507,1.761,1.761,2.642,0.634,3.769
			c-1.134,1.13-4.11,3.546-4.898,3.768c-0.726,0.203,0.627,0.127,0.503,1.381c-0.124,1.254-0.881,2.762-4.269,3.262
			c-3.392,0.503-4.522,1.134-6.403,0.379c-2.077-0.829-1.759-2.26-1.759-2.26s-1.629,1.508-5.271,0.627
			c-3.646-0.875-4.775-1.758-5.652-1.758c-0.882,0-9.416,8.915-7.662,24.61c3.768-2.008,11.426-3.642,16.575-2.889
			c5.15,0.754,11.557,3.142,13.061,5.776c1.632-2.384,12.718-11.955,21.848-11.426c10.798,0.627,16.322,4.646,19.461,8.792
			c0.628-2.008,12.806-10.046,12.806-10.046s7.66,32.768-4.019,56.757c-11.673,23.979-34.276,23.225-34.276,23.225
			s-18.204-18.709-20.089-33.271c-2.512-0.379-15.697,2.001-23.481,1.122c-7.784-0.875-20.34-5.771-21.974-6.398
			C169.155,86.605,157.102,86.355,155.845,83.844z"/>
		<path fill="none" stroke="#B2ADAD" stroke-width="2.3053" stroke-linecap="round" stroke-miterlimit="10" d="M190.375,27.091
			c0,0,6.908,5.65,10.045,2.134c3.135-3.515,5.523-6.656,5.898-7.41c0.504-0.374-3.013-2.761-3.013-2.761"/>
		<path fill="none" stroke="#B2ADAD" stroke-width="2.3053" stroke-linecap="round" stroke-miterlimit="10" d="M211.186,16.197
			c0.377,1.445,1.291,3.861,1.789,4.738c0.507,0.88,0.249,2.387-2.255,4.146c-2.515,1.757-4.4,3.265-6.656,2.261
			c-0.774-0.342-1.179-0.599-1.378-0.789"/>
		<path fill="none" stroke="#B2ADAD" stroke-width="2.3053" stroke-linecap="round" stroke-miterlimit="10" d="M215.611,16.292
			c0,0,2.889,5.649,2.889,6.53c0,0.88-4.269,4.737-4.994,5.586c-0.172,0.202-4.424,1.07-5.047,0.316
			c-0.627-0.753-0.627-1.76-0.627-1.76"/>
		<path fill="none" stroke="#B2ADAD" stroke-width="2.3053" stroke-linecap="round" stroke-miterlimit="10" d="M220.008,16.793
			c0,0,3.645,6.529,3.143,6.91c-0.509,0.373-3.834,5.051-4.679,5.301c-0.849,0.253-6.312,0.723-4.431-1.162"/>
		<path fill="#FFFFFF" stroke="#B2ADAD" stroke-width="2.3053" stroke-linecap="round" stroke-miterlimit="10" d="M219.755,27.877
			c0,0-1.006,1.095-0.501,1.349c1.156,0.577,2.007,0.126,2.007,0.126"/>
		<path fill="#FFFFFF" stroke="#B2ADAD" stroke-width="2.3053" stroke-linecap="round" stroke-miterlimit="10" d="M215.846,29.314
			c0,0-6.237,0.215-6.385,2.8"/>
	</g>
	<path fill="#B2ADAD" d="M216.466,65.41c0.051-1.944,3.104-6.153,3.608-6.843c0.501-0.69,2.42-2.955,6.941-5.811
		c-2.011,2.134-3.913,4.021-5.551,5.906C219.836,60.546,216.429,66.917,216.466,65.41z"/>
	<path fill="#B2ADAD" d="M181.334,67.019c0.441-1.539,4.431-8.049,9.152-11.673c2.42-1.849,6.856-2.046,8.745-1.919
		c-6.918,1.536-8.25,3.73-11.145,6.245C185.198,62.179,181.148,67.677,181.334,67.019z"/>
	<g>
		<path fill="#B2ADAD" d="M182.778,79.848"/>
		<path fill="#B2ADAD" d="M235.452,96.654c-7.156-11.803-14.317-22.852-15.19-22.476c-1.157,0.495-3.142,1.879-5.023,2.882
			c-4.56,2.432-11.204,6.527-21.098,5.529c-5.893-0.595-9.319-1.96-11.362-2.742c1.083,1.817,10.169,4.772,14.629,4.5
			c6.148-0.374,10.043-1.381,10.674-1.507c0.624-0.126,6.4,7.911,22.976,14.06c0.503,0.507,5.904,7.658,7.16,9.545
			c1.255,1.882,11.175,11.046,11.175,11.046s4.144-2.008,4.017-2.382C253.281,114.729,242.419,108.15,235.452,96.654z
			 M225.03,91.001c-6.023-2.258-15.948-8.287-14.566-9.168c0,0,6.11-3.699,8.485-5.301c0.932-0.63,1.125-0.323,1.292-0.104
			c2.389,3.145,5.755,8.547,6.8,10.431C228.923,90.25,231.057,93.265,225.03,91.001z"/>
	</g>
</g>
<circle fill="#CB4D49" cx="127.383" cy="220.335" r="8.107"/>
<circle fill="#CB4D49" cx="262.23" cy="152.907" r="8.108"/>
<polygon fill="#CB4D49" points="299.099,117.696 289.971,140.709 288.111,130.563 277.123,128.787 "/>
<g>
	<g>
		<path fill="#FFFFFF" stroke="#B2ADAD" stroke-width="1.7135" stroke-linecap="round" stroke-miterlimit="10" d="M157.702,173.474
			c0.773-1.546,0.229-8.703-3.483-16.043c-3.706-7.34-7.185-12.414-9.988-15.213c-2.8-2.799-5.371-5.903-5.523-6.353
			c-0.151-0.457-0.982-1.894-2.878-2.501c-1.887-0.602-6.581-4.162-6.96-4.465c-0.377-0.298-1.968-2.039-5.071-0.602
			c-3.103,1.437-4.614,0.45-4.918,0.981c-0.301,0.532-2.948,5.751-3.251,6.809c-0.305,1.064-1.062,1.59-0.378,2.274
			c0.681,0.677,2.477,2.134,2.949,2.268c0.44,0.126-0.377,0.076-0.301,0.836c0.072,0.754,0.529,1.666,2.571,1.963
			c2.043,0.304,2.724,0.684,3.86,0.228c1.251-0.5,1.057-1.361,1.057-1.361s0.982,0.912,3.18,0.379
			c2.195-0.531,2.876-1.057,3.405-1.057s5.678,5.372,4.617,14.828c-6.582-2.451-16.683,0.214-17.592,1.805
			c-6.115-7.449-23.273-4.149-25.164-1.653c-0.966-2.958-7.717-6.049-7.717-6.049s-4.617,19.748,2.419,34.201
			c7.037,14.453,20.661,14.003,20.661,14.003s10.972-11.28,12.106-20.057c1.514-0.229,9.459,1.208,14.15,0.677
			c4.696-0.525,12.262-3.477,13.247-3.856C149.681,175.14,156.945,174.987,157.702,173.474z"/>
		<path fill="none" stroke="#B2ADAD" stroke-width="1.7135" stroke-linecap="round" stroke-miterlimit="10" d="M136.894,139.266
			c0,0-4.165,3.407-6.055,1.286c-1.893-2.116-3.332-4.009-3.556-4.465c-0.305-0.222,1.814-1.666,1.814-1.666"/>
		<path fill="none" stroke="#B2ADAD" stroke-width="1.7135" stroke-linecap="round" stroke-miterlimit="10" d="M124.353,132.704
			c-0.229,0.867-0.78,2.324-1.083,2.857c-0.305,0.525-0.152,1.437,1.361,2.495c1.514,1.057,2.651,1.969,4.013,1.362
			c0.465-0.21,0.709-0.362,0.829-0.476"/>
		<path fill="none" stroke="#B2ADAD" stroke-width="1.7135" stroke-linecap="round" stroke-miterlimit="10" d="M121.68,132.761
			c0,0-1.742,3.401-1.742,3.933c0,0.532,2.575,2.857,3.011,3.37c0.104,0.12,2.667,0.64,3.043,0.19
			c0.376-0.456,0.376-1.064,0.376-1.064"/>
		<path fill="none" stroke="#B2ADAD" stroke-width="1.7135" stroke-linecap="round" stroke-miterlimit="10" d="M119.033,133.058
			c0,0-2.195,3.94-1.891,4.168c0.3,0.228,2.302,3.041,2.818,3.192c0.51,0.151,3.804,0.437,2.667-0.697"/>
		<path fill="#FFFFFF" stroke="#B2ADAD" stroke-width="1.7135" stroke-linecap="round" stroke-miterlimit="10" d="M119.185,139.74
			c0,0,0.605,0.665,0.301,0.811c-0.694,0.348-1.209,0.076-1.209,0.076"/>
		<path fill="#FFFFFF" stroke="#B2ADAD" stroke-width="1.7135" stroke-linecap="round" stroke-miterlimit="10" d="M121.541,140.608
			c0,0,3.758,0.126,3.847,1.685"/>
	</g>
	<path fill="#B2ADAD" d="M121.167,162.358c-0.032-1.172-1.869-3.706-2.173-4.124c-0.305-0.417-1.46-1.779-4.184-3.496
		c1.209,1.286,2.359,2.419,3.344,3.554C119.137,159.432,121.186,163.27,121.167,162.358z"/>
	<path fill="#B2ADAD" d="M142.711,162.776c-0.266-0.926-1.621-4.124-4.934-6.284c-1.536-1.006-5.086-1.431-6.223-1.355
		c4.171,0.925,5.896,2.476,7.641,3.99C140.934,160.642,142.825,163.175,142.711,162.776z"/>
	<g>
		<path fill="#B2ADAD" d="M141.473,171.062"/>
		<path fill="#B2ADAD" d="M98.904,192.316c-0.076,0.228,2.42,1.438,2.42,1.438s5.978-5.522,6.735-6.657
			c0.76-1.133,4.012-5.446,4.317-5.758c9.985-3.704,13.465-8.549,13.845-8.474c0.377,0.076,2.725,0.685,6.436,0.912
			c2.685,0.165,8.16-1.621,8.816-2.716c-1.233,0.474-3.3,1.298-6.851,1.652c-5.962,0.601-9.966-1.863-12.715-3.332
			c-1.136-0.603-2.33-1.438-3.027-1.734c-0.529-0.229-4.845,6.429-9.159,13.54C105.529,188.124,98.98,192.088,98.904,192.316z
			 M114.792,175.291c0.633-1.135,2.66-4.396,4.101-6.289c0.102-0.134,0.215-0.316,0.779,0.057c1.431,0.969,5.111,3.199,5.111,3.199
			c0.833,0.532-5.146,4.168-8.775,5.528C112.376,179.154,113.659,177.331,114.792,175.291z"/>
	</g>
</g>
<g>
	<path fill="#CB4D49" d="M114.605,235.958c0,0.659-0.12,1.33-0.361,2.002c-0.24,0.677-0.544,1.336-0.912,1.982
		c-0.374,0.651-0.779,1.278-1.229,1.881c-0.444,0.601-0.887,1.159-1.312,1.665l-1.033,0.791v0.102l1.4-0.272h3.737v2.142h-8.189
		v-1.305c0.31-0.323,0.658-0.703,1.051-1.14c0.386-0.431,0.779-0.895,1.172-1.382c0.398-0.487,0.785-0.987,1.159-1.506
		c0.38-0.52,0.716-1.039,1.014-1.565c0.297-0.526,0.532-1.038,0.709-1.525c0.178-0.494,0.266-0.963,0.266-1.406
		c0-0.533-0.159-0.97-0.462-1.312c-0.304-0.343-0.786-0.514-1.444-0.514c-0.417,0-0.842,0.083-1.279,0.261
		c-0.431,0.177-0.798,0.398-1.096,0.671l-1.014-1.792c0.507-0.413,1.083-0.747,1.723-1.002c0.639-0.253,1.399-0.379,2.268-0.379
		c0.557,0,1.07,0.082,1.533,0.234c0.468,0.157,0.873,0.387,1.209,0.683c0.336,0.299,0.602,0.671,0.798,1.115
		C114.511,234.836,114.605,235.355,114.605,235.958z"/>
	<path fill="#CB4D49" d="M117.176,239.417c0-2.383,0.406-4.156,1.223-5.321c0.817-1.158,1.995-1.741,3.521-1.741
		c1.635,0,2.838,0.575,3.604,1.723c0.761,1.146,1.147,2.932,1.147,5.34c0,2.399-0.413,4.186-1.236,5.351
		c-0.823,1.173-2.001,1.756-3.534,1.756c-1.622,0-2.813-0.615-3.579-1.845C117.557,243.457,117.176,241.702,117.176,239.417z
		 M119.704,239.417c0,1.581,0.171,2.805,0.513,3.672c0.348,0.862,0.912,1.292,1.704,1.292c0.767,0,1.331-0.398,1.685-1.19
		c0.354-0.784,0.532-2.045,0.532-3.773c0-1.566-0.166-2.781-0.501-3.637c-0.341-0.854-0.918-1.286-1.735-1.286
		c-0.779,0-1.337,0.406-1.685,1.21C119.875,236.509,119.704,237.744,119.704,239.417z"/>
	<path fill="#CB4D49" d="M128.21,239.417c0-2.383,0.406-4.156,1.222-5.321c0.817-1.158,1.995-1.741,3.522-1.741
		c1.634,0,2.837,0.575,3.604,1.723c0.76,1.146,1.146,2.932,1.146,5.34c0,2.399-0.412,4.186-1.235,5.351
		c-0.824,1.173-2.002,1.756-3.535,1.756c-1.622,0-2.812-0.615-3.578-1.845C128.59,243.457,128.21,241.702,128.21,239.417z
		 M130.737,239.417c0,1.581,0.171,2.805,0.513,3.672c0.349,0.862,0.912,1.292,1.705,1.292c0.766,0,1.33-0.398,1.685-1.19
		c0.354-0.784,0.532-2.045,0.532-3.773c0-1.566-0.164-2.781-0.5-3.637c-0.342-0.854-0.918-1.286-1.735-1.286
		c-0.779,0-1.336,0.406-1.685,1.21C130.908,236.509,130.737,237.744,130.737,239.417z"/>
	<path fill="#CB4D49" d="M140.484,246.25l4.459-10.488l0.855-0.956l-1.166,0.195h-5.003v-2.375h8.778v0.741l-5.453,12.883H140.484z"
		/>
</g>
<g>
	<path fill="#CB4D49" d="M253.235,177.587c0,0.659-0.119,1.33-0.361,2.002c-0.24,0.677-0.544,1.336-0.911,1.982
		c-0.374,0.651-0.779,1.278-1.229,1.881c-0.443,0.602-0.887,1.158-1.311,1.665l-1.034,0.791v0.102l1.401-0.271h3.736v2.141h-8.19
		v-1.306c0.311-0.323,0.66-0.703,1.053-1.141c0.386-0.429,0.778-0.893,1.171-1.38c0.399-0.487,0.785-0.988,1.159-1.508
		c0.38-0.519,0.716-1.038,1.015-1.564c0.296-0.525,0.532-1.038,0.709-1.525c0.178-0.494,0.267-0.963,0.267-1.406
		c0-0.531-0.16-0.97-0.464-1.311c-0.304-0.343-0.786-0.515-1.443-0.515c-0.418,0-0.843,0.084-1.28,0.261
		c-0.431,0.178-0.798,0.398-1.095,0.671l-1.015-1.792c0.509-0.413,1.084-0.747,1.724-1c0.638-0.255,1.4-0.38,2.267-0.38
		c0.559,0,1.07,0.081,1.534,0.233c0.468,0.158,0.873,0.386,1.209,0.684c0.335,0.298,0.602,0.672,0.799,1.115
		C253.14,176.465,253.235,176.984,253.235,177.587z"/>
	<path fill="#CB4D49" d="M255.808,181.046c0-2.382,0.405-4.155,1.223-5.32c0.816-1.158,1.995-1.741,3.521-1.741
		c1.635,0,2.837,0.574,3.604,1.722c0.761,1.146,1.146,2.932,1.146,5.34c0,2.399-0.412,4.187-1.235,5.352
		c-0.822,1.172-2.001,1.755-3.533,1.755c-1.621,0-2.813-0.615-3.578-1.845C256.188,185.086,255.808,183.332,255.808,181.046z
		 M258.335,181.046c0,1.582,0.169,2.805,0.512,3.672c0.349,0.862,0.913,1.292,1.704,1.292c0.768,0,1.33-0.398,1.686-1.188
		c0.354-0.786,0.531-2.047,0.531-3.775c0-1.565-0.165-2.78-0.5-3.636c-0.343-0.855-0.918-1.286-1.735-1.286
		c-0.779,0-1.337,0.405-1.686,1.21C258.504,178.138,258.335,179.372,258.335,181.046z"/>
	<path fill="#CB4D49" d="M268.026,185.739h2.704v-7.689l0.29-1.324l-0.931,1.152l-1.735,1.186l-1.07-1.457l4.44-3.585h1.418v11.718
		h2.647v2.141h-7.764V185.739z"/>
	<path fill="#CB4D49" d="M279.114,187.88l4.46-10.49l0.854-0.955l-1.165,0.196h-5.004v-2.375h8.778v0.74l-5.452,12.884H279.114z"/>
</g>
<polygon fill="#CB4D49" points="47.621,25.238 56.88,42.934 48.536,38.254 39.355,43.105 "/>
<line fill="none" stroke="#CB4D49" stroke-width="2.8469" stroke-miterlimit="10" x1="48.118" y1="38.105" x2="48.118" y2="280.787"/>
<polygon fill="#CB4D49" points="361.696,278.326 340.378,287.587 346.014,279.242 340.171,270.062 "/>
<line fill="none" stroke="#CB4D49" stroke-width="2.8469" stroke-miterlimit="10" x1="346.195" y1="278.824" x2="47.589" y2="279.166"/>
<g>
	
		<line fill="none" stroke="#CB4D49" stroke-width="2.8469" stroke-miterlimit="10" x1="42.443" y1="112.126" x2="53.793" y2="112.126"/>
	
		<line fill="none" stroke="#CB4D49" stroke-width="2.8469" stroke-miterlimit="10" x1="42.443" y1="158.177" x2="53.793" y2="158.177"/>
	
		<line fill="none" stroke="#CB4D49" stroke-width="2.8469" stroke-miterlimit="10" x1="42.443" y1="204.232" x2="53.793" y2="204.232"/>
	
		<line fill="none" stroke="#CB4D49" stroke-width="2.8469" stroke-miterlimit="10" x1="42.443" y1="250.285" x2="53.793" y2="250.285"/>
</g>
<g>
	
		<line fill="none" stroke="#CB4D49" stroke-width="2.8469" stroke-miterlimit="10" x1="282.275" y1="273.389" x2="282.275" y2="284.739"/>
	
		<line fill="none" stroke="#CB4D49" stroke-width="2.8469" stroke-miterlimit="10" x1="231.54" y1="273.389" x2="231.54" y2="284.739"/>
	
		<line fill="none" stroke="#CB4D49" stroke-width="2.8469" stroke-miterlimit="10" x1="180.804" y1="273.389" x2="180.804" y2="284.739"/>
	
		<line fill="none" stroke="#CB4D49" stroke-width="2.8469" stroke-miterlimit="10" x1="130.065" y1="273.389" x2="130.065" y2="284.739"/>
	
		<line fill="none" stroke="#CB4D49" stroke-width="2.8469" stroke-miterlimit="10" x1="79.33" y1="273.389" x2="79.33" y2="284.739"/>
</g>
<g>
	<g>
		<path fill="#CB4D49" d="M78.209,294.921v-0.565c0-0.201,0.165-0.366,0.368-0.366h2.074c0.203,0,0.368,0.165,0.368,0.366v0.565
			h0.554v-0.565c0-0.505-0.414-0.91-0.921-0.91h-2.074c-0.507,0-0.918,0.405-0.918,0.91v0.565H78.209z"/>
	</g>
	<g>
		<path fill="#CB4D49" d="M84.131,297.53v-1.933c0-0.5-0.412-0.904-0.921-0.904h-7.192c-0.51,0-0.921,0.404-0.921,0.904v1.933
			H84.131z"/>
		<path fill="#CB4D49" d="M80.895,298.043v0.45c0,0.374-0.27,0.684-0.605,0.684h-1.355c-0.335,0-0.605-0.31-0.605-0.684v-0.45
			h-3.233v2.153c0,0.501,0.412,0.906,0.921,0.906h7.192c0.51,0,0.921-0.405,0.921-0.906v-2.153H80.895z"/>
		<path fill="#CB4D49" d="M78.934,298.765h1.355c0.136,0,0.244-0.12,0.244-0.271v-0.45H78.69v0.45
			C78.69,298.645,78.798,298.765,78.934,298.765z"/>
	</g>
</g>
<g>
	<g>
		<path fill="#CB4D49" d="M127.666,293.236v-0.833c0-0.297,0.244-0.541,0.544-0.541h3.062c0.298,0,0.542,0.244,0.542,0.541v0.833
			h0.817v-0.833c0-0.747-0.612-1.346-1.359-1.346h-3.062c-0.75,0-1.359,0.599-1.359,1.346v0.833H127.666z"/>
	</g>
	<g>
		<path fill="#CB4D49" d="M136.409,297.09v-2.853c0-0.738-0.608-1.336-1.358-1.336h-10.619c-0.753,0-1.361,0.598-1.361,1.336v2.853
			H136.409z"/>
		<path fill="#CB4D49" d="M131.63,297.847v0.661c0,0.555-0.396,1.011-0.893,1.011h-2.001c-0.495,0-0.893-0.456-0.893-1.011v-0.661
			h-4.772v3.181c0,0.737,0.608,1.335,1.361,1.335h10.619c0.75,0,1.358-0.598,1.358-1.335v-3.181H131.63z"/>
		<path fill="#CB4D49" d="M128.736,298.911h2.001c0.203,0,0.361-0.177,0.361-0.403v-0.661h-2.72v0.661
			C128.378,298.734,128.536,298.911,128.736,298.911z"/>
	</g>
</g>
<g>
	<g>
		<path fill="#CB4D49" d="M178.179,292.932v-0.976c0-0.347,0.285-0.633,0.637-0.633h3.591c0.349,0,0.633,0.286,0.633,0.633v0.976
			H184v-0.976c0-0.876-0.718-1.577-1.593-1.577h-3.591c-0.877,0-1.593,0.701-1.593,1.577v0.976H178.179z"/>
	</g>
	<g>
		<path fill="#CB4D49" d="M188.427,297.45v-3.343c0-0.866-0.712-1.568-1.593-1.568h-12.446c-0.884,0-1.597,0.702-1.597,1.568v3.343
			H188.427z"/>
		<path fill="#CB4D49" d="M182.824,298.338v0.776c0,0.648-0.462,1.184-1.044,1.184h-2.347c-0.58,0-1.048-0.535-1.048-1.184v-0.776
			h-5.593v3.728c0,0.863,0.713,1.567,1.597,1.567h12.446c0.88,0,1.593-0.704,1.593-1.567v-3.728H182.824z"/>
		<path fill="#CB4D49" d="M179.433,299.586h2.347c0.237,0,0.421-0.209,0.421-0.472v-0.776h-3.186v0.776
			C179.015,299.377,179.199,299.586,179.433,299.586z"/>
	</g>
</g>
<g>
	<g>
		<path fill="#CB4D49" d="M228.795,291.938v-1.217c0-0.437,0.354-0.791,0.795-0.791h4.464c0.438,0,0.792,0.354,0.792,0.791v1.217
			h1.194v-1.217c0-1.093-0.896-1.964-1.986-1.964h-4.464c-1.094,0-1.987,0.871-1.987,1.964v1.217H228.795z"/>
	</g>
	<g>
		<path fill="#CB4D49" d="M241.55,297.559v-4.161c0-1.074-0.884-1.953-1.981-1.953h-15.489c-1.1,0-1.988,0.879-1.988,1.953v4.161
			H241.55z"/>
		<path fill="#CB4D49" d="M234.58,298.66v0.967c0,0.807-0.577,1.476-1.304,1.476h-2.918c-0.725,0-1.307-0.669-1.307-1.476v-0.967
			h-6.961v4.64c0,1.08,0.889,1.955,1.988,1.955h15.489c1.098,0,1.981-0.875,1.981-1.955v-4.64H234.58z"/>
		<path fill="#CB4D49" d="M230.358,300.219h2.918c0.294,0,0.528-0.259,0.528-0.592v-0.967h-3.972v0.967
			C229.833,299.96,230.067,300.219,230.358,300.219z"/>
	</g>
</g>
<g>
	<g>
		<path fill="#CB4D49" d="M278.069,292.694v-1.457c0-0.52,0.428-0.943,0.95-0.943h5.347c0.518,0,0.946,0.424,0.946,0.943v1.457
			h1.428v-1.457c0-1.305-1.07-2.347-2.374-2.347h-5.347c-1.307,0-2.371,1.042-2.371,2.347v1.457H278.069z"/>
	</g>
	<g>
		<path fill="#CB4D49" d="M293.334,299.424v-4.981c0-1.286-1.058-2.336-2.372-2.336h-18.531c-1.318,0-2.383,1.05-2.383,2.336v4.981
			H293.334z"/>
		<path fill="#CB4D49" d="M284.993,300.74v1.157c0,0.966-0.688,1.767-1.559,1.767h-3.493c-0.867,0-1.564-0.801-1.564-1.767v-1.157
			h-8.329v5.553c0,1.288,1.064,2.337,2.383,2.337h18.531c1.314,0,2.372-1.049,2.372-2.337v-5.553H284.993z"/>
		<path fill="#CB4D49" d="M279.941,302.605h3.493c0.349,0,0.63-0.313,0.63-0.708v-1.157h-4.753v1.157
			C279.312,302.293,279.593,302.605,279.941,302.605z"/>
	</g>
</g>
<g>
	<path fill="#A2A2A3" d="M30.141,257.255c-0.85-0.044-4.004,0.04-4.729,0c-0.724-0.044,1.577-0.729,1.534-3.794
		c0.339,0,1.323,0.042,1.663,0C28.823,256.611,30.995,257.295,30.141,257.255z"/>
	<rect x="24.607" y="258.064" fill="#A2A2A3" width="6.394" height="2.343"/>
	<rect x="23.838" y="260.621" fill="#A2A2A3" width="7.932" height="0.641"/>
	<rect x="25.206" y="257.452" fill="#D1D1D1" width="5.196" height="0.499"/>
	<g>
		<rect x="25.63" y="258.446" fill="#D1D1D1" width="4.348" height="1.706"/>
		<path fill="#FFFFFF" d="M26.058,258.829c0,0.073-0.057,0.129-0.127,0.129c-0.076,0-0.13-0.056-0.13-0.129
			c0-0.066,0.054-0.124,0.13-0.124C26.001,258.705,26.058,258.763,26.058,258.829z"/>
		<path fill="#FFFFFF" d="M29.726,258.829c0,0.073-0.058,0.129-0.13,0.129s-0.129-0.056-0.129-0.129
			c0-0.066,0.057-0.124,0.129-0.124S29.726,258.763,29.726,258.829z"/>
		<path fill="#FFFFFF" d="M26.058,259.772c0,0.069-0.057,0.127-0.127,0.127c-0.076,0-0.13-0.058-0.13-0.127
			c0-0.072,0.054-0.131,0.13-0.131C26.001,259.642,26.058,259.7,26.058,259.772z"/>
		<circle fill="#FFFFFF" cx="29.596" cy="259.772" r="0.13"/>
	</g>
	<rect x="26.739" y="252.638" fill="#A2A2A3" width="2.131" height="0.794"/>
	<rect x="26.524" y="252.862" fill="#DDDDDD" width="2.561" height="0.338"/>
	<path fill="#D1D1D1" d="M24.829,249.838c-0.354-0.488-1.485-2.211-2.717-5.482c0.152,0,0.313-0.006,0.475-0.006
		c0.327-0.002,0.618-0.006,0.886,0c0.077,0.006,0.14,0.011,0.188,0.014c0.047,0.414,0.025,1.514,0.188,2.275l0.427,0.041
		c0.041-0.167-0.091-2.44-0.085-2.656c0.013-0.272-1.4-0.171-2.296-0.178c-0.253-0.01-0.371,0.409-0.32,0.54
		c1.378,3.683,2.762,5.871,3.104,6.013c0.251,0.111,0.798,0.124,0.798,0.124c-0.2-0.349,0.042-0.21-0.18-0.517
		C25.12,249.759,24.956,249.92,24.829,249.838z"/>
	<path fill="#D1D1D1" d="M30.783,249.838c0.354-0.488,1.485-2.211,2.717-5.482c-0.155,0-0.316-0.006-0.479-0.006
		c-0.329-0.002-0.614-0.006-0.886,0c-0.076,0.006-0.136,0.011-0.187,0.014c-0.048,0.414-0.022,1.514-0.184,2.275l-0.431,0.041
		c-0.042-0.167,0.095-2.44,0.085-2.656c-0.012-0.272,1.4-0.171,2.296-0.178c0.253-0.01,0.371,0.409,0.32,0.54
		c-1.381,3.683-2.762,5.871-3.098,6.013c-0.256,0.111-0.804,0.124-0.804,0.124c0.203-0.349-0.041-0.21,0.181-0.517
		C30.488,249.759,30.656,249.92,30.783,249.838z"/>
	<path fill="#A2A2A3" d="M31.6,244.378h-0.01h-0.215h-7.12h-0.233c-0.006,0-0.01,0-0.01,0s0.085-0.037,0.209,2.347
		c0.009,0.083,0.021,0.172,0.034,0.257c0,0.013,0,0.029,0,0.042c0.096,1.798,1.501,3.985,2.183,4.952
		c0.209,0.314,0.345,0.507,0.345,0.507h0.028h0.013h1.96h0.028h0.016c0,0,0.021-0.036,0.054-0.08
		c0.383-0.455,2.416-2.979,2.492-5.298c0.003-0.139,0.006-0.271,0.013-0.397C31.511,244.341,31.6,244.378,31.6,244.378z"/>
</g>
<g>
	<path fill="#A2A2A3" d="M30.786,214.734c-1.182-0.062-5.558,0.054-6.562,0c-1.006-0.062,2.188-1.011,2.125-5.268
		c0.472,0,1.836,0.058,2.309,0C28.956,213.842,31.967,214.788,30.786,214.734z"/>
	<rect x="23.106" y="215.855" fill="#A2A2A3" width="8.873" height="3.252"/>
	<rect x="22.043" y="219.405" fill="#A2A2A3" width="11.004" height="0.887"/>
	<rect x="23.937" y="215.004" fill="#D1D1D1" width="7.214" height="0.695"/>
	<g>
		<rect x="24.528" y="216.384" fill="#D1D1D1" width="6.032" height="2.369"/>
		<path fill="#FFFFFF" d="M25.12,216.92c0,0.098-0.078,0.177-0.177,0.177c-0.104,0-0.177-0.079-0.177-0.177
			c0-0.096,0.073-0.175,0.177-0.175C25.042,216.745,25.12,216.824,25.12,216.92z"/>
		<circle fill="#FFFFFF" cx="30.026" cy="216.92" r="0.181"/>
		<path fill="#FFFFFF" d="M25.12,218.226c0,0.096-0.078,0.175-0.177,0.175c-0.104,0-0.177-0.079-0.177-0.175
			c0-0.104,0.073-0.183,0.177-0.183C25.042,218.043,25.12,218.122,25.12,218.226z"/>
		<path fill="#FFFFFF" d="M30.207,218.226c0,0.096-0.08,0.175-0.182,0.175c-0.098,0-0.18-0.079-0.18-0.175
			c0-0.104,0.083-0.183,0.18-0.183C30.127,218.043,30.207,218.122,30.207,218.226z"/>
	</g>
	<rect x="26.064" y="208.324" fill="#A2A2A3" width="2.958" height="1.105"/>
	<rect x="25.767" y="208.64" fill="#DDDDDD" width="3.554" height="0.474"/>
	<path fill="#D1D1D1" d="M23.417,204.441c-0.495-0.674-2.062-3.062-3.775-7.604c0.215,0,0.44-0.005,0.662-0.005
		c0.454-0.007,0.858-0.012,1.229,0c0.108,0.005,0.196,0.008,0.262,0.017c0.067,0.572,0.032,2.099,0.257,3.157l0.595,0.06
		c0.057-0.237-0.129-3.389-0.117-3.689c0.016-0.373-1.944-0.234-3.189-0.247c-0.349-0.013-0.51,0.567-0.444,0.744
		c1.916,5.114,3.835,8.152,4.304,8.351c0.352,0.149,1.112,0.165,1.112,0.165c-0.282-0.482,0.054-0.285-0.25-0.713
		C23.822,204.334,23.591,204.562,23.417,204.441z"/>
	<path fill="#D1D1D1" d="M31.679,204.441c0.488-0.674,2.059-3.062,3.765-7.604c-0.214,0-0.439-0.005-0.661-0.005
		c-0.457-0.007-0.855-0.012-1.229,0c-0.107,0.005-0.192,0.008-0.262,0.017c-0.067,0.572-0.032,2.099-0.257,3.157l-0.595,0.06
		c-0.054-0.237,0.133-3.389,0.121-3.689c-0.016-0.373,1.941-0.234,3.186-0.247c0.349-0.013,0.513,0.567,0.446,0.744
		c-1.918,5.114-3.834,8.152-4.304,8.351c-0.351,0.149-1.114,0.165-1.114,0.165c0.282-0.482-0.054-0.285,0.25-0.713
		C31.267,204.334,31.495,204.562,31.679,204.441z"/>
	<path fill="#A2A2A3" d="M32.813,196.87c0,0-0.013,0-0.019,0h-0.297h-9.877h-0.323c-0.009,0-0.013,0-0.013,0s0.12-0.055,0.288,3.257
		c0.013,0.108,0.032,0.235,0.048,0.35c0,0.022,0,0.041,0,0.061c0.135,2.496,2.083,5.529,3.03,6.876
		c0.285,0.43,0.479,0.698,0.479,0.698h0.038h0.019h2.721h0.038h0.025c0,0,0.025-0.051,0.069-0.113
		c0.536-0.628,3.351-4.13,3.458-7.348c0.006-0.192,0.009-0.379,0.018-0.553C32.688,196.815,32.813,196.87,32.813,196.87z"/>
</g>
<g>
	<path fill="#A2A2A3" d="M30.682,171.77c-1.438-0.073-6.771,0.066-7.993,0c-1.226-0.073,2.667-1.229,2.59-6.416
		c0.573,0,2.236,0.07,2.812,0C28.452,170.683,32.123,171.836,30.682,171.77z"/>
	<rect x="21.327" y="173.138" fill="#A2A2A3" width="10.812" height="3.962"/>
	<rect x="20.031" y="177.46" fill="#A2A2A3" width="13.406" height="1.081"/>
	<rect x="22.337" y="172.099" fill="#D1D1D1" width="8.791" height="0.848"/>
	<g>
		<rect x="23.059" y="173.78" fill="#D1D1D1" width="7.35" height="2.885"/>
		<path fill="#FFFFFF" d="M23.781,174.433c0,0.12-0.098,0.216-0.215,0.216c-0.126,0-0.219-0.096-0.219-0.216
			c0-0.116,0.093-0.212,0.219-0.212C23.683,174.221,23.781,174.316,23.781,174.433z"/>
		<path fill="#FFFFFF" d="M29.975,174.433c0,0.12-0.095,0.216-0.218,0.216c-0.12,0-0.219-0.096-0.219-0.216
			c0-0.116,0.099-0.212,0.219-0.212C29.88,174.221,29.975,174.316,29.975,174.433z"/>
		<path fill="#FFFFFF" d="M23.781,176.025c0,0.117-0.098,0.212-0.215,0.212c-0.126,0-0.219-0.095-0.219-0.212
			c0-0.127,0.093-0.22,0.219-0.22C23.683,175.806,23.781,175.898,23.781,176.025z"/>
		<path fill="#FFFFFF" d="M29.975,176.025c0,0.117-0.095,0.212-0.218,0.212c-0.12,0-0.219-0.095-0.219-0.212
			c0-0.127,0.099-0.22,0.219-0.22C29.88,175.806,29.975,175.898,29.975,176.025z"/>
	</g>
	<rect x="24.931" y="163.964" fill="#A2A2A3" width="3.604" height="1.345"/>
	<rect x="24.566" y="164.346" fill="#DDDDDD" width="4.329" height="0.576"/>
	<path fill="#D1D1D1" d="M21.704,159.231c-0.602-0.819-2.511-3.729-4.598-9.263c0.263,0,0.538-0.006,0.808-0.006
		c0.551-0.01,1.045-0.016,1.498,0c0.13,0.006,0.237,0.009,0.32,0.02c0.079,0.696,0.038,2.556,0.31,3.843l0.725,0.074
		c0.07-0.288-0.158-4.127-0.142-4.494c0.019-0.456-2.37-0.284-3.883-0.301c-0.424-0.016-0.624,0.691-0.542,0.906
		c2.334,6.232,4.671,9.931,5.245,10.175c0.427,0.181,1.352,0.199,1.352,0.199c-0.342-0.586,0.066-0.345-0.304-0.867
		C22.198,159.103,21.919,159.378,21.704,159.231z"/>
	<path fill="#D1D1D1" d="M31.771,159.231c0.596-0.819,2.508-3.729,4.586-9.263c-0.26,0-0.535-0.006-0.805-0.006
		c-0.557-0.01-1.042-0.016-1.498,0c-0.13,0.006-0.234,0.009-0.32,0.02c-0.082,0.696-0.038,2.556-0.314,3.843l-0.725,0.074
		c-0.063-0.288,0.161-4.127,0.148-4.494c-0.019-0.456,2.362-0.284,3.879-0.301c0.424-0.016,0.627,0.691,0.545,0.906
		c-2.337,6.232-4.671,9.931-5.245,10.175c-0.428,0.181-1.358,0.199-1.358,0.199c0.346-0.586-0.063-0.345,0.307-0.867
		C31.271,159.103,31.546,159.378,31.771,159.231z"/>
	<path fill="#A2A2A3" d="M33.152,150.007c0,0-0.017,0-0.022,0h-0.364H20.732h-0.393c-0.01,0-0.016,0-0.016,0
		s0.149-0.066,0.352,3.965c0.016,0.136,0.038,0.292,0.058,0.431c0,0.025,0,0.05,0,0.072c0.167,3.04,2.539,6.736,3.692,8.377
		c0.349,0.522,0.583,0.851,0.583,0.851h0.048h0.021h3.316h0.044h0.032c0,0,0.032-0.06,0.085-0.139
		c0.653-0.763,4.082-5.032,4.212-8.95c0.009-0.237,0.013-0.462,0.025-0.673C33.002,149.941,33.152,150.007,33.152,150.007z"/>
</g>
<g>
	<g>
		<path fill="#A2A2A3" d="M32.597,123.482c-1.963-0.099-9.218,0.101-10.881,0c-1.666-0.099,3.625-1.667,3.528-8.725
			c0.782,0,3.04,0.095,3.822,0C29.557,122.01,34.558,123.583,32.597,123.482z"/>
		<rect x="19.863" y="125.347" fill="#A2A2A3" width="14.71" height="5.39"/>
		<rect x="18.1" y="131.231" fill="#A2A2A3" width="18.237" height="1.466"/>
		<rect x="21.238" y="123.938" fill="#D1D1D1" width="11.964" height="1.153"/>
		<g>
			<rect x="22.216" y="126.224" fill="#D1D1D1" width="10.004" height="3.924"/>
			<path fill="#FFFFFF" d="M23.205,127.108c0,0.164-0.133,0.298-0.301,0.298c-0.162,0-0.292-0.134-0.292-0.298
				c0-0.158,0.129-0.291,0.292-0.291C23.072,126.817,23.205,126.95,23.205,127.108z"/>
			<path fill="#FFFFFF" d="M31.632,127.108c0,0.164-0.13,0.298-0.295,0.298c-0.165,0-0.297-0.134-0.297-0.298
				c0-0.158,0.133-0.291,0.297-0.291C31.502,126.817,31.632,126.95,31.632,127.108z"/>
			<path fill="#FFFFFF" d="M23.205,129.268c0,0.162-0.133,0.294-0.301,0.294c-0.162,0-0.292-0.133-0.292-0.294
				s0.129-0.295,0.292-0.295C23.072,128.973,23.205,129.106,23.205,129.268z"/>
			<circle fill="#FFFFFF" cx="31.336" cy="129.268" r="0.296"/>
		</g>
		<rect x="24.766" y="112.858" fill="#A2A2A3" width="4.905" height="1.837"/>
		<rect x="24.278" y="113.383" fill="#DDDDDD" width="5.884" height="0.786"/>
		<path fill="#D1D1D1" d="M20.371,106.419c-0.811-1.108-3.411-5.08-6.251-12.601c0.354,0,0.731-0.007,1.104-0.013
			c0.748-0.012,1.41-0.022,2.037,0.006c0.177,0.007,0.321,0.016,0.431,0.025c0.107,0.946,0.05,3.48,0.427,5.232L19.1,99.17
			c0.096-0.393-0.211-5.621-0.19-6.115c0.025-0.624-3.22-0.39-5.286-0.415c-0.579-0.013-0.849,0.94-0.737,1.241
			c3.176,8.478,6.359,13.51,7.131,13.836c0.583,0.253,1.85,0.276,1.85,0.276c-0.472-0.802,0.089-0.469-0.418-1.175
			C21.042,106.242,20.668,106.619,20.371,106.419z"/>
		<path fill="#D1D1D1" d="M34.066,106.419c0.814-1.108,3.414-5.08,6.252-12.601c-0.355,0-0.729-0.007-1.105-0.013
			c-0.744-0.012-1.409-0.022-2.036,0.006c-0.171,0.007-0.314,0.016-0.428,0.025c-0.111,0.946-0.054,3.48-0.427,5.232L35.34,99.17
			c-0.098-0.393,0.212-5.621,0.189-6.115c-0.028-0.624,3.221-0.39,5.282-0.415c0.58-0.013,0.85,0.94,0.739,1.241
			c-3.176,8.478-6.353,13.51-7.125,13.836c-0.586,0.253-1.85,0.276-1.85,0.276c0.466-0.802-0.094-0.469,0.416-1.175
			C33.395,106.242,33.772,106.619,34.066,106.419z"/>
		<path fill="#A2A2A3" d="M35.948,93.873c0,0-0.013-0.003-0.022,0h-0.498H19.056h-0.544c-0.01-0.003-0.02,0-0.02,0
			s0.197-0.095,0.491,5.397c0.015,0.189,0.044,0.386,0.066,0.585c0,0.031,0,0.063,0.006,0.098c0.225,4.139,3.448,9.167,5.026,11.394
			c0.471,0.719,0.789,1.156,0.789,1.156h0.063h0.028h4.517h0.066h0.029c0,0,0.053-0.079,0.122-0.184
			c0.884-1.045,5.556-6.84,5.732-12.173c0.013-0.326,0.023-0.637,0.032-0.928C35.751,93.781,35.948,93.873,35.948,93.873z"/>
	</g>
	<g>
		<path fill="#FFFFFF" d="M25.957,103.546h1.324v-3.758l0.142-0.649l-0.455,0.561l-0.85,0.583l-0.525-0.715l2.175-1.748h0.694v5.728
			h1.292v1.049h-3.797V103.546z"/>
	</g>
</g>
</svg>
