<?xml version="1.0" encoding="utf-8"?>
<!-- Generator: Adobe Illustrator 16.0.0, SVG Export Plug-In . SVG Version: 6.00 Build 0)  -->
<!DOCTYPE svg PUBLIC "-//W3C//DTD SVG 1.1//EN" "http://www.w3.org/Graphics/SVG/1.1/DTD/svg11.dtd">
<svg version="1.1" id="Layer_1" xmlns="http://www.w3.org/2000/svg" xmlns:xlink="http://www.w3.org/1999/xlink" x="0px" y="0px"
	 width="380px" height="315px" viewBox="0 0 380 315" enable-background="new 0 0 380 315" xml:space="preserve">
<g>
	<path fill="#5B5B5B" d="M68.974,156.428c0-4.794,3.668-8.695,8.17-8.695h30.88c0-1.998-0.134-4.51-0.624-7.305
		c-1.157-6.534-7.305-4.227-10.765-4.606s-0.766-6.156-2.693-11.538c-1.923-5.379-13.841-3.456-21.142,1.161
		c-7.306,4.612-7.693-10.385-9.612-12.696c-1.927-2.302-7.692-1.145-10.772,0.771c-3.072,1.931-4.407-4.562-10.377-1.15
		c-8.072,4.612-4.834,11.915-7.306,16.147c-2.689,4.616-8.458-1.536-12.684,2.689c-4.233,4.237-0.387,13.843,6.152,17.689
		c5.639,3.316,6.531,6.531,1.919,8.837c-4.612,2.306-1.919,7.306,0.77,11.538c2.689,4.226,1.153,7.298-2.31,10.766
		c-3.459,3.449,3.463,8.07,4.616,8.07c1.149,0,8.842-4.218,9.225,0.38c0.391,4.619,7.783,4.122,8.083,1.809
		c0.379-3.08,12.297,3.964,14.99,6.657c1.595,1.596,2.772-0.063,3.479-1.666V156.428z"/>
	<path fill="#A2A2A3" d="M68.464,196.397c-2.839-2.542-12.968-8.892-16.83-8.892c-1.879,0-2.803,1.113-3.072,2.188
		c-0.237,0.126-0.766,0.3-1.504,0.3c-0.58,0-2.492-0.125-2.622-1.674c-0.209-2.504-1.907-4.004-4.541-4.004
		c-1.951,0-4.134,0.796-5.729,1.381c-0.352,0.127-0.656,0.244-0.897,0.325c-0.959-0.466-3.234-2.173-3.589-3.595
		c-0.063-0.268-0.087-0.544,0.332-0.962c3.337-3.343,6.255-7.527,2.586-13.285c-1.022-1.604-3.416-5.362-2.875-7.306
		c0.091-0.338,0.328-0.845,1.303-1.334c3.278-1.635,4.024-3.665,4.072-5.086c0.087-2.535-1.833-4.928-5.872-7.297
		c-3.487-2.061-6.37-6.318-6.859-10.125c-0.167-1.329-0.111-3.169,1.114-4.397c0.687-0.688,1.438-0.979,2.495-0.979
		c0.806,0,1.666,0.161,2.583,0.332c0.967,0.182,1.966,0.371,2.966,0.371c2.199-0.004,3.866-0.952,4.956-2.823
		c1.066-1.828,1.279-3.953,1.477-6.006c0.351-3.542,0.679-6.887,5.086-9.402c0.865-0.494,1.627-0.747,2.271-0.747
		c0.909,0,1.647,0.518,2.5,1.114c0.947,0.66,2.026,1.414,3.447,1.414c0.77,0,1.521-0.229,2.235-0.68
		c1.639-1.019,4.126-1.733,6.038-1.733c1.212,0,1.88,0.285,2.102,0.549c0.276,0.403,0.727,2.203,1.058,3.514
		c1.137,4.553,2.701,10.784,7.558,10.784c1.161,0,2.381-0.403,3.629-1.188c3.882-2.456,9.229-4.103,13.308-4.103
		c1.251,0,4.237,0.185,4.853,1.915c0.711,1.975,0.684,4.118,0.66,6.01c-0.032,2.716-0.076,6.443,3.715,6.854
		c0.371,0.039,0.762,0.063,1.176,0.063c0.585,0,1.208-0.039,1.856-0.078c0.608-0.032,1.24-0.071,1.864-0.071
		c2.728,0,3.684,0.711,4.098,3.041c0.276,1.595,0.308,5.093,0.396,6.776H78.258c-5.624,0-9.604,3.032-9.478,10.804l0.253,36.646
		C68.78,195.324,68.536,196.28,68.464,196.397z"/>
</g>
<path fill="#C1C1C1" d="M379.268,92.117l-60.188-2.016l-62.658,15.666l-71.631-8.305l-0.253,50.271h82.539
	c4.506,0,8.175,3.901,8.175,8.695v3.04c0.79-0.616,1.729-0.963,2.696-0.963l0.565,0.04l22.603,0.15
	c1.24,0.047,5.204,0.339,6.99,2.14c2.409,2.401,5.347,5.497,8.435,8.743l3.838,4.026c0.791,0.814,2.354,3.522,2.354,5.553v23.717
	l2.501-0.465l54.035,10.341C379.016,214.078,378.597,92.791,379.268,92.117z"/>
<path fill="#EAE9E8" d="M256.558,107.815l-69.754-8.087l-0.245,48.004h80.517c4.506,0,8.175,3.901,8.175,8.695v3.04
	c0.79-0.616,1.729-0.963,2.696-0.963l0.565,0.04l22.603,0.15c1.24,0.047,5.204,0.339,6.99,2.14c2.409,2.401,5.347,5.497,8.435,8.743
	l3.838,4.026c0.791,0.814,2.354,3.522,2.354,5.553v21.656l2.665-0.489l51.849,9.733c0,0,0-97.723,0-116.592l-58.013-1.319
	L256.558,107.815z"/>
<path fill="#A2A2A3" d="M321.149,174.655c0.004,0,0.008,0,0.012,0c1.539,0.064,2.36-2.534,4.146-0.466
	c1.777,2.077,2.879,2.986,6.733,3.127c3.851,0.151,4.272,1.367,5.927,2.482c1.655,1.144,4.067-1.178,5.354-2.475
	c1.279-1.278,1.177,1.258,1.753,2.475c0.568,1.222-0.419,3.046-2.302,3.781c-1.884,0.726-0.415,2.789,0.489,3.349
	c0.904,0.577-1.015,2.503-0.912,3.704c0.111,1.2,2.559,1.707,2.606,0.49c0.047-1.192,1.896-0.853,3.31-1.596
	c1.418-0.759,2.46,0.221,4.012,0.15c1.548-0.08,1.272-0.837,1.272-0.837s-2.899-1.099-2.568-1.746
	c0.341-0.655,4.053-5.103,3.542-7.913c-0.513-2.812,1.149-5.055,2.689-4.992c1.54,0.055,2.859,1.123,4.407,1.178
	c0.723,0.023,2.034-0.222,3.372-0.419c2.993-0.402,1.936-0.987,3.071-2.378c0.625-0.757,1.712-0.338,1.743-1.128
	c0.027-0.806-0.415-1.344-1.332-1.65c-0.915-0.302-7.005,1.294-7.245-0.403c-0.315-2.181,2.16,0.07,2.677-1.375
	c0.519-1.445-1.189-1.247-1.426-3.127c-0.24-1.855-6.01-4.486-6.772-4.645c-0.771-0.158-2.573-1.572-3.937-2.282
	c-1.366-0.719-4.912-0.853-4.951,0.205c-0.043,1.059-3.365,3.208-4.684,1.295c-1.318-1.918-2.576-1.413-3.996-0.544
	c-1.421,0.877,0.702-2.425,1.16-6.271c0.45-3.845,1.611-5.765,3.199-6.902c1.587-1.145,5.019-1.951,5.212-3.009
	c0.189-1.051,1.879-2.626,2.243-1.912c0.348,0.695,0.398,1.477,1.646,1.263c1.244-0.213,0.32-0.387,1.449-1.682
	c1.138-1.288-0.016-2.488-0.979-2.993c-1.075-0.569-1.075-2.76-1.075-4.046c0-1.011,0.751-3.277,2.584-2.811
	c1.84,0.473,2.1-0.238,1.713-2.125c-0.396-1.879-1.043-3.313,2.255-0.655c3.293,2.654,0.9,2.859,0.336,3.34
	c-0.569,0.482,2.468,4.364,2.4,6.099c-0.063,1.722-0.213,1.453-0.3,3.72c-0.086,2.267,5.967,5.703,9.58,8.364
	c3.601,2.677,2.57,1.294,3.255-0.277c0.679-1.58-2.063-2.749-0.468-4.155c1.6-1.405-0.386-1.879-1.61-2.321
	c-1.217-0.451-0.363-2.685-0.805-3.238c-0.444-0.545,1.887-0.49,2.271-2.03c0.165-0.663-2.484-0.506-2.92-1.194
	c-0.442-0.68-1.396,0.079-2.883-1.308c-1.496-1.387-1.686-0.604-2.321-0.091s-3.847-8.541-2.053-7.013
	c1.793,1.536,1.089-0.356,1.142-1.556c0.043-1.197,0.837-1.699,2.384-1.774c1.545-0.071,0.503-1.046-0.398-1.75
	c-0.9-0.703-0.45-4.415-0.702-6.026c-0.249-1.614-0.53-2.29,0.746-3.309c0.138-0.11,0.169-0.178,0.261-0.268
	c-0.236-0.629-0.495-1.249-0.739-1.876c-0.915,0.027-2.472,0.529-3.009,0.418c-0.77-0.162-2.188,0.581-3.104,0.276
	c-0.911-0.304,0.845-1.702,0.569-2.776c-0.265-1.075-1.186-1.248-1.631-1.793c-0.438-0.549,3.159-1.879,3.937-1.856
	c0.229,0.008,0.53-0.103,0.837-0.252c-0.497-1.165-1.042-2.307-1.563-3.459c-0.798-0.442-1.727-1.153-2.394-1.689
	c-1.051-0.842-2.116,2.306-4.229,3.846c-0.567,0.411-5.666,3.041-7.498,2.693c-4.999-0.963-2.693,1.726-5.269,3.791
	c-0.963,0.758,1.493,1.122,3.018,1.848c1.516,0.727-3.444,1.067-5.181,2.204c-1.746,1.137-2.397,1.903-2.118,2.716
	c0.278,0.813-1.895,1.129-2.028,0.593c-0.135-0.541-2.595-0.901-3.523-0.798c-0.927,0.099-2.565,2.702-3.363,3.203
	c-0.798,0.501-3.401,0.004-3.839-0.676c-0.388-0.6-2.689-0.943-4.667-0.063l0.245,53.778l0.465,0.488
	C320.592,173.826,320.867,174.205,321.149,174.655z"/>
<path fill="#A2A2A3" d="M235.982,118.545c-0.458-1.351-0.521-3.021-1.156-3.882c-0.644-0.861,1.535-0.426,0.771-1.391
	c-0.771-0.975-2.315-2.617-3.721-1.753c-1.409,0.861-2.559-0.521-2.559,0.995c0,1.505-2.31,0.86-2.31,1.505
	c0,0.644,0.896,2.263,1.923,2.263c1.026,0,0.64,0.537,0.767,1.508c0.129,0.972,1.026,3.554,1.922,3.665
	c0.9,0.103,2.563,0.639,2.95,0.103C234.957,121.021,236.236,119.299,235.982,118.545z"/>
<path fill="#526752" d="M232.421,119.535c-0.291-0.503-0.655-1.532-0.718-2.009c-0.004-0.877,0.008-1.767-0.72-2.506
	c-0.166-0.166-0.34-0.296-0.517-0.397c0.265-0.243,0.454-0.51,0.587-0.783c0.673-0.046,1.301-0.244,1.873-0.591
	c-0.032,0.02-0.024,0.052,0.009,0.099c-0.057,0.111-0.104,0.229-0.143,0.357l-0.317,0.989l0.728,1.177
	c0.134,0.2,0.292,0.956,0.396,1.455c0.102,0.488,0.205,0.986,0.343,1.463c-0.083,0.176-0.241,0.464-0.552,0.932
	C233.203,119.69,232.548,119.558,232.421,119.535z"/>
<path fill="#69806A" d="M232.421,119.535c-0.291-0.505-0.655-1.532-0.718-2.009c-0.004-0.877,0.008-1.769-0.72-2.508
	c-0.166-0.166-0.34-0.292-0.517-0.395c0.265-0.245,0.454-0.51,0.587-0.781c0.673-0.048,1.849-0.541,1.882-0.494
	c-0.057,0.111,0.56,3.479,0.663,3.981c0.102,0.486,0.205,0.982,0.343,1.461c-0.083,0.178-0.241,0.466-0.552,0.932
	C233.203,119.69,232.548,119.56,232.421,119.535z"/>
<path fill="#DD5550" d="M232.421,119.535c-0.291-0.505-0.655-1.532-0.718-2.009c-0.004-0.877,0.008-1.769-0.72-2.508
	c-0.166-0.166-0.34-0.292-0.517-0.395c0.265-0.245,0.454-0.51,0.587-0.781c0.673-0.048,1.849-0.541,1.882-0.494
	c-0.057,0.111,0.56,3.479,0.663,3.981c0.102,0.486,0.205,0.982,0.343,1.461c-0.083,0.178-0.241,0.466-0.552,0.932
	C233.203,119.69,232.548,119.56,232.421,119.535z"/>
<path fill="#DD5550" d="M345.379,188.265c0.275-1.012,0.256-2.22-1.03-3.041c-0.035-0.023-0.076-0.055-0.116-0.096
	c1.252-0.679,2.208-1.706,2.693-2.922c0.447-1.121,0.439-2.274-0.02-3.263c-0.086-0.182-0.182-0.607-0.252-0.923
	c-0.229-0.995-0.706-3.072-2.732-3.072c-0.724,0-1.406,0.315-2.03,0.947c-2.01,2.021-2.749,2.188-2.921,2.188
	c-0.187-0.174-0.444-0.387-0.696-0.6c-1.406-1.16-2.756-2.054-6.156-2.187c-3.31-0.127-3.886-0.798-5.28-2.417
	c-0.86-1.004-1.824-1.51-2.867-1.51c-0.849,0-3.355,1.083-3.868,1.421l0.125-51.431c0.182-0.02,1.833-0.533,2.015-0.533
	c0.332,0,0.573,0.035,0.719,0.071c1.074,1.097,3.144,1.405,4.186,1.405c0.864,0,1.552-0.169,2.101-0.518
	c0.585-0.362,1.09-0.959,1.73-1.717c0.276-0.333,0.757-0.896,1.059-1.181c0.604,0.023,1.208,0.122,1.559,0.213
	c0.431,0.494,1.126,0.857,2.129,0.857c0.972,0,2.259-0.348,2.953-1.323l0.604-0.85l-0.17-0.837c0.166-0.162,0.515-0.446,1.2-0.893
	c0.49-0.32,1.856-0.655,2.758-0.88c1.847-0.455,3.441-0.845,3.612-2.531l0.146-1.418l-1.572-0.892
	c-0.315-0.151-0.663-0.289-1.015-0.418c0.265-0.51,0.414-0.98,0.533-1.339c0.023-0.075,0.047-0.15,0.066-0.221
	c0.012,0,0.02,0,0.031,0c0.507,0,0.901,0.056,1.387,0.15l0.189,0.035l0.565,0.031c2.775,0,7.791-2.732,8.308-3.107
	c1.169-0.853,2.002-1.974,2.673-2.879c0.049-0.063,0.104-0.134,0.159-0.205c0.702,0.525,1.327,0.943,1.91,1.236
	c-1.469,0.391-3.728,1.255-4.352,2.551l-0.552,1.145l0.813,1.189c0.339,0.422,0.727,0.687,1.002,0.88
	c0.174-0.095,0.222-0.252,0.229-0.268c-0.032,0.103-0.177,0.366-0.269,0.525c-0.351,0.631-0.884,1.583-0.458,2.697l0.349,0.889
	l1.144,0.502c0.356,0.118,0.743,0.177,1.154,0.177c0.632,0,1.208-0.134,1.721-0.252c0.225-0.052,0.442-0.114,0.624-0.122
	c0.023,0.02,0.221,0.039,0.434,0.039c0.194,0,0.399-0.016,0.608-0.043c-0.434,1.058-0.268,2.045-0.125,2.898l0.07,0.454
	c0.079,0.478,0.07,1.169,0.07,1.896c0.009,1.611,0.017,3.072,0.468,4.174c-1.252,0.687-1.666,1.789-1.793,2.583
	c-0.585,0.134-1.082,0.505-1.395,1.046c-0.063,0.106-0.113,0.225-0.158,0.355c-0.327-0.328-0.636-0.577-0.834-0.735
	c-1.791-1.441-2.661-1.903-3.584-1.903h-0.973l-0.802,0.841c-0.77,0.967-0.512,2.084-0.264,3.163l0.039,0.178
	c-0.027,0-0.055,0-0.078,0c-1.256,0-2.44,0.659-3.262,1.804c-0.933,1.304-1.264,3.029-0.825,4.297
	c0.066,0.225,0.149,0.991,0.201,1.497c0.086,0.791,0.182,1.699,0.398,2.521c-1.464,0.079-3.219,1.778-3.787,3.238
	c-0.372,0.229-1.137,0.553-1.667,0.781c-1.019,0.443-2.068,0.893-2.89,1.485c-2.274,1.627-3.554,4.265-4.029,8.309
	c-0.188,1.587-0.717,3.127-1.108,4.256c-0.501,1.454-0.864,2.504-0.139,3.523l0.604,0.845l1.142,0.047
	c0.62,0,1.104-0.252,1.414-0.449c0.577-0.349,0.825-0.442,0.923-0.458c0.008,0.031,0.143,0.15,0.341,0.435
	c0.73,1.058,1.855,1.643,3.174,1.643c1.793,0,4.024-1.232,4.861-2.82c0.1-0.008,0.221-0.016,0.36-0.016
	c0.868,0,1.697,0.197,1.957,0.332c0.522,0.276,1.099,0.655,1.655,1.012c1.244,0.806,2.041,1.311,2.831,1.469
	c0.972,0.291,4.707,2.235,5.233,3.166c0.043,0.418,0.153,0.798,0.307,1.122c-0.517,0.183-0.853,0.489-1.038,0.702
	c-0.532,0.616-0.729,1.445-0.585,2.456c0.135,0.949,0.837,2.527,4.021,2.527c0.853,0,1.845-0.094,2.76-0.206
	c-0.181,0.31-0.3,0.577-0.383,0.79c-0.173,0.05-0.45,0.104-0.9,0.167l-0.987,0.143c-0.806,0.125-1.531,0.252-2.014,0.252
	c-0.458-0.016-0.975-0.221-1.571-0.449c-0.821-0.325-1.75-0.688-2.863-0.728c-0.004,0-0.004,0-0.012,0
	c-1.319,0-2.507,0.607-3.389,1.666c-1.232,1.471-1.736,3.61-1.35,5.71c0.174,0.964-0.743,2.875-2.729,5.672
	c-0.319,0.449-0.54,0.79-0.624,0.948l-0.423,0.804l0.088,0.277c-0.533,0.07-1.046,0.236-1.537,0.497
	c-0.271,0.143-0.713,0.236-1.14,0.324C345.96,188.113,345.682,188.168,345.379,188.265z M370.158,147.227
	c-0.837-0.655-1.438-1.002-2.204-1.523c-1.967-1.335-5.623-3.823-5.967-4.865c0.06-0.932,0.114-1.374,0.171-1.792
	c0.063-0.443-0.696-3.454-0.084-3.43c1.654,0.063,0.802,0.33,2.508,0.845c1.16,1.021,2.021,0.445,3.454,1.243
	c0.076,0.07,0.155,0.134,0.242,0.196c-0.15,0.206-0.371,5.75,1.769,6.54l0.104,0.04
	C369.644,145.514,370.995,147.891,370.158,147.227z"/>
<path fill="#A2A2A3" d="M199.733,136.038c1.034,1.025,0.391,2.305-1.553,3.339c-1.938,1.027-0.276,2.408,1.03,3.965
	c1.604,1.903,2.476,2.693,5.947,4.391h50.175v-16.286c-0.601-0.996-1.24-1.952-1.422-2.196c-0.395-0.514-1.034-0.134-1.034,0.893
	c0,1.031-1.296,0.126-2.33,0.26c-1.036,0.127,0.386-1.153-0.387-1.792c-0.774-0.644-7.243-1.284-7.891-1.54
	c-0.644-0.253-1.674-0.13-2.192,0.379c-0.523,0.518-0.651,0.435-0.911-0.845c-0.256-1.287,1.556-1.2,2.329-2.096
	c0.774-0.901-0.063-1.556-1.034-1.667c-0.79-0.091-0.593,0.853-2.069,0.382c-1.689-0.537-4.266,1.284-4.781,1.284
	c-0.515,0-5.817,0.383-6.981-0.257c-1.166-0.64-1.553-0.256-1.94,0.257c-0.386,0.509-1.034,3.585-1.807,3.715
	c-0.774,0.126-0.774-0.774-0.774-1.153c0-0.387-0.696-1.35-2.022-1.54c-1.2-0.172-2.378-0.126-3.412,0.26
	c-1.039,0.379-0.261-2.31-0.903-2.31c-0.647,0,1.03-1.923,0.643-2.693c-0.387-0.771-1.034-2.694-3.104-2.437
	c-2.072,0.256-0.639,1.026-1.674,2.306c-1.042,1.28-2.591,1.671-3.498,1.54c-0.905-0.13-2.84,1.153-3.618,2.311
	c-0.774,1.148,1.422,2.941,0.519,3.842c-0.905,0.893-3.528,3.12-4.396,2.437c-1.089-0.858-2.368,0.474-2.977,1.923
	C197.023,134.25,198.706,135.015,199.733,136.038z"/>
<path fill="#DD5550" d="M205.632,145.711c-2.918-1.458-3.562-2.117-4.872-3.672c0,0-0.894-1.019-1.05-1.212
	c1.831-1.165,2.368-2.389,2.499-3.262c0.157-1.079-0.217-2.132-1.054-2.963c-0.278-0.274-0.593-0.539-0.91-0.798
	c-0.268-0.219-0.67-0.547-0.758-0.694c0.158-0.118,0.324-0.271,0.459-0.399c0.342,0.149,0.718,0.227,1.113,0.227
	c1.986,0,4.435-2.199,5.394-3.146c1.481-1.475,0.576-3.348,0.189-4.15c-0.047-0.103-0.109-0.229-0.16-0.347
	c0.5-0.519,1.294-1.023,1.622-1.092c0.056,0.002,0.11,0.002,0.165,0.002c1.715,0,3.595-0.62,4.932-2.272
	c0.415-0.509,0.633-1.005,0.751-1.436c0.106,0.118,0.233,0.324,0.407,0.673c-0.07,0.143-0.15,0.304-0.21,0.42
	c-0.359,0.715-0.907,1.797-0.232,2.895l0.134,0.217c0.079,2.736,1.556,3.148,2.44,3.148l0.355-0.002l0.522-0.157
	c0.418-0.157,0.899-0.233,1.438-0.233c0.326,0,0.658,0.025,0.994,0.074c0.134,0.018,0.233,0.058,0.304,0.097
	c0.02,0.233,0.066,0.501,0.154,0.774c0.368,1.143,1.318,1.854,2.48,1.854h0.166l0.299-0.037c1.706-0.286,2.313-2.082,2.898-3.815
	c0.023-0.063,0.044-0.124,0.064-0.183c0.659,0.254,1.701,0.422,3.782,0.422c1.229,0,2.472-0.06,3.191-0.093l0.478-0.021
	c0.612,0,1.112-0.244,1.813-0.581c0.521-0.25,1.326-0.637,1.931-0.763c-0.226,0.482-0.323,1.079-0.179,1.813
	c0.167,0.833,0.562,2.77,2.457,2.77c0.968,0,1.596-0.618,1.859-0.882c0.456,0.233,1.055,0.326,2.871,0.587
	c0.96,0.139,2.653,0.383,3.772,0.608c-0.027,0.449,0.055,0.941,0.402,1.426c0,0,0.354,0.588,0.604,0.843
	c0.252,0.255,1.271,0.081,1.271,0.081c0.07-0.002,0.138-0.004,0.197-0.004c0.33,0,0.532,0.046,0.671,0.077
	c0.336,0.073,0.711,0.158,1.13,0.158c0.315,0,2.629-0.016,2.902-0.113v13.2l0.004,1.994l-45.728-0.098L205.632,145.711z"/>
<path fill="#A2A2A3" d="M275.251,159.468c0.79-0.616,1.729-0.963,2.696-0.963l0.565,0.04l22.603,0.15
	c1.24,0.047,5.204,0.339,6.99,2.14c2.409,2.401,5.347,5.497,8.435,8.743l1.335,1.396v-51.684c-1.6,0.458-2.866,0.454-2.118,1.172
	c1.061,1.003-1.155,2.514-2.731,3.803c-1.391,1.138-0.17,3.665-1.229,4.53c-1.062,0.856-2.642-2.011-3.17-3.16
	c-0.53-1.153-1.319-2.018-2.11-2.156c-0.798-0.147-3.048,0.86-3.174,1.291c-0.131,0.427,1.059,1.438,0,2.156
	c-1.054,0.723-3.439,1.146-3.168,0c0.263-1.145-1.582-1.002-2.38-1.149c-0.794-0.146-1.062,0.715-2.378,0.715
	c-1.322,0-2.247-1.295-0.391-2.728c1.848-1.434,0.391-3.164-0.134-3.878c-0.529-0.715-4.099-2.303-5.946-2.303
	c-1.849,0-1.32,1.437-1.952,2.574c-0.418,0.759-4.651,2.03-5.448,1.88c-0.79-0.143-2.11,0.576-3.962,1.294
	c-1.837,0.719-0.762,2.779-1.33,2.702c-0.577-0.079-1.453-0.063-3.688-0.257c-1.975-0.171-2.108,1.718-1.054,3.305
	c1.054,1.584-0.929,1.146-1.324,0.135c-0.395-1-1.977-0.711-2.774-0.711c-0.786,0,0.213-1.465-1.063-2.156
	c-1.279-0.695-3.744-1.643-4.88-1.264c-0.743,0.249-3.041,4.131-3.041,4.131s-0.522,1.872-0.522,2.456
	c0,0.458-0.063,1.327-0.268,1.966v14.091h9.438c4.506,0,8.175,3.901,8.175,8.695V159.468z"/>
<path fill="#CB4D49" d="M316.438,169.443c-2.378-2.495-5.129-5.45-6.95-7.265c-2.172-2.181-3.917-3.351-7.646-3.413
	c-3.728-0.063-26.726-1.201-26.599,0.821c0,0,1.516-11.499-8.167-11.894l-8.388,0.079V134c0.253-0.988,0.265-2.027,0.265-2.244
	c0.029-0.377,1.228-1.299,1.347-1.729c0.735-1.216,1.564-2.448,2.019-3.004c0.659,0.085,1.785,0.466,2.729,0.932
	c0.166,2.506,2.132,2.576,2.366,2.576c0,0,1.14-0.044,1.155-0.05c0.616,0.98,1.771,1.668,2.891,1.668h1.212l0.891-1.218
	c0.33-0.609,0.527-1.618-0.368-2.967c-0.023-0.036-0.043-0.071-0.067-0.107c0.9,0.067,1.517,0.099,1.986,0.123
	c0.391,0.021,0.65,0.031,0.864,0.061h0.854l0.993-0.626c0.673-0.689,0.649-1.544,0.641-2.001c-0.004-0.129-0.008-0.346,0.009-0.42
	l1.225-0.336c0.623-0.26,1.399-0.586,1.662-0.614c-0.044,0.012,0.137,0.032,0.346,0.032c0.882,0,5.996-1.021,7.058-2.932
	c0.3-0.543,0.438-1.074,0.528-1.493c1.395,0.197,3.614,1.169,4.106,1.592c0.108,0.172,0.491,0.686,0.515,0.908
	c-2.394,1.769-1.975,3.648-1.793,4.182c0.445,1.307,1.77,2.186,3.297,2.186c1.189,0,1.972-0.428,2.413-0.693
	c0.106,0.014,0.411,0.04,0.419,0.042c0.091,0.276,0.229,0.539,0.41,0.77c0.372,0.468,1.082,1.025,2.382,1.025
	c1.133,0,2.516-0.426,3.447-1.062c0.524-0.358,1.548-1.286,1.255-2.935c0.246-0.091,0.475-0.159,0.608-0.174
	c-0.173,0.026,0.149,0.362,0.436,0.986c1.381,2.991,2.922,4.501,4.588,4.501c0.616,0,1.2-0.211,1.693-0.608
	c1.244-1.017,1.244-2.547,1.24-3.558c0-0.34-0.004-0.905,0.076-1.07l0.488-0.368c0.333-0.26,1.186-0.961,1.5-1.232L316.438,169.443z
	"/>
<rect x="150.585" y="241.645" fill="#A2A2A3" width="122.257" height="10.773"/>
<g>
	<g>
		<polygon fill="#F6F1F2" points="153.073,252.085 154.432,252.085 150.546,247.054 150.546,248.823 		"/>
		<polygon fill="#F6F1F2" points="257.512,241.896 265.379,252.085 266.721,252.085 258.867,241.896 		"/>
		<polygon fill="#F6F1F2" points="249.487,241.896 257.355,252.085 258.712,252.085 250.847,241.896 		"/>
		<polygon fill="#F6F1F2" points="233.448,241.896 241.314,252.085 242.669,252.085 234.807,241.896 		"/>
		<polygon fill="#F6F1F2" points="209.388,241.896 217.249,252.085 218.601,252.085 210.741,241.896 		"/>
		<polygon fill="#F6F1F2" points="217.408,241.896 225.27,252.085 226.617,252.085 218.758,241.896 		"/>
		<polygon fill="#F6F1F2" points="225.424,241.896 233.289,252.085 234.645,252.085 226.779,241.896 		"/>
		<polygon fill="#F6F1F2" points="201.368,241.896 209.229,252.085 210.585,252.085 202.718,241.896 		"/>
		<polygon fill="#F6F1F2" points="193.336,241.896 201.202,252.085 202.556,252.085 194.701,241.896 		"/>
		<polygon fill="#F6F1F2" points="185.315,241.896 193.182,252.085 194.535,252.085 186.678,241.896 		"/>
		<polygon fill="#F6F1F2" points="177.295,241.896 185.157,252.085 186.516,252.085 178.654,241.896 		"/>
		<polygon fill="#F6F1F2" points="169.271,241.896 177.145,252.085 178.495,252.085 170.629,241.896 		"/>
		<polygon fill="#F6F1F2" points="161.247,241.896 169.121,252.085 170.476,252.085 162.613,241.896 		"/>
		<polygon fill="#F6F1F2" points="153.239,241.896 161.097,252.085 162.456,252.085 154.589,241.896 		"/>
		<polygon fill="#F6F1F2" points="241.464,241.896 249.338,252.085 250.688,252.085 242.823,241.896 		"/>
		<polygon fill="#F6F1F2" points="273.174,250.048 266.891,241.896 265.536,241.896 273.174,251.794 		"/>
	</g>
	<g>
		<polygon fill="#F6F1F2" points="270.65,252.085 269.296,252.085 273.182,247.054 273.182,248.823 		"/>
		<polygon fill="#F6F1F2" points="166.214,241.896 158.349,252.085 157.002,252.085 164.856,241.896 		"/>
		<polygon fill="#F6F1F2" points="174.235,241.896 166.365,252.085 165.014,252.085 172.88,241.896 		"/>
		<polygon fill="#F6F1F2" points="190.279,241.896 182.413,252.085 181.054,252.085 188.921,241.896 		"/>
		<polygon fill="#F6F1F2" points="214.336,241.896 206.479,252.085 205.119,252.085 212.984,241.896 		"/>
		<polygon fill="#F6F1F2" points="206.319,241.896 198.457,252.085 197.103,252.085 204.969,241.896 		"/>
		<polygon fill="#F6F1F2" points="198.296,241.896 190.433,252.085 189.079,252.085 196.944,241.896 		"/>
		<polygon fill="#F6F1F2" points="222.359,241.896 214.494,252.085 213.143,252.085 221.008,241.896 		"/>
		<polygon fill="#F6F1F2" points="230.384,241.896 222.518,252.085 221.167,252.085 229.025,241.896 		"/>
		<polygon fill="#F6F1F2" points="238.407,241.896 230.542,252.085 229.187,252.085 237.05,241.896 		"/>
		<polygon fill="#F6F1F2" points="246.431,241.896 238.565,252.085 237.206,252.085 245.07,241.896 		"/>
		<polygon fill="#F6F1F2" points="254.452,241.896 246.582,252.085 245.228,252.085 253.098,241.896 		"/>
		<polygon fill="#F6F1F2" points="262.473,241.896 254.605,252.085 253.252,252.085 261.114,241.896 		"/>
		<polygon fill="#F6F1F2" points="270.489,241.896 262.621,252.085 261.272,252.085 269.138,241.896 		"/>
		<polygon fill="#F6F1F2" points="182.263,241.896 174.381,252.085 173.038,252.085 180.905,241.896 		"/>
		<polygon fill="#F6F1F2" points="150.55,250.048 156.836,241.896 158.187,241.896 150.55,251.794 		"/>
	</g>
</g>
<path fill="#828181" d="M38.051,225.55c0,0,8.332-6.406,10.769-14.612c2.354-7.928,5.721-22.247-0.344-32.862
	c-3.767-6.594,3.436,0.135,7.526,1.689c1.54,0.585,1.153,1.027,1.066,1.849c-0.316,3.025-1.998,15.892-0.182,17.407
	c2.306,1.92,5.912-12.526,5.912-12.526l4.043,4.385c0,0-6.855,12.352-9.185,17.753c-2.815,6.539-3.329,11.8-2.942,17.178
	L38.051,225.55z"/>
<path fill="none" d="M43.247,139.551c0,0-1.082-6.364,2.599-9.021c3.688-2.646,7.376,2.393,8.024,0.537
	c0.651-1.859,4.92-4.597,6.385-2.117"/>
<path fill="none" stroke="#8C8C8C" stroke-width="2.0218" stroke-linecap="round" stroke-linejoin="round" stroke-miterlimit="10" d="
	M83.418,130.584c4.229,0,5.387,1.536,5.77,6.526c0.383,4.999,1.923,3.846,5.382,4.233"/>
<path fill="#B02F2A" d="M216.373,54.932c-37.479,0.323-26.315,56.078,0.671,72.923C241.029,110.677,256.88,54.599,216.373,54.932z
	 M228.903,78.57c0,6.715-5.442,12.154-12.158,12.154c-6.714,0-12.152-5.439-12.152-12.154c0-6.713,5.438-12.149,12.152-12.149
	C223.461,66.421,228.903,71.857,228.903,78.57z"/>
<path fill="none" stroke="#474747" stroke-width="2.0218" stroke-linecap="round" stroke-linejoin="round" stroke-miterlimit="10" d="
	M31.914,140.048c1.35-4.026,2.701-5.281,6.452-4.433c3.763,0.853,2.527-8.256,6.065-9.268"/>
<path fill="#B02F2A" d="M129.553,100.763c-2.31,0.229-6.464,0.189-13.805,6.33c-7.068-3.807-10.409-4.585-13.225-4.383
	c-1.801,0.131-4.514,1.568-4.514,1.568s1.77-0.505,3.708-0.253c2.393,0.312,10.698,1.6,13.501,8.309l0.904,2.224l0.624-2.318
	c1.481-5.099,7.531-9.086,12.518-10.153l3.961-0.165C133.226,101.92,130.873,100.633,129.553,100.763z"/>
<path fill="#DD5550" d="M138.66,112.048c-4.233-3.664-8.068-3.044-8.068-3.044s6.662,1.54,8.202,6.413
	c2.05-5.899,6.998-7.665,8.973-8.972C144.472,107.058,140.113,109.964,138.66,112.048z"/>
<linearGradient id="SVGID_1_" gradientUnits="userSpaceOnUse" x1="211.8564" y1="120.1943" x2="216.8081" y2="61.3245">
	<stop  offset="0" style="stop-color:#C44442"/>
	<stop  offset="1" style="stop-color:#E69994"/>
</linearGradient>
<path fill="url(#SVGID_1_)" d="M214.855,54.426c-37.477,0.323-26.314,56.078,0.673,72.925
	C239.514,110.171,255.364,54.093,214.855,54.426z M227.387,78.065c0,6.714-5.441,12.154-12.159,12.154
	c-6.713,0-12.15-5.439-12.15-12.154c0-6.714,5.438-12.149,12.15-12.149C221.945,65.916,227.387,71.351,227.387,78.065z"/>
<path fill="#B02F2A" d="M337.813,132.101c0,1.536-1.247,2.78-2.78,2.78c-1.539,0-2.779-1.244-2.779-2.78s1.24-2.78,2.779-2.78
	C336.565,129.321,337.813,130.565,337.813,132.101z"/>
<path fill="#B02F2A" d="M67.517,233.55c0,0.9-0.454,1.643-1.011,1.643H26.069c-0.561,0-1.011-0.742-1.011-1.643l0,0
	c0-0.917,0.45-1.65,1.011-1.65h40.437C67.063,231.899,67.517,232.633,67.517,233.55L67.517,233.55z"/>
<path fill="#B02F2A" d="M60.44,226.133c0,0.79-0.355,1.414-0.79,1.414H33.423c-0.435,0-0.782-0.624-0.782-1.414l0,0
	c0-0.78,0.347-1.412,0.782-1.412h26.228C60.085,224.721,60.44,225.353,60.44,226.133L60.44,226.133z"/>
<g>
	<g>
		<path fill="none" stroke="#F7F2ED" stroke-width="4.0436" stroke-linecap="round" stroke-linejoin="round" d="M300.026,167.46
			c0,0-0.706-0.103-1.993-0.312"/>
		
			<path fill="none" stroke="#F7F2ED" stroke-width="4.0436" stroke-linecap="round" stroke-linejoin="round" stroke-dasharray="3.8177,7.6355" d="
			M290.518,165.819c-17.402-3.304-54.124-11.733-70.853-26.505"/>
		<path fill="none" stroke="#F7F2ED" stroke-width="4.0436" stroke-linecap="round" stroke-linejoin="round" d="M216.931,136.643
			c-0.463-0.504-0.902-1.015-1.316-1.533"/>
	</g>
</g>
<path fill="#BFBFBF" d="M37.513,166.728c1.105,0.876,2.448,5.923,2.054,8.213c-0.636,3.608,5.469,5.087,7.084,3.411
	c3.412-3.538,5.398,1.479,9.351,3.16c4.774,2.037,2.875,5.078,5.307,7.075c1.753,1.438,3.744,2.292,5.181,3.16
	c2.077,1.264,2.566-1.871,2.507-2.472c-0.13-1.217,0.043-24.234,0.138-34.482c0.023-2.954,3.119-5.5,3.119-5.5
	s1.28-1.836,10.394-1.703c1.085,0.016,2.313-4.723,1.927-8.395c-0.387-3.669-7.187-0.391-9.241-6.551
	c-0.702-2.085-7.811-2.294-11.04-0.262c-3.783,2.375-3.981,7.429-5.221,9.175c-4.62,6.468-9.414,7.514-13.178,6.117
	c-3.763-1.395-10.437,4.727-5.647,9.789C45.04,162.532,30.832,161.482,37.513,166.728z"/>
<g>
	<path fill="#A2A2A3" d="M273.229,237.72c0,0.751-2.755,0.601-6.152,0.601H77.144c-3.396,0-6.148-0.269-6.148-0.601v-5.854
		c0-0.33,2.752-0.601,6.148-0.601h189.932c3.397,0,6.152-0.141,6.152,0.601C273.229,232.609,273.229,236.961,273.229,237.72z"/>
	<path fill="#EAE9E8" d="M273.229,221.514c0,6.484-0.355,6.68-3.751,6.68H77.144c-3.396,0-6.148-2.991-6.148-6.68v-65.086
		c0-3.68,2.752-6.673,6.148-6.673h189.932c3.397,0,6.152,2.993,6.152,6.673V221.514z"/>
	<path fill="#B02F2A" d="M320.711,228.193c0,0,0-47.693,0-49.036c0-1.326-1.193-3.538-1.793-4.154
		c-4.424-4.627-8.854-9.358-12.242-12.746c-1.371-1.375-5.576-1.541-5.576-1.541l-22.88-0.172c0,0-2.686-0.403-2.686,2.866
		c0,2.368,0,42.773,0,64.783H320.711z"/>
	<path fill="#A2A2A3" d="M275.534,231.464c0,6.5,0,10.758,0,10.758h31.142v0.197h12.106c0,0,1.929-0.197,1.929-1.921
		c0-1.729,0-9.034,0-9.034H275.534z"/>
	<path fill="#FFFFFF" d="M281.493,191.186c0-2.882,0-16.333,0-17.484c0-3.847,0.383-4.621,2.312-4.621
		c4.611,0,13.157-0.047,17.675,0c1.65,0.016,2.605-0.087,4.289,2.076c1.678,2.157,7.052,8.089,8.02,9.454
		c0.967,1.382,1.155,4.818,1.155,4.818s0,15.946,0,16.908c0,0.964-0.196,1.161-1.159,1.161c-0.956,0-10.379,0-10.379,0
		s-1.011,0.136-1.752-1.469c-0.743-1.611-5.505-10.062-5.505-10.062s-0.039-0.782-2.157-0.782
		C291.875,191.186,281.493,191.186,281.493,191.186z"/>
	<path fill="#A2A2A3" d="M303.486,201.177c-0.716-1.549-4.657-8.562-5.475-10.015c-0.316-0.829-1.247-1.998-4.021-1.998h-10.476
		v-15.463c0-1.518,0.075-2.243,0.146-2.596c0.039-0.004,12.25-0.027,12.25-0.027c2.1,0,4.042,0.008,5.544,0.023
		c1.523,0.012,1.717,0.016,2.712,1.295c0.829,1.067,2.535,3.025,4.189,4.92c1.564,1.802,3.342,3.839,3.78,4.463
		c0.366,0.53,0.71,2.401,0.786,3.759v15.931l-9.27,0.008C303.611,201.414,303.553,201.317,303.486,201.177z"/>
	<path fill="#EAE9E8" d="M316.066,222.397c0,1.541-0.481,1.541-2.789,1.541c-2.306,0,0,0,0,0c-1.535,0-2.786,0-2.786-1.541v-10.764
		c0-1.541,0.387-1.541,2.786-1.541c2.118,0,0,0,0,0c1.541,0,2.789,0,2.789,1.541V222.397z"/>
	<g>
		<path fill="#B02F2A" d="M128.274,201.5c-1.67,0.577-4.964,1.51-8.846,1.51c-4.359,0-7.949-1.051-10.772-3.626
			c-2.48-2.282-4.016-5.955-4.016-10.228c0.04-8.19,5.939-14.192,15.594-14.192c3.337,0,5.939,0.694,7.183,1.264l-0.896,2.898
			c-1.54-0.655-3.463-1.186-6.365-1.186c-7.013,0-11.586,4.156-11.586,11.057c0,6.959,4.398,11.081,11.112,11.081
			c2.44,0,4.099-0.331,4.955-0.733v-8.198h-5.852v-2.843h9.489V201.5z"/>
		<path fill="#B02F2A" d="M138.249,193.522c0.079,4.843,3.324,6.841,7.092,6.841c2.693,0,4.313-0.441,5.726-1.019l0.64,2.565
			c-1.323,0.577-3.593,1.232-6.879,1.232c-6.37,0-10.176-4.003-10.176-9.95c0-5.955,3.676-10.639,9.702-10.639
			c6.752,0,8.546,5.655,8.546,9.287c0,0.735-0.079,1.313-0.126,1.682H138.249z M149.27,190.949c0.044-2.282-0.982-5.83-5.216-5.83
			c-3.799,0-5.465,3.343-5.766,5.83H149.27z"/>
		<path fill="#B02F2A" d="M159.668,173.779h3.758v28.944h-3.758V173.779z"/>
		<path fill="#B02F2A" d="M171.333,199.06c1.113,0.688,3.08,1.421,4.96,1.421c2.732,0,4.02-1.302,4.02-2.929
			c0-1.714-1.074-2.646-3.846-3.626c-3.72-1.264-5.473-3.221-5.473-5.583c0-3.182,2.693-5.789,7.14-5.789
			c2.092,0,3.933,0.562,5.085,1.217l-0.944,2.614c-0.81-0.491-2.302-1.146-4.229-1.146c-2.223,0-3.459,1.224-3.459,2.685
			c0,1.635,1.236,2.378,3.929,3.348c3.59,1.305,5.43,3.018,5.43,5.947c0,3.476-2.827,5.924-7.74,5.924
			c-2.258,0-4.359-0.536-5.809-1.35L171.333,199.06z"/>
		<path fill="#B02F2A" d="M195.405,177.324v5.672h5.382v2.739h-5.382v10.639c0,2.44,0.726,3.823,2.818,3.823
			c0.987,0,1.711-0.119,2.181-0.236l0.174,2.685c-0.728,0.292-1.88,0.497-3.337,0.497c-1.75,0-3.16-0.536-4.056-1.516
			c-1.069-1.05-1.454-2.813-1.454-5.134v-10.758h-3.206v-2.739h3.206v-4.73L195.405,177.324z"/>
		<path fill="#B02F2A" d="M208.958,193.522c0.086,4.843,3.336,6.841,7.095,6.841c2.692,0,4.316-0.441,5.726-1.019l0.644,2.565
			c-1.325,0.577-3.588,1.232-6.878,1.232c-6.373,0-10.173-4.003-10.173-9.95c0-5.955,3.673-10.639,9.699-10.639
			c6.751,0,8.545,5.655,8.545,9.287c0,0.735-0.086,1.313-0.126,1.682H208.958z M219.981,190.949c0.049-2.282-0.978-5.83-5.204-5.83
			c-3.811,0-5.478,3.343-5.776,5.83H219.981z"/>
		<path fill="#B02F2A" d="M230.376,189.156c0-2.329-0.039-4.32-0.163-6.16h3.29l0.127,3.878h0.174
			c0.935-2.654,3.201-4.32,5.726-4.32c0.423,0,0.726,0.039,1.066,0.119v3.38c-0.384-0.078-0.774-0.12-1.283-0.12
			c-2.646,0-4.525,1.921-5.039,4.605c-0.087,0.489-0.171,1.066-0.171,1.683v10.503h-3.727V189.156z"/>
	</g>
</g>
<g>
	<g>
		<path fill="#FFFFFF" d="M115.211,249.338c0,8.276-6.712,14.997-14.998,14.997c-8.277,0-14.99-6.721-14.99-14.997
			c0-8.271,6.713-15,14.99-15C108.499,234.338,115.211,241.067,115.211,249.338z"/>
		<path fill="#B02F2A" d="M112.131,249.338c0,6.578-5.335,11.925-11.917,11.925c-6.579,0-11.914-5.347-11.914-11.925
			c0-6.581,5.335-11.92,11.914-11.92C106.796,237.418,112.131,242.757,112.131,249.338z"/>
	</g>
	<path fill="#A2A2A3" d="M109.825,249.338c0,5.306-4.3,9.609-9.612,9.609c-5.308,0-9.608-4.304-9.608-9.609
		c0-5.3,4.3-9.612,9.608-9.612C105.525,239.726,109.825,244.038,109.825,249.338z"/>
</g>
<g>
	<g>
		<path fill="#FFFFFF" d="M145.973,249.338c0,8.276-6.721,14.997-14.998,14.997c-8.285,0-14.994-6.721-14.994-14.997
			c0-8.271,6.708-15,14.994-15C139.252,234.338,145.973,241.067,145.973,249.338z"/>
		<path fill="#B02F2A" d="M142.893,249.338c0,6.578-5.339,11.925-11.917,11.925s-11.917-5.347-11.917-11.925
			c0-6.581,5.339-11.92,11.917-11.92S142.893,242.757,142.893,249.338z"/>
	</g>
	<path fill="#A2A2A3" d="M140.586,249.338c0,5.306-4.304,9.609-9.611,9.609c-5.312,0-9.612-4.304-9.612-9.609
		c0-5.3,4.3-9.612,9.612-9.612C136.283,239.726,140.586,244.038,140.586,249.338z"/>
</g>
<g>
	<g>
		<path fill="#FFFFFF" d="M307.829,249.338c0,8.276-6.714,14.997-14.989,14.997c-8.286,0-14.999-6.721-14.999-14.997
			c0-8.271,6.713-15,14.999-15C301.115,234.338,307.829,241.067,307.829,249.338z"/>
		<path fill="#B02F2A" d="M304.757,249.338c0,6.578-5.343,11.925-11.917,11.925c-6.588,0-11.927-5.347-11.927-11.925
			c0-6.581,5.339-11.92,11.927-11.92C299.414,237.418,304.757,242.757,304.757,249.338z"/>
	</g>
	<path fill="#A2A2A3" d="M302.446,249.338c0,5.306-4.308,9.609-9.606,9.609c-5.315,0-9.612-4.304-9.612-9.609
		c0-5.3,4.297-9.612,9.612-9.612C298.139,239.726,302.446,244.038,302.446,249.338z"/>
</g>
<polygon fill="#C1C1C1" points="258.579,147.757 255.04,147.757 255.124,107.887 258.491,107.058 "/>
<polygon fill="#C1C1C1" points="319.991,173.274 316.457,169.563 316.579,92.778 320.181,92.21 "/>
<path fill="#B02F2A" d="M335.585,88.158c-18.84,0.163-13.231,28.195,0.341,36.666C347.984,116.186,355.953,87.991,335.585,88.158z
	 M341.884,100.044c0,3.375-2.733,6.111-6.113,6.111c-3.372,0-6.108-2.737-6.108-6.111c0-3.378,2.736-6.11,6.108-6.11
	C339.15,93.934,341.884,96.666,341.884,100.044z"/>
<linearGradient id="SVGID_2_" gradientUnits="userSpaceOnUse" x1="337.9375" y1="115.5752" x2="329.6828" y2="80.9053">
	<stop  offset="0" style="stop-color:#C44442"/>
	<stop  offset="1" style="stop-color:#E69994"/>
</linearGradient>
<path fill="url(#SVGID_2_)" d="M334.322,88.158c-18.841,0.163-13.234,28.195,0.34,36.666
	C346.721,116.186,354.689,87.991,334.322,88.158z M340.621,100.044c0,3.375-2.734,6.111-6.113,6.111
	c-3.374,0-6.109-2.737-6.109-6.111c0-3.378,2.735-6.11,6.109-6.11C337.887,93.934,340.621,96.666,340.621,100.044z"/>
<g>
	<g>
		<path fill="none" stroke="#F7F2ED" stroke-width="2.7912" stroke-linecap="round" stroke-linejoin="round" d="M329.452,139.18
			c-0.581,0.739-1.182,1.449-1.802,2.132"/>
		
			<path fill="none" stroke="#F7F2ED" stroke-width="2.7912" stroke-linecap="round" stroke-linejoin="round" stroke-dasharray="5.9836,8.9754" d="
			M320.943,147.258c-12.688,9.059-29.023,10.687-38.328,10.664"/>
		<path fill="none" stroke="#F7F2ED" stroke-width="2.7912" stroke-linecap="round" stroke-linejoin="round" d="M278.136,157.769
			c-1.48-0.104-2.45-0.241-2.767-0.33"/>
	</g>
</g>
<path fill="#A2A2A3" d="M358.92,268.362H1.247c1.702,3.563,3.522,7.046,5.43,10.487h346.813
	C355.397,275.408,357.217,271.925,358.92,268.362z"/>
<path fill="#B02F2A" d="M351.171,282.886H8.995c0.924,1.572,1.856,3.143,2.819,4.691h336.538
	C349.315,286.028,350.248,284.458,351.171,282.886z"/>
<path fill="none" stroke="#C6C6C6" stroke-width="4.221" stroke-linecap="round" stroke-linejoin="round" stroke-miterlimit="10" stroke-dasharray="8.4419,12.6629" d="
	M7.156,78.934c0,0,67.315-68.094,130.165-19.686c33.625,25.899,26.343,51.119,72.844,74.37"/>
<path fill="#B02F2A" d="M221.392,136.056c0,2.551-2.069,4.616-4.611,4.616c-2.552,0-4.617-2.065-4.617-4.616
	c0-2.548,2.065-4.612,4.617-4.612C219.322,131.444,221.392,133.507,221.392,136.056z"/>
<linearGradient id="SVGID_3_" gradientUnits="userSpaceOnUse" x1="210.9629" y1="135.3643" x2="219.5557" y2="135.3643">
	<stop  offset="0" style="stop-color:#C44442"/>
	<stop  offset="1" style="stop-color:#DB7D79"/>
</linearGradient>
<circle fill="url(#SVGID_3_)" cx="215.259" cy="135.363" r="4.296"/>
<linearGradient id="SVGID_4_" gradientUnits="userSpaceOnUse" x1="331.2422" y1="131.0898" x2="336.8018" y2="131.0898">
	<stop  offset="0" style="stop-color:#C44442"/>
	<stop  offset="1" style="stop-color:#DB7D79"/>
</linearGradient>
<path fill="url(#SVGID_4_)" d="M336.802,131.09c0,1.536-1.248,2.78-2.78,2.78c-1.54,0-2.779-1.244-2.779-2.78
	c0-1.536,1.239-2.78,2.779-2.78C335.554,128.31,336.802,129.554,336.802,131.09z"/>
</svg>
