<?xml version="1.0" encoding="utf-8"?>
<!-- Generator: Adobe Illustrator 16.0.0, SVG Export Plug-In . SVG Version: 6.00 Build 0)  -->
<!DOCTYPE svg PUBLIC "-//W3C//DTD SVG 1.1//EN" "http://www.w3.org/Graphics/SVG/1.1/DTD/svg11.dtd">
<svg version="1.1" id="Layer_1" xmlns="http://www.w3.org/2000/svg" xmlns:xlink="http://www.w3.org/1999/xlink" x="0px" y="0px"
	 width="380px" height="315px" viewBox="0 0 380 315" enable-background="new 0 0 380 315" xml:space="preserve">
<g>
	<path fill="#D1D1D1" d="M280.225,76.16c-3.494-2.833-8.516-10.125-6.012-13.67c3.486-4.949,1.138-9.656,4.604-13.462
		c3.418-3.744,7.685-1.429,10.089-7.525c1.722-4.32,8.766-4.926,11.98-1.886c2.722,2.58,2.154,9.212-1.872,11.612
		c-4.037,2.42,0.019,2.762-2.957,8.798c-3.223,6.502-6.778,1.154-7.913,7.777C287.325,72.479,279.679,68.518,280.225,76.16z"/>
	<path fill="#B2ADAD" d="M300.143,52.653c5.285-3.139,4.836-11.053,0.743-13.038c-0.234-0.115-0.484-0.25-0.759-0.369
		c-7.959-1.107-9.111,6.781-10.509,9.086c-1.475,2.41-5.674,0.681-8.328,4.164c-1.941,2.544-0.403,7.515-3.028,10.991
		c-3.761,4.962,1.549,12.104,1.549,12.104l0.414,0.32c-0.333-7.279,7.123-3.497,7.919-8.109c1.135-6.623,5.896-1.982,9.051-7.777
		C299.107,56.494,297.997,53.928,300.143,52.653z"/>
</g>
<g>
	<path fill="#D1D1D1" d="M238.36,76.16c-3.485-2.833-8.499-10.125-5.996-13.67c3.474-4.949,1.124-9.656,4.595-13.462
		c3.416-3.744,7.685-1.429,10.103-7.525c1.714-4.32,8.739-4.926,11.967-1.886c2.726,2.58,2.158,9.212-1.888,11.612
		c-4.008,2.42,0.045,2.762-2.935,8.798c-3.226,6.502-6.78,1.154-7.921,7.777C245.476,72.479,237.822,68.518,238.36,76.16z"/>
	<path fill="#B2ADAD" d="M258.287,52.653c5.285-3.139,4.847-11.053,0.741-13.038c-0.236-0.115-0.492-0.25-0.761-0.369
		c-7.961-1.107-9.1,6.781-10.512,9.086c-1.471,2.41-5.681,0.681-8.33,4.164c-1.937,2.544-0.393,7.515-3.023,10.991
		c-3.771,4.962,1.565,12.104,1.565,12.104l0.393,0.32c-0.339-7.279,7.131-3.497,7.925-8.109c1.141-6.623,5.903-1.982,9.057-7.777
		C257.262,56.494,256.143,53.928,258.287,52.653z"/>
</g>
<g>
	<g>
		<path fill="#D1D1D1" d="M162.618,18.264c-3.521,8.062-9.982,2.978-14.504,9.837c-2.956,4.502,0,13.54-5.692,19.794
			c-7.689,8.462,9.412,22.296,9.412,22.296c-0.599-13.847,7.09-5.979,8.175-14.826c1.929-15.784,15.496-10.286,21.247-22.312
			C190.874,12.989,166.663,9.07,162.618,18.264z"/>
	</g>
	<g>
		<path fill="#B2ADAD" d="M165.854,25.354c-2.542,6.84-8.257,2.439-11.997,8.123c-2.451,3.734,0,11.222-4.715,16.389
			c-6.369,6.997,2.692,19.851,2.692,19.851c-0.494-11.478,10.964-6.359,11.863-13.677c1.6-13.059,12.609-8.629,17.586-18.452
			C192.219,15.993,170.375,13.207,165.854,25.354z"/>
	</g>
</g>
<rect x="249.402" y="191.97" fill="#FFFFFF" width="39.384" height="41.77"/>
<g>
	<polygon fill="#D1D1D1" points="175.457,87.241 174.51,77.249 131.954,77.249 131.004,87.241 	"/>
	<polygon fill="#D1D1D1" points="187.249,200.412 176.269,93.439 130.206,93.439 119.231,200.412 	"/>
</g>
<g>
	<polygon fill="#374537" points="282.347,97.137 282.021,92.693 269.888,92.693 269.567,97.137 	"/>
	<polygon fill="#A2A2A3" points="285.394,138.426 282.624,100.927 269.287,100.927 266.512,138.426 	"/>
</g>
<g>
	<g>
		<path fill="#374537" d="M333.742,168.291c-1.961-3.097-5.943,0.233-6.981-2.958c-0.951-2.934,1.706-7.25-2.425-10.978
			c-3.049-2.754-4.522,1.237-6.068-0.296c-1.562-1.517-4.737-2.821-6.094-1.549c-1.353,1.278-3.216,10.762-6.899,7.113
			c-2.488-2.473-6.303-4.326-9.051-4.291v17.312v33.459c0.815-0.815,1.479-1.555,1.464-0.563c-0.027,1.848,2.865,1.068,3.954,0.212
			c1.836-1.45,9.443-4.746,9.322-2.748c-0.081,1.503,4.102,2.547,4.831-0.351c0.724-2.88,4.672,0.555,5.331,0.671
			c0.662,0.107,5.132-2.131,3.532-4.667c-1.609-2.548-2.149-4.648-0.151-7.065c2.01-2.423,4.095-5.332,1.709-7.245
			c-2.395-1.922-1.537-3.875,2.071-5.425C332.45,177.116,335.705,171.395,333.742,168.291z"/>
		<path fill="#A2A2A3" d="M332.765,169.056c-0.314-0.501-0.718-0.765-1.321-0.868c-0.465-0.074-0.976-0.061-1.519-0.044
			c-0.576,0.023-1.165,0.039-1.741-0.055c-1.261-0.219-2.114-0.987-2.53-2.281c-0.415-1.266-0.305-2.635-0.194-3.959
			c0.188-2.289,0.369-4.444-1.886-6.474c-0.44-0.396-0.854-0.638-1.218-0.7c-0.52-0.089-1.001,0.164-1.556,0.463
			c-0.618,0.322-1.319,0.694-2.132,0.557c-0.443-0.081-0.845-0.296-1.203-0.654c-0.84-0.812-2.179-1.511-3.278-1.697
			c-0.694-0.115-1.108-0.005-1.262,0.14c-0.202,0.234-0.662,1.33-0.995,2.128c-1.148,2.781-2.728,6.586-5.51,6.106
			c-0.667-0.117-1.314-0.492-1.951-1.118c-1.953-1.942-4.839-3.514-7.184-3.917c-0.252-0.049-0.647-0.078-1.062-0.078v48.541
			c0.377-0.461,0.357-1.09,1.173-0.918c1.187,0.248,1.156,1.866,2.598,0.877c1.453-0.986,8.41-4.363,10.633-3.981
			c1.07,0.186,1.477,0.987,1.513,1.694c0.126,0.1,0.414,0.265,0.836,0.334c0.329,0.062,1.442,0.173,1.684-0.801
			c0.394-1.571,1.536-2.349,3.042-2.091c1.12,0.194,2.285,0.917,3.135,1.437c0.19,0.115,0.011,0.144,0.476,0.299
			c0.469,0.148,2.096-1.06,2.455-1.932c0.065-0.163,0.108-0.337-0.086-0.646c-1.549-2.444-2.761-5.393-0.031-8.685
			c0.769-0.918,2.545-3.064,2.45-4.357c-0.016-0.224-0.097-0.568-0.603-0.974c-1.703-1.371-1.905-2.731-1.777-3.632
			c0.223-1.62,1.586-2.948,4.165-4.054c2.22-0.965,4.342-3.383,5.036-5.753C333.165,171.131,333.339,169.958,332.765,169.056z"/>
	</g>
	<path fill="none" d="M320.675,171.497c0,0,1.314-3.938-0.496-5.982c-1.831-2.049-4.5,0.791-4.664-0.452
		c-0.174-1.248-2.318-3.402-3.435-1.977"/>
	
		<path fill="none" stroke="#444444" stroke-width="1.2379" stroke-linecap="round" stroke-linejoin="round" stroke-miterlimit="10" d="
		M327.119,172.928c-0.337-2.685-0.969-3.617-3.221-3.445c-2.245,0.171-0.54-5.495-2.455-6.482"/>
	<path fill="#374537" d="M296.88,232.683c0.005,0.583,0.27,1.057,0.595,1.057l23.524-0.037c0.326,0,0.595-0.474,0.589-1.058l0,0
		c0.006-0.591-0.271-1.065-0.594-1.065l-23.524,0.036C297.142,231.615,296.885,232.09,296.88,232.683L296.88,232.683z"/>
	<path fill="#374537" d="M300.992,227.897c0,0.514,0.211,0.911,0.455,0.917l15.262-0.03c0.253,0,0.457-0.406,0.457-0.919l0,0
		c0-0.496-0.207-0.901-0.46-0.901l-15.259,0.023C301.189,226.987,300.998,227.391,300.992,227.897L300.992,227.897z"/>
	<path fill="#BFBFBF" d="M304.666,225.144l0.613,0.091l7.949-0.005c-1.24-1.833-3.22-5.238-3.556-8.95
		c-0.479-5.269-0.847-14.692,3.79-20.838c2.883-3.813-1.985-0.25-4.495,0.334c-0.943,0.217-0.783,0.537-0.823,1.064
		c-0.145,1.953-0.586,10.298-1.791,11.074c-1.536,0.996-2.023-8.537-2.023-8.537l-2.797,2.384c0,0,2.579,8.518,3.327,12.184
		C305.76,218.375,305.477,221.764,304.666,225.144z"/>
	<path fill="#BFBFBF" d="M317.624,176.118c2.778-4.7,0.966-7.112-1.221-6.315c-6.021,2.184-5.145,1.757-4.757-3.822
		c0.09-1.292-1.529-2.569-3.536-2.187c-1.908,0.365-4.212,1.385-4.828,2.59c-1.806,3.574-2.953-3.019-5.246-3.026
		c-0.706,0-1.282,0.049-1.813,0.108v31.827c1.614,0.426,3.26,0.544,4.244,0.375c4.433-0.773,7.12-3.86,9.929-4.135
		c3.44-0.325,6.064-4.255,7.798-7.37C320.668,179.699,316.322,178.313,317.624,176.118z"/>
</g>
<rect x="153" y="144" fill="#374537" width="138" height="3"/>
<g>
	<polygon fill="#374537" points="246.097,97.137 245.758,92.693 233.62,92.693 233.301,97.137 	"/>
	<polygon fill="#A2A2A3" points="249.13,138.426 246.371,100.927 233.029,100.927 230.254,138.426 	"/>
</g>
<path fill="#526752" d="M154.976,147.897v52.515h41.434c4.008,0,7.335,3.129,7.857,7.168l14.607,0.06
	c1.744,0.072,4.688,0.431,6.413,2.158c1.633,1.643,3.645,3.757,5.759,5.976l2.372,2.5c0.894,0.916,2.256,3.297,2.256,5.406v10.06
	h13.924v-35.62h34.864v35.62h8.27v-85.842H154.976z"/>
<g>
	<rect x="209.49" y="160.754" fill="#FFFFFF" width="9.194" height="12.269"/>
	<rect x="220.7" y="160.754" fill="#FFFFFF" width="9.204" height="12.269"/>
	<rect x="231.913" y="160.754" fill="#FFFFFF" width="9.201" height="12.269"/>
	<rect x="209.49" y="174.818" fill="#FFFFFF" width="9.194" height="12.259"/>
	<rect x="220.7" y="174.818" fill="#FFFFFF" width="9.204" height="12.259"/>
	<rect x="231.913" y="174.818" fill="#FFFFFF" width="9.201" height="12.259"/>
</g>
<g>
	<rect x="252.493" y="160.754" fill="#FFFFFF" width="9.19" height="12.269"/>
	<rect x="263.695" y="160.754" fill="#FFFFFF" width="9.2" height="12.269"/>
	<rect x="274.926" y="160.754" fill="#FFFFFF" width="9.181" height="12.269"/>
	<rect x="252.493" y="174.818" fill="#FFFFFF" width="9.19" height="12.259"/>
	<rect x="263.695" y="174.818" fill="#FFFFFF" width="9.2" height="12.259"/>
	<rect x="274.926" y="174.818" fill="#FFFFFF" width="9.181" height="12.259"/>
</g>
<g>
	<g>
		<path fill="#374537" d="M64.899,200.412h71.823c2.047-3.456,3.217-7.012,0.245-9.233c-3.634-2.726-2.846-5.093,1.635-8.802
			c4.484-3.714,1.663-10.186-3.816-13.004c-4.398-2.271-7.451,0.094-8.963-4.815c-1.326-4.32,0.333-8.304-5.977-10.794
			c-5.678-2.241-7.703,3.816-9.799,1.336c-2.816-3.327-10.453-1.998-13.113,0.331c-4.038,3.526-2.652,12.61-6.636,8.628
			c-6.523-6.522-13.917-3.587-15.561,1.766c-1.632,5.36,0.654,11.111-2.281,11.494c-2.946,0.381-8.559-1.206-10.21,5.166
			c-1.165,4.484-0.829,8.132-0.333,10.125C62.277,194.07,63.372,198.008,64.899,200.412z"/>
		<path fill="#A2A2A3" d="M67.482,200.396c0.016,0,0.024,0.011,0.038,0.016h66.85c2.181-3.408,3.327-6.2,1.404-7.642
			c-2.036-1.525-3.047-3.127-3.091-4.9c-0.064-2.75,2.316-5.098,4.654-7.028c1.129-0.934,1.625-2.117,1.471-3.503
			c-0.25-2.319-2.232-4.807-4.933-6.2c-1.334-0.683-2.539-0.854-3.709-1.02c-2.192-0.304-4.925-0.683-6.243-4.979
			c-0.406-1.311-0.565-2.568-0.702-3.674c-0.363-2.871-0.563-4.45-4.104-5.848c-0.626-0.247-1.2-0.371-1.749-0.371
			c-1.221,0-2.2,0.632-3.15,1.248c-0.92,0.589-1.877,1.206-3.05,1.206c-0.7,0-1.722-0.227-2.639-1.311
			c-0.697-0.826-2.163-1.296-4.014-1.296c-2.612,0-5.237,0.931-6.267,1.832c-1.315,1.149-1.958,3.436-2.478,5.279
			c-0.635,2.267-1.358,4.832-3.822,4.832c-1.328,0-2.381-0.894-3.058-1.571c-2.068-2.06-4.322-3.152-6.528-3.152
			c-2.668,0-4.963,1.644-5.716,4.095c-0.613,2.015-0.597,4.179-0.576,6.087c0.033,2.831,0.064,6.355-3.362,6.8
			c-0.565,0.069-1.213,0.082-1.913,0.082h-0.708c-3.004,0-5.043,0.252-5.912,3.605c-1.232,4.747-0.56,8.201-0.326,9.151
			C65.12,197.271,66.772,200.104,67.482,200.396z"/>
	</g>
	<path fill="none" d="M118.511,181.691c0,0,0.919-6.334-2.206-8.979c-3.139-2.639-6.281,2.38-6.824,0.535
		c-0.556-1.854-4.183-4.583-5.434-2.109"/>
	
		<path fill="none" stroke="#8E8E8E" stroke-width="1.992" stroke-linecap="round" stroke-linejoin="round" stroke-miterlimit="10" d="
		M129.143,184.639c1.003-2.194,3.879-8.738-6.972-8.961c-5.463-0.111-1.66-6.126-4.67-7.129"/>
	<path fill="#BFBFBF" d="M79.841,200.248l44.03,0.164c2.092-7.119-8.635-6.561-4.653-11.383c4.015-4.866-3.19-10.708-6.343-9.372
		c-3.15,1.351-5.644,2.989-5.31-2.985c0.108-1.969,0.845-3.689-2.327-5.977c-2.708-1.944-7.714-1.999-8.298,0
		c-1.716,5.924-9.63-1.99-13.616,2.988c-1.512,1.899-3.317,4.979-1.99,9.299c1.329,4.319-5.313,1.331-6.641,5.975
		C73.72,192.367,74.529,198.586,79.841,200.248z"/>
	<path fill="none" stroke="#666666" stroke-width="1.992" stroke-linecap="round" stroke-miterlimit="10" d="M106.637,189.074
		c-3.895-1.486-4.624-2.77-3.889-5.758c0.745-3.001-0.931-2.886-4.029-4.317"/>
</g>
<g>
	<rect x="166.491" y="160.754" fill="#FFFFFF" width="9.202" height="12.269"/>
	<rect x="177.705" y="160.754" fill="#FFFFFF" width="9.205" height="12.269"/>
	<rect x="188.922" y="160.754" fill="#FFFFFF" width="9.198" height="12.269"/>
	<rect x="166.491" y="174.818" fill="#FFFFFF" width="9.202" height="12.259"/>
	<rect x="177.705" y="174.818" fill="#FFFFFF" width="9.205" height="12.259"/>
	<rect x="188.922" y="174.818" fill="#FFFFFF" width="9.198" height="12.259"/>
</g>
<line fill="#374537" x1="153" y1="144" x2="291" y2="144"/>
<g>
	<rect x="114.102" y="268.717" fill="#898783" width="83.962" height="7.394"/>
	<g>
		<g>
			<polygon fill="#F6F1F2" points="115.815,275.887 116.743,275.887 114.077,272.429 114.077,273.643 			"/>
			<polygon fill="#F6F1F2" points="187.539,268.891 192.938,275.887 193.865,275.887 188.467,268.891 			"/>
			<polygon fill="#F6F1F2" points="182.028,268.891 187.429,275.887 188.36,275.887 182.961,268.891 			"/>
			<polygon fill="#F6F1F2" points="171.015,268.891 176.417,275.887 177.342,275.887 171.943,268.891 			"/>
			<polygon fill="#F6F1F2" points="154.487,268.891 159.882,275.887 160.813,275.887 155.417,268.891 			"/>
			<polygon fill="#F6F1F2" points="159.99,268.891 165.391,275.887 166.322,275.887 160.923,268.891 			"/>
			<polygon fill="#F6F1F2" points="165.507,268.891 170.9,275.887 171.831,275.887 166.432,268.891 			"/>
			<polygon fill="#F6F1F2" points="148.978,268.891 154.379,275.887 155.304,275.887 149.906,268.891 			"/>
			<polygon fill="#F6F1F2" points="143.463,268.891 148.87,275.887 149.795,275.887 144.4,268.891 			"/>
			<polygon fill="#F6F1F2" points="137.952,268.891 143.351,275.887 144.287,275.887 138.886,268.891 			"/>
			<polygon fill="#F6F1F2" points="132.452,268.891 137.845,275.887 138.786,275.887 133.376,268.891 			"/>
			<polygon fill="#F6F1F2" points="126.935,268.891 132.344,275.887 133.27,275.887 127.871,268.891 			"/>
			<polygon fill="#F6F1F2" points="121.429,268.891 126.833,275.887 127.766,275.887 122.365,268.891 			"/>
			<polygon fill="#F6F1F2" points="115.925,268.891 121.324,275.887 122.249,275.887 116.854,268.891 			"/>
			<polygon fill="#F6F1F2" points="176.519,268.891 181.92,275.887 182.851,275.887 177.452,268.891 			"/>
			<polygon fill="#F6F1F2" points="198.293,274.484 193.976,268.891 193.048,268.891 198.293,275.674 			"/>
		</g>
		<g>
			<polygon fill="#F6F1F2" points="196.561,275.887 195.627,275.887 198.301,272.429 198.301,273.643 			"/>
			<polygon fill="#F6F1F2" points="124.836,268.891 119.438,275.887 118.505,275.887 123.906,268.891 			"/>
			<polygon fill="#F6F1F2" points="130.34,268.891 124.941,275.887 124.011,275.887 129.417,268.891 			"/>
			<polygon fill="#F6F1F2" points="141.36,268.891 135.959,275.887 135.031,275.887 140.433,268.891 			"/>
			<polygon fill="#F6F1F2" points="157.886,268.891 152.488,275.887 151.555,275.887 156.953,268.891 			"/>
			<polygon fill="#F6F1F2" points="152.377,268.891 146.982,275.887 146.052,275.887 151.453,268.891 			"/>
			<polygon fill="#F6F1F2" points="146.869,268.891 141.471,275.887 140.54,275.887 145.941,268.891 			"/>
			<polygon fill="#F6F1F2" points="163.395,268.891 157.989,275.887 157.063,275.887 162.462,268.891 			"/>
			<polygon fill="#F6F1F2" points="168.904,268.891 163.505,275.887 162.575,275.887 167.971,268.891 			"/>
			<polygon fill="#F6F1F2" points="174.416,268.891 169.017,275.887 168.086,275.887 173.487,268.891 			"/>
			<polygon fill="#F6F1F2" points="179.927,268.891 174.528,275.887 173.592,275.887 178.991,268.891 			"/>
			<polygon fill="#F6F1F2" points="185.436,268.891 180.029,275.887 179.101,275.887 184.505,268.891 			"/>
			<polygon fill="#F6F1F2" points="190.944,268.891 185.543,275.887 184.612,275.887 190.006,268.891 			"/>
			<polygon fill="#F6F1F2" points="196.453,268.891 191.047,275.887 190.119,275.887 195.518,268.891 			"/>
			<polygon fill="#F6F1F2" points="135.859,268.891 130.448,275.887 129.525,275.887 134.926,268.891 			"/>
			<polygon fill="#F6F1F2" points="114.077,274.484 118.397,268.891 119.323,268.891 114.077,275.674 			"/>
		</g>
	</g>
	<g>
		<path fill="#A2A2A3" d="M198.331,266.009c0,0.521-1.89,0.422-4.222,0.422H63.67c-2.332,0-4.226-0.188-4.226-0.422v-4.014
			c0-0.226,1.894-0.405,4.226-0.405h130.439c2.332,0,4.222-0.111,4.222,0.405C198.331,262.51,198.331,265.498,198.331,266.009z"/>
		<path fill="#DDDDDD" d="M198.331,254.89c0,4.454-0.242,4.585-2.58,4.585H63.67c-2.332,0-4.226-2.055-4.226-4.585v-44.703
			c0-2.521,1.894-4.575,4.226-4.575h130.439c2.332,0,4.222,2.054,4.222,4.575V254.89z"/>
		<path fill="#374537" d="M230.939,259.475c0,0,0-32.753,0-33.679c0-0.903-0.817-2.428-1.227-2.846
			c-3.046-3.185-6.085-6.431-8.409-8.755c-0.947-0.95-3.838-1.06-3.838-1.06l-15.706-0.119c0,0-1.848-0.276-1.848,1.965
			c0,1.624,0,29.372,0,44.493H230.939z"/>
		<path fill="#A2A2A3" d="M199.912,261.722c0,4.46,0,7.395,0,7.395h21.392v0.123h8.31c0,0,1.326-0.123,1.326-1.313
			c0-1.191,0-6.205,0-6.205H199.912z"/>
		<path fill="#FFFFFF" d="M204.006,234.059c0-1.977,0-11.218,0-12.007c0-2.644,0.267-3.166,1.587-3.166
			c3.166,0,9.036-0.046,12.139,0c1.139,0,1.79-0.062,2.94,1.417c1.156,1.485,4.853,5.556,5.515,6.497
			c0.661,0.949,0.792,3.308,0.792,3.308s0,10.948,0,11.602c0,0.67-0.139,0.802-0.798,0.802c-0.65,0-7.128,0-7.128,0
			s-0.69,0.102-1.205-1.004c-0.509-1.11-3.774-6.91-3.774-6.91s-0.034-0.538-1.481-0.538
			C211.135,234.059,204.006,234.059,204.006,234.059z"/>
		<path fill="#A2A2A3" d="M219.111,240.925c-0.489-1.066-3.2-5.886-3.762-6.879c-0.218-0.578-0.853-1.38-2.758-1.38h-7.197v-10.614
			c0-1.049,0.053-1.541,0.103-1.788c0.026,0,8.41-0.016,8.41-0.016c1.442,0,2.779,0.008,3.807,0.016
			c1.049,0.008,1.18,0.008,1.863,0.887c0.576,0.741,1.735,2.086,2.881,3.385c1.068,1.237,2.292,2.637,2.597,3.066
			c0.247,0.357,0.483,1.648,0.54,2.576v10.948l-6.367,0.008C219.192,241.08,219.155,241.015,219.111,240.925z"/>
		<path fill="#EAE9E8" d="M227.749,255.488c0,1.069-0.325,1.069-1.912,1.069c-1.585,0,0,0,0,0c-1.058,0-1.915,0-1.915-1.069v-7.391
			c0-1.051,0.266-1.051,1.915-1.051c1.451,0,0,0,0,0c1.056,0,1.912,0,1.912,1.051V255.488z"/>
		<g>
			<path fill="#374537" d="M98.778,241.143c-1.146,0.389-3.405,1.035-6.074,1.035c-2.999,0-5.455-0.727-7.399-2.49
				c-1.697-1.564-2.757-4.087-2.757-7.026c0.033-5.622,4.078-9.746,10.708-9.746c2.294,0,4.083,0.477,4.938,0.867l-0.611,1.99
				c-1.068-0.444-2.383-0.808-4.379-0.808c-4.813,0-7.957,2.854-7.957,7.594c0,4.777,3.021,7.604,7.634,7.604
				c1.673,0,2.816-0.218,3.4-0.501v-5.626h-4.014v-1.953h6.51V241.143z"/>
			<path fill="#374537" d="M105.629,235.663c0.062,3.33,2.289,4.692,4.871,4.692c1.851,0,2.964-0.295,3.936-0.694l0.438,1.768
				c-0.907,0.398-2.467,0.841-4.724,0.841c-4.373,0-6.991-2.747-6.991-6.834c0-4.091,2.532-7.305,6.671-7.305
				c4.632,0,5.861,3.884,5.861,6.372c0,0.514-0.051,0.912-0.088,1.16H105.629z M113.198,233.898
				c0.033-1.574-0.672-4.003-3.577-4.003c-2.606,0-3.758,2.289-3.959,4.003H113.198z"/>
			<path fill="#374537" d="M120.342,222.098h2.585v19.891h-2.585V222.098z"/>
			<path fill="#374537" d="M128.35,239.468c0.772,0.477,2.117,0.98,3.414,0.98c1.875,0,2.757-0.904,2.757-2.023
				c0-1.176-0.74-1.813-2.645-2.482c-2.555-0.872-3.757-2.209-3.757-3.836c0-2.179,1.85-3.976,4.901-3.976
				c1.438,0,2.706,0.391,3.499,0.832l-0.651,1.804c-0.56-0.338-1.584-0.79-2.905-0.79c-1.523,0-2.381,0.837-2.381,1.851
				c0,1.113,0.858,1.618,2.701,2.294c2.472,0.896,3.728,2.063,3.728,4.089c0,2.377-1.942,4.06-5.315,4.06
				c-1.549,0-2.988-0.367-3.986-0.934L128.35,239.468z"/>
			<path fill="#374537" d="M144.881,224.543v3.893h3.702v1.882h-3.702v7.306c0,1.674,0.501,2.623,1.942,2.623
				c0.679,0,1.176-0.084,1.496-0.164l0.116,1.845c-0.498,0.204-1.291,0.343-2.289,0.343c-1.197,0-2.171-0.367-2.784-1.042
				c-0.734-0.727-0.998-1.931-0.998-3.526v-7.384h-2.206v-1.882h2.206v-3.248L144.881,224.543z"/>
			<path fill="#374537" d="M154.193,235.663c0.059,3.33,2.289,4.692,4.869,4.692c1.853,0,2.964-0.295,3.935-0.694l0.438,1.768
				c-0.909,0.398-2.466,0.841-4.723,0.841c-4.374,0-6.983-2.747-6.983-6.834c0-4.091,2.523-7.305,6.657-7.305
				c4.638,0,5.866,3.884,5.866,6.372c0,0.514-0.054,0.912-0.081,1.16H154.193z M161.76,233.898c0.041-1.574-0.667-4.003-3.572-4.003
				c-2.614,0-3.76,2.289-3.964,4.003H161.76z"/>
			<path fill="#374537" d="M168.898,232.661c0-1.599-0.027-2.968-0.113-4.226h2.265l0.081,2.662h0.126
				c0.643-1.823,2.192-2.967,3.927-2.967c0.287,0,0.5,0.024,0.737,0.086v2.318c-0.264-0.061-0.535-0.086-0.885-0.086
				c-1.821,0-3.106,1.324-3.459,3.169c-0.057,0.325-0.118,0.731-0.118,1.15v7.22h-2.561V232.661z"/>
		</g>
	</g>
	<g>
		<g>
			<path fill="#FFFFFF" d="M89.805,273.994c0,5.682-4.607,10.303-10.293,10.303c-5.689,0-10.297-4.621-10.297-10.303
				c0-5.688,4.607-10.304,10.297-10.304C85.197,263.69,89.805,268.306,89.805,273.994z"/>
			<path fill="#374537" d="M87.698,273.994c0,4.521-3.674,8.186-8.187,8.186c-4.517,0-8.18-3.665-8.18-8.186s3.663-8.188,8.18-8.188
				C84.024,265.807,87.698,269.474,87.698,273.994z"/>
		</g>
		<path fill="#A2A2A3" d="M86.114,273.994c0,3.648-2.959,6.599-6.603,6.599c-3.648,0-6.599-2.95-6.599-6.599
			c0-3.641,2.951-6.606,6.599-6.606C83.155,267.388,86.114,270.354,86.114,273.994z"/>
	</g>
	<g>
		<g>
			<path fill="#FFFFFF" d="M110.936,273.994c0,5.682-4.615,10.303-10.296,10.303c-5.694,0-10.299-4.621-10.299-10.303
				c0-5.688,4.605-10.304,10.299-10.304C106.32,263.69,110.936,268.306,110.936,273.994z"/>
			<path fill="#374537" d="M108.819,273.994c0,4.521-3.666,8.186-8.18,8.186c-4.524,0-8.185-3.665-8.185-8.186
				s3.661-8.188,8.185-8.188C105.153,265.807,108.819,269.474,108.819,273.994z"/>
		</g>
		<path fill="#A2A2A3" d="M107.237,273.994c0,3.648-2.956,6.599-6.598,6.599c-3.647,0-6.606-2.95-6.606-6.599
			c0-3.641,2.959-6.606,6.606-6.606C104.281,267.388,107.237,270.354,107.237,273.994z"/>
	</g>
	<g>
		<g>
			<path fill="#FFFFFF" d="M222.093,273.994c0,5.682-4.616,10.303-10.295,10.303c-5.688,0-10.302-4.621-10.302-10.303
				c0-5.688,4.613-10.304,10.302-10.304C217.477,263.69,222.093,268.306,222.093,273.994z"/>
			<path fill="#374537" d="M219.98,273.994c0,4.521-3.674,8.186-8.183,8.186c-4.525,0-8.192-3.665-8.192-8.186
				s3.667-8.188,8.192-8.188C216.307,265.807,219.98,269.474,219.98,273.994z"/>
		</g>
		<path fill="#A2A2A3" d="M218.396,273.994c0,3.648-2.958,6.599-6.599,6.599c-3.652,0-6.598-2.95-6.598-6.599
			c0-3.641,2.945-6.606,6.598-6.606C215.438,267.388,218.396,270.354,218.396,273.994z"/>
	</g>
</g>
<path fill="#A2A2A3" d="M9.844,291.729h360.309c3.023-1.964,5.955-3.968,8.825-6.031H1.022
	C3.892,287.762,6.821,289.766,9.844,291.729z"/>
<path fill="#374537" d="M17.954,302.093h344.092c1.485-0.879,2.925-1.791,4.365-6.063H13.589
	C15.036,300.302,16.475,301.214,17.954,302.093z"/>
<g>
	<path fill="#374537" d="M60.426,122.575c0,0,13.013,1.45,16.776,10.7c2.023-7.515,9.759-11.886,15.036-13.013
		c0,0-7.13,0.126-15.472,7.329C65.217,121.243,60.426,122.575,60.426,122.575z"/>
	<path fill="#526752" d="M112.778,125.76c-2.229,1.477-7.811,3.469-10.122,10.122c-1.74-5.498-9.255-7.236-9.255-7.236
		s4.322-0.699,9.103,3.44C104.144,129.729,109.061,126.45,112.778,125.76z"/>
</g>
</svg>
