<?xml version="1.0" encoding="utf-8"?>
<!-- Generator: Adobe Illustrator 16.0.0, SVG Export Plug-In . SVG Version: 6.00 Build 0)  -->
<!DOCTYPE svg PUBLIC "-//W3C//DTD SVG 1.1//EN" "http://www.w3.org/Graphics/SVG/1.1/DTD/svg11.dtd">
<svg version="1.1" id="Layer_1" xmlns="http://www.w3.org/2000/svg" xmlns:xlink="http://www.w3.org/1999/xlink" x="0px" y="0px"
	 width="380px" height="315px" viewBox="0 0 380 315" enable-background="new 0 0 380 315" xml:space="preserve">
<g>
	<g>
		<path fill="#C6C6C6" d="M189.72,282.857c0,0-0.001,0-0.002,0c-1.289-0.003-2.573-0.021-3.853-0.057
			c-0.529-0.015-0.945-0.455-0.931-0.983c0.015-0.528,0.475-0.921,0.983-0.931c1.264,0.035,2.532,0.054,3.804,0.057
			c0.528,0.001,0.956,0.431,0.955,0.959C190.676,282.431,190.248,282.857,189.72,282.857z M195.462,282.763
			c-0.513,0-0.938-0.406-0.956-0.923c-0.019-0.528,0.395-0.972,0.923-0.991c1.271-0.045,2.538-0.106,3.801-0.183
			c0.517-0.054,0.981,0.369,1.013,0.897c0.032,0.527-0.369,0.981-0.897,1.013c-1.278,0.078-2.561,0.14-3.848,0.187
			C195.485,282.763,195.474,282.763,195.462,282.763z M180.157,282.535c-0.021,0-0.042,0-0.064-0.002
			c-1.285-0.084-2.565-0.185-3.84-0.301c-0.527-0.048-0.915-0.514-0.867-1.04c0.048-0.526,0.508-0.917,1.04-0.866
			c1.259,0.114,2.524,0.213,3.793,0.297c0.527,0.034,0.927,0.49,0.892,1.018C181.078,282.147,180.657,282.535,180.157,282.535z
			 M205.01,282.119c-0.486,0-0.902-0.368-0.951-0.862c-0.053-0.525,0.331-0.995,0.857-1.047c1.266-0.127,2.525-0.269,3.78-0.426
			c0.528-0.063,1.004,0.307,1.069,0.831s-0.307,1.003-0.831,1.069c-1.271,0.159-2.548,0.303-3.829,0.43
			C205.073,282.118,205.041,282.119,205.01,282.119z M170.634,281.606c-0.042,0-0.083-0.002-0.125-0.008
			c-1.277-0.166-2.549-0.348-3.815-0.547c-0.522-0.081-0.879-0.571-0.797-1.094c0.083-0.521,0.573-0.883,1.094-0.797
			c1.25,0.195,2.504,0.375,3.765,0.539c0.524,0.068,0.894,0.549,0.826,1.072C171.519,281.255,171.107,281.606,170.634,281.606z
			 M214.496,280.869c-0.46,0-0.866-0.332-0.943-0.801c-0.087-0.521,0.267-1.015,0.788-1.101c1.255-0.208,2.504-0.43,3.746-0.668
			c0.521-0.099,1.021,0.241,1.12,0.761c0.1,0.519-0.241,1.021-0.761,1.12c-1.258,0.24-2.522,0.466-3.793,0.676
			C214.601,280.865,214.548,280.869,214.496,280.869z M161.188,280.067c-0.061,0-0.123-0.006-0.185-0.018
			c-1.264-0.248-2.521-0.512-3.772-0.791c-0.516-0.116-0.841-0.628-0.725-1.144c0.115-0.516,0.628-0.841,1.143-0.726
			c1.234,0.277,2.475,0.537,3.722,0.781c0.519,0.102,0.857,0.604,0.755,1.124C162.037,279.751,161.637,280.067,161.188,280.067z
			 M223.883,279.008c-0.435,0-0.828-0.298-0.932-0.739c-0.12-0.515,0.2-1.029,0.715-1.15c1.238-0.289,2.47-0.592,3.694-0.91
			c0.513-0.129,1.034,0.174,1.168,0.686c0.133,0.512-0.174,1.035-0.686,1.168c-1.24,0.322-2.487,0.629-3.741,0.922
			C224.028,279,223.955,279.008,223.883,279.008z M151.863,277.92c-0.081,0-0.164-0.011-0.246-0.033
			c-1.245-0.33-2.482-0.675-3.712-1.037c-0.507-0.148-0.797-0.681-0.648-1.188c0.149-0.507,0.684-0.801,1.188-0.647
			c1.214,0.356,2.435,0.697,3.663,1.023c0.511,0.135,0.815,0.659,0.68,1.17C152.674,277.636,152.287,277.92,151.863,277.92z
			 M233.129,276.539c-0.411,0-0.791-0.267-0.916-0.681c-0.153-0.506,0.133-1.04,0.639-1.193c1.217-0.369,2.426-0.752,3.627-1.15
			c0.501-0.162,1.043,0.106,1.21,0.608c0.166,0.502-0.106,1.043-0.608,1.21c-1.217,0.402-2.441,0.791-3.674,1.164
			C233.314,276.525,233.221,276.539,233.129,276.539z M142.697,275.165c-0.101,0-0.204-0.017-0.306-0.051
			c-1.22-0.411-2.432-0.838-3.636-1.279c-0.497-0.182-0.751-0.731-0.569-1.228c0.182-0.496,0.731-0.752,1.229-0.569
			c1.188,0.436,2.384,0.856,3.588,1.262c0.501,0.169,0.771,0.712,0.602,1.213C143.47,274.912,143.097,275.165,142.697,275.165z
			 M242.192,273.467c-0.387,0-0.752-0.237-0.896-0.621c-0.186-0.495,0.064-1.047,0.56-1.233c1.189-0.446,2.369-0.909,3.541-1.387
			c0.489-0.199,1.048,0.036,1.248,0.525c0.199,0.49-0.036,1.049-0.525,1.248c-1.188,0.483-2.385,0.952-3.59,1.406
			C242.418,273.446,242.305,273.467,242.192,273.467z M133.734,271.812c-0.122,0-0.245-0.023-0.364-0.073
			c-1.19-0.49-2.372-0.996-3.544-1.519c-0.483-0.215-0.7-0.781-0.485-1.264c0.215-0.483,0.782-0.7,1.264-0.484
			c1.155,0.515,2.32,1.013,3.494,1.497c0.489,0.201,0.722,0.761,0.521,1.25C134.467,271.588,134.11,271.812,133.734,271.812z
			 M251.033,269.8c-0.364,0-0.712-0.209-0.872-0.562c-0.219-0.481-0.007-1.049,0.475-1.268c1.156-0.526,2.304-1.066,3.441-1.62
			c0.477-0.235,1.049-0.034,1.279,0.441c0.231,0.476,0.034,1.048-0.441,1.279c-1.153,0.562-2.314,1.109-3.486,1.642
			C251.3,269.771,251.165,269.8,251.033,269.8z M125.013,267.868c-0.143,0-0.287-0.031-0.423-0.099
			c-1.154-0.569-2.299-1.153-3.433-1.751c-0.468-0.246-0.647-0.825-0.4-1.293s0.826-0.647,1.293-0.4
			c1.119,0.59,2.249,1.166,3.387,1.728c0.474,0.233,0.669,0.808,0.435,1.282C125.706,267.673,125.366,267.868,125.013,267.868z
			 M259.607,265.55c-0.341,0-0.671-0.182-0.844-0.503c-0.251-0.466-0.077-1.046,0.389-1.297c1.119-0.603,2.227-1.219,3.324-1.848
			c0.46-0.266,1.044-0.104,1.307,0.354c0.264,0.459,0.104,1.044-0.354,1.307c-1.113,0.639-2.236,1.263-3.369,1.873
			C259.916,265.514,259.761,265.55,259.607,265.55z M116.578,263.349c-0.163,0-0.328-0.041-0.479-0.129
			c-1.117-0.648-2.224-1.311-3.319-1.987c-0.45-0.277-0.589-0.867-0.312-1.317c0.278-0.449,0.868-0.589,1.317-0.312
			c1.081,0.667,2.172,1.321,3.274,1.96c0.457,0.266,0.613,0.852,0.348,1.309C117.229,263.178,116.908,263.349,116.578,263.349z
			 M267.877,260.729c-0.318,0-0.629-0.158-0.812-0.447c-0.281-0.447-0.146-1.038,0.301-1.32c1.073-0.676,2.138-1.365,3.189-2.068
			c0.442-0.294,1.035-0.174,1.328,0.264c0.294,0.44,0.176,1.034-0.264,1.328c-1.067,0.713-2.146,1.412-3.234,2.098
			C268.228,260.682,268.051,260.729,267.877,260.729z M108.445,258.251c-0.184,0-0.371-0.053-0.535-0.164
			c-1.07-0.723-2.128-1.459-3.175-2.209c-0.429-0.309-0.528-0.906-0.22-1.336c0.308-0.429,0.906-0.529,1.336-0.221
			c1.032,0.74,2.075,1.467,3.13,2.18c0.438,0.296,0.553,0.891,0.257,1.329C109.054,258.104,108.752,258.251,108.445,258.251z
			 M275.783,255.366c-0.296,0-0.587-0.136-0.774-0.393c-0.312-0.428-0.218-1.026,0.209-1.338c1.022-0.745,2.032-1.504,3.03-2.275
			c0.42-0.323,1.021-0.247,1.343,0.171c0.324,0.418,0.247,1.02-0.171,1.343c-1.012,0.783-2.037,1.552-3.073,2.309
			C276.176,255.307,275.979,255.366,275.783,255.366z M100.686,252.606c-0.207,0-0.414-0.066-0.589-0.203
			c-1.016-0.794-2.021-1.603-3.012-2.424c-0.407-0.337-0.464-0.94-0.126-1.348c0.336-0.407,0.94-0.464,1.348-0.127
			c0.978,0.81,1.967,1.606,2.97,2.391c0.417,0.325,0.49,0.927,0.165,1.344C101.251,252.48,100.97,252.606,100.686,252.606z
			 M283.292,249.477c-0.272,0-0.543-0.115-0.732-0.34c-0.34-0.404-0.289-1.009,0.115-1.35c0.968-0.815,1.924-1.643,2.866-2.482
			c0.396-0.351,0.999-0.315,1.352,0.078c0.352,0.395,0.316,1-0.078,1.352c-0.956,0.852-1.924,1.69-2.905,2.518
			C283.729,249.403,283.511,249.477,283.292,249.477z M93.34,246.438c-0.228,0-0.458-0.081-0.641-0.246
			c-0.958-0.863-1.902-1.74-2.833-2.63c-0.382-0.366-0.396-0.972-0.03-1.354c0.366-0.384,0.972-0.396,1.354-0.031
			c0.917,0.878,1.848,1.741,2.792,2.593c0.393,0.354,0.424,0.959,0.07,1.352C93.862,246.331,93.602,246.438,93.34,246.438z
			 M290.374,243.076c-0.25,0-0.499-0.097-0.687-0.29c-0.368-0.379-0.359-0.985,0.02-1.354c0.908-0.883,1.804-1.775,2.685-2.681
			c0.368-0.379,0.974-0.386,1.354-0.019c0.379,0.369,0.387,0.976,0.019,1.354c-0.894,0.917-1.801,1.823-2.723,2.718
			C290.854,242.986,290.614,243.076,290.374,243.076z M86.454,239.767c-0.251,0-0.502-0.098-0.69-0.294
			c-0.893-0.93-1.772-1.871-2.636-2.825c-0.355-0.392-0.325-0.997,0.067-1.353c0.393-0.354,0.998-0.324,1.352,0.067
			c0.852,0.94,1.718,1.868,2.598,2.784c0.366,0.381,0.354,0.987-0.027,1.354C86.932,239.679,86.693,239.767,86.454,239.767z
			 M296.986,236.185c-0.228,0-0.455-0.08-0.638-0.243c-0.395-0.353-0.429-0.957-0.076-1.352c0.843-0.944,1.671-1.9,2.484-2.866
			c0.34-0.404,0.942-0.459,1.349-0.116c0.404,0.341,0.457,0.944,0.116,1.349c-0.825,0.981-1.665,1.951-2.521,2.909
			C297.511,236.077,297.249,236.185,296.986,236.185z M80.067,232.621c-0.275,0-0.547-0.117-0.737-0.346
			c-0.823-0.99-1.631-1.993-2.423-3.007c-0.326-0.417-0.251-1.019,0.165-1.344c0.416-0.326,1.018-0.252,1.344,0.164
			c0.781,1,1.577,1.987,2.387,2.964c0.338,0.406,0.282,1.01-0.125,1.348C80.5,232.549,80.283,232.621,80.067,232.621z
			 M303.084,228.83c-0.204,0-0.409-0.064-0.583-0.198c-0.419-0.323-0.497-0.924-0.175-1.343c0.772-1.003,1.528-2.017,2.27-3.041
			c0.309-0.428,0.909-0.525,1.336-0.215c0.429,0.31,0.525,0.907,0.215,1.336c-0.751,1.04-1.519,2.069-2.303,3.088
			C303.655,228.702,303.371,228.83,303.084,228.83z M74.225,225.03c-0.299,0-0.594-0.14-0.781-0.401
			c-0.747-1.048-1.478-2.106-2.192-3.176c-0.294-0.439-0.176-1.034,0.264-1.328c0.438-0.295,1.034-0.177,1.328,0.264
			c0.704,1.054,1.424,2.097,2.16,3.129c0.307,0.431,0.207,1.028-0.224,1.335C74.611,224.973,74.417,225.03,74.225,225.03z
			 M308.626,221.043c-0.181,0-0.362-0.051-0.524-0.157c-0.442-0.29-0.565-0.883-0.274-1.325c0.694-1.059,1.374-2.127,2.037-3.205
			c0.276-0.451,0.863-0.59,1.317-0.313c0.45,0.277,0.591,0.866,0.313,1.317c-0.673,1.094-1.362,2.178-2.068,3.252
			C309.243,220.892,308.938,221.043,308.626,221.043z M313.572,212.858c-0.156,0-0.315-0.038-0.463-0.119
			c-0.462-0.256-0.63-0.839-0.374-1.302c0.613-1.108,1.21-2.226,1.788-3.352c0.242-0.469,0.82-0.655,1.289-0.414
			c0.471,0.241,0.655,0.818,0.414,1.289c-0.588,1.144-1.192,2.278-1.815,3.404C314.236,212.681,313.909,212.858,313.572,212.858z
			 M326.632,177.003c-0.061,0-0.121-0.005-0.183-0.018c-0.52-0.1-0.858-0.603-0.758-1.121c0.24-1.241,0.46-2.487,0.66-3.74
			c0.084-0.521,0.565-0.875,1.097-0.794c0.522,0.084,0.878,0.574,0.794,1.097c-0.204,1.272-0.428,2.54-0.672,3.801
			C327.482,176.686,327.081,177.003,326.632,177.003z M52.696,172.409c-0.465,0-0.873-0.339-0.945-0.813
			c-0.194-1.269-0.368-2.544-0.522-3.823c-0.063-0.525,0.312-1.002,0.836-1.064c0.535-0.063,1.002,0.312,1.065,0.836
			c0.151,1.26,0.322,2.514,0.513,3.763c0.08,0.522-0.279,1.011-0.802,1.091C52.792,172.406,52.744,172.409,52.696,172.409z
			 M328.068,167.543c-0.035,0-0.071-0.002-0.107-0.006c-0.525-0.059-0.903-0.532-0.845-1.058c0.141-1.254,0.261-2.515,0.36-3.779
			c0.041-0.528,0.509-0.925,1.029-0.879c0.527,0.041,0.921,0.502,0.879,1.029c-0.102,1.286-0.224,2.566-0.366,3.842
			C328.964,167.182,328.55,167.543,328.068,167.543z M51.628,162.903c-0.498,0-0.917-0.384-0.954-0.888
			c-0.093-1.28-0.165-2.564-0.217-3.854c-0.021-0.528,0.39-0.974,0.918-0.995c0.545-0.011,0.974,0.39,0.995,0.918
			c0.051,1.268,0.122,2.532,0.213,3.791c0.039,0.527-0.358,0.986-0.886,1.024C51.674,162.902,51.651,162.903,51.628,162.903z
			 M328.748,158.001c-0.011,0-0.021,0-0.031,0c-0.528-0.017-0.943-0.459-0.927-0.987c0.04-1.26,0.061-2.526,0.061-3.796
			c0-0.529,0.429-0.958,0.957-0.958s0.957,0.429,0.957,0.958c0,1.291-0.021,2.576-0.061,3.857
			C329.688,157.592,329.263,158.001,328.748,158.001z M51.317,153.34c-0.002,0-0.004,0-0.006,0
			c-0.529-0.004-0.955-0.436-0.951-0.964c0.009-1.291,0.038-2.576,0.087-3.857c0.02-0.529,0.47-0.941,0.993-0.92
			c0.528,0.02,0.94,0.465,0.92,0.993c-0.048,1.261-0.077,2.526-0.086,3.796C52.271,152.916,51.843,153.34,51.317,153.34z
			 M328.738,150.106c-0.514,0-0.938-0.408-0.956-0.925c-0.042-1.27-0.104-2.534-0.187-3.793c-0.034-0.528,0.365-0.983,0.893-1.018
			c0.525-0.038,0.982,0.365,1.018,0.893c0.084,1.28,0.146,2.564,0.19,3.854c0.018,0.528-0.396,0.971-0.925,0.989
			C328.761,150.106,328.75,150.106,328.738,150.106z M51.761,143.784c-0.027,0-0.055-0.001-0.083-0.004
			c-0.527-0.045-0.917-0.509-0.872-1.036c0.11-1.285,0.242-2.564,0.392-3.838c0.062-0.525,0.543-0.895,1.063-0.838
			c0.525,0.062,0.9,0.538,0.838,1.063c-0.148,1.254-0.277,2.513-0.386,3.777C52.67,143.408,52.252,143.784,51.761,143.784z
			 M328.04,140.565c-0.48,0-0.895-0.361-0.95-0.849c-0.144-1.261-0.306-2.517-0.488-3.766c-0.076-0.523,0.286-1.009,0.81-1.085
			c0.526-0.078,1.009,0.287,1.085,0.809c0.186,1.27,0.351,2.545,0.496,3.826c0.06,0.525-0.317,1-0.843,1.06
			C328.112,140.563,328.076,140.565,328.04,140.565z M52.961,134.293c-0.052,0-0.105-0.004-0.159-0.013
			c-0.521-0.087-0.874-0.581-0.787-1.102c0.213-1.271,0.445-2.537,0.697-3.795c0.104-0.519,0.612-0.852,1.126-0.75
			c0.519,0.104,0.854,0.608,0.75,1.126c-0.248,1.239-0.477,2.483-0.686,3.734C53.826,133.962,53.421,134.293,52.961,134.293z
			 M326.585,131.11c-0.448,0-0.85-0.317-0.938-0.774c-0.243-1.244-0.506-2.483-0.788-3.715c-0.117-0.515,0.205-1.029,0.72-1.146
			c0.514-0.118,1.029,0.203,1.147,0.72c0.286,1.251,0.553,2.51,0.8,3.774c0.102,0.519-0.237,1.021-0.756,1.123
			C326.708,131.104,326.646,131.11,326.585,131.11z M54.914,124.928c-0.077,0-0.155-0.009-0.233-0.029
			c-0.513-0.128-0.824-0.648-0.696-1.162c0.314-1.253,0.648-2.499,1-3.737c0.145-0.509,0.672-0.806,1.183-0.659
			c0.508,0.145,0.803,0.674,0.659,1.183c-0.347,1.219-0.675,2.445-0.984,3.679C55.733,124.638,55.343,124.928,54.914,124.928z
			 M324.379,121.801c-0.418,0-0.803-0.277-0.921-0.7c-0.341-1.221-0.701-2.434-1.08-3.641c-0.158-0.504,0.122-1.042,0.626-1.2
			c0.506-0.159,1.043,0.122,1.2,0.627c0.385,1.225,0.751,2.458,1.098,3.699c0.143,0.509-0.155,1.037-0.664,1.179
			C324.551,121.79,324.465,121.801,324.379,121.801z M57.613,115.728c-0.101,0-0.205-0.016-0.306-0.05
			c-0.501-0.169-0.771-0.712-0.602-1.213c0.412-1.222,0.843-2.436,1.292-3.642c0.185-0.496,0.735-0.748,1.231-0.563
			c0.495,0.185,0.747,0.736,0.563,1.231c-0.442,1.187-0.867,2.382-1.272,3.584C58.386,115.476,58.013,115.728,57.613,115.728z
			 M321.446,112.708c-0.39,0-0.757-0.24-0.898-0.628c-0.436-1.186-0.889-2.365-1.36-3.536c-0.198-0.491,0.039-1.048,0.53-1.246
			c0.49-0.198,1.047,0.04,1.245,0.53c0.479,1.189,0.94,2.387,1.382,3.592c0.183,0.496-0.072,1.046-0.568,1.229
			C321.667,112.688,321.556,112.708,321.446,112.708z M61.028,106.778c-0.125,0-0.253-0.025-0.375-0.077
			c-0.486-0.208-0.712-0.771-0.504-1.256c0.506-1.184,1.03-2.359,1.572-3.526c0.223-0.48,0.793-0.686,1.271-0.465
			c0.479,0.223,0.688,0.792,0.465,1.271c-0.534,1.149-1.05,2.306-1.548,3.471C61.753,106.56,61.399,106.778,61.028,106.778z
			 M317.809,103.876c-0.363,0-0.71-0.207-0.871-0.559c-0.527-1.15-1.072-2.292-1.634-3.424c-0.235-0.474-0.042-1.048,0.432-1.283
			c0.475-0.236,1.049-0.041,1.283,0.432c0.571,1.15,1.124,2.31,1.659,3.477c0.221,0.48,0.01,1.049-0.471,1.269
			C318.077,103.848,317.941,103.876,317.809,103.876z M81.17,74.418c-0.22,0-0.44-0.075-0.621-0.229
			c-0.402-0.343-0.45-0.947-0.107-1.35c0.832-0.975,1.678-1.939,2.539-2.892c0.354-0.393,0.959-0.424,1.352-0.069
			c0.393,0.354,0.423,0.96,0.069,1.352c-0.849,0.939-1.683,1.889-2.502,2.851C81.709,74.304,81.44,74.418,81.17,74.418z
			 M87.626,67.379c-0.243,0-0.485-0.092-0.672-0.276c-0.376-0.371-0.381-0.977-0.01-1.354c0.899-0.913,1.812-1.813,2.739-2.701
			c0.382-0.365,0.988-0.353,1.354,0.029c0.366,0.382,0.353,0.988-0.029,1.354c-0.913,0.875-1.813,1.762-2.7,2.662
			C88.121,67.283,87.873,67.379,87.626,67.379z M94.566,60.821c-0.266,0-0.53-0.11-0.719-0.325
			c-0.349-0.396-0.311-1.001,0.086-1.351c0.96-0.846,1.934-1.678,2.92-2.499c0.407-0.337,1.011-0.283,1.348,0.124
			c0.338,0.406,0.283,1.01-0.124,1.348c-0.973,0.809-1.933,1.631-2.88,2.465C95.016,60.742,94.791,60.821,94.566,60.821z
			 M283.063,58.681c-0.217,0-0.435-0.074-0.614-0.224c-0.973-0.815-1.958-1.618-2.955-2.408c-0.415-0.328-0.485-0.93-0.157-1.345
			c0.329-0.414,0.93-0.485,1.345-0.156c1.013,0.801,2.012,1.615,2.998,2.441c0.405,0.34,0.458,0.943,0.118,1.349
			C283.608,58.564,283.337,58.681,283.063,58.681z M101.947,54.769c-0.288,0-0.573-0.13-0.761-0.376
			c-0.321-0.42-0.24-1.021,0.18-1.342c1.017-0.776,2.046-1.54,3.086-2.289c0.429-0.309,1.027-0.212,1.336,0.217
			c0.309,0.429,0.212,1.027-0.217,1.336c-1.025,0.739-2.041,1.491-3.043,2.257C102.354,54.705,102.15,54.769,101.947,54.769z
			 M275.502,52.779c-0.194,0-0.392-0.06-0.562-0.183c-1.027-0.746-2.067-1.479-3.118-2.198c-0.437-0.299-0.548-0.895-0.249-1.331
			c0.299-0.436,0.893-0.547,1.331-0.249c1.064,0.729,2.118,1.472,3.161,2.228c0.428,0.311,0.522,0.909,0.212,1.337
			C276.091,52.642,275.799,52.779,275.502,52.779z M109.727,49.244c-0.311,0-0.616-0.151-0.8-0.431
			c-0.291-0.441-0.169-1.035,0.272-1.326c1.071-0.706,2.153-1.399,3.246-2.078c0.449-0.28,1.039-0.141,1.318,0.308
			c0.279,0.449,0.141,1.04-0.308,1.318c-1.078,0.67-2.146,1.354-3.203,2.051C110.091,49.193,109.908,49.244,109.727,49.244z
			 M267.544,47.413c-0.173,0-0.349-0.047-0.507-0.146c-1.076-0.673-2.164-1.333-3.262-1.979c-0.456-0.268-0.607-0.855-0.34-1.311
			c0.269-0.456,0.854-0.61,1.311-0.34c1.113,0.655,2.215,1.324,3.307,2.006c0.448,0.28,0.584,0.871,0.304,1.319
			C268.175,47.253,267.863,47.413,267.544,47.413z M117.891,44.25c-0.334,0-0.658-0.175-0.834-0.486
			c-0.261-0.46-0.099-1.044,0.362-1.305c1.116-0.632,2.243-1.25,3.379-1.853c0.467-0.248,1.046-0.071,1.294,0.397
			c0.248,0.467,0.07,1.046-0.397,1.294c-1.121,0.595-2.233,1.205-3.334,1.828C118.212,44.21,118.05,44.25,117.891,44.25z
			 M259.251,42.61c-0.152,0-0.307-0.037-0.45-0.113c-1.115-0.597-2.242-1.179-3.378-1.748c-0.473-0.236-0.664-0.812-0.428-1.284
			s0.81-0.665,1.285-0.428c1.151,0.576,2.292,1.167,3.423,1.771c0.467,0.25,0.643,0.83,0.393,1.296
			C259.924,42.426,259.593,42.61,259.251,42.61z M126.373,39.82c-0.356,0-0.699-0.2-0.863-0.543
			c-0.229-0.477-0.028-1.048,0.449-1.277c1.156-0.555,2.322-1.096,3.497-1.622c0.482-0.214,1.049,0,1.265,0.483
			c0.216,0.482,0,1.049-0.483,1.265c-1.16,0.519-2.309,1.052-3.45,1.599C126.653,39.79,126.512,39.82,126.373,39.82z
			 M250.665,38.385c-0.131,0-0.265-0.027-0.393-0.084c-1.154-0.52-2.316-1.026-3.487-1.518c-0.488-0.205-0.717-0.766-0.513-1.253
			c0.205-0.488,0.767-0.716,1.253-0.512c1.187,0.498,2.364,1.01,3.534,1.537c0.481,0.217,0.696,0.784,0.479,1.266
			C251.379,38.175,251.03,38.385,250.665,38.385z M135.134,35.97c-0.38,0-0.74-0.228-0.889-0.602
			c-0.197-0.491,0.042-1.048,0.533-1.244c1.19-0.477,2.389-0.938,3.596-1.384c0.494-0.184,1.046,0.07,1.23,0.566
			c0.183,0.496-0.07,1.046-0.566,1.23c-1.191,0.44-2.375,0.896-3.549,1.366C135.373,35.948,135.252,35.97,135.134,35.97z
			 M241.815,34.743c-0.111,0-0.225-0.02-0.334-0.061c-1.187-0.442-2.38-0.87-3.582-1.282c-0.5-0.171-0.767-0.716-0.595-1.216
			c0.171-0.5,0.717-0.768,1.216-0.595c1.218,0.417,2.427,0.851,3.629,1.299c0.496,0.185,0.748,0.736,0.563,1.231
			C242.568,34.505,242.203,34.743,241.815,34.743z M144.131,32.71c-0.404,0-0.779-0.257-0.91-0.661
			c-0.164-0.503,0.111-1.043,0.614-1.207c1.219-0.397,2.446-0.778,3.681-1.144c0.506-0.151,1.04,0.139,1.189,0.646
			c0.15,0.507-0.139,1.04-0.646,1.189c-1.218,0.36-2.428,0.737-3.631,1.128C144.329,32.695,144.229,32.71,144.131,32.71z
			 M232.743,31.696c-0.091,0-0.184-0.013-0.275-0.041c-1.211-0.363-2.431-0.711-3.656-1.043c-0.511-0.138-0.813-0.664-0.674-1.174
			c0.138-0.51,0.67-0.812,1.174-0.673c1.243,0.336,2.479,0.689,3.707,1.057c0.506,0.152,0.793,0.686,0.642,1.192
			C233.536,31.428,233.155,31.696,232.743,31.696z M153.324,30.051c-0.428,0-0.817-0.289-0.927-0.722
			c-0.13-0.513,0.18-1.034,0.692-1.164c1.242-0.315,2.491-0.615,3.747-0.9c0.513-0.117,1.028,0.206,1.145,0.722
			c0.117,0.516-0.207,1.028-0.722,1.145c-1.239,0.281-2.472,0.577-3.698,0.888C153.481,30.042,153.401,30.051,153.324,30.051z
			 M223.492,29.253c-0.071,0-0.144-0.008-0.216-0.024c-1.233-0.284-2.473-0.551-3.718-0.803c-0.519-0.105-0.854-0.61-0.749-1.128
			s0.612-0.851,1.128-0.749c1.263,0.255,2.518,0.526,3.769,0.813c0.515,0.119,0.837,0.632,0.718,1.147
			C224.322,28.953,223.928,29.253,223.492,29.253z M214.101,27.417c-0.051,0-0.103-0.004-0.154-0.013
			c-1.249-0.203-2.503-0.39-3.763-0.56c-0.523-0.071-0.891-0.553-0.819-1.077c0.07-0.524,0.552-0.889,1.077-0.82
			c1.275,0.173,2.547,0.362,3.812,0.568c0.522,0.084,0.876,0.576,0.792,1.098C214.968,27.083,214.562,27.417,214.101,27.417z
			 M204.61,26.191c-0.03,0-0.062-0.001-0.093-0.005c-1.26-0.122-2.523-0.228-3.792-0.317c-0.527-0.038-0.924-0.496-0.887-1.023
			c0.038-0.527,0.486-0.921,1.023-0.887c1.284,0.092,2.563,0.199,3.839,0.322c0.526,0.051,0.912,0.519,0.861,1.045
			C205.515,25.821,205.098,26.191,204.61,26.191z M181.663,25.725c-0.504,0-0.927-0.395-0.955-0.905
			c-0.029-0.528,0.375-0.979,0.903-1.009c1.278-0.07,2.561-0.125,3.849-0.165c0.519,0.007,0.97,0.4,0.986,0.928
			c0.016,0.528-0.4,0.97-0.928,0.986c-1.271,0.038-2.539,0.092-3.801,0.163C181.698,25.724,181.681,25.725,181.663,25.725z
			 M195.061,25.574c-0.011,0-0.021,0-0.032,0c-1.263-0.042-2.531-0.068-3.803-0.077c-0.529-0.004-0.955-0.436-0.95-0.965
			c0.004-0.526,0.432-0.95,0.957-0.95c0.002,0,0.005,0,0.007,0c1.289,0.01,2.573,0.036,3.852,0.078
			c0.528,0.017,0.943,0.46,0.926,0.988C195.999,25.166,195.574,25.574,195.061,25.574z"/>
	</g>
	<g>
		<rect x="109.545" y="91.393" fill="#D1D1D1" width="167.143" height="222.857"/>
		<rect x="113.358" y="94.61" fill="#FFFFFF" width="159.516" height="215.617"/>
		<g>
			<rect x="150.521" y="112.24" fill="#A2A2A3" width="104.24" height="10.064"/>
			<rect x="134.706" y="134.122" fill="#D1D1D1" width="118.617" height="3.722"/>
			<rect x="134.706" y="150.753" fill="#D1D1D1" width="118.617" height="3.723"/>
			<rect x="134.706" y="167.386" fill="#D1D1D1" width="118.617" height="3.722"/>
			<rect x="134.706" y="184.018" fill="#D1D1D1" width="118.617" height="3.723"/>
			<rect x="134.706" y="200.649" fill="#D1D1D1" width="118.617" height="3.722"/>
			<rect x="134.706" y="217.281" fill="#D1D1D1" width="118.617" height="3.722"/>
			<rect x="134.706" y="233.911" fill="#D1D1D1" width="118.617" height="3.723"/>
			<rect x="134.706" y="250.545" fill="#D1D1D1" width="55.354" height="3.722"/>
			<rect x="232.476" y="280.02" fill="#D1D1D1" width="20.848" height="3.722"/>
		</g>
		<g>
			<g>
				<path fill="#E5BB70" d="M157.763,141.592c-1.005,0.727-3.782,0.21-4.909,0.73c-1.07,0.494-2.429,2.842-3.589,3.061
					c-1.188,0.227-3.367-1.559-4.578-1.559c-1.244,0-3.516,1.848-4.729,1.567c-1.131-0.263-2.267-2.754-3.316-3.249
					c-1.179-0.553-4.145,0.253-5.187-0.531c-0.985-0.741-1.02-3.653-1.839-4.575c-0.831-0.927-3.735-1.28-4.395-2.336
					c-0.683-1.098,0.25-3.945-0.168-5.167c-0.371-1.082-2.547-2.55-2.713-3.682c-0.174-1.196,1.499-3.348,1.631-4.546
					c0.126-1.182-1.022-3.575-0.666-4.709c0.399-1.263,2.98-2.713,3.608-3.878c0.548-1.022,0.359-3.641,1.141-4.502
					c0.792-0.878,3.47-0.952,4.442-1.623c0.952-0.654,1.935-3.046,2.982-3.535c1.121-0.522,3.724,0.178,4.945-0.008
					c1.132-0.171,3.014-1.852,4.157-1.934c1.159-0.082,3.192,1.431,4.31,1.754c1.151,0.334,3.685-0.279,4.793,0.175
					c1.044,0.428,2.213,2.577,3.073,3.308c0.946,0.802,3.608,1.256,4.459,2.157c0.795,0.837,0.856,3.385,1.427,4.387
					c0.604,1.064,2.883,2.497,3.232,3.668c0.32,1.075-0.756,3.323-0.652,4.439c0.118,1.267,1.792,3.556,1.631,4.816
					c-0.143,1.118-2.109,2.704-2.472,3.771c-0.409,1.205,0.265,3.99-0.398,5.08c-0.609,1.005-3.193,1.621-3.984,2.486
					C159.164,138.075,158.771,140.864,157.763,141.592z"/>
				<circle fill="#A2A2A3" cx="144.596" cy="123.266" r="15.912"/>
				<circle fill="#EAE9E8" cx="144.596" cy="123.266" r="14.531"/>
				<path fill="#A2A2A3" d="M144.598,135.638c-6.821,0-12.37-5.552-12.37-12.373c0-6.822,5.549-12.371,12.37-12.371
					c6.821,0,12.371,5.549,12.371,12.371C156.968,130.086,151.418,135.638,144.598,135.638z"/>
				<path fill="#C99E48" d="M155.134,143.481c-0.534,0.017-1.43,0.039-1.677,0.151c-0.222,0.109-0.772,0.713-1.1,1.073
					c-0.84,0.924-1.708,1.881-2.823,2.092c-0.154,0.03-0.32,0.048-0.494,0.048c-0.651,0-1.312-0.227-1.969-0.52l5.636,15.338
					l3.536-7.438l7.51,3.381l-5.398-14.692C157.468,143.417,156.286,143.453,155.134,143.481z"/>
				<path fill="#C99E48" d="M140.231,146.859c-0.208,0-0.407-0.022-0.599-0.064c-1.112-0.259-1.89-1.264-2.64-2.236
					c-0.287-0.373-0.769-0.997-0.977-1.12c-0.014-0.003-0.203-0.068-0.84-0.068c-0.283,0-0.584,0.011-0.884,0.022
					c-0.34,0.014-0.682,0.025-1.011,0.025c-0.899,0-1.924-0.079-2.693-0.657c-0.332-0.253-0.584-0.576-0.789-0.944L124,157.606
					l7.512-3.381l3.536,7.438l5.442-14.818C140.403,146.854,140.319,146.859,140.231,146.859z"/>
			</g>
			<g>
				<path fill="#FFFFFF" d="M136.729,121.524h-1.036v2.218h-0.525v-2.685h1.562V121.524z"/>
				<path fill="#FFFFFF" d="M138.351,123.147h-0.824l-0.205,0.596h-0.525l0.967-2.705h0.386l0.967,2.705h-0.552L138.351,123.147z
					 M137.66,122.726h0.576l-0.199-0.598l-0.081-0.423h-0.019l-0.082,0.426L137.66,122.726z"/>
				<path fill="#FFFFFF" d="M139.773,121.083c0.108-0.02,0.227-0.036,0.355-0.048c0.13-0.011,0.257-0.016,0.387-0.016
					c0.131,0,0.267,0.011,0.4,0.034c0.133,0.021,0.254,0.064,0.362,0.128c0.108,0.065,0.195,0.158,0.263,0.273
					c0.067,0.116,0.101,0.269,0.101,0.455c0,0.168-0.028,0.312-0.087,0.427c-0.059,0.118-0.138,0.212-0.234,0.287
					c-0.097,0.073-0.208,0.127-0.331,0.159c-0.125,0.034-0.253,0.051-0.387,0.051c-0.011,0-0.033,0-0.061,0
					c-0.028,0-0.057,0-0.088-0.001c-0.031-0.001-0.062-0.004-0.089-0.007c-0.031-0.001-0.051-0.004-0.064-0.007v0.925h-0.526
					V121.083z M140.557,121.471c-0.052,0-0.101,0.003-0.146,0.006c-0.046,0.005-0.084,0.008-0.112,0.014v0.871
					c0.011,0.002,0.026,0.006,0.047,0.009c0.02,0.003,0.042,0.004,0.064,0.005c0.023,0,0.045,0.001,0.067,0.001
					c0.021,0,0.037,0,0.048,0c0.069,0,0.138-0.007,0.205-0.019c0.067-0.014,0.129-0.036,0.183-0.071
					c0.054-0.036,0.095-0.083,0.127-0.145c0.033-0.061,0.049-0.141,0.049-0.241c0-0.084-0.016-0.155-0.048-0.208
					c-0.031-0.056-0.07-0.1-0.121-0.132c-0.049-0.033-0.107-0.058-0.17-0.07C140.689,121.478,140.623,121.471,140.557,121.471z"/>
				<path fill="#FFFFFF" d="M143.421,123.147h-0.825l-0.202,0.596h-0.525l0.965-2.705h0.388l0.966,2.705h-0.553L143.421,123.147z
					 M142.73,122.726h0.576l-0.199-0.598l-0.082-0.423h-0.018l-0.08,0.426L142.73,122.726z"/>
				<path fill="#FFFFFF" d="M146.354,122.618h-0.983v1.125h-0.525v-2.685h0.525v1.093h0.983v-1.093h0.524v2.685h-0.524V122.618z"/>
				<path fill="#FFFFFF" d="M149.672,121.524h-0.782v2.218h-0.525v-2.218h-0.786v-0.466h2.093V121.524z"/>
				<path fill="#FFFFFF" d="M151.936,122.254l0.029-0.35h-0.019l-0.181,0.361l-1.001,1.477h-0.395v-2.685h0.525v1.46l-0.038,0.361
					h0.022l0.188-0.372l1-1.449h0.392v2.685h-0.525V122.254z"/>
				<path fill="#FFFFFF" d="M155.11,123.743h-0.525v-1.063l-0.276,0.073l-0.559,0.99h-0.61l0.551-0.895l0.23-0.165
					c-0.081-0.021-0.157-0.053-0.23-0.095c-0.07-0.042-0.134-0.095-0.188-0.163c-0.054-0.065-0.096-0.143-0.127-0.236
					c-0.031-0.09-0.045-0.194-0.045-0.309c0-0.16,0.028-0.294,0.084-0.406c0.057-0.109,0.135-0.198,0.234-0.266
					c0.101-0.069,0.219-0.118,0.356-0.146c0.139-0.031,0.29-0.044,0.449-0.044c0.044,0,0.093,0.001,0.15,0.004
					c0.056,0.001,0.115,0.007,0.175,0.011c0.061,0.004,0.12,0.013,0.175,0.019c0.059,0.008,0.11,0.019,0.156,0.031V123.743z
					 M154.39,121.488c-0.07,0-0.135,0.005-0.197,0.018s-0.115,0.035-0.16,0.066c-0.046,0.031-0.083,0.073-0.109,0.127
					c-0.028,0.053-0.041,0.122-0.041,0.206c0,0.08,0.013,0.147,0.038,0.201c0.025,0.056,0.062,0.101,0.108,0.135
					c0.047,0.034,0.1,0.059,0.162,0.076c0.062,0.014,0.127,0.023,0.2,0.023h0.195v-0.833c-0.028-0.004-0.058-0.01-0.085-0.013
					C154.469,121.489,154.433,121.488,154.39,121.488z"/>
			</g>
		</g>
	</g>
	<g>
		<ellipse fill="#F2EEEB" cx="55.24" cy="200.009" rx="17.253" ry="17.492"/>
		<g>
			<path fill="#A2A2A3" d="M76.539,202.76c0.159-1.262-1.514-3.55-1.632-4.817c-0.104-1.115,0.972-3.363,0.652-4.439
				c-0.348-1.17-2.628-2.602-3.232-3.666c-0.57-1.003-0.632-3.553-1.426-4.389c-0.851-0.9-3.514-1.354-4.459-2.157
				c-0.859-0.731-2.028-2.879-3.072-3.308c-1.109-0.454-3.643,0.159-4.793-0.175c-1.118-0.323-3.151-1.836-4.311-1.754
				c-1.143,0.081-3.025,1.762-4.156,1.933c-1.222,0.188-3.825-0.514-4.946,0.009c-1.047,0.488-2.03,2.882-2.981,3.536
				c-0.972,0.67-3.651,0.744-4.443,1.622c-0.78,0.862-0.592,3.479-1.141,4.501c-0.628,1.167-3.209,2.615-3.608,3.88
				c-0.356,1.135,0.792,3.526,0.666,4.709c-0.132,1.198-1.806,3.351-1.632,4.545c0.166,1.133,2.342,2.603,2.713,3.683
				c0.418,1.222-0.514,4.069,0.168,5.167c0.66,1.057,3.564,1.41,4.395,2.337c0.82,0.921,0.854,3.833,1.84,4.574
				c1.042,0.783,4.007-0.021,5.187,0.53c1.05,0.495,2.185,2.985,3.317,3.25c1.213,0.281,3.484-1.567,4.729-1.567
				c1.21,0,3.389,1.786,4.577,1.559c1.16-0.219,2.519-2.566,3.589-3.061c1.126-0.52,3.903-0.003,4.908-0.73
				c1.008-0.727,1.401-3.517,2.238-4.434c0.792-0.864,3.375-1.48,3.985-2.485c0.663-1.09-0.011-3.875,0.398-5.08
				C74.43,205.464,76.395,203.878,76.539,202.76z M54.281,216.118c-8.79,0-15.914-7.125-15.914-15.915
				c0-8.786,7.124-15.912,15.914-15.912c8.787,0,15.911,7.126,15.911,15.912C70.192,208.993,63.068,216.118,54.281,216.118z"/>
			<rect x="43.254" y="196.413" fill="none" width="29.716" height="12.221"/>
			<text transform="matrix(1 0 0 1 43.2544 201.4443)" fill="#A2A2A3" font-family="'PTSans-Bold'" font-size="7.189">Quality</text>
		</g>
		<g>
			<path fill="#D1D1D1" d="M43.527,198.688c0-0.838,0.185-1.484,0.554-1.937c0.369-0.453,0.896-0.68,1.582-0.68
				c0.359,0,0.673,0.063,0.942,0.187c0.268,0.125,0.491,0.302,0.668,0.532s0.309,0.506,0.396,0.827
				c0.086,0.32,0.129,0.678,0.129,1.07c0,0.839-0.186,1.485-0.557,1.938c-0.372,0.453-0.897,0.68-1.578,0.68
				c-0.364,0-0.681-0.063-0.949-0.187c-0.269-0.125-0.49-0.303-0.665-0.532c-0.175-0.23-0.306-0.506-0.392-0.827
				C43.571,199.438,43.527,199.081,43.527,198.688z M44.563,198.688c0,0.255,0.021,0.488,0.064,0.701
				c0.043,0.214,0.109,0.396,0.198,0.55c0.088,0.153,0.203,0.273,0.341,0.359c0.139,0.087,0.305,0.13,0.496,0.13
				c0.35,0,0.621-0.137,0.813-0.41c0.191-0.272,0.288-0.716,0.288-1.33c0-0.244-0.021-0.472-0.061-0.683
				c-0.041-0.211-0.104-0.396-0.19-0.554c-0.086-0.158-0.199-0.281-0.338-0.37c-0.139-0.089-0.31-0.133-0.511-0.133
				c-0.35,0-0.621,0.141-0.812,0.421C44.659,197.649,44.563,198.089,44.563,198.688z M48.301,202.655
				c-0.23,0.063-0.463,0.095-0.698,0.095c-0.244,0-0.481-0.025-0.711-0.076c-0.23-0.05-0.453-0.104-0.668-0.161
				c-0.216-0.058-0.424-0.111-0.625-0.162c-0.202-0.05-0.391-0.075-0.568-0.075c-0.115,0-0.226,0.015-0.331,0.043v-0.849
				c0.134-0.028,0.273-0.043,0.417-0.043c0.201,0,0.401,0.023,0.601,0.071c0.199,0.047,0.401,0.098,0.607,0.151
				c0.206,0.055,0.417,0.105,0.632,0.152c0.216,0.047,0.443,0.071,0.683,0.071c0.105,0,0.213-0.007,0.324-0.019
				c0.11-0.012,0.223-0.032,0.338-0.061V202.655z"/>
			<path fill="#D1D1D1" d="M49.379,197.609v2.042c0,0.292,0.035,0.503,0.104,0.633c0.069,0.129,0.205,0.193,0.406,0.193
				c0.177,0,0.325-0.052,0.442-0.157c0.118-0.105,0.205-0.235,0.263-0.389v-2.322h0.935v2.502c0,0.196,0.009,0.39,0.029,0.579
				c0.019,0.189,0.048,0.36,0.086,0.514h-0.705l-0.165-0.532h-0.029c-0.11,0.183-0.264,0.333-0.46,0.453
				c-0.197,0.12-0.429,0.18-0.697,0.18c-0.183,0-0.345-0.024-0.489-0.072c-0.144-0.048-0.264-0.127-0.359-0.236
				c-0.096-0.11-0.169-0.259-0.219-0.446c-0.05-0.187-0.075-0.422-0.075-0.704v-2.236H49.379z"/>
			<path fill="#D1D1D1" d="M52.327,197.818c0.192-0.087,0.419-0.155,0.683-0.205c0.263-0.051,0.539-0.075,0.827-0.075
				c0.249,0,0.458,0.029,0.625,0.09c0.167,0.06,0.301,0.145,0.399,0.255s0.167,0.242,0.208,0.396
				c0.041,0.153,0.061,0.326,0.061,0.518c0,0.211-0.007,0.423-0.021,0.636c-0.015,0.214-0.023,0.424-0.025,0.63
				s0.004,0.405,0.018,0.6c0.015,0.194,0.05,0.378,0.108,0.55h-0.762l-0.151-0.496h-0.036c-0.096,0.149-0.229,0.277-0.399,0.385
				c-0.17,0.108-0.389,0.162-0.658,0.162c-0.167,0-0.319-0.025-0.453-0.075c-0.134-0.051-0.25-0.123-0.345-0.216
				c-0.096-0.094-0.17-0.204-0.223-0.331c-0.053-0.127-0.079-0.27-0.079-0.428c0-0.221,0.049-0.406,0.147-0.557
				c0.099-0.151,0.24-0.273,0.424-0.367s0.405-0.158,0.662-0.194c0.256-0.035,0.542-0.046,0.859-0.032
				c0.034-0.269,0.014-0.461-0.058-0.578c-0.072-0.118-0.232-0.177-0.481-0.177c-0.187,0-0.385,0.02-0.593,0.058
				c-0.208,0.039-0.38,0.089-0.514,0.151L52.327,197.818z M53.513,200.492c0.187,0,0.335-0.042,0.446-0.126
				c0.11-0.083,0.192-0.173,0.245-0.27v-0.467c-0.149-0.015-0.292-0.017-0.428-0.008c-0.137,0.01-0.258,0.031-0.363,0.065
				c-0.105,0.033-0.189,0.081-0.251,0.144c-0.063,0.063-0.093,0.142-0.093,0.237c0,0.134,0.039,0.238,0.118,0.313
				S53.374,200.492,53.513,200.492z"/>
			<path fill="#D1D1D1" d="M56.877,199.996c0,0.168,0.021,0.29,0.065,0.367c0.043,0.076,0.112,0.114,0.208,0.114
				c0.057,0,0.114-0.004,0.169-0.014c0.055-0.01,0.123-0.031,0.205-0.064l0.101,0.732c-0.077,0.039-0.194,0.077-0.352,0.115
				s-0.321,0.058-0.489,0.058c-0.273,0-0.482-0.063-0.625-0.19c-0.144-0.127-0.216-0.337-0.216-0.629v-4.313h0.935V199.996z"/>
			<path fill="#D1D1D1" d="M57.969,196.596c0-0.139,0.052-0.257,0.155-0.355s0.246-0.147,0.428-0.147s0.33,0.049,0.442,0.147
				c0.113,0.099,0.169,0.217,0.169,0.355c0,0.14-0.056,0.256-0.169,0.349c-0.112,0.094-0.26,0.141-0.442,0.141
				s-0.325-0.047-0.428-0.141C58.021,196.852,57.969,196.735,57.969,196.596z M58.106,197.609h0.935v3.595h-0.935V197.609z"/>
			<path fill="#D1D1D1" d="M59.587,197.609h0.496v-0.676l0.934-0.266v0.941h0.877v0.791h-0.877v1.38c0,0.25,0.025,0.428,0.076,0.536
				c0.05,0.107,0.145,0.161,0.284,0.161c0.096,0,0.178-0.009,0.248-0.028c0.069-0.02,0.147-0.048,0.233-0.086l0.166,0.719
				c-0.129,0.063-0.28,0.115-0.453,0.158c-0.172,0.043-0.348,0.064-0.525,0.064c-0.331,0-0.574-0.085-0.729-0.255
				s-0.233-0.449-0.233-0.838V198.4h-0.496V197.609z"/>
			<path fill="#D1D1D1" d="M63.612,199.63l0.129,0.561h0.043l0.094-0.568l0.546-2.013h0.963l-1.093,3.242
				c-0.091,0.269-0.178,0.515-0.262,0.737s-0.176,0.416-0.277,0.578c-0.101,0.163-0.212,0.289-0.334,0.378
				c-0.123,0.089-0.268,0.133-0.435,0.133c-0.25,0-0.448-0.041-0.597-0.122l0.172-0.748c0.072,0.029,0.144,0.044,0.216,0.044
				c0.11,0,0.217-0.047,0.32-0.141s0.181-0.263,0.234-0.507l-1.503-3.595h1.122L63.612,199.63z"/>
		</g>
		<path fill="#E5BB70" d="M76.298,202.293c0.159-1.252-1.504-3.525-1.62-4.784c-0.104-1.106,0.965-3.339,0.647-4.407
			c-0.347-1.165-2.611-2.588-3.211-3.645c-0.566-0.995-0.628-3.527-1.417-4.358c-0.845-0.894-3.489-1.345-4.43-2.141
			c-0.852-0.728-2.013-2.86-3.05-3.285c-1.101-0.454-3.617,0.156-4.762-0.176c-1.109-0.32-3.129-1.823-4.281-1.742
			c-1.136,0.082-3.004,1.75-4.128,1.922c-1.213,0.185-3.799-0.512-4.912,0.008c-1.041,0.484-2.016,2.862-2.962,3.512
			c-0.965,0.665-3.625,0.737-4.414,1.612c-0.775,0.854-0.588,3.455-1.132,4.471c-0.625,1.157-3.188,2.598-3.584,3.852
			c-0.354,1.127,0.788,3.504,0.661,4.679c-0.13,1.189-1.793,3.326-1.62,4.515c0.165,1.125,2.327,2.583,2.694,3.656
			c0.416,1.213-0.511,4.042,0.167,5.134c0.656,1.047,3.54,1.399,4.365,2.318c0.814,0.916,0.848,3.809,1.827,4.544
			c1.035,0.78,3.98-0.021,5.151,0.527c1.043,0.49,2.171,2.965,3.294,3.229c1.205,0.278,3.461-1.557,4.696-1.557
			c1.204,0,3.368,1.774,4.547,1.547c1.153-0.218,2.502-2.548,3.565-3.039c1.119-0.517,3.876-0.003,4.876-0.726
			c1.001-0.722,1.392-3.492,2.223-4.404c0.786-0.858,3.353-1.471,3.958-2.469c0.659-1.082-0.011-3.849,0.396-5.046
			C74.203,204.979,76.157,203.403,76.298,202.293z M54.191,215.562c-8.73,0-15.807-7.076-15.807-15.807
			c0-8.727,7.077-15.804,15.807-15.804c8.728,0,15.803,7.077,15.803,15.804C69.994,208.485,62.918,215.562,54.191,215.562z"/>
	</g>
	<g>
		<g>
			<path fill="#E5BB70" d="M324.907,64.021c1.57-1.452,2.553-3.529,2.553-5.835c0-4.395-3.56-7.954-7.951-7.954
				c-4.394,0-7.953,3.56-7.953,7.954c0,1.009,0.19,1.977,0.533,2.864C318.235,61.63,323.539,63.145,324.907,64.021z"/>
			<path fill="#A2A2A3" d="M310.244,60.909c-0.252-0.864-0.392-1.779-0.392-2.724c0-5.334,4.321-9.658,9.656-9.658
				c5.332,0,9.654,4.323,9.654,9.658c0,2.815-1.206,5.351-3.134,7.116c0.246,0.404,0.464,0.859,0.652,1.333
				c2.395-2.035,3.914-5.064,3.914-8.45c0-6.125-4.965-11.089-11.087-11.089c-6.125,0-11.089,4.965-11.089,11.089
				c0,0.914,0.114,1.803,0.321,2.654C309.245,60.854,309.747,60.878,310.244,60.909z"/>
			
				<line fill="none" stroke="#FFFFFF" stroke-width="0.9041" stroke-linecap="round" stroke-linejoin="round" stroke-miterlimit="10" x1="319.509" y1="52.438" x2="319.381" y2="58.186"/>
			
				<line fill="none" stroke="#FFFFFF" stroke-width="0.9041" stroke-linecap="round" stroke-linejoin="round" stroke-miterlimit="10" x1="323.615" y1="58.184" x2="319.381" y2="58.191"/>
		</g>
		<rect x="293.043" y="89.779" fill="#A2A2A3" width="28.93" height="2.36"/>
		<path fill="#D1D1D1" d="M321.973,85.831c0,0-0.158-1.302-0.609-2.343c-0.454-1.042-6.512-9.153-6.512-9.153v-3.398h-4.161v2.266
			h-6.241v-2.266h-4.213v3.398c0,0-5.644,7.645-6.278,8.874c-0.632,1.228-0.915,2.623-0.915,2.623h0.121l-0.121,0.302v3.044h28.93
			v-2.902l-0.063-0.444H321.973z"/>
		<path fill="#A2A2A3" d="M288.851,72.52c0,0,2.484,0.678,4.611,0.632c2.125-0.046,4.715-1.628,4.715-1.628s0.014,1.401,0,1.945
			c-0.011,0.543-0.446,3.527-4.661,3.437c-4.213-0.091-4.44-1.039-4.665-2.69C288.624,72.565,288.851,72.52,288.851,72.52z"/>
		<path fill="#A2A2A3" d="M326.063,72.52c0,0-2.486,0.678-4.61,0.632c-2.128-0.046-4.719-1.628-4.719-1.628s-0.013,1.401,0,1.945
			c0.014,0.543,0.446,3.527,4.662,3.437c4.216-0.091,4.439-1.039,4.667-2.69C326.289,72.565,326.063,72.52,326.063,72.52z"/>
		<path fill="#D1D1D1" d="M308.206,67.015c6.239,0.159,7.485,1.274,8.009,1.842c0.542,0.586,0.453,1.583,0.453,1.583
			c0.587,0.496,3.528,1.673,4.974,1.717c1.447,0.045,4.522-0.182,4.522-0.633c0-0.452-0.813-4.975-2.169-6.059
			c-0.766-0.612-7.586-2.696-15.384-2.92l-2.444,0.007c-7.699,0.26-14.389,2.307-15.146,2.914c-1.357,1.084-2.171,5.606-2.171,6.059
			c0,0.451,3.073,0.678,4.521,0.633c1.445-0.044,4.386-1.221,4.975-1.717c0,0-0.092-0.997,0.451-1.583
			c0.516-0.558,1.728-1.643,7.688-1.832L308.206,67.015z"/>
		<g>
			<path fill="#FFFFFF" d="M303.592,79.616c0,0.468,0.116,0.847-0.486,0.847h-2.373c-0.602,0-0.486-0.379-0.486-0.847l0,0
				c0-0.466-0.115-0.845,0.486-0.845h2.373C303.708,78.771,303.592,79.15,303.592,79.616L303.592,79.616z"/>
			<path fill="#FFFFFF" d="M308.928,79.616c0,0.468,0.114,0.847-0.486,0.847h-2.374c-0.603,0-0.487-0.379-0.487-0.847l0,0
				c0-0.466-0.115-0.845,0.487-0.845h2.374C309.042,78.771,308.928,79.15,308.928,79.616L308.928,79.616z"/>
			<path fill="#FFFFFF" d="M314.488,79.616c0,0.468,0.117,0.847-0.485,0.847h-2.375c-0.599,0-0.485-0.379-0.485-0.847l0,0
				c0-0.466-0.113-0.845,0.485-0.845h2.375C314.605,78.771,314.488,79.15,314.488,79.616L314.488,79.616z"/>
		</g>
		<g>
			<path fill="#FFFFFF" d="M303.592,85.492c0,0.468,0.116,0.847-0.486,0.847h-2.373c-0.602,0-0.486-0.379-0.486-0.847l0,0
				c0-0.466-0.115-0.846,0.486-0.846h2.373C303.708,84.646,303.592,85.026,303.592,85.492L303.592,85.492z"/>
			<path fill="#FFFFFF" d="M308.928,85.492c0,0.468,0.114,0.847-0.486,0.847h-2.374c-0.603,0-0.487-0.379-0.487-0.847l0,0
				c0-0.466-0.115-0.846,0.487-0.846h2.374C309.042,84.646,308.928,85.026,308.928,85.492L308.928,85.492z"/>
			<path fill="#FFFFFF" d="M314.488,85.492c0,0.468,0.117,0.847-0.485,0.847h-2.375c-0.599,0-0.485-0.379-0.485-0.847l0,0
				c0-0.466-0.113-0.846,0.485-0.846h2.375C314.605,84.646,314.488,85.026,314.488,85.492L314.488,85.492z"/>
		</g>
		<g>
			<path fill="#FFFFFF" d="M303.592,82.555c0,0.466,0.116,0.845-0.486,0.845h-2.373c-0.602,0-0.486-0.379-0.486-0.845l0,0
				c0-0.466-0.115-0.845,0.486-0.845h2.373C303.708,81.71,303.592,82.089,303.592,82.555L303.592,82.555z"/>
			<path fill="#FFFFFF" d="M309.04,82.555c0,0.466,0.115,0.845-0.486,0.845h-2.374c-0.6,0-0.486-0.379-0.486-0.845l0,0
				c0-0.466-0.113-0.845,0.486-0.845h2.374C309.155,81.71,309.04,82.089,309.04,82.555L309.04,82.555z"/>
			<path fill="#FFFFFF" d="M314.488,82.555c0,0.466,0.117,0.845-0.485,0.845h-2.375c-0.599,0-0.485-0.379-0.485-0.845l0,0
				c0-0.466-0.113-0.845,0.485-0.845h2.375C314.605,81.71,314.488,82.089,314.488,82.555L314.488,82.555z"/>
		</g>
		
			<path fill="none" stroke="#C6C6C6" stroke-width="0.9041" stroke-linecap="round" stroke-linejoin="round" stroke-miterlimit="10" d="
			M291.466,55.91c-0.829,0.097-1.633,0.279-2.401,0.536c-0.922,0.313-1.794,0.732-2.604,1.249c-0.397,0.254-0.785,0.534-1.15,0.833
			c-0.907,0.742-1.706,1.612-2.372,2.585c-1.345,1.951-2.15,4.312-2.234,6.839"/>
		
			<path fill="none" stroke="#C6C6C6" stroke-width="0.9041" stroke-linecap="round" stroke-linejoin="round" stroke-miterlimit="10" d="
			M289.804,58.825c-2.008,0.681-3.711,2.009-4.899,3.736c-1.076,1.568-1.726,3.461-1.793,5.49"/>
		
			<path fill="none" stroke="#C6C6C6" stroke-width="0.9041" stroke-linecap="round" stroke-linejoin="round" stroke-miterlimit="10" d="
			M289.666,61.546c-1.132,0.561-2.095,1.412-2.809,2.452c-0.815,1.185-1.304,2.617-1.352,4.149"/>
	</g>
	<g>
		<g>
			<path fill="#FFFFFF" d="M71.939,94.612l-0.326,0.104c-4.114,1.345-8.431,0.421-11.263-2.414
				c-3.029-3.024-3.836-7.741-2.147-12.008L46.89,68.983l7.424-7.429L65.63,72.871c4.265-1.691,8.98-0.882,12.009,2.145
				c2.832,2.831,3.755,7.151,2.411,11.263l-0.106,0.327L71.939,94.612z"/>
			<path fill="#DDDDDD" d="M71.167,93.352l7.518-7.519c1.138-3.482,0.48-7.256-2.063-9.803c-2.917-2.913-7.455-3.354-11.312-1.447
				L54.314,63.588l-5.393,5.395l10.997,10.993c-1.905,3.857-1.471,8.394,1.446,11.313C63.909,93.829,67.683,94.489,71.167,93.352z"
				/>
			
				<rect x="45.722" y="64.618" transform="matrix(0.7073 -0.7069 0.7069 0.7073 -31.2841 54.7698)" fill="#DDDDDD" width="9.546" height="1.088"/>
			
				<line fill="none" stroke="#FFFFFF" stroke-width="0.3058" stroke-miterlimit="10" x1="50.221" y1="69.685" x2="52.85" y2="67.055"/>
			
				<line fill="none" stroke="#FFFFFF" stroke-width="0.3058" stroke-miterlimit="10" x1="52.771" y1="72.235" x2="55.402" y2="69.606"/>
			
				<line fill="none" stroke="#FFFFFF" stroke-width="0.3058" stroke-miterlimit="10" x1="55.32" y1="74.785" x2="57.953" y2="72.156"/>
			
				<line fill="none" stroke="#FFFFFF" stroke-width="0.3058" stroke-miterlimit="10" x1="57.873" y1="77.336" x2="60.5" y2="74.706"/>
			
				<line fill="none" stroke="#FFFFFF" stroke-width="0.2676" stroke-miterlimit="10" x1="51.431" y1="71.026" x2="53.082" y2="69.376"/>
			
				<line fill="none" stroke="#FFFFFF" stroke-width="0.2676" stroke-miterlimit="10" x1="53.978" y1="73.576" x2="55.632" y2="71.924"/>
			
				<line fill="none" stroke="#FFFFFF" stroke-width="0.2676" stroke-miterlimit="10" x1="56.531" y1="76.126" x2="58.184" y2="74.475"/>
			<path fill="#E5BB70" d="M60.292,83.621c-0.327,2.5,0.395,4.954,2.089,6.651c1.407,1.403,3.347,2.178,5.461,2.178h0.003
				c0.854,0,1.713-0.124,2.558-0.367l7.012-7.015c0.14-0.484,0.226-0.965,0.286-1.448H60.292z"/>
		</g>
		<g>
			<rect x="31.58" y="97.448" fill="#DDDDDD" width="58.855" height="3.153"/>
		</g>
		<path fill="#E5BB70" d="M45.823,71.135l1.393,2.418c0,0,1.19,2.101,1.4,2.846c0.208,0.746,0.208,3.426-2.899,3.426
			c-3.108,0-3.014-2.672-2.687-3.426c0.327-0.753,1.395-2.846,1.395-2.846L45.823,71.135z"/>
		<g>
			<path fill="#E5BB70" d="M55.635,96.542v-0.58c0-0.796-0.645-1.441-1.439-1.441H38.745c-0.795,0-1.439,0.646-1.439,1.441v0.58
				H55.635z"/>
		</g>
	</g>
	<g>
		<path fill="#E5BB70" d="M333.596,193.151l6.497-2.432c2.23-1.343,3.193-7.619-0.51-10.978c-3.046-2.764-7.727-1.377-7.727-1.377
			l-23.837,5.97l0,0c-4.41,1.697-7.383,4.803-7.383,9.81c0,6.498,5.268,11.762,11.765,11.762c0.696,0,2.522,0.324,3.186,0.207
			c2.109,0.093,3.498-0.093,5.716-0.207c8.184-0.41,9.56,0.642,9.56,0.642s16.322-9.36,20.094-10.861
			C351.574,194.222,333.596,193.151,333.596,193.151z"/>
		<path fill="none" stroke="#FFFFFF" stroke-width="0.7744" stroke-miterlimit="10" d="M315.178,190.219l-5.151,1.994
			c-6.024-3.936-8.225,4.694-3.09,7.724c10.036,5.92,15.03-15.306,2.935-15.6c-12.048-0.293-13.756,22.451,5.716,21.776
			c13.385-0.463,15.275,0.435,15.275,0.435s13.656-7.825,20.094-10.861c0-1.156-17.36-2.535-17.36-2.535l-21.993,7.675"/>
		<line fill="#DDDDDD" x1="306.642" y1="191.247" x2="314.452" y2="188.764"/>
		<path fill="none" stroke="#FFFFFF" stroke-width="0.7744" stroke-miterlimit="10" d="M333.596,193.151l5.088-1.904
			c2.804-1.241,5.478-6.912,0.899-11.505c-2.25-2.257-6.218-1.664-6.834-1.508c-1.347,0.338-25.647,6.484-25.647,6.484"/>
	</g>
	<g>
		<path fill="#E5BB70" d="M154.164,15.48c0.136-5.088-3.448-7.94-7.505-7.94c-4.051,0-7.633,2.624-7.447,7.847
			c0.137,3.95,7.447,13.908,7.447,13.908S154.052,19.531,154.164,15.48z M146.659,18.639c-2.028,0-3.669-1.642-3.669-3.668
			c0-2.026,1.641-3.671,3.669-3.671c2.026,0,3.67,1.645,3.67,3.671C150.329,16.998,148.686,18.639,146.659,18.639z"/>
		<path fill="#A2A2A3" d="M180.221,25.848c0.178-6.634-4.49-10.347-9.774-10.347c-5.279,0-9.944,3.417-9.705,10.229
			c0.186,5.139,9.705,18.111,9.705,18.111S180.077,31.122,180.221,25.848z M170.447,29.96c-2.642,0-4.782-2.138-4.782-4.78
			c0-2.637,2.14-4.779,4.782-4.779c2.64,0,4.779,2.143,4.779,4.779C175.226,27.822,173.087,29.96,170.447,29.96z"/>
		<path fill="#D1D1D1" d="M165.181,5.369c0.074-2.699-1.824-4.208-3.977-4.208c-2.148,0-4.045,1.389-3.946,4.159
			c0.075,2.092,3.946,7.369,3.946,7.369S165.123,7.515,165.181,5.369z M161.204,7.042c-1.073,0-1.943-0.87-1.943-1.943
			c0-1.074,0.87-1.945,1.943-1.945c1.074,0,1.946,0.872,1.946,1.945C163.15,6.172,162.278,7.042,161.204,7.042z"/>
	</g>
</g>
</svg>
