<?xml version="1.0" encoding="utf-8"?>
<!-- Generator: Adobe Illustrator 16.0.0, SVG Export Plug-In . SVG Version: 6.00 Build 0)  -->
<!DOCTYPE svg PUBLIC "-//W3C//DTD SVG 1.1//EN" "http://www.w3.org/Graphics/SVG/1.1/DTD/svg11.dtd">
<svg version="1.1" id="Layer_1" xmlns="http://www.w3.org/2000/svg" xmlns:xlink="http://www.w3.org/1999/xlink" x="0px" y="0px"
	 width="380px" height="315px" viewBox="0 0 380 315" enable-background="new 0 0 380 315" xml:space="preserve">
<path fill="#526752" d="M196.248,247.066c0,1.477-1.166,2.671-2.602,2.671H3.812c-1.435,0-2.6-1.194-2.6-2.671V65.388
	c0-1.477,1.165-2.672,2.6-2.672h189.835c1.436,0,2.602,1.195,2.602,2.672V247.066z"/>
<path fill="#799179" d="M191.913,243.029c0,1.412-1.113,2.553-2.485,2.553H8.03c-1.372,0-2.485-1.141-2.485-2.553V69.425
	c0-1.412,1.113-2.552,2.485-2.552h181.398c1.372,0,2.485,1.141,2.485,2.552V243.029z"/>
<rect x="21.149" y="111.697" fill="#FFFFFF" width="130.082" height="3.713"/>
<rect x="21.149" y="129.014" fill="#FFFFFF" width="124.679" height="3.71"/>
<rect x="21.149" y="146.331" fill="#FFFFFF" width="132.909" height="3.71"/>
<rect x="21.149" y="163.647" fill="#FFFFFF" width="77.017" height="3.71"/>
<g>
	<g>
		<path fill="#FEFEFE" d="M40.671,92.625c-0.432,0.287-0.96,0.428-1.584,0.428c-0.426,0-0.796-0.073-1.112-0.22
			c-0.315-0.143-0.579-0.347-0.787-0.605c-0.209-0.256-0.366-0.556-0.47-0.9c-0.104-0.344-0.154-0.715-0.154-1.114
			c0-0.78,0.106-1.448,0.318-2.001c0.214-0.55,0.493-1.004,0.841-1.359s0.745-0.615,1.193-0.781c0.449-0.164,0.909-0.25,1.377-0.25
			c0.369,0,0.682,0.029,0.943,0.086c0.261,0.06,0.466,0.12,0.613,0.194l-0.491,1.15c-0.129-0.07-0.284-0.125-0.464-0.162
			c-0.181-0.036-0.41-0.055-0.686-0.055c-0.328,0-0.636,0.071-0.919,0.207c-0.284,0.143-0.529,0.339-0.734,0.597
			c-0.207,0.258-0.369,0.574-0.487,0.945c-0.122,0.37-0.18,0.788-0.18,1.26c0,0.563,0.137,1.001,0.411,1.32s0.641,0.48,1.096,0.48
			c0.291,0,0.531-0.034,0.722-0.097c0.19-0.062,0.368-0.141,0.536-0.235L40.671,92.625z"/>
		<path fill="#FEFEFE" d="M43.87,89.03l0.01,0.905h0.058l0.32-0.932l1.575-3.037h1.401l-2.705,4.803
			c-0.214,0.378-0.404,0.705-0.572,0.984c-0.167,0.277-0.332,0.506-0.496,0.687c-0.165,0.185-0.34,0.323-0.527,0.409
			c-0.188,0.091-0.406,0.136-0.658,0.136c-0.393,0-0.708-0.078-0.948-0.24l0.551-1.102c0.09,0.055,0.174,0.086,0.252,0.104
			c0.076,0.016,0.163,0.023,0.26,0.023c0.137,0,0.268-0.067,0.398-0.213c0.128-0.141,0.254-0.327,0.375-0.551l-1.351-5.041h1.38
			L43.87,89.03z"/>
		<path fill="#FEFEFE" d="M48.471,89.371l-1.072-3.405h1.344l0.581,2.001l0.096,0.707l0.357-0.707l1.441-2.001h1.507l-2.541,3.353
			l1.206,3.596h-1.345l-0.694-2.145l-0.116-0.736L48.85,90.77l-1.558,2.145h-1.546L48.471,89.371z"/>
		<path fill="#FEFEFE" d="M56.581,89.131l0.279-0.881h-0.058l-0.619,0.953l-3.15,3.712h-0.967l1.431-6.948h1.257l-0.763,3.713
			L53.7,90.592h0.058l0.637-0.986l3.131-3.64h0.968l-1.432,6.948h-1.257L56.581,89.131z"/>
		<path fill="#FEFEFE" d="M59.662,85.966h1.257h2.551l-0.25,1.211h-2.553l-0.337,1.617h2.33l-0.26,1.211h-2.313l-0.356,1.699h2.597
			l-0.24,1.21h-2.6h-1.256L59.662,85.966z"/>
		<path fill="#FEFEFE" d="M69.888,92.625c-0.432,0.287-0.96,0.428-1.586,0.428c-0.424,0-0.794-0.073-1.111-0.22
			c-0.316-0.143-0.578-0.347-0.787-0.605c-0.21-0.256-0.366-0.556-0.47-0.9c-0.102-0.344-0.154-0.715-0.154-1.114
			c0-0.78,0.107-1.448,0.318-2.001c0.215-0.55,0.493-1.004,0.841-1.359c0.348-0.355,0.746-0.615,1.195-0.781
			c0.448-0.164,0.906-0.25,1.377-0.25c0.368,0,0.68,0.029,0.943,0.086c0.26,0.06,0.464,0.12,0.613,0.194l-0.493,1.15
			c-0.129-0.07-0.285-0.125-0.464-0.162c-0.18-0.036-0.409-0.055-0.685-0.055c-0.329,0-0.635,0.071-0.918,0.207
			c-0.283,0.143-0.528,0.339-0.734,0.597c-0.207,0.258-0.369,0.574-0.488,0.945c-0.12,0.37-0.181,0.788-0.181,1.26
			c0,0.563,0.137,1.001,0.413,1.32c0.274,0.318,0.639,0.48,1.096,0.48c0.29,0,0.529-0.034,0.72-0.097
			c0.191-0.062,0.369-0.141,0.537-0.235L69.888,92.625z"/>
		<path fill="#FEFEFE" d="M76.18,87.177h-1.876l-1.188,5.737h-1.258l1.181-5.737h-1.875l0.252-1.211h5.005L76.18,87.177z"/>
		<path fill="#FEFEFE" d="M77.136,86.032c0.27-0.052,0.56-0.091,0.865-0.123c0.307-0.028,0.613-0.044,0.924-0.044
			c0.328,0,0.633,0.039,0.914,0.115c0.279,0.075,0.524,0.193,0.733,0.352c0.211,0.157,0.373,0.36,0.489,0.608
			c0.115,0.25,0.172,0.542,0.172,0.887c0,0.514-0.086,0.947-0.262,1.294c-0.172,0.347-0.402,0.624-0.689,0.84
			c-0.287,0.216-0.614,0.365-0.981,0.457c-0.366,0.089-0.741,0.133-1.119,0.133c-0.034,0-0.084,0-0.151,0
			c-0.068,0-0.139,0-0.211-0.005c-0.075-0.002-0.146-0.008-0.214-0.013c-0.068-0.008-0.118-0.013-0.15-0.021l-0.483,2.403h-1.256
			L77.136,86.032z M77.707,89.351c0.026,0.005,0.06,0.013,0.107,0.021c0.044,0.005,0.094,0.011,0.148,0.013
			c0.055,0.002,0.107,0.005,0.155,0.005c0.05,0,0.085,0,0.111,0c0.219,0,0.431-0.023,0.633-0.075
			c0.202-0.047,0.381-0.127,0.537-0.24c0.154-0.107,0.276-0.253,0.37-0.434c0.093-0.177,0.141-0.396,0.141-0.658
			c0-0.195-0.031-0.352-0.092-0.478c-0.063-0.128-0.144-0.224-0.247-0.294c-0.103-0.07-0.223-0.118-0.361-0.144
			c-0.139-0.026-0.285-0.039-0.44-0.039c-0.116,0-0.228,0.002-0.333,0.013c-0.107,0.01-0.196,0.021-0.266,0.034L77.707,89.351z"/>
		<path fill="#FEFEFE" d="M81.293,90.313c0-0.616,0.082-1.197,0.246-1.743c0.165-0.544,0.397-1.022,0.701-1.429
			c0.304-0.41,0.667-0.728,1.096-0.963s0.906-0.355,1.437-0.355c0.348,0,0.66,0.055,0.941,0.16c0.281,0.11,0.52,0.271,0.715,0.496
			c0.198,0.217,0.35,0.501,0.46,0.837c0.107,0.336,0.165,0.736,0.165,1.197c0,0.626-0.083,1.213-0.247,1.761
			c-0.165,0.548-0.397,1.031-0.697,1.443c-0.3,0.415-0.658,0.741-1.072,0.978c-0.417,0.24-0.875,0.358-1.377,0.358
			c-0.762,0-1.344-0.232-1.75-0.689C81.504,91.902,81.299,91.218,81.293,90.313z M82.615,90.274c0,0.475,0.09,0.856,0.268,1.143
			c0.177,0.285,0.468,0.428,0.874,0.428c0.296,0,0.565-0.094,0.807-0.276c0.242-0.183,0.45-0.425,0.623-0.736
			c0.175-0.305,0.308-0.658,0.402-1.057c0.094-0.394,0.14-0.809,0.14-1.24c0-0.524-0.1-0.905-0.3-1.14
			c-0.2-0.24-0.473-0.36-0.821-0.36c-0.29,0-0.556,0.087-0.798,0.259c-0.241,0.172-0.45,0.407-0.626,0.699
			c-0.18,0.297-0.317,0.642-0.417,1.03C82.667,89.421,82.615,89.835,82.615,90.274z"/>
		<g>
			<path fill="#FEFEFE" d="M91.664,89.131l0.28-0.881h-0.059l-0.619,0.953l-3.15,3.712H87.15l1.428-6.948h1.257l-0.763,3.713
				l-0.29,0.913h0.058l0.638-0.986l3.131-3.64h0.968l-1.432,6.948H90.89L91.664,89.131z"/>
			<path fill="#FEFEFE" d="M99.066,87.177h-1.876l-1.188,5.737h-1.254l1.178-5.737H94.05l0.25-1.211h5.007L99.066,87.177z"/>
			<path fill="#FEFEFE" d="M100.032,85.966h1.255h2.553l-0.252,1.211h-2.552l-0.338,1.617h2.329l-0.26,1.211h-2.311l-0.357,1.699
				h2.599l-0.241,1.21h-2.601h-1.256L100.032,85.966z"/>
			<path fill="#FEFEFE" d="M108.003,87.177h-1.341c-0.149,0.626-0.29,1.2-0.419,1.714c-0.133,0.517-0.264,0.981-0.397,1.391
				c-0.132,0.412-0.274,0.775-0.42,1.093c-0.149,0.319-0.308,0.597-0.483,0.835c-0.117,0.159-0.237,0.287-0.364,0.389
				c-0.126,0.096-0.252,0.178-0.379,0.229c-0.126,0.058-0.249,0.099-0.365,0.12c-0.116,0.023-0.225,0.037-0.33,0.037
				c-0.299,0-0.53-0.044-0.699-0.141l0.377-1.168c0.032,0.013,0.065,0.023,0.102,0.029c0.035,0.005,0.069,0.01,0.101,0.01
				c0.11,0.005,0.222-0.021,0.335-0.079c0.11-0.062,0.216-0.159,0.313-0.29c0.116-0.146,0.238-0.357,0.366-0.637
				c0.129-0.276,0.264-0.634,0.401-1.072c0.14-0.435,0.286-0.958,0.436-1.558c0.15-0.603,0.312-1.307,0.479-2.113h1.198h1.335h1.256
				l-1.43,6.948h-1.258L108.003,87.177z"/>
			<path fill="#FEFEFE" d="M110.674,85.966h1.256l-0.514,2.492c0.078-0.016,0.2-0.032,0.364-0.052
				c0.163-0.021,0.315-0.028,0.458-0.028c0.296,0,0.567,0.042,0.813,0.123c0.245,0.086,0.458,0.204,0.638,0.362
				c0.18,0.159,0.319,0.355,0.42,0.584c0.101,0.235,0.15,0.501,0.15,0.807c0,0.496-0.083,0.918-0.25,1.272
				c-0.168,0.35-0.398,0.635-0.687,0.854c-0.288,0.219-0.63,0.378-1.024,0.479c-0.393,0.102-0.813,0.154-1.257,0.154
				c-0.083,0-0.192-0.003-0.328-0.005c-0.136-0.003-0.291-0.013-0.468-0.023c-0.178-0.016-0.351-0.032-0.527-0.05
				c-0.173-0.021-0.328-0.049-0.463-0.091L110.674,85.966z M110.731,91.743c0.068,0.013,0.162,0.026,0.271,0.04
				c0.108,0.016,0.226,0.021,0.348,0.021c0.212,0,0.412-0.026,0.603-0.075c0.191-0.05,0.359-0.131,0.502-0.238
				c0.146-0.11,0.261-0.245,0.347-0.412c0.089-0.165,0.133-0.368,0.133-0.608c0-0.328-0.103-0.561-0.31-0.693
				c-0.207-0.131-0.48-0.196-0.821-0.188c-0.041,0-0.091,0.002-0.155,0.01c-0.065,0.008-0.128,0.01-0.188,0.018
				c-0.063,0.008-0.12,0.016-0.175,0.026c-0.056,0.008-0.095,0.019-0.12,0.026L110.731,91.743z"/>
			<path fill="#FEFEFE" d="M118.695,90.005h-2.348l-0.599,2.909h-1.258l1.43-6.948h1.257l-0.578,2.828h2.346l0.581-2.828h1.257
				l-1.432,6.948h-1.255L118.695,90.005z"/>
			<path fill="#FEFEFE" d="M121.941,85.966h1.258l-0.511,2.492c0.083-0.016,0.189-0.032,0.317-0.052
				c0.129-0.021,0.269-0.028,0.416-0.028c0.311,0,0.585,0.046,0.828,0.13c0.241,0.091,0.445,0.216,0.607,0.381
				c0.165,0.162,0.289,0.352,0.373,0.576c0.084,0.222,0.125,0.465,0.125,0.73c0,0.436-0.072,0.828-0.213,1.174
				c-0.143,0.347-0.347,0.647-0.62,0.89c-0.269,0.245-0.6,0.433-0.994,0.558c-0.395,0.13-0.84,0.196-1.344,0.196
				c-0.083,0-0.167,0-0.251,0c-0.084,0-0.135-0.003-0.155-0.011c-0.118,0-0.242-0.008-0.377-0.018
				c-0.134-0.016-0.282-0.032-0.439-0.05c-0.158-0.021-0.304-0.049-0.44-0.091L121.941,85.966z M122,91.743
				c0.134,0.04,0.309,0.06,0.523,0.06c0.211,0,0.411-0.031,0.594-0.088c0.184-0.061,0.343-0.148,0.479-0.264
				c0.136-0.115,0.243-0.258,0.318-0.423c0.077-0.164,0.118-0.36,0.118-0.574c0-0.577-0.342-0.866-1.027-0.866
				c-0.083,0-0.187,0.008-0.308,0.023c-0.124,0.019-0.21,0.038-0.262,0.058L122,91.743z M126.909,85.966h1.257l-1.43,6.948h-1.257
				L126.909,85.966z"/>
			<path fill="#FEFEFE" d="M129.346,85.966h1.256h2.552l-0.252,1.211h-2.552l-0.338,1.617h2.329l-0.259,1.211h-2.311l-0.356,1.699
				h2.597l-0.242,1.21h-2.598h-1.258L129.346,85.966z"/>
			<path fill="#FEFEFE" d="M139.569,92.625c-0.432,0.287-0.96,0.428-1.584,0.428c-0.426,0-0.795-0.073-1.112-0.22
				c-0.315-0.143-0.578-0.347-0.788-0.605c-0.208-0.256-0.366-0.556-0.468-0.9c-0.104-0.344-0.154-0.715-0.154-1.114
				c0-0.78,0.105-1.448,0.318-2.001c0.212-0.55,0.492-1.004,0.84-1.359c0.349-0.355,0.748-0.615,1.193-0.781
				c0.448-0.164,0.909-0.25,1.378-0.25c0.367,0,0.682,0.029,0.941,0.086c0.262,0.06,0.466,0.12,0.616,0.194l-0.494,1.15
				c-0.128-0.07-0.283-0.125-0.463-0.162c-0.181-0.036-0.411-0.055-0.686-0.055c-0.329,0-0.635,0.071-0.92,0.207
				c-0.283,0.143-0.528,0.339-0.732,0.597c-0.207,0.258-0.371,0.574-0.489,0.945c-0.119,0.37-0.18,0.788-0.18,1.26
				c0,0.563,0.138,1.001,0.411,1.32c0.274,0.318,0.641,0.48,1.097,0.48c0.292,0,0.531-0.034,0.722-0.097
				c0.189-0.062,0.367-0.141,0.536-0.235L139.569,92.625z"/>
			<path fill="#FEFEFE" d="M146.017,89.311l0.424-1.37h-0.057l-0.636,1.12l-1.902,2.575h-0.395l-0.906-2.606l-0.173-1.088h-0.048
				l-0.096,1.359l-0.744,3.614h-1.199l1.431-6.948h1.122l1.013,3.175l0.125,0.793h0.047l0.437-0.814l2.281-3.154h1.217l-1.43,6.948
				h-1.256L146.017,89.311z"/>
			<path fill="#FEFEFE" d="M149.128,85.966h1.255h2.553l-0.25,1.211h-2.553l-0.336,1.617h2.328l-0.262,1.211h-2.309l-0.358,1.699
				h2.6l-0.241,1.21h-2.601h-1.256L149.128,85.966z"/>
			<path fill="#FEFEFE" d="M157.034,92.625c-0.432,0.287-0.96,0.428-1.587,0.428c-0.424,0-0.794-0.073-1.112-0.22
				c-0.314-0.143-0.579-0.347-0.787-0.605c-0.21-0.256-0.366-0.556-0.469-0.9c-0.104-0.344-0.154-0.715-0.154-1.114
				c0-0.78,0.106-1.448,0.317-2.001c0.215-0.55,0.494-1.004,0.842-1.359c0.349-0.355,0.746-0.615,1.193-0.781
				c0.449-0.164,0.908-0.25,1.377-0.25c0.37,0,0.682,0.029,0.943,0.086c0.26,0.06,0.465,0.12,0.614,0.194l-0.494,1.15
				c-0.128-0.07-0.283-0.125-0.464-0.162c-0.18-0.036-0.408-0.055-0.685-0.055c-0.329,0-0.633,0.071-0.918,0.207
				c-0.285,0.143-0.528,0.339-0.734,0.597c-0.206,0.258-0.369,0.574-0.488,0.945c-0.119,0.37-0.179,0.788-0.179,1.26
				c0,0.563,0.136,1.001,0.41,1.32c0.275,0.318,0.64,0.48,1.097,0.48c0.29,0,0.53-0.034,0.72-0.097
				c0.19-0.062,0.369-0.141,0.536-0.235L157.034,92.625z"/>
			<path fill="#FEFEFE" d="M162.262,89.131l0.279-0.881h-0.059l-0.618,0.953l-3.151,3.712h-0.965l1.43-6.948h1.256l-0.763,3.713
				l-0.292,0.913h0.058l0.639-0.986l3.131-3.64h0.968l-1.431,6.948h-1.256L162.262,89.131z"/>
		</g>
	</g>
	<g>
		<path fill="#FFFFFF" d="M40.671,92.625c-0.432,0.287-0.96,0.428-1.584,0.428c-0.426,0-0.796-0.073-1.112-0.22
			c-0.315-0.143-0.579-0.347-0.787-0.605c-0.209-0.256-0.366-0.556-0.47-0.9c-0.104-0.344-0.154-0.715-0.154-1.114
			c0-0.78,0.106-1.448,0.318-2.001c0.214-0.55,0.493-1.004,0.841-1.359s0.745-0.615,1.193-0.781c0.449-0.164,0.909-0.25,1.377-0.25
			c0.369,0,0.682,0.029,0.943,0.086c0.261,0.06,0.466,0.12,0.613,0.194l-0.491,1.15c-0.129-0.07-0.284-0.125-0.464-0.162
			c-0.181-0.036-0.41-0.055-0.686-0.055c-0.328,0-0.636,0.071-0.919,0.207c-0.284,0.143-0.529,0.339-0.734,0.597
			c-0.207,0.258-0.369,0.574-0.487,0.945c-0.122,0.37-0.18,0.788-0.18,1.26c0,0.563,0.137,1.001,0.411,1.32s0.641,0.48,1.096,0.48
			c0.291,0,0.531-0.034,0.722-0.097c0.19-0.062,0.368-0.141,0.536-0.235L40.671,92.625z"/>
		<path fill="#FFFFFF" d="M43.87,89.03l0.01,0.905h0.058l0.32-0.932l1.575-3.037h1.401l-2.705,4.803
			c-0.214,0.378-0.404,0.705-0.572,0.984c-0.167,0.277-0.332,0.506-0.496,0.687c-0.165,0.185-0.34,0.323-0.527,0.409
			c-0.188,0.091-0.406,0.136-0.658,0.136c-0.393,0-0.708-0.078-0.948-0.24l0.551-1.102c0.09,0.055,0.174,0.086,0.252,0.104
			c0.076,0.016,0.163,0.023,0.26,0.023c0.137,0,0.268-0.067,0.398-0.213c0.128-0.141,0.254-0.327,0.375-0.551l-1.351-5.041h1.38
			L43.87,89.03z"/>
		<path fill="#FFFFFF" d="M48.471,89.371l-1.072-3.405h1.344l0.581,2.001l0.096,0.707l0.357-0.707l1.441-2.001h1.507l-2.541,3.353
			l1.206,3.596h-1.345l-0.694-2.145l-0.116-0.736L48.85,90.77l-1.558,2.145h-1.546L48.471,89.371z"/>
		<path fill="#FFFFFF" d="M56.581,89.131l0.279-0.881h-0.058l-0.619,0.953l-3.15,3.712h-0.967l1.431-6.948h1.257l-0.763,3.713
			L53.7,90.592h0.058l0.637-0.986l3.131-3.64h0.968l-1.432,6.948h-1.257L56.581,89.131z"/>
		<path fill="#FFFFFF" d="M59.662,85.966h1.257h2.551l-0.25,1.211h-2.553l-0.337,1.617h2.33l-0.26,1.211h-2.313l-0.356,1.699h2.597
			l-0.24,1.21h-2.6h-1.256L59.662,85.966z"/>
		<path fill="#FFFFFF" d="M69.888,92.625c-0.432,0.287-0.96,0.428-1.586,0.428c-0.424,0-0.794-0.073-1.111-0.22
			c-0.316-0.143-0.578-0.347-0.787-0.605c-0.21-0.256-0.366-0.556-0.47-0.9c-0.102-0.344-0.154-0.715-0.154-1.114
			c0-0.78,0.107-1.448,0.318-2.001c0.215-0.55,0.493-1.004,0.841-1.359c0.348-0.355,0.746-0.615,1.195-0.781
			c0.448-0.164,0.906-0.25,1.377-0.25c0.368,0,0.68,0.029,0.943,0.086c0.26,0.06,0.464,0.12,0.613,0.194l-0.493,1.15
			c-0.129-0.07-0.285-0.125-0.464-0.162c-0.18-0.036-0.409-0.055-0.685-0.055c-0.329,0-0.635,0.071-0.918,0.207
			c-0.283,0.143-0.528,0.339-0.734,0.597c-0.207,0.258-0.369,0.574-0.488,0.945c-0.12,0.37-0.181,0.788-0.181,1.26
			c0,0.563,0.137,1.001,0.413,1.32c0.274,0.318,0.639,0.48,1.096,0.48c0.29,0,0.529-0.034,0.72-0.097
			c0.191-0.062,0.369-0.141,0.537-0.235L69.888,92.625z"/>
		<path fill="#FFFFFF" d="M76.18,87.177h-1.876l-1.188,5.737h-1.258l1.181-5.737h-1.875l0.252-1.211h5.005L76.18,87.177z"/>
		<path fill="#FFFFFF" d="M77.136,86.032c0.27-0.052,0.56-0.091,0.865-0.123c0.307-0.028,0.613-0.044,0.924-0.044
			c0.328,0,0.633,0.039,0.914,0.115c0.279,0.075,0.524,0.193,0.733,0.352c0.211,0.157,0.373,0.36,0.489,0.608
			c0.115,0.25,0.172,0.542,0.172,0.887c0,0.514-0.086,0.947-0.262,1.294c-0.172,0.347-0.402,0.624-0.689,0.84
			c-0.287,0.216-0.614,0.365-0.981,0.457c-0.366,0.089-0.741,0.133-1.119,0.133c-0.034,0-0.084,0-0.151,0
			c-0.068,0-0.139,0-0.211-0.005c-0.075-0.002-0.146-0.008-0.214-0.013c-0.068-0.008-0.118-0.013-0.15-0.021l-0.483,2.403h-1.256
			L77.136,86.032z M77.707,89.351c0.026,0.005,0.06,0.013,0.107,0.021c0.044,0.005,0.094,0.011,0.148,0.013
			c0.055,0.002,0.107,0.005,0.155,0.005c0.05,0,0.085,0,0.111,0c0.219,0,0.431-0.023,0.633-0.075
			c0.202-0.047,0.381-0.127,0.537-0.24c0.154-0.107,0.276-0.253,0.37-0.434c0.093-0.177,0.141-0.396,0.141-0.658
			c0-0.195-0.031-0.352-0.092-0.478c-0.063-0.128-0.144-0.224-0.247-0.294c-0.103-0.07-0.223-0.118-0.361-0.144
			c-0.139-0.026-0.285-0.039-0.44-0.039c-0.116,0-0.228,0.002-0.333,0.013c-0.107,0.01-0.196,0.021-0.266,0.034L77.707,89.351z"/>
		<path fill="#FFFFFF" d="M81.293,90.313c0-0.616,0.082-1.197,0.246-1.743c0.165-0.544,0.397-1.022,0.701-1.429
			c0.304-0.41,0.667-0.728,1.096-0.963s0.906-0.355,1.437-0.355c0.348,0,0.66,0.055,0.941,0.16c0.281,0.11,0.52,0.271,0.715,0.496
			c0.198,0.217,0.35,0.501,0.46,0.837c0.107,0.336,0.165,0.736,0.165,1.197c0,0.626-0.083,1.213-0.247,1.761
			c-0.165,0.548-0.397,1.031-0.697,1.443c-0.3,0.415-0.658,0.741-1.072,0.978c-0.417,0.24-0.875,0.358-1.377,0.358
			c-0.762,0-1.344-0.232-1.75-0.689C81.504,91.902,81.299,91.218,81.293,90.313z M82.615,90.274c0,0.475,0.09,0.856,0.268,1.143
			c0.177,0.285,0.468,0.428,0.874,0.428c0.296,0,0.565-0.094,0.807-0.276c0.242-0.183,0.45-0.425,0.623-0.736
			c0.175-0.305,0.308-0.658,0.402-1.057c0.094-0.394,0.14-0.809,0.14-1.24c0-0.524-0.1-0.905-0.3-1.14
			c-0.2-0.24-0.473-0.36-0.821-0.36c-0.29,0-0.556,0.087-0.798,0.259c-0.241,0.172-0.45,0.407-0.626,0.699
			c-0.18,0.297-0.317,0.642-0.417,1.03C82.667,89.421,82.615,89.835,82.615,90.274z"/>
		<g>
			<path fill="#FFFFFF" d="M91.664,89.131l0.28-0.881h-0.059l-0.619,0.953l-3.15,3.712H87.15l1.428-6.948h1.257l-0.763,3.713
				l-0.29,0.913h0.058l0.638-0.986l3.131-3.64h0.968l-1.432,6.948H90.89L91.664,89.131z"/>
			<path fill="#FFFFFF" d="M99.066,87.177h-1.876l-1.188,5.737h-1.254l1.178-5.737H94.05l0.25-1.211h5.007L99.066,87.177z"/>
			<path fill="#FFFFFF" d="M100.032,85.966h1.255h2.553l-0.252,1.211h-2.552l-0.338,1.617h2.329l-0.26,1.211h-2.311l-0.357,1.699
				h2.599l-0.241,1.21h-2.601h-1.256L100.032,85.966z"/>
			<path fill="#FFFFFF" d="M108.003,87.177h-1.341c-0.149,0.626-0.29,1.2-0.419,1.714c-0.133,0.517-0.264,0.981-0.397,1.391
				c-0.132,0.412-0.274,0.775-0.42,1.093c-0.149,0.319-0.308,0.597-0.483,0.835c-0.117,0.159-0.237,0.287-0.364,0.389
				c-0.126,0.096-0.252,0.178-0.379,0.229c-0.126,0.058-0.249,0.099-0.365,0.12c-0.116,0.023-0.225,0.037-0.33,0.037
				c-0.299,0-0.53-0.044-0.699-0.141l0.377-1.168c0.032,0.013,0.065,0.023,0.102,0.029c0.035,0.005,0.069,0.01,0.101,0.01
				c0.11,0.005,0.222-0.021,0.335-0.079c0.11-0.062,0.216-0.159,0.313-0.29c0.116-0.146,0.238-0.357,0.366-0.637
				c0.129-0.276,0.264-0.634,0.401-1.072c0.14-0.435,0.286-0.958,0.436-1.558c0.15-0.603,0.312-1.307,0.479-2.113h1.198h1.335h1.256
				l-1.43,6.948h-1.258L108.003,87.177z"/>
			<path fill="#FFFFFF" d="M110.674,85.966h1.256l-0.514,2.492c0.078-0.016,0.2-0.032,0.364-0.052
				c0.163-0.021,0.315-0.028,0.458-0.028c0.296,0,0.567,0.042,0.813,0.123c0.245,0.086,0.458,0.204,0.638,0.362
				c0.18,0.159,0.319,0.355,0.42,0.584c0.101,0.235,0.15,0.501,0.15,0.807c0,0.496-0.083,0.918-0.25,1.272
				c-0.168,0.35-0.398,0.635-0.687,0.854c-0.288,0.219-0.63,0.378-1.024,0.479c-0.393,0.102-0.813,0.154-1.257,0.154
				c-0.083,0-0.192-0.003-0.328-0.005c-0.136-0.003-0.291-0.013-0.468-0.023c-0.178-0.016-0.351-0.032-0.527-0.05
				c-0.173-0.021-0.328-0.049-0.463-0.091L110.674,85.966z M110.731,91.743c0.068,0.013,0.162,0.026,0.271,0.04
				c0.108,0.016,0.226,0.021,0.348,0.021c0.212,0,0.412-0.026,0.603-0.075c0.191-0.05,0.359-0.131,0.502-0.238
				c0.146-0.11,0.261-0.245,0.347-0.412c0.089-0.165,0.133-0.368,0.133-0.608c0-0.328-0.103-0.561-0.31-0.693
				c-0.207-0.131-0.48-0.196-0.821-0.188c-0.041,0-0.091,0.002-0.155,0.01c-0.065,0.008-0.128,0.01-0.188,0.018
				c-0.063,0.008-0.12,0.016-0.175,0.026c-0.056,0.008-0.095,0.019-0.12,0.026L110.731,91.743z"/>
			<path fill="#FFFFFF" d="M118.695,90.005h-2.348l-0.599,2.909h-1.258l1.43-6.948h1.257l-0.578,2.828h2.346l0.581-2.828h1.257
				l-1.432,6.948h-1.255L118.695,90.005z"/>
			<path fill="#FFFFFF" d="M121.941,85.966h1.258l-0.511,2.492c0.083-0.016,0.189-0.032,0.317-0.052
				c0.129-0.021,0.269-0.028,0.416-0.028c0.311,0,0.585,0.046,0.828,0.13c0.241,0.091,0.445,0.216,0.607,0.381
				c0.165,0.162,0.289,0.352,0.373,0.576c0.084,0.222,0.125,0.465,0.125,0.73c0,0.436-0.072,0.828-0.213,1.174
				c-0.143,0.347-0.347,0.647-0.62,0.89c-0.269,0.245-0.6,0.433-0.994,0.558c-0.395,0.13-0.84,0.196-1.344,0.196
				c-0.083,0-0.167,0-0.251,0c-0.084,0-0.135-0.003-0.155-0.011c-0.118,0-0.242-0.008-0.377-0.018
				c-0.134-0.016-0.282-0.032-0.439-0.05c-0.158-0.021-0.304-0.049-0.44-0.091L121.941,85.966z M122,91.743
				c0.134,0.04,0.309,0.06,0.523,0.06c0.211,0,0.411-0.031,0.594-0.088c0.184-0.061,0.343-0.148,0.479-0.264
				c0.136-0.115,0.243-0.258,0.318-0.423c0.077-0.164,0.118-0.36,0.118-0.574c0-0.577-0.342-0.866-1.027-0.866
				c-0.083,0-0.187,0.008-0.308,0.023c-0.124,0.019-0.21,0.038-0.262,0.058L122,91.743z M126.909,85.966h1.257l-1.43,6.948h-1.257
				L126.909,85.966z"/>
			<path fill="#FFFFFF" d="M129.346,85.966h1.256h2.552l-0.252,1.211h-2.552l-0.338,1.617h2.329l-0.259,1.211h-2.311l-0.356,1.699
				h2.597l-0.242,1.21h-2.598h-1.258L129.346,85.966z"/>
			<path fill="#FFFFFF" d="M139.569,92.625c-0.432,0.287-0.96,0.428-1.584,0.428c-0.426,0-0.795-0.073-1.112-0.22
				c-0.315-0.143-0.578-0.347-0.788-0.605c-0.208-0.256-0.366-0.556-0.468-0.9c-0.104-0.344-0.154-0.715-0.154-1.114
				c0-0.78,0.105-1.448,0.318-2.001c0.212-0.55,0.492-1.004,0.84-1.359c0.349-0.355,0.748-0.615,1.193-0.781
				c0.448-0.164,0.909-0.25,1.378-0.25c0.367,0,0.682,0.029,0.941,0.086c0.262,0.06,0.466,0.12,0.616,0.194l-0.494,1.15
				c-0.128-0.07-0.283-0.125-0.463-0.162c-0.181-0.036-0.411-0.055-0.686-0.055c-0.329,0-0.635,0.071-0.92,0.207
				c-0.283,0.143-0.528,0.339-0.732,0.597c-0.207,0.258-0.371,0.574-0.489,0.945c-0.119,0.37-0.18,0.788-0.18,1.26
				c0,0.563,0.138,1.001,0.411,1.32c0.274,0.318,0.641,0.48,1.097,0.48c0.292,0,0.531-0.034,0.722-0.097
				c0.189-0.062,0.367-0.141,0.536-0.235L139.569,92.625z"/>
			<path fill="#FFFFFF" d="M146.017,89.311l0.424-1.37h-0.057l-0.636,1.12l-1.902,2.575h-0.395l-0.906-2.606l-0.173-1.088h-0.048
				l-0.096,1.359l-0.744,3.614h-1.199l1.431-6.948h1.122l1.013,3.175l0.125,0.793h0.047l0.437-0.814l2.281-3.154h1.217l-1.43,6.948
				h-1.256L146.017,89.311z"/>
			<path fill="#FFFFFF" d="M149.128,85.966h1.255h2.553l-0.25,1.211h-2.553l-0.336,1.617h2.328l-0.262,1.211h-2.309l-0.358,1.699
				h2.6l-0.241,1.21h-2.601h-1.256L149.128,85.966z"/>
			<path fill="#FFFFFF" d="M157.034,92.625c-0.432,0.287-0.96,0.428-1.587,0.428c-0.424,0-0.794-0.073-1.112-0.22
				c-0.314-0.143-0.579-0.347-0.787-0.605c-0.21-0.256-0.366-0.556-0.469-0.9c-0.104-0.344-0.154-0.715-0.154-1.114
				c0-0.78,0.106-1.448,0.317-2.001c0.215-0.55,0.494-1.004,0.842-1.359c0.349-0.355,0.746-0.615,1.193-0.781
				c0.449-0.164,0.908-0.25,1.377-0.25c0.37,0,0.682,0.029,0.943,0.086c0.26,0.06,0.465,0.12,0.614,0.194l-0.494,1.15
				c-0.128-0.07-0.283-0.125-0.464-0.162c-0.18-0.036-0.408-0.055-0.685-0.055c-0.329,0-0.633,0.071-0.918,0.207
				c-0.285,0.143-0.528,0.339-0.734,0.597c-0.206,0.258-0.369,0.574-0.488,0.945c-0.119,0.37-0.179,0.788-0.179,1.26
				c0,0.563,0.136,1.001,0.41,1.32c0.275,0.318,0.64,0.48,1.097,0.48c0.29,0,0.53-0.034,0.72-0.097
				c0.19-0.062,0.369-0.141,0.536-0.235L157.034,92.625z"/>
			<path fill="#FFFFFF" d="M162.262,89.131l0.279-0.881h-0.059l-0.618,0.953l-3.151,3.712h-0.965l1.43-6.948h1.256l-0.763,3.713
				l-0.292,0.913h0.058l0.639-0.986l3.131-3.64h0.968l-1.431,6.948h-1.256L162.262,89.131z"/>
		</g>
	</g>
</g>
<path fill="#FFFFFF" d="M5.545,243.44c0,1.24,1.113,2.243,2.485,2.243h130.574v-4.177H5.545V243.44z"/>
<path fill="#FFFFFF" d="M247.351,232.517c-1.812-23.633-18.816-42.169-39.56-42.169c-20.745,0-37.751,18.536-39.557,42.169H247.351z
	"/>
<rect x="156.618" y="212.816" fill="#FFFFFF" width="75.7" height="57.441"/>
<g>
	<g>
		<polygon fill="#B7B7B7" points="179.194,232.627 138.895,171.851 122.751,182.558 155.953,232.627 		"/>
		<polygon fill="#CCCCCC" points="171.193,232.627 133.338,175.54 122.751,182.558 155.953,232.627 		"/>
	</g>
	<path fill="#B7B7B7" d="M138.881,172.085c1.494,2.108-0.808,6.309-5.141,9.382c-4.334,3.08-9.06,3.861-10.554,1.759
		c-1.494-2.108,0.809-6.309,5.143-9.382C132.661,170.765,137.386,169.982,138.881,172.085z"/>
	<g>
		<path fill="#DBDBDB" d="M123.186,183.226c0,0-0.083-0.104-0.237-0.301c-0.142-0.196-0.34-0.547-0.459-1.021
			c-0.098-0.475-0.16-1.086-0.045-1.764c0.108-0.676,0.333-1.423,0.7-2.179c0.728-1.509,1.966-3.068,3.579-4.375
			c0.211-0.165,0.387-0.323,0.633-0.496l0.616-0.441c0.444-0.293,0.928-0.61,1.411-0.85c0.968-0.513,2.001-0.952,3.085-1.271
			c1.089-0.298,2.226-0.479,3.392-0.445c0.583,0.023,1.171,0.078,1.754,0.274c0.578,0.176,1.164,0.447,1.652,0.896l0.182,0.165
			l0.045,0.041l0.011,0.011l0.057,0.063l0.014,0.019l0.056,0.073l0.224,0.289c0.145,0.157,0.309,0.457,0.449,0.727
			c0.279,0.544,0.415,1.054,0.491,1.578c0.155,1.04-0.014,1.991-0.257,2.799c-0.235,0.815-0.583,1.497-0.929,2.067
			c-0.333,0.578-0.698,1.03-1.001,1.391c-0.307,0.361-0.585,0.608-0.772,0.775c-0.194,0.158-0.297,0.242-0.297,0.242
			s0.329-0.426,0.74-1.24c0.399-0.811,0.929-2.021,1.138-3.488c0.098-0.728,0.1-1.518-0.089-2.26
			c-0.09-0.362-0.255-0.75-0.446-1.028c-0.103-0.14-0.153-0.272-0.347-0.469l-0.243-0.273l-0.061-0.069l-0.016-0.017
			c-0.045-0.051,0.054,0.059,0.041,0.046l-0.006-0.005l-0.025-0.018l-0.101-0.074c-0.51-0.431-1.409-0.556-2.3-0.58
			c-0.911-0.009-1.875,0.162-2.812,0.438c-0.944,0.256-1.869,0.624-2.742,1.063c-0.448,0.219-0.839,0.446-1.265,0.679l-0.644,0.399
			c-0.173,0.103-0.382,0.263-0.57,0.39c-0.756,0.551-1.479,1.107-2.083,1.717c-0.603,0.607-1.146,1.216-1.571,1.831
			c-0.414,0.619-0.738,1.224-0.952,1.79c-0.206,0.57-0.286,1.092-0.302,1.533c0.017,0.438,0.07,0.777,0.16,1.015
			C123.136,183.103,123.186,183.226,123.186,183.226z"/>
	</g>
	
		<path fill="none" stroke="#69806A" stroke-width="2.6717" stroke-linecap="round" stroke-linejoin="round" stroke-miterlimit="10" d="
		M135.755,205.987c0,0,4.899,2.224,13.359-4.456c6.443-5.088,4.898-9.795,4.898-9.795"/>
	
		<path fill="none" stroke="#69806A" stroke-width="2.6717" stroke-linecap="round" stroke-linejoin="round" stroke-miterlimit="10" d="
		M139.095,210.663c0,0,4.898,2.223,13.359-4.457c6.442-5.087,4.898-9.794,4.898-9.794"/>
	
		<path fill="none" stroke="#69806A" stroke-width="2.6717" stroke-linecap="round" stroke-linejoin="round" stroke-miterlimit="10" d="
		M152.676,217.562c-2.227-5.343-1.559-15.362-1.559-15.362s9.129,8.684,8.684,16.255"/>
	<g>
		<path fill="#F7F2ED" d="M158.688,204.652c0,3.81-3.091,6.897-6.901,6.897c-3.812,0-6.902-3.088-6.902-6.897
			c0-3.814,3.09-6.903,6.902-6.903C155.597,197.749,158.688,200.838,158.688,204.652z"/>
		<circle fill="#526752" cx="151.786" cy="204.652" r="5.12"/>
	</g>
</g>
<g>
	<path fill="#828181" d="M176.752,189.952c-12.528,9.21-20.67,23.842-20.67,40.373c0,0.74,0.078,1.461,0.112,2.191h12.041
		c1.246-16.317,9.739-30.192,21.702-37.227C184.962,195.065,180.403,193.114,176.752,189.952z"/>
	<path fill="#D1D1D1" d="M208.214,186.608c-1.153,1.477-2.479,2.785-3.919,3.934c1.153-0.114,2.317-0.194,3.496-0.194
		c1.529,0,3.032,0.132,4.514,0.33C210.802,189.494,209.414,188.142,208.214,186.608z"/>
</g>
<g>
	<path fill="#FFFFFF" d="M225.544,196.678c-6.567,0-12.799-2.891-17.33-7.984c-4.532,5.094-10.763,7.984-17.327,7.984
		c-13.292,0-24.105-11.749-24.105-26.189c0-6.465,2.18-12.985,6.008-18.039l-0.346-0.769c-1.5-3.311-3.767-8.315-4.451-17.2
		l-0.242-3.14l2.426,2.009c5.27,4.364,17.124,10.039,22.467,11.253c3.075,0.699,9.647,1.168,16.354,1.168
		c6.202,0,11.395-0.406,14.245-1.115c3.552-0.88,17.354-7.023,22.513-11.305l2.425-2.012l-0.239,3.142
		c-0.681,8.926-2.961,13.934-4.47,17.248l-0.172,0.38c4.043,5.07,6.347,11.716,6.347,18.38
		C249.646,184.929,238.834,196.678,225.544,196.678z"/>
	<path fill="#EAE9E8" d="M246.609,134.378c-0.72,9.435-3.257,14.334-4.718,17.601c-0.047,0.11-0.099,0.214-0.167,0.318
		c4.054,4.754,6.586,11.417,6.586,18.191c0,13.729-10.197,24.854-22.767,24.854c-6.94,0-13.156-3.391-17.33-8.733
		c-4.175,5.343-10.393,8.733-17.327,8.733c-12.576,0-22.77-11.125-22.77-24.854c0-6.596,2.405-13.155,6.28-17.924
		c-0.141-0.172-0.258-0.371-0.354-0.584c-1.451-3.267-3.992-8.167-4.718-17.601c5.261,4.357,17.328,10.233,23.023,11.527
		c3.223,0.732,9.987,1.201,16.65,1.201c5.687,0,11.299-0.342,14.567-1.154C227.499,144.977,241.359,138.735,246.609,134.378
		 M249.753,128.298l-4.85,4.024c-5.036,4.18-18.514,10.177-21.98,11.037c-2.752,0.684-7.826,1.076-13.925,1.076
		c-6.514,0-13.117-0.467-16.059-1.135c-5.097-1.158-16.862-6.798-21.911-10.979l-4.851-4.018l0.483,6.281
		c0.702,9.12,3.027,14.252,4.566,17.649c0.008,0.018,0.016,0.036,0.024,0.054c-3.706,5.186-5.806,11.721-5.806,18.202
		c0,15.178,11.413,27.525,25.441,27.525c6.479,0,12.644-2.652,17.327-7.37c4.683,4.718,10.849,7.37,17.33,7.37
		c14.026,0,25.438-12.348,25.438-27.525c0-6.68-2.219-13.347-6.134-18.561c1.544-3.401,3.75-8.496,4.425-17.346L249.753,128.298
		L249.753,128.298z"/>
</g>
<path fill="#D1D1D1" d="M206.036,170.911c0,7.378-7.074,13.364-15.781,13.364c-8.722,0-15.79-5.986-15.79-13.364
	c0-7.384,7.068-13.369,15.79-13.369C198.962,157.542,206.036,163.527,206.036,170.911z"/>
<g>
	<path fill="#FFFFFF" d="M197.775,168.49c0,4.013-3.369,7.258-7.52,7.258c-4.167,0-7.535-3.245-7.535-7.258
		c0-4.008,3.368-7.259,7.535-7.259C194.406,161.231,197.775,164.482,197.775,168.49z"/>
	<g>
		<path fill="#799179" d="M196.655,168.49c0,3.407-2.873,6.168-6.4,6.168c-3.541,0-6.406-2.761-6.406-6.168
			c0-3.408,2.865-6.168,6.406-6.168C193.782,162.322,196.655,165.082,196.655,168.49z"/>
	</g>
	<g>
		<path fill="#0A0D10" d="M193.935,168.49c0,1.764-1.49,3.193-3.319,3.193c-1.836,0-3.321-1.43-3.321-3.193s1.485-3.194,3.321-3.194
			C192.444,165.296,193.935,166.727,193.935,168.49z"/>
	</g>
</g>
<path fill="#D1D1D1" d="M241.959,170.911c0,7.378-7.059,13.364-15.784,13.364c-8.715,0-15.785-5.986-15.785-13.364
	c0-7.384,7.07-13.369,15.785-13.369C234.9,157.542,241.959,163.527,241.959,170.911z"/>
<g>
	<path fill="#FFFFFF" d="M233.705,168.49c0,4.013-3.372,7.258-7.53,7.258c-4.159,0-7.53-3.245-7.53-7.258
		c0-4.008,3.371-7.259,7.53-7.259C230.333,161.231,233.705,164.482,233.705,168.49z"/>
	<g>
		<path fill="#799179" d="M232.578,168.49c0,3.407-2.87,6.168-6.403,6.168c-3.538,0-6.397-2.761-6.397-6.168
			c0-3.408,2.859-6.168,6.397-6.168C229.708,162.322,232.578,165.082,232.578,168.49z"/>
	</g>
	<g>
		<path fill="#0A0D10" d="M229.128,168.37c0,1.764-1.486,3.193-3.313,3.193c-1.837,0-3.318-1.43-3.318-3.193
			s1.481-3.194,3.318-3.194C227.642,165.176,229.128,166.606,229.128,168.37z"/>
	</g>
</g>
<rect x="155.958" y="243.246" fill="#EAE9E8" width="103.018" height="46.755"/>
<polygon fill="#828181" points="201.503,185.173 208.029,199.214 214.506,185.173 208.029,175.263 "/>
<path fill="#FFFFFF" d="M189.981,167.17c0,0.829-0.653,1.503-1.461,1.503c-0.795,0-1.445-0.674-1.445-1.503
	c0-0.83,0.65-1.503,1.445-1.503C189.329,165.667,189.981,166.34,189.981,167.17z"/>
<path fill="#FFFFFF" d="M229.076,167.17c0,0.829-0.652,1.503-1.45,1.503c-0.805,0-1.451-0.674-1.451-1.503
	c0-0.83,0.646-1.503,1.451-1.503C228.424,165.667,229.076,166.34,229.076,167.17z"/>
<path fill="#526752" d="M207.841,120.273l-25.355-4.843v28.184c0,0,7.462,4.545,25.389,4.545c18.604,0,25.741-4.984,25.741-4.984
	v-27.779L207.841,120.273z"/>
<polygon fill="#69806A" points="207.841,120.273 162.054,111.533 207.841,102.792 254.055,111.533 "/>
<g>
	<polygon fill="#526752" points="162.685,137.995 161.918,137.995 161.918,112.368 162.734,112.571 	"/>
	<path fill="#526752" d="M166.604,146.839c0-5.546-1.918-10.04-4.279-10.04c-2.356,0-4.274,4.493-4.274,10.04H166.604z"/>
</g>
<rect x="155.958" y="243.246" fill="#526752" width="103.018" height="34.286"/>
<rect x="136.51" y="234.965" fill="#A2BCA2" width="142.634" height="11.975"/>
<rect x="136.51" y="245.422" fill="#FFFFFF" width="142.634" height="4.357"/>
<path fill="none" stroke="#939393" stroke-width="2.1772" stroke-miterlimit="10" d="M204.585,173.207
	c0,6.214-6.825,11.249-15.24,11.249c-8.422,0-15.245-5.035-15.245-11.249c0-6.209,6.823-11.25,15.245-11.25
	C197.76,161.957,204.585,166.998,204.585,173.207z"/>
<path fill="none" stroke="#939393" stroke-width="2.1772" stroke-miterlimit="10" d="M211.172,173.207
	c0,6.214,6.825,11.249,15.238,11.249c8.421,0,15.247-5.035,15.247-11.249c0-6.209-6.826-11.25-15.247-11.25
	C217.997,161.957,211.172,166.998,211.172,173.207z"/>
<rect x="204.461" y="170.666" fill="#B7B7B7" width="7.265" height="2.056"/>
<g>
	<g>
		<path fill="#D1D1D1" d="M260.98,207.522c0,0-2.26-3.304-0.977-10.891c1.289-7.593,5.762-14.56,5.762-14.56l0.871,1.414
			c0,0-0.078-0.537-0.507-1.909c1.112-2.156,4.748-7.337,4.748-7.337l0.549,1.462l-0.213-2.177c0,0,3.042-3.992,6.131-5.447
			c0.229,1.508,0.381,6.898-0.136,8.631c0.141,0.198-2.009,1.294-2.009,1.294l2.139-0.434c0,0-0.746,5.307-0.683,5.735
			c-0.996,0.704-5.396,3.021-5.396,3.021l5.285-1.564c0,0-2.614,9.773-5.484,14.184c-0.506,0.292-4.988,2.07-4.988,2.07l3.903-0.475
			c0,0-2.761,4.389-8.067,7.285C261.601,207.981,261.351,209.233,260.98,207.522z"/>
		<path fill="#FFFFFF" d="M260.971,211.832c0,0,8.583-30.991,13.588-38.813c-4.493,6.09-9.926,19.162-14.471,38.834
			C260.542,212.667,260.971,211.832,260.971,211.832z"/>
	</g>
	<g>
		<rect x="252.621" y="213.731" fill="#526752" width="13.462" height="2.661"/>
		<rect x="251.134" y="211.54" fill="#526752" width="16.124" height="1.252"/>
		<rect x="245.654" y="223.907" fill="#526752" width="27.396" height="8.609"/>
		<polygon fill="#526752" points="273.128,223.28 266.083,219.404 266.083,217.332 252.621,217.332 252.621,219.404 245.577,223.28 
					"/>
	</g>
</g>
<g>
	<path fill="#EAEAEA" d="M173.649,261.463l0.105-1.648h-0.088l-0.625,1.334l-2.102,3.403h-0.486l-2.188-3.403l-0.572-1.334h-0.07
		l0.138,1.632v5.172h-1.285v-8.684h1.373l2.43,3.894l0.504,1.007h0.035l0.521-1.044l2.275-3.856h1.389v8.684h-1.354V261.463z"/>
	<path fill="#EAEAEA" d="M184.725,265.923c-0.347,0.283-0.784,0.503-1.311,0.664c-0.527,0.161-1.085,0.239-1.676,0.239
		c-0.66,0-1.232-0.104-1.719-0.318c-0.485-0.213-0.886-0.521-1.198-0.923c-0.313-0.396-0.543-0.877-0.695-1.431
		c-0.151-0.557-0.226-1.185-0.226-1.878c0-1.481,0.33-2.609,0.99-3.386c0.66-0.773,1.604-1.164,2.831-1.164
		c0.394,0,0.787,0.047,1.18,0.13c0.394,0.089,0.748,0.256,1.06,0.496c0.313,0.245,0.567,0.59,0.764,1.033
		c0.197,0.449,0.295,1.033,0.295,1.763c0,0.383-0.034,0.805-0.104,1.27h-5.575c0,0.511,0.052,0.96,0.157,1.355
		c0.104,0.392,0.267,0.726,0.486,0.998c0.219,0.271,0.507,0.479,0.86,0.626c0.352,0.146,0.784,0.213,1.293,0.213
		c0.394,0,0.788-0.067,1.182-0.208c0.392-0.136,0.688-0.297,0.886-0.485L184.725,265.923z M181.738,258.942
		c-0.684,0-1.23,0.183-1.641,0.543c-0.411,0.354-0.658,0.97-0.738,1.837h4.307c0-0.878-0.168-1.492-0.503-1.848
		C182.826,259.119,182.352,258.942,181.738,258.942z"/>
	<path fill="#EAEAEA" d="M193.188,262.783h-3.923v3.835h-1.39v-8.684h1.39v3.633h3.923v-3.633h1.391v8.684h-1.391V262.783z"/>
	<path fill="#EAEAEA" d="M204.305,265.923c-0.344,0.283-0.782,0.503-1.31,0.664c-0.526,0.161-1.085,0.239-1.674,0.239
		c-0.663,0-1.234-0.104-1.724-0.318c-0.485-0.213-0.884-0.521-1.194-0.923c-0.313-0.396-0.545-0.877-0.696-1.431
		c-0.148-0.557-0.227-1.185-0.227-1.878c0-1.481,0.331-2.609,0.991-3.386c0.66-0.773,1.602-1.164,2.831-1.164
		c0.393,0,0.784,0.047,1.182,0.13c0.391,0.089,0.746,0.256,1.059,0.496c0.313,0.245,0.566,0.59,0.762,1.033
		c0.199,0.449,0.299,1.033,0.299,1.763c0,0.383-0.037,0.805-0.104,1.27h-5.575c0,0.511,0.052,0.96,0.155,1.355
		c0.105,0.392,0.266,0.726,0.488,0.998c0.219,0.271,0.506,0.479,0.858,0.626c0.352,0.146,0.784,0.213,1.291,0.213
		c0.396,0,0.789-0.067,1.185-0.208c0.392-0.136,0.688-0.297,0.885-0.485L204.305,265.923z M201.321,258.942
		c-0.685,0-1.231,0.183-1.645,0.543c-0.409,0.354-0.657,0.97-0.735,1.837h4.305c0-0.878-0.167-1.492-0.5-1.848
		C202.406,259.119,201.934,258.942,201.321,258.942z"/>
	<path fill="#EAEAEA" d="M215.451,268.825h-0.934l-0.261-2.207h-6.534l-0.26,2.207h-0.935v-3.423h1.022
		c0.094-0.125,0.215-0.355,0.366-0.685c0.15-0.328,0.297-0.792,0.442-1.388c0.144-0.599,0.272-1.341,0.382-2.223
		c0.109-0.888,0.178-1.94,0.198-3.173h5.243v7.468h1.269V268.825z M212.796,265.402v-6.252h-2.604
		c-0.023,0.491-0.063,1.018-0.123,1.593c-0.058,0.573-0.136,1.142-0.233,1.717c-0.098,0.573-0.223,1.115-0.375,1.622
		c-0.15,0.512-0.322,0.949-0.521,1.32H212.796z"/>
	<path fill="#EAEAEA" d="M221.369,262.783l-2.552,3.835h-1.597l2.744-3.977l0.59-0.521l-0.887-0.657l-2.255-3.528h1.472l2.4,3.752
		h0.902v-3.752h1.353v3.93l0.819-0.245l2.41-3.685h1.461l-2.364,3.528l-0.672,0.553l0.882,0.7l2.571,3.902h-1.648l-2.558-3.902
		h-0.901v3.902h-1.353v-4.081L221.369,262.783z"/>
	<path fill="#EAEAEA" d="M236.888,265.923c-0.345,0.283-0.782,0.503-1.31,0.664s-1.086,0.239-1.676,0.239
		c-0.662,0-1.236-0.104-1.722-0.318c-0.484-0.213-0.888-0.521-1.195-0.923c-0.313-0.396-0.548-0.877-0.698-1.431
		c-0.147-0.557-0.225-1.185-0.225-1.878c0-1.481,0.328-2.609,0.991-3.386c0.658-0.773,1.603-1.164,2.828-1.164
		c0.396,0,0.789,0.047,1.185,0.13c0.392,0.089,0.746,0.256,1.061,0.496c0.313,0.245,0.563,0.59,0.761,1.033
		c0.198,0.449,0.297,1.033,0.297,1.763c0,0.383-0.036,0.805-0.104,1.27h-5.579c0,0.511,0.052,0.96,0.158,1.355
		c0.104,0.392,0.265,0.726,0.489,0.998c0.22,0.271,0.507,0.479,0.855,0.626c0.355,0.146,0.789,0.213,1.295,0.213
		c0.396,0,0.787-0.067,1.185-0.208c0.392-0.136,0.688-0.297,0.883-0.485L236.888,265.923z M233.902,258.942
		c-0.684,0-1.231,0.183-1.644,0.543c-0.412,0.354-0.657,0.97-0.735,1.837h4.305c0-0.878-0.166-1.492-0.501-1.848
		C234.988,259.119,234.514,258.942,233.902,258.942z"/>
	<path fill="#EAEAEA" d="M240.039,257.935h0.955l0.261,1.044h0.068c0.267-0.407,0.61-0.715,1.033-0.929s0.903-0.323,1.451-0.323
		c1.158,0,2.02,0.344,2.587,1.027c0.563,0.684,0.852,1.801,0.852,3.35c0,0.731-0.1,1.389-0.288,1.974
		c-0.191,0.584-0.459,1.08-0.808,1.481c-0.344,0.408-0.768,0.721-1.258,0.939c-0.495,0.22-1.039,0.328-1.644,0.328
		c-0.429,0-0.768-0.026-1.014-0.078c-0.249-0.052-0.521-0.141-0.808-0.266v3.611h-1.389V257.935z M243.546,258.942
		c-0.59,0-1.059,0.156-1.398,0.464c-0.339,0.303-0.584,0.772-0.72,1.394v4.311c0.208,0.161,0.443,0.287,0.709,0.371
		c0.267,0.088,0.622,0.129,1.061,0.129c0.798,0,1.436-0.297,1.904-0.893c0.47-0.594,0.705-1.471,0.705-2.63
		c0-0.475-0.043-0.908-0.126-1.293c-0.078-0.387-0.209-0.72-0.392-0.991c-0.177-0.272-0.407-0.48-0.694-0.632
		C244.313,259.021,243.964,258.942,243.546,258.942z"/>
</g>
<g>
	<g>
		<polygon fill="#799179" points="368.105,188.909 368.105,186.613 297.327,186.613 297.327,204.976 368.105,204.976 
			368.105,202.679 299.379,202.679 299.379,188.909 		"/>
		<rect x="299.381" y="190.056" fill="#EAE9E8" width="67.356" height="11.479"/>
		<rect x="300.067" y="190.056" fill="#D3D3D3" width="66.67" height="2.273"/>
		<rect x="300.067" y="193.953" fill="#D3D3D3" width="66.67" height="2.271"/>
		<rect x="300.067" y="198.494" fill="#D3D3D3" width="66.67" height="2.275"/>
	</g>
	<g>
		<polygon fill="#799179" points="368.105,229.318 368.105,226.782 297.327,226.782 297.327,247.061 368.105,247.061 
			368.105,244.524 299.379,244.524 299.379,229.318 		"/>
		<rect x="299.381" y="230.584" fill="#EAE9E8" width="67.356" height="12.676"/>
		<rect x="300.067" y="230.584" fill="#D3D3D3" width="66.67" height="2.51"/>
		<rect x="300.067" y="234.886" fill="#D3D3D3" width="66.67" height="2.511"/>
		<rect x="300.067" y="239.906" fill="#D3D3D3" width="66.67" height="2.507"/>
	</g>
	<g>
		<polygon fill="#526752" points="308.037,208.803 308.037,206.507 378.813,206.507 378.813,224.869 308.037,224.869 
			308.037,222.574 376.762,222.574 376.762,208.803 		"/>
		<rect x="309.405" y="209.951" fill="#FFFFFF" width="67.354" height="11.478"/>
		<rect x="309.405" y="209.951" fill="#D3D3D3" width="66.668" height="2.273"/>
		<rect x="309.405" y="213.847" fill="#D3D3D3" width="66.668" height="2.272"/>
		<rect x="309.405" y="218.389" fill="#D3D3D3" width="66.668" height="2.274"/>
	</g>
	<g>
		<polygon fill="#799179" points="368.105,272.065 368.105,269.53 297.327,269.53 297.327,289.808 368.105,289.808 368.105,287.272 
			299.379,287.272 299.379,272.065 		"/>
		<rect x="299.381" y="273.332" fill="#EAE9E8" width="67.356" height="12.674"/>
		<rect x="300.067" y="273.332" fill="#D3D3D3" width="66.67" height="2.509"/>
		<rect x="300.067" y="277.634" fill="#D3D3D3" width="66.67" height="2.51"/>
		<rect x="300.067" y="282.653" fill="#D3D3D3" width="66.67" height="2.509"/>
	</g>
	<g>
		<polygon fill="#526752" points="308.037,251.551 308.037,249.255 378.813,249.255 378.813,267.617 308.037,267.617 
			308.037,265.321 376.762,265.321 376.762,251.551 		"/>
		<rect x="309.405" y="252.699" fill="#FFFFFF" width="67.354" height="11.478"/>
		<rect x="309.405" y="252.699" fill="#D3D3D3" width="66.668" height="2.271"/>
		<rect x="309.405" y="256.594" fill="#D3D3D3" width="66.668" height="2.273"/>
		<rect x="309.405" y="261.136" fill="#D3D3D3" width="66.668" height="2.276"/>
	</g>
	<g>
		<polygon fill="#526752" points="311.875,172.411 311.875,170.549 372.324,170.549 372.324,185.468 311.875,185.468 
			311.875,183.603 370.57,183.603 370.57,172.411 		"/>
		<rect x="313.042" y="173.346" fill="#FFFFFF" width="57.525" height="9.324"/>
		<rect x="313.042" y="173.346" fill="#D3D3D3" width="56.941" height="1.845"/>
		<rect x="313.042" y="176.511" fill="#D3D3D3" width="56.941" height="1.85"/>
		<rect x="313.042" y="180.202" fill="#D3D3D3" width="56.941" height="1.847"/>
	</g>
	<polygon fill="#A2BCA2" points="333.195,215.005 329.247,210.415 325.54,215.005 325.54,193.581 333.195,193.581 	"/>
</g>
<g>
	<path fill="#69806A" d="M346.642,153.394c-3.3-0.167-15.519,0.167-18.325,0c-2.809-0.167,6.11-2.807,5.943-14.694
		c1.317,0,5.119,0.164,6.438,0C341.523,150.915,349.945,153.561,346.642,153.394z"/>
	<rect x="325.203" y="156.53" fill="#828181" width="24.768" height="9.08"/>
	<rect x="322.231" y="166.437" fill="#828181" width="30.712" height="2.474"/>
	<rect x="327.515" y="154.155" fill="#D1D1D1" width="20.145" height="1.944"/>
	<g>
		<rect x="329.169" y="158.015" fill="#D1D1D1" width="16.837" height="6.604"/>
		<path fill="#FFFFFF" d="M330.819,159.502c0,0.271-0.221,0.495-0.497,0.495c-0.271,0-0.493-0.224-0.493-0.495
			c0-0.274,0.222-0.496,0.493-0.496C330.599,159.006,330.819,159.228,330.819,159.502z"/>
		<path fill="#FFFFFF" d="M345.017,159.502c0,0.271-0.222,0.495-0.496,0.495c-0.271,0-0.495-0.224-0.495-0.495
			c0-0.274,0.225-0.496,0.495-0.496C344.795,159.006,345.017,159.228,345.017,159.502z"/>
		<path fill="#FFFFFF" d="M330.819,163.134c0,0.271-0.221,0.493-0.497,0.493c-0.271,0-0.493-0.223-0.493-0.493
			c0-0.271,0.222-0.499,0.493-0.499C330.599,162.635,330.819,162.862,330.819,163.134z"/>
		<path fill="#FFFFFF" d="M345.017,163.134c0,0.271-0.222,0.493-0.496,0.493c-0.271,0-0.495-0.223-0.495-0.493
			c0-0.271,0.225-0.499,0.495-0.499C344.795,162.635,345.017,162.862,345.017,163.134z"/>
	</g>
	<rect x="333.459" y="135.5" fill="#A2A2A3" width="8.257" height="3.095"/>
	<rect x="332.635" y="136.384" fill="#DDDDDD" width="9.906" height="1.323"/>
	<path fill="#D1D1D1" d="M326.059,124.662c-1.371-1.871-5.747-8.561-10.529-21.223c0.597,0,1.229-0.01,1.862-0.021
		c1.258-0.018,2.369-0.034,3.429,0.01c0.295,0.013,0.531,0.028,0.725,0.044c0.181,1.592,0.087,5.858,0.715,8.809l1.654,0.167
		c0.165-0.66-0.354-9.458-0.32-10.291c0.044-1.054-5.424-0.654-8.895-0.704c-0.979-0.018-1.433,1.586-1.244,2.093
		c5.346,14.274,10.702,22.749,12.001,23.302c0.987,0.42,3.121,0.461,3.121,0.461c-0.799-1.351,0.153-0.791-0.702-1.983
		C327.188,124.362,326.555,124.996,326.059,124.662z"/>
	<path fill="#D1D1D1" d="M349.118,124.662c1.369-1.871,5.748-8.561,10.527-21.223c-0.597,0-1.229-0.01-1.862-0.021
		c-1.255-0.018-2.369-0.034-3.429,0.01c-0.292,0.013-0.532,0.028-0.725,0.044c-0.181,1.592-0.087,5.858-0.715,8.809l-1.651,0.167
		c-0.165-0.66,0.354-9.458,0.317-10.291c-0.044-1.054,5.425-0.654,8.896-0.704c0.978-0.018,1.433,1.586,1.244,2.093
		c-5.347,14.274-10.7,22.749-12,23.302c-0.988,0.42-3.12,0.461-3.12,0.461c0.796-1.351-0.152-0.791,0.699-1.983
		C347.986,124.362,348.623,124.996,349.118,124.662z"/>
	<path fill="#799179" d="M352.283,103.534c0,0-0.013-0.008-0.034,0h-0.841h-27.569h-0.913c-0.021-0.008-0.031,0-0.031,0
		s0.331-0.167,0.826,9.079c0.019,0.321,0.071,0.658,0.11,0.989c0,0.057,0.003,0.107,0.008,0.167
		c0.376,6.969,5.812,15.438,8.464,19.185c0.798,1.213,1.325,1.947,1.325,1.947h0.115h0.044h7.601h0.117h0.045
		c0,0,0.088-0.128,0.217-0.306c1.479-1.761,9.342-11.521,9.642-20.497c0.019-0.556,0.037-1.072,0.051-1.568
		C351.952,103.374,352.283,103.534,352.283,103.534z"/>
</g>
<g>
	<path fill="#FFFFFF" d="M335.462,119.822h2.229v-6.332l0.24-1.09l-0.77,0.947l-1.428,0.979l-0.882-1.203l3.655-2.951h1.169v9.65
		h2.182v1.764h-6.396V119.822z"/>
</g>
<g>
	<path fill="#828181" d="M251.952,219.01v-1.678v-3.778h-1.487v-2.682h4.682c-3.477-8.106-9.043-15.143-16.046-20.455
		c-3.742,3.041-8.36,4.873-13.38,4.914c9.387,5.551,16.61,15.329,19.874,27.177L251.952,219.01z"/>
</g>
</svg>
