<?xml version="1.0" encoding="utf-8"?>
<!-- Generator: Adobe Illustrator 16.0.0, SVG Export Plug-In . SVG Version: 6.00 Build 0)  -->
<!DOCTYPE svg PUBLIC "-//W3C//DTD SVG 1.1//EN" "http://www.w3.org/Graphics/SVG/1.1/DTD/svg11.dtd">
<svg version="1.1" id="Layer_1" xmlns="http://www.w3.org/2000/svg" xmlns:xlink="http://www.w3.org/1999/xlink" x="0px" y="0px"
	 width="380px" height="315px" viewBox="0 0 380 315" enable-background="new 0 0 380 315" xml:space="preserve">
<g>
	<g>
		<path fill="#EFC762" d="M45.211,178.945c-1.502,0.666-2.908,1.792-3.88,3.433l-3.484,5.898c-2.156,3.68-1.355,8.13,1.769,9.956
			c3.146,1.831,7.457,0.32,9.609-3.358l3.496-5.916c0.417-0.727,0.701-1.487,0.885-2.249c0.079-0.359-0.304-1.194-0.817-1.509
			C50.938,183.999,47.141,180.483,45.211,178.945z"/>
		<path fill="#D1D1D1" d="M163.681,139.814c18.904-1.181,28.364-26.006,27.77-29.55c6.511-0.595,4.136-11.23,4.136-11.23h-64.599
			c0,0-2.372,10.635,4.139,11.23c-0.595,3.544,8.86,28.369,27.775,29.55"/>
		<g>
			<path fill="none" stroke="#D1D1D1" stroke-width="2.801" stroke-miterlimit="10" d="M32.641,206.114
				c-4.646,19.713-4.37,32.54-1.567,44.029c7.212,29.567,1.442,42.551-4.328,58.417"/>
		</g>
		<g>
			<path fill="#828181" d="M30.654,208.334c-0.214-0.045-0.344-0.253-0.292-0.455l1.91-8.294c0.048-0.209,0.259-0.344,0.468-0.3
				l2.479,0.576c0.214,0.044,0.344,0.264,0.298,0.473l-1.915,8.276c-0.048,0.221-0.262,0.35-0.474,0.305L30.654,208.334z"/>
			<path fill="#B2ADAD" d="M34.449,148.396c-0.18-0.043-0.417-1.485-0.369-1.677l4.42-5.657c0.048-0.192,1.369-0.051,1.555-0.006
				l14.173,3.274c0.183,0.042,1.442,0.495,1.397,0.682l1.58,6.629c-0.048,0.191-0.972,1.783-1.144,1.738L34.449,148.396z"/>
			<path fill="#828181" d="M31.73,154.692c-0.22-0.048-0.338-0.284-0.284-0.524l1.338-5.795c0.053-0.242,0.268-0.4,0.476-0.352
				l24.024,5.544c0.206,0.048,0.324,0.282,0.282,0.524l-1.35,5.795c-0.053,0.241-0.262,0.395-0.47,0.344L31.73,154.692z"/>
			<path fill="#B2ADAD" d="M35.421,160.662c-0.211-0.045-0.341-0.265-0.293-0.484l-2.837-3.368c0.051-0.219,0.245-2.028,0.454-1.983
				l22.014,5.08c0.22,0.045-0.313,1.369-0.364,1.583l-3.736,2.271c-0.05,0.22-0.259,0.354-0.468,0.31L35.421,160.662z"/>
			<path fill="#A2A2A3" d="M27.038,198.277c-0.208-0.051-0.336-0.26-0.291-0.474l8.511-36.877c0.051-0.214,0.256-0.344,0.468-0.293
				l13.813,3.184c0.217,0.051,0.341,0.265,0.27,0.163l-8.514,36.872c-0.02,0.523-0.225,0.664-0.431,0.62L27.038,198.277z"/>
			<polygon fill="#828181" points="35.813,167.378 36.447,164.611 47.403,167.142 46.769,169.908 			"/>
			<g>
				
					<rect x="29.006" y="150.615" transform="matrix(-0.2249 0.9744 -0.9744 -0.2249 187.7525 153.5089)" fill="#D1D1D1" width="7.627" height="1.632"/>
				<polygon fill="#D1D1D1" points="54.536,160.353 56.249,152.928 57.843,153.289 56.128,160.724 				"/>
				<polygon fill="#D1D1D1" points="35.607,155.988 37.326,148.556 43.422,149.964 41.709,157.402 				"/>
				
					<rect x="45.676" y="152.15" transform="matrix(-0.2246 0.9745 -0.9745 -0.2246 211.9178 141.9313)" fill="#D1D1D1" width="7.626" height="6.26"/>
			</g>
			<g>
				<polygon fill="#828181" points="34.922,146.697 38.855,141.885 42.656,142.764 39.117,147.666 				"/>
				<polygon fill="#828181" points="56.368,151.644 54.951,145.603 51.144,144.719 52.175,150.678 				"/>
				<polygon fill="#828181" points="40.213,147.917 43.682,143 50.121,144.488 51.077,150.427 				"/>
			</g>
			<path fill="#828181" d="M41.506,141.462c-0.217-0.048-0.335-0.288-0.276-0.541l0.129-0.561c0.053-0.251,0.279-0.42,0.487-0.367
				l11.238,2.592c0.214,0.048,0.335,0.293,0.276,0.544l-0.127,0.563c-0.062,0.254-0.271,0.414-0.484,0.364L41.506,141.462z"/>
			<path fill="#A2A2A3" d="M52.09,142.33l5.849-25.333c0.051-0.213-0.079-0.433-0.29-0.481l-8.48-1.958
				c-0.214-0.051-0.425,0.09-0.473,0.31l-5.837,25.327L52.09,142.33z"/>
			<path fill="#B5B5B5" d="M56.728,102.354c0,0,1.854-10.173,2.054-11.066c0.211-0.89,3.759-0.839,3.759-0.839l-1.463,12.221
				L56.728,102.354z"/>
			<path fill="#828181" d="M53.981,110.248c0,0,4.012-17.974,4.288-18.605c0.281-0.625,1.541-1.025,1.541-1.025l-4.589,19.917
				L53.981,110.248z"/>
			<path fill="#A2A2A3" d="M57.312,116.434c0.008-0.04,0.02-0.073,0.03-0.113l1.138-4.919c0.146-0.639-0.067-1.236-0.476-1.332
				l-6.328-1.457c-0.414-0.095-0.862,0.349-1.011,0.98l-1.138,4.924c-0.003,0.037-0.011,0.08-0.017,0.118L57.312,116.434z"/>
			
				<rect x="51.787" y="99.285" transform="matrix(-0.0581 0.9983 -0.9983 -0.0581 164.5028 44.3563)" fill="#828181" width="19.077" height="1.002"/>
			
				<rect x="53.256" y="108.524" transform="matrix(-0.2228 0.9749 -0.9749 -0.2228 175.8395 84.8808)" fill="#828181" width="1.659" height="8.017"/>
			<path fill="#526752" d="M59.652,95.693c-0.318-0.073-0.512-0.389-0.439-0.698c0.068-0.316,0.386-0.513,0.699-0.439
				s0.513,0.386,0.439,0.698C60.277,95.57,59.962,95.761,59.652,95.693z"/>
			<path fill="#526752" d="M58.494,100.7c-0.321-0.071-0.513-0.386-0.434-0.702c0.073-0.31,0.377-0.507,0.696-0.434
				c0.315,0.073,0.513,0.386,0.443,0.699C59.123,100.576,58.807,100.77,58.494,100.7z"/>
		</g>
		<path fill="#EFC762" d="M46.789,177.779c-2.318-2.006-3.079-2.592-3.065-4.429c0.02-1.837,2.397-2.896,3.454-2.253
			c1.067,0.652,5.792,4.051,7.454,6.248c2.615,3.476,0.857,6.586,0.372,7.29C54.533,185.357,49.099,179.791,46.789,177.779z"/>
		<rect x="124.485" y="92.533" fill="#828181" width="76.243" height="7.685"/>
		<path fill="#A2A2A3" d="M191.727,70.237l-1.555,1.014l-18.121,11.951l11.968-18.098l1.603-2.457
			c-6.051-5.617-14.109-9.122-23.023-9.122c-9.189,0-17.497,3.691-23.619,9.615l1.29,1.964l11.957,18.098L134.12,71.251
			l-0.873-0.571c-2.862,4.992-4.631,10.674-4.631,16.827c0,0.11,0.034,0.203,0.034,0.298h67.906c0-0.095,0.04-0.188,0.04-0.298
			C196.595,81.174,194.744,75.319,191.727,70.237z"/>
		<path fill="#828181" d="M186.436,140.017l-0.096,37.036h-46.101l0.098-37.036l-14.078,3.344l-0.896,80.17l75.851-0.097
			l-1.673-79.482C200.569,144.341,186.436,140.017,186.436,140.017z"/>
		<g>
			<path fill="#EFC762" d="M37.202,171.795c-0.738-1.194-2.499-1.994-3.699-2.529c-2.581-1.121-4.507-1.099-6.521,1.291
				c-0.119,0.135-0.211,0.495,0.039,0.591c1.643,0.643,7.894,3.088,9.001,3.78C38.531,176.512,37.948,172.967,37.202,171.795z"/>
			<g>
				<path fill="#EFC762" d="M21.529,182.912c-0.335,2.767,0.795,4.254,3.313,5.291c2.848,1.172,4.654,0.051,5.333-1.15
					c0.302-0.534-0.369-1.29-0.369-1.29l-7.818-3.273C21.989,182.489,21.552,182.727,21.529,182.912z"/>
				<g>
					<path fill="#EFC762" d="M35.723,175.92c-1.305-0.761-9.497-3.843-9.677-4.04c-0.082-0.096-0.752,0.71-1.262,1.656
						c-0.591,1.099-1.009,2.379-0.761,2.452c0.459,0.135,9.579,3.808,11.013,4.603C36.463,181.391,38.241,177.402,35.723,175.92z"/>
					<path fill="#EFC762" d="M23.606,176.945c-0.2-0.051-0.713,1.184-1.167,2.242c-0.901,2.102-0.07,2.355-0.07,2.355l9.815,4.277
						c1.183,0.304,1.823-0.158,1.997-0.547c0,0,2.139-2.846,0.344-3.764C33.235,180.85,23.992,177.041,23.606,176.945z"/>
				</g>
			</g>
		</g>
		<polygon fill="#A2A2A3" points="117.521,308.357 210.314,308.357 209.687,218.725 117.346,219.012 		"/>
		<path fill="#D1D1D1" d="M199.542,143.953c4.732,1.775,24.236,2.361,28.368,11.821c4.143,9.452,15.14,62.067,15.371,65.012
			c0.589,7.691-28.519,25.306-34.648,28.552c-0.723-10.099-7.393-22.089-7.393-22.089l15.443-14.146l-8.273-33.092l-1.179,1.369
			l-0.402,36.944l-5.679,0.361L199.542,143.953z"/>
		<path fill="#D1D1D1" d="M101.172,159.901c-1.327,4.429-7.339,22.667-12.564,39.971c0,0-28.133-17.974-29.421-18.51
			c-2.008,9.196-11.745,20.735-11.745,20.735l40.061,28.578c12.255,8.547,15.534,6.985,18.368,5.188
			c3.248-2.078,13.292-38.727,13.292-38.727l2.958-10.242l-0.755,31.7h4.116l0.778-75.234
			C126.26,143.361,104.418,149.085,101.172,159.901z"/>
		<polygon fill="#828181" points="140.239,187.595 140.239,177.053 140.337,140.017 126.26,143.361 125.71,187.595 		"/>
		<path fill="#828181" d="M186.34,186.568h14.213l-1.011-42.616c1.027,0.389-13.106-3.936-13.106-3.936l-0.096,37.036V186.568z"/>
		<path fill="#D1D1D1" d="M140.239,140.403c0,0,8.967,9.663,23.743,9.663c14.768,0,22.357-9.663,22.357-9.663v36.65h-46.101V140.403
			z"/>
		<path fill="#FFFFFF" d="M137.306,182.13c0,2.196-1.78,3.994-3.983,3.994c-2.208,0-3.992-1.798-3.992-3.994
			c0-2.204,1.784-3.99,3.992-3.99C135.526,178.14,137.306,179.926,137.306,182.13z"/>
		<path fill="#FFFFFF" d="M197.009,182.13c0,2.196-1.783,3.994-3.989,3.994c-2.208,0-3.992-1.798-3.992-3.994
			c0-2.204,1.784-3.99,3.992-3.99C195.226,178.14,197.009,179.926,197.009,182.13z"/>
		<path fill="#FFFFFF" d="M163.29,126.486c-4.66,0.123-9.094-1.826-9.094-1.462c0,1.958,5.933,4.831,9.362,4.831
			c3.428,0,8.823-2.873,8.823-4.831C172.38,124.661,168.487,126.345,163.29,126.486z"/>
		<rect x="146.059" y="102.117" fill="#A2A2A3" width="9.72" height="1.082"/>
		<rect x="170.355" y="102.117" fill="#A2A2A3" width="9.717" height="1.082"/>
		<ellipse fill="#A2A2A3" cx="151.274" cy="109.588" rx="3.149" ry="3.69"/>
		<path fill="#A2A2A3" d="M178.463,109.588c0,2.037-1.411,3.69-3.147,3.69c-1.744,0-3.152-1.654-3.152-3.69
			c0-2.04,1.408-3.69,3.152-3.69C177.052,105.898,178.463,107.548,178.463,109.588z"/>
		<path fill="#BCBCBC" d="M167.193,120c0,0.704-0.391,1.28-0.867,1.28h-6.074c-0.482,0-0.874-0.576-0.874-1.28l0,0
			c0-0.71,0.392-1.284,0.874-1.284h6.074C166.803,118.716,167.193,119.291,167.193,120L167.193,120z"/>
		<g>
			<path fill="#EFC762" d="M24.933,191.025c-0.372-0.653-0.907-1.848-1.605-2.163c-0.395-0.181-0.826-0.271-1.285-0.271
				c-1.121,0-3.33,1.415-3.454,1.146c0.031-0.13,0.876-3.657-0.003-5.01c-0.899-1.393-4.28-1.55-4.601-1.921
				c-0.321-0.373,2.663-2.604,2.682-4.176c0.017-1.65-3.262-4.276-2.862-4.716c0.4-0.434,3.347-0.028,4.322-1.459
				c0.972-1.414-1.038-4.778-0.282-5.573c0.569-0.597,2.349,0.564,3.175,0.564c0.662,0,1.248-0.136,1.738-0.412
				c1.184-0.653,1.505-3.233,2.254-3.577c0.822-0.378,2.102,1.543,3.797,1.244c2.074-0.359,2.615-2.975,2.615-2.975
				c-1.172,0.901-1.521,1.538-2.975,1.442c-1.347-0.084-2.649-2.693-3.97-2.439c-1.259,0.248-1.572,3.916-2.704,4.541
				c-1.293,0.722-4.902-1.335-5.908-0.214c-1.014,1.133,1.459,4.998,0.591,6.26c-0.816,1.201-4.946-0.062-5.51,1.291
				c-1.011,2.434,3.719,4.225,3.698,5.995c-0.02,1.571-3.879,3.6-3.414,5.098c0.465,1.5,4.814,0.817,5.66,2.125
				c0.851,1.313-1.375,5.269-0.217,6.277c1.158,1.009,4.426-2.04,5.812-1.403c1.38,0.631,2.355,3.662,2.715,5.735
				C25.654,193.82,24.933,191.025,24.933,191.025z"/>
			<path fill="#F3D793" d="M12.376,161.631c-1.296,1.454,2.211,7.207,0.938,7.663c-1.274,0.456-6.308-0.254-7.015,1.724
				c-1.09,3.037,4.24,6.142,4.228,7.506c-0.011,1.278-4.527,4.406-3.901,6.411c0.628,2.023,6.048,1.91,6.781,2.896
				c0.732,0.986-1.434,6.204,0.042,7.629c0.865,0.839,5.885-1.713,6.488-1.758c3.101-0.243,3.231,5.899,4.634,5.889
				c0.003-0.079-1.533-6.221-2.614-7.122c-1-0.834-6.159,2.028-7.125,0.974c-0.952-1.037,0.473-5.944-0.347-6.575
				c-0.597-0.462-5.719-1.589-5.623-2.856c0.04-0.558,3.417-4.648,3.028-5.882c-0.206-0.654-4.11-4.175-3.203-6.232
				c0.693-1.566,5.617-0.89,6.237-2.236c0.541-1.172-1.803-5.606-1.217-6.587c0.586-0.986,5.285,0.316,6.316,0.428
				c1.031,0.119,3.04-3.661,3.555-4.568c1.003-1.764,4.283,2.219,5.229,2.344c1.353,0.18,2.795-2.344,2.795-2.344
				c-0.125,0.033-1.542,0.851-2.752,0.676c-1.211-0.175-3.555-3.934-5.001-3.742c-1.445,0.198-3.226,5.697-4.519,5.736
				c-0.462,0.012-2.953-0.507-3.4-0.552C14.52,160.904,13.092,160.831,12.376,161.631z"/>
			<path fill="#F7E4BA" d="M30.792,156.858c-0.169,0.084-1.223,0.178-1.353,0.18c-1.298,0.04-4.085-6.344-6.119-6.344l-0.439,0.017
				l-0.236,0.045c-2.305,0.456-3.609,6.08-4.618,6.603c-1.005,0.524-4.549-1.005-5.685-1.005c-1.388,0-2.485,0.439-3.259,1.305
				c-1.654,1.848,1.009,7.866,0.406,8.834c-0.603,0.97-6.979,0.029-7.875,2.728c-1.251,3.752,4.978,8.142,4.973,9.285
				c-0.006,1.149-5.381,5.381-4.584,7.939c0.806,2.598,7.491,2.93,8.19,3.735c0.693,0.806-1.724,7.566,0.25,9.291
				c0.468,0.412,1.285,0.901,2.497,0.901c1.476,0,5.198-2.479,6.279-2.288c2.468,0.424,2.738,5.292,4.992,5.111
				c-1.352-1.353-1.96-6.665-3.913-7.562c-1.966-0.896-6.598,3.421-8.24,1.989c-1.637-1.433,1.513-7.038,0.307-8.892
				c-1.195-1.854-7.361-0.891-8.021-3.015c-0.663-2.124,4.809-5.003,4.839-7.223c0.029-2.513-6.502-4.705-5.24-8.497
				c0.651-1.972,6.646-0.135,7.807-1.831c1.234-1.791-2.276-7.263-0.84-8.871c1.428-1.595,6.542,1.327,8.373,0.301
				c1.609-0.882,2.053-6.079,3.837-6.432c1.871-0.364,4.699,4.854,6.229,4.755C30.432,157.851,30.792,156.858,30.792,156.858z"/>
		</g>
		<path fill="#EFC762" d="M175.938,227.447c-0.963,2.045-1.383,4.315-2.524,5.409c-1.149,1.099-5.837-0.383-6.631,1.036
			c-0.786,1.409,2.806,4.762,2.428,6.384c-0.375,1.606-4.918,2.316-4.848,4.006c0.064,1.69,4.603,2.536,5.177,4.142
			c0.648,1.813-3.403,5.179-1.543,7.353c1.034,1.212,4.677-1.414,5.908-0.451c1.304,1.026,0.219,5.793,1.628,6.633
			c1.389,0.828,4.237-2.451,5.769-2.13c1.341,0.281,2.948,3.949,4.28,3.797c1.4-0.157,1.767-3.263,3.071-3.786
			c1.403-0.563,1.972-0.022,3.451,0.523c0,0-1.456-2.511-3.64-2.214c-1.777,0.243-2.369,2.626-3.318,2.507
			c-0.859-0.111-2.087-2.664-3.496-2.95c-0.575-0.13-1.212-0.08-1.862,0.134c-0.817,0.265-2.172,2.034-2.947,1.601
			c-1.028-0.569-0.223-4.677-1.688-5.815c-1.465-1.16-4.242,0.209-4.794-0.111c-0.546-0.322,1.775-4.081,1.175-5.771
			c-0.578-1.611-4.319-2.941-4.134-3.426c0.186-0.484,3.477-1.74,3.877-3.459c0.389-1.674-1.688-5.031-1.764-5.156
			c0.054-0.919,3.601-0.604,4.623-1.16C175.457,233.819,175.578,230.332,175.938,227.447z"/>
		<path fill="#F3D793" d="M177.007,266.054c0.431-0.191,2.715-1.504,3.172-1.662c1.891-0.643,5.001,4.705,6.5,4.44
			c1.499-0.271,2.496-4.891,3.631-5.46c1.136-0.569,2.825-0.187,2.964-0.192c0,0-2.316-2.135-3.595-1.509
			c-0.896,0.433-2.738,5.589-4.349,4.096c-0.832-0.766-3.677-4.04-4.703-3.702c-1.442,0.484-5.604,3.454-6.53,2.632
			c-0.927-0.822-0.172-6.142-1.122-7.174c-1.09-1.177-5.728,1.104-6.97-0.286c-1.62-1.819,1.003-6.699,0.975-7.438
			c-0.048-1.396-4.84-4.512-5.074-5.07c-0.538-1.268,4.13-4.08,4.562-4.75c0.586-0.918-2.634-5.533-1.983-6.873
			c0.998-2.052,6.576-0.902,7.607-1.81c2.045-1.803,2.558-4.722,2.524-4.806c-1.082,1.323-2.164,4.203-5.288,3.967
			c-0.634-0.051-6.362-0.124-6.919,1.019c-0.963,1.945,3.02,6.609,2.648,7.861c-0.375,1.25-5.781,2.879-5.69,5.167
			c0.087,2.265,5.662,4.017,6.13,5.329c0.487,1.398-3.69,6.312-1.541,9.077c1.395,1.81,6.133-0.546,7.556-0.489
			c1.417,0.062-0.022,7.109,1.781,8.186C174.276,267.192,175.663,266.657,177.007,266.054z"/>
		<g>
			<path fill="#FFFFFF" d="M142.926,207.802c-0.563,0.203-1.676,0.535-2.989,0.535c-1.474,0-2.688-0.374-3.64-1.284
				c-0.837-0.809-1.358-2.11-1.358-3.626c0.017-2.9,2.009-5.023,5.271-5.023c1.127,0,2.009,0.246,2.426,0.448l-0.304,1.026
				c-0.518-0.231-1.169-0.42-2.149-0.42c-2.369,0-3.913,1.473-3.913,3.913c0,2.468,1.487,3.928,3.752,3.928
				c0.826,0,1.386-0.116,1.676-0.26v-2.902h-1.978v-1.012h3.206V207.802z"/>
			<path fill="#FFFFFF" d="M151.063,203.676h-3.784v3.507h4.217v1.054h-5.474v-9.73h5.257v1.053h-4v3.073h3.784V203.676z"/>
			<path fill="#FFFFFF" d="M154.147,198.506h1.256v8.677h4.159v1.054h-5.415V198.506z"/>
			<path fill="#FFFFFF" d="M162.073,206.706c0.563,0.347,1.386,0.634,2.25,0.634c1.288,0,2.037-0.679,2.037-1.658
				c0-0.91-0.519-1.432-1.834-1.937c-1.589-0.563-2.569-1.386-2.569-2.758c0-1.516,1.256-2.643,3.146-2.643
				c0.998,0,1.719,0.231,2.152,0.479l-0.346,1.024c-0.319-0.173-0.969-0.463-1.848-0.463c-1.33,0-1.834,0.794-1.834,1.459
				c0,0.91,0.592,1.358,1.935,1.877c1.646,0.636,2.482,1.43,2.482,2.859c0,1.501-1.11,2.801-3.406,2.801
				c-0.938,0-1.963-0.274-2.485-0.621L162.073,206.706z"/>
			<path fill="#FFFFFF" d="M172.454,199.573h-2.958v-1.067h7.203v1.067h-2.972v8.663h-1.273V199.573z"/>
			<path fill="#FFFFFF" d="M184.024,203.676h-3.784v3.507h4.218v1.054h-5.474v-9.73h5.257v1.053h-4.001v3.073h3.784V203.676z"/>
			<path fill="#FFFFFF" d="M187.109,198.636c0.637-0.13,1.547-0.203,2.412-0.203c1.344,0,2.208,0.244,2.817,0.794
				c0.49,0.434,0.764,1.097,0.764,1.849c0,1.284-0.81,2.138-1.835,2.481v0.045c0.752,0.259,1.201,0.952,1.432,1.964
				c0.318,1.358,0.549,2.296,0.749,2.671h-1.299c-0.157-0.273-0.374-1.113-0.649-2.325c-0.288-1.343-0.806-1.848-1.948-1.893h-1.186
				v4.218h-1.257V198.636z M188.366,203.066h1.285c1.344,0,2.197-0.735,2.197-1.848c0-1.258-0.91-1.804-2.24-1.82
				c-0.606,0-1.039,0.06-1.242,0.119V203.066z"/>
		</g>
		<path fill="#F7E4BA" d="M193.203,265.569c-0.198-0.022-1.274,0.214-1.403,0.254c-1.299,0.376-1.809,7.844-3.817,8.496
			l-0.442,0.124l-0.251,0.029c-2.445,0.276-5.716-5.083-6.902-5.298c-1.183-0.213-4.147,2.502-5.271,2.869
			c-1.377,0.444-2.612,0.344-3.688-0.299c-2.291-1.364-1.777-8.407-2.718-9.208c-0.941-0.8-6.917,2.216-8.765-0.264
			c-2.558-3.453,2.06-9.979,1.648-11.15c-0.405-1.179-7.223-3.798-7.339-6.684c-0.118-2.935,6.384-5.431,6.789-6.479
			c0.403-1.053-4.375-7.234-3.03-9.641c0.312-0.567,0.952-1.34,2.151-1.729c1.463-0.473,6.455,0.857,7.599,0.857
			c3.127,0,4.448-2.401,5.891-3.606c-0.481,2.406-2.403,4.209-3.967,4.812c-2.102,0.806-8.308-0.952-9.426,1.048
			c-1.116,2.001,3.986,6.75,3.445,9.037c-0.53,2.294-6.975,3.297-6.877,5.686c0.095,2.406,6.525,3.601,7.344,5.872
			c0.91,2.575-4.778,6.941-2.189,10.43c1.335,1.813,6.629-2.012,8.376-0.638c1.854,1.443,0.304,8.199,2.299,9.393
			c1.975,1.178,6.006-3.471,8.181-3.015c1.901,0.395,4.178,5.591,6.068,5.381c1.98-0.23,2.938-6.507,4.487-6.902
			C192.492,264.674,193.203,265.569,193.203,265.569z"/>
		<g>
			<polygon fill="#D1D1D1" points="194.073,253.304 172.102,207.912 175.739,206.154 197.713,251.539 			"/>
			<polygon fill="#828181" points="199.246,272.331 178.519,226.466 186.506,222.629 209.878,267.182 			"/>
			<polygon fill="#A2A2A3" points="175.714,208.746 174.088,209.474 170.819,204.267 173.846,202.875 			"/>
		</g>
		<path fill="#EFC762" d="M200.699,229.504c-1.803-2.886-7.505-2.028-10.458-1.442c0,3.848-9.055,4.429-9.815,4.546
			c-4.501,0.693-3.608,5.815-2.727,5.742c0.882-0.068,8.22-1.212,8.22-1.212c0.2,0.395,0.392,0.8,0.569,1.252l-9.429,1.245
			c-1.172,0.377-1.4,1.183-1.288,1.649c0,0,0.102,3.934,2.187,3.805c1.084-0.068,6.868-0.97,9.993-1.466
			c0.079,0.389,0.155,0.783,0.234,1.178c-3.122,0.513-8.821,1.421-10.047,1.454c-1.704,0.044-0.555,4.874,2.491,4.874
			c1.084-0.006,5.697-0.756,8.482-1.224c0.068,0.39,0.138,0.784,0.209,1.16c-2.688,0.469-5.75,0.977-6.84,0.941
			c-3.113-0.101-0.304,2.97,1.082,3.675c1.389,0.721,3.369,0.495,4.708,0.332c1.257-0.169,3.136-0.834,4.617-1.268
			c7.639-2.226,13.343-7.285,13.343-8.413C206.229,242.729,201.984,231.56,200.699,229.504z"/>
	</g>
	<rect x="255.585" y="68.898" fill="#BC9942" width="58.417" height="240.885"/>
	<g>
		<path fill="#E2E0E0" d="M280.548,70.792l32.807,11.815c-0.015-0.422-0.025-0.803-0.04-1.197l-27.42-9.872
			C283.813,71.274,282.022,71.023,280.548,70.792z"/>
		<path fill="#E2E0E0" d="M272.891,77.061l40.661,14.644c-0.006-0.395-0.015-0.806-0.022-1.189L272.891,75.88V77.061z"/>
		<path fill="#E2E0E0" d="M272.891,84.859l40.766,14.68c0-0.4-0.006-0.792-0.012-1.186l-40.754-14.675V84.859z"/>
		<path fill="#E2E0E0" d="M272.891,93.031l40.844,14.709c0-0.403-0.008-0.786-0.008-1.183l-40.836-14.707V93.031z"/>
		<path fill="#E2E0E0" d="M272.891,100.951l40.896,14.729c0-0.4,0-0.786-0.009-1.183L272.891,99.77V100.951z"/>
		<path fill="#E2E0E0" d="M272.891,109.515l40.937,14.74c-0.008-0.397-0.008-0.787-0.008-1.184l-40.929-14.737V109.515z"/>
		<path fill="#E2E0E0" d="M272.891,117.313l40.954,14.748c0-0.395,0-0.789-0.006-1.183l-40.948-14.746V117.313z"/>
		<path fill="#E2E0E0" d="M272.891,125.486l40.962,14.753c0-0.392,0-0.792,0-1.183l-40.962-14.751V125.486z"/>
		<path fill="#E2E0E0" d="M272.891,133.405l40.971,14.754c0-0.395,0-0.786,0-1.18l-40.971-14.754V133.405z"/>
		<path fill="#E2E0E0" d="M272.891,142.09l40.962,14.754c0-0.395,0.009-0.789,0.009-1.184l-40.971-14.751V142.09z"/>
		<path fill="#E2E0E0" d="M272.891,149.889l40.954,14.748c0-0.395,0-0.786,0-1.18l-40.954-14.749V149.889z"/>
		<path fill="#E2E0E0" d="M272.891,158.062l40.942,14.745c0-0.395,0-0.789,0-1.181l-40.942-14.745V158.062z"/>
		<path fill="#E2E0E0" d="M272.891,165.981l40.92,14.736c0-0.395,0-0.786,0.009-1.181l-40.929-14.736V165.981z"/>
		<path fill="#E2E0E0" d="M272.891,174.545l40.896,14.729c0.005-0.395,0.005-0.789,0.005-1.18l-40.9-14.729V174.545z"/>
		<path fill="#E2E0E0" d="M272.891,182.343l40.87,14.718c0-0.393,0-0.786,0-1.182l-40.87-14.716V182.343z"/>
		<path fill="#E2E0E0" d="M272.891,190.515l40.836,14.707c0-0.393,0.008-0.786,0.008-1.178l-40.844-14.708V190.515z"/>
		<path fill="#E2E0E0" d="M272.891,198.436l40.802,14.694c0-0.392,0.006-0.786,0.006-1.181l-40.808-14.695V198.436z"/>
		<path fill="#E2E0E0" d="M272.891,207.359l40.76,14.679c0-0.392,0.006-0.787,0.006-1.178l-40.766-14.681V207.359z"/>
		<path fill="#E2E0E0" d="M272.891,215.158l40.717,14.663c0.006-0.395,0.006-0.783,0.006-1.177l-40.723-14.667V215.158z"/>
		<path fill="#E2E0E0" d="M272.891,223.331l40.679,14.649c0.002-0.392,0.002-0.786,0.002-1.181l-40.681-14.649V223.331z"/>
		<path fill="#E2E0E0" d="M272.891,231.25l40.636,14.633c0-0.392,0-0.783,0.003-1.178l-40.639-14.636V231.25z"/>
		<path fill="#E2E0E0" d="M272.891,239.212l40.585,14.615c0-0.395,0.009-0.783,0.009-1.18l-40.594-14.616V239.212z"/>
		<path fill="#E2E0E0" d="M272.891,247.01l40.534,14.598c0-0.388,0.009-0.788,0.009-1.179l-40.543-14.6V247.01z"/>
		<path fill="#E2E0E0" d="M272.891,255.183l40.48,14.579c0.003-0.389,0.003-0.786,0.012-1.178l-40.492-14.582V255.183z"/>
		<path fill="#E2E0E0" d="M272.891,263.102l40.43,14.56c0-0.389,0.009-0.787,0.009-1.178l-40.438-14.563V263.102z"/>
		<path fill="#E2E0E0" d="M272.891,272.025l40.369,14.538c0-0.392,0-0.78,0.005-1.181l-40.374-14.536V272.025z"/>
		<path fill="#E2E0E0" d="M272.891,279.824l40.303,14.516c0.009-0.384,0.009-0.781,0.014-1.179l-40.316-14.518V279.824z"/>
		<path fill="#E2E0E0" d="M272.891,287.998l40.241,14.494c0.009-0.375,0.009-0.78,0.012-1.181l-40.253-14.495V287.998z"/>
		<path fill="#E2E0E0" d="M272.891,294.736v1.18l38.5,13.867h1.682c0,0,0-0.208,0.01-0.574L272.891,294.736z"/>
		<polygon fill="#E2E0E0" points="272.891,305.84 283.847,309.783 287.123,309.783 272.891,304.658 		"/>
	</g>
	<path fill="#726752" d="M277.942,309.692h-16.047l-6.267-240.208c0,0,8.521,3.651,21.232,4.192
		C276.815,74.444,277.942,309.692,277.942,309.692z"/>
	<path fill="#EFC762" d="M271.715,309.783h-16.13V68.898c0,0,0.121,2.767,16.047,5.139
		C272.479,86.298,271.715,309.783,271.715,309.783z"/>
	<path fill="#EAC97F" d="M314.002,68.465c0,2.529-13.077,5.201-29.209,5.201c-16.131,0-29.253-2.57-29.253-5.099
		c0-2.524,13.122-4.074,29.253-4.074C300.925,64.493,314.002,65.938,314.002,68.465z"/>
	<path fill="none" stroke="#BCA16D" stroke-width="1.1539" stroke-linecap="round" stroke-miterlimit="10" d="M256.066,68.541
		c6.009-5.891,45.604-4.814,54.091-1.563c7.212,2.764-35.782,7.381-46.604,2.057c-8.091-3.98,42.638-4.581,38.067-1.214
		c-2.33,1.715-30.125,1.881-31.156,0.727c-0.654-0.733,8.68-1.448,14.811-1.33v1.803"/>
	<rect x="320.012" y="69.859" fill="#828181" width="58.418" height="240.885"/>
	<path fill="#636363" d="M342.369,310.653h-16.047l-6.266-240.208c0,0,8.52,3.651,21.23,4.192
		C341.242,75.404,342.369,310.653,342.369,310.653z"/>
	<path fill="#B2B2B2" d="M336.144,310.744h-16.132V69.859c0,0,0.496,2.344,16.047,5.139
		C336.907,87.259,336.144,310.744,336.144,310.744z"/>
	<path fill="#D1D1D1" d="M378.43,69.552c0,2.246-13.078,4.618-29.209,4.618c-16.132,0-29.255-2.279-29.255-4.521
		c0-2.246,13.123-3.621,29.255-3.621C365.352,66.028,378.43,67.31,378.43,69.552z"/>
	<path fill="none" stroke="#7F7F7F" stroke-width="1.1539" stroke-linecap="round" stroke-miterlimit="10" d="M320.614,69.338
		c10.818-5.288,45.916-2.524,52.889-1.082c3.524,0.729-2.003,2.814-11.661,3.727c-12.066,1.142-30.155,0.916-35.579-1.4
		c-9.015-3.848,43.273-3.769,37.108-0.932c-3.262,1.501-27.582,1.296-28.605,0.228c-0.648-0.676,9.756-0.946,12.534-1.02v1.56"/>
	<g>
		<circle fill="#D1D1D1" cx="344.894" cy="94.741" r="1.082"/>
		<circle fill="#D1D1D1" cx="354.27" cy="104.117" r="1.082"/>
		<circle fill="#D1D1D1" cx="361.842" cy="88.251" r="1.082"/>
		<circle fill="#D1D1D1" cx="365.448" cy="108.805" r="1.082"/>
		<circle fill="#D1D1D1" cx="369.775" cy="94.381" r="1.082"/>
		<circle fill="#D1D1D1" cx="351.023" cy="79.957" r="1.082"/>
		<circle fill="#D1D1D1" cx="366.169" cy="82.12" r="1.082"/>
		<circle fill="#D1D1D1" cx="348.139" cy="130.801" r="1.082"/>
		<circle fill="#D1D1D1" cx="357.514" cy="140.177" r="1.082"/>
		<circle fill="#D1D1D1" cx="365.087" cy="124.311" r="1.082"/>
		<circle fill="#D1D1D1" cx="371.578" cy="144.865" r="1.082"/>
		<circle fill="#D1D1D1" cx="373.021" cy="130.441" r="1.082"/>
		<circle fill="#D1D1D1" cx="354.27" cy="116.017" r="1.082"/>
		<circle fill="#D1D1D1" cx="372.3" cy="118.181" r="1.082"/>
		<circle fill="#D1D1D1" cx="348.139" cy="172.632" r="1.082"/>
		<circle fill="#D1D1D1" cx="357.514" cy="182.008" r="1.082"/>
		<circle fill="#D1D1D1" cx="365.087" cy="166.142" r="1.082"/>
		<circle fill="#D1D1D1" cx="371.578" cy="186.695" r="1.082"/>
		<circle fill="#D1D1D1" cx="373.021" cy="172.271" r="1.082"/>
		<circle fill="#D1D1D1" cx="354.27" cy="157.848" r="1.082"/>
		<circle fill="#D1D1D1" cx="372.3" cy="160.012" r="1.082"/>
		<circle fill="#D1D1D1" cx="348.139" cy="216.626" r="1.082"/>
		<circle fill="#D1D1D1" cx="357.514" cy="226.002" r="1.082"/>
		<circle fill="#D1D1D1" cx="348.139" cy="187.057" r="1.082"/>
		<circle fill="#D1D1D1" cx="348.86" cy="146.668" r="1.082"/>
		<circle fill="#D1D1D1" cx="345.975" cy="109.166" r="1.082"/>
		<circle fill="#D1D1D1" cx="373.382" cy="75.269" r="1.082"/>
		<circle fill="#D1D1D1" cx="348.139" cy="237.901" r="1.082"/>
		<circle fill="#D1D1D1" cx="365.087" cy="210.136" r="1.082"/>
		<circle fill="#D1D1D1" cx="371.578" cy="230.689" r="1.082"/>
		<circle fill="#D1D1D1" cx="373.021" cy="216.266" r="1.082"/>
		<circle fill="#D1D1D1" cx="354.27" cy="201.841" r="1.082"/>
		<circle fill="#D1D1D1" cx="372.3" cy="204.004" r="1.082"/>
		<circle fill="#D1D1D1" cx="348.139" cy="260.98" r="1.082"/>
		<circle fill="#D1D1D1" cx="357.514" cy="270.355" r="1.082"/>
		<circle fill="#D1D1D1" cx="365.087" cy="254.489" r="1.082"/>
		<circle fill="#D1D1D1" cx="371.578" cy="275.044" r="1.082"/>
		<circle fill="#D1D1D1" cx="373.021" cy="260.619" r="1.082"/>
		<circle fill="#D1D1D1" cx="354.27" cy="246.195" r="1.082"/>
		<circle fill="#D1D1D1" cx="372.3" cy="248.358" r="1.082"/>
		<circle fill="#D1D1D1" cx="344.173" cy="297.763" r="1.082"/>
		<circle fill="#D1D1D1" cx="353.188" cy="304.613" r="1.082"/>
		<circle fill="#D1D1D1" cx="361.12" cy="291.271" r="1.082"/>
		<circle fill="#D1D1D1" cx="371.578" cy="305.695" r="1.082"/>
		<circle fill="#D1D1D1" cx="366.169" cy="297.4" r="1.082"/>
		<circle fill="#D1D1D1" cx="350.302" cy="282.978" r="1.082"/>
		<circle fill="#D1D1D1" cx="365.448" cy="285.142" r="1.082"/>
	</g>
	<g>
		<ellipse fill="#FFFFFF" cx="322.312" cy="97.626" rx="0.948" ry="1.082"/>
		<path fill="#FFFFFF" d="M331.473,107.002c0,0.597-0.427,1.082-0.947,1.082c-0.523,0-0.949-0.484-0.949-1.082
			c0-0.598,0.426-1.082,0.949-1.082C331.046,105.92,331.473,106.404,331.473,107.002z"/>
		<path fill="#FFFFFF" d="M333.052,91.135c0,0.598-0.425,1.082-0.949,1.082c-0.521,0-0.946-0.484-0.946-1.082
			c0-0.596,0.426-1.081,0.946-1.081C332.627,90.054,333.052,90.539,333.052,91.135z"/>
		<path fill="#FFFFFF" d="M328.63,82.841c0,0.598-0.427,1.082-0.946,1.082c-0.524,0-0.95-0.484-0.95-1.082
			c0-0.597,0.426-1.082,0.95-1.082C328.203,81.76,328.63,82.244,328.63,82.841z"/>
		<path fill="#FFFFFF" d="M326.103,133.687c0,0.598-0.426,1.082-0.946,1.082c-0.524,0-0.949-0.484-0.949-1.082
			c0-0.597,0.425-1.082,0.949-1.082C325.677,132.604,326.103,133.089,326.103,133.687z"/>
		<ellipse fill="#FFFFFF" cx="330.839" cy="140.177" rx="0.948" ry="1.082"/>
		<path fill="#FFFFFF" d="M331.473,118.901c0,0.598-0.427,1.082-0.947,1.082c-0.523,0-0.949-0.484-0.949-1.082
			c0-0.597,0.426-1.081,0.949-1.081C331.046,117.82,331.473,118.305,331.473,118.901z"/>
		<path fill="#FFFFFF" d="M326.103,175.518c0,0.597-0.426,1.081-0.946,1.081c-0.524,0-0.949-0.484-0.949-1.081
			c0-0.598,0.425-1.082,0.949-1.082C325.677,174.436,326.103,174.92,326.103,175.518z"/>
		<ellipse fill="#FFFFFF" cx="333.367" cy="184.893" rx="0.948" ry="1.082"/>
		<path fill="#FFFFFF" d="M331.473,160.732c0,0.598-0.427,1.082-0.947,1.082c-0.523,0-0.949-0.484-0.949-1.082
			s0.426-1.082,0.949-1.082C331.046,159.65,331.473,160.135,331.473,160.732z"/>
		<path fill="#FFFFFF" d="M326.103,219.511c0,0.597-0.426,1.081-0.946,1.081c-0.524,0-0.949-0.484-0.949-1.081
			s0.425-1.082,0.949-1.082C325.677,218.429,326.103,218.914,326.103,219.511z"/>
		<ellipse fill="#FFFFFF" cx="330.839" cy="228.887" rx="0.948" ry="1.081"/>
		<path fill="#FFFFFF" d="M326.103,189.941c0,0.598-0.426,1.082-0.946,1.082c-0.524,0-0.949-0.484-0.949-1.082
			s0.425-1.082,0.949-1.082C325.677,188.859,326.103,189.344,326.103,189.941z"/>
		<ellipse fill="#FFFFFF" cx="325.786" cy="149.553" rx="0.948" ry="1.082"/>
		<ellipse fill="#FFFFFF" cx="323.26" cy="112.051" rx="0.947" ry="1.082"/>
		<path fill="#FFFFFF" d="M326.103,240.786c0,0.598-0.426,1.081-0.946,1.081c-0.524,0-0.949-0.483-0.949-1.081
			s0.425-1.082,0.949-1.082C325.677,239.704,326.103,240.188,326.103,240.786z"/>
		<path fill="#FFFFFF" d="M331.473,204.727c0,0.596-0.427,1.081-0.947,1.081c-0.523,0-0.949-0.485-0.949-1.081
			c0-0.598,0.426-1.082,0.949-1.082C331.046,203.645,331.473,204.129,331.473,204.727z"/>
		<path fill="#FFFFFF" d="M326.103,263.865c0,0.597-0.426,1.082-0.946,1.082c-0.524,0-0.949-0.485-0.949-1.082
			s0.425-1.082,0.949-1.082C325.677,262.783,326.103,263.269,326.103,263.865z"/>
		<ellipse fill="#FFFFFF" cx="333.367" cy="273.24" rx="0.948" ry="1.082"/>
		<path fill="#FFFFFF" d="M331.473,249.081c0,0.597-0.427,1.082-0.947,1.082c-0.523,0-0.949-0.485-0.949-1.082
			c0-0.599,0.426-1.082,0.949-1.082C331.046,247.999,331.473,248.482,331.473,249.081z"/>
		<ellipse fill="#FFFFFF" cx="321.681" cy="300.646" rx="0.948" ry="1.082"/>
		<path fill="#FFFFFF" d="M330.525,307.498c0,0.597-0.426,1.082-0.949,1.082c-0.521,0-0.946-0.485-0.946-1.082
			s0.426-1.081,0.946-1.081C330.1,306.417,330.525,306.901,330.525,307.498z"/>
		<ellipse fill="#FFFFFF" cx="331.472" cy="294.156" rx="0.947" ry="1.082"/>
		<path fill="#FFFFFF" d="M327.998,285.862c0,0.597-0.425,1.081-0.949,1.081c-0.521,0-0.946-0.484-0.946-1.081
			c0-0.599,0.426-1.082,0.946-1.082C327.573,284.78,327.998,285.264,327.998,285.862z"/>
	</g>
	<g>
		<path fill="#E2E0E0" d="M257.644,70.68l14.047,6.034c-0.006-0.422-0.011-0.803-0.017-1.197l-11.883-4.091
			C258.954,71.161,258.236,70.911,257.644,70.68z"/>
		<path fill="#E2E0E0" d="M255.585,77.061l16.322,8.874c-0.003-0.394-0.006-0.805-0.008-1.189l-16.314-8.865V77.061z"/>
		<path fill="#E2E0E0" d="M255.585,84.859l16.365,8.911c0-0.4-0.003-0.792-0.006-1.186l-16.359-8.905V84.859z"/>
		<path fill="#E2E0E0" d="M255.585,93.031l16.396,8.939c0-0.403-0.003-0.786-0.003-1.184l-16.393-8.937V93.031z"/>
		<path fill="#E2E0E0" d="M255.585,100.951l16.416,8.958c0-0.4,0-0.786-0.003-1.183l-16.413-8.956V100.951z"/>
		<path fill="#E2E0E0" d="M255.585,109.515l16.433,8.97c-0.003-0.397-0.003-0.786-0.003-1.183l-16.43-8.967V109.515z"/>
		<path fill="#E2E0E0" d="M255.585,117.313l16.441,8.979c0-0.395,0-0.789-0.003-1.184l-16.438-8.976V117.313z"/>
		<path fill="#E2E0E0" d="M255.585,125.486l16.443,8.984c0-0.392,0-0.792,0-1.184l-16.443-8.981V125.486z"/>
		<path fill="#E2E0E0" d="M255.585,133.405l16.446,8.984c0-0.395,0-0.786,0-1.181l-16.446-8.984V133.405z"/>
		<path fill="#E2E0E0" d="M255.585,142.09l16.443,8.984c0-0.394,0.003-0.789,0.003-1.183l-16.446-8.981V142.09z"/>
		<path fill="#E2E0E0" d="M255.585,149.889l16.441,8.979c0-0.395,0-0.786,0-1.181l-16.441-8.979V149.889z"/>
		<path fill="#E2E0E0" d="M255.585,158.062l16.436,8.976c0-0.395,0-0.789,0-1.181l-16.436-8.976V158.062z"/>
		<path fill="#E2E0E0" d="M255.585,165.981l16.427,8.967c0-0.395,0-0.786,0.003-1.181l-16.43-8.967V165.981z"/>
		<path fill="#E2E0E0" d="M255.585,174.545l16.416,8.959c0.003-0.395,0.003-0.788,0.003-1.181l-16.419-8.959V174.545z"/>
		<path fill="#E2E0E0" d="M255.585,182.343l16.407,8.947c0-0.392,0-0.786,0-1.181l-16.407-8.946V182.343z"/>
		<path fill="#E2E0E0" d="M255.585,190.515l16.393,8.938c0-0.391,0.003-0.786,0.003-1.178l-16.396-8.938V190.515z"/>
		<path fill="#E2E0E0" d="M255.585,198.436l16.379,8.924c0-0.391,0.003-0.786,0.003-1.18l-16.382-8.926V198.436z"/>
		<path fill="#E2E0E0" d="M255.585,207.359l16.362,8.909c0-0.393,0.003-0.786,0.003-1.179l-16.365-8.91V207.359z"/>
		<path fill="#E2E0E0" d="M255.585,215.158l16.346,8.895c0.003-0.395,0.003-0.784,0.003-1.178l-16.349-8.897V215.158z"/>
		<path fill="#E2E0E0" d="M255.585,223.331l16.328,8.88c0.003-0.393,0.003-0.786,0.003-1.182l-16.331-8.879V223.331z"/>
		<path fill="#E2E0E0" d="M255.585,231.25l16.312,8.862c0-0.39,0-0.782,0.003-1.176l-16.314-8.867V231.25z"/>
		<path fill="#E2E0E0" d="M255.585,239.212l16.292,8.845c0-0.394,0.003-0.783,0.003-1.18l-16.295-8.846V239.212z"/>
		<path fill="#E2E0E0" d="M255.585,247.01l16.272,8.829c0-0.389,0.003-0.788,0.003-1.181l-16.275-8.829V247.01z"/>
		<path fill="#E2E0E0" d="M255.585,255.183l16.249,8.809c0.003-0.389,0.003-0.786,0.006-1.178l-16.255-8.812V255.183z"/>
		<path fill="#E2E0E0" d="M255.585,263.102l16.229,8.791c0-0.39,0.003-0.786,0.003-1.179l-16.232-8.793V263.102z"/>
		<path fill="#E2E0E0" d="M255.585,272.025l16.204,8.768c0-0.391,0-0.779,0.003-1.179l-16.207-8.768V272.025z"/>
		<path fill="#E2E0E0" d="M255.585,279.824l16.179,8.745c0.004-0.383,0.004-0.781,0.006-1.178l-16.185-8.748V279.824z"/>
		<path fill="#E2E0E0" d="M255.585,287.998l16.153,8.724c0.003-0.374,0.003-0.78,0.006-1.179l-16.159-8.727V287.998z"/>
		<path fill="#E2E0E0" d="M255.585,294.736v1.18l15.454,8.097h0.676c0,0,0-0.207,0.004-0.573L255.585,294.736z"/>
		<polygon fill="#E2E0E0" points="255.585,305.84 262.867,309.783 264.183,309.783 255.585,304.658 		"/>
	</g>
</g>
</svg>
