<?xml version="1.0" encoding="utf-8"?>
<!-- Generator: Adobe Illustrator 16.0.0, SVG Export Plug-In . SVG Version: 6.00 Build 0)  -->
<!DOCTYPE svg PUBLIC "-//W3C//DTD SVG 1.1//EN" "http://www.w3.org/Graphics/SVG/1.1/DTD/svg11.dtd">
<svg version="1.1" id="Layer_1" xmlns="http://www.w3.org/2000/svg" xmlns:xlink="http://www.w3.org/1999/xlink" x="0px" y="0px"
	 width="240px" height="240px" viewBox="0 0 240 240" enable-background="new 0 0 240 240" xml:space="preserve">
<path fill="#EDDDC4" d="M84.158,23.636c-6.064,15.17-11.064,37.079-11.064,61.444c0,16.953,1.648,32.717,4.479,45.854h44.727
	c2.829-13.137,4.478-28.899,4.478-45.854c0-24.366-4.991-46.274-11.056-61.444H84.158z"/>
<ellipse fill="#FFFFFF" cx="100.79" cy="66.17" rx="18.121" ry="19.361"/>
<path fill="#E3D0B6" d="M126.698,91.633c-0.005,0.006-0.005,0.012-0.007,0.016c-0.364,14.41-1.925,27.784-4.375,39.182
	c0.023,0.047,0.046,0.079,0.046,0.079s16.698,10.552,16.683,9.677C138.639,114.543,126.767,91.502,126.698,91.633z"/>
<path fill="#E3D0B6" d="M73.275,91.633c0.003,0.006,0.003,0.012,0.006,0.016c0.367,14.41,1.926,27.784,4.374,39.182
	c-0.026,0.047-0.043,0.079-0.043,0.079s-16.698,10.552-16.685,9.677C61.332,114.543,73.205,91.502,73.275,91.633z"/>
<path fill="#E3D0B6" d="M100.791,46.807c-10.009,0-18.122,8.669-18.122,19.363s8.113,19.361,18.122,19.361
	c10.009,0,18.121-8.667,18.121-19.361C118.911,55.476,110.799,46.807,100.791,46.807z M100.791,81.308
	c-7.643,0-13.86-6.791-13.86-15.137c0-8.346,6.217-15.139,13.86-15.139c7.643,0,13.857,6.792,13.857,15.139
	C114.648,74.518,108.433,81.308,100.791,81.308z"/>
<path fill="#E3D0B6" d="M85.073,21.416h29.731c-5.105-12.009-10.806-19.239-14.87-19.239C95.882,2.177,90.181,9.407,85.073,21.416z"
	/>
<path fill="#EDDDC4" d="M119.625,140.587c0.649-2.198,1.267-4.5,1.839-6.905H78.102c0.573,2.405,1.188,4.707,1.837,6.905H119.625z"
	/>
<rect x="98.786" y="93.969" fill="#E4D1B8" width="2.568" height="46.372"/>
<path fill="#E3D0B6" d="M83.407,144.043c1.065,16.885,3.027,31.581,5.583,42.482c0.691,2.949,3.313-34.24,4.083-31.877
	c2.533,7.754,3.58,52.045,6.71,52.045c3.087,0,3.916-43.758,6.424-51.305c0.836-2.521,3.694,34.053,4.437,30.854
	c2.522-10.878,4.457-25.464,5.517-42.201L83.407,144.043L83.407,144.043z"/>
<g>
	<g>
		<g>
			<g>
				<rect x="40.434" y="42.417" fill="#EFE1CB" width="1.698" height="40.596"/>
			</g>
		</g>
		<g>
			<g>
				<rect x="40.434" y="89.507" fill="#EFE1CB" width="1.698" height="11.365"/>
			</g>
		</g>
		<g>
			<g>
				<rect x="40.434" y="108.689" fill="#EFE1CB" width="1.698" height="7.101"/>
			</g>
		</g>
	</g>
</g>
<g>
	<g>
		<g>
			<g>
				<rect x="153.457" y="54.256" fill="#EFE1CB" width="1.588" height="32.495"/>
			</g>
		</g>
		<g>
			<g>
				<rect x="153.457" y="91.952" fill="#EFE1CB" width="1.588" height="9.098"/>
			</g>
		</g>
		<g>
			<g>
				<rect x="153.457" y="107.305" fill="#EFE1CB" width="1.588" height="5.686"/>
			</g>
		</g>
	</g>
</g>
<g>
	<g>
		<g>
			<g>
				<rect x="48.549" y="12.158" fill="#F7EFE4" width="1.853" height="37.263"/>
			</g>
		</g>
		<g>
			<g>
				<rect x="48.549" y="55.381" fill="#F7EFE4" width="1.853" height="10.433"/>
			</g>
		</g>
		<g>
			<g>
				<rect x="48.549" y="72.99" fill="#F7EFE4" width="1.853" height="6.521"/>
			</g>
		</g>
	</g>
</g>
<g>
	<g>
		<g>
			<g>
				<rect x="161.061" y="16.967" fill="#F6EEE2" width="1.737" height="35.477"/>
			</g>
		</g>
		<g>
			<g>
				<rect x="161.061" y="58.118" fill="#F6EEE2" width="1.737" height="9.933"/>
			</g>
		</g>
		<g>
			<g>
				<rect x="161.061" y="74.882" fill="#F6EEE2" width="1.737" height="6.206"/>
			</g>
		</g>
	</g>
</g>
</svg>
