<?xml version="1.0" encoding="utf-8"?>
<!-- Generator: Adobe Illustrator 16.0.0, SVG Export Plug-In . SVG Version: 6.00 Build 0)  -->
<!DOCTYPE svg PUBLIC "-//W3C//DTD SVG 1.1//EN" "http://www.w3.org/Graphics/SVG/1.1/DTD/svg11.dtd">
<svg version="1.1" id="Layer_1" xmlns="http://www.w3.org/2000/svg" xmlns:xlink="http://www.w3.org/1999/xlink" x="0px" y="0px"
	 width="240px" height="170px" viewBox="0 0 240 170" enable-background="new 0 0 240 170" xml:space="preserve">
<g>
	<g>
		<g>
			<g>
				<rect x="132.907" y="37.487" fill="#EFE1CB" width="1.7" height="44.535"/>
			</g>
		</g>
		<g>
			<g>
				<rect x="132.907" y="86.373" fill="#EFE1CB" width="1.7" height="7.602"/>
			</g>
		</g>
		<g>
			<g>
				<rect x="132.907" y="99.203" fill="#EFE1CB" width="1.7" height="4.752"/>
			</g>
		</g>
	</g>
</g>
<g>
	<g>
		<g>
			<g>
				<rect x="141.242" y="19.347" fill="#F1E8DB" width="1.854" height="48.623"/>
			</g>
		</g>
		<g>
			<g>
				<rect x="141.242" y="72.714" fill="#F1E8DB" width="1.854" height="8.304"/>
			</g>
		</g>
		<g>
			<g>
				<rect x="141.242" y="86.724" fill="#F1E8DB" width="1.854" height="5.19"/>
			</g>
		</g>
	</g>
</g>
<g>
	<path fill="#F6EEE2" d="M165.539,145.665c2.852,0,5.559,0.625,7.994,1.733c1.482-3.219,3.83-5.953,6.738-7.92
		c-2.61-1.164-5.5-1.819-8.547-1.819c-6.408,0-12.145,4.62-16.007,10.714C158.598,146.664,161.947,145.665,165.539,145.665z"/>
	<path fill="#F6EEE2" d="M221.299,142.191c-0.521,0-1.037,0.029-1.546,0.067c-2.617-8.657-10.649-14.969-20.164-14.969
		c-8.364,0-15.58,4.886-18.979,11.957c3.013-1.945,6.599-3.078,10.451-3.078c8.713,0,16.072,5.774,18.467,13.707
		c0.468-0.032,0.94-0.058,1.418-0.058c9.342,0,16.914,6.91,16.914,15.433c0,1.659-0.283,3.251-0.815,4.748h11.827
		c0.58-1.63,0.895-3.373,0.895-5.183C239.766,155.514,231.497,142.191,221.299,142.191z"/>
</g>
<g>
	<g>
		<g>
			<g>
				<rect x="177.438" y="38.628" fill="#F6EEE2" width="1.736" height="39.144"/>
			</g>
		</g>
		<g>
			<g>
				<rect x="177.438" y="84.038" fill="#F6EEE2" width="1.736" height="10.961"/>
			</g>
		</g>
		<g>
			<g>
				<rect x="177.438" y="102.535" fill="#F6EEE2" width="1.736" height="6.847"/>
			</g>
		</g>
	</g>
</g>
<path fill="#F1E8DB" d="M162.539,170c1.763-3.434,2.771-13.107,2.771-17.258c0-13.667-10.832-24.748-24.199-24.748
	c-0.545,0-1.09,0.023-1.627,0.064c-3.209-12.02-14.159-20.875-27.188-20.875c-15.54,0-28.138,12.592-28.138,28.133
	c0,2.158,0.252,4.261,0.713,6.272c-2.663-0.817-5.491-1.261-8.421-1.261c-14.176,0-25.933,16.119-28.144,29.671L162.539,170
	L162.539,170z"/>
<path fill="#F6EEE2" d="M100.229,170c0.656-1.855,1.015-9.609,1.015-11.666c0-10.57-9.397-19.145-20.986-19.145
	c-0.593,0-1.179,0.031-1.758,0.068c-2.97-9.834-12.1-17.002-22.909-17.002c-9.648,0-17.955,5.709-21.742,13.936
	c-3.022-1.379-6.379-2.154-9.917-2.154C10.714,134.037,0,144.748,0,157.968c0,2.169,0.292,10.037,0.832,12.032H100.229z"/>
<g>
	<g>
		<g>
			<g>
				<rect x="169.781" y="59.096" fill="#F1E6D3" width="1.59" height="35.857"/>
			</g>
		</g>
		<g>
			<g>
				<rect x="169.781" y="100.691" fill="#F1E6D3" width="1.59" height="10.043"/>
			</g>
		</g>
		<g>
			<g>
				<rect x="169.781" y="117.634" fill="#F1E6D3" width="1.59" height="6.277"/>
			</g>
		</g>
	</g>
</g>
<path fill="#EDDDC4" d="M100.045,170c0.603-1.699,0.929-3.514,0.929-5.395c0-9.684-8.606-17.539-19.222-17.539
	c-0.543,0-1.08,0.026-1.609,0.066c-2.721-9.012-11.085-15.576-20.987-15.576c-8.835,0-16.445,5.23-19.915,12.764
	c-2.769-1.266-5.844-1.973-9.086-1.973c-12.105,0-21.92,9.813-21.92,21.922c0,1.981,0.269,3.901,0.764,5.729L100.045,170
	L100.045,170z"/>
<path fill="#E3D0B6" d="M157.122,170c1.616-3.146,2.535-6.719,2.535-10.52c0-12.521-9.919-22.67-22.159-22.67
	c-0.506,0-1.003,0.027-1.497,0.061c-2.935-11.01-12.966-19.122-24.903-19.122c-14.234,0-25.775,11.537-25.775,25.771
	c0,1.977,0.231,3.901,0.653,5.75c-2.437-0.754-5.029-1.158-7.713-1.158c-12.985,0-23.754,9.476-25.779,21.889H157.122z"/>
<path fill="#EDDDC4" d="M227.044,170c0.532-1.497,0.815-3.089,0.815-4.748c0-8.521-7.572-15.432-16.914-15.432
	c-0.478,0-0.95,0.023-1.418,0.057c-2.395-7.932-9.754-13.707-18.467-13.707c-7.776,0-14.476,4.604-17.527,11.229
	c-2.438-1.107-5.143-1.732-7.994-1.732c-10.656,0-19.291,8.637-19.291,19.295c0,1.741,0.238,3.432,0.673,5.04L227.044,170
	L227.044,170z"/>
<g>
	<g>
		<g>
			<g>
				<rect x="49.885" y="77.165" fill="#F7EFE4" width="1.698" height="22.836"/>
			</g>
		</g>
		<g>
			<g>
				<rect x="49.885" y="103.655" fill="#F7EFE4" width="1.698" height="6.393"/>
			</g>
		</g>
		<g>
			<g>
				<rect x="49.885" y="114.446" fill="#F7EFE4" width="1.698" height="3.994"/>
			</g>
		</g>
	</g>
</g>
<g>
	<g>
		<g>
			<g>
				<rect x="57.25" y="60.987" fill="#EFE1CB" width="1.854" height="25.285"/>
			</g>
		</g>
		<g>
			<g>
				<rect x="57.25" y="90.316" fill="#EFE1CB" width="1.854" height="7.08"/>
			</g>
		</g>
		<g>
			<g>
				<rect x="57.25" y="102.266" fill="#EFE1CB" width="1.854" height="4.424"/>
			</g>
		</g>
	</g>
</g>
<g>
	<g>
		<g>
			<g>
				<rect x="15.135" y="104.164" fill="#F7EFE4" width="1.698" height="14.538"/>
			</g>
		</g>
		<g>
			<g>
				<rect x="15.135" y="121.028" fill="#F7EFE4" width="1.698" height="4.069"/>
			</g>
		</g>
		<g>
			<g>
				<rect x="15.135" y="127.897" fill="#F7EFE4" width="1.698" height="2.543"/>
			</g>
		</g>
	</g>
</g>
<g>
	<g>
		<g>
			<g>
				<rect x="22" y="89.237" fill="#EFE1CB" width="1.854" height="20.721"/>
			</g>
		</g>
		<g>
			<g>
				<rect x="22" y="113.272" fill="#EFE1CB" width="1.854" height="5.802"/>
			</g>
		</g>
		<g>
			<g>
				<rect x="22" y="123.064" fill="#EFE1CB" width="1.854" height="3.625"/>
			</g>
		</g>
	</g>
</g>
</svg>
