<?xml version="1.0" encoding="utf-8"?>
<!-- Generator: Adobe Illustrator 16.0.0, SVG Export Plug-In . SVG Version: 6.00 Build 0)  -->
<!DOCTYPE svg PUBLIC "-//W3C//DTD SVG 1.1//EN" "http://www.w3.org/Graphics/SVG/1.1/DTD/svg11.dtd">
<svg version="1.1" id="Layer_1" xmlns="http://www.w3.org/2000/svg" xmlns:xlink="http://www.w3.org/1999/xlink" x="0px" y="0px"
	 width="88px" height="88px" viewBox="0 0 88 88" enable-background="new 0 0 88 88" xml:space="preserve">
<g>
	<g>
		<path fill="#69806A" d="M43.667,12.999c-17.122,0-31.001,13.879-31.001,31c0,17.12,13.879,31,31.001,31
			c17.12,0,30.999-13.88,30.999-31C74.666,26.878,60.787,12.999,43.667,12.999z M43.667,69.999c-14.337,0-26.001-11.663-26.001-26
			c0-14.336,11.664-26,26.001-26c14.336,0,25.999,11.664,25.999,26C69.666,58.336,58.003,69.999,43.667,69.999z"/>
		<path fill="#E5BB70" d="M43.667,22.999c-11.58,0-21.001,9.42-21.001,21c0,11.579,9.421,21,21.001,21
			c11.579,0,20.999-9.421,20.999-21C64.666,32.419,55.246,22.999,43.667,22.999z M43.667,59.999c-8.823,0-16.001-7.178-16.001-16
			s7.178-16,16.001-16c8.822,0,15.999,7.178,15.999,16S52.489,59.999,43.667,59.999z"/>
		<path fill="#69806A" d="M43.667,32.999c-6.066,0-11.001,4.935-11.001,11s4.935,11,11.001,11c6.064,0,10.999-4.935,10.999-11
			S49.731,32.999,43.667,32.999z M43.667,49.999c-3.309,0-6.001-2.691-6.001-6s2.692-6,6.001-6c3.308,0,5.999,2.691,5.999,6
			S46.975,49.999,43.667,49.999z"/>
		<path fill="#E5BB70" d="M43.669,46.437c-1.345,0-2.44-1.094-2.44-2.438s1.096-2.438,2.44-2.438c1.342,0,2.435,1.094,2.435,2.438
			S45.011,46.437,43.669,46.437z"/>
		<path fill="#FFFFFF" d="M53.287,29.629l2.033,2.034C71.505,15.727,78.522,8.784,78.906,8.313c0.235-0.289,0.562-0.448,0.918-0.448
			c0.532,0,1.061,0.356,1.285,0.867c0.218,0.494,0.119,1.021-0.27,1.445c-0.736,0.805-17.219,17.062-23.623,23.382l2.029,2.029
			l-10.028,4.068L53.287,29.629z"/>
	</g>
	<g>
		<path fill="#69806A" d="M79.193,8.609C78.617,9.317,62.698,24.96,55.318,32.227l-1.888-1.888l-3.486,8.592l8.592-3.486
			l-1.887-1.887c7.354-7.258,23.153-22.821,23.872-23.606C81.417,8.973,79.911,7.728,79.193,8.609z"/>
		<g>
			<polygon fill="#E5BB70" points="83.746,13.299 85.109,11.936 80.648,10.74 79.303,12.085 			"/>
			<g>
				<polygon fill="#E5BB70" points="81.788,15.257 83.271,13.774 78.828,12.56 77.345,14.043 				"/>
				<polygon fill="#E5BB70" points="76.87,14.518 75.388,16.001 79.85,17.196 81.313,15.732 				"/>
			</g>
		</g>
		<g>
			<polygon fill="#E5BB70" points="76.955,10.006 78.393,8.569 77.197,4.108 75.741,5.563 			"/>
			<g>
				<polygon fill="#E5BB70" points="74.997,11.965 76.48,10.481 75.267,6.039 73.783,7.521 				"/>
				<polygon fill="#E5BB70" points="73.309,7.996 71.937,9.368 73.132,13.83 74.522,12.439 				"/>
			</g>
		</g>
	</g>
	<rect x="42.167" y="0.662" fill="#E5BB70" width="3.417" height="10"/>
	<rect x="77.168" y="42.207" fill="#E5BB70" width="10" height="3.417"/>
	<rect x="0.168" y="42.207" fill="#E5BB70" width="10" height="3.417"/>
	<rect x="42.167" y="77.662" fill="#E5BB70" width="3.417" height="10"/>
</g>
</svg>
