<?xml version="1.0" encoding="utf-8"?>
<!-- Generator: Adobe Illustrator 16.0.0, SVG Export Plug-In . SVG Version: 6.00 Build 0)  -->
<!DOCTYPE svg PUBLIC "-//W3C//DTD SVG 1.1//EN" "http://www.w3.org/Graphics/SVG/1.1/DTD/svg11.dtd">
<svg version="1.1" id="Layer_1" xmlns="http://www.w3.org/2000/svg" xmlns:xlink="http://www.w3.org/1999/xlink" x="0px" y="0px"
	 width="86px" height="98px" viewBox="0 0 86 98" enable-background="new 0 0 86 98" xml:space="preserve">
<g>
	<path fill="none" stroke="#FFFFFF" stroke-width="1.9335" stroke-miterlimit="10" d="M45.327,25.158
		c2.126-2.068,1.127-4.174-0.327-5.669c-1.455-1.495-4.357-1.031-6.483,1.037c-2.126,2.068-2.864,6.248-1.41,7.743
		C38.562,29.764,43.201,27.225,45.327,25.158z"/>
	<path fill="none" stroke="#FFFFFF" stroke-width="2.0046" stroke-linecap="round" stroke-miterlimit="10" d="M45.938,19.944
		c0,0,12.81-1.3,18.126,8.313c5.317,9.612,0.725,25.459-20.543,26.757"/>
	<path fill="none" stroke="#FFFFFF" stroke-width="1.9335" stroke-linecap="round" stroke-miterlimit="10" d="M36.753,56.223
		c-8.217,0.725-9.667,5.559,1.595,8.666c3.02,0.833,6.864,1.727,8.798,2.692c3.377,1.689-1.208,4.352-3.384,5.076"/>
	<path fill="none" stroke="#FFFFFF" stroke-width="1.9335" stroke-linecap="round" stroke-miterlimit="10" d="M31.436,78.699
		c0,0,0-1.934,5.075-4.108"/>
	<g>
		<path fill="#FFFFFF" stroke="#FFFFFF" stroke-width="0.4834" stroke-miterlimit="10" d="M33.169,33.518
			c1.333-0.778,1.432-1.538,1.493-2.079c0.061-0.532,0.136-1.192,1.245-1.626l0.651,0.429l-0.552,0.192
			c-0.566,0.222-0.778,0.786-0.831,1.245c-0.094,0.835-0.518,1.229-1.692,1.807C33.258,33.596,33.169,33.518,33.169,33.518z"/>
	</g>
	<path fill="none" stroke="#FFFFFF" stroke-width="1.9335" stroke-miterlimit="10" d="M19.352,36.404c0,0,1.68,13.042,21.027,12.81
		c20.06-0.242,20.543-12.81,20.543-12.81H19.352z"/>
	<path fill="none" stroke="#FFFFFF" stroke-width="1.9335" stroke-miterlimit="10" d="M29.019,84.5c5.317,0,16.918,0,21.752,0
		c4.833,0-8.701-4.592-8.701-4.592V49.697h-3.867v30.211C38.204,79.908,25.394,84.5,29.019,84.5z"/>
</g>
</svg>
