<?xml version="1.0" encoding="utf-8"?>
<!-- Generator: Adobe Illustrator 16.0.0, SVG Export Plug-In . SVG Version: 6.00 Build 0)  -->
<!DOCTYPE svg PUBLIC "-//W3C//DTD SVG 1.1//EN" "http://www.w3.org/Graphics/SVG/1.1/DTD/svg11.dtd">
<svg version="1.1" id="Layer_1" xmlns="http://www.w3.org/2000/svg" xmlns:xlink="http://www.w3.org/1999/xlink" x="0px" y="0px"
	 width="86px" height="80px" viewBox="0 0 86 80" enable-background="new 0 0 86 80" xml:space="preserve">
<g>
	<g>
		<path fill="#F7F2ED" d="M927.476,261.369c0,2.68-2.182,4.85-4.861,4.85h-76.275c-2.688,0-4.858-2.172-4.858-4.85v-70.303
			c0-2.678,2.175-4.852,4.858-4.852h76.275c2.684,0,4.861,2.171,4.861,4.852V261.369L927.476,261.369z"/>
	</g>
	<g>
		<g>
			<path fill="#D1D1D1" d="M922.612,188.217c1.578,0,2.861,1.279,2.861,2.852v70.303c0,1.57-1.283,2.854-2.861,2.854h-76.275
				c-1.576,0-2.859-1.279-2.859-2.854v-70.303c0-1.569,1.283-2.852,2.859-2.852H922.612 M922.612,186.217h-76.275
				c-2.688,0-4.859,2.172-4.859,4.852v70.303c0,2.68,2.176,4.854,4.859,4.854h76.275c2.682,0,4.861-2.172,4.861-4.854v-70.303
				C927.476,188.389,925.296,186.217,922.612,186.217L922.612,186.217z"/>
		</g>
	</g>
</g>
<g>
	<path fill="#FFFFFF" d="M899.688,244.623l-0.453,0.148c-5.728,1.871-11.731,0.584-15.675-3.357
		c-4.211-4.211-5.337-10.773-2.982-16.709l-15.743-15.742l10.332-10.333l15.743,15.743c5.935-2.352,12.498-1.227,16.708,2.984
		c3.939,3.939,5.229,9.947,3.356,15.672l-0.146,0.455L899.688,244.623z"/>
	<path fill="#D1D1D1" d="M898.612,242.871l10.461-10.461c1.583-4.846,0.669-10.1-2.871-13.639
		c-4.061-4.06-10.372-4.668-15.738-2.016l-15.299-15.299l-7.504,7.504l15.299,15.3c-2.652,5.364-2.044,11.681,2.015,15.737
		C888.514,243.539,893.768,244.453,898.612,242.871z"/>
	
		<rect x="863.208" y="202.887" transform="matrix(0.7071 -0.7071 0.7071 0.7071 110.798 674.7614)" fill="#B2ADAD" width="13.28" height="1.516"/>
	
		<line fill="none" stroke="#FFFFFF" stroke-width="0.4255" stroke-miterlimit="10" x1="869.469" y1="209.939" x2="873.128" y2="206.282"/>
	
		<line fill="none" stroke="#FFFFFF" stroke-width="0.4255" stroke-miterlimit="10" x1="873.018" y1="213.488" x2="876.677" y2="209.831"/>
	
		<line fill="none" stroke="#FFFFFF" stroke-width="0.4255" stroke-miterlimit="10" x1="876.566" y1="217.038" x2="880.225" y2="213.38"/>
	
		<line fill="none" stroke="#FFFFFF" stroke-width="0.4255" stroke-miterlimit="10" x1="880.115" y1="220.587" x2="883.773" y2="216.928"/>
	
		<line fill="none" stroke="#FFFFFF" stroke-width="0.3723" stroke-miterlimit="10" x1="871.15" y1="211.809" x2="873.449" y2="209.512"/>
	
		<line fill="none" stroke="#FFFFFF" stroke-width="0.3723" stroke-miterlimit="10" x1="874.698" y1="215.355" x2="876.997" y2="213.059"/>
	
		<line fill="none" stroke="#FFFFFF" stroke-width="0.3723" stroke-miterlimit="10" x1="878.247" y1="218.904" x2="880.545" y2="216.607"/>
	<path fill="#E5BB70" d="M883.48,229.333c-0.455,3.478,0.549,6.894,2.906,9.253c1.956,1.956,4.655,3.033,7.602,3.033
		c0,0,0,0,0.001,0c1.188,0,2.383-0.174,3.56-0.514l9.76-9.76c0.194-0.673,0.313-1.345,0.396-2.015L883.48,229.333L883.48,229.333z"
		/>
</g>
<g>
	<rect x="843.531" y="249.309" fill="#D1D1D1" width="81.891" height="7.017"/>
</g>
<path fill="#E5BB70" d="M863.348,211.958l1.942,3.364c0,0,1.652,2.924,1.943,3.962c0.29,1.036,0.29,4.766-4.035,4.766
	c-4.324,0-4.19-3.716-3.735-4.766s1.941-3.962,1.941-3.962L863.348,211.958z"/>
<g>
	<path fill="#E5BB70" d="M877,247.309V246.5c0-1.104-0.896-2-2-2h-21.5c-1.104,0-2,0.896-2,2v0.809H877z"/>
</g>
<g>
	<g>
		<path fill="#F7F2ED" d="M4.861,78.999c-2.13,0-3.859-1.728-3.859-3.848V4.846c0-2.121,1.729-3.851,3.859-3.851H81.14
			c2.131,0,3.86,1.729,3.86,3.851v70.306c0,2.12-1.729,3.848-3.858,3.848H4.861z"/>
		<path fill="#D1D1D1" d="M81.142,1.999c1.576,0,2.858,1.277,2.858,2.85v70.303c0,1.57-1.282,2.848-2.858,2.848H4.861
			c-1.578,0-2.859-1.276-2.859-2.848V4.849c0-1.572,1.281-2.85,2.859-2.85H81.142 M81.142-0.001H4.861
			c-2.686,0-4.859,2.172-4.859,4.85v70.303C0.002,77.827,2.177,80,4.861,80H81.14c2.687,0,4.86-2.173,4.86-4.849V4.849
			C86,2.171,83.826-0.001,81.142-0.001L81.142-0.001z"/>
	</g>
</g>
<g>
	<g>
		<path fill="#C99E48" d="M68.937,41.487c0,0.236-0.181,0.427-0.404,0.427H18.054c-0.224,0-0.404-0.19-0.404-0.427v-1.704
			c0-0.235,0.181-0.427,0.404-0.427h50.479c0.224,0,0.404,0.191,0.404,0.427V41.487z"/>
		<path fill="#D1D1D1" d="M68.937,45.468c0,0.234-0.181,0.426-0.404,0.426H18.054c-0.224,0-0.404-0.191-0.404-0.426v-1.707
			c0-0.233,0.181-0.424,0.404-0.424h50.479c0.224,0,0.404,0.19,0.404,0.424V45.468z"/>
	</g>
	<g>
		<g>
			<path fill="#986F2B" d="M45.163,24.661v-1.705c0-0.575-0.347-1.041-0.772-1.041h-2.057c-0.345,0-0.757,0.294-0.855,0.713
				C42.292,23.471,44.254,24.463,45.163,24.661z"/>
			<path fill="#986F2B" d="M45.163,32.389v-1.896c0,0-0.07-0.263-0.337-0.38c-1.118-0.494-2.561-1.254-3.075-1.671
				c-0.157-0.129-0.259-0.125-0.261,0.126c-0.005,0.438-0.014,1.438-0.012,1.615c0.005,0.466,0.237,0.727,0.467,0.894
				c0.991,0.719,2.687,1.457,2.891,1.5C45.098,32.631,45.163,32.389,45.163,32.389z"/>
			<path fill="#986F2B" d="M41.479,32.638c0,0.189-0.12,0.87,0,2.02c0.012,0.125,0.186,0.367,0.234,0.409
				c0.827,0.71,2.31,1.351,2.952,1.612c0.293,0.119,0.515,0.156,0.498-0.093c-0.019-0.249-0.037-1.992-0.037-1.992
				s0.055-0.252-0.255-0.339c-0.286-0.081-1.131-0.373-2.192-1.057C41.715,32.577,41.479,32.296,41.479,32.638z"/>
			<path fill="#986F2B" d="M45.163,28.348v-1.802c0,0,0.122-0.256-0.292-0.47c-0.411-0.213-2.518-1.053-3.259-1.874
				c-0.065-0.073-0.186-0.142-0.202,0.013c-0.017,0.155,0.068,1.771,0.068,1.771s-0.068,0.56,0.31,0.902
				c0.293,0.267,2.157,1.46,3.026,1.686C45.051,28.634,45.163,28.348,45.163,28.348z"/>
			<path fill="#986F2B" d="M41.479,37.611c0.044,0.543,0.377,0.437,0.617,0.468c0.24,0.029,2.056,0,2.056,0s0.864,0.043,0.377-0.126
				c-1.167-0.403-2.236-1.005-2.877-1.43C41.272,36.274,41.445,37.176,41.479,37.611z"/>
		</g>
		<g>
			<path fill="#C99E48" d="M52.282,24.661v-1.705c0-0.575-0.347-1.041-0.772-1.041h-2.056c-0.345,0-0.756,0.294-0.854,0.713
				C49.411,23.471,51.374,24.463,52.282,24.661z"/>
			<path fill="#C99E48" d="M52.282,32.389v-1.896c0,0-0.07-0.263-0.335-0.38c-1.118-0.494-2.562-1.254-3.077-1.671
				c-0.157-0.129-0.258-0.125-0.261,0.126c-0.004,0.438-0.012,1.438-0.01,1.615c0.005,0.466,0.237,0.727,0.465,0.894
				c0.991,0.719,2.687,1.457,2.891,1.5C52.217,32.631,52.282,32.389,52.282,32.389z"/>
			<path fill="#C99E48" d="M48.6,32.638c0,0.189-0.121,0.87,0,2.02c0.012,0.125,0.186,0.367,0.23,0.409
				c0.83,0.71,2.313,1.351,2.956,1.612c0.291,0.119,0.513,0.156,0.496-0.093c-0.019-0.249-0.035-1.992-0.035-1.992
				s0.053-0.252-0.257-0.339c-0.286-0.081-1.13-0.373-2.194-1.057C48.833,32.577,48.6,32.296,48.6,32.638z"/>
			<path fill="#C99E48" d="M52.282,28.348v-1.802c0,0,0.122-0.256-0.292-0.47c-0.41-0.213-2.519-1.053-3.259-1.874
				c-0.063-0.073-0.185-0.142-0.202,0.013c-0.016,0.155,0.07,1.771,0.07,1.771s-0.07,0.56,0.308,0.902
				c0.295,0.267,2.159,1.46,3.028,1.686C52.17,28.634,52.282,28.348,52.282,28.348z"/>
			<path fill="#C99E48" d="M48.6,37.611c0.041,0.543,0.374,0.437,0.615,0.468c0.239,0.029,2.058,0,2.058,0s0.863,0.043,0.373-0.126
				c-1.163-0.403-2.234-1.005-2.876-1.43C48.392,36.274,48.564,37.176,48.6,37.611z"/>
		</g>
		<g>
			<path fill="#C99E48" d="M38.044,24.661v-1.705c0-0.575-0.347-1.041-0.771-1.041h-2.058c-0.345,0-0.757,0.294-0.855,0.713
				C35.171,23.471,37.135,24.463,38.044,24.661z"/>
			<path fill="#C99E48" d="M38.044,32.389v-1.896c0,0-0.07-0.263-0.335-0.38c-1.12-0.494-2.562-1.254-3.077-1.671
				c-0.157-0.129-0.258-0.125-0.261,0.126c-0.005,0.438-0.014,1.438-0.012,1.615c0.005,0.466,0.237,0.727,0.467,0.894
				c0.991,0.719,2.687,1.457,2.891,1.5C37.979,32.631,38.044,32.389,38.044,32.389z"/>
			<path fill="#C99E48" d="M34.359,32.638c0,0.189-0.12,0.87,0,2.02c0.014,0.125,0.188,0.367,0.232,0.409
				c0.829,0.71,2.313,1.351,2.955,1.612c0.293,0.119,0.512,0.156,0.497-0.093c-0.019-0.249-0.037-1.992-0.037-1.992
				s0.056-0.252-0.256-0.339c-0.285-0.081-1.13-0.373-2.193-1.057C34.594,32.577,34.359,32.296,34.359,32.638z"/>
			<path fill="#C99E48" d="M38.044,28.348v-1.802c0,0,0.12-0.256-0.293-0.47c-0.412-0.213-2.518-1.053-3.258-1.874
				c-0.065-0.073-0.186-0.142-0.202,0.013c-0.017,0.155,0.068,1.771,0.068,1.771s-0.068,0.56,0.308,0.902
				c0.295,0.267,2.16,1.46,3.028,1.686C37.932,28.634,38.044,28.348,38.044,28.348z"/>
			<path fill="#C99E48" d="M34.359,37.611c0.044,0.543,0.377,0.437,0.616,0.468c0.239,0.029,2.057,0,2.057,0
				s0.864,0.043,0.375-0.126c-1.163-0.403-2.236-1.005-2.877-1.43C34.153,36.274,34.324,37.176,34.359,37.611z"/>
		</g>
		<g>
			<path fill="#986F2B" d="M30.923,24.661v-1.705c0-0.575-0.345-1.041-0.771-1.041h-2.056c-0.345,0-0.757,0.294-0.855,0.713
				C28.052,23.471,30.014,24.463,30.923,24.661z"/>
			<path fill="#986F2B" d="M30.923,32.389v-1.896c0,0-0.068-0.263-0.335-0.38c-1.119-0.494-2.561-1.254-3.075-1.671
				c-0.157-0.129-0.261-0.125-0.261,0.126c-0.005,0.438-0.014,1.438-0.012,1.615c0.004,0.466,0.237,0.727,0.466,0.894
				c0.992,0.719,2.688,1.457,2.893,1.5C30.857,32.631,30.923,32.389,30.923,32.389z"/>
			<path fill="#986F2B" d="M27.24,32.638c0,0.189-0.12,0.87,0,2.02c0.012,0.125,0.186,0.367,0.234,0.409
				c0.827,0.71,2.31,1.351,2.951,1.612c0.293,0.119,0.514,0.156,0.497-0.093s-0.035-1.992-0.035-1.992s0.054-0.252-0.256-0.339
				c-0.286-0.081-1.132-0.373-2.193-1.057C27.475,32.577,27.24,32.296,27.24,32.638z"/>
			<path fill="#986F2B" d="M30.923,28.348v-1.802c0,0,0.122-0.256-0.291-0.47c-0.41-0.213-2.518-1.053-3.258-1.874
				c-0.065-0.073-0.186-0.142-0.204,0.013c-0.017,0.155,0.07,1.771,0.07,1.771s-0.07,0.56,0.308,0.902
				c0.293,0.267,2.158,1.46,3.028,1.686C30.813,28.634,30.923,28.348,30.923,28.348z"/>
			<path fill="#986F2B" d="M27.24,37.611c0.044,0.543,0.375,0.437,0.616,0.468c0.239,0.029,2.056,0,2.056,0s0.865,0.043,0.376-0.126
				c-1.165-0.403-2.236-1.005-2.877-1.43C27.034,36.274,27.205,37.176,27.24,37.611z"/>
		</g>
		<g>
			<path fill="#C99E48" d="M23.804,24.661v-1.705c0-0.575-0.345-1.041-0.771-1.041h-2.056c-0.345,0-0.757,0.294-0.856,0.713
				C20.934,23.471,22.895,24.463,23.804,24.661z"/>
			<path fill="#C99E48" d="M23.804,32.389v-1.896c0,0-0.068-0.263-0.333-0.38c-1.12-0.494-2.563-1.254-3.076-1.671
				c-0.159-0.129-0.26-0.125-0.263,0.126c-0.004,0.438-0.014,1.438-0.012,1.615c0.006,0.466,0.239,0.727,0.468,0.894
				c0.989,0.719,2.686,1.457,2.89,1.5C23.738,32.631,23.804,32.389,23.804,32.389z"/>
			<path fill="#C99E48" d="M20.12,32.638c0,0.189-0.119,0.87,0,2.02c0.013,0.125,0.188,0.367,0.234,0.409
				c0.828,0.71,2.312,1.351,2.954,1.612c0.291,0.119,0.512,0.156,0.495-0.093c-0.019-0.249-0.035-1.992-0.035-1.992
				s0.054-0.252-0.256-0.339c-0.286-0.081-1.13-0.373-2.193-1.057C20.355,32.577,20.12,32.296,20.12,32.638z"/>
			<path fill="#C99E48" d="M23.804,28.348v-1.802c0,0,0.122-0.256-0.291-0.47c-0.412-0.213-2.518-1.053-3.258-1.874
				c-0.064-0.073-0.186-0.142-0.202,0.013c-0.017,0.155,0.067,1.771,0.067,1.771s-0.067,0.56,0.31,0.902
				c0.294,0.267,2.159,1.46,3.027,1.686C23.693,28.634,23.804,28.348,23.804,28.348z"/>
			<path fill="#C99E48" d="M20.12,37.611c0.045,0.543,0.376,0.437,0.617,0.468c0.239,0.029,2.056,0,2.056,0s0.863,0.043,0.377-0.126
				c-1.165-0.403-2.236-1.005-2.878-1.43C19.915,36.274,20.086,37.176,20.12,37.611z"/>
		</g>
		<g>
			<path fill="#986F2B" d="M59.4,24.661v-1.705c0-0.575-0.345-1.041-0.771-1.041h-2.056c-0.345,0-0.758,0.294-0.855,0.713
				C56.53,23.471,58.493,24.463,59.4,24.661z"/>
			<path fill="#986F2B" d="M59.4,32.389v-1.896c0,0-0.07-0.263-0.333-0.38c-1.119-0.494-2.564-1.254-3.076-1.671
				c-0.159-0.129-0.26-0.125-0.263,0.126c-0.005,0.438-0.012,1.438-0.011,1.615c0.004,0.466,0.236,0.727,0.466,0.894
				c0.992,0.719,2.687,1.457,2.893,1.5C59.336,32.631,59.4,32.389,59.4,32.389z"/>
			<path fill="#986F2B" d="M55.718,32.638c0,0.189-0.12,0.87,0,2.02c0.011,0.125,0.187,0.367,0.233,0.409
				c0.828,0.71,2.312,1.351,2.952,1.612c0.295,0.119,0.515,0.156,0.497-0.093c-0.017-0.249-0.035-1.992-0.035-1.992
				s0.054-0.252-0.256-0.339c-0.286-0.081-1.13-0.373-2.194-1.057C55.951,32.577,55.718,32.296,55.718,32.638z"/>
			<path fill="#986F2B" d="M59.4,28.348v-1.802c0,0,0.122-0.256-0.289-0.47c-0.412-0.213-2.52-1.053-3.259-1.874
				c-0.065-0.073-0.187-0.142-0.205,0.013c-0.015,0.155,0.07,1.771,0.07,1.771s-0.07,0.56,0.309,0.902
				c0.293,0.267,2.159,1.46,3.028,1.686C59.29,28.634,59.4,28.348,59.4,28.348z"/>
			<path fill="#986F2B" d="M55.718,37.611c0.044,0.543,0.375,0.437,0.616,0.468c0.239,0.029,2.058,0,2.058,0
				s0.863,0.043,0.377-0.126c-1.167-0.403-2.238-1.005-2.881-1.43C55.513,36.274,55.683,37.176,55.718,37.611z"/>
		</g>
		<g>
			<path fill="#C99E48" d="M66.52,24.661v-1.705c0-0.575-0.345-1.041-0.77-1.041h-2.058c-0.343,0-0.756,0.294-0.855,0.713
				C63.649,23.471,65.612,24.463,66.52,24.661z"/>
			<path fill="#C99E48" d="M66.52,32.389v-1.896c0,0-0.07-0.263-0.335-0.38c-1.119-0.494-2.561-1.254-3.074-1.671
				c-0.159-0.129-0.26-0.125-0.262,0.126c-0.005,0.438-0.013,1.438-0.012,1.615c0.006,0.466,0.238,0.727,0.468,0.894
				c0.99,0.719,2.687,1.457,2.889,1.5C66.456,32.631,66.52,32.389,66.52,32.389z"/>
			<path fill="#C99E48" d="M62.837,32.638c0,0.189-0.12,0.87,0,2.02c0.012,0.125,0.187,0.367,0.233,0.409
				c0.83,0.71,2.31,1.351,2.954,1.612c0.291,0.119,0.512,0.156,0.495-0.093s-0.033-1.992-0.033-1.992s0.052-0.252-0.256-0.339
				c-0.288-0.081-1.132-0.373-2.194-1.057C63.073,32.577,62.837,32.296,62.837,32.638z"/>
			<path fill="#C99E48" d="M66.52,28.348v-1.802c0,0,0.122-0.256-0.289-0.47c-0.412-0.213-2.52-1.053-3.259-1.874
				c-0.065-0.073-0.187-0.142-0.203,0.013c-0.017,0.155,0.068,1.771,0.068,1.771s-0.068,0.56,0.309,0.902
				c0.293,0.267,2.159,1.46,3.026,1.686C66.409,28.634,66.52,28.348,66.52,28.348z"/>
			<path fill="#C99E48" d="M62.837,37.611c0.042,0.543,0.375,0.437,0.618,0.468c0.239,0.029,2.056,0,2.056,0
				s0.863,0.043,0.376-0.126c-1.165-0.403-2.237-1.005-2.879-1.43C62.632,36.274,62.802,37.176,62.837,37.611z"/>
		</g>
	</g>
</g>
<g enable-background="new    ">
	<path fill="#374537" d="M36.277,70.192v-4.244c0-0.398-0.02-0.748-0.053-1.043s-0.104-0.543-0.203-0.74
		c-0.1-0.199-0.242-0.352-0.428-0.451c-0.186-0.102-0.428-0.145-0.729-0.145c-0.459,0-0.844,0.139-1.146,0.42
		c-0.305,0.275-0.518,0.629-0.639,1.049v5.16h-1.199v-7.5h0.84l0.227,0.916h0.063c0.271-0.32,0.582-0.582,0.938-0.787
		c0.354-0.205,0.814-0.313,1.389-0.313c0.48,0,0.871,0.094,1.178,0.275c0.309,0.189,0.541,0.51,0.711,0.971
		c0.23-0.395,0.547-0.691,0.953-0.916c0.404-0.223,0.861-0.33,1.373-0.33c0.42,0,0.773,0.049,1.064,0.145
		c0.289,0.098,0.527,0.264,0.721,0.502c0.189,0.24,0.326,0.564,0.412,0.98c0.084,0.41,0.127,0.93,0.127,1.559v4.5h-1.199v-4.514
		c0-0.361-0.02-0.674-0.053-0.939c-0.035-0.268-0.105-0.484-0.211-0.658c-0.104-0.178-0.25-0.307-0.438-0.395
		c-0.184-0.084-0.428-0.127-0.727-0.127c-0.5,0-0.893,0.141-1.17,0.42c-0.281,0.277-0.48,0.684-0.604,1.199v5.01h-1.197V70.192
		L36.277,70.192z"/>
	<path fill="#374537" d="M48.457,70.192v-4.244c0-0.398-0.018-0.748-0.053-1.043s-0.104-0.543-0.203-0.74
		c-0.102-0.199-0.242-0.352-0.428-0.451c-0.188-0.102-0.43-0.145-0.729-0.145c-0.463,0-0.846,0.139-1.146,0.42
		c-0.307,0.275-0.52,0.629-0.639,1.049v5.16h-1.201v-7.5h0.844l0.225,0.916h0.061c0.271-0.32,0.582-0.582,0.939-0.787
		c0.355-0.205,0.816-0.313,1.389-0.313c0.48,0,0.873,0.094,1.18,0.275c0.307,0.186,0.543,0.51,0.713,0.971
		c0.229-0.395,0.547-0.691,0.951-0.916c0.404-0.223,0.861-0.33,1.373-0.33c0.42,0,0.773,0.049,1.063,0.145
		c0.291,0.098,0.529,0.264,0.723,0.502c0.189,0.24,0.328,0.564,0.412,0.98c0.086,0.408,0.127,0.93,0.127,1.559v4.5h-1.197v-4.514
		c0-0.361-0.021-0.674-0.055-0.939c-0.035-0.268-0.104-0.484-0.209-0.658c-0.104-0.178-0.25-0.307-0.438-0.395
		c-0.189-0.084-0.432-0.127-0.73-0.127c-0.5,0-0.891,0.141-1.17,0.42c-0.281,0.277-0.479,0.684-0.602,1.199v5.01h-1.199V70.192
		L48.457,70.192z"/>
</g>
<polyline fill="none" stroke="#374537" stroke-width="0.9248" stroke-linecap="round" stroke-miterlimit="10" points="
	47.671,54.464 42.999,48.735 38.329,54.464 "/>
<polyline fill="none" stroke="#374537" stroke-width="0.8954" stroke-linecap="round" stroke-miterlimit="10" points="
	47.671,12.011 42.999,17.382 38.329,12.011 "/>
</svg>
