<?xml version="1.0" encoding="utf-8"?>
<!-- Generator: Adobe Illustrator 16.0.0, SVG Export Plug-In . SVG Version: 6.00 Build 0)  -->
<!DOCTYPE svg PUBLIC "-//W3C//DTD SVG 1.1//EN" "http://www.w3.org/Graphics/SVG/1.1/DTD/svg11.dtd">
<svg version="1.1" id="Layer_1" xmlns="http://www.w3.org/2000/svg" xmlns:xlink="http://www.w3.org/1999/xlink" x="0px" y="0px"
	 width="86px" height="80px" viewBox="0 0 86 80" enable-background="new 0 0 86 80" xml:space="preserve">
<g>
	<g>
		<path fill="#F7F2ED" d="M927.476,261.369c0,2.68-2.182,4.85-4.861,4.85h-76.275c-2.688,0-4.858-2.172-4.858-4.85v-70.303
			c0-2.678,2.175-4.852,4.858-4.852h76.275c2.684,0,4.861,2.171,4.861,4.852V261.369L927.476,261.369z"/>
	</g>
	<g>
		<g>
			<path fill="#D1D1D1" d="M922.612,188.217c1.578,0,2.861,1.279,2.861,2.852v70.303c0,1.57-1.283,2.854-2.861,2.854h-76.275
				c-1.576,0-2.859-1.279-2.859-2.854v-70.303c0-1.569,1.283-2.852,2.859-2.852H922.612 M922.612,186.217h-76.275
				c-2.688,0-4.859,2.172-4.859,4.852v70.303c0,2.68,2.176,4.854,4.859,4.854h76.275c2.682,0,4.861-2.172,4.861-4.854v-70.303
				C927.476,188.389,925.296,186.217,922.612,186.217L922.612,186.217z"/>
		</g>
	</g>
</g>
<g>
	<path fill="#FFFFFF" d="M899.688,244.623l-0.453,0.148c-5.728,1.871-11.731,0.584-15.675-3.357
		c-4.211-4.211-5.337-10.773-2.982-16.709l-15.743-15.742l10.332-10.333l15.743,15.743c5.935-2.352,12.498-1.227,16.708,2.984
		c3.939,3.939,5.229,9.947,3.356,15.672l-0.146,0.455L899.688,244.623z"/>
	<path fill="#D1D1D1" d="M898.612,242.871l10.461-10.461c1.583-4.846,0.669-10.1-2.871-13.639
		c-4.061-4.06-10.372-4.668-15.738-2.016l-15.299-15.299l-7.504,7.504l15.299,15.3c-2.652,5.364-2.044,11.681,2.015,15.737
		C888.514,243.539,893.768,244.453,898.612,242.871z"/>
	
		<rect x="863.208" y="202.887" transform="matrix(0.7071 -0.7071 0.7071 0.7071 110.798 674.7614)" fill="#B2ADAD" width="13.28" height="1.516"/>
	
		<line fill="none" stroke="#FFFFFF" stroke-width="0.4255" stroke-miterlimit="10" x1="869.469" y1="209.939" x2="873.128" y2="206.282"/>
	
		<line fill="none" stroke="#FFFFFF" stroke-width="0.4255" stroke-miterlimit="10" x1="873.018" y1="213.488" x2="876.677" y2="209.831"/>
	
		<line fill="none" stroke="#FFFFFF" stroke-width="0.4255" stroke-miterlimit="10" x1="876.566" y1="217.038" x2="880.225" y2="213.38"/>
	
		<line fill="none" stroke="#FFFFFF" stroke-width="0.4255" stroke-miterlimit="10" x1="880.115" y1="220.587" x2="883.773" y2="216.928"/>
	
		<line fill="none" stroke="#FFFFFF" stroke-width="0.3723" stroke-miterlimit="10" x1="871.15" y1="211.809" x2="873.449" y2="209.512"/>
	
		<line fill="none" stroke="#FFFFFF" stroke-width="0.3723" stroke-miterlimit="10" x1="874.698" y1="215.355" x2="876.997" y2="213.059"/>
	
		<line fill="none" stroke="#FFFFFF" stroke-width="0.3723" stroke-miterlimit="10" x1="878.247" y1="218.904" x2="880.545" y2="216.607"/>
	<path fill="#E5BB70" d="M883.48,229.333c-0.455,3.478,0.549,6.894,2.906,9.253c1.956,1.956,4.655,3.033,7.602,3.033
		c0,0,0,0,0.001,0c1.188,0,2.383-0.174,3.56-0.514l9.76-9.76c0.194-0.673,0.313-1.345,0.396-2.015L883.48,229.333L883.48,229.333z"
		/>
</g>
<g>
	<rect x="843.531" y="249.309" fill="#D1D1D1" width="81.891" height="7.017"/>
</g>
<path fill="#E5BB70" d="M863.348,211.958l1.942,3.364c0,0,1.652,2.924,1.943,3.962c0.29,1.036,0.29,4.766-4.035,4.766
	c-4.324,0-4.19-3.716-3.735-4.766s1.941-3.962,1.941-3.962L863.348,211.958z"/>
<g>
	<path fill="#E5BB70" d="M877,247.309V246.5c0-1.104-0.896-2-2-2h-21.5c-1.104,0-2,0.896-2,2v0.809H877z"/>
</g>
<g>
	<g>
		<path fill="#F7F2ED" d="M4.859,78.998C2.73,78.998,1,77.271,1,75.15V4.845c0-2.121,1.73-3.85,3.859-3.85h76.277
			c2.131,0,3.861,1.729,3.861,3.85V75.15c0,2.121-1.73,3.848-3.861,3.848H4.859z"/>
		<path fill="#D1D1D1" d="M81.137,1.998c1.578,0,2.861,1.277,2.861,2.85V75.15c0,1.57-1.283,2.85-2.861,2.85H4.859
			C3.281,78,2,76.725,2,75.15V4.847c0-1.572,1.283-2.85,2.859-2.85H81.137 M81.137-0.002H4.859C2.173-0.002,0,2.169,0,4.847V75.15
			C0,77.826,2.176,80,4.859,80h76.277c2.688,0,4.861-2.174,4.861-4.85V4.847C85.998,2.169,83.824-0.002,81.137-0.002L81.137-0.002z"
			/>
	</g>
</g>
<g>
	<g>
		<g>
			<path fill="#C99E48" d="M20.1,43.676c0,0.229-0.177,0.415-0.396,0.415h-3.058c-0.221,0-0.398-0.187-0.398-0.415V29.389
				c0-0.229,0.177-0.415,0.398-0.415h3.058c0.218,0,0.396,0.186,0.396,0.415V43.676z"/>
			<path fill="#C99E48" d="M25.97,45.691c0,0.295-0.178,0.535-0.396,0.535h-3.06c-0.219,0-0.398-0.24-0.398-0.535V27.374
				c0-0.295,0.179-0.534,0.398-0.534h3.06c0.218,0,0.396,0.239,0.396,0.534V45.691z"/>
		</g>
		<g>
			<path fill="#C99E48" d="M65.924,43.676c0,0.229,0.178,0.415,0.398,0.415h3.057c0.219,0,0.396-0.187,0.396-0.415V29.389
				c0-0.229-0.178-0.415-0.396-0.415h-3.057c-0.221,0-0.398,0.186-0.398,0.415V43.676z"/>
			<path fill="#C99E48" d="M60.054,45.691c0,0.295,0.181,0.535,0.397,0.535h3.058c0.222,0,0.398-0.24,0.398-0.535V27.374
				c0-0.295-0.177-0.534-0.398-0.534h-3.058c-0.217,0-0.397,0.239-0.397,0.534V45.691z"/>
		</g>
		<path fill="#D1D1D1" d="M58.455,37.155c0,0.295-0.231,0.534-0.516,0.534H27.818c-0.283,0-0.513-0.239-0.513-0.534v-1.867
			c0-0.294,0.229-0.534,0.513-0.534h30.121c0.284,0,0.516,0.239,0.516,0.534V37.155z"/>
		<path fill="#D1D1D1" d="M14.406,37.155c0,0.295-0.022,0.534-0.055,0.534H11.18c-0.031,0-0.054-0.239-0.054-0.534v-1.867
			c0-0.294,0.023-0.534,0.054-0.534h3.171c0.033,0,0.055,0.239,0.055,0.534V37.155z"/>
		<path fill="#D1D1D1" d="M74.872,37.155c0,0.295-0.024,0.534-0.054,0.534h-3.174c-0.029,0-0.055-0.239-0.055-0.534v-1.867
			c0-0.294,0.025-0.534,0.055-0.534h3.174c0.029,0,0.054,0.239,0.054,0.534V37.155z"/>
	</g>
	<path fill="#A2A2A3" d="M73.23,52.505c0,0.36-0.291,0.651-0.652,0.651H13.419c-0.361,0-0.652-0.291-0.652-0.651v-2.174
		c0-0.36,0.292-0.652,0.652-0.652h59.159c0.361,0,0.652,0.292,0.652,0.652V52.505z"/>
</g>
</svg>
