<?xml version="1.0" encoding="utf-8"?>
<!-- Generator: Adobe Illustrator 16.0.0, SVG Export Plug-In . SVG Version: 6.00 Build 0)  -->
<!DOCTYPE svg PUBLIC "-//W3C//DTD SVG 1.1//EN" "http://www.w3.org/Graphics/SVG/1.1/DTD/svg11.dtd">
<svg version="1.1" id="Layer_1" xmlns="http://www.w3.org/2000/svg" xmlns:xlink="http://www.w3.org/1999/xlink" x="0px" y="0px"
	 width="86px" height="80px" viewBox="0 0 86 80" enable-background="new 0 0 86 80" xml:space="preserve">
<g>
	<g>
		<path fill="#F7F2ED" d="M927.476,261.369c0,2.68-2.182,4.85-4.861,4.85h-76.275c-2.688,0-4.858-2.172-4.858-4.85v-70.303
			c0-2.678,2.175-4.852,4.858-4.852h76.275c2.684,0,4.861,2.171,4.861,4.852V261.369L927.476,261.369z"/>
	</g>
	<g>
		<g>
			<path fill="#D1D1D1" d="M922.612,188.217c1.578,0,2.861,1.279,2.861,2.852v70.303c0,1.57-1.283,2.854-2.861,2.854h-76.275
				c-1.576,0-2.859-1.279-2.859-2.854v-70.303c0-1.569,1.283-2.852,2.859-2.852H922.612 M922.612,186.217h-76.275
				c-2.688,0-4.859,2.172-4.859,4.852v70.303c0,2.68,2.176,4.854,4.859,4.854h76.275c2.682,0,4.861-2.172,4.861-4.854v-70.303
				C927.476,188.389,925.296,186.217,922.612,186.217L922.612,186.217z"/>
		</g>
	</g>
</g>
<g>
	<path fill="#FFFFFF" d="M899.688,244.623l-0.453,0.148c-5.728,1.871-11.731,0.584-15.675-3.357
		c-4.211-4.211-5.337-10.773-2.982-16.709l-15.743-15.742l10.332-10.333l15.743,15.743c5.935-2.352,12.498-1.227,16.708,2.984
		c3.939,3.939,5.229,9.947,3.356,15.672l-0.146,0.455L899.688,244.623z"/>
	<path fill="#D1D1D1" d="M898.612,242.871l10.461-10.461c1.583-4.846,0.669-10.1-2.871-13.639
		c-4.061-4.06-10.372-4.668-15.738-2.016l-15.299-15.299l-7.504,7.504l15.299,15.3c-2.652,5.364-2.044,11.681,2.015,15.737
		C888.514,243.539,893.768,244.453,898.612,242.871z"/>
	
		<rect x="863.208" y="202.887" transform="matrix(0.7071 -0.7071 0.7071 0.7071 110.798 674.7614)" fill="#B2ADAD" width="13.28" height="1.516"/>
	
		<line fill="none" stroke="#FFFFFF" stroke-width="0.4255" stroke-miterlimit="10" x1="869.469" y1="209.939" x2="873.128" y2="206.282"/>
	
		<line fill="none" stroke="#FFFFFF" stroke-width="0.4255" stroke-miterlimit="10" x1="873.018" y1="213.488" x2="876.677" y2="209.831"/>
	
		<line fill="none" stroke="#FFFFFF" stroke-width="0.4255" stroke-miterlimit="10" x1="876.566" y1="217.038" x2="880.225" y2="213.38"/>
	
		<line fill="none" stroke="#FFFFFF" stroke-width="0.4255" stroke-miterlimit="10" x1="880.115" y1="220.587" x2="883.773" y2="216.928"/>
	
		<line fill="none" stroke="#FFFFFF" stroke-width="0.3723" stroke-miterlimit="10" x1="871.15" y1="211.809" x2="873.449" y2="209.512"/>
	
		<line fill="none" stroke="#FFFFFF" stroke-width="0.3723" stroke-miterlimit="10" x1="874.698" y1="215.355" x2="876.997" y2="213.059"/>
	
		<line fill="none" stroke="#FFFFFF" stroke-width="0.3723" stroke-miterlimit="10" x1="878.247" y1="218.904" x2="880.545" y2="216.607"/>
	<path fill="#E5BB70" d="M883.48,229.333c-0.455,3.478,0.549,6.894,2.906,9.253c1.956,1.956,4.655,3.033,7.602,3.033
		c0,0,0,0,0.001,0c1.188,0,2.383-0.174,3.56-0.514l9.76-9.76c0.194-0.673,0.313-1.345,0.396-2.015L883.48,229.333L883.48,229.333z"
		/>
</g>
<g>
	<rect x="843.531" y="249.309" fill="#D1D1D1" width="81.891" height="7.017"/>
</g>
<path fill="#E5BB70" d="M863.348,211.958l1.942,3.364c0,0,1.652,2.924,1.943,3.962c0.29,1.036,0.29,4.766-4.035,4.766
	c-4.324,0-4.19-3.716-3.735-4.766s1.941-3.962,1.941-3.962L863.348,211.958z"/>
<g>
	<path fill="#E5BB70" d="M877,247.309V246.5c0-1.104-0.896-2-2-2h-21.5c-1.104,0-2,0.896-2,2v0.809H877z"/>
</g>
<g>
	<g>
		<path fill="#F7F2ED" d="M4.861,79c-2.13,0-3.859-1.728-3.859-3.848V4.847c0-2.121,1.729-3.851,3.859-3.851H81.14
			c2.131,0,3.86,1.729,3.86,3.851v70.306C85,77.272,83.271,79,81.142,79H4.861z"/>
		<path fill="#D1D1D1" d="M81.142,2C82.718,2,84,3.277,84,4.85v70.303C84,76.723,82.718,78,81.142,78H4.861
			c-1.578,0-2.859-1.276-2.859-2.848V4.85C2.002,3.277,3.283,2,4.861,2H81.142 M81.142,0H4.861C2.176,0,0.002,2.172,0.002,4.85
			v70.303c0,2.676,2.175,4.849,4.859,4.849H81.14c2.687,0,4.86-2.173,4.86-4.849V4.85C86,2.172,83.826,0,81.142,0L81.142,0z"/>
	</g>
</g>
<g>
	<g>
		<path fill="#C99E48" d="M72.424,45.754c0,0.275-0.064,0.498-0.145,0.498H54.223c-0.08,0-0.145-0.223-0.145-0.498v-1.989
			c0-0.274,0.064-0.497,0.145-0.497h18.057c0.08,0,0.145,0.223,0.145,0.497V45.754z"/>
		<path fill="#D1D1D1" d="M72.424,50.396c0,0.275-0.064,0.498-0.145,0.498H54.223c-0.08,0-0.145-0.223-0.145-0.498v-1.99
			c0-0.273,0.064-0.496,0.145-0.496h18.057c0.08,0,0.145,0.223,0.145,0.496V50.396z"/>
	</g>
	<g>
		<path fill="#C99E48" d="M31.924,45.754c0,0.275-0.064,0.498-0.145,0.498H13.723c-0.08,0-0.145-0.223-0.145-0.498v-1.989
			c0-0.274,0.064-0.497,0.145-0.497h18.057c0.08,0,0.145,0.223,0.145,0.497V45.754z"/>
		<path fill="#D1D1D1" d="M31.924,50.396c0,0.275-0.064,0.498-0.145,0.498H13.723c-0.08,0-0.145-0.223-0.145-0.498v-1.99
			c0-0.273,0.064-0.496,0.145-0.496h18.057c0.08,0,0.145,0.223,0.145,0.496V50.396z"/>
	</g>
	<g>
		<path fill="#986F2B" d="M45.266,26.12v-1.989c0-0.671-0.402-1.214-0.9-1.214h-2.398c-0.402,0-0.883,0.343-0.998,0.833
			C41.916,24.731,44.205,25.889,45.266,26.12z"/>
		<path fill="#986F2B" d="M45.266,35.137v-2.213c0,0-0.08-0.307-0.391-0.444c-1.307-0.576-2.988-1.463-3.588-1.949
			c-0.184-0.15-0.305-0.146-0.305,0.147c-0.006,0.511-0.016,1.678-0.014,1.884c0.004,0.543,0.277,0.849,0.543,1.043
			c1.158,0.839,3.137,1.699,3.375,1.75C45.189,35.42,45.266,35.137,45.266,35.137z"/>
		<path fill="#986F2B" d="M40.969,35.428c0,0.221-0.141,1.015,0,2.357c0.014,0.146,0.217,0.428,0.273,0.477
			c0.965,0.829,2.695,1.576,3.443,1.881c0.342,0.139,0.6,0.182,0.58-0.108s-0.041-2.324-0.041-2.324s0.063-0.294-0.299-0.396
			c-0.334-0.094-1.32-0.435-2.559-1.233C41.242,35.356,40.969,35.028,40.969,35.428z"/>
		<path fill="#986F2B" d="M45.266,30.422v-2.103c0,0,0.143-0.299-0.34-0.549c-0.479-0.249-2.938-1.229-3.801-2.187
			c-0.076-0.085-0.217-0.166-0.238,0.015c-0.02,0.181,0.082,2.067,0.082,2.067s-0.082,0.653,0.359,1.052
			c0.342,0.311,2.518,1.704,3.533,1.967C45.137,30.756,45.266,30.422,45.266,30.422z"/>
		<path fill="#986F2B" d="M40.969,41.23c0.051,0.634,0.438,0.51,0.719,0.545c0.279,0.035,2.398,0,2.398,0s1.01,0.051,0.439-0.146
			c-1.359-0.471-2.609-1.174-3.357-1.668C40.729,39.671,40.928,40.723,40.969,41.23z"/>
	</g>
	<g>
		<path fill="#C99E48" d="M53.572,26.12v-1.989c0-0.671-0.402-1.214-0.9-1.214h-2.398c-0.4,0-0.883,0.343-0.998,0.833
			C50.223,24.731,52.514,25.889,53.572,26.12z"/>
		<path fill="#C99E48" d="M53.572,35.137v-2.213c0,0-0.08-0.307-0.389-0.444c-1.305-0.576-2.99-1.463-3.59-1.949
			c-0.186-0.15-0.301-0.146-0.305,0.147c-0.004,0.511-0.016,1.678-0.014,1.884c0.008,0.543,0.277,0.849,0.545,1.043
			c1.156,0.839,3.133,1.699,3.371,1.75C53.498,35.42,53.572,35.137,53.572,35.137z"/>
		<path fill="#C99E48" d="M49.275,35.428c0,0.221-0.141,1.015,0,2.357c0.016,0.146,0.217,0.428,0.271,0.477
			c0.967,0.829,2.697,1.576,3.447,1.881c0.34,0.139,0.598,0.182,0.578-0.108s-0.041-2.324-0.041-2.324s0.064-0.294-0.297-0.396
			c-0.334-0.094-1.32-0.435-2.561-1.233C49.549,35.356,49.275,35.028,49.275,35.428z"/>
		<path fill="#C99E48" d="M53.572,30.422v-2.103c0,0,0.143-0.299-0.338-0.549c-0.48-0.249-2.939-1.229-3.803-2.187
			c-0.076-0.085-0.217-0.166-0.236,0.015c-0.02,0.181,0.08,2.067,0.08,2.067s-0.08,0.653,0.359,1.052
			c0.344,0.311,2.52,1.704,3.533,1.967C53.443,30.756,53.572,30.422,53.572,30.422z"/>
		<path fill="#C99E48" d="M49.275,41.23c0.051,0.634,0.439,0.51,0.721,0.545c0.277,0.035,2.398,0,2.398,0s1.008,0.051,0.438-0.146
			c-1.357-0.471-2.609-1.174-3.357-1.668C49.035,39.671,49.234,40.723,49.275,41.23z"/>
	</g>
	<g>
		<path fill="#C99E48" d="M36.959,26.12v-1.989c0-0.671-0.402-1.214-0.9-1.214H33.66c-0.402,0-0.883,0.343-1,0.833
			C33.609,24.731,35.898,25.889,36.959,26.12z"/>
		<path fill="#C99E48" d="M36.959,35.137v-2.213c0,0-0.08-0.307-0.389-0.444c-1.307-0.576-2.99-1.463-3.59-1.949
			c-0.186-0.15-0.303-0.146-0.307,0.147c-0.004,0.511-0.016,1.678-0.014,1.884c0.008,0.543,0.279,0.849,0.547,1.043
			c1.154,0.839,3.133,1.699,3.371,1.75C36.883,35.42,36.959,35.137,36.959,35.137z"/>
		<path fill="#C99E48" d="M32.66,35.428c0,0.221-0.139,1.015,0,2.357c0.016,0.146,0.219,0.428,0.273,0.477
			c0.967,0.829,2.697,1.576,3.447,1.881c0.34,0.139,0.598,0.182,0.578-0.108c-0.021-0.29-0.041-2.324-0.041-2.324
			s0.063-0.294-0.299-0.396c-0.334-0.094-1.318-0.435-2.559-1.233C32.936,35.356,32.66,35.028,32.66,35.428z"/>
		<path fill="#C99E48" d="M36.959,30.422v-2.103c0,0,0.143-0.299-0.34-0.549c-0.48-0.249-2.938-1.229-3.801-2.187
			c-0.076-0.085-0.217-0.166-0.236,0.015c-0.02,0.181,0.078,2.067,0.078,2.067s-0.078,0.653,0.361,1.052
			c0.344,0.311,2.52,1.704,3.533,1.967C36.83,30.756,36.959,30.422,36.959,30.422z"/>
		<path fill="#C99E48" d="M32.66,41.23c0.053,0.634,0.439,0.51,0.721,0.545c0.279,0.035,2.398,0,2.398,0s1.008,0.051,0.439-0.146
			c-1.359-0.471-2.609-1.174-3.357-1.668C32.422,39.671,32.621,40.723,32.66,41.23z"/>
	</g>
	<g>
		<path fill="#986F2B" d="M28.652,26.12v-1.989c0-0.671-0.404-1.214-0.9-1.214h-2.4c-0.402,0-0.883,0.343-0.998,0.833
			C25.303,24.731,27.592,25.889,28.652,26.12z"/>
		<path fill="#986F2B" d="M28.652,35.137v-2.213c0,0-0.082-0.307-0.393-0.444c-1.305-0.576-2.988-1.463-3.588-1.949
			c-0.184-0.15-0.303-0.146-0.305,0.147c-0.006,0.511-0.016,1.678-0.014,1.884c0.006,0.543,0.277,0.849,0.545,1.043
			c1.156,0.839,3.135,1.699,3.373,1.75C28.576,35.42,28.652,35.137,28.652,35.137z"/>
		<path fill="#986F2B" d="M24.354,35.428c0,0.221-0.141,1.015,0,2.357c0.014,0.146,0.217,0.428,0.273,0.477
			c0.965,0.829,2.695,1.576,3.445,1.881c0.342,0.139,0.6,0.182,0.58-0.108c-0.021-0.29-0.043-2.324-0.043-2.324
			s0.064-0.294-0.297-0.396c-0.334-0.094-1.32-0.435-2.559-1.233C24.629,35.356,24.354,35.028,24.354,35.428z"/>
		<path fill="#986F2B" d="M28.652,30.422v-2.103c0,0,0.143-0.299-0.34-0.549c-0.48-0.249-2.938-1.229-3.803-2.187
			c-0.076-0.085-0.217-0.166-0.236,0.015c-0.02,0.181,0.08,2.067,0.08,2.067s-0.08,0.653,0.361,1.052
			c0.342,0.311,2.518,1.704,3.531,1.967C28.521,30.756,28.652,30.422,28.652,30.422z"/>
		<path fill="#986F2B" d="M24.354,41.23c0.051,0.634,0.439,0.51,0.721,0.545c0.279,0.035,2.398,0,2.398,0s1.008,0.051,0.439-0.146
			c-1.361-0.471-2.609-1.174-3.357-1.668C24.113,39.671,24.314,40.723,24.354,41.23z"/>
	</g>
	<g>
		<path fill="#C99E48" d="M20.346,26.12v-1.989c0-0.671-0.404-1.214-0.9-1.214h-2.4c-0.402,0-0.883,0.343-0.998,0.833
			C16.994,24.731,19.285,25.889,20.346,26.12z"/>
		<path fill="#C99E48" d="M20.346,35.137v-2.213c0,0-0.082-0.307-0.391-0.444c-1.307-0.576-2.988-1.463-3.59-1.949
			c-0.184-0.15-0.301-0.146-0.305,0.147c-0.006,0.511-0.016,1.678-0.014,1.884c0.006,0.543,0.277,0.849,0.545,1.043
			c1.156,0.839,3.135,1.699,3.373,1.75C20.27,35.42,20.346,35.137,20.346,35.137z"/>
		<path fill="#C99E48" d="M16.047,35.428c0,0.221-0.141,1.015,0,2.357c0.016,0.146,0.219,0.428,0.271,0.477
			c0.967,0.829,2.699,1.576,3.447,1.881c0.342,0.139,0.598,0.182,0.58-0.108c-0.021-0.29-0.043-2.324-0.043-2.324
			s0.064-0.294-0.299-0.396c-0.332-0.094-1.318-0.435-2.559-1.233C16.32,35.356,16.047,35.028,16.047,35.428z"/>
		<path fill="#C99E48" d="M20.346,30.422v-2.103c0,0,0.141-0.299-0.342-0.549c-0.48-0.249-2.938-1.229-3.801-2.187
			c-0.076-0.085-0.217-0.166-0.236,0.015c-0.02,0.181,0.08,2.067,0.08,2.067s-0.08,0.653,0.359,1.052
			c0.344,0.311,2.52,1.704,3.533,1.967C20.215,30.756,20.346,30.422,20.346,30.422z"/>
		<path fill="#C99E48" d="M16.047,41.23c0.051,0.634,0.439,0.51,0.719,0.545s2.4,0,2.4,0s1.008,0.051,0.438-0.146
			c-1.357-0.471-2.609-1.174-3.357-1.668C15.807,39.671,16.006,40.723,16.047,41.23z"/>
	</g>
	<g>
		<path fill="#986F2B" d="M61.879,26.12v-1.989c0-0.671-0.4-1.214-0.898-1.214h-2.398c-0.404,0-0.887,0.343-1,0.833
			C58.531,24.731,60.82,25.889,61.879,26.12z"/>
		<path fill="#986F2B" d="M61.879,35.137v-2.213c0,0-0.08-0.307-0.389-0.444c-1.305-0.576-2.99-1.463-3.588-1.949
			c-0.186-0.15-0.303-0.146-0.307,0.147c-0.006,0.511-0.016,1.678-0.014,1.884c0.006,0.543,0.277,0.849,0.545,1.043
			c1.156,0.839,3.135,1.699,3.373,1.75C61.803,35.42,61.879,35.137,61.879,35.137z"/>
		<path fill="#986F2B" d="M57.582,35.428c0,0.221-0.141,1.015,0,2.357c0.014,0.146,0.217,0.428,0.273,0.477
			c0.967,0.829,2.697,1.576,3.443,1.881c0.344,0.139,0.6,0.182,0.58-0.108c-0.018-0.29-0.039-2.324-0.039-2.324
			s0.061-0.294-0.301-0.396c-0.334-0.094-1.318-0.435-2.559-1.233C57.855,35.356,57.582,35.028,57.582,35.428z"/>
		<path fill="#986F2B" d="M61.879,30.422v-2.103c0,0,0.143-0.299-0.338-0.549c-0.48-0.249-2.938-1.229-3.801-2.187
			c-0.076-0.085-0.217-0.166-0.238,0.015c-0.02,0.181,0.08,2.067,0.08,2.067s-0.08,0.653,0.359,1.052
			c0.344,0.311,2.52,1.704,3.533,1.967C61.752,30.756,61.879,30.422,61.879,30.422z"/>
		<path fill="#986F2B" d="M57.582,41.23c0.051,0.634,0.439,0.51,0.719,0.545c0.281,0.035,2.4,0,2.4,0s1.008,0.051,0.439-0.146
			c-1.359-0.471-2.609-1.174-3.359-1.668C57.342,39.671,57.543,40.723,57.582,41.23z"/>
	</g>
	<g>
		<path fill="#C99E48" d="M70.188,26.12v-1.989c0-0.671-0.402-1.214-0.9-1.214h-2.4c-0.4,0-0.883,0.343-0.998,0.833
			C66.838,24.731,69.127,25.889,70.188,26.12z"/>
		<path fill="#C99E48" d="M70.188,35.137v-2.213c0,0-0.082-0.307-0.391-0.444c-1.307-0.576-2.99-1.463-3.588-1.949
			c-0.186-0.15-0.303-0.146-0.307,0.147c-0.006,0.511-0.016,1.678-0.014,1.884c0.006,0.543,0.277,0.849,0.545,1.043
			c1.156,0.839,3.137,1.699,3.373,1.75C70.113,35.42,70.188,35.137,70.188,35.137z"/>
		<path fill="#C99E48" d="M65.889,35.428c0,0.221-0.139,1.015,0,2.357c0.014,0.146,0.217,0.428,0.273,0.477
			c0.967,0.829,2.695,1.576,3.447,1.881c0.34,0.139,0.598,0.182,0.578-0.108c-0.021-0.29-0.041-2.324-0.041-2.324
			s0.063-0.294-0.299-0.396c-0.334-0.094-1.318-0.435-2.559-1.233C66.164,35.356,65.889,35.028,65.889,35.428z"/>
		<path fill="#C99E48" d="M70.188,30.422v-2.103c0,0,0.141-0.299-0.34-0.549c-0.48-0.249-2.938-1.229-3.803-2.187
			c-0.074-0.085-0.215-0.166-0.236,0.015c-0.02,0.181,0.08,2.067,0.08,2.067s-0.08,0.653,0.361,1.052
			c0.342,0.311,2.52,1.704,3.531,1.967C70.057,30.756,70.188,30.422,70.188,30.422z"/>
		<path fill="#C99E48" d="M65.889,41.23c0.051,0.634,0.439,0.51,0.721,0.545c0.279,0.035,2.398,0,2.398,0s1.01,0.051,0.439-0.146
			c-1.359-0.471-2.609-1.174-3.357-1.668C65.648,39.671,65.848,40.723,65.889,41.23z"/>
	</g>
</g>
<g enable-background="new    ">
	<path fill="#374537" d="M36.277,70.193v-4.244c0-0.398-0.02-0.748-0.053-1.043s-0.104-0.543-0.203-0.74
		c-0.1-0.199-0.242-0.352-0.428-0.451c-0.186-0.102-0.428-0.145-0.729-0.145c-0.459,0-0.844,0.139-1.146,0.42
		c-0.305,0.275-0.518,0.629-0.639,1.049v5.16h-1.199v-7.5h0.84l0.227,0.916h0.063c0.271-0.32,0.582-0.582,0.938-0.787
		c0.354-0.205,0.814-0.313,1.389-0.313c0.48,0,0.871,0.094,1.178,0.275c0.309,0.189,0.541,0.51,0.711,0.971
		c0.23-0.395,0.547-0.691,0.953-0.916c0.404-0.223,0.861-0.33,1.373-0.33c0.42,0,0.773,0.049,1.064,0.145
		c0.289,0.098,0.527,0.264,0.721,0.502c0.189,0.24,0.326,0.564,0.412,0.98c0.084,0.41,0.127,0.93,0.127,1.559v4.5h-1.199v-4.514
		c0-0.361-0.02-0.674-0.053-0.939c-0.035-0.268-0.105-0.484-0.211-0.658c-0.104-0.178-0.25-0.307-0.438-0.395
		c-0.184-0.084-0.428-0.127-0.727-0.127c-0.5,0-0.893,0.141-1.17,0.42c-0.281,0.277-0.48,0.684-0.604,1.199v5.01h-1.197V70.193
		L36.277,70.193z"/>
	<path fill="#374537" d="M48.457,70.193v-4.244c0-0.398-0.018-0.748-0.053-1.043s-0.104-0.543-0.203-0.74
		c-0.102-0.199-0.242-0.352-0.428-0.451c-0.188-0.102-0.43-0.145-0.729-0.145c-0.463,0-0.846,0.139-1.146,0.42
		c-0.307,0.275-0.52,0.629-0.639,1.049v5.16h-1.201v-7.5h0.844l0.225,0.916h0.061c0.271-0.32,0.582-0.582,0.939-0.787
		c0.355-0.205,0.816-0.313,1.389-0.313c0.48,0,0.873,0.094,1.18,0.275c0.307,0.186,0.543,0.51,0.713,0.971
		c0.229-0.395,0.547-0.691,0.951-0.916c0.404-0.223,0.861-0.33,1.373-0.33c0.42,0,0.773,0.049,1.063,0.145
		c0.291,0.098,0.529,0.264,0.723,0.502c0.189,0.24,0.328,0.564,0.412,0.98c0.086,0.408,0.127,0.93,0.127,1.559v4.5h-1.197v-4.514
		c0-0.361-0.021-0.674-0.055-0.939c-0.035-0.268-0.104-0.484-0.209-0.658c-0.104-0.178-0.25-0.307-0.438-0.395
		c-0.189-0.084-0.432-0.127-0.73-0.127c-0.5,0-0.891,0.141-1.17,0.42c-0.281,0.277-0.479,0.684-0.602,1.199v5.01h-1.199V70.193
		L48.457,70.193z"/>
</g>
<polyline fill="none" stroke="#374537" stroke-width="0.9248" stroke-linecap="round" stroke-miterlimit="10" points="47.67,53.465 
	43,47.736 38.328,53.465 "/>
<polyline fill="none" stroke="#374537" stroke-width="0.8954" stroke-linecap="round" stroke-miterlimit="10" points="47.67,11.012 
	43,16.383 38.328,11.012 "/>
</svg>
