<?xml version="1.0" encoding="utf-8"?>
<!-- Generator: Adobe Illustrator 16.0.0, SVG Export Plug-In . SVG Version: 6.00 Build 0)  -->
<!DOCTYPE svg PUBLIC "-//W3C//DTD SVG 1.1//EN" "http://www.w3.org/Graphics/SVG/1.1/DTD/svg11.dtd">
<svg version="1.1" id="Layer_1" xmlns="http://www.w3.org/2000/svg" xmlns:xlink="http://www.w3.org/1999/xlink" x="0px" y="0px"
	 width="86px" height="80px" viewBox="0 0 86 80" enable-background="new 0 0 86 80" xml:space="preserve">
<g>
	<g>
		<g>
			<g>
				<path fill="#F7F2ED" d="M3.951,79C2.324,79,1,77.678,1,76.051V3.948C1,2.322,2.323,1,3.951,1h78.096C83.674,1,85,2.323,85,3.949
					v72.102c0,0.787-0.307,1.525-0.865,2.082C83.578,78.691,82.836,79,82.047,79H3.951z"/>
				<path fill="#D1D1D1" d="M82.047,2C83.123,2,84,2.874,84,3.949v72.105c0,0.523-0.197,1-0.57,1.373
					C83.055,77.801,82.576,78,82.047,78H3.951C2.875,78,2,77.125,2,76.051V3.948C2,2.874,2.875,2,3.951,2H82.047 M82.047,0H3.951
					C1.771,0,0,1.771,0,3.948v72.103C0,78.229,1.771,80,3.951,80h78.096c1.057,0,2.049-0.412,2.795-1.158
					C85.59,78.096,86,77.105,86,76.051V3.949C86,1.771,84.229,0,82.047,0L82.047,0z"/>
			</g>
		</g>
	</g>
	<g>
		<g>
			<path fill="#E7D5AE" d="M42.413,18.535c4.62-1.823,0.622-7.419,6.09-7.792c12.21-0.832,3.191,12.406,5.882,11.253
				c2.693-1.154,10.002,2.691,3.847,5.768c-6.155,3.078-14.665,3.279-9.729,8.844c4.059,4.579-7.878,9.229-8.881,3.079
				c-1.003-6.153-3.887-4.615-9.848-5c-4.828-0.312-5.959-8.184,1.77-10.768c7.132-2.385-1.066-8.31,4.227-10.375
				C39.716,12.004,38.516,20.073,42.413,18.535z"/>
			<path fill="#827F7F" d="M36.618,29.542c0.615-1.053,2.372-1.173,3.921-0.269c1.55,0.905,2.308,2.494,1.691,3.546
				c-0.615,1.053-1.791-1.045-3.34-1.95C37.34,29.963,36.004,30.595,36.618,29.542z"/>
			<ellipse fill="#827F7F" cx="39.796" cy="23.591" rx="1.604" ry="1.331"/>
			<ellipse fill="#827F7F" cx="46.515" cy="27.097" rx="1.845" ry="1.938"/>
			<ellipse fill="#C99E48" cx="40.092" cy="24.132" rx="0.636" ry="0.539"/>
			<ellipse fill="#C99E48" cx="46.513" cy="28.202" rx="0.635" ry="0.54"/>
			<path fill="#827F7F" d="M47.722,17.458c0,0.187-0.11,0.337-0.251,0.337c-0.136,0-0.247-0.151-0.247-0.337
				c0-0.185,0.111-0.337,0.247-0.337C47.611,17.122,47.722,17.273,47.722,17.458z"/>
			<path fill="#827F7F" d="M29.351,30.073c0,0.188-0.111,0.337-0.25,0.337c-0.135,0-0.248-0.149-0.248-0.337
				c0-0.186,0.113-0.336,0.248-0.336C29.239,29.737,29.351,29.887,29.351,30.073z"/>
			<ellipse fill="#827F7F" cx="32.756" cy="31.993" rx="0.298" ry="0.401"/>
			<ellipse fill="#827F7F" cx="33.717" cy="29.737" rx="0.249" ry="0.336"/>
			<path fill="#827F7F" d="M39.704,34.875c0,0.186-0.109,0.335-0.25,0.335c-0.136,0-0.247-0.149-0.247-0.335
				c0-0.185,0.111-0.338,0.247-0.338C39.595,34.537,39.704,34.69,39.704,34.875z"/>
			<ellipse fill="#827F7F" cx="42.444" cy="39.828" rx="0.249" ry="0.337"/>
			<path fill="#827F7F" d="M45.203,41.543c0,0.219-0.131,0.398-0.297,0.398s-0.299-0.18-0.299-0.398
				c0-0.225,0.133-0.406,0.299-0.406S45.203,41.318,45.203,41.543z"/>
			<path fill="#827F7F" d="M47.012,39.49c0,0.187-0.108,0.338-0.25,0.338c-0.137,0-0.247-0.151-0.247-0.338
				c0-0.186,0.11-0.335,0.247-0.335C46.903,39.155,47.012,39.304,47.012,39.49z"/>
			<ellipse fill="#827F7F" cx="37.17" cy="17.238" rx="0.297" ry="0.402"/>
			<path fill="#827F7F" d="M50.686,22.259c0,0.22-0.129,0.403-0.298,0.403c-0.162,0-0.295-0.183-0.295-0.403
				c0-0.223,0.133-0.403,0.295-0.403C50.557,21.856,50.686,22.037,50.686,22.259z"/>
			<ellipse fill="#827F7F" cx="53.453" cy="15.773" rx="0.25" ry="0.337"/>
			<ellipse fill="#827F7F" cx="36.465" cy="21.165" rx="0.249" ry="0.353"/>
			<path fill="#827F7F" d="M48.017,21.518c0,0.234-0.13,0.425-0.297,0.425c-0.162,0-0.295-0.191-0.295-0.425
				c0-0.231,0.133-0.422,0.295-0.422C47.887,21.096,48.017,21.287,48.017,21.518z"/>
			<ellipse fill="#827F7F" cx="32.756" cy="26.944" rx="0.248" ry="0.355"/>
			<ellipse fill="#827F7F" cx="42.446" cy="19.396" rx="0.249" ry="0.354"/>
			<ellipse fill="#827F7F" cx="41.399" cy="27.299" rx="0.249" ry="0.296"/>
			<ellipse fill="#827F7F" cx="45.655" cy="34.578" rx="0.248" ry="0.297"/>
			<ellipse fill="#827F7F" cx="50.141" cy="27.958" rx="0.25" ry="0.297"/>
			<ellipse fill="#827F7F" cx="54.771" cy="25.161" rx="0.249" ry="0.297"/>
			<ellipse fill="#827F7F" cx="50.391" cy="12.726" rx="0.298" ry="0.354"/>
		</g>
		<g>
			<path fill="#D1D1D1" d="M20.077,29.899c0.106,0.035,0.162,0.154,0.123,0.264l-0.662,1.895c-0.039,0.108-0.154,0.168-0.26,0.132
				l0,0c-0.105-0.036-0.158-0.155-0.121-0.265l0.663-1.895C19.858,29.92,19.974,29.861,20.077,29.899L20.077,29.899z"/>
			<path fill="#D1D1D1" d="M18.543,29.918c0.11-0.004,0.204,0.088,0.206,0.203l0.053,2.008c0.004,0.115-0.084,0.212-0.195,0.214l0,0
				c-0.112,0.004-0.203-0.088-0.205-0.203l-0.054-2.006C18.345,30.015,18.433,29.92,18.543,29.918L18.543,29.918z"/>
			<path fill="#D1D1D1" d="M17.009,30.508c0.105-0.032,0.221,0.029,0.255,0.141l0.604,1.914c0.035,0.111-0.023,0.227-0.131,0.261
				l0,0c-0.104,0.034-0.219-0.03-0.253-0.141l-0.604-1.914C16.846,30.66,16.902,30.542,17.009,30.508L17.009,30.508z"/>
			<path fill="#D1D1D1" d="M16.054,31.25c0.102-0.047,0.223,0.004,0.268,0.113l0.799,1.841c0.047,0.106,0,0.229-0.104,0.273l0,0
				c-0.1,0.043-0.221-0.008-0.267-0.113l-0.797-1.843C15.906,31.416,15.951,31.292,16.054,31.25L16.054,31.25z"/>
			<path fill="#D1D1D1" d="M12.466,38.388c0.051-0.101,0.174-0.14,0.279-0.086l1.791,0.905c0.104,0.052,0.146,0.176,0.097,0.274l0,0
				c-0.051,0.1-0.177,0.137-0.279,0.085l-1.791-0.907C12.458,38.606,12.414,38.486,12.466,38.388L12.466,38.388z"/>
			<path fill="#D1D1D1" d="M12.005,39.934c0.027-0.11,0.139-0.175,0.253-0.146l1.948,0.479c0.111,0.026,0.182,0.138,0.156,0.247l0,0
				c-0.027,0.107-0.14,0.172-0.254,0.143l-1.947-0.478C12.048,40.15,11.978,40.042,12.005,39.934L12.005,39.934z"/>
			<path fill="#D1D1D1" d="M11.862,41.166c0.021-0.109,0.131-0.178,0.246-0.156l1.967,0.398c0.113,0.023,0.188,0.131,0.166,0.24l0,0
				c-0.023,0.109-0.133,0.176-0.246,0.154l-1.968-0.396C11.914,41.383,11.839,41.275,11.862,41.166L11.862,41.166z"/>
			<path fill="#D1D1D1" d="M12.688,49.252c-0.029-0.107,0.034-0.217,0.148-0.248l1.932-0.545c0.111-0.031,0.226,0.031,0.258,0.137
				l0,0c0.029,0.111-0.039,0.221-0.15,0.252l-1.932,0.543C12.831,49.42,12.718,49.359,12.688,49.252L12.688,49.252z"/>
			<path fill="#D1D1D1" d="M12.958,50.438c-0.043-0.105,0.004-0.225,0.113-0.27l1.84-0.797c0.107-0.047,0.229,0,0.274,0.102l0,0
				c0.044,0.102-0.009,0.219-0.113,0.266l-1.843,0.799C13.123,50.582,13.002,50.537,12.958,50.438L12.958,50.438z"/>
			<path fill="#D1D1D1" d="M13.591,51.668c-0.056-0.094-0.024-0.221,0.078-0.283l1.719-1.033c0.099-0.059,0.227-0.029,0.285,0.068
				l0,0c0.057,0.092,0.021,0.217-0.076,0.277l-1.722,1.033C13.775,51.791,13.648,51.764,13.591,51.668L13.591,51.668z"/>
			<path fill="#D1D1D1" d="M17.207,57.598c-0.076-0.082-0.07-0.211,0.017-0.291l1.463-1.373c0.084-0.08,0.215-0.078,0.292,0.004l0,0
				c0.076,0.082,0.067,0.209-0.017,0.291L17.497,57.6C17.412,57.676,17.282,57.676,17.207,57.598L17.207,57.598z"/>
			<path fill="#D1D1D1" d="M17.782,58.367c-0.087-0.068-0.1-0.197-0.025-0.289l1.242-1.576c0.071-0.088,0.201-0.107,0.288-0.041l0,0
				c0.088,0.074,0.098,0.201,0.028,0.293l-1.244,1.574C17.999,58.422,17.871,58.438,17.782,58.367L17.782,58.367z"/>
			<path fill="#D1D1D1" d="M18.589,58.871c-0.094-0.061-0.117-0.189-0.053-0.285l1.104-1.676c0.063-0.098,0.191-0.125,0.285-0.064
				l0,0c0.093,0.061,0.114,0.189,0.05,0.285l-1.104,1.676C18.808,58.904,18.682,58.932,18.589,58.871L18.589,58.871z"/>
			<path fill="#D1D1D1" d="M19.247,59.299c-0.094-0.061-0.119-0.188-0.052-0.287l1.103-1.678c0.064-0.094,0.191-0.121,0.285-0.061
				l0,0c0.094,0.061,0.114,0.189,0.051,0.283l-1.105,1.676C19.465,59.332,19.339,59.361,19.247,59.299L19.247,59.299z"/>
			<path fill="#D1D1D1" d="M24.58,61.486c-0.108-0.027-0.176-0.137-0.147-0.252l0.455-1.955c0.025-0.111,0.138-0.182,0.246-0.156
				l0,0c0.108,0.025,0.173,0.137,0.147,0.25l-0.458,1.953C24.796,61.439,24.688,61.51,24.58,61.486L24.58,61.486z"/>
			<path fill="#D1D1D1" d="M25.467,61.662c-0.111-0.014-0.19-0.113-0.177-0.232l0.222-1.994c0.012-0.115,0.113-0.195,0.224-0.186
				l0,0c0.11,0.014,0.188,0.117,0.177,0.232l-0.224,1.994C25.677,61.59,25.577,61.676,25.467,61.662L25.467,61.662z"/>
			<path fill="#D1D1D1" d="M26.317,61.674c-0.11-0.008-0.195-0.109-0.186-0.227l0.153-1.998c0.011-0.115,0.107-0.201,0.221-0.197
				l0,0c0.108,0.01,0.19,0.111,0.183,0.229l-0.156,2.002C26.524,61.6,26.429,61.684,26.317,61.674L26.317,61.674z"/>
			<path fill="#D1D1D1" d="M21.64,30.575c0.082,0.076,0.086,0.205,0.008,0.292l-1.356,1.48c-0.077,0.086-0.208,0.092-0.29,0.018l0,0
				c-0.082-0.073-0.084-0.205-0.006-0.289l1.355-1.48C21.43,30.508,21.558,30.5,21.64,30.575L21.64,30.575z"/>
			<path fill="#D1D1D1" d="M22.726,31.625c0.061,0.094,0.033,0.222-0.063,0.284l-1.675,1.108c-0.096,0.064-0.225,0.041-0.286-0.052
				l0,0c-0.062-0.092-0.032-0.22,0.064-0.283l1.673-1.107C22.537,31.512,22.664,31.534,22.726,31.625L22.726,31.625z"/>
			<path fill="#D1D1D1" d="M23.298,33.146c0.041,0.104-0.014,0.221-0.124,0.263l-1.876,0.714c-0.107,0.042-0.229-0.011-0.267-0.113
				l0,0c-0.04-0.104,0.017-0.223,0.124-0.263l1.875-0.714C23.141,32.993,23.259,33.042,23.298,33.146L23.298,33.146z"/>
			<path fill="#D1D1D1" d="M23.024,38.345c0.003,0.111-0.089,0.203-0.205,0.207l-2.006,0.041c-0.117,0.002-0.213-0.088-0.215-0.197
				l0,0c-0.002-0.112,0.091-0.204,0.206-0.205l2.007-0.042C22.929,38.149,23.023,38.236,23.024,38.345L23.024,38.345z"/>
			<path fill="#D1D1D1" d="M22.98,39.398c0.003,0.109-0.089,0.201-0.205,0.205l-2.006,0.041c-0.116,0.002-0.212-0.086-0.214-0.197
				l0,0c-0.002-0.112,0.09-0.202,0.207-0.204l2.006-0.043C22.886,39.2,22.979,39.287,22.98,39.398L22.98,39.398z"/>
			<path fill="#D1D1D1" d="M24.192,46.475c0.047,0.1,0.004,0.221-0.1,0.271l-1.81,0.871c-0.104,0.051-0.229,0.01-0.276-0.092l0,0
				c-0.049-0.1-0.002-0.221,0.102-0.27l1.809-0.875C24.022,46.334,24.146,46.373,24.192,46.475L24.192,46.475z"/>
			<path fill="#D1D1D1" d="M24.526,47.15c0.062,0.092,0.035,0.221-0.062,0.281l-1.673,1.111c-0.097,0.064-0.226,0.041-0.285-0.051
				l0,0c-0.063-0.094-0.033-0.219,0.063-0.283l1.671-1.111C24.339,47.035,24.466,47.057,24.526,47.15L24.526,47.15z"/>
			<path fill="#D1D1D1" d="M24.954,47.955c0.079,0.074,0.081,0.207,0,0.289l-1.395,1.447c-0.078,0.082-0.209,0.088-0.291,0.01l0,0
				c-0.078-0.08-0.076-0.207,0.004-0.287l1.391-1.451C24.745,47.883,24.875,47.875,24.954,47.955L24.954,47.955z"/>
			<path fill="#D1D1D1" d="M29.265,51.131c0.105,0.041,0.158,0.16,0.117,0.27l-0.706,1.879c-0.04,0.107-0.159,0.164-0.263,0.129l0,0
				c-0.104-0.043-0.154-0.162-0.113-0.271l0.704-1.877C29.047,51.15,29.161,51.094,29.265,51.131L29.265,51.131z"/>
			<path fill="#D1D1D1" d="M30.399,51.361c0.104,0.041,0.154,0.162,0.11,0.27l-0.741,1.865c-0.043,0.107-0.162,0.162-0.265,0.119
				l0,0c-0.104-0.039-0.151-0.16-0.108-0.266l0.74-1.867C30.181,51.375,30.298,51.32,30.399,51.361L30.399,51.361z"/>
			<path fill="#D1D1D1" d="M31.757,51.768c0.1,0.049,0.141,0.176,0.087,0.279l-0.9,1.793c-0.05,0.104-0.175,0.146-0.275,0.096l0,0
				c-0.099-0.049-0.135-0.174-0.083-0.275l0.898-1.797C31.537,51.762,31.659,51.721,31.757,51.768L31.757,51.768z"/>
			<path fill="#D1D1D1" d="M34.922,53.486c0.077,0.08,0.071,0.209-0.015,0.289l-1.465,1.373c-0.083,0.078-0.215,0.076-0.291-0.004
				l0,0c-0.075-0.08-0.067-0.211,0.017-0.289l1.466-1.375C34.719,53.404,34.847,53.406,34.922,53.486L34.922,53.486z"/>
			<path fill="#D1D1D1" d="M35.674,54.572c0.062,0.096,0.03,0.221-0.069,0.281l-1.699,1.068c-0.097,0.063-0.226,0.035-0.285-0.059
				l0,0c-0.059-0.096-0.025-0.219,0.072-0.279l1.7-1.07C35.491,54.455,35.616,54.48,35.674,54.572L35.674,54.572z"/>
			<path fill="#D1D1D1" d="M36.111,55.984c0.026,0.109-0.045,0.221-0.159,0.242l-1.959,0.441c-0.111,0.023-0.224-0.043-0.25-0.152
				l0,0c-0.021-0.107,0.05-0.215,0.162-0.24l1.959-0.443C35.978,55.809,36.088,55.877,36.111,55.984L36.111,55.984z"/>
			<path fill="#D1D1D1" d="M36.276,57.166c0.007,0.111-0.084,0.207-0.198,0.209l-2.007,0.094c-0.115,0.004-0.213-0.082-0.219-0.195
				l0,0c-0.004-0.109,0.086-0.201,0.201-0.205l2.006-0.094C36.175,56.971,36.272,57.057,36.276,57.166L36.276,57.166z"/>
			<path fill="#D1D1D1" d="M36.01,58.346c-0.022,0.107-0.132,0.178-0.245,0.152l-1.965-0.42c-0.111-0.021-0.186-0.129-0.162-0.238
				l0,0c0.023-0.109,0.135-0.178,0.245-0.15l1.966,0.416C35.961,58.131,36.034,58.236,36.01,58.346L36.01,58.346z"/>
			<path fill="#D1D1D1" d="M35.327,59.346c-0.045,0.102-0.17,0.146-0.273,0.096l-1.822-0.846c-0.105-0.049-0.152-0.168-0.105-0.27
				l0,0c0.047-0.102,0.17-0.143,0.273-0.094l1.824,0.846C35.326,59.125,35.374,59.248,35.327,59.346L35.327,59.346z"/>
			<path fill="#D1D1D1" d="M34.048,60.299c-0.072,0.088-0.203,0.092-0.287,0.01l-1.481-1.355c-0.085-0.076-0.095-0.209-0.019-0.289
				l0,0c0.075-0.08,0.207-0.084,0.289-0.004l1.482,1.352C34.116,60.094,34.125,60.221,34.048,60.299L34.048,60.299z"/>
			<path fill="#D1D1D1" d="M22.942,40.398c0.003,0.112-0.088,0.204-0.205,0.208l-2.006,0.041c-0.117,0.002-0.211-0.086-0.214-0.198
				l0,0c-0.002-0.112,0.089-0.203,0.207-0.205l2.007-0.042C22.847,40.202,22.942,40.289,22.942,40.398L22.942,40.398z"/>
			<path fill="#D1D1D1" d="M14.329,36.899c1.311-3.783,3.378-6.19,5.693-5.664c2.315,0.525,2.354,1.542,1.871,6.614
				c-0.844,8.893,3.338,13.307,7.19,14.124c5.483,1.162,6.632,3.234,6.182,5.523c-0.45,2.291-3.419,2.904-7.813,2.77
				C14.348,59.865,11.739,44.365,14.329,36.899z"/>
			<path fill="#827F7F" d="M31.773,58.629c-1.063,0.221-2.464,0.301-4.28,0.242c-4.098-0.123-7.322-1.854-9.586-5.139
				c-3.305-4.797-3.747-12.096-2.264-16.376c0.935-2.693,2.262-4.521,3.465-4.771c0.2-0.041,0.398-0.039,0.605,0.007
				c1.11,0.252,1.254,0.285,0.795,5.126c-0.891,9.386,3.52,14.609,8.286,15.617c5.634,1.195,5.264,3.088,5.104,3.893
				C33.845,57.498,33.703,58.225,31.773,58.629z"/>
			<path fill="#C99E48" d="M19.372,39.55c0.197,0.517-0.727,0.277-1.625,0.619c-0.896,0.34-1.48,1.553-1.623,0.62
				c-0.084-0.549,0.871-1.568,1.769-1.91S19.175,39.033,19.372,39.55z"/>
			
				<ellipse transform="matrix(0.9787 -0.2053 0.2053 0.9787 -7.173 4.3645)" fill="#C99E48" cx="17.45" cy="36.755" rx="0.431" ry="1.068"/>
			
				<ellipse transform="matrix(-0.6295 0.777 -0.777 -0.6295 60.322 44.1542)" fill="#C99E48" cx="19.634" cy="36.459" rx="1.089" ry="0.48"/>
			
				<ellipse transform="matrix(0.9792 -0.2029 0.2029 0.9792 -7.077 4.6986)" fill="#D1D1D1" cx="19.381" cy="36.871" rx="0.306" ry="0.326"/>
			
				<ellipse transform="matrix(0.9792 -0.2029 0.2029 0.9792 -7.1923 4.3356)" fill="#D1D1D1" cx="17.553" cy="37.252" rx="0.306" ry="0.327"/>
		</g>
		<g>
			<path fill="#D1D1D1" d="M65.263,33.704c0.077,0.062,0.088,0.173,0.025,0.252l-1.093,1.369c-0.063,0.079-0.175,0.094-0.251,0.032
				l0,0c-0.076-0.06-0.086-0.173-0.021-0.252l1.09-1.367C65.076,33.657,65.188,33.642,65.263,33.704L65.263,33.704z"/>
			<path fill="#D1D1D1" d="M63.995,33.277c0.093,0.031,0.142,0.132,0.112,0.229l-0.538,1.666c-0.029,0.096-0.13,0.149-0.221,0.119
				l0,0c-0.095-0.029-0.142-0.132-0.112-0.229l0.534-1.664C63.804,33.3,63.903,33.247,63.995,33.277L63.995,33.277z"/>
			<path fill="#D1D1D1" d="M62.563,33.321c0.096,0.003,0.175,0.086,0.169,0.19l-0.054,1.747c-0.004,0.103-0.086,0.18-0.184,0.176
				l0,0c-0.097-0.002-0.172-0.086-0.169-0.187l0.056-1.749C62.386,33.398,62.465,33.317,62.563,33.321L62.563,33.321z"/>
			<path fill="#D1D1D1" d="M61.563,33.653c0.097-0.007,0.181,0.068,0.188,0.171l0.124,1.745c0.009,0.102-0.065,0.189-0.161,0.196
				l0,0c-0.1,0.006-0.182-0.07-0.188-0.171L61.4,33.849C61.394,33.747,61.464,33.661,61.563,33.653L61.563,33.653z"/>
			<path fill="#D1D1D1" d="M66.354,34.711c0.047,0.086,0.013,0.194-0.077,0.242l-1.543,0.826c-0.089,0.049-0.199,0.018-0.245-0.068
				l0,0c-0.046-0.085-0.012-0.192,0.079-0.241l1.542-0.825C66.201,34.596,66.308,34.626,66.354,34.711L66.354,34.711z"/>
			<path fill="#D1D1D1" d="M66.943,35.889c0.022,0.094-0.036,0.191-0.135,0.215l-1.696,0.43c-0.099,0.025-0.196-0.032-0.221-0.126
				l0,0c-0.023-0.094,0.037-0.19,0.135-0.214l1.696-0.431C66.823,35.74,66.919,35.796,66.943,35.889L66.943,35.889z"/>
			<path fill="#D1D1D1" d="M66.978,37.303c0.001,0.1-0.076,0.179-0.178,0.182l-1.75,0.047c-0.101,0.004-0.186-0.075-0.188-0.171l0,0
				c-0.001-0.097,0.077-0.176,0.18-0.18l1.749-0.047C66.891,37.132,66.976,37.208,66.978,37.303L66.978,37.303z"/>
			<path fill="#D1D1D1" d="M66.499,38.588c-0.013,0.095-0.105,0.163-0.204,0.149L64.561,38.5c-0.102-0.015-0.172-0.102-0.159-0.198
				l0,0c0.013-0.098,0.106-0.162,0.206-0.149l1.734,0.237C66.443,38.403,66.513,38.493,66.499,38.588L66.499,38.588z"/>
			<path fill="#D1D1D1" d="M66.044,39.7c-0.019,0.096-0.117,0.155-0.214,0.132l-1.711-0.385c-0.096-0.022-0.16-0.117-0.138-0.213
				l0,0c0.021-0.094,0.117-0.151,0.216-0.129l1.708,0.383C66.004,39.513,66.066,39.607,66.044,39.7L66.044,39.7z"/>
			<path fill="#D1D1D1" d="M65.744,40.68c-0.03,0.09-0.132,0.141-0.229,0.111l-1.662-0.547c-0.097-0.031-0.149-0.132-0.12-0.224l0,0
				c0.03-0.092,0.135-0.14,0.229-0.109l1.664,0.545C65.723,40.49,65.774,40.588,65.744,40.68L65.744,40.68z"/>
			<path fill="#D1D1D1" d="M65.25,41.506c-0.03,0.092-0.131,0.141-0.227,0.109l-1.665-0.547c-0.094-0.027-0.149-0.129-0.118-0.225
				l0,0c0.03-0.092,0.135-0.139,0.23-0.105l1.661,0.545C65.228,41.314,65.281,41.412,65.25,41.506L65.25,41.506z"/>
			<path fill="#D1D1D1" d="M64.911,42.359c-0.028,0.09-0.129,0.143-0.228,0.109l-1.663-0.547c-0.098-0.031-0.148-0.131-0.118-0.223
				l0,0c0.029-0.092,0.132-0.141,0.229-0.109l1.662,0.549C64.89,42.166,64.942,42.266,64.911,42.359L64.911,42.359z"/>
			<path fill="#D1D1D1" d="M64.318,44.15c-0.023,0.094-0.123,0.152-0.22,0.127l-1.698-0.43c-0.098-0.023-0.158-0.121-0.133-0.217
				l0,0c0.022-0.094,0.121-0.148,0.22-0.123l1.695,0.428C64.282,43.963,64.341,44.059,64.318,44.15L64.318,44.15z"/>
			<path fill="#D1D1D1" d="M64.047,44.883c-0.021,0.092-0.114,0.154-0.214,0.133l-1.716-0.348c-0.097-0.02-0.163-0.115-0.144-0.209
				l0,0c0.019-0.098,0.115-0.154,0.215-0.135l1.715,0.348C64.001,44.693,64.066,44.787,64.047,44.883L64.047,44.883z"/>
			<path fill="#D1D1D1" d="M63.925,45.801c-0.009,0.096-0.093,0.172-0.195,0.162l-1.744-0.123c-0.101-0.006-0.18-0.092-0.172-0.188
				l0,0c0.008-0.098,0.094-0.17,0.196-0.16l1.746,0.121C63.856,45.623,63.93,45.705,63.925,45.801L63.925,45.801z"/>
			<path fill="#D1D1D1" d="M63.774,46.855c0.002,0.096-0.078,0.176-0.179,0.18l-1.75,0.029c-0.1,0-0.185-0.076-0.186-0.176l0,0
				c-0.003-0.096,0.078-0.174,0.18-0.176l1.751-0.033C63.692,46.68,63.774,46.758,63.774,46.855L63.774,46.855z"/>
			<path fill="#D1D1D1" d="M63.816,47.742c0.011,0.096-0.061,0.184-0.163,0.193l-1.738,0.195c-0.099,0.014-0.191-0.057-0.201-0.15
				l0,0c-0.012-0.098,0.062-0.184,0.162-0.195l1.74-0.197C63.717,47.578,63.806,47.645,63.816,47.742L63.816,47.742z"/>
			<path fill="#D1D1D1" d="M63.867,48.529c0.011,0.098-0.062,0.184-0.164,0.197l-1.738,0.191c-0.099,0.014-0.191-0.055-0.201-0.152
				l0,0c-0.012-0.098,0.063-0.184,0.163-0.193l1.738-0.197C63.767,48.367,63.856,48.436,63.867,48.529L63.867,48.529z"/>
			<path fill="#D1D1D1" d="M63.949,49.186c0.022,0.094-0.037,0.188-0.136,0.211l-1.696,0.432c-0.096,0.025-0.194-0.027-0.221-0.123
				l0,0c-0.023-0.098,0.037-0.191,0.133-0.219l1.698-0.43C63.825,49.035,63.924,49.088,63.949,49.186L63.949,49.186z"/>
			<path fill="#D1D1D1" d="M64.066,49.967c0.042,0.09,0.007,0.195-0.084,0.238l-1.563,0.791c-0.09,0.043-0.2,0.008-0.243-0.076l0,0
				c-0.042-0.088-0.006-0.191,0.085-0.238l1.563-0.787C63.916,49.85,64.023,49.881,64.066,49.967L64.066,49.967z"/>
			<path fill="#D1D1D1" d="M64.453,50.869c0.044,0.086,0.008,0.193-0.083,0.238l-1.562,0.789c-0.093,0.043-0.201,0.01-0.246-0.076
				l0,0c-0.04-0.086-0.005-0.191,0.086-0.238l1.563-0.789C64.303,50.748,64.41,50.781,64.453,50.869L64.453,50.869z"/>
			<path fill="#D1D1D1" d="M64.814,51.705c0.053,0.082,0.028,0.191-0.055,0.244l-1.458,0.971c-0.083,0.057-0.197,0.033-0.251-0.043
				l0,0c-0.054-0.082-0.027-0.193,0.057-0.248l1.457-0.975C64.649,51.604,64.761,51.621,64.814,51.705L64.814,51.705z"/>
			<path fill="#D1D1D1" d="M65.382,52.461c0.062,0.076,0.049,0.189-0.029,0.248l-1.351,1.117c-0.077,0.064-0.192,0.057-0.253-0.018
				l0,0c-0.061-0.074-0.046-0.186,0.03-0.25l1.35-1.117C65.207,52.381,65.319,52.385,65.382,52.461L65.382,52.461z"/>
			<path fill="#D1D1D1" d="M65.985,53.318c0.067,0.068,0.063,0.182-0.009,0.25l-1.26,1.215c-0.071,0.072-0.186,0.07-0.253,0l0,0
				c-0.067-0.068-0.063-0.18,0.011-0.25l1.258-1.217C65.806,53.246,65.918,53.246,65.985,53.318L65.985,53.318z"/>
			<path fill="#D1D1D1" d="M66.695,53.828c0.077,0.061,0.084,0.176,0.019,0.252l-1.122,1.342c-0.064,0.08-0.178,0.09-0.251,0.031
				l0,0c-0.076-0.064-0.081-0.176-0.018-0.254l1.122-1.342C66.512,53.777,66.623,53.766,66.695,53.828L66.695,53.828z"/>
			<path fill="#D1D1D1" d="M67.563,54.346c0.073,0.063,0.08,0.176,0.014,0.25l-1.149,1.322c-0.064,0.076-0.18,0.086-0.251,0.023l0,0
				c-0.072-0.064-0.079-0.18-0.012-0.252l1.146-1.322C67.381,54.293,67.491,54.279,67.563,54.346L67.563,54.346z"/>
			<path fill="#D1D1D1" d="M49.701,54.793c-0.014,0.096-0.105,0.164-0.204,0.148l-1.734-0.238c-0.101-0.016-0.17-0.107-0.158-0.201
				l0,0c0.015-0.094,0.107-0.162,0.206-0.146l1.734,0.24C49.646,54.609,49.717,54.695,49.701,54.793L49.701,54.793z"/>
			<path fill="#D1D1D1" d="M50.033,54.064c-0.032,0.088-0.138,0.137-0.231,0.098l-1.641-0.611c-0.094-0.035-0.144-0.139-0.112-0.229
				l0,0c0.037-0.094,0.141-0.137,0.235-0.1l1.642,0.611C50.019,53.869,50.068,53.973,50.033,54.064L50.033,54.064z"/>
			<path fill="#D1D1D1" d="M50.153,53.33c-0.048,0.084-0.159,0.113-0.245,0.061l-1.514-0.877c-0.088-0.053-0.119-0.16-0.072-0.246
				l0,0c0.051-0.082,0.16-0.109,0.249-0.059l1.515,0.881C50.17,53.139,50.203,53.246,50.153,53.33L50.153,53.33z"/>
			<path fill="#D1D1D1" d="M49.56,55.688c0.008,0.096-0.067,0.184-0.168,0.189l-1.746,0.137c-0.101,0.012-0.19-0.063-0.195-0.158
				l0,0c-0.009-0.096,0.068-0.18,0.168-0.188l1.744-0.139C49.463,55.521,49.553,55.592,49.56,55.688L49.56,55.688z"/>
			<path fill="#D1D1D1" d="M49.644,56.305c0.032,0.09-0.018,0.191-0.112,0.227l-1.647,0.592c-0.095,0.035-0.199-0.014-0.231-0.104
				l0,0c-0.033-0.094,0.018-0.191,0.112-0.227l1.649-0.594C49.509,56.17,49.611,56.213,49.644,56.305L49.644,56.305z"/>
			<path fill="#D1D1D1" d="M68.563,55.072c0.068,0.066,0.065,0.182-0.009,0.248l-1.259,1.219c-0.072,0.07-0.185,0.07-0.254,0.002
				l0,0c-0.066-0.07-0.061-0.184,0.011-0.254l1.258-1.215C68.385,55.002,68.496,55,68.563,55.072L68.563,55.072z"/>
			<path fill="#D1D1D1" d="M69.272,55.803c0.061,0.074,0.047,0.188-0.033,0.25l-1.37,1.094c-0.079,0.059-0.19,0.049-0.252-0.027l0,0
				c-0.06-0.074-0.044-0.189,0.034-0.248l1.37-1.094C69.103,55.717,69.212,55.727,69.272,55.803L69.272,55.803z"/>
			<path fill="#D1D1D1" d="M70.064,56.578c0.051,0.082,0.021,0.189-0.068,0.244l-1.512,0.883c-0.085,0.051-0.195,0.023-0.247-0.057
				l0,0c-0.047-0.086-0.015-0.195,0.072-0.246l1.509-0.887C69.905,56.467,70.016,56.492,70.064,56.578L70.064,56.578z"/>
			<path fill="#D1D1D1" d="M70.673,57.396c0.04,0.088-0.002,0.191-0.095,0.234l-1.602,0.709c-0.092,0.039-0.2-0.002-0.24-0.09l0,0
				c-0.038-0.086,0.005-0.191,0.098-0.232l1.602-0.707C70.53,57.27,70.633,57.307,70.673,57.396L70.673,57.396z"/>
			<path fill="#D1D1D1" d="M70.977,58.508c0.023,0.094-0.038,0.191-0.137,0.213l-1.708,0.387c-0.097,0.025-0.193-0.037-0.216-0.131
				l0,0c-0.021-0.094,0.041-0.188,0.139-0.207l1.707-0.391C70.861,58.359,70.958,58.414,70.977,58.508L70.977,58.508z"/>
			<path fill="#D1D1D1" d="M70.93,59.797c-0.009,0.094-0.1,0.164-0.2,0.15l-1.739-0.203c-0.1-0.01-0.173-0.1-0.161-0.195l0,0
				c0.012-0.096,0.102-0.162,0.201-0.15l1.741,0.201C70.871,59.613,70.941,59.701,70.93,59.797L70.93,59.797z"/>
			<path fill="#D1D1D1" d="M70.725,60.814c-0.025,0.096-0.126,0.146-0.225,0.117l-1.678-0.504c-0.096-0.029-0.15-0.129-0.124-0.221
				l0,0c0.028-0.094,0.131-0.143,0.226-0.113l1.677,0.502C70.699,60.623,70.752,60.723,70.725,60.814L70.725,60.814z"/>
			<path fill="#D1D1D1" d="M70.165,61.707c-0.049,0.084-0.16,0.111-0.246,0.055l-1.495-0.912c-0.086-0.049-0.116-0.16-0.064-0.24
				l0,0c0.051-0.082,0.161-0.107,0.246-0.055l1.496,0.908C70.188,61.52,70.218,61.625,70.165,61.707L70.165,61.707z"/>
			<path fill="#D1D1D1" d="M69.314,62.336c-0.068,0.07-0.181,0.072-0.253-0.002l-1.256-1.221c-0.071-0.068-0.076-0.182-0.009-0.254
				l0,0c0.068-0.068,0.182-0.064,0.254,0.006l1.257,1.219C69.378,62.154,69.382,62.266,69.314,62.336L69.314,62.336z"/>
			<path fill="#D1D1D1" d="M67.988,62.754c-0.085,0.047-0.194,0.012-0.241-0.078l-0.828-1.543c-0.047-0.088-0.015-0.197,0.069-0.242
				l0,0c0.087-0.047,0.192-0.012,0.241,0.076l0.826,1.545C68.104,62.6,68.072,62.709,67.988,62.754L67.988,62.754z"/>
			<path fill="#D1D1D1" d="M66.996,62.941c-0.089,0.033-0.195-0.016-0.228-0.111l-0.603-1.643c-0.034-0.096,0.013-0.201,0.103-0.232
				l0,0c0.092-0.035,0.195,0.018,0.226,0.111l0.604,1.645C67.13,62.805,67.086,62.904,66.996,62.941L66.996,62.941z"/>
			<path fill="#D1D1D1" d="M64.593,43.17c-0.03,0.094-0.132,0.143-0.229,0.109l-1.662-0.545c-0.098-0.029-0.15-0.129-0.12-0.223l0,0
				c0.03-0.094,0.134-0.141,0.229-0.109l1.664,0.547C64.57,42.98,64.623,43.078,64.593,43.17L64.593,43.17z"/>
			<path fill="#D1D1D1" d="M58.514,37.805c1.983-2.873,4.564-4.118,6.319-3.019c1.753,1.102,1.492,1.95-0.369,5.983
				c-3.26,7.074-1.094,11.912,1.842,13.697c4.176,2.537,4.524,4.574,3.493,6.33c-1.032,1.752-6.854,0.42-9.479,0.313
				c-9.672-0.404-12.717-2.473-11.255-6.666C50.965,49.002,56.184,41.182,58.514,37.805z"/>
			<path fill="#C99E48" d="M64.661,60.342c-0.931-0.123-2.741-0.303-4.308-0.354c-5.572-0.182-8.371-0.4-10.193-2.375
				c-2.393-2.596,5.815-12.504,9.435-19.009c1.469-2.636,3.139-3.098,4.189-2.957c0.175,0.023,0.337,0.082,0.491,0.182
				c0.829,0.528,0.936,0.597-0.828,4.479c-3.421,7.528-1.336,13.131,2.251,15.346c4.239,2.617,3.393,4.076,3.032,4.701
				C68.608,60.568,66.344,60.564,64.661,60.342z"/>
			<path fill="#827F7F" d="M60.346,43.732c-0.434,0.992-0.275-0.627-0.694-0.809c-0.417-0.182-1.251,1.143-0.819,0.15
				c0.431-0.99,1.118-1.65,1.537-1.469C60.787,41.785,60.775,42.738,60.346,43.732z"/>
			<path fill="#827F7F" d="M61.043,39.076c-0.375,0.675-0.823,1.143-0.997,1.045c-0.175-0.095-0.012-0.723,0.363-1.399
				c0.376-0.675,0.823-1.143,0.997-1.045C61.581,37.775,61.419,38.399,61.043,39.076z"/>
			
				<ellipse transform="matrix(-0.7488 0.6628 -0.6628 -0.7488 135.0182 28.8188)" fill="#827F7F" cx="62.048" cy="39.993" rx="1.257" ry="0.379"/>
			
				<ellipse transform="matrix(0.9912 0.1325 -0.1325 0.9912 5.7035 -7.702)" fill="#C59A46" cx="60.712" cy="38.997" rx="0.177" ry="0.288"/>
			
				<ellipse transform="matrix(0.8795 0.4759 -0.4759 0.8795 26.4955 -24.6713)" fill="#C59A46" cx="61.963" cy="39.981" rx="0.175" ry="0.288"/>
		</g>
		<ellipse fill="#C99E48" cx="41.538" cy="62.703" rx="2.998" ry="3.26"/>
		<path fill="#D1D1D1" d="M54.472,64.293c0,0.764-0.675,1.383-1.506,1.383c-0.833,0-1.509-0.619-1.509-1.383
			c0-0.76,0.676-1.379,1.509-1.379C53.797,62.914,54.472,63.533,54.472,64.293z"/>
		<ellipse fill="#C99E48" cx="62.63" cy="16.674" rx="1.507" ry="1.382"/>
		<ellipse fill="#827F7F" cx="39.456" cy="48.922" rx="1.507" ry="1.381"/>
		<ellipse fill="#827F7F" cx="18.802" cy="21.518" rx="1.508" ry="1.382"/>
		<ellipse fill="#E7D5AE" cx="67.614" cy="24.385" rx="3.368" ry="3.573"/>
		<path fill="#D1D1D1" d="M27.458,21.519c0,0.41-0.33,0.741-0.74,0.741h-0.691c-0.409,0-0.741-0.331-0.741-0.741v-7.7
			c0-0.408,0.332-0.739,0.741-0.739h0.691c0.41,0,0.74,0.332,0.74,0.739V21.519z"/>
		<path fill="#827F7F" d="M71.891,44.227c-0.16,0.271-0.7,0.248-1.209-0.053l-0.643-0.377c-0.509-0.301-0.791-0.764-0.632-1.035
			l2.207-3.74c0.16-0.271,0.702-0.248,1.21,0.052l0.643,0.378c0.51,0.301,0.79,0.763,0.631,1.034L71.891,44.227z"/>
		<path fill="#D1D1D1" d="M37.967,42.412c0.343,0.35,0.384,0.865,0.092,1.15l-3.927,3.848c-0.292,0.287-0.806,0.234-1.148-0.115
			l-1.148-1.172c-0.343-0.35-0.383-0.865-0.092-1.152l3.928-3.848c0.293-0.285,0.806-0.234,1.149,0.117L37.967,42.412z"/>
		
			<rect x="32.207" y="43.517" transform="matrix(-0.7143 0.6999 -0.6999 -0.7143 90.115 50.9949)" fill="#E7D5AE" width="4.881" height="0.752"/>
	</g>
	<path fill="#D14E4A" d="M81.913,78.004c-1.545-1.463-1.438-1.383-79.875-74.328c0.094-1.109,1.159-1.529,1.159-1.529
		S83.66,76.99,83.714,77.033C83.776,77.113,82.96,78.113,81.913,78.004z"/>
</g>
</svg>
