<?xml version="1.0" encoding="utf-8"?>
<!-- Generator: Adobe Illustrator 16.0.0, SVG Export Plug-In . SVG Version: 6.00 Build 0)  -->
<!DOCTYPE svg PUBLIC "-//W3C//DTD SVG 1.1//EN" "http://www.w3.org/Graphics/SVG/1.1/DTD/svg11.dtd">
<svg version="1.1" id="Layer_1" xmlns="http://www.w3.org/2000/svg" xmlns:xlink="http://www.w3.org/1999/xlink" x="0px" y="0px"
	 width="86px" height="80px" viewBox="0 0 86 80" enable-background="new 0 0 86 80" xml:space="preserve">
<g>
	<g>
		<g>
			<path fill="#F7F2ED" d="M3.999,78.998c-1.654,0-3-1.342-3-2.994V3.994C1,2.343,2.345,1,3.999,1h78C83.652,1,85,2.343,85,3.994
				v72.01c0,1.652-1.348,2.994-3.002,2.994H3.999z"/>
			<path fill="#D1D1D1" d="M81.998,2C83.104,2,84,2.895,84,3.994v72.01c0,1.1-0.896,1.994-2.002,1.994h-78c-1.103,0-2-0.895-2-1.994
				V3.994C2,2.895,2.896,2,3.999,2H81.998 M81.998,0h-78C1.792,0,0,1.792,0,3.994v72.01c0,2.203,1.794,3.994,3.999,3.994h78
				c2.207,0,4.002-1.791,4.002-3.994V3.994C86,1.792,84.205,0,81.998,0L81.998,0z"/>
		</g>
	</g>
</g>
<path fill="#C59A46" d="M34.892,51.357c0,0-13.687-6.502-8.882-17.623c2.629-6.087,4.582-8.293,4.25-11.31
	c0.994,1.131,1.892,5.091,1.561,6.738c0.033,0.233,3.207-3.673,5.414-7.568c0.916-1.615,3.041-8.924,2.711-11.294
	c1.039,0,6.857,5.088,9.213,8.355c1.086,1.508,2.979,6.173,2.979,6.173s0.472-3.912-0.521-6.691
	c0.654,0.662,6.189,5.184,8.174,10.932c1.985,5.751,2.172,12.959-4.252,18.189c-6.423,5.232-5.953,4.1-5.953,4.1
	s4.178-6.67,0.568-14.984c-2.596-5.984-6.805-9-6.805-9s0.946,7.255-3.259,11.31c0.285-1.837,0.14-4.195-1.228-5.984
	c0.234,2.169-1.79,4.548-3.496,6.926C33.614,42.065,31.016,46.551,34.892,51.357z"/>
<g>
	<path fill="#374537" d="M31.883,69.84c-0.264,0.203-0.6,0.344-1.004,0.422c-0.405,0.08-0.836,0.119-1.293,0.119
		c-0.556,0-1.075-0.094-1.56-0.283c-0.483-0.188-0.905-0.477-1.267-0.863c-0.361-0.385-0.647-0.879-0.858-1.479
		c-0.211-0.604-0.317-1.313-0.317-2.143c0-0.857,0.117-1.592,0.351-2.189c0.233-0.605,0.541-1.094,0.925-1.479
		c0.383-0.383,0.813-0.658,1.287-0.838c0.477-0.174,0.959-0.262,1.453-0.262c0.527,0,0.959,0.027,1.294,0.084
		c0.334,0.059,0.621,0.135,0.858,0.23l-0.264,0.977c-0.423-0.213-1.025-0.316-1.81-0.316c-0.361,0-0.718,0.064-1.07,0.197
		c-0.353,0.131-0.666,0.348-0.944,0.646c-0.276,0.299-0.5,0.688-0.666,1.172c-0.168,0.48-0.25,1.076-0.25,1.775
		c0,0.635,0.078,1.188,0.237,1.658c0.158,0.479,0.376,0.871,0.653,1.189c0.277,0.314,0.604,0.555,0.979,0.711
		c0.373,0.158,0.779,0.234,1.221,0.234c0.396,0,0.742-0.037,1.037-0.115s0.543-0.184,0.746-0.307L31.883,69.84z"/>
	<path fill="#374537" d="M38.972,70.223h-5.466v-9.219h1.096v8.244h4.37V70.223z"/>
	<path fill="#374537" d="M44.803,67.668h-3.391l-0.92,2.555h-1.097l3.499-9.365h0.502l3.514,9.365h-1.162L44.803,67.668z
		 M41.766,66.719h2.709l-1.025-2.805l-0.33-1.396h-0.012l-0.33,1.422L41.766,66.719z"/>
	<path fill="#374537" d="M52.309,67.879c0-0.369-0.107-0.67-0.33-0.902c-0.219-0.229-0.494-0.438-0.824-0.619
		c-0.328-0.18-0.688-0.35-1.074-0.508s-0.746-0.35-1.074-0.572c-0.33-0.223-0.604-0.502-0.824-0.83
		c-0.223-0.326-0.33-0.744-0.33-1.258c0-0.719,0.252-1.291,0.754-1.711c0.5-0.422,1.215-0.633,2.141-0.633
		c0.537,0,1.023,0.039,1.465,0.119c0.438,0.078,0.783,0.178,1.031,0.303l-0.332,0.975c-0.201-0.1-0.498-0.191-0.893-0.283
		s-0.834-0.139-1.326-0.139c-0.582,0-1.021,0.133-1.309,0.393c-0.291,0.26-0.438,0.563-0.438,0.914c0,0.344,0.111,0.629,0.33,0.854
		c0.221,0.23,0.496,0.436,0.826,0.611c0.33,0.18,0.688,0.359,1.074,0.533c0.389,0.176,0.746,0.381,1.074,0.611
		c0.33,0.234,0.605,0.514,0.824,0.838c0.223,0.324,0.332,0.729,0.332,1.213c0,0.395-0.072,0.75-0.213,1.064
		c-0.143,0.314-0.348,0.59-0.621,0.814c-0.27,0.229-0.604,0.4-0.988,0.523c-0.389,0.121-0.826,0.188-1.318,0.188
		c-0.66,0-1.205-0.051-1.641-0.148c-0.432-0.104-0.766-0.213-1.004-0.336l0.369-0.977c0.203,0.107,0.502,0.223,0.896,0.326
		c0.396,0.104,0.842,0.156,1.334,0.156c0.291,0,0.563-0.025,0.816-0.086c0.258-0.057,0.479-0.145,0.66-0.271
		c0.188-0.127,0.332-0.289,0.443-0.48C52.252,68.371,52.309,68.143,52.309,67.879z"/>
	<path fill="#374537" d="M59.32,67.879c0-0.369-0.107-0.67-0.33-0.902c-0.221-0.229-0.494-0.438-0.824-0.619
		c-0.332-0.18-0.688-0.35-1.076-0.508s-0.744-0.35-1.074-0.572c-0.33-0.221-0.604-0.502-0.826-0.83
		c-0.219-0.326-0.328-0.744-0.328-1.258c0-0.719,0.25-1.291,0.752-1.711c0.504-0.422,1.217-0.633,2.143-0.633
		c0.537,0,1.021,0.039,1.467,0.119c0.438,0.078,0.781,0.178,1.029,0.303l-0.332,0.975c-0.201-0.1-0.5-0.191-0.893-0.283
		c-0.395-0.092-0.836-0.139-1.324-0.139c-0.582,0-1.021,0.133-1.313,0.393c-0.289,0.26-0.438,0.563-0.438,0.914
		c0,0.344,0.111,0.629,0.33,0.854c0.223,0.23,0.496,0.436,0.826,0.611c0.328,0.18,0.688,0.359,1.076,0.533
		c0.387,0.176,0.746,0.381,1.074,0.611c0.33,0.234,0.605,0.514,0.824,0.838c0.223,0.324,0.33,0.729,0.33,1.213
		c0,0.395-0.068,0.75-0.211,1.064c-0.145,0.314-0.352,0.59-0.621,0.814c-0.271,0.229-0.604,0.4-0.986,0.523
		c-0.391,0.121-0.828,0.188-1.322,0.188c-0.66,0-1.205-0.051-1.639-0.148c-0.432-0.104-0.766-0.213-1.004-0.336l0.371-0.977
		c0.201,0.107,0.5,0.223,0.896,0.326c0.395,0.104,0.842,0.156,1.334,0.156c0.291,0,0.563-0.025,0.814-0.086
		c0.258-0.057,0.48-0.145,0.66-0.271c0.188-0.127,0.332-0.289,0.441-0.48C59.266,68.371,59.32,68.143,59.32,67.879z"/>
</g>
</svg>
