<?xml version="1.0" encoding="utf-8"?>
<!-- Generator: Adobe Illustrator 16.0.0, SVG Export Plug-In . SVG Version: 6.00 Build 0)  -->
<!DOCTYPE svg PUBLIC "-//W3C//DTD SVG 1.1//EN" "http://www.w3.org/Graphics/SVG/1.1/DTD/svg11.dtd">
<svg version="1.1" id="Layer_1" xmlns="http://www.w3.org/2000/svg" xmlns:xlink="http://www.w3.org/1999/xlink" x="0px" y="0px"
	 width="86px" height="80px" viewBox="0 0 86 80" enable-background="new 0 0 86 80" xml:space="preserve">
<g>
	<g>
		<g>
			<path fill="#F7F2ED" d="M85.998,75.148c0,2.68-2.182,4.85-4.863,4.85H4.859C2.172,79.998,0,77.826,0,75.148V4.847
				c0-2.679,2.174-4.851,4.859-4.851h76.275c2.684,0,4.863,2.17,4.863,4.851V75.148L85.998,75.148z"/>
		</g>
		<g>
			<g>
				<path fill="#D1D1D1" d="M81.135,1.996c1.578,0,2.863,1.279,2.863,2.851v70.302c0,1.572-1.285,2.852-2.863,2.852H4.859
					C3.283,78,2,76.721,2,75.148V4.847c0-1.57,1.283-2.851,2.859-2.851H81.135 M81.135-0.004H4.859C2.172-0.004,0,2.168,0,4.847
					v70.302C0,77.828,2.174,80,4.859,80h76.275c2.682,0,4.863-2.17,4.863-4.852V4.847C85.998,2.168,83.818-0.004,81.135-0.004
					L81.135-0.004z"/>
			</g>
		</g>
	</g>
	<g>
		<rect x="2.054" y="55.304" fill="#E5BB70" width="81.892" height="7.016"/>
	</g>
	<g>
		<path fill="#C99E48" d="M46.742,51.324c0-3.537,2.057-6.402,4.596-6.402c1.655,0,3.103,1.221,3.912,3.047
			c-0.284-8.054-5.961-14.481-12.939-14.481c-6.829,0-12.415,6.16-12.914,13.975c0.839-1.541,2.164-2.54,3.66-2.54
			c2.541,0,4.601,2.865,4.601,6.402c0,2.432-0.972,4.545-2.405,5.63c1.745,0.222,4.058,0.402,6.989,0.402
			c2.866,0,5.167-0.173,6.923-0.388C47.723,55.889,46.742,53.768,46.742,51.324z"/>
		<path fill="#D1D1D1" d="M53.807,21.009c-1.503,0-2.769,1.062-3.241,2.532c-2.047-2.352-5.054-3.846-8.414-3.846
			c-3.654,0-6.888,1.762-8.925,4.474c-0.271-1.791-1.679-3.16-3.389-3.16c-1.904,0-3.447,1.693-3.447,3.78
			c0,2.08,1.543,3.773,3.447,3.773c0.534,0,1.033-0.144,1.484-0.381c-0.212,0.86-0.337,1.754-0.337,2.679
			c0,6.169,4.999,11.166,11.168,11.166c6.161,0,11.161-4.997,11.161-11.166c0-0.823-0.096-1.624-0.265-2.396
			c0.245,0.061,0.497,0.099,0.759,0.099c1.902,0,3.447-1.693,3.447-3.773C57.254,22.702,55.709,21.009,53.807,21.009z"/>
		<path fill="#585959" d="M46.911,31.356c0,1.175-0.514,2.131-1.151,2.131c-0.635,0-1.153-0.956-1.153-2.131
			c0-1.182,0.519-2.138,1.153-2.138C46.397,29.219,46.911,30.175,46.911,31.356z"/>
		<path fill="#585959" d="M39.522,31.356c0,1.175-0.517,2.131-1.151,2.131c-0.632,0-1.148-0.956-1.148-2.131
			c0-1.182,0.517-2.138,1.148-2.138C39.005,29.219,39.522,30.175,39.522,31.356z"/>
		<path fill="#FFFFFF" d="M47.729,34.799c0,1.997-2.5,3.613-5.583,3.613c-3.083,0-5.585-1.616-5.585-3.613
			c0-1.999,2.502-3.614,5.585-3.614C45.229,31.185,47.729,32.8,47.729,34.799z"/>
		<path fill="#585959" d="M42.311,33.487c1.179,0,2.131,0.517,2.131,1.154c0,0.63-0.952,1.146-2.131,1.146
			c-1.174,0-2.131-0.517-2.131-1.146C40.18,34.004,41.137,33.487,42.311,33.487z"/>
		<rect x="41.992" y="35.707" fill="#585959" width="0.75" height="2.676"/>
		<ellipse fill="#FFFFFF" cx="53.982" cy="24.715" rx="1.965" ry="2.132"/>
		<ellipse fill="#FFFFFF" cx="29.829" cy="24.715" rx="1.963" ry="2.132"/>
		<g>
			<ellipse fill="#D1D1D1" cx="51.34" cy="51.324" rx="4.598" ry="6.405"/>
			<path fill="#FFFFFF" d="M54.361,52.006c0,2.404-1.293,4.348-2.885,4.348s-2.885-1.943-2.885-4.348
				c0-2.402,1.293-4.346,2.885-4.346S54.361,49.604,54.361,52.006z"/>
		</g>
		<path fill="#D1D1D1" d="M37.658,51.324c0,3.54-2.06,6.405-4.601,6.405c-2.539,0-4.596-2.865-4.596-6.405
			c0-3.537,2.057-6.402,4.596-6.402C35.598,44.922,37.658,47.787,37.658,51.324z"/>
		<path fill="#FFFFFF" d="M35.89,52.006c0,2.404-1.295,4.348-2.884,4.348c-1.592,0-2.885-1.943-2.885-4.348
			c0-2.402,1.293-4.346,2.885-4.346C34.595,47.66,35.89,49.604,35.89,52.006z"/>
		<path fill="#D1D1D1" d="M32.916,38.207l-6.063-4.299c-1.781-1.265-4.128-1.024-5.242,0.542c-1.107,1.565-0.569,3.861,1.214,5.128
			l6.194,4.397c0.268,0.19,0.551,0.336,0.839,0.459C30.439,42.067,31.501,39.943,32.916,38.207z"/>
		<path fill="#D1D1D1" d="M62.467,34.979c-1.025-1.624-3.293-2.046-5.064-0.927l-5.999,3.778c1.474,1.691,2.601,3.788,3.249,6.139
			c0.104-0.054,0.21-0.095,0.311-0.157l6.148-3.873C62.881,38.825,63.49,36.605,62.467,34.979z"/>
	</g>
	<g>
		<path fill="#C99E48" d="M77.021,52.88c0,0.737-0.598,1.334-1.334,1.334h-7.666c-0.736,0-1.334-0.597-1.334-1.334l0,0
			c0-0.736,0.598-1.333,1.334-1.333h7.666C76.424,51.547,77.021,52.144,77.021,52.88L77.021,52.88z"/>
		<path fill="#C99E48" d="M76.021,49.838c0,0.6-0.482,1.084-1.076,1.084h-6.182c-0.594,0-1.076-0.484-1.076-1.084l0,0
			c0-0.599,0.482-1.083,1.076-1.083h6.182C75.539,48.755,76.021,49.239,76.021,49.838L76.021,49.838z"/>
		<path fill="#C99E48" d="M75.188,47.338c0,0.487-0.385,0.881-0.861,0.881h-4.945c-0.475,0-0.859-0.394-0.859-0.881l0,0
			c0-0.486,0.385-0.88,0.859-0.88h4.945C74.803,46.458,75.188,46.852,75.188,47.338L75.188,47.338z"/>
		<path fill="#C99E48" d="M74.688,45.13c0,0.426-0.326,0.771-0.732,0.771h-4.203c-0.404,0-0.73-0.345-0.73-0.771l0,0
			c0-0.426,0.326-0.771,0.73-0.771h4.203C74.361,44.359,74.688,44.704,74.688,45.13L74.688,45.13z"/>
		<path fill="#C99E48" d="M73.855,43.256c0,0.372-0.23,0.674-0.518,0.674h-2.967c-0.285,0-0.518-0.302-0.518-0.674l0,0
			c0-0.373,0.232-0.675,0.518-0.675h2.967C73.625,42.581,73.855,42.883,73.855,43.256L73.855,43.256z"/>
		<circle fill="#C99E48" cx="71.854" cy="39.838" r="0.917"/>
		<path fill="#D1D1D1" d="M71.855,41.047c-0.146,0-0.285-0.028-0.418-0.07v1.237h0.834v-1.237
			C72.139,41.019,72.002,41.047,71.855,41.047z"/>
	</g>
	<g>
		<rect x="7.354" y="49.327" fill="#A2A2A3" width="5.011" height="5.011"/>
		<rect x="13.684" y="49.327" fill="#A2A2A3" width="5.011" height="5.011"/>
		<rect x="9.86" y="43.461" fill="#A2A2A3" width="5.012" height="5.012"/>
		<polygon fill="#A2A2A3" points="14.924,37.509 16.421,40.101 17.917,42.692 14.924,42.692 11.932,42.692 13.427,40.101 		"/>
	</g>
</g>
</svg>
