<?xml version="1.0" encoding="utf-8"?>
<!-- Generator: Adobe Illustrator 16.0.0, SVG Export Plug-In . SVG Version: 6.00 Build 0)  -->
<!DOCTYPE svg PUBLIC "-//W3C//DTD SVG 1.1//EN" "http://www.w3.org/Graphics/SVG/1.1/DTD/svg11.dtd">
<svg version="1.1" id="Layer_1" xmlns="http://www.w3.org/2000/svg" xmlns:xlink="http://www.w3.org/1999/xlink" x="0px" y="0px"
	 width="86px" height="80px" viewBox="0 0 86 80" enable-background="new 0 0 86 80" xml:space="preserve">
<g>
	<g>
		<g>
			<g>
				<path fill="#F7F2ED" d="M3.999,78.885C2.345,78.885,1,77.541,1,75.891V3.878c0-1.65,1.345-2.994,2.999-2.994h78
					C83.654,0.884,85,2.228,85,3.878v72.012c0,1.65-1.346,2.994-2.998,2.994H3.999z"/>
				<path fill="#D1D1D1" d="M81.998,2.051C83.102,2.051,84,2.947,84,4.045v72.011c0,1.1-0.896,1.994-1.998,1.994H3.999
					C2.897,78.051,2,77.156,2,76.057V4.045c0-1.099,0.897-1.994,1.999-1.994H81.998 M81.998,0.051h-78C1.794,0.051,0,1.842,0,4.045
					v72.011c0,2.201,1.794,3.994,3.999,3.994l0,0h78.003c2.205,0,3.998-1.793,3.998-3.994V4.045C86,1.842,84.205,0.051,81.998,0.051
					L81.998,0.051z"/>
			</g>
		</g>
	</g>
	<g>
		<path fill="#374537" d="M31.54,69.686c-0.272,0.199-0.617,0.338-1.034,0.416s-0.862,0.117-1.334,0.117
			c-0.571,0-1.107-0.096-1.606-0.279c-0.499-0.188-0.935-0.471-1.306-0.854c-0.373-0.385-0.667-0.867-0.885-1.463
			c-0.218-0.598-0.327-1.301-0.327-2.109c0-0.855,0.12-1.572,0.36-2.166c0.24-0.596,0.558-1.078,0.952-1.455
			c0.396-0.377,0.838-0.65,1.327-0.826c0.49-0.172,0.989-0.26,1.497-0.26c0.544,0,0.989,0.025,1.334,0.084
			c0.346,0.059,0.641,0.133,0.884,0.229l-0.271,0.963c-0.437-0.209-1.057-0.313-1.865-0.313c-0.372,0-0.739,0.063-1.102,0.191
			c-0.363,0.133-0.688,0.346-0.974,0.641c-0.286,0.295-0.515,0.682-0.688,1.156c-0.173,0.477-0.258,1.063-0.258,1.756
			c0,0.623,0.082,1.17,0.245,1.637c0.163,0.469,0.388,0.859,0.674,1.172s0.622,0.545,1.007,0.701
			c0.385,0.156,0.805,0.234,1.259,0.234c0.408,0,0.764-0.039,1.068-0.117c0.304-0.078,0.56-0.182,0.769-0.299L31.54,69.686z"/>
		<path fill="#374537" d="M38.849,70.063h-5.634v-9.102h1.13v8.141h4.504V70.063L38.849,70.063z"/>
		<path fill="#374537" d="M44.856,67.541h-3.499l-0.947,2.521h-1.129l3.606-9.242h0.518l3.619,9.242h-1.193L44.856,67.541z
			 M41.726,66.605h2.791l-1.057-2.771l-0.338-1.379h-0.016l-0.338,1.402L41.726,66.605z"/>
		<path fill="#374537" d="M52.597,67.75c0-0.363-0.113-0.66-0.342-0.891s-0.512-0.434-0.854-0.611s-0.709-0.346-1.105-0.5
			c-0.398-0.156-0.771-0.346-1.107-0.566c-0.338-0.219-0.623-0.492-0.854-0.813c-0.23-0.322-0.342-0.736-0.342-1.24
			c0-0.709,0.262-1.271,0.773-1.689c0.52-0.416,1.252-0.625,2.205-0.625c0.555,0,1.059,0.039,1.51,0.117
			c0.453,0.076,0.813,0.178,1.064,0.299l-0.34,0.963c-0.209-0.102-0.52-0.189-0.922-0.279c-0.398-0.092-0.855-0.137-1.365-0.137
			c-0.602,0-1.051,0.127-1.35,0.387c-0.301,0.256-0.447,0.557-0.447,0.9c0,0.338,0.111,0.619,0.34,0.846
			c0.23,0.229,0.514,0.43,0.855,0.605c0.342,0.18,0.711,0.354,1.105,0.525c0.396,0.174,0.771,0.375,1.107,0.604
			c0.338,0.229,0.623,0.506,0.855,0.824c0.227,0.318,0.34,0.721,0.34,1.193c0,0.395-0.072,0.738-0.221,1.057
			c-0.146,0.313-0.355,0.58-0.643,0.807c-0.281,0.229-0.621,0.396-1.021,0.521c-0.398,0.123-0.854,0.184-1.361,0.184
			c-0.682,0-1.24-0.051-1.688-0.146c-0.441-0.102-0.789-0.211-1.031-0.332l0.381-0.963c0.209,0.107,0.521,0.219,0.928,0.322
			s0.865,0.158,1.375,0.158c0.301,0,0.578-0.029,0.846-0.086c0.264-0.057,0.488-0.146,0.682-0.271
			c0.188-0.127,0.342-0.283,0.455-0.475C52.538,68.236,52.597,68.01,52.597,67.75z"/>
		<path fill="#374537" d="M59.821,67.75c0-0.363-0.113-0.66-0.34-0.891c-0.23-0.23-0.512-0.434-0.854-0.611s-0.711-0.346-1.107-0.5
			c-0.398-0.156-0.771-0.346-1.107-0.566c-0.34-0.219-0.623-0.492-0.852-0.813c-0.23-0.322-0.34-0.736-0.34-1.24
			c0-0.709,0.258-1.271,0.77-1.689c0.521-0.416,1.252-0.625,2.205-0.625c0.557,0,1.059,0.039,1.514,0.117
			c0.451,0.076,0.811,0.178,1.063,0.299l-0.34,0.963c-0.209-0.102-0.52-0.189-0.92-0.279c-0.402-0.092-0.857-0.137-1.367-0.137
			c-0.602,0-1.049,0.127-1.35,0.387c-0.303,0.256-0.447,0.557-0.447,0.9c0,0.338,0.111,0.619,0.34,0.846
			c0.23,0.229,0.514,0.43,0.854,0.605c0.342,0.18,0.711,0.354,1.109,0.525c0.395,0.174,0.77,0.375,1.104,0.604
			c0.344,0.229,0.623,0.506,0.855,0.824c0.229,0.318,0.342,0.721,0.342,1.193c0,0.395-0.072,0.738-0.221,1.057
			c-0.145,0.313-0.355,0.58-0.643,0.807c-0.279,0.229-0.619,0.396-1.02,0.521c-0.4,0.123-0.855,0.184-1.359,0.184
			c-0.684,0-1.244-0.051-1.689-0.146c-0.441-0.102-0.789-0.211-1.031-0.332l0.381-0.963c0.209,0.107,0.52,0.219,0.926,0.322
			c0.408,0.104,0.867,0.158,1.375,0.158c0.301,0,0.58-0.029,0.846-0.086c0.264-0.057,0.488-0.146,0.68-0.271
			c0.191-0.127,0.348-0.283,0.457-0.475C59.767,68.236,59.821,68.01,59.821,67.75z"/>
	</g>
	<g>
		<g>
			<g>
				<rect x="37.896" y="14.218" fill="#C59A46" width="22.415" height="37.6"/>
				<g>
					<g>
						<rect x="40.679" y="16.701" fill="#FFFFFF" width="2.336" height="5.566"/>
						<rect x="45.518" y="16.701" fill="#FFFFFF" width="2.336" height="5.566"/>
						<rect x="50.351" y="16.701" fill="#FFFFFF" width="2.338" height="5.566"/>
						<rect x="55.188" y="16.701" fill="#FFFFFF" width="2.339" height="5.566"/>
					</g>
					<g>
						<rect x="40.679" y="24.403" fill="#FFFFFF" width="2.336" height="5.568"/>
						<rect x="45.518" y="24.403" fill="#FFFFFF" width="2.336" height="5.568"/>
						<rect x="50.351" y="24.403" fill="#FFFFFF" width="2.338" height="5.568"/>
						<rect x="55.188" y="24.403" fill="#FFFFFF" width="2.339" height="5.568"/>
					</g>
				</g>
			</g>
			<g>
				<g>
					<polygon fill="#FFFFFF" points="50.358,39.142 50.358,51.818 14.45,51.818 14.45,39.142 17.622,34.245 46.683,34.245 					"/>
					<polygon fill="#C59A46" points="49.326,39.088 15.322,39.088 17.896,35.029 46.104,35.029 					"/>
					<polygon fill="#C59A46" points="15.322,39.945 15.322,51.818 40.725,51.818 40.725,43.158 47.285,43.158 47.285,51.818 
						49.326,51.818 49.326,39.945 					"/>
					<g>
						<rect x="17.588" y="43.158" fill="#FFFFFF" width="1.534" height="2.24"/>
						<rect x="19.456" y="43.158" fill="#FFFFFF" width="1.533" height="2.24"/>
						<rect x="21.325" y="43.158" fill="#FFFFFF" width="1.533" height="2.24"/>
						<rect x="17.588" y="45.725" fill="#FFFFFF" width="1.534" height="2.238"/>
						<rect x="19.456" y="45.725" fill="#FFFFFF" width="1.533" height="2.238"/>
						<rect x="21.325" y="45.725" fill="#FFFFFF" width="1.533" height="2.238"/>
					</g>
					<g>
						<rect x="25.701" y="43.158" fill="#FFFFFF" width="1.534" height="2.24"/>
						<rect x="27.569" y="43.158" fill="#FFFFFF" width="1.531" height="2.24"/>
						<rect x="29.439" y="43.158" fill="#FFFFFF" width="1.531" height="2.24"/>
						<rect x="25.701" y="45.725" fill="#FFFFFF" width="1.534" height="2.238"/>
						<rect x="27.569" y="45.725" fill="#FFFFFF" width="1.531" height="2.238"/>
						<rect x="29.439" y="45.725" fill="#FFFFFF" width="1.531" height="2.238"/>
					</g>
					<g>
						<rect x="33.814" y="43.158" fill="#FFFFFF" width="1.532" height="2.24"/>
						<rect x="35.683" y="43.158" fill="#FFFFFF" width="1.534" height="2.24"/>
						<rect x="37.553" y="43.158" fill="#FFFFFF" width="1.532" height="2.24"/>
						<rect x="33.814" y="45.725" fill="#FFFFFF" width="1.532" height="2.238"/>
						<rect x="35.683" y="45.725" fill="#FFFFFF" width="1.534" height="2.238"/>
						<rect x="37.553" y="45.725" fill="#FFFFFF" width="1.532" height="2.238"/>
					</g>
					<g>
						<polygon fill="#C59A46" points="22.925,24.465 22.842,23.655 19.809,23.655 19.728,24.465 						"/>
						<polygon fill="#C59A46" points="19.658,25.157 18.738,34.211 23.91,34.211 22.994,25.157 						"/>
					</g>
					<g>
						<polygon fill="#C59A46" points="31.802,18.995 31.72,17.726 28.688,17.726 28.606,18.995 						"/>
						<polygon fill="#C59A46" points="28.537,19.78 27.618,34.211 32.792,34.211 31.872,19.78 						"/>
					</g>
				</g>
				<rect x="40.725" y="42.965" fill="#FFFFFF" width="6.563" height="8.66"/>
			</g>
			<g>
				<polygon fill="#FFFFFF" points="63.154,35.172 67.352,38.275 71.55,41.381 71.55,51.818 54.756,51.818 54.756,41.381 
					58.952,38.275 				"/>
			</g>
			<g>
				<polygon fill="#C59A46" points="63.154,36.174 66.809,38.797 70.465,41.419 63.154,41.419 55.845,41.419 59.497,38.797 				"/>
				<rect x="55.845" y="42.387" fill="#C59A46" width="14.617" height="9.432"/>
			</g>
			<polygon fill="#C59A46" points="67.352,38.275 68.057,38.797 68.057,35.84 66.769,35.84 66.769,37.841 			"/>
			<rect x="61.24" y="45.721" fill="#FFFFFF" width="3.827" height="6.098"/>
		</g>
		<g>
			<path fill="#D1D1D1" d="M29.918,16.29c-0.637-0.518-1.553-1.849-1.096-2.497c0.636-0.902,0.206-1.762,0.84-2.457
				c0.624-0.684,1.402-0.261,1.843-1.372c0.313-0.79,1.598-0.9,2.187-0.344c0.497,0.47,0.393,1.681-0.344,2.119
				c-0.734,0.44,0.006,0.503-0.538,1.604c-0.589,1.188-1.237,0.212-1.445,1.421C31.216,15.617,29.819,14.894,29.918,16.29z"/>
			<path fill="#B2ADAD" d="M33.556,11.998c0.965-0.572,0.883-2.017,0.136-2.378c-0.044-0.021-0.09-0.047-0.139-0.069
				c-1.454-0.202-1.663,1.239-1.92,1.658c-0.269,0.439-1.036,0.125-1.521,0.762c-0.354,0.463-0.072,1.372-0.553,2.007
				c-0.687,0.903,0.285,2.209,0.285,2.209l0.073,0.058c-0.062-1.328,1.301-0.638,1.446-1.479c0.208-1.209,1.077-0.361,1.653-1.421
				C33.367,12.699,33.164,12.23,33.556,11.998z"/>
		</g>
		<g>
			<g>
				<path fill="#D1D1D1" d="M22.621,15.836c-0.482,1.004-1.366,0.37-1.985,1.227c-0.404,0.56,0,1.688-0.779,2.467
					c-1.053,1.054,1.288,2.779,1.288,2.779c-0.082-1.728,0.971-0.746,1.119-1.851c0.265-1.967,2.12-1.281,2.908-2.779
					C26.488,15.177,23.175,14.689,22.621,15.836z"/>
			</g>
			<g>
				<path fill="#B2ADAD" d="M23.064,16.718c-0.349,0.854-1.131,0.306-1.644,1.015c-0.335,0.464,0,1.397-0.645,2.043
					c-0.872,0.871,0.368,2.472,0.368,2.472c-0.067-1.43,1.501-0.791,1.624-1.702c0.219-1.63,1.726-1.077,2.407-2.302
					C26.673,15.552,23.684,15.206,23.064,16.718z"/>
			</g>
		</g>
	</g>
</g>
</svg>
