<?xml version="1.0" encoding="utf-8"?>
<!-- Generator: Adobe Illustrator 16.0.0, SVG Export Plug-In . SVG Version: 6.00 Build 0)  -->
<!DOCTYPE svg PUBLIC "-//W3C//DTD SVG 1.1//EN" "http://www.w3.org/Graphics/SVG/1.1/DTD/svg11.dtd">
<svg version="1.1" id="Layer_1" xmlns="http://www.w3.org/2000/svg" xmlns:xlink="http://www.w3.org/1999/xlink" x="0px" y="0px"
	 width="86px" height="80px" viewBox="0 0 86 80" enable-background="new 0 0 86 80" xml:space="preserve">
<g>
	<g>
		<path fill="#F7F2ED" d="M4.859,79C2.731,79,1,77.273,1,75.152V4.849C1,2.726,2.731,1,4.859,1h76.28C83.27,1,85,2.726,85,4.849
			v70.303C85,77.273,83.27,79,81.141,79H4.859z"/>
		<path fill="#D1D1D1" d="M81.141,2C82.717,2,84,3.278,84,4.849v70.303C84,76.723,82.717,78,81.141,78H4.859
			C3.282,78,2,76.723,2,75.152V4.849C2,3.278,3.282,2,4.859,2H81.141 M81.141,0H4.859C2.175,0,0,2.171,0,4.849v70.303
			C0,77.827,2.175,80,4.859,80h76.28c2.687,0,4.86-2.173,4.86-4.848V4.849C86,2.171,83.824,0,81.141,0L81.141,0z"/>
	</g>
</g>
<g>
	<g>
		<polygon fill="#C6C4C4" points="39.204,35.991 2.045,35.991 2.045,43.9 34.624,43.9 		"/>
		<polygon fill="#C6C4C4" points="47.709,35.991 40.444,43.9 83.83,43.9 83.83,35.991 		"/>
	</g>
	<g>
		<polygon fill="#F6F1F2" points="15.355,43.902 8.577,35.991 7.673,35.991 14.449,43.902 		"/>
		<polygon fill="#F6F1F2" points="3.212,35.991 2.306,35.991 9.084,43.902 9.99,43.902 		"/>
		<polygon fill="#F6F1F2" points="3.719,43.902 4.623,43.902 2.029,40.872 2.029,41.932 		"/>
		<polygon fill="#F6F1F2" points="20.723,43.902 13.943,35.991 13.036,35.991 19.816,43.902 		"/>
		<polygon fill="#F6F1F2" points="26.088,43.902 19.313,35.991 18.401,35.991 25.18,43.902 		"/>
		<polygon fill="#F6F1F2" points="31.455,43.902 24.677,35.991 23.767,35.991 30.547,43.902 		"/>
		<polygon fill="#F6F1F2" points="58.281,43.902 51.504,35.991 50.598,35.991 57.378,43.902 		"/>
		<polygon fill="#F6F1F2" points="63.648,43.902 56.871,35.991 55.963,35.991 62.743,43.902 		"/>
		<polygon fill="#F6F1F2" points="69.014,43.902 62.236,35.991 61.329,35.991 68.111,43.902 		"/>
		<polygon fill="#F6F1F2" points="74.383,43.902 67.602,35.991 66.695,35.991 73.473,43.902 		"/>
		<polygon fill="#F6F1F2" points="79.741,43.902 72.969,35.991 72.063,35.991 78.84,43.902 		"/>
		<polygon fill="#F6F1F2" points="83.828,42.404 78.334,35.991 77.43,35.991 83.828,43.46 		"/>
		<polygon fill="#F6F1F2" points="83.921,36.25 83.7,35.991 82.798,35.991 83.921,37.304 		"/>
		<polygon fill="#F6F1F2" points="46.427,37.386 52.012,43.902 52.915,43.902 46.896,36.876 		"/>
		<polygon fill="#F6F1F2" points="43.65,40.409 46.645,43.902 47.552,43.902 44.121,39.898 		"/>
		<g>
			<polygon fill="#F6F1F2" points="40.876,43.432 41.281,43.902 42.187,43.902 41.345,42.92 			"/>
			<polygon fill="#F6F1F2" points="37.673,38.636 35.407,35.991 34.503,35.991 37.308,39.266 			"/>
		</g>
		<polygon fill="#F6F1F2" points="35.51,42.373 30.043,35.991 29.136,35.991 35.145,43.004 		"/>
	</g>
</g>
<polygon fill="#C99E48" points="50.969,9.309 59.109,9.309 47.16,24.837 55.479,24.837 35.073,47.051 45.262,29.457 39.444,29.457 
	"/>
<rect x="2.029" y="43.801" fill="#C99E48" width="81.892" height="3.883"/>
<g enable-background="new    ">
	<path fill="#374537" d="M30.425,64.965c0-1.184,0.264-2.092,0.791-2.721c0.527-0.631,1.285-0.945,2.274-0.945
		c0.522,0,0.977,0.086,1.364,0.258c0.387,0.174,0.707,0.42,0.959,0.742s0.438,0.709,0.56,1.162s0.182,0.953,0.182,1.504
		c0,1.186-0.264,2.094-0.791,2.723c-0.527,0.631-1.286,0.945-2.274,0.945c-0.523,0-0.978-0.086-1.365-0.26
		c-0.387-0.172-0.707-0.42-0.958-0.742c-0.252-0.32-0.439-0.709-0.56-1.16C30.486,66.018,30.425,65.516,30.425,64.965z
		 M31.587,64.965c0,0.355,0.035,0.695,0.105,1.021c0.07,0.328,0.179,0.611,0.329,0.855c0.149,0.242,0.345,0.438,0.588,0.586
		c0.243,0.15,0.537,0.225,0.882,0.225c1.269,0.01,1.903-0.887,1.903-2.688c0-0.363-0.035-0.709-0.105-1.035s-0.18-0.611-0.329-0.854
		s-0.345-0.436-0.587-0.58c-0.243-0.145-0.537-0.219-0.882-0.219C32.221,62.27,31.587,63.164,31.587,64.965z"/>
	<path fill="#374537" d="M42.811,68.465v-3.99c0-0.363-0.021-0.682-0.063-0.957s-0.119-0.504-0.231-0.686
		c-0.112-0.184-0.264-0.32-0.455-0.414c-0.191-0.094-0.44-0.141-0.749-0.141c-0.438,0-0.835,0.143-1.189,0.428
		c-0.355,0.285-0.583,0.65-0.686,1.1v4.66h-1.12v-9.797h1.12v3.582h0.056c0.242-0.289,0.534-0.52,0.875-0.693
		c0.341-0.172,0.763-0.258,1.267-0.258c0.392,0,0.732,0.045,1.022,0.133c0.289,0.088,0.529,0.244,0.721,0.469
		c0.19,0.225,0.331,0.525,0.42,0.902c0.089,0.379,0.133,0.857,0.133,1.436v4.227H42.811z"/>
	<path fill="#374537" d="M50.074,68.465v-3.961c0-0.373-0.016-0.697-0.049-0.973c-0.032-0.275-0.096-0.506-0.188-0.693
		c-0.093-0.186-0.226-0.326-0.399-0.42c-0.172-0.094-0.398-0.141-0.678-0.141c-0.43,0-0.787,0.131-1.071,0.393
		s-0.483,0.588-0.595,0.98v4.814h-1.119v-6.998h0.783l0.21,0.854h0.056c0.252-0.299,0.544-0.543,0.875-0.734
		s0.763-0.287,1.295-0.287c0.447,0,0.814,0.086,1.099,0.258c0.284,0.174,0.506,0.475,0.665,0.904
		c0.215-0.365,0.51-0.648,0.889-0.854c0.377-0.207,0.805-0.309,1.28-0.309c0.392,0,0.724,0.045,0.993,0.133
		c0.271,0.088,0.495,0.244,0.672,0.469c0.178,0.225,0.307,0.527,0.385,0.91c0.08,0.383,0.119,0.867,0.119,1.455v4.199h-1.119v-4.213
		c0-0.336-0.017-0.627-0.049-0.875c-0.033-0.248-0.098-0.453-0.196-0.615c-0.099-0.164-0.233-0.285-0.405-0.365
		c-0.174-0.078-0.399-0.119-0.68-0.119c-0.467,0-0.83,0.131-1.092,0.393c-0.261,0.262-0.447,0.635-0.56,1.119v4.676H50.074z"/>
</g>
</svg>
