<?xml version="1.0" encoding="utf-8"?>
<!-- Generator: Adobe Illustrator 16.0.0, SVG Export Plug-In . SVG Version: 6.00 Build 0)  -->
<!DOCTYPE svg PUBLIC "-//W3C//DTD SVG 1.1//EN" "http://www.w3.org/Graphics/SVG/1.1/DTD/svg11.dtd">
<svg version="1.1" id="Layer_1" xmlns="http://www.w3.org/2000/svg" xmlns:xlink="http://www.w3.org/1999/xlink" x="0px" y="0px"
	 width="86px" height="80px" viewBox="0 0 86 80" enable-background="new 0 0 86 80" xml:space="preserve">
<g>
	<g>
		<path fill="#F7F2ED" d="M4.859,79C2.73,79,1,77.273,1,75.152V4.848c0-2.121,1.73-3.85,3.859-3.85h76.277
			c2.131,0,3.861,1.729,3.861,3.85v70.305c0,2.121-1.73,3.848-3.861,3.848H4.859z"/>
		<path fill="#D1D1D1" d="M81.137,2c1.578,0,2.861,1.277,2.861,2.85v70.303c0,1.57-1.283,2.85-2.861,2.85H4.859
			C3.281,78.002,2,76.727,2,75.152V4.85C2,3.277,3.283,2,4.859,2H81.137 M81.137,0H4.859C2.174,0,0,2.172,0,4.85v70.303
			c0,2.676,2.176,4.85,4.859,4.85h76.277c2.688,0,4.861-2.174,4.861-4.85V4.85C85.998,2.172,83.824,0,81.137,0L81.137,0z"/>
	</g>
</g>
<g>
	<rect x="2.055" y="54.666" fill="#C99E48" width="81.891" height="13.5"/>
</g>
<g>
	<path fill="#FFFFFF" d="M43.692,54.783c0,0,7.916,6.531,10.916,7.125c0.167,0,2.251-0.891,2.251-0.891s0.833,2.523,1.833,4.008
		c-4.667-0.297-9.667-1.484-9.667-1.484s2.333-0.408,2.833-0.854c-5.333-3.414-9.333-7.904-9.333-7.904H43.692z"/>
	<path fill="#FFFFFF" d="M42.338,54.783c0,0,0.584,7.719,1.542,9.277c0.081,0.07,3.292-0.074,3.292-0.074s-2.084,1.299-4.334,3.006
		c-2.542-1.447-4.791-2.969-4.791-2.969s2.627,0.051,3.125,0.037c0.5-1.781,0.541-9.24,0.541-9.24L42.338,54.783z"/>
	<path fill="#FFFFFF" d="M40.527,54.783c0,0-7.916,6.531-10.916,7.125c-0.168,0-2.252-0.891-2.252-0.891s-0.832,2.523-1.832,4.008
		c4.666-0.297,9.666-1.484,9.666-1.484s-2.332-0.408-2.832-0.854c5.332-3.414,9.332-7.904,9.332-7.904H40.527z"/>
</g>
<g>
	<circle fill="#A2A2A3" cx="44.742" cy="22.49" r="3.51"/>
	<circle fill="#D1D1D1" cx="40.688" cy="13.033" r="2.852"/>
	<path fill="#A2A2A3" d="M28.445,44.941l5.788-2.529l2.832-4.289c0,0,0.479-1.08,0.515-1.224l1.795-7.216
		c0,0-0.52-0.602-0.667-0.847l-2.817-4.658c-0.242-0.58-0.186-0.97-0.186-1.13l0.396-5.931c0.003-0.585,0.469-1.042,1.354-1.037
		c0.887,0.006,1.36,0.548,1.355,1.132l-0.105,5.511c0,0,1.972,2.936,2.141,3.199c0.316,0.49,0.486,0.42,1.092,0.508
		c0.496,0.072,3.85,0.57,4.753,2.043l2.281,4.658l3.232-1.616c0.548-0.317,1.343-0.509,1.806,0.285
		c0.464,0.798,0.313,1.569-0.234,1.888l-5.088,2.962c-0.544,0.316-1.363-0.071-1.826-0.866c0-0.001,0-0.001-0.001-0.001
		c-0.003-0.006-0.009-0.008-0.013-0.015l-1.163-2.171c0,0-1.038,4.108-1.222,5.733c0,0-0.26,6.737-0.264,6.848l-0.227,6.405
		c-0.024,0.689-0.875,1.217-1.898,1.182c-1.023-0.037-1.833-0.627-1.809-1.313l0.229-6.404c0.001-0.053,0.243-6.477,0.243-6.477
		c-0.055-0.012-0.109-0.018-0.164-0.031l-3.4,5.148c-0.021,0.033-0.389,0.721-0.692,0.836l-5.993,2.268
		c-0.646,0.244-2.19,0.281-2.553-0.676C27.572,46.16,27.803,45.185,28.445,44.941z"/>
</g>
</svg>
