<?xml version="1.0" encoding="utf-8"?>
<!-- Generator: Adobe Illustrator 16.0.0, SVG Export Plug-In . SVG Version: 6.00 Build 0)  -->
<!DOCTYPE svg PUBLIC "-//W3C//DTD SVG 1.1//EN" "http://www.w3.org/Graphics/SVG/1.1/DTD/svg11.dtd">
<svg version="1.1" id="Layer_1" xmlns="http://www.w3.org/2000/svg" xmlns:xlink="http://www.w3.org/1999/xlink" x="0px" y="0px"
	 width="86px" height="80px" viewBox="0 0 86 80" enable-background="new 0 0 86 80" xml:space="preserve">
<g>
	<g>
		<path fill="#F7F2ED" d="M927.476,261.369c0,2.68-2.182,4.85-4.861,4.85h-76.275c-2.688,0-4.858-2.172-4.858-4.85v-70.303
			c0-2.678,2.175-4.852,4.858-4.852h76.275c2.684,0,4.861,2.171,4.861,4.852V261.369L927.476,261.369z"/>
	</g>
	<g>
		<g>
			<path fill="#D1D1D1" d="M922.612,188.217c1.578,0,2.861,1.279,2.861,2.852v70.303c0,1.57-1.283,2.854-2.861,2.854h-76.275
				c-1.576,0-2.859-1.279-2.859-2.854v-70.303c0-1.569,1.283-2.852,2.859-2.852H922.612 M922.612,186.217h-76.275
				c-2.688,0-4.859,2.172-4.859,4.852v70.303c0,2.68,2.176,4.854,4.859,4.854h76.275c2.682,0,4.861-2.172,4.861-4.854v-70.303
				C927.476,188.389,925.296,186.217,922.612,186.217L922.612,186.217z"/>
		</g>
	</g>
</g>
<g>
	<path fill="#FFFFFF" d="M899.688,244.623l-0.453,0.148c-5.728,1.871-11.731,0.584-15.675-3.357
		c-4.211-4.211-5.337-10.773-2.982-16.709l-15.743-15.742l10.332-10.333l15.743,15.743c5.935-2.352,12.498-1.227,16.708,2.984
		c3.939,3.939,5.229,9.947,3.356,15.672l-0.146,0.455L899.688,244.623z"/>
	<path fill="#D1D1D1" d="M898.612,242.871l10.461-10.461c1.583-4.846,0.669-10.1-2.871-13.639
		c-4.061-4.06-10.372-4.668-15.738-2.016l-15.299-15.299l-7.504,7.504l15.299,15.3c-2.652,5.364-2.044,11.681,2.015,15.737
		C888.514,243.539,893.768,244.453,898.612,242.871z"/>
	
		<rect x="863.208" y="202.887" transform="matrix(0.7071 -0.7071 0.7071 0.7071 110.798 674.7614)" fill="#B2ADAD" width="13.28" height="1.516"/>
	
		<line fill="none" stroke="#FFFFFF" stroke-width="0.4255" stroke-miterlimit="10" x1="869.469" y1="209.939" x2="873.128" y2="206.282"/>
	
		<line fill="none" stroke="#FFFFFF" stroke-width="0.4255" stroke-miterlimit="10" x1="873.018" y1="213.488" x2="876.677" y2="209.831"/>
	
		<line fill="none" stroke="#FFFFFF" stroke-width="0.4255" stroke-miterlimit="10" x1="876.566" y1="217.038" x2="880.225" y2="213.38"/>
	
		<line fill="none" stroke="#FFFFFF" stroke-width="0.4255" stroke-miterlimit="10" x1="880.115" y1="220.587" x2="883.773" y2="216.928"/>
	
		<line fill="none" stroke="#FFFFFF" stroke-width="0.3723" stroke-miterlimit="10" x1="871.15" y1="211.809" x2="873.449" y2="209.512"/>
	
		<line fill="none" stroke="#FFFFFF" stroke-width="0.3723" stroke-miterlimit="10" x1="874.698" y1="215.355" x2="876.997" y2="213.059"/>
	
		<line fill="none" stroke="#FFFFFF" stroke-width="0.3723" stroke-miterlimit="10" x1="878.247" y1="218.904" x2="880.545" y2="216.607"/>
	<path fill="#E5BB70" d="M883.48,229.333c-0.455,3.478,0.549,6.894,2.906,9.253c1.956,1.956,4.655,3.033,7.602,3.033
		c0,0,0,0,0.001,0c1.188,0,2.383-0.174,3.56-0.514l9.76-9.76c0.194-0.673,0.313-1.345,0.396-2.015L883.48,229.333L883.48,229.333z"
		/>
</g>
<g>
	<rect x="843.531" y="249.309" fill="#D1D1D1" width="81.891" height="7.017"/>
</g>
<path fill="#E5BB70" d="M863.348,211.958l1.942,3.364c0,0,1.652,2.924,1.943,3.962c0.29,1.036,0.29,4.766-4.035,4.766
	c-4.324,0-4.19-3.716-3.735-4.766s1.941-3.962,1.941-3.962L863.348,211.958z"/>
<g>
	<path fill="#E5BB70" d="M877,247.309V246.5c0-1.104-0.896-2-2-2h-21.5c-1.104,0-2,0.896-2,2v0.809H877z"/>
</g>
<g>
	<g>
		<path fill="#F7F2ED" d="M4.859,79C2.73,79,1,77.273,1,75.152V4.848c0-2.121,1.73-3.85,3.859-3.85h76.277
			c2.131,0,3.861,1.729,3.861,3.85v70.305c0,2.121-1.73,3.848-3.861,3.848H4.859z"/>
		<path fill="#D1D1D1" d="M81.137,2c1.578,0,2.861,1.277,2.861,2.85v70.304c0,1.569-1.283,2.849-2.861,2.849H4.859
			C3.281,78.002,2,76.727,2,75.153V4.85C2,3.277,3.283,2,4.859,2H81.137 M81.137,0H4.859C2.173,0,0,2.172,0,4.85v70.304
			c0,2.676,2.176,4.849,4.859,4.849h76.277c2.688,0,4.861-2.173,4.861-4.849V4.85C85.998,2.172,83.824,0,81.137,0L81.137,0z"/>
	</g>
</g>
<g>
	<path fill="#6C7050" d="M73.309,46.867c1.453,0.468,7.264,1.966,8.125-3.875c0.369-2.5-3.176-2.409-3.875-2.375
		c-1.209,0.059-18.375,0.333-16.457,1.875C63.018,44.034,69.93,45.778,73.309,46.867z"/>
	<path fill="#6C7050" d="M15.76,54.128c2.224,0,5.3,0.864,5.425-2.261c0.077-1.911-3.5-3-6-3.25c0,0-12-0.625-12.375,0.875
		c-0.412,1.649-0.139,3.828-0.139,3.828C3.866,53.469,7.639,54.128,15.76,54.128z"/>
</g>
<path fill="#C99E48" d="M2.768,66.284c32.333,1.666,87.947-6.813,77.666-13.667c-10.281-6.854-31.912-10.519-19-11.667
	c15-1.333,22-1.333,22-1.333l0.334-2.333c-26.104,2.061-26.098,2.121-31.666,3c-4.006,0.633-0.597,3.299,3.332,6
	c5.334,3.667,0.01,5.83-1.545,6.209c-4.803,1.17-13.432,2.169-22.643,2.486c-16.564,0.57-28.479-0.695-28.479-0.695V66.284z"/>
<g>
	<path fill="#6A7823" d="M4.974,34.655c0,9.305,3.708,9.995,8.281,9.995c4.573,0,8.281-0.689,8.281-9.995
		c0-9.307-3.708-23.704-8.281-23.704C8.682,10.951,4.974,25.348,4.974,34.655z"/>
	<rect x="11.827" y="39.509" fill="#424B12" width="1.713" height="11.994"/>
	<path fill="#43550C" d="M6.115,36.191c0,7.875,3.137,8.458,7.009,8.458c3.871,0,7.01-0.584,7.01-8.458
		c0-7.878-3.139-20.063-7.01-20.063C9.252,16.128,6.115,28.313,6.115,36.191z"/>
</g>
<g>
	<circle fill="#6A7823" cx="68.52" cy="27.806" r="9.043"/>
	<circle fill="#43550C" cx="69.849" cy="29.668" r="7.181"/>
	<rect x="67.898" y="36.316" fill="#43550C" width="1.861" height="6.384"/>
</g>
<g>
	<path fill="#A2A2A3" d="M48.309,40.562c-0.105-0.713-0.708-1.213-1.345-1.117l-3.799,0.566l-2.942-3.152
		c-0.458-0.491-1.257-0.49-1.784,0.002c-0.527,0.491-0.583,1.288-0.124,1.779l3.319,3.557c0.003,0.002,0.006,0.004,0.009,0.008
		c0.256,0.361,0.667,0.572,1.097,0.508l4.609-0.687C47.986,41.931,48.415,41.274,48.309,40.562z"/>
	<circle fill="#A2A2A3" cx="39.845" cy="32.628" r="2.919"/>
	<path fill="#A2A2A3" stroke="#FFFFFF" stroke-width="0.25" stroke-miterlimit="10" d="M43.136,50.167l-4.245-3.773l2.063-7.855
		c0.305-1.164-0.561-2.399-1.933-2.759c-1.373-0.36-2.731,0.291-3.036,1.454l-2.212,8.425c-0.09,0.343-0.068,0.688,0.028,1.019
		l-2.733,3.271c-0.111-0.011-6.492,0.866-6.492,0.866c-0.85,0.118-1.435,0.952-1.307,1.862s0.919,1.552,1.768,1.433l6.151-0.859
		c0.123-0.018,1.547-0.107,1.935-0.571l3.266-3.907l3.645,3.238l-1.047,6.152c-0.155,0.909,0.493,1.777,1.446,1.939
		c0.955,0.162,1.852-0.443,2.007-1.352c0,0,1.126-6.684,1.129-6.736C43.811,51.374,43.664,50.637,43.136,50.167z"/>
	<path fill="#A2A2A3" d="M38.063,36.884c0.235-0.624,1.024-0.795,0.892-0.974c-0.257-0.346-1.817-0.207-2.237-0.144l-4.608,0.688
		c-0.162,0.024-0.31,0.084-0.439,0.172c-0.261,0.11-0.478,0.304-0.592,0.572l-1.826,4.287c-0.252,0.593,0.081,1.301,0.744,1.583
		c0.663,0.283,1.406,0.031,1.658-0.561l1.522-3.574l3.927-0.585C37.74,38.253,37.809,37.559,38.063,36.884z"/>
	
		<path fill="none" stroke="#FFFFFF" stroke-width="0.3503" stroke-linecap="round" stroke-linejoin="round" stroke-miterlimit="10" d="
		M33.773,45.658c-0.09,0.343-0.068,0.688,0.028,1.019l2.588,2.094"/>
	
		<path fill="none" stroke="#FFFFFF" stroke-width="0.3503" stroke-linecap="round" stroke-linejoin="round" stroke-miterlimit="10" d="
		M40.354,40.826l0.601-2.288c0.305-1.164-0.561-2.399-1.933-2.759"/>
</g>
</svg>
