<?xml version="1.0" encoding="utf-8"?>
<!-- Generator: Adobe Illustrator 16.0.0, SVG Export Plug-In . SVG Version: 6.00 Build 0)  -->
<!DOCTYPE svg PUBLIC "-//W3C//DTD SVG 1.1//EN" "http://www.w3.org/Graphics/SVG/1.1/DTD/svg11.dtd">
<svg version="1.1" id="Layer_1" xmlns="http://www.w3.org/2000/svg" xmlns:xlink="http://www.w3.org/1999/xlink" x="0px" y="0px"
	 width="86px" height="80px" viewBox="0 0 86 80" enable-background="new 0 0 86 80" xml:space="preserve">
<g>
	<g>
		<g>
			<path fill="#F7F2ED" d="M4.859,78.999C2.729,78.999,1,77.272,1,75.151V4.846c0-2.121,1.73-3.851,3.859-3.851h76.279
				c2.131,0,3.86,1.729,3.86,3.851v70.305c0,2.121-1.729,3.848-3.858,3.848H4.859z"/>
			<path fill="#D1D1D1" d="M81.14,2c1.576,0,2.858,1.277,2.858,2.85v70.302c0,1.57-1.282,2.848-2.858,2.848H4.859
				C3.282,77.999,2,76.724,2,75.151V4.849C2,3.277,3.282,2,4.859,2H81.14 M81.14,0H4.859C2.174,0,0,2.171,0,4.849v70.302
				c0,2.676,2.175,4.85,4.859,4.85h76.279c2.687,0,4.86-2.174,4.86-4.85V4.849C85.998,2.171,83.824,0,81.14,0L81.14,0z"/>
		</g>
	</g>
	<g>
		<circle fill="#E5BB70" cx="59.054" cy="19.661" r="5.685"/>
		<g>
			<path fill="#F7F2ED" d="M53.507,20.91c0.805-0.877,1.965-1.369,3.146-1.155c2.4,0.436,2.811,5.276,4.269,5.276l0.36-0.137
				c-1.447-0.011-1.936-5.069-4.567-5.522c-1.222-0.209-2.402,0.338-3.276,1.189L53.507,20.91z"/>
		</g>
		<path fill="#F7F2ED" d="M57.529,25.14c-1.138-0.69-1.37-3.298-0.487-6.098c0.905-2.876,2.658-4.911,4.002-4.708l-0.33-0.11
			c-1.343-0.204-3.094,1.83-4,4.705c-0.889,2.823-0.645,5.452,0.518,6.115L57.529,25.14z"/>
		<g>
			<path fill="#F7F2ED" d="M56.485,14.59c0.393,0.815,0.803,1.411,1.689,1.772c1.532,0.623,3.591-0.569,5.129-0.423l0.277,0.254
				c-2.299,0.21-3.868,1.213-5.554,0.528c-0.974-0.396-1.448-1.056-1.88-1.949L56.485,14.59z"/>
		</g>
		<g>
			<path fill="#F7F2ED" d="M64.329,21.78c-0.887-0.83-2.699-2.068-4.703-3.165c-2.752-1.503-5.306-2.133-5.717-1.387l-0.151,0.35
				c0.411-0.747,2.949-0.12,5.685,1.371c1.988,1.084,3.864,2.361,4.71,3.229L64.329,21.78z"/>
		</g>
	</g>
	<rect x="2.054" y="69.856" fill="#E5BB70" width="81.891" height="3.035"/>
	<g>
		<path fill="#D1D1D1" d="M54.646,60.575c-0.197-0.722-1.668-7.434-2.842-11.15c-0.869-2.751-1.076-4.4-2.185-4.494l-12.548-1.153
			c0,0-1.092,0.661,0.363,1.581c1.706,1.078,6.07,2.586,7.211,4.889c1.395-0.023,1.848-0.039,1.848-0.039l3.316,11.408
			c0.684,2.088,2.115,2.578,3.617,1.957C54.763,63.02,54.943,62.097,54.646,60.575z"/>
		<g>
			<path fill="#D1D1D1" d="M49.039,22.239c-1.075-0.684-2.248,0-3.039,1.107l-3.878,5.438l-6.9,2.229
				c-1.076,0.348-1.646,1.563-1.271,2.72c0.371,1.152,1.545,1.806,2.621,1.458l7.786-2.516c0.007-0.002,0.012-0.005,0.019-0.008
				c0.732-0.132,1.35-0.606,1.557-1.308l4.273-6.757C50.515,23.564,50.063,22.891,49.039,22.239z"/>
			<circle fill="#D1D1D1" cx="32.136" cy="24.336" r="4.677"/>
			<g>
				<path fill="#D1D1D1" d="M32.993,51.587l1.257-4.692c-0.704-0.146-1.401-0.218-2.079-0.218c-0.494,0-0.996,0.037-1.5,0.109
					l0.902,3.367C31.922,50.78,32.382,51.322,32.993,51.587z"/>
				<path fill="#D1D1D1" d="M39.452,51.597c0.533-0.012,1.07-0.021,1.596-0.032c-0.201-0.313-0.414-0.62-0.65-0.913L39.452,51.597z"
					/>
				<path fill="#D1D1D1" d="M34.941,51.712c0.476-0.017,1.071-0.034,1.74-0.052l2.392-2.392c-0.893-0.777-1.894-1.389-2.988-1.828
					L34.941,51.712z"/>
				<path fill="#D1D1D1" d="M53.739,61.844c-0.191-0.783-1.668-7.435-2.842-11.15c-0.869-2.751-1.075-4.4-2.184-4.495l-10.531-1.152
					l-0.016-11.659c-0.16-2.017-2.219-3.499-4.598-3.312c-2.38,0.188-4.176,1.975-4.016,3.991l0.829,10.378
					c0.586-0.082,1.18-0.139,1.788-0.139c5.072,0,9.457,2.945,11.568,7.209c1.396-0.023,1.848-0.039,1.848-0.039l3.316,11.409
					c0.685,2.087,2.116,2.578,3.617,1.956C53.856,64.288,54.038,63.364,53.739,61.844z"/>
				<g>
					<path fill="#FFFFFF" d="M51.358,65.341c-0.36,0-0.702-0.072-1.018-0.217c-0.754-0.346-1.318-1.074-1.675-2.162l-3.265-11.23
						c-0.248,0.006-0.676-0.037-1.576-0.021l-0.219-0.484c1.389-0.023,1.971,0,1.973,0l0.193-0.006l3.371,11.596
						c0.309,0.941,0.783,1.568,1.406,1.854c0.536,0.247,1.184,0.226,1.875-0.06c1.107-0.459,1.378-1.145,1.069-2.719
						c-0.028-0.112-0.091-0.383-0.179-0.767c-0.457-1.979-1.671-7.235-2.656-10.356c-0.176-0.557-0.324-1.067-0.459-1.53
						c-0.535-1.844-0.824-2.732-1.508-2.791l-10.76-1.178l-0.016-11.882c-0.148-1.857-2.094-3.228-4.328-3.063
						c-1.092,0.087-2.088,0.526-2.804,1.238c-0.706,0.701-1.054,1.583-0.983,2.483l0.83,10.378l-0.498,0.04l-0.83-10.377
						c-0.083-1.051,0.318-2.072,1.129-2.879c0.801-0.796,1.906-1.287,3.117-1.382c2.529-0.192,4.695,1.391,4.865,3.541l0.018,11.454
						l10.309,1.129c1.05,0.09,1.385,1.24,1.939,3.148c0.133,0.459,0.281,0.967,0.455,1.52c0.992,3.139,2.209,8.41,2.666,10.395
						c0.088,0.38,0.15,0.648,0.18,0.771c0.299,1.516,0.179,2.648-1.365,3.287C52.183,65.251,51.759,65.341,51.358,65.341z"/>
				</g>
			</g>
			<path fill="#D1D1D1" d="M35.231,34.067c-0.238,1.094-1.51,1.57-1.248,1.835c0.512,0.513,3.075-0.091,3.759-0.297l7.776-1.632
				c0.267-0.079,0.496-0.215,0.692-0.393c0.407-0.246,0.724-0.621,0.848-1.095l4.035-6.825c0.278-1.049-0.446-2.146-1.619-2.458
				s-2.349,0.286-2.624,1.333l-3.703,5.565l-6.668,1.297C35.444,31.712,35.495,32.884,35.231,34.067z"/>
			<path fill="none" stroke="#FFFFFF" stroke-width="0.4205" stroke-miterlimit="10" d="M34.78,36.206
				c1.037-0.166,2.447-0.512,2.838-0.629l7.9-1.604c0.267-0.079,0.496-0.215,0.692-0.393c0.407-0.246,4.883-7.92,4.883-7.92
				c0.392-1.173-0.446-2.146-1.619-2.458s-1.804,0.307-2.624,1.333l-3.703,5.565l-6.33,1.133"/>
		</g>
		<circle fill="none" stroke="#98702A" stroke-width="0.9139" stroke-miterlimit="10" cx="32.171" cy="57.22" r="1.371"/>
		<path fill="#A2A2A3" d="M32.171,44.806c-6.846,0-12.414,5.568-12.414,12.414s5.568,12.414,12.414,12.414
			s12.414-5.568,12.414-12.414S39.017,44.806,32.171,44.806z M43.214,57.22c0,0.803-0.09,1.584-0.254,2.338l-8.719-2.336
			l8.719-2.338C43.124,55.638,43.214,56.419,43.214,57.22z M42.732,53.999l-8.729,2.34l6.426-6.426
			C41.466,51.083,42.265,52.468,42.732,53.999z M33.358,55.69l2.386-8.909c1.53,0.525,2.907,1.374,4.052,2.47L33.358,55.69z
			 M34.867,46.522l-2.392,8.93l-2.43-9.066c0.688-0.135,1.397-0.209,2.125-0.209C33.103,46.177,34.003,46.305,34.867,46.522z
			 M31.595,55.694l-6.732-6.732c1.223-1.082,2.683-1.898,4.296-2.357L31.595,55.694z M24.202,49.595l6.743,6.744l-9.288-2.489
			C22.176,52.237,23.058,50.79,24.202,49.595z M21.421,54.732l9.289,2.489l-9.289,2.489c-0.186-0.802-0.293-1.634-0.293-2.491
			C21.128,56.364,21.235,55.533,21.421,54.732z M21.659,60.594l9.286-2.489l-6.741,6.742C23.06,63.652,22.177,62.205,21.659,60.594z
			 M31.593,58.749l-2.433,9.086c-1.613-0.457-3.073-1.273-4.296-2.355L31.593,58.749z M30.048,68.054l2.429-9.07l2.395,8.932
			c-0.866,0.219-1.768,0.348-2.7,0.348C31.444,68.263,30.735,68.188,30.048,68.054z M33.361,58.755l6.435,6.434
			c-1.143,1.095-2.52,1.943-4.048,2.469L33.361,58.755z M40.429,64.528l-6.424-6.424l8.727,2.338
			C42.264,61.974,41.465,63.358,40.429,64.528z"/>
		<g>
			<path fill="#A2A2A3" d="M36.123,52.219c-0.47,0.007-0.918,0.014-1.322,0.019l-0.477,1.781L36.123,52.219z"/>
			<path fill="#A2A2A3" d="M36.174,54.875c0.47-0.007,0.948-0.013,1.427-0.019l4.49-1.203c-0.189-0.524-0.422-1.029-0.693-1.517
				c-0.615,0.01-1.525,0.024-2.525,0.04L36.174,54.875z"/>
			<path fill="#A2A2A3" d="M32.814,52.257c-0.228-0.004-0.462-0.019-0.694-0.066l0.355,1.33L32.814,52.257z"/>
			<path fill="#A2A2A3" d="M26.614,48.288c0.172,0.876,0.326,1.627,0.445,2.164l3.569,3.569l-1.819-6.785
				C28.042,47.496,27.307,47.856,26.614,48.288z"/>
			<path fill="#A2A2A3" d="M29.003,44.714c-0.557-3.297-1.234-7.448-1.234-7.448c-0.004-0.394-0.719-0.704-1.6-0.696
				c-0.881,0.006-1.593,0.331-1.586,0.723c0,0,0.815,4.587,1.556,8.518C27.035,45.333,27.997,44.97,29.003,44.714z"/>
		</g>
	</g>
	<path fill="#A2A2A3" d="M48.595,65.635l-3.28-13.062c-0.11-0.438-0.551-0.727-1.085-0.765c0.713,1.601,1.117,3.368,1.117,5.23
		c0,1.521-0.279,2.976-0.765,4.333l1.099,4.363c0.148,0.588,1.123,0.723,1.887,0.529C48.333,66.072,48.743,66.224,48.595,65.635z"/>
	<path fill="#A2A2A3" d="M54.837,66.891c0,0.415-0.422,0.688-0.804,0.688h-7.312c-0.256,0-0.557-0.132-0.676-0.355
		c-0.061-0.111-0.352-1.463-0.441-1.841c-0.053-0.222,0.806,0.056,1.037,0.056h7.312c0.382,0,0.692,0.338,0.692,0.754L54.837,66.891
		z"/>
</g>
</svg>
