<?xml version="1.0" encoding="utf-8"?>
<!-- Generator: Adobe Illustrator 16.0.0, SVG Export Plug-In . SVG Version: 6.00 Build 0)  -->
<!DOCTYPE svg PUBLIC "-//W3C//DTD SVG 1.1//EN" "http://www.w3.org/Graphics/SVG/1.1/DTD/svg11.dtd">
<svg version="1.1" id="Layer_1" xmlns="http://www.w3.org/2000/svg" xmlns:xlink="http://www.w3.org/1999/xlink" x="0px" y="0px"
	 width="86px" height="80px" viewBox="0 0 86 80" enable-background="new 0 0 86 80" xml:space="preserve">
<g>
	<g>
		<path fill="#F7F2ED" d="M4.859,79C2.729,79,1,77.271,1,75.152V4.846c0-2.121,1.729-3.851,3.859-3.851h76.278
			c2.131,0,3.86,1.729,3.86,3.851v70.306c0,2.119-1.729,3.848-3.858,3.848H4.859z"/>
		<path fill="#D1D1D1" d="M81.14,2c1.576,0,2.858,1.277,2.858,2.85v70.303c0,1.57-1.282,2.848-2.858,2.848H4.859
			C3.281,78,2,76.723,2,75.152V4.849C2,3.277,3.281,2,4.859,2H81.14 M81.14,0H4.859C2.174,0,0,2.171,0,4.849v70.303
			C0,77.828,2.175,80,4.859,80h76.278c2.687,0,4.86-2.172,4.86-4.848V4.849C85.998,2.171,83.824,0,81.14,0L81.14,0z"/>
	</g>
</g>
<g enable-background="new    ">
	<path fill="#374537" d="M29.83,67.64c0-0.363-0.108-0.66-0.325-0.89c-0.217-0.229-0.488-0.434-0.813-0.611
		c-0.325-0.178-0.678-0.345-1.06-0.501c-0.381-0.155-0.734-0.344-1.06-0.565c-0.325-0.221-0.596-0.494-0.813-0.818
		c-0.217-0.325-0.325-0.739-0.325-1.242c0-0.71,0.247-1.273,0.741-1.689s1.196-0.624,2.106-0.624c0.528,0,1.009,0.039,1.443,0.117
		s0.771,0.178,1.014,0.299l-0.325,0.962c-0.199-0.099-0.492-0.192-0.877-0.282c-0.386-0.089-0.821-0.134-1.307-0.134
		c-0.572,0-1.001,0.128-1.287,0.384c-0.286,0.256-0.429,0.557-0.429,0.903c0,0.338,0.108,0.619,0.325,0.845
		c0.216,0.226,0.487,0.427,0.813,0.604c0.325,0.178,0.678,0.354,1.06,0.526c0.381,0.174,0.734,0.375,1.059,0.604
		c0.325,0.23,0.596,0.505,0.813,0.826c0.217,0.32,0.325,0.719,0.325,1.195c0,0.391-0.069,0.741-0.208,1.054
		c-0.139,0.312-0.342,0.58-0.611,0.806c-0.269,0.226-0.594,0.398-0.975,0.52c-0.381,0.122-0.815,0.183-1.3,0.183
		c-0.65,0-1.188-0.05-1.612-0.149s-0.754-0.21-0.988-0.332l0.364-0.962c0.199,0.109,0.494,0.218,0.884,0.323
		c0.39,0.105,0.827,0.158,1.313,0.158c0.286,0,0.554-0.028,0.806-0.085c0.251-0.056,0.468-0.147,0.65-0.272
		c0.182-0.126,0.327-0.284,0.435-0.475S29.83,67.9,29.83,67.64z"/>
	<path fill="#374537" d="M32.625,60.945c0.329-0.078,0.685-0.13,1.066-0.156s0.758-0.039,1.131-0.039
		c0.399,0,0.804,0.039,1.216,0.117s0.787,0.221,1.125,0.429s0.613,0.494,0.825,0.858s0.319,0.827,0.319,1.391
		c0,0.555-0.1,1.022-0.299,1.404s-0.463,0.691-0.793,0.93c-0.329,0.238-0.707,0.409-1.131,0.514
		c-0.425,0.104-0.862,0.155-1.313,0.155c-0.043,0-0.115,0-0.214,0c-0.1,0-0.204-0.002-0.312-0.006
		c-0.108-0.005-0.215-0.011-0.319-0.02s-0.178-0.018-0.221-0.026v3.458h-1.079V60.945z M34.848,61.687
		c-0.226,0-0.442,0.004-0.65,0.013s-0.373,0.03-0.494,0.064v3.771c0.043,0.018,0.112,0.028,0.208,0.032
		c0.095,0.005,0.195,0.009,0.299,0.014c0.104,0.004,0.204,0.006,0.299,0.006c0.095,0,0.164,0,0.208,0
		c0.294,0,0.587-0.028,0.877-0.084c0.29-0.057,0.552-0.158,0.786-0.306c0.234-0.147,0.423-0.355,0.566-0.624
		c0.143-0.269,0.214-0.611,0.214-1.027c0-0.355-0.067-0.651-0.202-0.891c-0.134-0.238-0.312-0.429-0.533-0.571
		c-0.221-0.144-0.47-0.245-0.748-0.306C35.402,61.717,35.125,61.687,34.848,61.687z"/>
	<path fill="#374537" d="M39.293,65.404c0-1.517,0.32-2.681,0.962-3.49c0.641-0.811,1.556-1.216,2.743-1.216
		c0.641,0,1.196,0.112,1.664,0.338c0.469,0.226,0.855,0.544,1.164,0.955c0.307,0.412,0.535,0.906,0.682,1.482
		c0.148,0.576,0.222,1.22,0.222,1.931c0,1.517-0.323,2.68-0.969,3.49s-1.566,1.216-2.762,1.216c-0.633,0-1.181-0.113-1.645-0.338
		c-0.464-0.226-0.85-0.544-1.157-0.956c-0.308-0.411-0.535-0.905-0.682-1.481C39.367,66.759,39.293,66.115,39.293,65.404z
		 M40.438,65.404c0,0.503,0.05,0.979,0.149,1.43c0.1,0.451,0.253,0.848,0.461,1.189c0.208,0.343,0.475,0.615,0.8,0.819
		c0.325,0.203,0.708,0.306,1.15,0.306c0.806,0,1.439-0.306,1.898-0.917s0.689-1.554,0.689-2.827c0-0.494-0.051-0.969-0.15-1.424
		s-0.256-0.854-0.468-1.196c-0.212-0.342-0.481-0.615-0.806-0.818c-0.325-0.204-0.713-0.306-1.164-0.306
		c-0.797,0-1.424,0.306-1.878,0.916C40.665,63.188,40.438,64.13,40.438,65.404z"/>
	<path fill="#374537" d="M48.563,60.945c0.329-0.061,0.709-0.108,1.138-0.144c0.429-0.034,0.821-0.052,1.177-0.052
		c0.398,0,0.777,0.044,1.137,0.13c0.359,0.087,0.676,0.229,0.949,0.43c0.273,0.199,0.492,0.459,0.656,0.779
		c0.165,0.321,0.248,0.711,0.248,1.17c0,0.711-0.195,1.287-0.586,1.729c-0.39,0.441-0.884,0.736-1.482,0.884l0.625,0.481
		l2.262,3.601h-1.262l-2.508-3.926l-1.274-0.195v4.121h-1.079V60.945z M50.902,61.687c-0.113,0-0.229,0-0.351,0
		c-0.122,0-0.239,0.004-0.351,0.013c-0.113,0.009-0.22,0.018-0.319,0.026c-0.1,0.008-0.18,0.021-0.24,0.038v3.354h1.015
		c0.598,0,1.092-0.147,1.481-0.442c0.39-0.294,0.585-0.754,0.585-1.378c0-0.468-0.16-0.854-0.48-1.157
		C51.921,61.838,51.475,61.687,50.902,61.687z"/>
	<path fill="#374537" d="M61.381,61.816h-2.834v8.138h-1.08v-8.138h-2.834v-0.962h6.748V61.816z"/>
</g>
<g>
	<circle fill="#D1D1D1" cx="44.275" cy="30.077" r="13.352"/>
	<g>
		<path fill="#A2A2A3" d="M31.248,33.01c1.892-2.059,4.615-3.215,7.392-2.711c5.636,1.021,6.601,12.391,10.024,12.391l0.846-0.322
			c-3.398-0.027-4.546-11.906-10.727-12.969c-2.869-0.492-5.643,0.793-7.692,2.793L31.248,33.01z"/>
	</g>
	<path fill="#A2A2A3" d="M40.697,42.943c-2.672-1.621-3.218-7.746-1.146-14.32c2.127-6.754,6.244-11.535,9.398-11.057l-0.772-0.26
		c-3.155-0.479-7.269,4.299-9.396,11.051c-2.086,6.629-1.515,12.803,1.217,14.361L40.697,42.943z"/>
	<g>
		<path fill="#A2A2A3" d="M38.244,18.167c0.924,1.915,1.885,3.313,3.968,4.163c3.6,1.463,8.434-1.336,12.047-0.992l0.649,0.596
			c-5.398,0.494-9.084,2.85-13.041,1.24c-2.287-0.93-3.402-2.48-4.416-4.576L38.244,18.167z"/>
	</g>
	<g>
		<path fill="#A2A2A3" d="M56.666,35.053c-2.082-1.949-6.34-4.857-11.047-7.432c-6.461-3.531-12.459-5.01-13.426-3.258l-0.354,0.82
			c0.965-1.754,6.926-0.281,13.35,3.221c4.67,2.547,9.076,5.547,11.061,7.584L56.666,35.053z"/>
	</g>
</g>
<g>
	<rect x="2.054" y="46.686" fill="#C99E48" width="81.892" height="4.49"/>
</g>
</svg>
