<?xml version="1.0" encoding="utf-8"?>
<!-- Generator: Adobe Illustrator 16.0.0, SVG Export Plug-In . SVG Version: 6.00 Build 0)  -->
<!DOCTYPE svg PUBLIC "-//W3C//DTD SVG 1.1//EN" "http://www.w3.org/Graphics/SVG/1.1/DTD/svg11.dtd">
<svg version="1.1" id="Layer_1" xmlns="http://www.w3.org/2000/svg" xmlns:xlink="http://www.w3.org/1999/xlink" x="0px" y="0px"
	 width="86px" height="80px" viewBox="0 0 86 80" enable-background="new 0 0 86 80" xml:space="preserve">
<g>
	<g>
		<path fill="#F7F2ED" d="M86,75.146c0,2.681-2.182,4.851-4.863,4.851H4.861c-2.687,0-4.859-2.172-4.859-4.851v-70.3
			c0-2.679,2.174-4.851,4.859-4.851h76.276C83.82-0.005,86,2.165,86,4.846V75.146L86,75.146z"/>
	</g>
	<g>
		<g>
			<path fill="#D1D1D1" d="M81.137,1.995C82.715,1.995,84,3.274,84,4.846v70.3C84,76.721,82.715,78,81.137,78H4.861
				c-1.576-0.001-2.859-1.279-2.859-2.854v-70.3c0-1.571,1.283-2.851,2.859-2.851H81.137 M81.137-0.005H4.861
				c-2.687,0-4.859,2.172-4.859,4.851v70.3C0.002,77.828,2.176,80,4.861,80h76.276C83.818,80,86,77.83,86,75.146v-70.3
				C86,2.167,83.82-0.005,81.137-0.005L81.137-0.005z"/>
		</g>
	</g>
</g>
<g enable-background="new    ">
	<path fill="#374537" d="M31.697,66.152h-0.644v3.15h-1.12v-7h1.12v3.164l0.602-0.197l2.24-2.967h1.218l-2.17,2.814l-0.588,0.461
		l0.728,0.561l2.338,3.164h-1.386L31.697,66.152z"/>
	<path fill="#374537" d="M40.713,63.283h-2.968v6.02h-1.12v-7h4.088V63.283z"/>
	<path fill="#374537" d="M45.305,59.334l0.883,0.393l-5.11,11.535l-0.882-0.391L45.305,59.334z"/>
	<path fill="#374537" d="M52.529,65.145l0.084-1.33h-0.07l-0.504,1.078l-1.694,2.744h-0.392l-1.764-2.744l-0.463-1.078h-0.056
		l0.112,1.316v4.172h-1.036v-7h1.106l1.959,3.135l0.406,0.813h0.028l0.42-0.84l1.834-3.107h1.12v7h-1.092V65.145z"/>
</g>
<g enable-background="new    ">
	<path fill="#374537" d="M58.34,60.225c0,0.289-0.053,0.584-0.159,0.886s-0.245,0.605-0.416,0.91
		c-0.172,0.305-0.363,0.603-0.576,0.894c-0.212,0.291-0.424,0.567-0.637,0.828l-0.399,0.352v0.033l0.522-0.09h1.779v0.604h-3.249
		v-0.236c0.12-0.125,0.265-0.281,0.433-0.466c0.169-0.185,0.345-0.39,0.526-0.616c0.183-0.226,0.362-0.465,0.539-0.719
		c0.177-0.252,0.338-0.51,0.481-0.771c0.145-0.261,0.26-0.52,0.347-0.775c0.088-0.256,0.131-0.498,0.131-0.727
		c0-0.267-0.076-0.488-0.229-0.665S57.05,59.4,56.74,59.4c-0.207,0-0.408,0.043-0.604,0.127c-0.195,0.084-0.364,0.181-0.506,0.289
		l-0.27-0.465c0.19-0.163,0.416-0.291,0.678-0.383c0.261-0.094,0.541-0.14,0.841-0.14c0.233,0,0.44,0.034,0.62,0.103
		s0.332,0.164,0.457,0.289s0.221,0.273,0.286,0.445C58.307,59.838,58.34,60.023,58.34,60.225z"/>
</g>
<g>
	<rect x="38.299" y="18.281" fill="#B5B5B5" width="9.404" height="5.456"/>
	<path fill="#C5C3C2" d="M51.135,18.642c0,0.588-0.477,1.064-1.064,1.064H35.933c-0.588,0-1.065-0.477-1.065-1.064v-3.46
		c0-0.588,0.478-1.064,1.065-1.064H50.07c0.588,0,1.063,0.477,1.063,1.064L51.135,18.642L51.135,18.642z"/>
	<path fill="#C5C3C2" d="M53.447,44.994c0,1.172-0.953,2.123-2.129,2.123H34.686c-1.176,0-2.13-0.951-2.13-2.123v-19.59
		c0-1.171,0.954-2.122,2.13-2.122h16.632c1.177,0,2.13,0.951,2.13,2.122L53.447,44.994L53.447,44.994z"/>
	<g>
		<path fill="#F6F1EC" d="M39.693,35.219h-0.588v2.875h-1.021v-6.388h1.021v2.888l0.549-0.18l2.044-2.708h1.111l-1.979,2.567
			l-0.537,0.422l0.664,0.512l2.134,2.887h-1.265L39.693,35.219z"/>
		<path fill="#F6F1EC" d="M47.92,32.6h-2.709v5.494h-1.021v-6.388h3.73V32.6z"/>
	</g>
</g>
<g>
	<rect x="15.806" y="50.236" fill="#C99E48" width="54.392" height="3.475"/>
</g>
</svg>
