<?xml version="1.0" encoding="utf-8"?>
<!-- Generator: Adobe Illustrator 16.0.0, SVG Export Plug-In . SVG Version: 6.00 Build 0)  -->
<!DOCTYPE svg PUBLIC "-//W3C//DTD SVG 1.1//EN" "http://www.w3.org/Graphics/SVG/1.1/DTD/svg11.dtd">
<svg version="1.1" id="Layer_1" xmlns="http://www.w3.org/2000/svg" xmlns:xlink="http://www.w3.org/1999/xlink" x="0px" y="0px"
	 width="86px" height="80px" viewBox="0 0 86 80" enable-background="new 0 0 86 80" xml:space="preserve">
<g>
	<g>
		<g>
			<path fill="#F7F2ED" d="M4.861,79c-2.13,0-3.859-1.729-3.859-3.848V4.847c0-2.121,1.729-3.851,3.859-3.851h76.279
				C83.271,0.996,85,2.726,85,4.847v70.306C85,77.271,83.271,79,81.143,79H4.861z"/>
			<path fill="#D1D1D1" d="M81.143,2C82.719,2,84,3.277,84,4.85v70.303C84,76.723,82.719,78,81.143,78H4.861
				c-1.577,0-2.859-1.277-2.859-2.848V4.85C2.002,3.277,3.284,2,4.861,2H81.143 M81.143,0H4.861C2.177,0,0.002,2.172,0.002,4.85
				v70.303C0.002,77.828,2.177,80,4.861,80h76.279C83.826,80,86,77.828,86,75.152V4.85C86,2.172,83.826,0,81.143,0L81.143,0z"/>
		</g>
	</g>
	<g enable-background="new    ">
		<path fill="#374537" d="M29.832,67.641c0-0.363-0.108-0.66-0.324-0.891c-0.217-0.229-0.488-0.434-0.813-0.611
			c-0.326-0.178-0.679-0.344-1.061-0.5c-0.381-0.156-0.734-0.344-1.059-0.566c-0.326-0.221-0.597-0.494-0.813-0.818
			c-0.217-0.324-0.326-0.738-0.326-1.242c0-0.709,0.248-1.273,0.742-1.689s1.195-0.623,2.105-0.623c0.528,0,1.01,0.039,1.443,0.117
			s0.771,0.178,1.014,0.299l-0.325,0.961c-0.199-0.098-0.491-0.191-0.878-0.281c-0.385-0.09-0.82-0.135-1.307-0.135
			c-0.571,0-1,0.129-1.286,0.385s-0.429,0.557-0.429,0.902c0,0.338,0.107,0.619,0.324,0.846c0.217,0.225,0.488,0.426,0.813,0.604
			c0.325,0.178,0.678,0.354,1.061,0.527c0.381,0.174,0.734,0.375,1.059,0.604c0.325,0.23,0.596,0.506,0.813,0.826
			s0.325,0.719,0.325,1.195c0,0.391-0.069,0.742-0.208,1.055c-0.139,0.311-0.342,0.58-0.611,0.805
			c-0.269,0.227-0.594,0.398-0.975,0.52c-0.381,0.123-0.814,0.184-1.3,0.184c-0.65,0-1.188-0.051-1.612-0.15
			s-0.754-0.209-0.988-0.332l0.364-0.961c0.199,0.109,0.494,0.217,0.884,0.322c0.391,0.105,0.828,0.158,1.313,0.158
			c0.286,0,0.554-0.027,0.806-0.084s0.469-0.148,0.65-0.273s0.326-0.283,0.436-0.475C29.777,68.127,29.832,67.9,29.832,67.641z"/>
		<path fill="#374537" d="M32.627,60.945c0.329-0.078,0.685-0.129,1.066-0.156c0.381-0.025,0.758-0.039,1.131-0.039
			c0.398,0,0.804,0.039,1.215,0.117c0.412,0.078,0.787,0.221,1.125,0.43c0.338,0.207,0.613,0.494,0.825,0.857
			c0.212,0.365,0.319,0.828,0.319,1.391c0,0.555-0.101,1.023-0.3,1.404c-0.199,0.383-0.464,0.691-0.793,0.93
			s-0.706,0.41-1.131,0.514s-0.862,0.156-1.313,0.156c-0.043,0-0.114,0-0.214,0c-0.101,0-0.204-0.002-0.312-0.006
			c-0.109-0.006-0.215-0.012-0.319-0.02c-0.104-0.01-0.178-0.018-0.221-0.027v3.459h-1.079V60.945z M34.85,61.688
			c-0.225,0-0.441,0.004-0.649,0.012c-0.208,0.01-0.373,0.031-0.494,0.064v3.771c0.043,0.018,0.112,0.027,0.208,0.031
			c0.096,0.006,0.195,0.01,0.299,0.014s0.203,0.006,0.299,0.006s0.164,0,0.209,0c0.294,0,0.586-0.027,0.877-0.084
			c0.29-0.057,0.553-0.158,0.786-0.305c0.234-0.148,0.423-0.355,0.565-0.625c0.143-0.268,0.215-0.611,0.215-1.027
			c0-0.355-0.067-0.65-0.201-0.891c-0.135-0.238-0.313-0.428-0.533-0.57c-0.221-0.145-0.471-0.246-0.748-0.307
			S35.127,61.688,34.85,61.688z"/>
		<path fill="#374537" d="M39.296,65.404c0-1.516,0.32-2.68,0.962-3.49c0.641-0.811,1.556-1.215,2.743-1.215
			c0.642,0,1.196,0.111,1.664,0.338c0.468,0.225,0.855,0.543,1.163,0.955s0.535,0.906,0.683,1.482s0.222,1.219,0.222,1.93
			c0,1.518-0.324,2.68-0.969,3.49c-0.646,0.811-1.566,1.217-2.763,1.217c-0.633,0-1.181-0.113-1.645-0.338
			c-0.464-0.227-0.85-0.545-1.157-0.957c-0.308-0.41-0.535-0.904-0.682-1.48C39.369,66.76,39.296,66.115,39.296,65.404z
			 M40.439,65.404c0,0.504,0.051,0.98,0.15,1.43c0.1,0.451,0.253,0.848,0.461,1.189c0.208,0.344,0.475,0.615,0.8,0.82
			c0.325,0.203,0.708,0.305,1.15,0.305c0.806,0,1.438-0.305,1.897-0.916s0.689-1.555,0.689-2.828c0-0.494-0.05-0.969-0.149-1.424
			s-0.256-0.854-0.468-1.195c-0.213-0.342-0.481-0.615-0.807-0.818c-0.324-0.205-0.713-0.307-1.163-0.307
			c-0.798,0-1.424,0.307-1.878,0.916C40.668,63.188,40.439,64.131,40.439,65.404z"/>
		<path fill="#374537" d="M48.564,60.945c0.33-0.061,0.709-0.107,1.139-0.143c0.428-0.035,0.82-0.053,1.176-0.053
			c0.398,0,0.777,0.045,1.138,0.131c0.359,0.086,0.676,0.229,0.948,0.43c0.273,0.199,0.492,0.459,0.657,0.779
			s0.247,0.711,0.247,1.17c0,0.711-0.195,1.287-0.585,1.729s-0.884,0.736-1.482,0.885l0.624,0.48l2.262,3.602h-1.261l-2.509-3.926
			l-1.273-0.195v4.121h-1.08V60.945z M50.904,61.688c-0.112,0-0.229,0-0.35,0c-0.122,0-0.239,0.004-0.352,0.012
			c-0.113,0.01-0.219,0.018-0.318,0.027c-0.1,0.008-0.18,0.021-0.24,0.037v3.355h1.014c0.598,0,1.092-0.148,1.482-0.443
			c0.389-0.293,0.584-0.754,0.584-1.377c0-0.469-0.16-0.854-0.48-1.158C51.924,61.838,51.477,61.688,50.904,61.688z"/>
		<path fill="#374537" d="M61.383,61.816h-2.834v8.139H57.47v-8.139h-2.834v-0.961h6.747V61.816z"/>
	</g>
	<g>
		<path fill="#A2A2A3" d="M65.01,47.566c0,0.152-0.201,0.273-0.45,0.273H23.738c-0.248,0-0.449-0.121-0.449-0.273V46.66
			c0-0.148,0.201-0.271,0.449-0.271H64.56c0.249,0,0.45,0.123,0.45,0.271V47.566z"/>
		<g>
			<path fill="#C99E48" d="M65.01,45.012c0,0.201-0.111,0.361-0.251,0.361H23.554c-0.138,0-0.251-0.16-0.251-0.361
				c0,0,9.438-5.732,9.576-5.732H55.69C55.828,39.28,65.01,45.012,65.01,45.012z"/>
			<polygon fill="#FFFFFF" points="37.885,45.373 36.127,45.373 39.501,39.249 40.096,39.249 			"/>
			<polygon fill="#FFFFFF" points="50.709,45.373 52.465,45.373 49.092,39.249 48.498,39.249 			"/>
			<rect x="36.127" y="45.373" fill="#FFFFFF" width="1.758" height="6.023"/>
			<rect x="50.709" y="45.373" fill="#FFFFFF" width="1.756" height="6.023"/>
		</g>
		<g>
			<circle fill="#D1D1D1" cx="44.149" cy="29.524" r="12.659"/>
			<g>
				<path fill="#A2A2A3" d="M31.797,32.303c1.795-1.952,4.377-3.049,7.009-2.571c5.343,0.97,6.257,11.749,9.505,11.749l0.8-0.309
					c-3.22-0.025-4.308-11.287-10.167-12.292c-2.723-0.469-5.351,0.751-7.295,2.646L31.797,32.303z"/>
			</g>
			<path fill="#A2A2A3" d="M40.756,41.723c-2.533-1.539-3.049-7.345-1.087-13.579c2.017-6.404,5.919-10.937,8.911-10.482
				l-0.729-0.247c-2.993-0.456-6.894,4.076-8.911,10.478c-1.979,6.285-1.436,12.137,1.154,13.615L40.756,41.723z"/>
			<g>
				<path fill="#A2A2A3" d="M38.432,18.23c0.875,1.814,1.785,3.144,3.76,3.946c3.414,1.387,7.996-1.268,11.424-0.941l0.617,0.566
					c-5.122,0.468-8.611,2.701-12.366,1.175c-2.167-0.881-3.226-2.351-4.186-4.337L38.432,18.23z"/>
			</g>
			<g>
				<path fill="#A2A2A3" d="M55.898,34.239c-1.973-1.846-6.014-4.605-10.477-7.044c-6.124-3.348-11.811-4.751-12.727-3.09
					l-0.336,0.78c0.914-1.661,6.566-0.267,12.657,3.052c4.429,2.414,8.606,5.258,10.486,7.191L55.898,34.239z"/>
			</g>
		</g>
		<path fill="#D1D1D1" d="M65.01,50.668c0,0.24-0.201,0.436-0.45,0.436H23.738c-0.248,0-0.449-0.195-0.449-0.436v-1.451
			c0-0.24,0.201-0.434,0.449-0.434H64.56c0.249,0,0.45,0.193,0.45,0.434V50.668z"/>
	</g>
</g>
</svg>
