<?xml version="1.0" encoding="utf-8"?>
<!-- Generator: Adobe Illustrator 16.0.0, SVG Export Plug-In . SVG Version: 6.00 Build 0)  -->
<!DOCTYPE svg PUBLIC "-//W3C//DTD SVG 1.1//EN" "http://www.w3.org/Graphics/SVG/1.1/DTD/svg11.dtd">
<svg version="1.1" id="Layer_1" xmlns="http://www.w3.org/2000/svg" xmlns:xlink="http://www.w3.org/1999/xlink" x="0px" y="0px"
	 width="86px" height="80px" viewBox="0 0 86 80" enable-background="new 0 0 86 80" xml:space="preserve">
<g>
	<g>
		<path fill="#F7F2ED" d="M4.861,79c-2.129,0-3.859-1.728-3.859-3.848V4.847c0-2.121,1.73-3.851,3.859-3.851h76.279
			C83.271,0.996,85,2.726,85,4.847v70.306C85,77.272,83.271,79,81.143,79H4.861z"/>
		<path fill="#D1D1D1" d="M81.143,2C82.719,2,84,3.277,84,4.85v70.303C84,76.723,82.719,78,81.143,78H4.861
			c-1.577,0-2.859-1.276-2.859-2.848V4.85C2.002,3.277,3.284,2,4.861,2H81.143 M81.143,0H4.861C2.176,0,0.002,2.172,0.002,4.85
			v70.303c0,2.676,2.175,4.849,4.859,4.849h76.279c2.686,0,4.859-2.173,4.859-4.849V4.85C86,2.172,83.826,0,81.143,0L81.143,0z"/>
	</g>
</g>
<rect x="2.66" y="65.879" fill="#E5BB70" width="81.891" height="3.966"/>
<g>
	<path fill="none" stroke="#A2A1A2" stroke-width="0.8244" stroke-miterlimit="10" d="M29.43,28.92
		c-4.84-2.311-8.441-5.487-10.105-9.072"/>
	<g>
		<path fill="#C8C3BD" d="M34.475,17.184c1.151-1.308,1.979-3.091,0.238-4.627c-1.652-1.455-3.406-0.489-4.561,0.816L34.475,17.184z
			"/>
		
			<rect x="31.447" y="12.979" transform="matrix(0.66 -0.7512 0.7512 0.66 -1.0969 29.2831)" fill="#E5BB70" width="0.718" height="5.749"/>
		<g>
			<g>
				<path fill="#A2A2A3" d="M23.084,18.013c0,0,0.639-0.202,0.708-0.113c0.866,1.11,1.882,2.182,3.022,3.188
					c1.239,1.093,2.533,2.028,3.85,2.778c0.096,0.055-0.016,0.714-0.016,0.714c-1.455-0.801-2.887-1.816-4.252-3.021
					C25.135,20.447,24.02,19.254,23.084,18.013z"/>
			</g>
			<g>
				<polygon fill="#D1D1D1" points="33.06,18.287 32.771,18.034 26.122,34.189 27.994,35.992 				"/>
				<polygon fill="#D1D1D1" points="23.112,34.084 32.156,17.491 32.396,17.704 25.501,34.018 				"/>
				<polygon fill="#D1D1D1" points="21.166,31.476 18.696,30.889 31.207,16.655 31.395,16.82 				"/>
				<polygon fill="#D1D1D1" points="14.979,26.707 14.746,24.338 29.932,15.529 30.128,15.704 				"/>
				<polygon fill="#D1D1D1" points="17.313,27.933 14.986,26.776 14.979,26.707 30.128,15.704 30.51,16.04 				"/>
				<polygon fill="#D1D1D1" points="29.271,14.947 12.24,22.234 14.263,23.865 29.548,15.191 				"/>
				<polygon fill="#D1D1D1" points="18.696,30.889 18.638,30.876 17.853,28.555 30.859,16.347 31.207,16.655 				"/>
				<polygon fill="#D1D1D1" points="23.053,34.084 21.613,31.92 31.844,17.215 32.156,17.491 23.112,34.084 				"/>
			</g>
		</g>
	</g>
</g>
<g>
	<path fill="#D1D1D1" d="M61.678,63.207l-0.023,2.447l0.879,0.009l0.031-3.421C62.281,62.575,61.988,62.899,61.678,63.207z"/>
	<path fill="#D1D1D1" d="M84.619,29.111v-0.85H77.89l0.069-7.323h5.852v-0.85h-5.843l0.057-5.943l-0.879-0.009l-0.057,5.952h-6.503
		l0.057-5.943l-0.879-0.009l-0.057,5.952h-6.739l0.057-5.943l-0.879-0.009l-0.057,5.952H55.35l0.057-5.943l-0.879-0.009
		l-0.057,5.952h-2.16v0.85h2.151l-0.069,7.323h-5.975v0.85h5.967l-0.07,7.322h-4.17v0.85h4.162l-0.004,0.422
		c0.296,0.064,0.587,0.144,0.876,0.226l0.007-0.647h6.739l-0.044,4.645c0.302,0.311,0.595,0.629,0.869,0.965l0.054-5.609h6.739
		l-0.069,7.321h-5.526c0.17,0.279,0.338,0.56,0.491,0.85h5.026l-0.069,7.321l-3.244,0.001c-0.006,0.286-0.021,0.568-0.043,0.85
		l3.278-0.001l-0.069,7.323h-5.759c-0.199,0.293-0.416,0.571-0.635,0.85h6.385l-0.036,3.856l0.879,0.009l0.037-3.865h6.502
		l-0.036,3.856l0.879,0.009l0.036-3.865h6.409v-0.85h-6.4l0.069-7.325l6.497-0.002v-0.85l-6.488,0.002l0.069-7.319h6.085v-0.85
		h-6.076l0.069-7.321h6.175v-0.85h-6.167l0.07-7.322H84.619z M61.933,36.434h-6.739l0.07-7.322h6.738L61.933,36.434z M62.011,28.262
		h-6.739l0.069-7.323h6.739L62.011,28.262z M69.551,36.434h-6.739l0.07-7.322h6.739L69.551,36.434z M69.629,28.262H62.89
		l0.069-7.323h6.74L69.629,28.262z M76.699,60.948h-6.503l0.069-7.323l6.503-0.002L76.699,60.948z M76.777,52.773l-6.503,0.002
		l0.069-7.321h6.503L76.777,52.773z M76.854,44.604h-6.502l0.069-7.321h6.503L76.854,44.604z M76.933,36.434H70.43l0.07-7.322h6.502
		L76.933,36.434z M77.011,28.262h-6.503l0.07-7.323h6.502L77.011,28.262z"/>
</g>
<path fill="#C99E47" d="M59.02,11.721c-2.225,0-4.182,0.92-5.813,2.734c-3.915,4.353-5.477,13.782-5.961,23.393
	c0.981-0.254,1.999-0.411,3.047-0.463c0.491-9.016,1.919-17.338,5.145-20.923c1.054-1.171,2.226-1.741,3.583-1.741
	c14.824,0,24.678,0.104,24.775,0.104l0.032-3C83.729,11.824,73.861,11.721,59.02,11.721z"/>
<path fill-rule="evenodd" clip-rule="evenodd" fill="#A2A2A3" d="M64.361,51.496c0,0.39,0,0.781,0,1.172
	c-0.008,0.049-0.018,0.098-0.023,0.146c-0.058,0.532-0.083,1.071-0.179,1.598c-0.571,3.148-2.083,5.774-4.513,7.844
	c-2.838,2.419-6.145,3.452-9.861,3.152c-1.359-0.11-2.669-0.438-3.923-0.969c-2.971-1.262-5.231-3.312-6.728-6.174
	c-0.871-1.668-1.41-3.443-1.486-5.336c-0.043-1.071-0.041-2.141,0.168-3.204c0.523-2.673,1.692-5.011,3.602-6.962
	c2.355-2.411,5.237-3.725,8.579-4.019c0.974-0.086,1.957-0.03,2.925,0.105c1.811,0.253,3.488,0.893,5.043,1.843
	c2.166,1.323,3.813,3.137,4.969,5.394c0.738,1.44,1.186,2.972,1.35,4.584C64.313,50.945,64.336,51.221,64.361,51.496z
	 M51.404,45.264c0,0.613-0.001,1.227,0.004,1.84c0.001,0.057,0.037,0.133,0.081,0.166c1.313,0.959,2.632,1.911,3.943,2.873
	c0.155,0.113,0.294,0.145,0.476,0.086c1.088-0.352,2.177-0.698,3.268-1.041c0.09-0.029,0.116-0.088,0.141-0.163
	c0.484-1.517,0.971-3.033,1.461-4.548c0.033-0.107,0.023-0.186-0.05-0.271c-0.634-0.762-1.327-1.459-2.112-2.063
	c-0.836-0.644-1.752-1.149-2.713-1.579c-0.422-0.188-0.298-0.24-0.718,0.056c-1.244,0.876-2.477,1.769-3.71,2.659
	c-0.041,0.029-0.066,0.104-0.066,0.159C51.403,44.045,51.404,44.654,51.404,45.264z M50.566,45.277c0-0.613,0.002-1.227-0.004-1.84
	c0-0.058-0.031-0.137-0.075-0.168c-1.267-0.922-2.54-1.837-3.806-2.76c-0.141-0.104-0.257-0.107-0.409-0.043
	c-0.749,0.319-1.468,0.697-2.153,1.136c-1.113,0.711-2.048,1.622-2.898,2.624c-0.033,0.039-0.037,0.127-0.02,0.182
	c0.494,1.541,0.996,3.081,1.49,4.623c0.035,0.112,0.107,0.146,0.199,0.176c1.09,0.343,2.18,0.685,3.269,1.031
	c0.13,0.041,0.228,0.018,0.338-0.062c1.323-0.968,2.65-1.931,3.979-2.894c0.072-0.052,0.093-0.107,0.092-0.192
	C50.564,46.486,50.566,45.882,50.566,45.277z M58.911,59.039c0,0.002,0,0.004,0,0.007c0.8,0,1.601-0.001,2.399,0.002
	c0.088,0.001,0.141-0.021,0.186-0.101c0.156-0.281,0.324-0.557,0.479-0.839c0.834-1.517,1.322-3.14,1.502-4.859
	c0.025-0.248,0-0.446-0.254-0.558c-0.035-0.016-0.065-0.047-0.1-0.07c-1.166-0.837-2.333-1.672-3.498-2.512
	c-0.115-0.084-0.219-0.107-0.361-0.062c-1.047,0.345-2.097,0.681-3.146,1.018c-0.106,0.034-0.17,0.087-0.207,0.202
	c-0.516,1.593-1.037,3.184-1.559,4.775c-0.027,0.081-0.021,0.14,0.031,0.211c0.648,0.893,1.297,1.788,1.939,2.685
	c0.055,0.075,0.111,0.103,0.202,0.103C57.32,59.037,58.115,59.039,58.911,59.039z M43.057,59.043c0-0.001,0-0.002,0-0.004
	c0.801,0,1.6,0.001,2.4-0.004c0.058,0,0.138-0.03,0.169-0.074c0.65-0.896,1.298-1.797,1.939-2.701
	c0.036-0.049,0.05-0.139,0.03-0.196c-0.512-1.612-1.031-3.223-1.547-4.834c-0.027-0.081-0.068-0.126-0.152-0.152
	c-1.071-0.344-2.142-0.689-3.21-1.04c-0.108-0.035-0.187-0.02-0.274,0.045c-1.168,0.843-2.337,1.682-3.506,2.523
	c-0.465,0.334-0.46,0.334-0.388,0.9c0.098,0.762,0.267,1.509,0.479,2.248c0.332,1.152,0.872,2.207,1.503,3.221
	c0.025,0.039,0.104,0.066,0.157,0.066C41.458,59.045,42.258,59.043,43.057,59.043z M51.001,56.639c-0.841,0-1.682,0.002-2.522-0.003
	c-0.098,0-0.158,0.028-0.212,0.11c-0.089,0.137-0.191,0.265-0.286,0.397c-0.541,0.753-1.078,1.508-1.621,2.259
	c-0.071,0.098-0.086,0.185-0.047,0.301c0.104,0.301,0.194,0.605,0.291,0.907c0.375,1.161,0.748,2.323,1.127,3.483
	c0.017,0.053,0.064,0.123,0.109,0.132c0.573,0.115,1.145,0.271,1.725,0.319c1.526,0.127,3.05,0.107,4.545-0.305
	c0.09-0.024,0.127-0.063,0.152-0.145c0.16-0.511,0.326-1.02,0.486-1.53c0.308-0.978,0.612-1.957,0.92-2.935
	c0.029-0.09,0.02-0.16-0.039-0.239c-0.643-0.881-1.281-1.765-1.919-2.648c-0.058-0.081-0.118-0.107-0.214-0.106
	C52.665,56.639,51.834,56.639,51.001,56.639z"/>
</svg>
