<?xml version="1.0" encoding="utf-8"?>
<!-- Generator: Adobe Illustrator 16.0.0, SVG Export Plug-In . SVG Version: 6.00 Build 0)  -->
<!DOCTYPE svg PUBLIC "-//W3C//DTD SVG 1.1//EN" "http://www.w3.org/Graphics/SVG/1.1/DTD/svg11.dtd">
<svg version="1.1" id="Layer_1" xmlns="http://www.w3.org/2000/svg" xmlns:xlink="http://www.w3.org/1999/xlink" x="0px" y="0px"
	 width="86px" height="80px" viewBox="0 0 86 80" enable-background="new 0 0 86 80" xml:space="preserve">
<g>
	<g>
		<path fill="#F7F2ED" d="M4.861,78.998c-2.129,0-3.859-1.727-3.859-3.848V4.845c0-2.121,1.73-3.85,3.859-3.85h76.277
			C83.27,0.996,85,2.724,85,4.845V75.15c0,2.121-1.73,3.848-3.861,3.848H4.861z"/>
		<path fill="#D1D1D1" d="M81.139,1.998c1.578,0,2.861,1.277,2.861,2.85V75.15c0,1.57-1.283,2.85-2.861,2.85H4.861
			c-1.578,0-2.859-1.275-2.859-2.85V4.847c0-1.572,1.283-2.85,2.859-2.85H81.139 M81.139-0.002H4.861
			c-2.687,0-4.859,2.172-4.859,4.85V75.15c0,2.676,2.176,4.85,4.859,4.85h76.277C83.826,80,86,77.826,86,75.15V4.847
			C86,2.169,83.826-0.002,81.139-0.002L81.139-0.002z"/>
	</g>
</g>
<g>
	<rect x="2.056" y="42.664" fill="#C99E48" width="81.892" height="13.5"/>
</g>
<g>
	<path fill="#FFFFFF" d="M51.059,42.781c0,0,7.401,5.729,10.207,6.249c0.155,0,2.104-0.781,2.104-0.781s0.779,2.214,1.714,3.516
		c-4.364-0.261-9.038-1.303-9.038-1.303s2.181-0.357,2.648-0.748c-4.986-2.995-8.727-6.933-8.727-6.933H51.059z"/>
	<path fill="#FFFFFF" d="M43.248,42.781c0,0,0.545,6.77,1.442,8.137c0.074,0.063,3.076-0.065,3.076-0.065s-1.947,1.14-4.051,2.637
		c-2.377-1.27-4.48-2.604-4.48-2.604s2.457,0.044,2.922,0.032c0.467-1.563,0.506-8.104,0.506-8.104L43.248,42.781z"/>
	<path fill="#FFFFFF" d="M35.943,42.781c0,0-7.401,5.729-10.207,6.249c-0.155,0-2.104-0.781-2.104-0.781s-0.779,2.214-1.714,3.516
		c4.364-0.261,9.038-1.303,9.038-1.303s-2.181-0.357-2.648-0.748c4.986-2.995,8.727-6.933,8.727-6.933H35.943z"/>
</g>
<g>
	<path fill="#A2A2A3" d="M29.834,30.019c-0.704,1.249-1.864,7.591-0.932,9.323c0.932,1.731,0.673,1.306,5.062,1.598
		c5.993,0.4,5.485-1.525,5.485-1.525l3.862-0.133c0,0,0.508,1.525,1.707,1.658c1.199,0.134,8.791,0,8.791,0s5.194-1.865,5.728-3.196
		c0.532-1.332,0.532-1.864,0-2.93c-0.533-1.066-2.429,0.617-4.767,0.009c-2.339-0.608-9.353-6.935-10.817-7.202
		c-1.465-0.267-1.864,2.797-6.128,3.996c-2.959,0.833-4.607-2.084-5.061-2.397S30.603,28.656,29.834,30.019z"/>
	<path fill="#D1D1D1" d="M35.733,40.004c-0.498,0-1.063-0.019-1.703-0.062c-0.874-0.059-1.564-0.088-2.119-0.113
		c-1.649-0.072-2.766-0.277-3.225-1.132c-0.723-1.343,0.285-7.048,0.916-8.167c0.201-0.356,0.234-0.833,0.709-0.833
		c0.277,0,1.003-0.199,2.064,0.567c1.061,0.766,2.123,2.5,4.408,2.5c0.432,0,0.873-0.063,1.313-0.186
		c2.745-0.772,4.07-2.259,4.947-3.242c0.259-0.291,0.37-0.792,0.756-0.736c0.387,0.055,2.794,1.567,4.463,2.624
		c2.635,1.668,4.693,2.923,6.049,3.432c1,0.375,1.762,0.25,2.334,0.25c0.189,0,1.979-0.563,1.979-0.563
		c0.343,0,0.604,0.021,0.979,0.396s0.896,1.896-0.479,2.854s-3.109,1.476-5.498,2.349c-0.709,0.012-3.541,0.056-5.795,0.056
		c-1.936,0-2.523-0.033-2.702-0.053c-0.539-0.06-0.481-0.409-0.483-0.415l-0.793-0.083c0,0-2.957-0.292-4.582,0.583
		c-1.148,0.618-0.771-0.403-0.771-0.403C38.225,39.763,37.491,40.004,35.733,40.004z"/>
	<path fill="#F7F2ED" d="M35.238,41.931c-0.425,0-0.892-0.011-1.4-0.034l-0.542-0.025c-3.947-0.182-4.27-0.197-5.3-2.119
		l-0.077-0.143c-0.133-0.247-0.235-0.563-0.313-0.966c-0.123-0.669-0.02-1.202,0.306-1.591c0.212-0.253,0.616-0.556,1.343-0.556
		c0.114,0,0.226,0.008,0.327,0.02c0.442,0.053,0.86,0.401,1.39,0.84c0.311,0.258,0.955,0.793,1.191,0.81c0.003,0,0.006,0,0.008,0
		c0.537,0,1.189-0.242,1.82-0.476c0.761-0.282,1.547-0.574,2.279-0.574c0.277,0,0.533,0.051,0.768,0.127
		c2.648,0.852,3.235,2.116,3.235,2.116l0.03,0.081c0.107,0.284,0.115,0.745-0.189,1.185C39.507,41.503,37.913,41.931,35.238,41.931
		L35.238,41.931z"/>
	<path fill="#A2A2A3" d="M36.8,37.9c-1.307-0.236-3.316,1.056-4.684,0.963c-0.824-0.056-2.077-1.588-2.617-1.653
		c-0.541-0.064-1.438,0.029-1.205,1.3c0.058,0.303,0.135,0.568,0.241,0.766c0.964,1.791,0.793,1.707,5.335,1.92
		c6.464,0.301,5.779-1.51,5.779-1.51S38.562,38.219,36.8,37.9z"/>
	<path fill="#A2A2A3" d="M44.69,29.811l7.662,4.78c0,0-3.48,0.581-4.994-0.414c-1.895-1.246-4.146-3.016-4.146-3.016L44.69,29.811z"
		/>
	<path fill="#F7F2ED" d="M50.642,41.826c-2.16,0-4.872-0.037-5.646-0.062c-1.401-0.046-2.26-1.337-2.26-2.025v-0.393l0.336-0.205
		c0.096-0.06,0.162-0.101,0.231-0.138c0.357-0.258,2.523-1.756,4.586-1.756c0.25,0,0.492,0.022,0.721,0.065
		c1.232,0.231,2.404,0.737,3.346,1.143c0.646,0.279,1.314,0.566,1.613,0.578l0,0c0.465,0,1.761-0.497,2.618-0.826
		c0.892-0.342,3.22-0.818,3.374-0.989c0.625-0.688,0.813-1.063,0.813-1.063l0.564,1.573l-1.304,1.089
		c-1.492,1.244-4.331,2.8-5.756,2.943C53.446,41.805,52.357,41.826,50.642,41.826L50.642,41.826z"/>
	<path fill="#A2A2A3" d="M59.187,38.281c0,0-0.5-0.041-1.166,0.042c-0.668,0.083-3.537,1.446-4.478,1.41s-2.931-1.332-5.062-1.732
		c-2.13-0.399-4.808,1.599-4.808,1.599c-0.093,0.046-0.161,0.093-0.237,0.139c0,0.292,0.541,1.292,1.582,1.325
		c1.205,0.039,7.621,0.117,8.791,0C54.978,40.947,57.687,39.531,59.187,38.281z"/>
</g>
<polyline fill="none" stroke="#FFFFFF" stroke-width="0.5" stroke-linejoin="round" stroke-miterlimit="10" points="45.562,28.406 
	44.437,31.031 47.562,30.031 46.812,32.406 49.187,31.281 48.937,33.656 51.187,32.781 "/>
</svg>
