<?xml version="1.0" encoding="utf-8"?>
<!-- Generator: Adobe Illustrator 16.0.0, SVG Export Plug-In . SVG Version: 6.00 Build 0)  -->
<!DOCTYPE svg PUBLIC "-//W3C//DTD SVG 1.1//EN" "http://www.w3.org/Graphics/SVG/1.1/DTD/svg11.dtd">
<svg version="1.1" id="Layer_1" xmlns="http://www.w3.org/2000/svg" xmlns:xlink="http://www.w3.org/1999/xlink" x="0px" y="0px"
	 width="86px" height="80px" viewBox="0 0 86 80" enable-background="new 0 0 86 80" xml:space="preserve">
<g>
	<g>
		<g>
			<path fill="#F7F2ED" d="M4.859,79C2.73,79,1,77.273,1,75.152V4.849C1,2.726,2.73,1,4.859,1h76.279
				c2.129,0,3.859,1.728,3.859,3.85v70.305c0,2.119-1.73,3.848-3.859,3.848H4.859V79z"/>
			<path fill="#D1D1D1" d="M81.141,2C82.717,2,84,3.279,84,4.849v70.305c0,1.568-1.283,2.848-2.859,2.848H4.859
				C3.283,78.002,2,76.725,2,75.154V4.849C2,3.279,3.283,2,4.859,2H81.141 M81.141,0H4.859C2.176,0,0,2.171,0,4.849v70.305
				c0,2.674,2.176,4.848,4.859,4.848h76.281c2.684,0,4.859-2.174,4.859-4.848V4.849C86,2.171,83.824,0,81.141,0L81.141,0z"/>
		</g>
	</g>
	<g>
		<rect x="2.047" y="49.807" fill="#C99E48" width="81.953" height="6.604"/>
		<g>
			<polygon fill="#F6F1F2" points="3.659,56.398 4.565,56.398 1.969,53.146 1.969,54.282 			"/>
			<polygon fill="#F6F1F2" points="73.523,49.807 78.783,56.398 79.687,56.398 74.431,49.807 			"/>
			<polygon fill="#F6F1F2" points="68.156,49.807 73.418,56.398 74.326,56.398 69.064,49.807 			"/>
			<polygon fill="#F6F1F2" points="57.426,49.807 62.687,56.398 63.594,56.398 58.334,49.807 			"/>
			<polygon fill="#F6F1F2" points="41.327,49.807 46.587,56.398 47.495,56.398 42.234,49.807 			"/>
			<polygon fill="#F6F1F2" points="46.692,49.807 51.955,56.398 52.858,56.398 47.598,49.807 			"/>
			<polygon fill="#F6F1F2" points="52.059,49.807 57.32,56.398 58.225,56.398 52.965,49.807 			"/>
			<polygon fill="#F6F1F2" points="35.962,49.807 41.224,56.398 42.129,56.398 36.869,49.807 			"/>
			<polygon fill="#F6F1F2" points="30.595,49.807 35.856,56.398 36.761,56.398 31.501,49.807 			"/>
			<polygon fill="#F6F1F2" points="25.227,49.807 30.49,56.398 31.396,56.398 26.137,49.807 			"/>
			<polygon fill="#F6F1F2" points="19.862,49.807 25.122,56.398 26.03,56.398 20.771,49.807 			"/>
			<polygon fill="#F6F1F2" points="14.495,49.807 19.759,56.398 20.666,56.398 15.403,49.807 			"/>
			<polygon fill="#F6F1F2" points="9.13,49.807 14.391,56.398 15.298,56.398 10.039,49.807 			"/>
			<polygon fill="#F6F1F2" points="3.766,49.807 9.026,56.398 9.933,56.398 4.671,49.807 			"/>
			<polygon fill="#F6F1F2" points="62.79,49.807 68.057,56.398 68.957,56.398 63.697,49.807 			"/>
			<polygon fill="#F6F1F2" points="84,55.076 79.796,49.807 78.891,49.807 84,56.21 			"/>
		</g>
	</g>
	<rect x="2.025" y="56.273" fill="#C9C8C7" width="81.947" height="2.25"/>
	<g>
		<circle fill="#D1D1D1" cx="50.805" cy="22.312" r="3.29"/>
		<path fill="#D1D1D1" d="M57.521,32.666c-0.01-0.017-0.023-0.031-0.035-0.047s-0.023-0.033-0.037-0.049
			c-0.031-0.041-0.059-0.084-0.096-0.123l-4.74-4.971c-0.17-0.178-4.826-2.501-5.041-2.525l-4.873-2.474l-1.117-6.292
			c-0.127-0.718-0.834-1.193-1.58-1.061c-0.744,0.132-1.246,0.82-1.117,1.539l1.146,6.463c-0.098,0.57,0.16,1.15,0.684,1.418
			l4.563,2.316l-3.131,6.205l-5.85-1.676c-0.496-0.143-1.002-0.027-1.387,0.259l-6.084,3.783c-0.656,0.408-0.813,1.342-0.35,2.086
			s1.369,1.02,2.025,0.609l5.609-3.486l5.996,1.717c0.102,0.082,0.211,0.156,0.334,0.219l0.545,0.273l-4.805,1.768
			c-0.484,0.178-0.824,0.568-0.967,1.025l-2.682,6.646c-0.289,0.715,0.137,1.561,0.951,1.889c0.813,0.328,1.705,0.016,1.994-0.701
			l2.471-6.127l7.088-2.604c0.336-0.125,0.604-0.355,0.783-0.635c0.191-0.152,0.357-0.344,0.473-0.574l3.502-6.942l3.09,3.239
			l-1.631,5.838c-0.195,0.703,0.234,1.436,0.965,1.641c0.729,0.203,1.479-0.201,1.676-0.902l1.848-6.615
			C57.857,33.391,57.76,32.982,57.521,32.666z"/>
	</g>
	<polygon fill="#A2A2A3" points="50.202,42.026 50.751,43.652 41.894,46.938 	"/>
	<polygon fill="#A2A2A3" points="51.526,45.3 51.528,47.318 38.509,48.816 	"/>
	<path fill="#D14E4A" d="M81.813,77.938c-1.542-1.462-1.369-1.318-79.641-74.109c0.219-1,1.281-1.438,1.281-1.438
		S83.447,76.799,83.5,76.844C83.5,76.906,82.672,77.859,81.813,77.938z"/>
</g>
</svg>
