<?xml version="1.0" encoding="utf-8"?>
<!-- Generator: Adobe Illustrator 16.0.0, SVG Export Plug-In . SVG Version: 6.00 Build 0)  -->
<!DOCTYPE svg PUBLIC "-//W3C//DTD SVG 1.1//EN" "http://www.w3.org/Graphics/SVG/1.1/DTD/svg11.dtd">
<svg version="1.1" id="Layer_1" xmlns="http://www.w3.org/2000/svg" xmlns:xlink="http://www.w3.org/1999/xlink" x="0px" y="0px"
	 width="86px" height="80px" viewBox="0 0 86 80" enable-background="new 0 0 86 80" xml:space="preserve">
<g>
	<g>
		<path fill="#F7F2ED" d="M4.859,79C2.73,79,1,77.272,1,75.152V4.847c0-2.121,1.73-3.851,3.859-3.851h76.279
			c2.131,0,3.859,1.729,3.859,3.851v70.306c0,2.12-1.729,3.848-3.857,3.848H4.859z"/>
		<path fill="#D1D1D1" d="M81.141,2c1.576,0,2.857,1.277,2.857,2.85v70.303c0,1.57-1.281,2.848-2.857,2.848H4.859
			C3.283,78,2,76.724,2,75.152V4.85C2,3.277,3.283,2,4.859,2H81.141 M81.141,0H4.859C2.175,0,0,2.172,0,4.85v70.303
			c0,2.676,2.176,4.849,4.859,4.849h76.279c2.686,0,4.859-2.173,4.859-4.849V4.85C85.998,2.172,83.824,0,81.141,0L81.141,0z"/>
	</g>
</g>
<g>
	<path fill="none" stroke="#D1D1D1" stroke-width="0.5108" stroke-miterlimit="10" d="M31.391,35.456
		c-2.205-1.328-3.907-2.941-4.917-4.704"/>
	<path fill="none" stroke="#D1D1D1" stroke-width="0.5108" stroke-miterlimit="10" d="M30.529,37.774
		c-3.142-1.688-5.434-3.91-6.425-6.344"/>
	<g>
		<path fill="#C8C3BD" d="M34.01,31.29c0.886-0.848,1.57-2.045,0.423-3.211c-1.089-1.107-2.382-0.531-3.27,0.313L34.01,31.29z"/>
		<polygon fill="#E5BB70" points="30.958,28.595 30.593,28.942 33.435,31.833 33.801,31.483 		"/>
		<g>
			<g>
				<polyline fill="none" stroke="#D1D1D1" stroke-width="0.5108" stroke-miterlimit="10" points="30.89,30.006 31.124,30.338 
					21.156,37.813 19.538,36.823 19.539,35.165 30.761,29.873 30.89,30.006 				"/>
				<polyline fill="none" stroke="#D1D1D1" stroke-width="0.5108" stroke-miterlimit="10" points="31.602,30.729 31.724,30.854 
					23.686,40.497 21.761,39.882 21.287,37.808 				"/>
				<polyline fill="none" stroke="#D1D1D1" stroke-width="0.5108" stroke-miterlimit="10" points="26.774,42.413 28.268,44.024 
					32.821,31.969 32.632,31.776 31.602,30.729 31.372,30.494 30.508,29.616 30.325,29.431 17.882,33.56 19.525,35.052 				"/>
				<polyline fill="none" stroke="#D1D1D1" stroke-width="0.5108" stroke-miterlimit="10" points="32.227,31.364 32.384,31.526 
					26.613,42.509 24.714,42.366 23.816,40.381 				"/>
				
					<line fill="none" stroke="#D1D1D1" stroke-width="0.5108" stroke-miterlimit="10" x1="32.02" y1="31.155" x2="32.227" y2="31.364"/>
			</g>
		</g>
	</g>
</g>
<g>
	<g>
		<path fill="#E5BB70" d="M36.058,52.53l-3.088,5.514c-0.169,0.176-0.339-0.02-0.573-0.24l-2.454-2.322
			c-0.232-0.221-0.438-0.383-0.272-0.559l5.266-3.454c0.185-0.175,0.359-0.128,0.799,0.285
			C36.138,52.138,36.189,52.379,36.058,52.53z"/>
		<polygon fill="#C99E47" points="48.031,35.733 48.366,36.229 47.108,37.629 47.436,37.919 35.177,51.567 35.753,52.085 
			48.008,38.435 48.33,38.726 49.589,37.326 50.128,37.593 50.198,37.514 48.113,35.644 		"/>
		<g>
			<path fill="#C99E47" d="M21.743,63.698c-0.634,0.707-1.346,1.441-1.849,2.066c-0.573,0.71,1.031,3.246,2.187,4.303
				c0.03,0.004,1.362-1.521,1.894-2.119C22.598,66.462,21.455,64.372,21.743,63.698z"/>
			<path fill="#C99E47" d="M19.29,66.439c-0.51,0.569-1.534,1.69-1.534,1.69l3.395,2.982c0,0,0.273-0.311,0.375-0.423
				C20.145,69.202,19.001,67.113,19.29,66.439z"/>
			<path fill="#C99E47" d="M24.195,60.958c-0.635,0.706-1.345,1.441-1.849,2.066c-0.574,0.709,1.03,3.245,2.183,4.303
				c0.032,0.003,1.363-1.522,1.901-2.12C25.049,63.72,23.906,61.632,24.195,60.958z"/>
			<path fill="#C99E47" d="M26.646,58.216c-0.632,0.708-1.343,1.441-1.849,2.068c-0.572,0.709,1.034,3.244,2.187,4.303
				c0.031,0.002,1.361-1.521,1.898-2.119C27.502,60.979,26.36,58.891,26.646,58.216z"/>
			<path fill="#C99E47" d="M29.099,55.476c-0.633,0.707-1.345,1.441-1.848,2.067c-0.573,0.708,1.033,3.245,2.188,4.304
				c0.029,0.002,1.358-1.523,1.895-2.12C29.955,58.239,28.811,56.149,29.099,55.476z"/>
			<path fill="#C99E47" d="M29.73,55.925c0.375,1.049,1.37,2.459,2.156,3.18c0.014,0.002,0.277-0.292,0.617-0.672
				C32.504,58.433,29.713,55.937,29.73,55.925z"/>
		</g>
		<path fill="#E5BB70" d="M70.19,12.978l-0.102-0.103c-6.65-5.974-16.189-2.475-21.365,3.288
			c-5.174,5.762-6.062,14.733,0.233,20.323l0.216,0.178c6.192,5.066,14.653,3.162,19.675-2.43
			C73.924,28.579,76.388,18.979,70.19,12.978z M68.089,33.458c-4.619,5.143-12.405,6.896-18.1,2.233l-0.198-0.162
			c-5.793-5.142-4.974-13.396-0.212-18.695c4.758-5.302,13.533-8.52,19.65-3.025l0.096,0.094
			C75.024,19.425,72.762,28.257,68.089,33.458z"/>
	</g>
	<path fill="#E5BB70" d="M70.087,28.205l0.304-0.333c0.097-0.23,0.195-0.459,0.283-0.692l-0.779,0.854l-1.911-1.712l1.634-1.793
		l1.479,1.327c0.026-0.094,0.046-0.188,0.069-0.283l-1.376-1.234l1.631-1.792l0.183,0.165c0.006-0.108,0.02-0.218,0.021-0.326
		l-0.031-0.028l0.029-0.033c0.003-0.124-0.009-0.246-0.01-0.37l-0.21,0.231l-1.914-1.713l1.614-1.771
		c-0.063-0.195-0.143-0.384-0.217-0.575l-1.696-1.521l0.545-0.598c-0.051-0.071-0.099-0.146-0.15-0.216l-0.586,0.643l-1.914-1.714
		l0.683-0.75c-0.069-0.051-0.142-0.097-0.211-0.147l-0.662,0.726l-1.912-1.712l0.222-0.244c-0.086-0.031-0.173-0.065-0.26-0.094
		l-0.153,0.167l-0.348-0.311c-0.175-0.047-0.352-0.094-0.531-0.132l0.707,0.632l-1.634,1.792l-1.912-1.713l0.827-0.91
		c-0.116-0.002-0.235,0.005-0.354,0.008l-0.667,0.731l-0.697-0.625c-0.109,0.016-0.218,0.033-0.328,0.051l0.852,0.765l-1.629,1.792
		l-1.914-1.713l0.185-0.202c-0.185,0.065-0.365,0.146-0.549,0.22l0.001,0l-1.633,1.794l-0.727-0.651
		c-0.075,0.044-0.146,0.099-0.221,0.146l0.775,0.694l-1.632,1.792l-1.154-1.034c-0.066,0.056-0.136,0.108-0.202,0.165l1.183,1.059
		l-1.634,1.793l-1.289-1.156c-0.059,0.064-0.107,0.133-0.163,0.199l1.281,1.147l-1.633,1.793l-1.072-0.961
		c-0.046,0.076-0.083,0.155-0.127,0.231l1.026,0.918l-1.632,1.792l-0.446-0.399c-0.032,0.089-0.057,0.179-0.086,0.268l0.36,0.322
		l-0.654,0.717c-0.038,0.165-0.07,0.33-0.104,0.495l0.949-1.042l1.911,1.713l-1.632,1.792l-1.401-1.256
		c-0.01,0.105-0.026,0.21-0.033,0.316l1.262,1.129l-1.183,1.299c0.015,0.108,0.034,0.218,0.053,0.325l1.319-1.453l1.916,1.714
		l-1.634,1.791l-1.447-1.297c0.038,0.157,0.087,0.309,0.131,0.463l1.144,1.025l-0.533,0.586c0.039,0.082,0.086,0.161,0.128,0.242
		l0.599-0.658l1.912,1.713l-1.021,1.121c0.057,0.066,0.107,0.135,0.167,0.197l1.045-1.146l1.912,1.713l-0.997,1.094
		c0.073,0.049,0.146,0.095,0.22,0.141l0.968-1.063l1.914,1.713l-0.445,0.488c0.09,0.029,0.179,0.061,0.269,0.087l0.368-0.404
		l0.734,0.657c0.156,0.028,0.314,0.061,0.474,0.08l-1.035-0.926l1.632-1.793l1.913,1.713l-0.983,1.08
		c0.118,0,0.234-0.001,0.352-0.006l0.823-0.902l0.815,0.73c0.106-0.02,0.213-0.037,0.318-0.061l-0.96-0.86l1.631-1.792l1.913,1.713
		l-0.154,0.17c0.206-0.088,0.407-0.191,0.609-0.29l1.54-1.69l0.524,0.469c0.069-0.051,0.136-0.107,0.205-0.16l-0.557-0.498
		l1.633-1.793l0.739,0.662c0.059-0.063,0.123-0.118,0.182-0.182l-0.749-0.67l1.634-1.793l0.618,0.555
		c0.049-0.072,0.102-0.139,0.149-0.211l-0.595-0.533l1.631-1.792l0.18,0.161c0.039-0.082,0.074-0.162,0.111-0.245L70.087,28.205z
		 M67.792,26.15l-1.912-1.713l1.633-1.793l1.911,1.713L67.792,26.15z M54.152,24.729l1.633-1.792l1.912,1.712l-1.632,1.792
		L54.152,24.729z M55.893,26.631l-1.631,1.793l-1.915-1.714l1.632-1.792L55.893,26.631z M55.957,22.747l1.632-1.792l1.914,1.713
		L57.87,24.46L55.957,22.747z M57.889,24.821l1.913,1.714l-1.633,1.792l-1.914-1.713L57.889,24.821z M58.061,24.631l1.632-1.793
		l1.914,1.713l-1.633,1.792L58.061,24.631z M59.866,22.649l1.631-1.792l1.914,1.713l-1.632,1.792L59.866,22.649z M61.798,24.723
		l1.911,1.714l-1.63,1.792l-1.915-1.713L61.798,24.723z M61.971,24.533l1.63-1.791l1.915,1.713l-1.633,1.792L61.971,24.533z
		 M63.774,22.552l1.633-1.793l1.914,1.713l-1.633,1.793L63.774,22.552z M65.58,20.569l1.632-1.792l1.913,1.714l-1.633,1.792
		L65.58,20.569z M65.389,20.398l-1.913-1.713l1.632-1.792l1.913,1.713L65.389,20.398z M65.217,20.588l-1.633,1.792l-1.915-1.714
		l1.634-1.792L65.217,20.588z M61.479,20.497l-1.912-1.712l1.632-1.793l1.914,1.712L61.479,20.497z M61.307,20.687l-1.631,1.792
		l-1.914-1.713l1.632-1.792L61.307,20.687z M57.571,20.593l-1.914-1.713l1.632-1.792l1.914,1.714L57.571,20.593z M57.397,20.784
		l-1.632,1.792l-1.914-1.713l1.633-1.792L57.397,20.784z M55.593,22.766l-1.633,1.792l-1.913-1.714l1.633-1.792L55.593,22.766z
		 M53.787,24.748l-1.632,1.792l-1.913-1.714l1.631-1.792L53.787,24.748z M52.175,26.901l1.913,1.713l-1.633,1.791l-1.913-1.713
		L52.175,26.901z M54.278,28.786l1.912,1.713l-1.632,1.792l-1.913-1.714L54.278,28.786z M54.449,28.595l1.633-1.792l1.913,1.713
		l-1.63,1.793L54.449,28.595z M58.187,28.688L60.1,30.4l-1.63,1.792l-1.915-1.713L58.187,28.688z M58.36,28.498l1.631-1.793
		l1.915,1.714l-1.632,1.793L58.36,28.498z M62.097,28.59l1.913,1.714l-1.633,1.792l-1.912-1.714L62.097,28.59z M62.27,28.399
		l1.632-1.792l1.913,1.713l-1.631,1.791L62.27,28.399z M64.075,26.417l1.631-1.792l1.914,1.714l-1.632,1.792L64.075,26.417z
		 M71.229,22.375l-1.632,1.792l-1.913-1.713l1.631-1.792L71.229,22.375z M69.018,16.795l1.912,1.714l-1.632,1.792l-1.913-1.714
		L69.018,16.795z M66.912,14.911l1.915,1.714l-1.633,1.792l-1.914-1.713L66.912,14.911z M64.81,13.026l1.913,1.713l-1.633,1.792
		l-1.912-1.713L64.81,13.026z M63.004,15.008l1.914,1.713l-1.633,1.792l-1.913-1.712L63.004,15.008z M60.898,13.124l1.913,1.714
		l-1.63,1.793l-1.915-1.715L60.898,13.124z M59.094,15.106l1.915,1.714l-1.634,1.792l-1.913-1.714L59.094,15.106z M56.991,13.222
		l1.913,1.713l-1.635,1.792l-1.911-1.712L56.991,13.222z M55.186,15.204l1.913,1.714l-1.632,1.792l-1.912-1.713L55.186,15.204z
		 M53.381,17.186l1.912,1.713l-1.633,1.793l-1.911-1.713L53.381,17.186z M51.577,19.168l1.911,1.712l-1.632,1.793l-1.913-1.712
		L51.577,19.168z M48.139,22.942l1.632-1.792l1.913,1.712l-1.633,1.792L48.139,22.942z M48.437,26.808l1.634-1.793l1.912,1.715
		l-1.632,1.792L48.437,26.808z M50.65,32.388l-1.912-1.713l1.631-1.792l1.914,1.714L50.65,32.388z M52.755,34.272L50.84,32.56
		l1.633-1.793l1.913,1.713L52.755,34.272z M54.859,36.157l-1.914-1.713l1.631-1.793l1.915,1.713L54.859,36.157z M56.664,34.175
		l-1.914-1.713l1.632-1.792l1.914,1.714L56.664,34.175z M58.768,36.06l-1.913-1.713l1.632-1.793l1.913,1.714L58.768,36.06z
		 M60.572,34.077l-1.914-1.713l1.634-1.793l1.911,1.715L60.572,34.077z M62.676,35.962l-1.912-1.713l1.632-1.793l1.913,1.713
		L62.676,35.962z M64.481,33.979l-1.913-1.712l1.634-1.793l1.912,1.713L64.481,33.979z M66.285,31.997l-1.911-1.713l1.633-1.791
		l1.911,1.713L66.285,31.997z M68.092,30.017l-1.912-1.714l1.631-1.792l1.913,1.713L68.092,30.017z"/>
</g>
</svg>
