<?xml version="1.0" encoding="utf-8"?>
<!-- Generator: Adobe Illustrator 16.0.0, SVG Export Plug-In . SVG Version: 6.00 Build 0)  -->
<!DOCTYPE svg PUBLIC "-//W3C//DTD SVG 1.1//EN" "http://www.w3.org/Graphics/SVG/1.1/DTD/svg11.dtd">
<svg version="1.1" id="Layer_1" xmlns="http://www.w3.org/2000/svg" xmlns:xlink="http://www.w3.org/1999/xlink" x="0px" y="0px"
	 width="86px" height="80px" viewBox="0 0 86 80" enable-background="new 0 0 86 80" xml:space="preserve">
<g>
	<g>
		<g>
			<path fill="#F7F2ED" d="M86,75.152c0,2.68-2.182,4.85-4.863,4.85H4.861c-2.688,0-4.859-2.172-4.859-4.85V4.851
				C0.002,2.172,2.176,0,4.861,0h76.275C83.82,0,86,2.17,86,4.851V75.152L86,75.152z"/>
		</g>
		<g>
			<g>
				<path fill="#D1D1D1" d="M81.137,2C82.715,2,84,3.279,84,4.851v70.302c0,1.572-1.285,2.852-2.863,2.852H4.861
					c-1.576,0-2.859-1.279-2.859-2.852V4.851C2.002,3.28,3.285,2,4.861,2H81.137 M81.137,0H4.861C2.174,0,0.002,2.172,0.002,4.851
					v70.302c0,2.68,2.174,4.852,4.859,4.852h76.275c2.682,0,4.863-2.17,4.863-4.852V4.851C86,2.172,83.82,0,81.137,0L81.137,0z"/>
			</g>
		</g>
	</g>
	<g>
		<path fill="#A2A2A3" d="M2.056,63.091H27.19c0,0,2.333,1.693,5.333,1.693c4.667,0,5.333-1.693,5.333-1.693h13
			c0,0,0.353,1.193,3.519,1.193s3.814-1.193,3.814-1.193h25.757v7.016H2.056V63.091z"/>
	</g>
	<g>
		<path fill-rule="evenodd" clip-rule="evenodd" fill="#D1D1D1" d="M40.417,31.748c-0.962,0.626-1.879,1.216-2.786,1.822
			c-0.104,0.07-0.157,0.229-0.216,0.353c-0.958,2.051-1.915,4.104-2.87,6.155c-0.404,0.87-0.941,1.159-1.89,0.975
			c-0.555-0.107-1.03-0.374-1.386-0.822c-0.378-0.477-0.49-0.971-0.211-1.563c1.168-2.465,2.301-4.946,3.474-7.408
			c0.143-0.298,0.42-0.573,0.7-0.76c2.461-1.63,4.925-3.259,7.417-4.844c1.229-0.781,2.591-1.063,4.043-0.736
			c1.499,0.337,2.332,1.311,2.667,2.772c0.273,1.2,0.127,2.409,0.096,3.614c-0.012,0.449-0.003,0.898-0.003,1.407
			c0.14,0,0.302,0,0.464,0c2,0,3.999,0.063,5.995-0.02c1.518-0.064,2.106,1.361,1.909,2.374c-0.197,1.02-0.81,1.531-1.841,1.531
			c-2.098,0-4.193-0.001-6.291-0.001c-0.138,0-0.276,0-0.461,0c-0.045,0.888-0.089,1.742-0.129,2.595
			c-0.037,0.829-0.085,1.659-0.095,2.487c-0.001,0.178,0.098,0.417,0.233,0.524c2.045,1.632,4.097,3.254,6.161,4.861
			c0.505,0.393,0.761,0.846,0.758,1.504c-0.02,3.786-0.01,7.571-0.011,11.357c-0.002,0.873-0.29,1.332-1.099,1.65
			c-0.979,0.388-1.954,0.364-2.889-0.153c-0.551-0.304-0.802-0.771-0.799-1.421c0.016-2.968,0.011-5.938-0.001-8.906
			c-0.002-0.182-0.082-0.429-0.214-0.534c-2.31-1.843-4.631-3.667-6.952-5.495c-0.054-0.042-0.114-0.075-0.227-0.149
			c-0.101,0.687-0.195,1.331-0.286,1.976c-0.232,1.687-0.462,3.372-0.693,5.057c-0.061,0.454-0.261,0.817-0.644,1.09
			c-3.415,2.428-6.83,4.855-10.237,7.297c-0.553,0.396-1.118,0.44-1.71,0.182c-1.126-0.494-1.753-1.382-1.905-2.588
			c-0.087-0.688,0.152-1.246,0.754-1.67c2.851-2.011,5.688-4.039,8.521-6.075c0.156-0.112,0.306-0.334,0.331-0.521
			c0.55-4.112,1.082-8.226,1.616-12.338c0.229-1.771,0.461-3.54,0.69-5.311C40.41,31.95,40.41,31.883,40.417,31.748z"/>
		<path fill-rule="evenodd" clip-rule="evenodd" fill="#D1D1D1" d="M43.13,19.384c0.004-2.7,2.159-4.851,4.851-4.846
			c2.719,0.007,4.857,2.167,4.847,4.894c-0.009,2.672-2.203,4.829-4.894,4.815C45.281,24.233,43.124,22.05,43.13,19.384z"/>
	</g>
	<path fill-rule="evenodd" clip-rule="evenodd" fill="#E5BB70" d="M14.629,38.151c-0.185,0-0.334,0-0.482,0
		c-2.313,0-4.626-0.002-6.938,0c-0.487,0.001-0.881-0.172-1.172-0.566c-0.587-0.8-0.073-1.989,0.91-2.105
		c0.119-0.015,0.241-0.015,0.361-0.015c2.364-0.001,4.729,0,7.094,0c0.066,0,0.133,0,0.229,0c-0.042-0.059-0.062-0.093-0.087-0.119
		c-0.909-0.905-1.821-1.81-2.724-2.721c-0.188-0.188-0.375-0.395-0.499-0.626c-0.254-0.479-0.194-0.965,0.133-1.392
		c0.36-0.471,0.852-0.612,1.426-0.478c0.317,0.074,0.544,0.284,0.764,0.505c0.799,0.797,1.597,1.596,2.396,2.395
		c0.725,0.726,1.449,1.45,2.172,2.178c0.251,0.252,0.516,0.492,0.739,0.768c0.438,0.546,0.396,1.286-0.095,1.786
		c-0.816,0.829-1.644,1.646-2.466,2.469c-0.79,0.79-1.577,1.583-2.368,2.373c-0.227,0.227-0.45,0.46-0.699,0.657
		c-0.522,0.414-1.33,0.349-1.761-0.116c-0.547-0.59-0.471-1.378-0.057-1.812c0.48-0.506,0.977-1,1.468-1.495
		c0.53-0.532,1.063-1.06,1.595-1.591C14.585,38.229,14.596,38.202,14.629,38.151z"/>
	<path fill-rule="evenodd" clip-rule="evenodd" fill="#E5BB70" d="M73.816,38.151c-0.186,0-0.334,0-0.482,0
		c-2.313,0-4.625-0.002-6.939,0c-0.486,0.001-0.88-0.172-1.172-0.566c-0.586-0.8-0.072-1.989,0.911-2.105
		c0.119-0.015,0.239-0.015,0.361-0.015c2.363-0.001,4.729,0,7.094,0c0.065,0,0.132,0,0.229,0c-0.041-0.059-0.06-0.093-0.086-0.119
		c-0.909-0.905-1.821-1.81-2.725-2.721c-0.187-0.188-0.375-0.395-0.498-0.626c-0.254-0.479-0.194-0.965,0.133-1.392
		c0.36-0.471,0.853-0.612,1.427-0.478c0.316,0.074,0.542,0.284,0.763,0.505c0.799,0.797,1.599,1.596,2.395,2.395
		c0.726,0.726,1.449,1.45,2.173,2.178c0.251,0.252,0.515,0.492,0.738,0.768c0.438,0.546,0.397,1.286-0.094,1.786
		c-0.816,0.829-1.644,1.646-2.467,2.469c-0.789,0.79-1.575,1.583-2.367,2.373c-0.228,0.227-0.449,0.46-0.701,0.657
		c-0.521,0.414-1.328,0.349-1.758-0.116c-0.549-0.59-0.471-1.378-0.058-1.812c0.481-0.506,0.976-1,1.468-1.495
		c0.529-0.532,1.063-1.06,1.594-1.591C73.772,38.229,73.782,38.202,73.816,38.151z"/>
	<path fill-rule="evenodd" clip-rule="evenodd" fill="#A2A2A3" d="M26.772,62.283c0,0-3.727-0.548-4.583-2.833
		c-0.49-1.307,0.743-2.044,1.543-1.996c0.221,0.014,0.196-0.145-0.032-0.277c-0.744-0.434-1.813-0.406-2.469,0.232
		c-1.542,1.5-0.734,3.833,1.125,4.874H26.772z"/>
	<path fill-rule="evenodd" clip-rule="evenodd" fill="#A2A2A3" d="M19.106,62.159c0.292,0.041,1.624,0.124,2.083,0.041
		c-3.333-0.916-3.212-3.12-3.333-3.249c-0.55-0.589-0.792,0.333-0.792,0.333C16.689,60.45,17.772,61.784,19.106,62.159z"/>
	<path fill-rule="evenodd" clip-rule="evenodd" fill="#A2A2A3" d="M48.106,62.159c0.292,0.041,1.624,0.124,2.083,0.041
		c-3.333-0.916-3.212-3.12-3.333-3.249c-0.55-0.589-0.792,0.333-0.792,0.333C45.689,60.45,46.772,61.784,48.106,62.159z"/>
</g>
</svg>
