<?xml version="1.0" encoding="utf-8"?>
<!-- Generator: Adobe Illustrator 16.0.0, SVG Export Plug-In . SVG Version: 6.00 Build 0)  -->
<!DOCTYPE svg PUBLIC "-//W3C//DTD SVG 1.1//EN" "http://www.w3.org/Graphics/SVG/1.1/DTD/svg11.dtd">
<svg version="1.1" id="Layer_1" xmlns="http://www.w3.org/2000/svg" xmlns:xlink="http://www.w3.org/1999/xlink" x="0px" y="0px"
	 width="86px" height="80px" viewBox="0 0 86 80" enable-background="new 0 0 86 80" xml:space="preserve">
<g>
	<g>
		<path fill="#F7F2ED" d="M86,75.152c0,2.68-2.182,4.85-4.863,4.85H4.861c-2.688,0-4.859-2.172-4.859-4.85V4.851
			C0.002,2.173,2.176,0,4.861,0h76.275C83.82,0,86,2.171,86,4.851V75.152L86,75.152z"/>
	</g>
	<rect x="1.459" y="45.154" fill="#F7F2ED" width="83.25" height="16"/>
	<g enable-background="new    ">
		<path fill="#374537" d="M36.309,68.154V63.91c0-0.398-0.02-0.748-0.053-1.043s-0.104-0.543-0.203-0.74
			c-0.1-0.199-0.242-0.352-0.428-0.451c-0.186-0.102-0.428-0.145-0.729-0.145c-0.459,0-0.844,0.139-1.146,0.42
			c-0.305,0.273-0.518,0.629-0.639,1.049v5.16h-1.199v-7.5h0.84l0.227,0.916h0.063c0.271-0.32,0.582-0.582,0.938-0.787
			c0.354-0.205,0.814-0.314,1.389-0.314c0.48,0,0.871,0.096,1.178,0.277c0.309,0.189,0.541,0.508,0.711,0.969
			c0.23-0.393,0.547-0.689,0.953-0.916c0.404-0.221,0.861-0.33,1.373-0.33c0.42,0,0.773,0.051,1.064,0.146
			c0.289,0.096,0.527,0.262,0.721,0.502c0.189,0.24,0.326,0.564,0.412,0.98c0.084,0.408,0.127,0.93,0.127,1.559v4.5h-1.199v-4.514
			c0-0.361-0.02-0.676-0.053-0.939c-0.035-0.268-0.105-0.486-0.211-0.66c-0.104-0.176-0.25-0.305-0.438-0.393
			c-0.184-0.084-0.428-0.127-0.727-0.127c-0.5,0-0.893,0.141-1.17,0.42c-0.281,0.277-0.48,0.682-0.604,1.199v5.01h-1.197V68.154
			L36.309,68.154z"/>
		<path fill="#374537" d="M48.488,68.154V63.91c0-0.398-0.018-0.748-0.053-1.043s-0.104-0.543-0.203-0.74
			c-0.102-0.199-0.242-0.352-0.428-0.451c-0.188-0.102-0.43-0.145-0.729-0.145c-0.463,0-0.846,0.139-1.146,0.42
			c-0.307,0.273-0.52,0.629-0.639,1.049v5.16H44.09v-7.5h0.844l0.225,0.916h0.061c0.271-0.32,0.582-0.582,0.939-0.787
			c0.355-0.205,0.816-0.314,1.389-0.314c0.48,0,0.873,0.096,1.18,0.277c0.307,0.186,0.543,0.508,0.713,0.969
			c0.229-0.393,0.547-0.689,0.951-0.916c0.404-0.221,0.861-0.33,1.373-0.33c0.42,0,0.773,0.051,1.063,0.146
			c0.291,0.096,0.529,0.262,0.723,0.502c0.189,0.24,0.328,0.564,0.412,0.98c0.086,0.406,0.127,0.93,0.127,1.559v4.5h-1.197v-4.514
			c0-0.361-0.021-0.676-0.055-0.939c-0.035-0.268-0.104-0.486-0.209-0.66c-0.104-0.176-0.25-0.305-0.438-0.393
			c-0.189-0.084-0.432-0.127-0.73-0.127c-0.5,0-0.891,0.141-1.17,0.42c-0.281,0.277-0.479,0.682-0.602,1.199v5.01h-1.199V68.154
			L48.488,68.154z"/>
	</g>
	<polyline fill="none" stroke="#374537" stroke-linecap="round" stroke-miterlimit="10" points="48.061,15.162 43.01,21.359 
		37.959,15.162 	"/>
	<polyline fill="none" stroke="#374537" stroke-width="0.9746" stroke-linecap="round" stroke-miterlimit="10" points="
		47.875,52.863 42.918,46.867 37.959,52.863 	"/>
	<g>
		<g>
			<path fill="#D1D1D1" d="M81.137,2C82.715,2,84,3.279,84,4.851v70.302c0,1.57-1.285,2.852-2.863,2.852H4.861
				c-1.576,0-2.859-1.279-2.859-2.852V4.851C2.002,3.281,3.285,2,4.861,2H81.137 M81.137,0H4.861C2.174,0,0.002,2.173,0.002,4.851
				v70.302c0,2.68,2.174,4.852,4.859,4.852h76.275c2.682,0,4.863-2.17,4.863-4.852V4.851C86,2.173,83.82,0,81.137,0L81.137,0z"/>
		</g>
	</g>
	<rect x="2.014" y="33.17" fill="#D1D1D1" width="81.891" height="4.237"/>
	<g>
		<rect x="7.305" y="37.17" fill="#A2A2A3" width="16.729" height="4.238"/>
		<rect x="34.636" y="37.17" fill="#A2A2A3" width="16.729" height="4.238"/>
		<rect x="61.967" y="37.17" fill="#A2A2A3" width="16.729" height="4.238"/>
	</g>
	<g>
		<rect x="2.207" y="25.294" fill="#C99E48" width="81.697" height="3.262"/>
		<g>
			<polygon fill="#FFFFFF" points="8.914,28.135 7.345,25.294 6.438,25.294 8.008,28.135 			"/>
			<polygon fill="#FFFFFF" points="14.277,28.135 12.707,25.294 11.801,25.294 13.371,28.135 			"/>
			<polygon fill="#FFFFFF" points="19.642,28.135 18.072,25.294 17.164,25.294 18.734,28.135 			"/>
			<polygon fill="#FFFFFF" points="25.002,28.135 23.434,25.294 22.525,25.294 24.096,28.135 			"/>
			<polygon fill="#FFFFFF" points="30.367,28.135 28.798,25.294 27.89,25.294 29.459,28.135 			"/>
			<polygon fill="#FFFFFF" points="35.729,28.135 34.16,25.294 33.255,25.294 34.825,28.135 			"/>
			<polygon fill="#FFFFFF" points="41.093,28.135 39.523,25.294 38.618,25.294 40.188,28.135 			"/>
			<polygon fill="#FFFFFF" points="46.455,28.135 44.887,25.294 43.98,25.294 45.549,28.135 			"/>
			<polygon fill="#FFFFFF" points="51.816,28.135 50.247,25.294 49.344,25.294 50.913,28.135 			"/>
			<polygon fill="#FFFFFF" points="57.181,28.135 55.611,25.294 54.707,25.294 56.277,28.135 			"/>
			<polygon fill="#FFFFFF" points="62.547,28.135 60.977,25.294 60.07,25.294 61.641,28.135 			"/>
			<polygon fill="#FFFFFF" points="67.908,28.135 66.338,25.294 65.435,25.294 67.006,28.135 			"/>
			<polygon fill="#FFFFFF" points="73.273,28.135 71.703,25.294 70.796,25.294 72.365,28.135 			"/>
			<polygon fill="#FFFFFF" points="78.631,28.135 77.063,25.294 76.16,25.294 77.729,28.135 			"/>
			<polygon fill="#FFFFFF" points="83.094,28.135 83.996,28.135 82.428,25.294 81.523,25.294 			"/>
			<polygon fill="#FFFFFF" points="2.207,25.701 2.207,27.341 2.645,28.135 3.551,28.135 			"/>
		</g>
	</g>
	<rect x="2.014" y="28.431" fill="#E5BB70" width="81.891" height="4.716"/>
</g>
</svg>
