<?xml version="1.0" encoding="utf-8"?>
<!-- Generator: Adobe Illustrator 16.0.0, SVG Export Plug-In . SVG Version: 6.00 Build 0)  -->
<!DOCTYPE svg PUBLIC "-//W3C//DTD SVG 1.1//EN" "http://www.w3.org/Graphics/SVG/1.1/DTD/svg11.dtd">
<svg version="1.1" id="Layer_1" xmlns="http://www.w3.org/2000/svg" xmlns:xlink="http://www.w3.org/1999/xlink" x="0px" y="0px"
	 width="86px" height="80px" viewBox="0 0 86 80" enable-background="new 0 0 86 80" xml:space="preserve">
<g>
	<g>
		<path fill="#F7F2ED" d="M927.476,261.369c0,2.68-2.182,4.85-4.861,4.85h-76.275c-2.688,0-4.858-2.172-4.858-4.85v-70.303
			c0-2.678,2.175-4.852,4.858-4.852h76.275c2.684,0,4.861,2.171,4.861,4.852V261.369L927.476,261.369z"/>
	</g>
	<g>
		<g>
			<path fill="#D1D1D1" d="M922.612,188.217c1.578,0,2.861,1.279,2.861,2.852v70.303c0,1.57-1.283,2.854-2.861,2.854h-76.275
				c-1.576,0-2.859-1.279-2.859-2.854v-70.303c0-1.569,1.283-2.852,2.859-2.852H922.612 M922.612,186.217h-76.275
				c-2.688,0-4.859,2.172-4.859,4.852v70.303c0,2.68,2.176,4.854,4.859,4.854h76.275c2.682,0,4.861-2.172,4.861-4.854v-70.303
				C927.476,188.389,925.296,186.217,922.612,186.217L922.612,186.217z"/>
		</g>
	</g>
</g>
<g>
	<path fill="#FFFFFF" d="M899.688,244.623l-0.453,0.148c-5.728,1.871-11.731,0.584-15.675-3.357
		c-4.211-4.211-5.337-10.773-2.982-16.709l-15.743-15.742l10.332-10.333l15.743,15.743c5.935-2.352,12.498-1.227,16.708,2.984
		c3.939,3.939,5.229,9.947,3.356,15.672l-0.146,0.455L899.688,244.623z"/>
	<path fill="#D1D1D1" d="M898.612,242.871l10.461-10.461c1.583-4.846,0.669-10.1-2.871-13.639
		c-4.061-4.06-10.372-4.668-15.738-2.016l-15.299-15.299l-7.504,7.504l15.299,15.3c-2.652,5.364-2.044,11.681,2.015,15.737
		C888.514,243.539,893.768,244.453,898.612,242.871z"/>
	
		<rect x="863.208" y="202.887" transform="matrix(0.7071 -0.7071 0.7071 0.7071 110.798 674.7614)" fill="#B2ADAD" width="13.28" height="1.516"/>
	
		<line fill="none" stroke="#FFFFFF" stroke-width="0.4255" stroke-miterlimit="10" x1="869.469" y1="209.939" x2="873.128" y2="206.282"/>
	
		<line fill="none" stroke="#FFFFFF" stroke-width="0.4255" stroke-miterlimit="10" x1="873.018" y1="213.488" x2="876.677" y2="209.831"/>
	
		<line fill="none" stroke="#FFFFFF" stroke-width="0.4255" stroke-miterlimit="10" x1="876.566" y1="217.038" x2="880.225" y2="213.38"/>
	
		<line fill="none" stroke="#FFFFFF" stroke-width="0.4255" stroke-miterlimit="10" x1="880.115" y1="220.587" x2="883.773" y2="216.928"/>
	
		<line fill="none" stroke="#FFFFFF" stroke-width="0.3723" stroke-miterlimit="10" x1="871.15" y1="211.809" x2="873.449" y2="209.512"/>
	
		<line fill="none" stroke="#FFFFFF" stroke-width="0.3723" stroke-miterlimit="10" x1="874.698" y1="215.355" x2="876.997" y2="213.059"/>
	
		<line fill="none" stroke="#FFFFFF" stroke-width="0.3723" stroke-miterlimit="10" x1="878.247" y1="218.904" x2="880.545" y2="216.607"/>
	<path fill="#E5BB70" d="M883.48,229.333c-0.455,3.478,0.549,6.894,2.906,9.253c1.956,1.956,4.655,3.033,7.602,3.033
		c0,0,0,0,0.001,0c1.188,0,2.383-0.174,3.56-0.514l9.76-9.76c0.194-0.673,0.313-1.345,0.396-2.015L883.48,229.333L883.48,229.333z"
		/>
</g>
<g>
	<rect x="843.531" y="249.309" fill="#D1D1D1" width="81.891" height="7.017"/>
</g>
<path fill="#E5BB70" d="M863.348,211.958l1.942,3.364c0,0,1.652,2.924,1.943,3.962c0.29,1.036,0.29,4.766-4.035,4.766
	c-4.324,0-4.19-3.716-3.735-4.766s1.941-3.962,1.941-3.962L863.348,211.958z"/>
<g>
	<path fill="#E5BB70" d="M877,247.309V246.5c0-1.104-0.896-2-2-2h-21.5c-1.104,0-2,0.896-2,2v0.809H877z"/>
</g>
<g>
	<g>
		<path fill="#F7F2ED" d="M4.861,79c-2.129,0-3.859-1.727-3.859-3.848V4.848c0-2.121,1.73-3.85,3.859-3.85h76.277
			C83.27,0.998,85,2.727,85,4.848v70.305C85,77.273,83.27,79,81.139,79H4.861z"/>
		<path fill="#D1D1D1" d="M81.139,2C82.717,2,84,3.277,84,4.85v70.303c0,1.57-1.283,2.85-2.861,2.85H4.861
			c-1.578,0-2.859-1.275-2.859-2.85V4.85C2.002,3.277,3.285,2,4.861,2H81.139 M81.139,0H4.861C2.175,0,0.002,2.172,0.002,4.85
			v70.303c0,2.676,2.176,4.85,4.859,4.85h76.277c2.688,0,4.861-2.174,4.861-4.85V4.85C86,2.172,83.826,0,81.139,0L81.139,0z"/>
	</g>
</g>
<path fill="#6C7050" d="M42.598,67.621c-9.023,0-17.983-0.943-24.582-2.584C7.331,62.377,3.112,56.117,3.67,51.092
	c0.482-4.338,4.677-8.975,15.003-8.975c11.333,0,18.702-1.673,25.203-3.152c3.338-0.758,6.488-1.474,9.713-1.831
	c0.598-0.066,1.243-0.1,1.92-0.1c8.086,0,21.805,4.956,25.693,10.526c1.705,2.439,1.426,4.588,1.107,5.65
	c-3.894,13.006-29.067,14.41-39.71,14.41H42.598z"/>
<path fill="#F7F2ED" d="M42.598,65.621c-8.883,0-17.683-0.924-24.144-2.531C8.96,60.729,5.115,55.336,5.561,51.324
	c0.387-3.484,4.036-7.207,13.113-7.207c11.537,0,19.012-1.699,25.607-3.197c3.286-0.747,6.391-1.452,9.508-1.796
	c0.531-0.059,1.11-0.089,1.721-0.089c7.589,0,20.667,4.708,24.159,9.708c1.147,1.645,1.083,3.012,0.825,3.869
	c-3.613,12.07-29.913,13.01-37.894,13.01C42.6,65.621,42.599,65.621,42.598,65.621z"/>
<path fill="#C99E48" d="M18.674,62.117c18.083,4.5,56.815,3.881,60.913-9.807c1.753-5.855-17.179-13.135-25.698-12.193
	c-9.041,1-17.601,5-35.215,5C2.018,45.117,2.806,58.168,18.674,62.117z"/>
<rect x="35.937" y="23.618" fill="#FFFFFF" width="15" height="16.5"/>
<path fill="#FFFFFF" d="M11.761,53.322l-0.042-0.453c-0.005-0.055-0.113-1.348,0.803-2.354c0.678-0.744,1.71-1.121,3.068-1.121
	h7.795c1.038-1.701,7.041-11.265,12.265-13.642l0.748-0.34l-0.236,4.679l-0.362,0.089c-1.82,0.443-7.387,8.156-10.467,12.914
	l-0.148,0.229H11.761z"/>
<path fill="#D1D1D1" d="M15.59,49.895c3.645,0,8.077,0,8.077,0s6.649-11.166,12.19-13.687l-0.176,3.486
	c-2.692,0.656-10.769,13.128-10.769,13.128H12.216C12.216,52.822,11.944,49.895,15.59,49.895z"/>
<path fill="#D1D1D1" d="M46.822,36.965v-6.331c0-1.198-1.529-2.835-3.417-2.835c-1.889,0-3.418,1.637-3.418,2.835v6.331H46.822z"/>
<path fill="#A2A2A3" d="M40.986,35.965v-5.331c0-0.612,1.045-1.835,2.418-1.835c1.373,0,2.417,1.223,2.417,1.835v5.331H40.986z"/>
<path fill="#D1D1D1" d="M68.514,26.21v27.793c0,0.039,0.004,0.076,0.005,0.115h2.074c0.001-0.039,0.005-0.076,0.005-0.115V26.21
	H68.514z"/>
<polygon fill="#FFFFFF" points="48.714,54.619 48.696,54 48.696,41.518 38.078,41.518 38.078,54.5 37.573,54.619 35.01,54.619 
	34.993,54 34.993,24.962 38.078,24.962 38.078,38.897 48.696,38.897 48.696,24.962 51.781,24.962 51.781,54.5 51.275,54.619 "/>
<path fill="#D1D1D1" d="M49.196,25.462v13.935H37.578V25.462h-2.084V54c0,0.041,0.004,0.078,0.005,0.119h2.075
	c0-0.041,0.005-0.078,0.005-0.119V41.018h11.619V54c0,0.041,0.005,0.078,0.005,0.119h2.074c0.002-0.041,0.006-0.078,0.006-0.119
	V25.462H49.196z"/>
<rect x="51.281" y="26.193" fill="#D1D1D1" width="17.299" height="1.622"/>
<rect x="56.836" y="42.018" fill="#FFFFFF" width="6.342" height="1.324"/>
<rect x="56.836" y="43.705" fill="#FFFFFF" width="6.342" height="1.324"/>
<rect x="56.836" y="46.605" fill="#FFFFFF" width="6.342" height="0.951"/>
<rect x="57.124" y="27.586" fill="#A2A2A3" width="0.522" height="18.935"/>
<rect x="62.314" y="27.586" fill="#A2A2A3" width="0.522" height="18.935"/>
<rect x="56.41" y="27.602" fill="#A2A2A3" width="2.12" height="1"/>
<rect x="61.604" y="27.602" fill="#A2A2A3" width="2.119" height="1"/>
<path fill="#C99E48" d="M43.906,15.975c0.391,0.352,7.503,7.093,9.523,9.008c0.336,0.318-0.022,0.503-0.022,0.503H43.405h-9.96
	c0,0-0.435-0.153-0.153-0.421c1.911-1.816,9.355-8.887,9.65-9.125C43.281,15.665,43.452,15.564,43.906,15.975z"/>
<g>
	<polygon fill="#F4CE89" points="24.344,15.869 17.39,15.869 22.307,10.952 21.841,10.486 16.924,15.403 16.924,8.449 16.264,8.449 
		16.264,15.402 11.347,10.486 10.881,10.952 15.798,15.869 8.844,15.869 8.844,16.529 15.797,16.529 10.88,21.446 11.347,21.913 
		16.264,16.996 16.264,23.949 16.924,23.949 16.924,16.995 21.841,21.913 22.308,21.446 17.391,16.529 24.344,16.529 	"/>
	<path fill="#F7F2ED" d="M16.515,19.995c-1.962,0-3.559-1.597-3.559-3.559c0-1.962,1.596-3.559,3.559-3.559s3.559,1.596,3.559,3.559
		C20.073,18.398,18.477,19.995,16.515,19.995z"/>
	<circle fill="#F4CE89" cx="16.515" cy="16.437" r="2.61"/>
</g>
</svg>
