<?xml version="1.0" encoding="utf-8"?>
<!-- Generator: Adobe Illustrator 16.0.0, SVG Export Plug-In . SVG Version: 6.00 Build 0)  -->
<!DOCTYPE svg PUBLIC "-//W3C//DTD SVG 1.1//EN" "http://www.w3.org/Graphics/SVG/1.1/DTD/svg11.dtd">
<svg version="1.1" id="Layer_1" xmlns="http://www.w3.org/2000/svg" xmlns:xlink="http://www.w3.org/1999/xlink" x="0px" y="0px"
	 width="86px" height="80px" viewBox="0 0 86 80" enable-background="new 0 0 86 80" xml:space="preserve">
<g>
	<g>
		<path fill="#F7F2ED" d="M4.486,79.201c-2.129,0-3.859-1.728-3.859-3.848V5.048c0-2.121,1.73-3.851,3.859-3.851h76.279
			c2.131,0,3.859,1.729,3.859,3.851v70.306c0,2.12-1.729,3.848-3.857,3.848H4.486z"/>
		<path fill="#D1D1D1" d="M81.143,2C82.719,2,84,3.278,84,4.85v70.303c0,1.57-1.281,2.848-2.857,2.848H4.861
			c-1.577,0-2.859-1.277-2.859-2.848V4.85C2.002,3.278,3.284,2,4.861,2H81.143 M81.143,0H4.861C2.176,0,0.002,2.172,0.002,4.85
			v70.303c0,2.676,2.175,4.848,4.859,4.848h76.279c2.686,0,4.859-2.172,4.859-4.848V4.85C86,2.172,83.826,0,81.143,0L81.143,0z"/>
	</g>
</g>
<g>
	<path fill="none" stroke="#A2A1A2" stroke-width="0.6247" stroke-miterlimit="10" d="M47.783,22.821
		c-3.938,1-7.574,0.898-10.283-0.384"/>
	<g>
		<path fill="#C8C3BD" d="M45.033,13.54c0.035-1.319-0.348-2.759-2.106-2.809c-1.667-0.046-2.22,1.366-2.26,2.686L45.033,13.54z"/>
		
			<rect x="42.562" y="11.881" transform="matrix(0.0287 -0.9996 0.9996 0.0287 27.551 56.472)" fill="#E5BB70" width="0.544" height="4.357"/>
		<g>
			<g>
				<path fill="#A2A2A3" d="M38.8,19.546c0,0,0.274-0.427,0.358-0.41c1.043,0.227,2.153,0.359,3.305,0.392
					c1.251,0.035,2.458-0.048,3.587-0.248c0.084-0.015,0.338,0.424,0.338,0.424c-1.236,0.239-2.561,0.341-3.939,0.302
					C41.175,19.97,39.948,19.815,38.8,19.546z"/>
			</g>
			<g>
				<polygon fill="#D1D1D1" points="44.742,14.87 44.453,14.861 48.412,27.494 50.377,27.636 				"/>
				<polygon fill="#D1D1D1" points="46.609,28.892 43.832,14.843 44.074,14.851 47.967,27.695 				"/>
				<polygon fill="#D1D1D1" points="44.211,28.316 42.489,29.172 42.874,14.817 43.063,14.822 				"/>
				<polygon fill="#D1D1D1" points="38.295,28.538 37.012,27.272 41.584,14.779 41.784,14.786 				"/>
				<polygon fill="#D1D1D1" points="40.249,28.122 38.334,28.576 38.295,28.538 41.784,14.786 42.169,14.797 				"/>
				<polygon fill="#D1D1D1" points="40.917,14.761 34.532,27.262 36.501,27.231 41.198,14.769 				"/>
				<polygon fill="#D1D1D1" points="42.489,29.172 42.448,29.191 40.866,28.222 42.522,14.806 42.874,14.817 				"/>
				<polygon fill="#D1D1D1" points="46.574,28.921 44.688,28.358 43.514,14.834 43.832,14.843 46.609,28.892 				"/>
			</g>
		</g>
	</g>
</g>
<g>
	<circle fill="#D1D1D1" cx="19.771" cy="35.289" r="12.254"/>
	<g>
		<path fill="#A2A2A3" d="M7.835,32.504c2.386-0.945,5.097-0.811,7.19,0.715c4.248,3.097,0.5,12.874,3.328,14.243l0.828,0.071
			c-2.798-1.38,1.003-11.651-3.678-15c-2.174-1.554-4.977-1.6-7.472-0.768L7.835,32.504z"/>
	</g>
	<path fill="#A2A2A3" d="M11.671,44.485c-1.56-2.406,0.437-7.683,4.776-12.287c4.457-4.729,9.77-7.033,12.184-5.377l-0.535-0.523
		c-2.414-1.656-7.721,0.646-12.178,5.374c-4.373,4.642-6.369,9.97-4.736,12.351L11.671,44.485z"/>
	<g>
		<path fill="#A2A2A3" d="M19.547,23.04c-0.001,1.95,0.232,3.492,1.614,5.024c2.389,2.647,7.501,2.267,10.349,3.995l0.299,0.752
			c-4.657-1.75-8.645-1.277-11.271-4.188c-1.518-1.683-1.817-3.41-1.817-5.545L19.547,23.04z"/>
	</g>
	<g>
		<path fill="#A2A2A3" d="M28.016,44.353c-0.94-2.443-3.296-6.548-6.154-10.556c-3.926-5.5-8.29-9.118-9.789-8.057l-0.621,0.537
			c1.5-1.063,5.836,2.535,9.742,7.997c2.84,3.969,5.279,8.209,6.105,10.686L28.016,44.353z"/>
	</g>
</g>
<polygon fill="#F7F2ED" points="44.885,39.233 72.885,13.234 72.219,39.233 "/>
<g>
	<g>
		<path fill="#D1D1D1" d="M82.738,31.984H60.76v18.117h21.979V31.984z M70.916,40.354c0.119,0.318,0.254,0.68,0.176,1.119
			c-0.1,0.571-0.48,1.899-1.818,1.899l-1.039,0.001l0.057-0.242c0.191-0.822,0.375-0.989,0.436-1.044v-0.001
			c-0.08-0.202-0.246-0.428-0.32-0.428l-0.023,0.005l-0.008,0.021c-0.117,0.283-0.217,0.771-0.307,1.2l-0.102,0.49L67.461,43.4
			l-0.057-0.116c-0.094-0.184-0.148-0.422-0.205-0.746c-0.035-0.205-0.072-0.412-0.131-0.602c-0.016-0.047-0.055-0.124-0.156-0.124
			c-0.08,0-0.172,0.054-0.223,0.131c-0.043,0.065-0.051,0.134-0.025,0.195c0.162,0.385,0.313,0.806,0.402,1.128l0.051,0.186
			l-0.469,0.145l-0.271-0.113c-0.209-0.09-0.332-0.141-0.443-0.156c-0.018,0.002-0.09,0.043-0.1,0.104
			c-0.008,0.034,0.01,0.067,0.049,0.1l0.309,0.25l-0.387,0.093c-0.105,0.024-0.223,0.038-0.348,0.038
			c-0.746,0-1.684-0.438-2.092-0.849c-0.473-0.474-0.066-1.251,0.137-1.573c-0.52-0.494-1.225-1.253-0.744-2.086
			c0.148-0.256,0.375-0.419,0.594-0.575c0.199-0.144,0.387-0.277,0.473-0.46c0.143-0.304,0.051-0.664-0.039-1.013
			c-0.07-0.278-0.145-0.566-0.098-0.831c0.096-0.539,0.598-1.357,1.42-1.485c0.283-0.044,0.318-0.185,0.373-0.398
			c0.018-0.065,0.033-0.129,0.057-0.183c0.291-0.723,1.049-1.171,1.98-1.171c0.977,0,2.195,0.544,2.563,1.737
			c0.082,0.273,0.076,0.497,0.072,0.692c-0.006,0.259-0.012,0.445,0.168,0.699c0.08,0.111,0.225,0.179,0.395,0.256
			c0.234,0.109,0.502,0.232,0.684,0.52c0.529,0.833,0.121,1.289-0.207,1.656c-0.168,0.191-0.328,0.369-0.398,0.601
			C70.697,39.767,70.799,40.038,70.916,40.354z"/>
		<g>
			<path fill="#C99E48" d="M67.184,44.653c0.254,0.545,0.09,2.416-0.318,2.716c-0.955,0.704-0.809,0.755-0.754,0.755
				c0.252,0,0.855-0.354,1.006-0.152c0.076,0.104-0.24,0.59-0.201,0.705c0.051,0.201,0.559-0.416,1.006-0.653
				c0.494-0.263,0.623-0.052,0.943,0.243c0.301-0.535-0.383-1.096-0.592-1.652c-0.453-1.207-0.1-4.023,0.453-4.526
				c-0.051-0.151-0.299-0.531-0.352-0.402c-0.225,0.54-0.391,1.849-0.504,1.962c-0.674-0.09-0.588-1.027-0.803-1.711
				c-0.09-0.282-0.5-0.027-0.404,0.202c0.248,0.586,0.549,1.463,0.453,1.559c-0.15,0.101-0.936-0.333-1.146-0.368
				c-0.084-0.014-0.285,0.153,0.039,0.268C66.865,43.899,67.184,44.653,67.184,44.653z"/>
			<path fill="#F7F2ED" d="M65.457,43.597c-0.658,0-1.512-0.398-1.869-0.756c-0.334-0.336,0.078-1.059,0.266-1.309l0.063-0.084
				l-0.076-0.073c-0.635-0.595-1.174-1.183-0.809-1.815c0.111-0.196,0.303-0.332,0.504-0.477c0.223-0.16,0.453-0.324,0.574-0.581
				c0.189-0.406,0.078-0.841-0.02-1.226c-0.064-0.258-0.127-0.5-0.092-0.697c0.076-0.436,0.498-1.125,1.158-1.229
				c0.488-0.076,0.572-0.41,0.631-0.631c0.012-0.051,0.023-0.101,0.041-0.144c0.246-0.61,0.879-0.975,1.689-0.975
				c0.865,0,1.941,0.475,2.26,1.517c0.07,0.223,0.064,0.411,0.061,0.593c-0.008,0.27-0.014,0.548,0.227,0.887
				c0.129,0.18,0.326,0.271,0.518,0.361c0.215,0.098,0.418,0.191,0.551,0.4c0.402,0.633,0.16,0.904-0.176,1.279
				c-0.176,0.197-0.375,0.422-0.465,0.719c-0.127,0.42,0.004,0.77,0.129,1.107c0.115,0.309,0.225,0.6,0.162,0.955
				c-0.109,0.611-0.449,1.639-1.51,1.639h-0.641c0.139-0.537,0.258-0.693,0.305-0.736l0.15-0.139l-0.063-0.193
				c-0.002-0.007-0.244-0.645-0.619-0.645l-0.182,0.028l-0.141,0.192c-0.131,0.32-0.238,0.846-0.324,1.268l-0.049,0.238
				l-0.059,0.002c-0.057-0.142-0.098-0.334-0.143-0.59c-0.039-0.217-0.078-0.439-0.143-0.642c-0.066-0.209-0.244-0.345-0.455-0.345
				c-0.186,0-0.375,0.107-0.484,0.272c-0.102,0.151-0.121,0.331-0.055,0.491c0.152,0.359,0.279,0.713,0.357,0.98l-0.111,0.035
				l-0.117-0.082c-0.229-0.098-0.373-0.158-0.525-0.179h-0.002c-0.201,0-0.412,0.136-0.451,0.362
				c-0.008,0.041-0.014,0.125,0.023,0.217C65.518,43.596,65.488,43.597,65.457,43.597z"/>
		</g>
		<path fill="#F7F2ED" d="M77.986,37.907c0-1.085,0.525-2.037,1.326-2.648c-1.488,0.12-2.662,1.351-2.662,2.87
			c0,1.599,1.297,2.894,2.895,2.894c0.16,0,0.316-0.023,0.469-0.047C78.82,40.466,77.986,39.284,77.986,37.907z"/>
		<path fill="#E5BB70" d="M68.848,47.22c0.223,0.354,0.412,0.741,0.188,1.143l-0.121,0.217l-0.281-0.262
			c-0.152-0.146-0.232-0.217-0.332-0.217c-0.07,0-0.166,0.032-0.287,0.096c-0.176,0.093-0.369,0.257-0.539,0.4
			c-0.25,0.213-0.377,0.316-0.514,0.316h-0.152l-0.082-0.188c-0.041-0.109,0.023-0.255,0.109-0.454
			c0.02-0.043,0.047-0.104,0.066-0.156c-0.107,0.016-0.232,0.059-0.348,0.098c-0.172,0.059-0.318,0.107-0.443,0.107h-0.143
			l-0.084-0.156c-0.051-0.152-0.018-0.302,0.865-0.951c0.074-0.057,0.143-0.207,0.199-0.41c-2.49-0.529-4.805-0.95-6.254-1.111
			l0.064,4.41h17.826C77.936,49.496,73.383,48.245,68.848,47.22z"/>
		<polygon fill="#E5BB70" points="82.738,51.032 59.629,51.032 59.629,30.954 82.738,30.954 82.738,29.973 58.646,29.973 
			58.646,52.013 82.738,52.013 		"/>
		<path fill="#C99E48" d="M82.738,45.013c-2.811,0.729-6.15,1.836-8.188,3.084c2.955,0.655,4.889,1.945,4.889,1.945h3.299V45.013z"
			/>
	</g>
	<path fill="none" stroke="#E5BB70" stroke-width="1.0201" stroke-miterlimit="10" d="M82.723,67.876
		c-2.252,1.045-5.146,1.673-8.303,1.673c-7.178,0-13-3.249-13-7.259"/>
	<path fill="none" stroke="#E5BB70" stroke-width="1.0201" stroke-miterlimit="10" d="M61.027,62.29c0,4.01-5.82,7.259-13,7.259
		c-7.178,0-12.999-3.249-12.999-7.259"/>
	<path fill="none" stroke="#E5BB70" stroke-width="1.0201" stroke-miterlimit="10" d="M22.192,69.549c7.18,0,13-3.249,13-7.259"/>
	<g>
		<rect x="59.813" y="59.827" fill="#A2A2A3" width="2.813" height="1.1"/>
		<polygon fill="#D1D1D1" points="61.883,72.79 60.51,72.79 60.557,61.29 61.932,61.29 		"/>
		<polygon fill="#D1D1D1" points="61.91,59.459 60.564,59.459 60.57,58.233 61.916,58.233 		"/>
		<polygon fill="#A2A2A3" points="64.582,74.745 57.855,74.745 58.971,73.277 63.467,73.277 		"/>
	</g>
	<g>
		<rect x="33.803" y="59.827" fill="#A2A2A3" width="2.813" height="1.1"/>
		<polygon fill="#D1D1D1" points="35.874,72.79 34.5,72.79 34.547,61.29 35.922,61.29 		"/>
		<polygon fill="#D1D1D1" points="35.901,59.459 34.556,59.459 34.561,58.233 35.907,58.233 		"/>
		<polygon fill="#A2A2A3" points="38.573,74.745 31.847,74.745 32.962,73.277 37.458,73.277 		"/>
	</g>
</g>
<line fill="none" stroke="#D1D1D1" stroke-width="2.0426" stroke-miterlimit="10" x1="1.446" y1="77.353" x2="83.803" y2="2.233"/>
<g>
	<circle fill-rule="evenodd" clip-rule="evenodd" fill="#E5BB70" cx="23.148" cy="12.838" r="3.7"/>
	<path fill-rule="evenodd" clip-rule="evenodd" fill="#F7F2ED" d="M22.272,16.43c0.176,0.042,0.355,0.075,0.54,0.092
		c0.177-1.724,1.638-3.073,3.407-3.073c0.193,0,0.382,0.02,0.566,0.051c0.032-0.178,0.051-0.359,0.057-0.545
		c-0.203-0.032-0.41-0.054-0.623-0.054C24.178,12.9,22.495,14.447,22.272,16.43z"/>
	<path fill-rule="evenodd" clip-rule="evenodd" fill="#F7F2ED" d="M24.083,9.263c-0.175-0.046-0.354-0.083-0.538-0.102
		c-0.172,1.729-1.635,3.084-3.409,3.084c-0.214,0-0.422-0.021-0.626-0.06c-0.031,0.178-0.05,0.359-0.056,0.545
		c0.223,0.039,0.449,0.063,0.682,0.063C22.176,12.793,23.862,11.246,24.083,9.263z"/>
</g>
</svg>
