<?xml version="1.0" encoding="utf-8"?>
<!-- Generator: Adobe Illustrator 16.0.0, SVG Export Plug-In . SVG Version: 6.00 Build 0)  -->
<!DOCTYPE svg PUBLIC "-//W3C//DTD SVG 1.1//EN" "http://www.w3.org/Graphics/SVG/1.1/DTD/svg11.dtd">
<svg version="1.1" id="Layer_1" xmlns="http://www.w3.org/2000/svg" xmlns:xlink="http://www.w3.org/1999/xlink" x="0px" y="0px"
	 width="86px" height="80px" viewBox="0 0 86 80" enable-background="new 0 0 86 80" xml:space="preserve">
<g>
	<g>
		<path fill="#F7F2ED" d="M4.859,79.076C2.73,79.076,1,77.348,1,75.229V4.922c0-2.121,1.73-3.851,3.859-3.851h76.279
			c2.131,0,3.859,1.729,3.859,3.851v70.306c0,2.119-1.729,3.848-3.857,3.848H4.859z"/>
		<path fill="#D1D1D1" d="M81.141,2c1.576,0,2.857,1.277,2.857,2.85v70.303c0,1.57-1.281,2.848-2.857,2.848H4.859
			C3.282,78,2,76.724,2,75.152V4.85C2,3.277,3.282,2,4.859,2H81.141 M81.141,0H4.859C2.174,0,0,2.172,0,4.85v70.303
			c0,2.676,2.175,4.849,4.859,4.849h76.279c2.686,0,4.859-2.173,4.859-4.849V4.85C85.998,2.172,83.824,0,81.141,0L81.141,0z"/>
	</g>
</g>
<path fill="#D1D1D1" d="M29.041,16.96c-0.036,0.25-0.061,0.502-0.061,0.762c0,2.938,2.382,5.32,5.319,5.32
	c3.99,0,5.32-2.382,5.32-5.32c0-0.26-0.023-0.513-0.061-0.762H29.041z"/>
<circle fill="#A2A2A3" cx="37.699" cy="18.462" r="0.591"/>
<path fill="#D1D1D1" d="M48.756,29.34c-0.646-0.707-1.715-0.779-2.387-0.162l-3.07,2.817l-3.468-4.772
	c-0.603-0.829-1.846-0.952-2.776-0.276c-0.931,0.677-1.195,1.897-0.594,2.727l4.563,6.278c0.604,0.83,1.846,0.954,2.777,0.277
	c0.114-0.083,0.219-0.175,0.313-0.272c0.004-0.003,0.008-0.005,0.012-0.009l4.59-4.213C49.387,31.118,49.406,30.045,48.756,29.34z"
	/>
<path fill="#A2A2A3" d="M30.921,21.833l3.526-4.848l-5.409,0c-0.034,0.242-0.059,0.487-0.059,0.739
	C28.98,19.378,29.737,20.857,30.921,21.833z"/>
<path fill="#D1D1D1" stroke="#FFFFFF" stroke-width="0.5" stroke-miterlimit="10" d="M39.842,42.182c0,2.285-2.117,3.25-4.73,3.25
	l0,0c-2.611,0-4.729-0.965-4.729-3.25V28.881c0-2.286,2.117-4.139,4.729-4.139l0,0c2.613,0,4.73,1.853,4.73,4.139V42.182z"/>
<path fill="#D1D1D1" d="M34.579,25.839c-0.621-0.969-1.975-1.207-3.025-0.533l-7.955,5.103c-0.807,0.518-1.194,1.423-1.051,2.253
	c-0.048,0.168-0.077,0.344-0.066,0.528l0.371,6.221c0.055,0.908,0.875,1.6,1.831,1.543c0.956-0.058,1.688-0.841,1.633-1.751
	l-0.322-5.381l7.808-5.009C34.853,28.139,35.2,26.807,34.579,25.839z"/>
<path fill="#D1D1D1" d="M36.074,25.043c0,0.609-0.794,1.103-1.774,1.103l0,0c-0.979,0-1.773-0.494-1.773-1.103v-2.148
	c0-0.61,0.795-1.104,1.773-1.104v-0.005c0.98,0,1.774,0.499,1.774,1.109V25.043z"/>
<path fill="#D1D1D1" d="M35.143,65.879c0.029-0.137,0.044-0.277,0.044-0.422V45.063c0-1.143-0.927-2.068-2.069-2.068
	s-2.068,0.926-2.068,2.068v20.395c0,0.145,0.016,0.285,0.043,0.422H35.143z"/>
<g>
	<path fill="#D1D1D1" d="M49.057,48.188c0.967,0.514,1.332,1.716,0.816,2.687l0,0c-0.516,0.972-1.719,1.342-2.686,0.829
		l-9.422-5.006c-0.968-0.514-1.333-1.717-0.816-2.688l0,0c0.516-0.97,1.718-1.342,2.685-0.827L49.057,48.188z"/>
	<path fill="#D1D1D1" d="M46.385,60.594c-0.42,0.975-1.551,1.424-2.525,1.006l0,0c-0.973-0.42-1.423-1.551-1.004-2.525l4.086-9.502
		c0.42-0.976,1.549-1.426,2.523-1.006l0,0c0.977,0.419,1.426,1.55,1.006,2.523L46.385,60.594z"/>
</g>
<g>
	<polygon fill="#E5BB70" points="36.295,53.635 29.334,53.701 29.867,41.813 36.014,41.885 	"/>
	<path fill="#E5BB70" d="M47.082,45.875l-3.841,5.911c0,0-5.592-3.224-6.306-3.569s-0.861,0.614-0.861,0.614l-2.069-7.019h6.207
		L47.082,45.875z"/>
</g>
<g>
	<path fill="#E5BB70" d="M28.503,16.141c0.739-2.833,2.432-4.918,6.255-4.752c2.586,0.113,4.478,2.035,4.779,4.752H28.503z"/>
	<path fill="#E5BB70" d="M26.885,16.141c0.003-0.006-0.564-0.021-0.564-0.021c-0.463,0-0.537-0.24-0.911-0.586
		c-0.676-0.625-0.458-0.965,0.005-0.965h3.711c0,0-0.049-0.048-0.014-0.005c0.939,0.141,1.803,0.785,2.252,1.577H26.885z"/>
</g>
<rect x="29.276" y="53.561" fill="#F7F2ED" width="7.02" height="0.738"/>
<rect x="41.302" y="48.562" transform="matrix(0.5255 -0.8508 0.8508 0.5255 -20.2702 61.518)" fill="#F7F2ED" width="7.429" height="0.738"/>
<rect x="29.79" y="40.482" fill="#C99E48" width="10.569" height="1.33"/>
<g>
	<rect x="2.054" y="65.979" fill="#C99E48" width="81.892" height="3.49"/>
</g>
<rect x="2.054" y="68.814" fill="#E5BB70" width="81.891" height="3.965"/>
<path fill="#A2A2A3" d="M30.865,65.879H37.1c0.019-0.11,0.031-0.223,0.031-0.338c0-1.039-0.781-1.882-1.746-1.882h-4.27
	C30.674,63.659,30.866,65.769,30.865,65.879z"/>
<path fill="#A2A2A3" d="M41.661,60.822l5.519,2.898c0.068-0.089,0.133-0.182,0.186-0.285c0.482-0.919,0.182-2.028-0.672-2.477
	l-3.763-1.954C42.44,58.76,41.711,60.725,41.661,60.822z"/>
<path fill="#A2A2A3" d="M32.139,24.772c0,0,0.454,1.167,2.439,1.077c1.986-0.091,1.986-1.077,1.986-1.077s2.584,0.426,3.756,2.069
	c0.119,0.167,2.438,3.25,2.688,3.516L40.08,32.92l0.201,7.712l-10.438-0.075l0.353-8.465l-2.063,1.188l-2.504-5.156L32.139,24.772z"
	/>
<path fill-rule="evenodd" clip-rule="evenodd" fill="#A2A2A3" d="M62.77,40.416c0,0.186,0,0.372,0,0.559
	c-0.002,0.023-0.008,0.047-0.01,0.069c-0.027,0.254-0.041,0.511-0.086,0.762c-0.271,1.501-0.992,2.753-2.15,3.739
	c-1.354,1.153-2.93,1.646-4.701,1.503c-0.648-0.053-1.273-0.208-1.871-0.462c-1.416-0.602-2.494-1.578-3.207-2.943
	c-0.416-0.795-0.672-1.641-0.709-2.543c-0.02-0.512-0.02-1.021,0.08-1.527c0.25-1.275,0.807-2.389,1.717-3.32
	c1.123-1.148,2.498-1.775,4.09-1.915c0.465-0.041,0.934-0.015,1.395,0.05c0.863,0.121,1.664,0.426,2.404,0.879
	c1.033,0.631,1.818,1.496,2.369,2.571c0.352,0.687,0.564,1.417,0.643,2.186C62.746,40.153,62.758,40.284,62.77,40.416z
	 M56.594,37.444c0,0.292,0,0.585,0.002,0.878c0,0.026,0.018,0.063,0.039,0.078c0.625,0.457,1.254,0.912,1.879,1.37
	c0.074,0.054,0.141,0.068,0.227,0.04c0.52-0.167,1.037-0.332,1.559-0.496c0.043-0.014,0.055-0.041,0.066-0.077
	c0.23-0.723,0.463-1.446,0.697-2.168c0.016-0.052,0.01-0.089-0.025-0.13c-0.301-0.362-0.631-0.695-1.006-0.983
	c-0.398-0.307-0.836-0.548-1.293-0.753c-0.201-0.09-0.143-0.114-0.342,0.027c-0.594,0.417-1.182,0.843-1.77,1.268
	c-0.02,0.014-0.031,0.049-0.031,0.075C56.594,36.863,56.594,37.154,56.594,37.444z M56.193,37.451c0-0.293,0.002-0.584-0.002-0.877
	c0-0.027-0.014-0.065-0.035-0.08c-0.604-0.439-1.211-0.876-1.814-1.316c-0.066-0.049-0.123-0.051-0.195-0.02
	c-0.357,0.152-0.699,0.332-1.025,0.541c-0.531,0.339-0.977,0.773-1.383,1.25c-0.016,0.02-0.018,0.061-0.01,0.088
	c0.236,0.734,0.477,1.469,0.711,2.203c0.018,0.054,0.051,0.07,0.096,0.084c0.52,0.164,1.039,0.326,1.559,0.492
	c0.061,0.02,0.107,0.008,0.16-0.029c0.631-0.461,1.264-0.921,1.896-1.379c0.035-0.025,0.045-0.053,0.045-0.093
	C56.193,38.027,56.193,37.739,56.193,37.451z M60.172,44.012c0,0.001,0,0.002,0,0.003c0.381,0,0.764-0.001,1.145,0.001
	c0.041,0,0.066-0.01,0.088-0.048c0.074-0.134,0.154-0.265,0.229-0.399c0.396-0.724,0.631-1.498,0.715-2.316
	c0.014-0.119,0-0.213-0.119-0.267c-0.018-0.008-0.031-0.022-0.049-0.033c-0.555-0.399-1.111-0.798-1.668-1.197
	c-0.055-0.04-0.104-0.052-0.172-0.03c-0.498,0.165-1,0.325-1.5,0.486c-0.051,0.016-0.08,0.041-0.098,0.096
	c-0.246,0.76-0.494,1.518-0.744,2.276c-0.012,0.039-0.01,0.067,0.016,0.101c0.309,0.426,0.617,0.853,0.924,1.28
	c0.027,0.036,0.055,0.049,0.098,0.048C59.414,44.011,59.793,44.012,60.172,44.012z M52.613,44.014c0-0.001,0-0.002,0-0.002
	c0.383,0,0.764,0,1.145-0.002c0.027,0,0.066-0.015,0.08-0.035c0.311-0.428,0.619-0.857,0.926-1.287
	c0.018-0.023,0.023-0.066,0.014-0.095c-0.244-0.769-0.49-1.536-0.736-2.304c-0.014-0.039-0.033-0.061-0.074-0.073
	c-0.51-0.163-1.02-0.329-1.529-0.495c-0.051-0.018-0.09-0.01-0.131,0.021c-0.557,0.401-1.113,0.801-1.672,1.202
	c-0.221,0.159-0.219,0.159-0.184,0.429c0.047,0.364,0.127,0.72,0.229,1.072c0.158,0.549,0.416,1.053,0.717,1.535
	c0.012,0.02,0.049,0.031,0.074,0.032C51.852,44.015,52.232,44.014,52.613,44.014z M56.4,42.867c-0.4,0-0.801,0.001-1.201-0.002
	c-0.047,0-0.076,0.014-0.102,0.053c-0.043,0.065-0.092,0.127-0.137,0.189c-0.258,0.359-0.514,0.719-0.773,1.077
	c-0.033,0.047-0.039,0.088-0.021,0.144c0.049,0.143,0.092,0.289,0.139,0.433c0.178,0.554,0.357,1.107,0.537,1.661
	c0.008,0.024,0.031,0.059,0.053,0.063c0.273,0.055,0.545,0.129,0.822,0.152c0.727,0.061,1.453,0.051,2.166-0.146
	c0.043-0.012,0.061-0.03,0.072-0.069c0.078-0.243,0.156-0.486,0.232-0.729c0.146-0.466,0.291-0.933,0.439-1.398
	c0.014-0.044,0.008-0.077-0.02-0.114c-0.307-0.42-0.611-0.841-0.914-1.263c-0.027-0.038-0.057-0.052-0.102-0.051
	C57.195,42.867,56.799,42.867,56.4,42.867z"/>
<path fill="none" stroke="#F7F2ED" stroke-width="0.5" stroke-linecap="round" stroke-linejoin="round" stroke-miterlimit="10" d="
	M38.8,28.488c0,0,1.458,2.396,1.5,11.875"/>
</svg>
