<?xml version="1.0" encoding="utf-8"?>
<!-- Generator: Adobe Illustrator 16.0.0, SVG Export Plug-In . SVG Version: 6.00 Build 0)  -->
<!DOCTYPE svg PUBLIC "-//W3C//DTD SVG 1.1//EN" "http://www.w3.org/Graphics/SVG/1.1/DTD/svg11.dtd">
<svg version="1.1" id="Layer_1" xmlns="http://www.w3.org/2000/svg" xmlns:xlink="http://www.w3.org/1999/xlink" x="0px" y="0px"
	 width="86px" height="80px" viewBox="0 0 86 80" enable-background="new 0 0 86 80" xml:space="preserve">
<g>
	<g>
		<path fill="#F7F2ED" d="M4.859,79C2.73,79,1,77.272,1,75.152V4.847c0-2.121,1.73-3.851,3.859-3.851h76.279
			c2.131,0,3.859,1.729,3.859,3.851v70.306c0,2.12-1.729,3.848-3.857,3.848H4.859z"/>
		<path fill="#D1D1D1" d="M81.141,2c1.576,0,2.857,1.277,2.857,2.85v70.303c0,1.57-1.281,2.848-2.857,2.848H4.859
			C3.282,78,2,76.724,2,75.152V4.85C2,3.277,3.282,2,4.859,2H81.141 M81.141,0H4.859C2.174,0,0,2.172,0,4.85v70.303
			c0,2.676,2.175,4.849,4.859,4.849h76.279c2.686,0,4.859-2.173,4.859-4.849V4.85C85.998,2.172,83.824,0,81.141,0L81.141,0z"/>
	</g>
</g>
<g>
	<g>
		<path fill="#D1D1D1" d="M15.303,53.84h-2.024v0.427h2.003C15.287,54.124,15.292,53.981,15.303,53.84z"/>
		<path fill="#D1D1D1" d="M15.793,57.62h-2.514v0.427h2.67C15.892,57.907,15.844,57.763,15.793,57.62z"/>
		<path fill="#D1D1D1" d="M16.495,50.06h-3.216v0.426h2.982C16.335,50.341,16.413,50.199,16.495,50.06z"/>
		<path fill="#D1D1D1" d="M20.289,62.692v0.938h0.426v-0.732C20.57,62.835,20.43,62.763,20.289,62.692z"/>
		<path fill="#D1D1D1" d="M72.529,24.023v-0.427h-2.668v-2.434h-0.427v2.434h-3.354v-2.434h-0.427v2.434h-3.354v-2.434h-0.428v2.434
			H58.52v-2.434h-0.426v2.434H54.74v-2.434h-0.428v2.434h-3.354v-2.434h-0.427v2.434h-3.354v-2.434h-0.427v2.434h-3.354v-2.434
			h-0.427v2.434h-3.354v-2.434h-0.426v2.434h-3.354v-2.434H35.41v2.434h-3.354v-2.434H31.63v2.434h-3.354v-2.434H27.85v2.434h-3.354
			v-2.434h-0.428v2.434h-3.354v-2.434h-0.426v2.434h-3.354v-2.434h-0.427v2.434h-3.229v0.427h3.229v3.353h-3.229v0.428h3.229v3.354
			h-3.229v0.427h3.229v3.354h-3.229v0.427h3.229v3.354h-3.229v0.427h3.229v3.354h-3.229v0.426h3.229v3.354h-3.229v0.428h3.229v3.332
			c0.133-0.229,0.274-0.45,0.427-0.664v-2.668h2.964c0.277-0.156,0.563-0.301,0.859-0.428h-0.043v-3.354h3.354v2.64
			c0.082-0.002,0.162-0.013,0.244-0.013c0.063,0,0.121,0.008,0.184,0.01v-2.637h3.354v3.346c0.301,0.129,0.592,0.275,0.875,0.436
			h2.905v2.59c0.151,0.209,0.293,0.424,0.427,0.646v-3.236h3.354v3.354h-3.282c0.081,0.14,0.159,0.281,0.233,0.426h3.049v3.354
			h-2.091c0.012,0.142,0.017,0.284,0.021,0.427h2.069v3.354h-2.58c-0.051,0.143-0.1,0.287-0.156,0.427h2.736V61.4h-3.354v-2.146
			c-0.134,0.221-0.275,0.438-0.427,0.646v1.5h-1.368c-0.17,0.149-0.347,0.29-0.527,0.427h1.896v1.803h0.427v-1.803h3.354v1.803
			h0.427v-1.803h3.354v1.803h0.426v-1.803h3.354v1.803h0.427v-1.803h3.354v1.803h0.427v-1.803h3.354v1.803h0.427v-1.803h3.354v1.803
			h0.428v-1.803h3.354v1.803h0.426v-1.803h3.354v1.803h0.428v-1.803h3.354v1.803h0.427v-1.803h3.354v1.803h0.427v-1.803h2.668V61.4
			h-2.668v-3.354h2.668V57.62h-2.668v-3.354h2.668V53.84h-2.668v-3.354h2.668V50.06h-2.668v-3.354h2.668v-0.428h-2.668v-3.354h2.668
			v-0.426h-2.668v-3.354h2.668v-0.427h-2.668v-3.354h2.668v-0.427h-2.668v-3.354h2.668v-0.427h-2.668v-3.354h2.668v-0.428h-2.668
			v-3.353H72.529z M20.289,46.278h-3.354v-3.354h3.354V46.278z M20.289,42.499h-3.354v-3.354h3.354V42.499z M20.289,38.718h-3.354
			v-3.354h3.354V38.718z M20.289,34.938h-3.354v-3.354h3.354V34.938z M20.289,31.157h-3.354v-3.354h3.354V31.157z M20.289,27.376
			h-3.354v-3.353h3.354V27.376z M24.068,42.499h-3.354v-3.354h3.354V42.499z M24.068,38.718h-3.354v-3.354h3.354V38.718z
			 M24.068,34.938h-3.354v-3.354h3.354V34.938z M24.068,31.157h-3.354v-3.354h3.354V31.157z M24.068,27.376h-3.354v-3.353h3.354
			V27.376z M27.85,42.499h-3.354v-3.354h3.354V42.499z M27.85,38.718h-3.354v-3.354h3.354V38.718z M27.85,34.938h-3.354v-3.354
			h3.354V34.938z M27.85,31.157h-3.354v-3.354h3.354V31.157z M27.85,27.376h-3.354v-3.353h3.354V27.376z M31.63,46.278h-3.354
			v-3.354h3.354V46.278z M31.63,42.499h-3.354v-3.354h3.354V42.499z M31.63,38.718h-3.354v-3.354h3.354V38.718z M31.63,34.938
			h-3.354v-3.354h3.354V34.938z M31.63,31.157h-3.354v-3.354h3.354V31.157z M31.63,27.376h-3.354v-3.353h3.354V27.376z
			 M35.41,46.278h-3.354v-3.354h3.354V46.278z M35.41,42.499h-3.354v-3.354h3.354V42.499z M35.41,38.718h-3.354v-3.354h3.354V38.718
			z M35.41,34.938h-3.354v-3.354h3.354V34.938z M35.41,31.157h-3.354v-3.354h3.354V31.157z M35.41,27.376h-3.354v-3.353h3.354
			V27.376z M39.191,61.4h-3.354v-3.354h3.354V61.4z M39.191,57.62h-3.354v-3.354h3.354V57.62z M39.191,53.84h-3.354v-3.354h3.354
			V53.84z M39.191,50.06h-3.354v-3.354h3.354V50.06z M39.191,46.278h-3.354v-3.354h3.354V46.278z M39.191,42.499h-3.354v-3.354
			h3.354V42.499z M39.191,38.718h-3.354v-3.354h3.354V38.718z M39.191,34.938h-3.354v-3.354h3.354V34.938z M39.191,31.157h-3.354
			v-3.354h3.354V31.157z M39.191,27.376h-3.354v-3.353h3.354V27.376z M42.972,61.4h-3.354v-3.354h3.354V61.4z M42.972,57.62h-3.354
			v-3.354h3.354V57.62z M42.972,53.84h-3.354v-3.354h3.354V53.84z M42.972,50.06h-3.354v-3.354h3.354V50.06z M42.972,46.278h-3.354
			v-3.354h3.354V46.278z M42.972,42.499h-3.354v-3.354h3.354V42.499z M42.972,38.718h-3.354v-3.354h3.354V38.718z M42.972,34.938
			h-3.354v-3.354h3.354V34.938z M42.972,31.157h-3.354v-3.354h3.354V31.157z M42.972,27.376h-3.354v-3.353h3.354V27.376z
			 M46.752,61.4h-3.354v-3.354h3.354V61.4z M46.752,57.62h-3.354v-3.354h3.354V57.62z M46.752,53.84h-3.354v-3.354h3.354V53.84z
			 M46.752,50.06h-3.354v-3.354h3.354V50.06z M46.752,46.278h-3.354v-3.354h3.354V46.278z M46.752,42.499h-3.354v-3.354h3.354
			V42.499z M46.752,38.718h-3.354v-3.354h3.354V38.718z M46.752,34.938h-3.354v-3.354h3.354V34.938z M46.752,31.157h-3.354v-3.354
			h3.354V31.157z M46.752,27.376h-3.354v-3.353h3.354V27.376z M50.532,61.4h-3.354v-3.354h3.354V61.4z M50.532,57.62h-3.354v-3.354
			h3.354V57.62z M50.532,53.84h-3.354v-3.354h3.354V53.84z M50.532,50.06h-3.354v-3.354h3.354V50.06z M50.532,46.278h-3.354v-3.354
			h3.354V46.278z M50.532,42.499h-3.354v-3.354h3.354V42.499z M50.532,38.718h-3.354v-3.354h3.354V38.718z M50.532,34.938h-3.354
			v-3.354h3.354V34.938z M50.532,31.157h-3.354v-3.354h3.354V31.157z M50.532,27.376h-3.354v-3.353h3.354V27.376z M54.313,61.4
			h-3.354v-3.354h3.354V61.4z M54.313,57.62h-3.354v-3.354h3.354V57.62z M54.313,53.84h-3.354v-3.354h3.354V53.84z M54.313,50.06
			h-3.354v-3.354h3.354V50.06z M54.313,46.278h-3.354v-3.354h3.354V46.278z M54.313,42.499h-3.354v-3.354h3.354V42.499z
			 M54.313,38.718h-3.354v-3.354h3.354V38.718z M54.313,34.938h-3.354v-3.354h3.354V34.938z M54.313,31.157h-3.354v-3.354h3.354
			V31.157z M54.313,27.376h-3.354v-3.353h3.354V27.376z M58.094,61.4H54.74v-3.354h3.354V61.4z M58.094,57.62H54.74v-3.354h3.354
			V57.62z M58.094,53.84H54.74v-3.354h3.354V53.84z M58.094,50.06H54.74v-3.354h3.354V50.06z M58.094,46.278H54.74v-3.354h3.354
			V46.278z M58.094,42.499H54.74v-3.354h3.354V42.499z M58.094,38.718H54.74v-3.354h3.354V38.718z M58.094,34.938H54.74v-3.354
			h3.354V34.938z M58.094,31.157H54.74v-3.354h3.354V31.157z M58.094,27.376H54.74v-3.353h3.354V27.376z M61.873,61.4H58.52v-3.354
			h3.354V61.4z M61.873,57.62H58.52v-3.354h3.354V57.62z M61.873,53.84H58.52v-3.354h3.354V53.84z M61.873,50.06H58.52v-3.354h3.354
			V50.06z M61.873,46.278H58.52v-3.354h3.354V46.278z M61.873,42.499H58.52v-3.354h3.354V42.499z M61.873,38.718H58.52v-3.354h3.354
			V38.718z M61.873,34.938H58.52v-3.354h3.354V34.938z M61.873,31.157H58.52v-3.354h3.354V31.157z M61.873,27.376H58.52v-3.353
			h3.354V27.376z M65.654,61.4h-3.354v-3.354h3.354V61.4z M65.654,57.62h-3.354v-3.354h3.354V57.62z M65.654,53.84h-3.354v-3.354
			h3.354V53.84z M65.654,50.06h-3.354v-3.354h3.354V50.06z M65.654,46.278h-3.354v-3.354h3.354V46.278z M65.654,42.499h-3.354
			v-3.354h3.354V42.499z M65.654,38.718h-3.354v-3.354h3.354V38.718z M65.654,34.938h-3.354v-3.354h3.354V34.938z M65.654,31.157
			h-3.354v-3.354h3.354V31.157z M65.654,27.376h-3.354v-3.353h3.354V27.376z M69.435,61.4h-3.354v-3.354h3.354V61.4z M69.435,57.62
			h-3.354v-3.354h3.354V57.62z M69.435,53.84h-3.354v-3.354h3.354V53.84z M69.435,50.06h-3.354v-3.354h3.354V50.06z M69.435,46.278
			h-3.354v-3.354h3.354V46.278z M69.435,42.499h-3.354v-3.354h3.354V42.499z M69.435,38.718h-3.354v-3.354h3.354V38.718z
			 M69.435,34.938h-3.354v-3.354h3.354V34.938z M69.435,31.157h-3.354v-3.354h3.354V31.157z M69.435,27.376h-3.354v-3.353h3.354
			V27.376z"/>
		<path fill="#D1D1D1" d="M18.361,61.4h-1.426v-1.577c-0.152-0.215-0.293-0.437-0.427-0.664V61.4h-3.229v0.427h3.229v1.803h0.427
			v-1.803h1.955C18.708,61.69,18.531,61.55,18.361,61.4z"/>
		<path fill="#D1D1D1" d="M27.85,62.926v0.704h0.427v-0.91C28.135,62.79,27.996,62.864,27.85,62.926z"/>
	</g>
	<g>
		<path fill="#C99E47" d="M72.333,64.245c-0.005-0.262-0.482-26.18-0.82-31.985c-0.038-0.655-0.066-1.313-0.095-1.968
			c-0.247-5.74-0.646-8.271-3.425-8.428l-50.072,0.002c-3.049,0-3.357,4.552-3.43,10.052l-0.003,0.273
			c-0.068,5.014-0.84,31.555-0.847,31.82h-2.975c0.008-0.266,0.754-26.87,0.822-31.86l0.004-0.273
			c0.068-5.182,0.171-13.012,6.429-13.012h50.156c5.866,0.328,6.116,6.155,6.339,11.296c0.027,0.639,0.055,1.283,0.092,1.923
			c0.341,5.865,0.805,31.035,0.824,32.104L72.333,64.245z"/>
	</g>
</g>
<path fill="none" stroke="#E5BB70" stroke-width="3" stroke-miterlimit="10" d="M12.641,66.991"/>
<rect x="1.899" y="64.401" fill="#E5BB70" width="81.89" height="3.965"/>
<path fill-rule="evenodd" clip-rule="evenodd" fill="#A2A2A3" d="M33.042,54.249c0,0.248,0,0.497,0,0.746
	c-0.005,0.029-0.011,0.062-0.015,0.092c-0.037,0.338-0.053,0.681-0.114,1.015c-0.362,2.001-1.323,3.669-2.866,4.983
	c-1.803,1.537-3.903,2.193-6.266,2.003c-0.863-0.07-1.695-0.278-2.491-0.616c-1.888-0.801-3.323-2.103-4.274-3.922
	c-0.554-1.06-0.896-2.188-0.944-3.389c-0.027-0.682-0.026-1.361,0.106-2.036c0.333-1.698,1.076-3.183,2.289-4.423
	c1.497-1.531,3.327-2.367,5.45-2.553c0.619-0.055,1.244-0.02,1.859,0.066c1.15,0.161,2.215,0.567,3.203,1.171
	c1.376,0.841,2.422,1.993,3.156,3.427c0.469,0.915,0.753,1.888,0.857,2.912C33.01,53.9,33.025,54.074,33.042,54.249z M24.811,50.29
	c0,0.39-0.001,0.779,0.003,1.17c0,0.035,0.022,0.084,0.051,0.104c0.835,0.61,1.672,1.215,2.505,1.826
	c0.099,0.072,0.188,0.092,0.303,0.055c0.691-0.224,1.383-0.443,2.076-0.662c0.057-0.018,0.073-0.055,0.089-0.104
	c0.309-0.963,0.616-1.927,0.928-2.889c0.022-0.068,0.015-0.117-0.031-0.172c-0.402-0.484-0.843-0.928-1.342-1.311
	c-0.531-0.41-1.113-0.73-1.724-1.004c-0.269-0.12-0.189-0.152-0.456,0.035c-0.79,0.557-1.573,1.124-2.357,1.689
	c-0.024,0.02-0.042,0.066-0.042,0.102C24.81,49.517,24.811,49.903,24.811,50.29z M24.278,50.3c0-0.391,0.001-0.779-0.003-1.17
	c0-0.037-0.02-0.087-0.047-0.106c-0.805-0.586-1.613-1.167-2.418-1.753c-0.09-0.066-0.164-0.068-0.26-0.027
	c-0.477,0.203-0.933,0.443-1.369,0.721c-0.707,0.452-1.3,1.031-1.841,1.667c-0.021,0.024-0.023,0.081-0.013,0.115
	c0.315,0.979,0.633,1.958,0.946,2.938c0.023,0.071,0.069,0.093,0.127,0.111c0.692,0.218,1.385,0.436,2.077,0.655
	c0.082,0.026,0.145,0.012,0.215-0.039c0.841-0.614,1.684-1.227,2.527-1.838c0.046-0.033,0.059-0.068,0.059-0.122
	C24.277,51.067,24.278,50.683,24.278,50.3z M29.58,59.041c0,0.001,0,0.003,0,0.005c0.508,0,1.016-0.001,1.524,0.002
	c0.055,0,0.089-0.014,0.117-0.064c0.099-0.18,0.206-0.354,0.304-0.533c0.529-0.964,0.84-1.995,0.954-3.087
	c0.017-0.157,0-0.283-0.161-0.354c-0.022-0.01-0.041-0.029-0.063-0.045c-0.74-0.531-1.482-1.063-2.223-1.596
	c-0.073-0.053-0.139-0.068-0.229-0.038c-0.665,0.218-1.332,0.433-1.999,0.646c-0.067,0.021-0.107,0.056-0.132,0.129
	c-0.327,1.012-0.658,2.023-0.989,3.033c-0.018,0.053-0.014,0.089,0.02,0.135c0.412,0.566,0.823,1.135,1.232,1.705
	c0.034,0.049,0.07,0.064,0.127,0.064C28.568,59.04,29.074,59.041,29.58,59.041z M19.508,59.044c0-0.001,0-0.002,0-0.003
	c0.508,0,1.016,0.001,1.524-0.001c0.036-0.001,0.087-0.021,0.107-0.049c0.413-0.569,0.824-1.141,1.231-1.715
	c0.023-0.031,0.032-0.088,0.021-0.125c-0.326-1.024-0.655-2.047-0.983-3.07c-0.018-0.053-0.043-0.08-0.097-0.098
	c-0.681-0.219-1.36-0.438-2.039-0.661c-0.069-0.022-0.118-0.012-0.175,0.028c-0.742,0.536-1.484,1.068-2.227,1.604
	c-0.295,0.213-0.293,0.212-0.246,0.572c0.062,0.484,0.168,0.959,0.304,1.428c0.211,0.732,0.554,1.402,0.955,2.046
	c0.016,0.026,0.066,0.042,0.1,0.042C18.492,59.046,19,59.044,19.508,59.044z M24.555,57.517c-0.534,0-1.068,0.001-1.604-0.002
	c-0.061,0-0.1,0.018-0.134,0.07c-0.058,0.086-0.122,0.168-0.183,0.252c-0.343,0.479-0.685,0.959-1.029,1.436
	c-0.045,0.062-0.055,0.117-0.029,0.191c0.065,0.19,0.123,0.384,0.186,0.576c0.236,0.737,0.475,1.475,0.715,2.213
	c0.01,0.033,0.041,0.078,0.069,0.084c0.364,0.072,0.728,0.172,1.096,0.202c0.97,0.081,1.938,0.068,2.888-0.193
	c0.057-0.015,0.081-0.04,0.097-0.092c0.102-0.324,0.206-0.648,0.309-0.973c0.196-0.621,0.39-1.243,0.585-1.864
	c0.018-0.057,0.012-0.102-0.025-0.151c-0.408-0.56-0.813-1.121-1.219-1.683c-0.037-0.051-0.074-0.068-0.136-0.068
	C25.611,57.517,25.084,57.517,24.555,57.517z"/>
</svg>
