<?xml version="1.0" encoding="utf-8"?>
<!-- Generator: Adobe Illustrator 16.0.0, SVG Export Plug-In . SVG Version: 6.00 Build 0)  -->
<!DOCTYPE svg PUBLIC "-//W3C//DTD SVG 1.1//EN" "http://www.w3.org/Graphics/SVG/1.1/DTD/svg11.dtd">
<svg version="1.1" id="Layer_1" xmlns="http://www.w3.org/2000/svg" xmlns:xlink="http://www.w3.org/1999/xlink" x="0px" y="0px"
	 width="86px" height="80px" viewBox="0 0 86 80" enable-background="new 0 0 86 80" xml:space="preserve">
<g>
	<g>
		<path fill="#F7F2ED" d="M927.476,261.369c0,2.68-2.182,4.85-4.862,4.85h-76.275c-2.688,0-4.859-2.172-4.859-4.85v-70.303
			c0-2.678,2.175-4.851,4.859-4.851h76.275c2.684,0,4.862,2.171,4.862,4.851V261.369L927.476,261.369z"/>
	</g>
	<g>
		<g>
			<path fill="#D1D1D1" d="M922.612,188.217c1.578,0,2.862,1.279,2.862,2.852v70.302c0,1.571-1.284,2.853-2.862,2.853h-76.275
				c-1.576,0-2.859-1.279-2.859-2.853v-70.302c0-1.57,1.283-2.852,2.859-2.852H922.612 M922.612,186.217h-76.275
				c-2.688,0-4.859,2.172-4.859,4.852v70.302c0,2.68,2.175,4.853,4.859,4.853h76.275c2.682,0,4.862-2.171,4.862-4.853v-70.302
				C927.476,188.389,925.296,186.217,922.612,186.217L922.612,186.217z"/>
		</g>
	</g>
</g>
<g>
	<path fill="#FFFFFF" d="M899.688,244.623l-0.454,0.148c-5.727,1.871-11.731,0.584-15.674-3.357
		c-4.211-4.211-5.337-10.773-2.983-16.709l-15.743-15.742l10.332-10.333l15.743,15.743c5.935-2.352,12.498-1.227,16.708,2.984
		c3.94,3.94,5.229,9.947,3.357,15.672l-0.147,0.455L899.688,244.623z"/>
	<path fill="#D1D1D1" d="M898.612,242.871l10.461-10.461c1.583-4.846,0.669-10.1-2.871-13.639
		c-4.06-4.059-10.372-4.668-15.738-2.015l-15.299-15.299l-7.504,7.504l15.299,15.3c-2.652,5.364-2.044,11.68,2.015,15.737
		C888.514,243.539,893.768,244.453,898.612,242.871z"/>
	
		<rect x="863.202" y="202.893" transform="matrix(-0.7071 0.7071 -0.7071 -0.7071 1628.9146 -267.4177)" fill="#B2ADAD" width="13.279" height="1.516"/>
	
		<line fill="none" stroke="#FFFFFF" stroke-width="0.4255" stroke-miterlimit="10" x1="869.469" y1="209.939" x2="873.128" y2="206.282"/>
	
		<line fill="none" stroke="#FFFFFF" stroke-width="0.4255" stroke-miterlimit="10" x1="873.018" y1="213.488" x2="876.677" y2="209.831"/>
	
		<line fill="none" stroke="#FFFFFF" stroke-width="0.4255" stroke-miterlimit="10" x1="876.566" y1="217.038" x2="880.225" y2="213.38"/>
	
		<line fill="none" stroke="#FFFFFF" stroke-width="0.4255" stroke-miterlimit="10" x1="880.115" y1="220.587" x2="883.773" y2="216.928"/>
	
		<line fill="none" stroke="#FFFFFF" stroke-width="0.3723" stroke-miterlimit="10" x1="871.15" y1="211.809" x2="873.449" y2="209.512"/>
	
		<line fill="none" stroke="#FFFFFF" stroke-width="0.3723" stroke-miterlimit="10" x1="874.698" y1="215.355" x2="876.997" y2="213.059"/>
	
		<line fill="none" stroke="#FFFFFF" stroke-width="0.3723" stroke-miterlimit="10" x1="878.247" y1="218.904" x2="880.545" y2="216.607"/>
	<path fill="#E5BB70" d="M883.48,229.333c-0.455,3.478,0.549,6.894,2.907,9.253c1.956,1.956,4.655,3.033,7.601,3.033
		c0,0,0,0,0.001,0c1.188,0,2.383-0.174,3.56-0.514l9.76-9.76c0.194-0.672,0.313-1.344,0.396-2.014L883.48,229.333L883.48,229.333z"
		/>
</g>
<g>
	<rect x="843.531" y="249.309" fill="#D1D1D1" width="81.891" height="7.016"/>
</g>
<path fill="#E5BB70" d="M863.348,211.958l1.942,3.364c0,0,1.652,2.924,1.943,3.962c0.29,1.036,0.29,4.766-4.035,4.766
	c-4.324,0-4.19-3.716-3.735-4.766s1.941-3.962,1.941-3.962L863.348,211.958z"/>
<g>
	<path fill="#E5BB70" d="M877,247.309V246.5c0-1.104-0.896-2-2-2h-21.5c-1.104,0-2,0.896-2,2v0.809H877z"/>
</g>
<g>
	<g>
		<path fill="#F7F2ED" d="M86,75.152c0,2.68-2.182,4.85-4.863,4.85H4.861c-2.688,0-4.859-2.172-4.859-4.85V4.851
			C0.002,2.172,2.176,0,4.861,0h76.275C83.82,0,86,2.17,86,4.851V75.152L86,75.152z"/>
	</g>
</g>
<polygon fill="#C99E48" points="41.316,66.659 41.316,1.242 80.831,1.242 85.066,3.947 85.066,66.659 "/>
<g>
	<rect x="52.849" y="1.826" fill="#FFFFFF" width="28.872" height="36.083"/>
	<rect x="54.349" y="1.491" fill="#D1D1D1" width="25.872" height="35.086"/>
	<g>
		<rect x="56.025" y="1.936" fill="#FFFFFF" width="10.16" height="10.024"/>
		<rect x="68.394" y="1.936" fill="#FFFFFF" width="10.15" height="10.024"/>
		<rect x="56.025" y="13.924" fill="#FFFFFF" width="10.16" height="20.609"/>
		<rect x="68.394" y="13.924" fill="#FFFFFF" width="10.15" height="20.609"/>
	</g>
</g>
<g>
	<rect x="1.417" y="67.451" fill="#A2A2A3" width="83.871" height="10.506"/>
</g>
<g>
	<g>
		<path fill="#D1D1D1" d="M81.137,2C82.715,2,84,3.28,84,4.851v70.301c0,1.572-1.285,2.852-2.863,2.852H4.861
			c-1.576,0-2.859-1.279-2.859-2.852V4.851C2.002,3.281,3.285,2,4.861,2H81.137 M81.137,0H4.861C2.174,0,0.002,2.172,0.002,4.851
			v70.301c0,2.68,2.174,4.852,4.859,4.852h76.275c2.682,0,4.863-2.17,4.863-4.852V4.851C86,2.172,83.82,0,81.137,0L81.137,0z"/>
	</g>
</g>
<g>
	<g>
		<rect x="4.854" y="36.042" fill="#D1D1D1" width="45.655" height="2.338"/>
		<rect x="6.811" y="39.717" fill="#D1D1D1" width="18.373" height="20.374"/>
		<rect x="8.929" y="41.91" fill="#C99E48" width="14.139" height="15.987"/>
		<polygon fill="#D1D1D1" points="9.341,66.699 7.024,66.699 7.024,60.687 10.409,60.687 		"/>
		<polygon fill="#D1D1D1" points="25.133,66.699 22.816,66.699 21.748,60.687 25.133,60.687 		"/>
		<polygon fill="#D1D1D1" points="48.986,66.699 46.67,66.699 45.602,39.326 48.986,39.326 		"/>
		<ellipse fill="#D1D1D1" cx="20.009" cy="46.309" rx="1.699" ry="1.76"/>
		<ellipse fill="#A2A2A3" cx="20.009" cy="46.309" rx="1.09" ry="1.129"/>
	</g>
	<rect x="4.854" y="38.737" fill="#FFFFFF" width="45.651" height="1.034"/>
	<rect x="4.854" y="37.966" fill="#A2A2A3" width="45.651" height="0.827"/>
	<rect x="6.871" y="59.331" fill="#A2A2A3" width="18.366" height="0.827"/>
</g>
</svg>
