<?xml version="1.0" encoding="utf-8"?>
<!-- Generator: Adobe Illustrator 16.0.0, SVG Export Plug-In . SVG Version: 6.00 Build 0)  -->
<!DOCTYPE svg PUBLIC "-//W3C//DTD SVG 1.1//EN" "http://www.w3.org/Graphics/SVG/1.1/DTD/svg11.dtd">
<svg version="1.1" id="Layer_1" xmlns="http://www.w3.org/2000/svg" xmlns:xlink="http://www.w3.org/1999/xlink" x="0px" y="0px"
	 width="86px" height="80px" viewBox="0 0 86 80" enable-background="new 0 0 86 80" xml:space="preserve">
<g>
	<g>
		<path fill="#F7F2ED" d="M4.861,79c-2.129,0-3.859-1.728-3.859-3.848V4.847c0-2.121,1.73-3.851,3.859-3.851H81.14
			c2.131,0,3.86,1.729,3.86,3.851v70.306C85,77.272,83.271,79,81.142,79H4.861z"/>
		<path fill="#D1D1D1" d="M81.142,2C82.718,2,84,3.277,84,4.85v70.303C84,76.723,82.718,78,81.142,78H4.861
			c-1.577,0-2.859-1.276-2.859-2.848V4.85C2.001,3.277,3.284,2,4.861,2H81.142 M81.142,0H4.861C2.176,0,0.001,2.172,0.001,4.85
			v70.303c0,2.676,2.175,4.849,4.859,4.849H81.14c2.687,0,4.86-2.173,4.86-4.849V4.85C86,2.172,83.826,0,81.142,0L81.142,0z"/>
	</g>
</g>
<polygon fill="#E5BB70" points="60.735,39.97 53.677,39.97 56.385,32.267 57.757,32.267 "/>
<polygon fill="#E5BB70" points="69.547,45.396 61.239,45.396 64.426,36.33 66.041,36.33 "/>
<g>
	<path fill="#A2A2A3" d="M52.669,48.69c0,0,0.483-0.949,0.316-1.617c-0.119-0.475-1.395-2.84-2.77-3.605
		c-3.329-1.854-8.566-4.199-9.715-4.918c-0.791-0.492-2.027-0.912-2.027-2.686c0-1.775,2.839-11.661,3.041-12.726
		c0.203-1.065-1.115-1.369-2.788-0.812s-1.014,0.507-1.014,0.507s-3.701-2.941-6.135-2.079c-2.434,0.862-5.577,3.396-5.526,5.323
		c0.051,1.927-0.305,8.569-0.608,10.901s-1.267,5.881-0.761,7.199c0.508,1.318,15.463,3.903,16.781,4.156
		C42.782,48.589,49.272,48.995,52.669,48.69z"/>
	<path fill="#E5BB70" d="M24.024,49.704c-2.576,0-4.664,2.088-4.664,4.664s2.088,4.664,4.664,4.664s4.664-2.088,4.664-4.664
		S26.601,49.704,24.024,49.704z M24.024,57.056c-1.484,0-2.688-1.203-2.688-2.688c0-1.483,1.203-2.688,2.688-2.688
		s2.687,1.204,2.687,2.688C26.711,55.853,25.509,57.056,24.024,57.056z"/>
	<path fill="#C99E48" d="M24.024,51.707c-0.668,0-1.276,0.245-1.746,0.647c0.199,0.176,0.326,0.434,0.326,0.721
		c0,0.533-0.432,0.964-0.963,0.964c-0.095,0-0.186-0.015-0.272-0.04c-0.019,0.13-0.032,0.261-0.032,0.395
		c0,0.373,0.076,0.729,0.214,1.053c0.146-0.088,0.313-0.14,0.497-0.14c0.531,0,0.963,0.431,0.963,0.964
		c0,0.198-0.061,0.383-0.164,0.536c0.356,0.174,0.754,0.274,1.178,0.274c0.106,0,0.211-0.008,0.314-0.02
		c-0.006-0.043-0.011-0.088-0.011-0.133c0-0.531,0.432-0.963,0.964-0.963c0.264,0,0.504,0.107,0.677,0.279
		c0.46-0.482,0.742-1.133,0.742-1.852C26.711,52.91,25.509,51.707,24.024,51.707z M24.024,55.154c-0.42,0-0.761-0.341-0.761-0.761
		s0.341-0.76,0.761-0.76s0.76,0.34,0.76,0.76S24.444,55.154,24.024,55.154z"/>
	<path fill="#E5BB70" d="M34.113,49.704c-2.577,0-4.664,2.088-4.664,4.664s2.087,4.664,4.664,4.664c2.575,0,4.664-2.088,4.664-4.664
		S36.688,49.704,34.113,49.704z M34.113,57.056c-1.484,0-2.688-1.203-2.688-2.688c0-1.483,1.203-2.688,2.688-2.688
		c1.483,0,2.687,1.204,2.687,2.688C36.8,55.853,35.597,57.056,34.113,57.056z"/>
	<path fill="#C99E48" d="M34.113,51.707c-0.668,0-1.276,0.245-1.747,0.647c0.201,0.176,0.327,0.434,0.327,0.721
		c0,0.533-0.431,0.964-0.964,0.964c-0.094,0-0.186-0.015-0.271-0.04c-0.02,0.13-0.032,0.261-0.032,0.395
		c0,0.373,0.077,0.729,0.214,1.053c0.145-0.088,0.314-0.14,0.496-0.14c0.531,0,0.964,0.431,0.964,0.964
		c0,0.198-0.061,0.383-0.163,0.536c0.355,0.174,0.754,0.274,1.177,0.274c0.106,0,0.211-0.008,0.314-0.02
		c-0.006-0.043-0.011-0.088-0.011-0.133c0-0.531,0.432-0.963,0.964-0.963c0.264,0,0.503,0.107,0.678,0.279
		c0.458-0.482,0.741-1.133,0.741-1.852C36.8,52.91,35.597,51.707,34.113,51.707z M34.113,55.154c-0.421,0-0.761-0.341-0.761-0.761
		s0.34-0.76,0.761-0.76c0.42,0,0.761,0.34,0.761,0.76S34.533,55.154,34.113,55.154z"/>
	<path fill="#C99E48" d="M43.999,51.681c-0.668,0-1.276,0.246-1.746,0.648c0.2,0.176,0.326,0.434,0.326,0.721
		c0,0.533-0.431,0.963-0.963,0.963c-0.094,0-0.186-0.014-0.271-0.039c-0.02,0.13-0.032,0.261-0.032,0.395
		c0,0.373,0.076,0.729,0.214,1.052c0.145-0.087,0.314-0.139,0.496-0.139c0.531,0,0.963,0.431,0.963,0.964
		c0,0.198-0.061,0.383-0.164,0.535c0.356,0.175,0.755,0.275,1.178,0.275c0.107,0,0.211-0.008,0.314-0.02
		c-0.006-0.043-0.01-0.088-0.01-0.133c0-0.532,0.432-0.963,0.963-0.963c0.264,0,0.504,0.106,0.678,0.279
		c0.459-0.482,0.742-1.133,0.742-1.852C46.687,52.885,45.483,51.681,43.999,51.681z M43.999,55.129c-0.42,0-0.761-0.341-0.761-0.761
		s0.341-0.76,0.761-0.76s0.761,0.34,0.761,0.76S44.419,55.129,43.999,55.129z"/>
	<path fill="#E5BB70" d="M54.14,49.704c-2.576,0-4.665,2.088-4.665,4.664s2.089,4.664,4.665,4.664c2.575,0,4.664-2.088,4.664-4.664
		S56.715,49.704,54.14,49.704z M54.14,57.056c-1.484,0-2.688-1.203-2.688-2.688c0-1.483,1.203-2.688,2.688-2.688
		c1.483,0,2.687,1.204,2.687,2.688C56.826,55.853,55.623,57.056,54.14,57.056z"/>
	<path fill="#C99E48" d="M54.14,51.707c-0.668,0-1.277,0.245-1.747,0.647c0.2,0.176,0.327,0.434,0.327,0.721
		c0,0.533-0.432,0.964-0.964,0.964c-0.095,0-0.186-0.015-0.272-0.04c-0.019,0.13-0.031,0.261-0.031,0.395
		c0,0.373,0.076,0.729,0.213,1.053c0.146-0.088,0.314-0.14,0.496-0.14c0.533,0,0.964,0.431,0.964,0.964
		c0,0.198-0.061,0.383-0.163,0.536c0.355,0.174,0.754,0.274,1.178,0.274c0.105,0,0.211-0.008,0.313-0.02
		c-0.006-0.043-0.01-0.088-0.01-0.133c0-0.531,0.431-0.963,0.964-0.963c0.264,0,0.502,0.107,0.677,0.279
		c0.459-0.482,0.742-1.133,0.742-1.852C56.826,52.91,55.623,51.707,54.14,51.707z M54.14,55.154c-0.421,0-0.762-0.341-0.762-0.761
		s0.341-0.76,0.762-0.76c0.42,0,0.76,0.34,0.76,0.76S54.56,55.154,54.14,55.154z"/>
	<circle fill="#FFFFFF" cx="24.075" cy="54.394" r="0.76"/>
	<circle fill="#FFFFFF" cx="34.163" cy="54.394" r="0.76"/>
	<polygon fill="#D1D1D1" points="34.085,38.72 39.401,35.509 41.109,38.878 35.691,41.651 	"/>
	<path fill="#D1D1D1" d="M44.521,48.22c-0.037-0.014-0.071-0.027-0.116-0.036c-0.558-0.102-2.637-0.203-5.223-1.318
		c-2.958-1.276-3.396-4.157-5.02-6.996c-1.621-2.839-4.563-1.015-4.967-0.608c-0.406,0.405-3.854,2.23-4.26,2.18
		c-0.405-0.051-0.507,0.152-0.507,0.152l-0.202,1.166c0,0,1.609,0.166,1.47,0.861c-0.152,0.761-1.166,0.862-1.166,0.862
		s-0.354-0.051-0.507,0.456c-0.102,1.369,1.064,3.194,1.064,3.194s9.684-0.101,10.292,0.051s7.3,1.571,7.3,1.571
		s0.522,0.063,1.138,0.038c0.04,0.074,0.11,0.122,0.261,0.095c0,0,5.199,0.483,7.394-0.066c0.754-0.188,1.189-0.9,1.311-1.505
		C51.257,48.971,45.615,48.348,44.521,48.22z"/>
	<circle fill="#FFFFFF" cx="43.939" cy="54.394" r="0.76"/>
	<circle fill="#FFFFFF" cx="54.205" cy="54.394" r="0.76"/>
	<g>
		<path fill="#848790" d="M33.854,38.955c0,0-0.03-0.038-0.086-0.099C33.819,38.925,33.854,38.955,33.854,38.955z"/>
		<path fill="#D1D1D1" d="M25.184,34.392c1.637,0.459,3.176,4.258,3.176,4.258c0.171,0.383,0.299,0.356,0.556,0.178
			c0.103-0.088,0.256-0.199,0.451-0.317c0.2-0.128,0.449-0.265,0.766-0.38c0.466-0.188,1.013-0.33,1.584-0.33
			c0.518,0,1.164,0.119,1.785,0.557c-0.236-0.602-0.219-1.684-0.054-3.609c0.212-2.48-0.529-2.848,0.647-3.025
			c2.885-0.436,2.994-0.652,4.137-0.926c0.747-0.178,1.3-2.842,0.995-4.363c-0.304-1.521-0.912-1.115-4.106-1.875
			c-3.193-0.76-4.207,0.253-5.17,1.217c-0.965,0.963-3.348,1.825-4.158,1.724c-0.812-0.102-0.963,1.724-0.355,1.876
			c0.609,0.151,2.383,0.557,2.383,1.723c0,0.561-1.622,1.115-2.383,1.166C24.677,32.313,23.916,34.038,25.184,34.392z M33.946,26.15
			c0.418-0.279,2.723-0.14,3.561,0s0.769,3.002,0.419,3.212c-0.349,0.209-2.8,0.51-3.491,0.279
			C33.597,29.362,33.526,26.429,33.946,26.15z"/>
	</g>
	<path fill="#D1D1D1" d="M37.148,29.09c0.694-0.036,3.851-0.007,3.851-0.007l0.527-2.833l-4.547,0.301
		C36.979,26.55,36.454,29.125,37.148,29.09z"/>
	<circle fill="#FFFFFF" cx="32.2" cy="41.651" r="1.257"/>
	<path fill="#FFFFFF" d="M31.013,46.331c0,0.25-0.412,0.278-0.663,0.278h-2.933c-0.25,0-0.664,0.07-0.733-0.768
		c-0.069-0.839,0.378-0.769,0.628-0.769l3.282,0.979C30.845,46.052,31.013,46.331,31.013,46.331z"/>
	<path fill="#E5BB70" d="M46.667,50.55c-1.192-0.045-2.187-0.125-2.543-0.156l-0.033-0.003l-0.115,0.005
		c-0.076,0-0.174-0.02-0.263-0.057l-0.094-0.04h-0.102c-0.501,0-0.883-0.046-0.896-0.047c-0.049-0.011-0.258-0.054-0.557-0.117
		c-1.607,0.735-2.73,2.35-2.73,4.233c0,2.576,2.088,4.664,4.664,4.664s4.664-2.088,4.664-4.664
		C48.663,52.786,47.872,51.394,46.667,50.55z M43.999,57.056c-1.484,0-2.687-1.203-2.687-2.688c0-1.483,1.202-2.688,2.687-2.688
		s2.688,1.204,2.688,2.688C46.687,55.853,45.483,57.056,43.999,57.056z"/>
	<path fill="#A2A2A3" d="M53.388,50.976c0,0-0.576-0.615-1.078-1.009c-0.205,0.15-0.441,0.271-0.715,0.341
		c-0.747,0.186-1.826,0.277-3.301,0.277c-1.848,0-3.658-0.146-4.17-0.191l-0.033-0.003l-0.115,0.005
		c-0.076,0-0.174-0.02-0.263-0.057l-0.094-0.04h-0.102c-0.501,0-0.883-0.046-0.896-0.047c-0.314-0.065-6.744-1.429-7.362-1.583
		c-0.184-0.022-0.88-0.068-4.19-0.068c-2.747,0-5.813,0.031-5.969,0.032l-0.283,0.003l-0.15-0.234
		c-0.114-0.18-0.247-0.41-0.381-0.672c-0.739,0.021-1.256,0.085-1.361,0.225c-0.362,0.483,0,6.164,1.209,6.044
		s1.693-3.034,4.715-3.028s3.989,3.148,5.318,3.148c1.33,0.001,1.572-3.027,4.836-3.021s3.264,2.78,5.076,2.901
		c1.813,0.121,2.283-2.544,5.319-2.417c3.036,0.126,3.265,2.658,4.715,2.779S53.388,50.976,53.388,50.976z"/>
</g>
<polygon fill="#E5BB70" points="79.882,54.865 69.97,54.865 73.772,44.049 75.698,44.049 "/>
<path fill="#D1D1D1" d="M36.166,42.546c0,0,4.752,2.436,8.311,2.583c3.352,0.14,5.656-1.396,5.727-1.676
	c0.488,0.14,2.723,1.118,2.793,1.396c0.07,0.279,0.209,2.165-0.07,2.374s-7.094,0.502-7.751,0.42
	c-1.117-0.141-5.345-0.631-6.494-1.396C37.215,45.269,35.189,42.056,36.166,42.546z"/>
<path fill="#F7F2ED" d="M47.617,61.782c-2.22,0-4.146-1.278-5.067-3.156c-0.92,1.879-2.844,3.156-5.072,3.156
	c-2.107,0-3.972-1.182-4.939-2.934c-0.962,1.764-2.822,2.934-4.947,2.934c-2.184,0-4.106-1.269-5.041-3.128
	c-0.928,1.872-2.846,3.128-5.048,3.128c-3.123,0-5.664-2.541-5.664-5.664c0-3.057,2.434-5.556,5.466-5.66
	c0.014-0.073,0.024-0.141,0.033-0.201l0.057-0.408c-0.394-0.742-0.976-2.06-0.889-3.234l0.008-0.109l0.032-0.104
	c0.11-0.367,0.296-0.634,0.513-0.819c-0.006-0.047-0.012-0.096-0.017-0.146l-0.5-0.061l0.407-2.352l0.068-0.134
	c0.06-0.116,0.139-0.223,0.235-0.314c0.091-0.576,0.201-1.176,0.309-1.765c0.143-0.782,0.284-1.546,0.37-2.21
	c0.054-0.414,0.109-0.965,0.163-1.603c-0.763-0.337-1.187-1.065-1.098-1.932c0.081-0.776,0.602-1.632,1.362-1.938
	c0.021-0.379,0.04-0.756,0.058-1.127c-0.631-0.302-0.967-1.071-0.851-2.009c0.092-0.749,0.457-1.322,0.97-1.587
	c0.001-0.211,0-0.396-0.004-0.549c-0.068-2.616,3.617-5.381,6.191-6.293c0.405-0.143,0.85-0.216,1.322-0.216
	c1.975,0,4.104,1.277,5.173,2.018c0.177-0.067,0.396-0.144,0.671-0.236c0.639-0.213,1.267-0.325,1.814-0.325
	c1.068,0,1.631,0.409,1.915,0.753c0.339,0.41,0.467,0.95,0.358,1.52c-0.05,0.261-0.204,0.856-0.481,1.899l0.725-0.035l-0.913,4.898
	l-1.095-0.008c-0.479,1.865-0.786,3.156-0.976,4.045l0.049-0.029l2.059,4.059c0.66,0.338,1.563,0.776,2.576,1.268
	c1.965,0.953,4.41,2.141,6.262,3.171l0.162,0.089c1.291,0.453,2.981,1.203,3.184,2.007c0.006,0.023,0.422,2.184-0.191,3.144
	l0.02,0.877c0.088-0.004,0.176-0.006,0.263-0.006c3.123,0,5.664,2.541,5.664,5.664S50.74,61.782,47.617,61.782z"/>
<g>
	<path fill="#A2A2A3" d="M46.147,50.44c0,0,0.581-2.154,0.414-2.822c-0.119-0.476-1.492-1.635-2.867-2.4
		c-3.33-1.854-8.566-4.199-9.715-4.918c-0.791-0.492-2.027-0.912-2.027-2.686c0-1.775,2.838-11.661,3.041-12.726
		s-1.115-1.369-2.789-0.812c-1.672,0.558-1.014,0.507-1.014,0.507s-3.701-2.941-6.135-2.079c-2.434,0.862-5.576,3.396-5.525,5.323
		s-0.305,8.569-0.609,10.901c-0.304,2.332-1.267,5.881-0.76,7.199s15.463,3.903,16.781,4.156
		C36.261,50.339,42.75,50.745,46.147,50.44z"/>
	<path fill="#E5BB70" d="M17.502,51.454c-2.576,0-4.664,2.088-4.664,4.664s2.088,4.664,4.664,4.664c2.576,0,4.665-2.088,4.665-4.664
		S20.078,51.454,17.502,51.454z M17.502,58.806c-1.484,0-2.687-1.203-2.687-2.688c0-1.483,1.203-2.688,2.687-2.688
		c1.484,0,2.687,1.204,2.687,2.688C20.188,57.603,18.986,58.806,17.502,58.806z"/>
	<path fill="#C99E48" d="M17.502,53.457c-0.667,0-1.276,0.245-1.746,0.647c0.2,0.176,0.327,0.434,0.327,0.721
		c0,0.533-0.431,0.964-0.963,0.964c-0.094,0-0.186-0.015-0.272-0.04c-0.019,0.13-0.032,0.261-0.032,0.395
		c0,0.373,0.077,0.729,0.214,1.053c0.145-0.088,0.314-0.14,0.497-0.14c0.532,0,0.963,0.431,0.963,0.964
		c0,0.198-0.06,0.383-0.164,0.536c0.356,0.174,0.754,0.274,1.177,0.274c0.107,0,0.211-0.008,0.314-0.02
		c-0.005-0.043-0.01-0.088-0.01-0.133c0-0.531,0.432-0.963,0.963-0.963c0.265,0,0.504,0.107,0.677,0.279
		c0.46-0.482,0.742-1.133,0.742-1.852C20.188,54.66,18.986,53.457,17.502,53.457z M17.502,56.904c-0.42,0-0.76-0.341-0.76-0.761
		s0.34-0.76,0.76-0.76s0.761,0.34,0.761,0.76S17.922,56.904,17.502,56.904z"/>
	<path fill="#E5BB70" d="M27.591,51.454c-2.576,0-4.664,2.088-4.664,4.664s2.088,4.664,4.664,4.664s4.664-2.088,4.664-4.664
		S30.167,51.454,27.591,51.454z M27.591,58.806c-1.484,0-2.688-1.203-2.688-2.688c0-1.483,1.203-2.688,2.688-2.688
		s2.688,1.204,2.688,2.688C30.278,57.603,29.075,58.806,27.591,58.806z"/>
	<path fill="#C99E48" d="M27.591,53.457c-0.668,0-1.275,0.245-1.746,0.647c0.2,0.176,0.326,0.434,0.326,0.721
		c0,0.533-0.43,0.964-0.963,0.964c-0.095,0-0.186-0.015-0.271-0.04c-0.02,0.13-0.033,0.261-0.033,0.395
		c0,0.373,0.077,0.729,0.215,1.053c0.145-0.088,0.314-0.14,0.496-0.14c0.531,0,0.963,0.431,0.963,0.964
		c0,0.198-0.061,0.383-0.163,0.536c0.355,0.174,0.754,0.274,1.177,0.274c0.107,0,0.211-0.008,0.314-0.02
		c-0.006-0.043-0.01-0.088-0.01-0.133c0-0.531,0.432-0.963,0.963-0.963c0.264,0,0.504,0.107,0.678,0.279
		c0.459-0.482,0.742-1.133,0.742-1.852C30.278,54.66,29.075,53.457,27.591,53.457z M27.591,56.904c-0.42,0-0.76-0.341-0.76-0.761
		s0.34-0.76,0.76-0.76s0.761,0.34,0.761,0.76S28.011,56.904,27.591,56.904z"/>
	<path fill="#C99E48" d="M37.478,53.431c-0.668,0-1.277,0.246-1.746,0.648c0.199,0.176,0.326,0.434,0.326,0.721
		c0,0.533-0.432,0.963-0.963,0.963c-0.095,0-0.186-0.014-0.272-0.039c-0.019,0.13-0.032,0.261-0.032,0.395
		c0,0.373,0.076,0.729,0.215,1.052c0.145-0.087,0.314-0.139,0.495-0.139c0.532,0,0.964,0.431,0.964,0.964
		c0,0.198-0.061,0.383-0.164,0.535c0.355,0.175,0.754,0.275,1.178,0.275c0.106,0,0.211-0.008,0.314-0.02
		c-0.006-0.043-0.01-0.088-0.01-0.133c0-0.532,0.431-0.963,0.963-0.963c0.264,0,0.503,0.106,0.678,0.279
		c0.459-0.482,0.742-1.133,0.742-1.852C40.165,54.635,38.962,53.431,37.478,53.431z M37.478,56.879c-0.42,0-0.762-0.341-0.762-0.761
		s0.342-0.76,0.762-0.76s0.76,0.34,0.76,0.76S37.897,56.879,37.478,56.879z"/>
	<path fill="#E5BB70" d="M47.617,51.454c-2.576,0-4.665,2.088-4.665,4.664s2.089,4.664,4.665,4.664c2.575,0,4.664-2.088,4.664-4.664
		S50.192,51.454,47.617,51.454z M47.617,58.806c-1.484,0-2.687-1.203-2.687-2.688c0-1.483,1.202-2.688,2.687-2.688
		c1.483,0,2.687,1.204,2.687,2.688C50.304,57.603,49.101,58.806,47.617,58.806z"/>
	<path fill="#C99E48" d="M47.617,53.457c-0.667,0-1.276,0.245-1.747,0.647c0.201,0.176,0.327,0.434,0.327,0.721
		c0,0.533-0.431,0.964-0.964,0.964c-0.094,0-0.186-0.015-0.271-0.04c-0.02,0.13-0.031,0.261-0.031,0.395
		c0,0.373,0.076,0.729,0.213,1.053c0.145-0.088,0.314-0.14,0.496-0.14c0.532,0,0.963,0.431,0.963,0.964
		c0,0.198-0.061,0.383-0.163,0.536c0.356,0.174,0.755,0.274,1.178,0.274c0.106,0,0.211-0.008,0.313-0.02
		c-0.006-0.043-0.01-0.088-0.01-0.133c0-0.531,0.432-0.963,0.964-0.963c0.265,0,0.503,0.107,0.677,0.279
		c0.459-0.482,0.742-1.133,0.742-1.852C50.304,54.66,49.101,53.457,47.617,53.457z M47.617,56.904c-0.421,0-0.761-0.341-0.761-0.761
		s0.34-0.76,0.761-0.76c0.42,0,0.76,0.34,0.76,0.76S48.037,56.904,47.617,56.904z"/>
	<circle fill="#FFFFFF" cx="17.553" cy="56.144" r="0.76"/>
	<circle fill="#FFFFFF" cx="27.642" cy="56.144" r="0.76"/>
	<polygon fill="#D1D1D1" points="27.563,40.47 32.879,37.259 34.587,40.628 29.169,43.401 	"/>
	<path fill="#D1D1D1" d="M37.999,49.97c-0.037-0.014-0.07-0.027-0.116-0.036c-0.558-0.102-2.636-0.203-5.222-1.318
		c-2.959-1.276-3.396-4.157-5.02-6.996c-1.621-2.839-4.563-1.015-4.968-0.608c-0.405,0.405-3.853,2.23-4.259,2.18
		c-0.405-0.051-0.507,0.152-0.507,0.152l-0.203,1.166c0,0,1.609,0.166,1.47,0.861c-0.152,0.761-1.166,0.862-1.166,0.862
		s-0.355-0.051-0.507,0.456c-0.101,1.369,1.065,3.194,1.065,3.194s9.684-0.101,10.292,0.051c0.609,0.151,7.301,1.571,7.301,1.571
		s0.521,0.063,1.137,0.038c0.041,0.074,0.111,0.122,0.262,0.095c0,0,5.198,0.483,7.393-0.066c0.754-0.188,1.189-0.9,1.311-1.505
		C44.734,50.721,39.093,50.098,37.999,49.97z"/>
	<circle fill="#FFFFFF" cx="37.417" cy="56.144" r="0.76"/>
	<circle fill="#FFFFFF" cx="47.683" cy="56.144" r="0.76"/>
	<g>
		<path fill="#848790" d="M27.331,40.705c0,0-0.03-0.038-0.086-0.099C27.297,40.675,27.331,40.705,27.331,40.705z"/>
		<path fill="#D1D1D1" d="M18.662,36.142c1.636,0.459,3.175,4.258,3.175,4.258c0.171,0.383,0.299,0.356,0.556,0.178
			c0.103-0.088,0.257-0.199,0.452-0.317c0.199-0.128,0.448-0.265,0.766-0.38c0.465-0.188,1.012-0.33,1.584-0.33
			c0.518,0,1.164,0.119,1.784,0.557c-0.235-0.602-0.438-1.715-0.054-3.609c0.66-3.244,4.342-4.238,5.102-4.34
			c0.761-0.102,0.652-2.232,0.678-3.975c0.023-1.55-0.912-1.115-4.105-1.875c-3.194-0.76-4.208,0.253-5.171,1.217
			c-0.964,0.963-3.347,1.825-4.157,1.723c-0.812-0.102-0.964,1.725-0.355,1.877c0.608,0.151,2.383,0.557,2.383,1.723
			c0,0.561-1.623,1.115-2.383,1.166C18.155,34.063,17.394,35.788,18.662,36.142z M27.424,27.9c0.419-0.279,2.458-0.14,3.296,0
			s0.769,3.002,0.419,3.212c-0.349,0.209-2.534,0.51-3.226,0.279C27.075,31.112,27.005,28.179,27.424,27.9z"/>
	</g>
	<path fill="#D1D1D1" d="M30.386,30.84c0.695-0.036,4.091-0.007,4.091-0.007L35.005,28l-4.775,0.238
		C30.229,28.237,29.691,30.875,30.386,30.84z"/>
	<circle fill="#FFFFFF" cx="25.678" cy="43.401" r="1.257"/>
	<path fill="#FFFFFF" d="M24.491,48.081c0,0.25-0.413,0.278-0.664,0.278h-2.932c-0.251,0-0.664,0.07-0.734-0.768
		c-0.069-0.839,0.379-0.769,0.629-0.769l3.281,0.979C24.323,47.802,24.491,48.081,24.491,48.081z"/>
	<path fill="#E5BB70" d="M40.146,52.3c-1.193-0.045-2.188-0.125-2.543-0.156l-0.034-0.003l-0.114,0.005
		c-0.077,0-0.174-0.02-0.264-0.057l-0.094-0.04h-0.102c-0.5,0-0.883-0.046-0.895-0.047c-0.049-0.011-0.258-0.054-0.557-0.117
		c-1.607,0.735-2.73,2.35-2.73,4.233c0,2.576,2.088,4.664,4.664,4.664s4.664-2.088,4.664-4.664
		C42.142,54.536,41.351,53.144,40.146,52.3z M37.478,58.806c-1.484,0-2.688-1.203-2.688-2.688c0-1.483,1.203-2.688,2.688-2.688
		s2.688,1.204,2.688,2.688C40.165,57.603,38.962,58.806,37.478,58.806z"/>
	<path fill="#A2A2A3" d="M46.866,52.726c0,0-0.577-0.615-1.078-1.009c-0.205,0.15-0.441,0.271-0.716,0.341
		c-0.747,0.186-1.825,0.277-3.3,0.277c-1.849,0-3.659-0.146-4.17-0.191l-0.034-0.003l-0.114,0.005c-0.077,0-0.174-0.02-0.264-0.057
		l-0.094-0.04h-0.102c-0.5,0-0.883-0.046-0.895-0.047c-0.314-0.065-6.744-1.429-7.363-1.583c-0.184-0.022-0.879-0.068-4.19-0.068
		c-2.747,0-5.812,0.031-5.968,0.032l-0.284,0.003l-0.149-0.234c-0.115-0.18-0.248-0.41-0.381-0.672
		c-0.739,0.021-1.256,0.085-1.361,0.225c-0.363,0.483,0,6.164,1.209,6.044s1.692-3.034,4.715-3.028
		c3.021,0.006,3.988,3.148,5.318,3.148c1.33,0.001,1.572-3.027,4.836-3.021s3.264,2.78,5.076,2.901s2.282-2.544,5.318-2.417
		c3.037,0.126,3.265,2.658,4.715,2.779C49.042,56.231,46.866,52.726,46.866,52.726z"/>
</g>
<path fill="#D1D1D1" d="M29.999,44.046c0,0,4.752,2.436,8.311,2.584c3.352,0.139,5.351-1.183,5.421-1.462
	c0.488,0.14,2.924,1.409,2.994,1.688c0.07,0.279,0.007,1.642-0.272,1.851c-0.279,0.21-6.787,0.52-7.443,0.438
	c-1.117-0.14-5.346-0.63-6.494-1.396C31.048,46.769,29.022,43.557,29.999,44.046z"/>
</svg>
