<?xml version="1.0" encoding="utf-8"?>
<!-- Generator: Adobe Illustrator 16.0.0, SVG Export Plug-In . SVG Version: 6.00 Build 0)  -->
<!DOCTYPE svg PUBLIC "-//W3C//DTD SVG 1.1//EN" "http://www.w3.org/Graphics/SVG/1.1/DTD/svg11.dtd">
<svg version="1.1" id="Layer_1" xmlns="http://www.w3.org/2000/svg" xmlns:xlink="http://www.w3.org/1999/xlink" x="0px" y="0px"
	 width="86px" height="80px" viewBox="0 0 86 80" enable-background="new 0 0 86 80" xml:space="preserve">
<g>
	<path fill="#F7F2ED" d="M85.999,75.15c0,2.68-2.183,4.85-4.863,4.85H4.86C2.173,80,0,77.828,0,75.15V4.85C0,2.172,2.174,0,4.86,0
		h76.275c2.684,0,4.863,2.17,4.863,4.85L85.999,75.15L85.999,75.15z"/>
</g>
<rect x="1.458" y="45.152" fill="#F7F2ED" width="83.25" height="16"/>
<g enable-background="new    ">
	<path fill="#374537" d="M36.308,67.152v-4.244c0-0.398-0.02-0.748-0.053-1.043c-0.033-0.295-0.104-0.543-0.203-0.74
		c-0.1-0.199-0.242-0.352-0.428-0.451c-0.186-0.102-0.428-0.145-0.729-0.145c-0.459,0-0.842,0.139-1.146,0.42
		c-0.305,0.275-0.518,0.629-0.639,1.049v5.16h-1.199v-7.5h0.84l0.227,0.916h0.062c0.271-0.32,0.582-0.582,0.938-0.787
		c0.354-0.205,0.815-0.313,1.389-0.313c0.479,0,0.871,0.094,1.178,0.276c0.307,0.188,0.541,0.508,0.711,0.97
		c0.23-0.394,0.547-0.691,0.953-0.916c0.404-0.222,0.861-0.33,1.373-0.33c0.42,0,0.773,0.049,1.064,0.146
		c0.289,0.096,0.528,0.262,0.721,0.502c0.189,0.239,0.326,0.563,0.412,0.979c0.084,0.41,0.127,0.93,0.127,1.559v4.5h-1.199v-4.514
		c0-0.361-0.02-0.674-0.053-0.938c-0.035-0.269-0.105-0.485-0.211-0.66c-0.104-0.176-0.25-0.305-0.437-0.394
		c-0.185-0.084-0.428-0.127-0.728-0.127c-0.5,0-0.891,0.142-1.17,0.42c-0.28,0.277-0.479,0.683-0.602,1.199v5.01h-1.199
		L36.308,67.152L36.308,67.152z"/>
	<path fill="#374537" d="M48.486,67.152v-4.244c0-0.398-0.018-0.748-0.053-1.043s-0.104-0.543-0.203-0.74
		c-0.101-0.199-0.242-0.352-0.428-0.451c-0.187-0.102-0.429-0.145-0.728-0.145c-0.464,0-0.847,0.139-1.147,0.42
		c-0.306,0.275-0.519,0.629-0.638,1.049v5.16h-1.2v-7.5h0.844l0.225,0.916h0.061c0.271-0.32,0.582-0.582,0.939-0.787
		c0.355-0.205,0.816-0.313,1.389-0.313c0.479,0,0.873,0.094,1.178,0.276c0.309,0.185,0.543,0.508,0.713,0.97
		c0.23-0.394,0.547-0.691,0.951-0.916c0.406-0.222,0.863-0.33,1.373-0.33c0.42,0,0.775,0.049,1.064,0.146
		c0.291,0.096,0.529,0.262,0.723,0.502c0.188,0.239,0.328,0.563,0.412,0.979c0.086,0.407,0.127,0.93,0.127,1.559v4.5h-1.199v-4.514
		c0-0.361-0.02-0.674-0.053-0.938c-0.035-0.269-0.105-0.485-0.209-0.66c-0.105-0.176-0.25-0.305-0.439-0.394
		c-0.188-0.084-0.43-0.127-0.729-0.127c-0.5,0-0.891,0.142-1.17,0.42c-0.281,0.277-0.479,0.683-0.602,1.199v5.01h-1.199v-0.004
		H48.486z"/>
</g>
<rect x="1.708" y="16.028" fill="#F7F2ED" width="84.354" height="16"/>
<polyline fill="none" stroke="#374537" stroke-linecap="round" stroke-miterlimit="10" points="48.061,17.162 43.009,23.357 
	37.958,17.162 "/>
<image overflow="visible" width="346" height="52" xlink:href="DCC557A9.jpg"  transform="matrix(0.24 0 0 0.24 1.9268 31.5952)">
</image>
<rect x="30.583" y="32" fill="#F7F2ED" width="24.833" height="12.334"/>
<polyline fill="none" stroke="#374537" stroke-width="0.9746" stroke-linecap="round" stroke-miterlimit="10" points="
	47.875,42.861 42.917,36.867 37.958,42.861 "/>
<rect x="1.644" y="30.271" fill="#C99E48" width="82.258" height="2.25"/>
<g>
	<g>
		<path fill="#D1D1D1" d="M81.136,2c1.578,0,2.863,1.279,2.863,2.85v70.3c0,1.572-1.285,2.852-2.863,2.852H4.86
			C3.283,78.002,2,76.723,2,75.15V4.85C2,3.279,3.283,2,4.86,2H81.136 M81.136,0H4.86C2.173,0,0,2.172,0,4.85v70.3
			c0,2.68,2.174,4.852,4.86,4.852h76.275c2.682,0,4.863-2.17,4.863-4.852V4.85C85.999,2.172,83.818,0,81.136,0L81.136,0z"/>
	</g>
</g>
</svg>
