<?xml version="1.0" encoding="utf-8"?>
<!-- Generator: Adobe Illustrator 16.0.0, SVG Export Plug-In . SVG Version: 6.00 Build 0)  -->
<!DOCTYPE svg PUBLIC "-//W3C//DTD SVG 1.1//EN" "http://www.w3.org/Graphics/SVG/1.1/DTD/svg11.dtd">
<svg version="1.1" id="Layer_1" xmlns="http://www.w3.org/2000/svg" xmlns:xlink="http://www.w3.org/1999/xlink" x="0px" y="0px"
	 width="86px" height="80px" viewBox="0 0 86 80" enable-background="new 0 0 86 80" xml:space="preserve">
<g>
	<g>
		<path fill="#F7F2ED" d="M4.859,79C2.73,79,1,77.273,1,75.152V4.847c0-2.121,1.73-3.851,3.859-3.851h76.279
			c2.131,0,3.859,1.729,3.859,3.851v70.305c0,2.121-1.729,3.848-3.857,3.848H4.859z"/>
		<path fill="#D1D1D1" d="M81.141,2c1.576,0,2.857,1.277,2.857,2.85v70.302c0,1.57-1.281,2.848-2.857,2.848H4.859
			C3.283,78,2,76.725,2,75.152V4.85C2,3.278,3.283,2,4.859,2H81.141 M81.141,0H4.859C2.175,0,0,2.172,0,4.85v70.302
			c0,2.676,2.176,4.85,4.859,4.85h76.279c2.686,0,4.859-2.174,4.859-4.85V4.85C85.998,2.172,83.824,0,81.141,0L81.141,0z"/>
	</g>
</g>
<g>
	<g>
		<path fill-rule="evenodd" clip-rule="evenodd" fill="#C8C3BD" d="M73.204,25.661c-0.791-5.391-4.871-9.75-10.195-10.869
			c-0.754-0.158-1.525-0.227-2.288-0.338c-0.078-0.012-0.156-0.031-0.233-0.047c-0.628,0-1.258,0-1.887,0
			c-0.114,0.018-0.228,0.039-0.342,0.054c-0.649,0.083-1.305,0.134-1.947,0.249c-3.088,0.551-5.911,1.757-8.475,3.547
			c-4.678,3.266-8.01,7.547-9.634,13.064c-0.8,2.717-0.99,5.482-0.456,8.283c0.06,0.313,0.126,0.643,0.09,0.953
			c-0.154,1.365-0.443,2.707-0.852,4.021c-0.717,2.308-1.827,4.366-3.445,6.147l3.561,3.561c0.748-0.717,1.566-1.34,2.465-1.858
			c2.289-1.321,4.778-2.027,7.375-2.408c0.424-0.063,0.829-0.035,1.25,0.041c0.731,0.131,1.474,0.236,2.215,0.279
			c2.686,0.154,5.28-0.305,7.78-1.271c5.073-1.962,9.003-5.322,11.915-9.886c1.697-2.661,2.784-5.56,3.177-8.704
			c0.051-0.417,0.095-0.836,0.143-1.254c0-0.628,0-1.257,0-1.885C73.349,26.78,73.285,26.219,73.204,25.661z M36.303,53.443
			c-0.636-0.637-1.266-1.27-1.916-1.922c2.335-2.465,3.58-5.52,4.309-8.915c0.683,1.474,1.547,2.748,2.648,3.853
			c1.109,1.108,2.381,1.98,3.879,2.672C41.836,49.857,38.784,51.098,36.303,53.443z M69.934,35.113
			c-2.571,5.837-6.851,9.928-12.828,12.193c-1.844,0.699-3.769,1.035-5.89,1.048c-2.564-0.022-5.085-0.669-7.277-2.321
			c-2.373-1.788-3.737-4.201-4.249-7.102c-0.539-3.059-0.109-6.03,1.085-8.861c2.68-6.357,7.278-10.708,13.858-12.873
			c2.512-0.826,5.096-1.003,7.711-0.483c4.59,0.913,8.019,4.425,8.821,9.031C71.731,28.998,71.25,32.129,69.934,35.113z"/>
		<path fill-rule="evenodd" clip-rule="evenodd" fill="#F7F2ED" d="M20.801,70.307c1.149-0.786,3.006-2.731,3.4-3.127
			c3.977-3.989,7.959-7.973,11.939-11.959l-3.534-3.533c-3.962,3.91-7.877,7.868-11.821,11.797
			c-0.406,0.405-2.938,3.148-3.014,3.148C17.771,66.672,20.839,70.269,20.801,70.307z"/>
	</g>
	<path fill="#A2A2A3" d="M69.538,18.305c-6.183-6.182-17.499-4.889-25.276,2.889c-7.777,7.778-9.071,19.095-2.89,25.276
		c6.183,6.182,17.499,4.889,25.276-2.889C74.427,35.804,75.72,24.488,69.538,18.305z M65.234,42.168
		c-3.947,3.947-8.995,6.211-13.85,6.211c-3.452,0-6.425-1.148-8.599-3.322c-5.392-5.393-4.096-15.463,2.89-22.448
		c3.947-3.947,8.995-6.211,13.851-6.211c3.451,0,6.424,1.149,8.598,3.322C73.516,25.112,72.22,35.183,65.234,42.168z"/>
	<path fill="#D1D1D1" d="M69.886,30.664l-2.75-2.751l2.899-2.871c-0.073-0.272-0.166-0.535-0.259-0.798l-3.171,3.139l-2.794-2.794
		l3.878-3.851c-0.094-0.102-0.174-0.213-0.272-0.312c-0.08-0.08-0.169-0.148-0.251-0.226l-3.885,3.857l-2.766-2.765l3.227-3.183
		c-0.263-0.096-0.528-0.187-0.802-0.263l-2.955,2.915l-2.829-2.829l0.399-0.395c-0.526,0.069-1.053,0.157-1.577,0.279l0.113,0.114
		l-3.396,3.355l-1.569-1.569c-0.224,0.125-0.441,0.266-0.661,0.4l1.696,1.697l-3.395,3.355l-2.107-2.107
		c-0.091,0.087-0.188,0.164-0.277,0.253c-0.09,0.09-0.168,0.185-0.256,0.276l2.106,2.106l-3.396,3.355l-1.663-1.663
		c-0.137,0.224-0.257,0.452-0.383,0.679l1.512,1.512l-3.395,3.355l-0.031-0.031c-0.108,0.461-0.194,0.919-0.262,1.375l0.289-0.285
		l2.813,2.813l-2.866,2.827c0.071,0.274,0.159,0.541,0.25,0.807l3.146-3.104l2.819,2.818l-3.876,3.85
		c0.103,0.113,0.192,0.234,0.301,0.344c0.069,0.07,0.147,0.129,0.22,0.197l3.886-3.859l2.769,2.769l-3.231,3.198
		c0.262,0.097,0.528,0.186,0.801,0.264l2.961-2.932l2.785,2.785l-0.497,0.494c0.582-0.068,1.165-0.172,1.746-0.307l-0.186-0.186
		l3.385-3.365l1.651,1.65c0.224-0.124,0.441-0.266,0.662-0.399l-1.781-1.78l3.386-3.366l2.202,2.202
		c0.09-0.088,0.187-0.164,0.276-0.254s0.168-0.186,0.256-0.275l-2.202-2.202l3.386-3.365l1.769,1.769
		c0.136-0.225,0.257-0.451,0.383-0.678l-1.619-1.62l3.386-3.366l0.147,0.148c0.131-0.553,0.229-1.104,0.3-1.651L69.886,30.664z
		 M66.072,27.91l-3.394,3.359l-2.787-2.787l3.388-3.364L66.072,27.91z M54.908,32.372l-3.388,3.364l-2.804-2.805l3.398-3.353
		L54.908,32.372z M52.649,29.053l3.398-3.353l2.78,2.78l-3.388,3.363L52.649,29.053z M55.439,32.902l2.78,2.781l-3.393,3.357
		l-2.775-2.775L55.439,32.902z M55.972,32.374l3.387-3.363l2.787,2.786l-3.393,3.358L55.972,32.374z M62.748,24.587l-3.388,3.364
		l-2.777-2.778l3.398-3.353L62.748,24.587z M56.622,18.461l2.829,2.828l-3.399,3.353l-2.825-2.825L56.622,18.461z M52.692,22.345
		l2.825,2.825l-3.398,3.352L49.298,25.7L52.692,22.345z M48.764,26.228l2.821,2.821L48.186,32.4l-2.817-2.817L48.764,26.228z
		 M41.439,33.467l3.395-3.355l2.817,2.816l-3.398,3.353L41.439,33.467z M44.784,36.811l3.398-3.352l2.806,2.806l-3.388,3.363
		L44.784,36.811z M48.132,40.158l3.387-3.363l2.774,2.775L50.9,42.928L48.132,40.158z M54.215,46.242l-2.784-2.783l3.394-3.359
		l2.776,2.777L54.215,46.242z M58.133,42.348l-2.775-2.775l3.393-3.358l2.769,2.769L58.133,42.348z M62.051,38.453l-2.768-2.768
		l3.393-3.357l2.76,2.76L62.051,38.453z M65.968,34.559l-2.759-2.76l3.394-3.357l2.751,2.751L65.968,34.559z"/>
</g>
<g>
	<circle fill-rule="evenodd" clip-rule="evenodd" fill="#E5BB70" cx="27.449" cy="19.847" r="6.75"/>
	<path fill-rule="evenodd" clip-rule="evenodd" fill="#F7F2ED" d="M25.851,26.398c0.321,0.078,0.648,0.137,0.985,0.167
		c0.323-3.146,2.987-5.607,6.217-5.607c0.353,0,0.696,0.037,1.033,0.093c0.059-0.324,0.092-0.656,0.103-0.995
		c-0.371-0.059-0.748-0.098-1.136-0.098C29.329,19.959,26.256,22.781,25.851,26.398z"/>
	<path fill-rule="evenodd" clip-rule="evenodd" fill="#F7F2ED" d="M29.155,13.323c-0.32-0.083-0.646-0.15-0.983-0.187
		c-0.313,3.155-2.982,5.628-6.219,5.628c-0.391,0-0.771-0.041-1.143-0.109c-0.058,0.324-0.092,0.656-0.102,0.995
		c0.405,0.07,0.819,0.115,1.244,0.115C25.678,19.765,28.752,16.941,29.155,13.323z"/>
</g>
<path fill-rule="evenodd" clip-rule="evenodd" fill="#A2A2A3" d="M19.387,72.384c-0.381,0.313-0.934,0.272-1.234-0.092l-2.689-3.258
	c-0.301-0.364-0.237-0.915,0.144-1.229l0.813-0.672c0.381-0.314,0.934-0.273,1.235,0.092l2.689,3.257
	c0.301,0.364,0.236,0.915-0.145,1.229L19.387,72.384z"/>
<g>
	<path fill="#C99E47" d="M23.008,61.506c-0.839,0.846-1.772,1.729-2.45,2.476c-0.771,0.847,0.634,3.688,1.773,4.848
		c0.033,0.003,1.806-1.823,2.511-2.538C23.521,64.646,22.567,62.297,23.008,61.506z"/>
	<path fill="#C99E47" d="M19.757,64.789c-0.676,0.683-1.618,1.591-1.618,1.591l2.852,3.737c0,0,0.471-0.408,0.605-0.543
		C20.27,67.93,19.314,65.581,19.757,64.789z"/>
	<path fill="#C99E47" d="M26.26,58.223c-0.843,0.847-1.773,1.73-2.452,2.477c-0.771,0.846,0.634,3.686,1.771,4.846
		c0.034,0.003,1.805-1.822,2.519-2.539C26.771,61.363,25.817,59.014,26.26,58.223z"/>
	<path fill="#C99E47" d="M29.508,54.938c-0.84,0.849-1.772,1.73-2.451,2.478c-0.771,0.846,0.638,3.686,1.773,4.848
		c0.035,0,1.805-1.823,2.517-2.54C30.021,58.081,29.069,55.73,29.508,54.938z"/>
	<path fill="#C99E47" d="M32.758,51.656c-0.839,0.848-1.771,1.73-2.449,2.477c-0.771,0.846,0.637,3.686,1.774,4.848
		c0.033,0,1.801-1.824,2.512-2.539C33.273,54.797,32.317,52.448,32.758,51.656z"/>
	<path fill="#C99E47" d="M33.402,52.141c0.253,1.19,1.151,2.766,1.927,3.555c0.017,0.002,0.364-0.35,0.814-0.805
		C36.144,54.891,33.382,52.155,33.402,52.141z"/>
</g>
</svg>
