<?xml version="1.0" encoding="utf-8"?>
<!-- Generator: Adobe Illustrator 16.0.0, SVG Export Plug-In . SVG Version: 6.00 Build 0)  -->
<!DOCTYPE svg PUBLIC "-//W3C//DTD SVG 1.1//EN" "http://www.w3.org/Graphics/SVG/1.1/DTD/svg11.dtd">
<svg version="1.1" id="Layer_1" xmlns="http://www.w3.org/2000/svg" xmlns:xlink="http://www.w3.org/1999/xlink" x="0px" y="0px"
	 width="86px" height="80px" viewBox="0 0 86 80" enable-background="new 0 0 86 80" xml:space="preserve">
<g>
	<g>
		<path fill="#F7F2ED" d="M4.859,78.998C2.73,78.998,1,77.271,1,75.15V4.846c0-2.121,1.73-3.85,3.859-3.85h76.277
			c2.131,0,3.861,1.729,3.861,3.85V75.15c0,2.121-1.73,3.848-3.861,3.848H4.859z"/>
		<path fill="#D1D1D1" d="M81.137,1.999c1.578,0,2.861,1.277,2.861,2.85v70.304c0,1.568-1.283,2.848-2.861,2.848H4.859
			C3.281,78,2,76.725,2,75.152V4.848c0-1.572,1.283-2.85,2.859-2.85H81.137 M81.137-0.001H4.859C2.173-0.001,0,2.17,0,4.848v70.304
			C0,77.828,2.176,80,4.859,80h76.277c2.688,0,4.861-2.172,4.861-4.848V4.848C85.998,2.17,83.824-0.001,81.137-0.001L81.137-0.001z"
			/>
	</g>
</g>
<g enable-background="new    ">
	<path fill="#374537" d="M41.601,66.891c0,0.475,0.004,0.906,0.014,1.295c0.01,0.387,0.051,0.768,0.126,1.141h-0.755l-0.281-0.994
		h-0.055c-0.188,0.326-0.458,0.598-0.813,0.811c-0.354,0.215-0.77,0.322-1.246,0.322c-0.933,0-1.625-0.293-2.078-0.881
		c-0.453-0.588-0.679-1.508-0.679-2.758c0-1.193,0.282-2.102,0.847-2.723c0.564-0.619,1.341-0.93,2.33-0.93
		c0.346,0,0.619,0.018,0.819,0.057c0.2,0.037,0.417,0.098,0.651,0.182V59.5h1.119V66.891z M38.773,68.486
		c0.476,0,0.854-0.125,1.134-0.371c0.279-0.248,0.471-0.623,0.574-1.127v-3.471c-0.168-0.131-0.359-0.225-0.574-0.281
		c-0.215-0.055-0.5-0.084-0.854-0.084c-0.645,0-1.148,0.213-1.512,0.639c-0.364,0.424-0.545,1.102-0.545,2.035
		c0,0.383,0.03,0.738,0.091,1.064c0.061,0.326,0.161,0.605,0.301,0.84c0.14,0.232,0.324,0.418,0.553,0.553
		S38.446,68.486,38.773,68.486z"/>
	<path fill="#374537" d="M49.774,61.74c0,0.232-0.037,0.471-0.112,0.713s-0.187,0.469-0.336,0.68
		c-0.149,0.209-0.341,0.395-0.573,0.553c-0.234,0.158-0.51,0.279-0.826,0.363v0.057c0.279,0.047,0.548,0.125,0.805,0.238
		c0.256,0.111,0.482,0.266,0.679,0.461s0.354,0.434,0.476,0.713c0.121,0.281,0.182,0.611,0.182,0.994
		c0,0.504-0.104,0.941-0.314,1.309c-0.21,0.369-0.485,0.67-0.826,0.902c-0.34,0.234-0.729,0.406-1.168,0.52
		c-0.439,0.111-0.887,0.168-1.344,0.168c-0.158,0-0.346,0-0.56,0c-0.215,0-0.438-0.008-0.672-0.021s-0.467-0.033-0.7-0.057
		c-0.232-0.023-0.438-0.059-0.615-0.105v-9.643c0.345-0.055,0.746-0.102,1.203-0.139c0.457-0.039,0.957-0.057,1.498-0.057
		c0.363,0,0.734,0.029,1.112,0.09c0.378,0.063,0.721,0.178,1.028,0.352c0.309,0.172,0.563,0.412,0.764,0.721
		C49.674,60.857,49.774,61.254,49.774,61.74z M45.757,63.811c0.159,0,0.35-0.004,0.574-0.014s0.41-0.023,0.561-0.041
		c0.223-0.076,0.434-0.166,0.629-0.273c0.196-0.107,0.371-0.232,0.525-0.379c0.154-0.145,0.275-0.313,0.363-0.504
		c0.089-0.189,0.133-0.398,0.133-0.621c0-0.309-0.059-0.563-0.174-0.764c-0.117-0.201-0.273-0.361-0.47-0.482
		s-0.42-0.207-0.671-0.26c-0.252-0.051-0.51-0.076-0.771-0.076c-0.308,0-0.591,0.006-0.847,0.021
		c-0.257,0.014-0.45,0.033-0.581,0.063v3.33H45.757z M46.526,68.402c0.299,0,0.588-0.035,0.868-0.105s0.527-0.182,0.742-0.336
		c0.214-0.154,0.385-0.344,0.511-0.566c0.126-0.225,0.189-0.49,0.189-0.799c0-0.383-0.078-0.689-0.231-0.924
		c-0.153-0.232-0.354-0.414-0.603-0.545c-0.246-0.131-0.524-0.219-0.832-0.266c-0.309-0.047-0.615-0.07-0.924-0.07h-1.218v3.512
		c0.065,0.02,0.159,0.033,0.28,0.043s0.252,0.02,0.392,0.027c0.14,0.01,0.284,0.018,0.435,0.021
		C46.284,68.4,46.415,68.402,46.526,68.402z"/>
</g>
<g>
	<rect x="2.054" y="39.498" fill="#C99E48" width="81.892" height="12.25"/>
</g>
<path fill="#EACEAC" d="M30.638,46.74l-1.267,0.865c4.029,1.688,8.988,2.604,14.316,2.428c4.803-0.162,9.242-1.191,12.936-2.824
	l-1.34-0.785c-3.344,1.424-7.332,2.322-11.633,2.465C38.82,49.053,34.32,48.242,30.638,46.74z"/>
<path fill="#EFE7DA" d="M33.175,44.012l-1.269,0.863c3.334,1.313,7.373,2.016,11.703,1.871c3.803-0.127,7.338-0.893,10.338-2.111
	l-1.354-0.799c-2.646,1.02-5.727,1.656-9.021,1.768C39.742,45.73,36.16,45.135,33.175,44.012z"/>
<path fill="#FFFFFF" d="M35.732,41.266l-1.279,0.873c2.633,0.938,5.754,1.432,9.082,1.32c2.797-0.094,5.414-0.604,7.699-1.424
	l-1.371-0.807c-1.916,0.625-4.076,1.012-6.365,1.088C40.664,42.412,38.002,42.02,35.732,41.266z"/>
<g>
	<path fill="#A2A2A3" d="M33.31,33.951c0,0,0.306,0.723,1.485,0.189c-0.076-0.686,0.267-11.423,1.256-11.46
		c0.99-0.038,5.064,7.35,6.131,9.861c1.066,2.512,3.352,2.418,4.568,2.438c2.514,0.039,8.949-3.008,9.254-3.197
		c0.305-0.191,0.686-2.818,0.268-2.818c-0.42,0-12.012,4.886-14.623,0.039c-3.197-5.94-5.063-8.072-8.604-10.054
		c-3.543-1.979-3.047-1.599-3.01-0.989c0.039,0.608,0.935,1.985,1.867,3.885C32.968,24.012,33.652,25.803,33.31,33.951z"/>
	<path fill="#A2A2A3" d="M30.074,16.741c0,0-1.332-3.465,0.229-6.701c0.281-0.063,3.203,0.664,5.49,4.793
		c1.061,1.908,1.516,6.516,1.061,6.098C36.395,20.51,32.092,17.693,30.074,16.741z"/>
	<path fill="#A2A2A3" d="M39.871,24.685c0,0,1.414,2.832,2.361,4.036c2.514,3.199,8.91,1.522,12.26,0.381
		c3.352-1.143,0.994-3.176-2.438-3.352c-3.24-0.164-4.896-2.035-5.568-3.063c-0.258-0.396-0.369-0.668-0.369-0.668
		s-0.49,0.242-1.197,0.58C43.154,23.448,40.035,24.903,39.871,24.685z"/>
</g>
</svg>
