<?xml version="1.0" encoding="utf-8"?>
<!-- Generator: Adobe Illustrator 16.0.0, SVG Export Plug-In . SVG Version: 6.00 Build 0)  -->
<!DOCTYPE svg PUBLIC "-//W3C//DTD SVG 1.1//EN" "http://www.w3.org/Graphics/SVG/1.1/DTD/svg11.dtd">
<svg version="1.1" id="Layer_1" xmlns="http://www.w3.org/2000/svg" xmlns:xlink="http://www.w3.org/1999/xlink" x="0px" y="0px"
	 width="86px" height="80px" viewBox="0 0 86 80" enable-background="new 0 0 86 80" xml:space="preserve">
<g>
	<g>
		<g>
			<path fill="#F6F1EC" d="M4.861,79c-2.129,0-3.859-1.728-3.859-3.849V4.848c0-2.123,1.73-3.852,3.859-3.852h76.279
				C83.27,0.996,85,2.725,85,4.848v70.304C85,77.272,83.27,79,81.141,79H4.861z"/>
			<path fill="#D0D0D1" d="M81.141,2C82.717,2,84,3.276,84,4.85v70.303C84,76.723,82.717,78,81.141,78H4.861
				c-1.577,0-2.859-1.276-2.859-2.848V4.85C2.002,3.279,3.285,2,4.861,2H81.141 M81.141,0H4.861C2.176,0,0.002,2.172,0.002,4.85
				v70.303C0.002,77.828,2.178,80,4.861,80h76.279C83.824,80,86,77.828,86,75.152V4.85C86,2.172,83.824,0,81.141,0L81.141,0z"/>
		</g>
	</g>
	<g>
		<g>
			<polygon fill="#C5C3C2" points="39.205,37.335 2.046,37.335 2.046,45.245 34.625,45.245 			"/>
			<polygon fill="#C5C3C2" points="47.709,37.335 40.446,45.245 83.83,45.245 83.83,37.335 			"/>
		</g>
		<g>
			<polygon fill="#F5F0F1" points="15.357,45.245 8.579,37.335 7.674,37.335 14.451,45.245 			"/>
			<polygon fill="#F5F0F1" points="3.213,37.335 2.307,37.335 9.085,45.245 9.992,45.245 			"/>
			<polygon fill="#F5F0F1" points="3.721,45.245 4.624,45.245 2.031,42.216 2.031,43.274 			"/>
			<polygon fill="#F5F0F1" points="20.725,45.245 13.945,37.335 13.038,37.335 19.818,45.245 			"/>
			<polygon fill="#F5F0F1" points="26.089,45.245 19.314,37.335 18.403,37.335 25.182,45.245 			"/>
			<polygon fill="#F5F0F1" points="31.456,45.245 24.678,37.335 23.768,37.335 30.548,45.245 			"/>
			<polygon fill="#F5F0F1" points="58.281,45.245 51.504,37.335 50.598,37.335 57.379,45.245 			"/>
			<polygon fill="#F5F0F1" points="63.65,45.245 56.871,37.335 55.963,37.335 62.744,45.245 			"/>
			<polygon fill="#F5F0F1" points="69.014,45.245 62.236,37.335 61.33,37.335 68.113,45.245 			"/>
			<polygon fill="#F5F0F1" points="74.383,45.245 67.602,37.335 66.697,37.335 73.473,45.245 			"/>
			<polygon fill="#F5F0F1" points="79.742,45.245 72.969,37.335 72.063,37.335 78.84,45.245 			"/>
			<polygon fill="#F5F0F1" points="83.828,43.749 78.334,37.335 77.43,37.335 83.828,44.804 			"/>
			<polygon fill="#F5F0F1" points="83.922,37.593 83.701,37.335 82.799,37.335 83.922,38.647 			"/>
			<polygon fill="#F5F0F1" points="46.428,38.729 52.012,45.245 52.916,45.245 46.896,38.22 			"/>
			<polygon fill="#F5F0F1" points="43.65,41.753 46.645,45.245 47.553,45.245 44.121,41.241 			"/>
			<g>
				<polygon fill="#F5F0F1" points="40.877,44.774 41.282,45.245 42.188,45.245 41.346,44.263 				"/>
				<polygon fill="#F5F0F1" points="37.674,39.979 35.409,37.335 34.504,37.335 37.309,40.608 				"/>
			</g>
			<polygon fill="#F5F0F1" points="35.512,43.716 30.044,37.335 29.137,37.335 35.146,44.347 			"/>
		</g>
	</g>
	<polygon fill="#C99E48" points="49.969,10.652 58.111,10.652 47.16,25.575 55.479,25.575 35.075,48.394 45.262,30.32 39.446,30.32 
			"/>
	<rect x="2.031" y="45.144" fill="#C99E48" width="81.891" height="3.883"/>
	<g>
		<path fill="#384537" d="M38.123,66.212h-0.644v3.15h-1.12v-7h1.12v3.164l0.602-0.195l2.24-2.969h1.218l-2.17,2.814l-0.588,0.463
			l0.728,0.559l2.338,3.164h-1.386L38.123,66.212z"/>
		<path fill="#384537" d="M49.071,61.804c0,0.232-0.038,0.471-0.112,0.713c-0.075,0.242-0.187,0.469-0.336,0.68
			c-0.149,0.209-0.341,0.395-0.574,0.553s-0.509,0.279-0.826,0.363v0.057c0.28,0.047,0.549,0.125,0.806,0.238
			c0.256,0.111,0.482,0.266,0.679,0.461c0.196,0.197,0.354,0.436,0.476,0.715s0.183,0.611,0.183,0.994
			c0,0.504-0.105,0.939-0.315,1.309s-0.485,0.67-0.826,0.902c-0.341,0.234-0.73,0.406-1.169,0.52
			c-0.438,0.111-0.887,0.168-1.344,0.168c-0.159,0-0.346,0-0.56,0c-0.215,0-0.439-0.008-0.673-0.021s-0.467-0.033-0.699-0.057
			c-0.233-0.023-0.439-0.059-0.616-0.105v-9.645c0.345-0.057,0.746-0.104,1.204-0.141c0.457-0.037,0.956-0.057,1.498-0.057
			c0.363,0,0.734,0.031,1.112,0.092s0.722,0.178,1.029,0.35c0.308,0.174,0.563,0.414,0.763,0.721
			C48.971,60.921,49.071,61.317,49.071,61.804z M45.053,63.874c0.159,0,0.351-0.004,0.574-0.014c0.224-0.008,0.41-0.023,0.56-0.041
			c0.225-0.074,0.435-0.166,0.631-0.273c0.195-0.107,0.37-0.232,0.524-0.379c0.154-0.145,0.275-0.313,0.364-0.504
			s0.133-0.398,0.133-0.623c0-0.307-0.059-0.561-0.175-0.762c-0.117-0.201-0.273-0.361-0.469-0.484
			c-0.196-0.121-0.421-0.207-0.673-0.258s-0.509-0.078-0.77-0.078c-0.308,0-0.591,0.008-0.847,0.021
			c-0.257,0.014-0.451,0.035-0.581,0.063v3.332H45.053z M45.823,68.466c0.298,0,0.588-0.033,0.867-0.104
			c0.28-0.07,0.527-0.182,0.742-0.336s0.386-0.344,0.512-0.568c0.126-0.223,0.188-0.488,0.188-0.797c0-0.383-0.077-0.691-0.23-0.924
			c-0.154-0.234-0.355-0.416-0.603-0.547s-0.525-0.219-0.833-0.266s-0.616-0.07-0.924-0.07h-1.218v3.514
			c0.064,0.02,0.158,0.033,0.279,0.043c0.122,0.01,0.252,0.018,0.393,0.027c0.14,0.01,0.284,0.018,0.434,0.021
			S45.711,68.466,45.823,68.466z"/>
	</g>
</g>
</svg>
