<?xml version="1.0" encoding="utf-8"?>
<!-- Generator: Adobe Illustrator 16.0.0, SVG Export Plug-In . SVG Version: 6.00 Build 0)  -->
<!DOCTYPE svg PUBLIC "-//W3C//DTD SVG 1.1//EN" "http://www.w3.org/Graphics/SVG/1.1/DTD/svg11.dtd">
<svg version="1.1" id="Layer_1" xmlns="http://www.w3.org/2000/svg" xmlns:xlink="http://www.w3.org/1999/xlink" x="0px" y="0px"
	 width="86px" height="80px" viewBox="0 0 86 80" enable-background="new 0 0 86 80" xml:space="preserve">
<g>
	<g>
		<path fill="#F7F2ED" d="M4.861,79c-2.129,0-3.859-1.728-3.859-3.848V4.847c0-2.121,1.73-3.851,3.859-3.851h76.279
			C83.271,0.996,85,2.726,85,4.847v70.306C85,77.272,83.271,79,81.143,79H4.861z"/>
		<path fill="#D1D1D1" d="M81.143,2C82.719,2,84,3.277,84,4.85v70.303C84,76.723,82.719,78,81.143,78H4.861
			c-1.577,0-2.859-1.276-2.859-2.848V4.85C2.002,3.277,3.284,2,4.861,2H81.143 M81.143,0H4.861C2.176,0,0.002,2.172,0.002,4.85
			v70.303c0,2.676,2.175,4.849,4.859,4.849h76.279c2.686,0,4.859-2.173,4.859-4.849V4.85C86,2.172,83.826,0,81.143,0L81.143,0z"/>
	</g>
</g>
<g>
	<path fill="#A2A2A3" d="M28.09,50.674c0.031-0.512,0.01-1.018-0.041-1.523v1.936C28.065,50.957,28.081,50.829,28.09,50.674z"/>
	<path fill="#D1D1D1" d="M84.287,49.102v-0.5h-0.52v-2.443h0.217v-2.666h-6.969c0.014,0.297,0.031,0.588,0.035,0.895
		c0,0.531-0.066,1.139-0.162,1.771h0.576v2.443h-1.109c-0.047,0.164-0.109,0.333-0.162,0.5h1.271v2.216h-2.088
		c-0.072,0.167-0.15,0.333-0.227,0.5h2.314v2.217h-2.418v-2.011c-0.158,0.328-0.313,0.656-0.49,0.98v1.03h-0.607
		c-0.104,0.167-0.203,0.335-0.313,0.5h0.92v2.217h-2.416V56.6c-0.18,0.225-0.365,0.438-0.549,0.651h0.059v2.217h-2.277
		c-0.209,0.178-0.416,0.354-0.629,0.521v2.195h-2.416v-0.611c-0.07,0.038-0.139,0.08-0.209,0.117
		c-0.092,0.049-0.189,0.09-0.281,0.137v0.357h-0.742c-0.406,0.182-0.818,0.35-1.236,0.5h1.979V64.9h-2.416v-2.076
		c-0.164,0.055-0.326,0.109-0.49,0.158V64.9h-2.418v-1.434c-0.158,0.027-0.322,0.055-0.49,0.076V64.9h-2.416v-1.186
		c-0.104,0.002-0.199,0.008-0.307,0.008l-0.184-0.011V64.9h-2.416v-1.422c-0.166-0.027-0.328-0.063-0.49-0.096V64.9h-2.416v-2.139
		l-0.483-0.139c-0.769-0.219-1.462-0.324-2.12-0.324c-0.65,0-1.247,0.104-1.824,0.314c-0.06,0.022-0.1,0.047-0.146,0.07h1.176V64.9
		H45.98v-0.945c-0.168,0.188-0.333,0.375-0.49,0.555V64.9h-0.341c-0.146,0.168-0.294,0.338-0.433,0.5h0.773v2.217h-2.416v-0.236
		c-0.194,0.238-0.391,0.475-0.584,0.713c-0.007,0.008-0.014,0.016-0.02,0.023h0.113v2.217h-1.938
		c-0.023,0.027-0.045,0.056-0.068,0.083c-0.271,0.317-0.578,0.56-0.901,0.76v1.874H37.26v-1.439
		c-0.162-0.031-0.326-0.073-0.49-0.126v1.565h-2.416v-2.217h1.093c-0.259-0.156-0.512-0.319-0.749-0.5h-0.344v-0.287
		c-0.165-0.141-0.338-0.271-0.49-0.424v0.711h-2.417v-2.217h1.257c-0.104-0.165-0.213-0.324-0.306-0.5h-0.951V65.4h0.375
		c0.006-0.168,0.017-0.336,0.046-0.5h-0.421v-2.217h1.828c0.356-0.295,0.718-0.588,1.079-0.879v-1.837h2.24
		c0.224-0.189,0.444-0.382,0.666-0.573v-1.326c-0.168-0.028-0.328-0.038-0.49-0.054v1.453h-2.416V58.29
		c-0.186,0.073-0.311,0.161-0.36,0.216c-0.046,0.052-0.085,0.098-0.13,0.148v0.813h-0.717c-0.15,0.171-0.291,0.335-0.434,0.5h1.15
		v2.216h-2.417v-0.723c-0.093,0.113-0.19,0.227-0.28,0.338c-0.071,0.086-0.141,0.175-0.21,0.262v0.123h-0.1
		c-0.135,0.166-0.269,0.334-0.401,0.5h0.501V64.9h-2.285c-0.206,0.258-0.412,0.517-0.622,0.771v1.945h-2.416v-0.319
		c-0.16,0.024-0.318,0.055-0.485,0.055c-0.002,0-0.003-0.001-0.005-0.001v0.266h-2.417v-0.953c-0.167-0.092-0.332-0.186-0.49-0.287
		v1.24h-2.417V65.4h1.16c-0.16-0.154-0.301-0.331-0.449-0.5h-0.711v-0.928c-0.17-0.259-0.343-0.518-0.489-0.801V64.9h-2.417v-2.217
		h2.203c-0.065-0.167-0.118-0.333-0.162-0.5h-2.041v-2.216h2.123c0.065-0.172,0.143-0.339,0.236-0.5h-2.359v-2.217h2.417v2.132
		c0.136-0.218,0.302-0.42,0.489-0.611v-1.521h1.806c0.019-0.015,0.036-0.03,0.056-0.045c0.186-0.15,0.369-0.304,0.556-0.455h-2.417
		v-2.217h2.417v2.217c0.164-0.134,0.327-0.268,0.49-0.401v-1.815h2.169c0.244-0.208,0.487-0.416,0.738-0.632v-2.085h2.225
		c0.066-0.137,0.118-0.3,0.156-0.5h-2.381v-2.216h2.412c-0.018-0.167-0.033-0.334-0.059-0.5h-2.354v-2.443h1.717
		c-0.241-0.836-0.41-1.725-0.498-2.666H1.478v2.666h3.317v2.443H2.133v0.5h2.662v2.216H2.133v0.5h2.662v2.217H2.133v0.5h2.662v2.217
		H2.133v0.5h2.662v2.217H2.133v0.5h2.662v2.216H2.133v0.5h2.662V64.9H2.133v0.5h2.662v2.217H2.133v0.5h2.662v2.217H2.133v0.5h2.662
		v2.217H2.133v0.5h82.154v-0.5h-0.52v-2.217h0.52v-0.5h-0.52v-2.217h0.52v-0.5h-0.52V65.4h0.52v-0.5h-0.52v-2.217h0.52v-0.5h-0.52
		v-2.216h0.52v-0.5h-0.52v-2.217h0.52v-0.5h-0.52v-2.217h0.52v-0.5h-0.52v-2.217h0.52v-0.5h-0.52v-2.216H84.287z M22.726,46.158
		h2.417v2.443h-2.417V46.158z M22.726,49.102h2.417v2.216h-2.417V49.102z M22.726,51.817h2.417v2.217h-2.417V51.817z M19.818,46.158
		h2.417v2.443h-2.417V46.158z M19.818,49.102h2.417v2.216h-2.417V49.102z M19.818,51.817h2.417v2.217h-2.417V51.817z M16.912,46.158
		h2.417v2.443h-2.417V46.158z M16.912,49.102h2.417v2.216h-2.417V49.102z M16.912,51.817h2.417v2.217h-2.417V51.817z M16.912,54.534
		h2.417v2.217h-2.417V54.534z M7.701,73.051H5.285v-2.217h2.416V73.051z M7.701,70.334H5.285v-2.217h2.416V70.334z M7.701,67.617
		H5.285V65.4h2.416V67.617z M7.701,64.9H5.285v-2.217h2.416V64.9z M7.701,62.184H5.285v-2.216h2.416V62.184z M7.701,59.468H5.285
		v-2.217h2.416V59.468z M7.701,56.751H5.285v-2.217h2.416V56.751z M7.701,54.034H5.285v-2.217h2.416V54.034z M7.701,51.317H5.285
		v-2.216h2.416V51.317z M7.701,48.602H5.285v-2.443h2.416V48.602z M10.608,73.051H8.191v-2.217h2.417V73.051z M10.608,70.334H8.191
		v-2.217h2.417V70.334z M10.608,67.617H8.191V65.4h2.417V67.617z M10.608,64.9H8.191v-2.217h2.417V64.9z M10.608,62.184H8.191
		v-2.216h2.417V62.184z M10.608,59.468H8.191v-2.217h2.417V59.468z M10.608,56.751H8.191v-2.217h2.417V56.751z M10.608,54.034H8.191
		v-2.217h2.417V54.034z M10.608,51.317H8.191v-2.216h2.417V51.317z M10.608,48.602H8.191v-2.443h2.417V48.602z M13.515,73.051
		h-2.417v-2.217h2.417V73.051z M13.515,70.334h-2.417v-2.217h2.417V70.334z M13.515,67.617h-2.417V65.4h2.417V67.617z M13.515,64.9
		h-2.417v-2.217h2.417V64.9z M13.515,62.184h-2.417v-2.216h2.417V62.184z M13.515,59.468h-2.417v-2.217h2.417V59.468z
		 M13.515,56.751h-2.417v-2.217h2.417V56.751z M13.515,54.034h-2.417v-2.217h2.417V54.034z M13.515,51.317h-2.417v-2.216h2.417
		V51.317z M13.515,48.602h-2.417v-2.443h2.417V48.602z M16.422,73.051h-2.417v-2.217h2.417V73.051z M16.422,70.334h-2.417v-2.217
		h2.417V70.334z M16.422,67.617h-2.417V65.4h2.417V67.617z M16.422,64.9h-2.417v-2.217h2.417V64.9z M16.422,62.184h-2.417v-2.216
		h2.417V62.184z M16.422,59.468h-2.417v-2.217h2.417V59.468z M16.422,56.751h-2.417v-2.217h2.417V56.751z M16.422,54.034h-2.417
		v-2.217h2.417V54.034z M16.422,51.317h-2.417v-2.216h2.417V51.317z M16.422,48.602h-2.417v-2.443h2.417V48.602z M19.329,73.051
		h-2.417v-2.217h2.417V73.051z M19.329,70.334h-2.417v-2.217h2.417V70.334z M19.329,67.617h-2.417V65.4h2.417V67.617z
		 M22.235,73.051h-2.417v-2.217h2.417V73.051z M22.235,70.334h-2.417v-2.217h2.417V70.334z M25.143,73.051h-2.417v-2.217h2.417
		V73.051z M25.143,70.334h-2.417v-2.217h2.417V70.334z M28.049,73.051h-2.416v-2.217h2.416V73.051z M28.049,70.334h-2.416v-2.217
		h2.416V70.334z M30.956,73.051h-2.417v-2.217h2.417V73.051z M30.956,70.334h-2.417v-2.217h2.417V70.334z M30.956,67.617h-2.417
		V65.4h2.417V67.617z M33.863,73.051h-2.417v-2.217h2.417V73.051z M42.584,73.051h-2.418v-2.217h2.418V73.051z M45.49,73.051h-2.416
		v-2.217h2.416V73.051z M45.49,70.334h-2.416v-2.217h2.416V70.334z M48.396,73.051H45.98v-2.217h2.416V73.051z M48.396,70.334H45.98
		v-2.217h2.416V70.334z M48.396,67.617H45.98V65.4h2.416V67.617z M51.305,73.051h-2.418v-2.217h2.418V73.051z M51.305,70.334h-2.418
		v-2.217h2.418V70.334z M51.305,67.617h-2.418V65.4h2.418V67.617z M51.305,64.9h-2.418v-2.217h2.418V64.9z M54.211,73.051h-2.416
		v-2.217h2.416V73.051z M54.211,70.334h-2.416v-2.217h2.416V70.334z M54.211,67.617h-2.416V65.4h2.416V67.617z M57.117,73.051
		h-2.416v-2.217h2.416V73.051z M57.117,70.334h-2.416v-2.217h2.416V70.334z M57.117,67.617h-2.416V65.4h2.416V67.617z
		 M60.023,73.051h-2.416v-2.217h2.416V73.051z M60.023,70.334h-2.416v-2.217h2.416V70.334z M60.023,67.617h-2.416V65.4h2.416V67.617
		z M62.932,73.051h-2.418v-2.217h2.418V73.051z M62.932,70.334h-2.418v-2.217h2.418V70.334z M62.932,67.617h-2.418V65.4h2.418
		V67.617z M65.838,73.051h-2.416v-2.217h2.416V73.051z M65.838,70.334h-2.416v-2.217h2.416V70.334z M65.838,67.617h-2.416V65.4
		h2.416V67.617z M68.744,73.051h-2.416v-2.217h2.416V73.051z M68.744,70.334h-2.416v-2.217h2.416V70.334z M68.744,67.617h-2.416
		V65.4h2.416V67.617z M68.744,64.9h-2.416v-2.217h2.416V64.9z M71.65,73.051h-2.416v-2.217h2.416V73.051z M71.65,70.334h-2.416
		v-2.217h2.416V70.334z M71.65,67.617h-2.416V65.4h2.416V67.617z M71.65,64.9h-2.416v-2.217h2.416V64.9z M71.65,62.184h-2.416
		v-2.216h2.416V62.184z M74.557,73.051h-2.416v-2.217h2.416V73.051z M74.557,70.334h-2.416v-2.217h2.416V70.334z M74.557,67.617
		h-2.416V65.4h2.416V67.617z M74.557,64.9h-2.416v-2.217h2.416V64.9z M74.557,62.184h-2.416v-2.216h2.416V62.184z M74.557,59.468
		h-2.416v-2.217h2.416V59.468z M77.465,73.051h-2.418v-2.217h2.418V73.051z M77.465,70.334h-2.418v-2.217h2.418V70.334z
		 M77.465,67.617h-2.418V65.4h2.418V67.617z M77.465,64.9h-2.418v-2.217h2.418V64.9z M77.465,62.184h-2.418v-2.216h2.418V62.184z
		 M77.465,59.468h-2.418v-2.217h2.418V59.468z M77.465,56.751h-2.418v-2.217h2.418V56.751z M80.371,73.051h-2.416v-2.217h2.416
		V73.051z M80.371,70.334h-2.416v-2.217h2.416V70.334z M80.371,67.617h-2.416V65.4h2.416V67.617z M80.371,64.9h-2.416v-2.217h2.416
		V64.9z M80.371,62.184h-2.416v-2.216h2.416V62.184z M80.371,59.468h-2.416v-2.217h2.416V59.468z M80.371,56.751h-2.416v-2.217
		h2.416V56.751z M80.371,54.034h-2.416v-2.217h2.416V54.034z M80.371,51.317h-2.416v-2.216h2.416V51.317z M80.371,48.602h-2.416
		v-2.443h2.416V48.602z M83.277,73.051h-2.416v-2.217h2.416V73.051z M83.277,70.334h-2.416v-2.217h2.416V70.334z M83.277,67.617
		h-2.416V65.4h2.416V67.617z M83.277,64.9h-2.416v-2.217h2.416V64.9z M83.277,62.184h-2.416v-2.216h2.416V62.184z M83.277,59.468
		h-2.416v-2.217h2.416V59.468z M83.277,56.751h-2.416v-2.217h2.416V56.751z M83.277,54.034h-2.416v-2.217h2.416V54.034z
		 M83.277,51.317h-2.416v-2.216h2.416V51.317z M83.277,48.602h-2.416v-2.443h2.416V48.602z"/>
</g>
<g>
	<path fill-rule="evenodd" clip-rule="evenodd" fill="#A2A2A3" d="M73.107,34.727c-1.518-2.093-3.369-3.842-5.604-5.167
		c-2.291-1.36-4.771-2.087-7.434-2.149c-0.402-0.01-0.801-0.002-1.197,0.018c0.725,0.736,1.418,1.516,2.043,2.379
		c2.133,2.943,3.1,6.104,3.135,10.246c0.002,1.553-0.426,3.631-1.178,5.709c-0.701,1.943-1.732,3.842-3.063,5.643
		c-1.492,2.02-3.107,3.623-4.893,4.861c2.002,2.003,4.004,4.007,6.012,6.005c0.078,0.077,0.238,0.134,0.342,0.112
		c1.531-0.326,2.996-0.849,4.383-1.578c2.584-1.36,4.633-3.336,6.352-5.662c1.225-1.656,2.225-3.441,2.928-5.388
		c0.703-1.948,1.119-3.944,1.117-5.36C76.018,40.408,75.068,37.434,73.107,34.727z"/>
	<path fill-rule="evenodd" clip-rule="evenodd" fill="#E5BB70" d="M43.708,59.354c-0.384-0.025-0.761-0.049-1.136-0.086
		c-1.021-0.1-1.994-0.338-2.939-0.602c-0.831,0.72-1.656,1.446-2.497,2.154c-1.116,0.939-2.269,1.836-3.391,2.77
		c-1.139,0.947-1.129,2.285-0.551,3.42c0.752,1.475,1.882,2.602,3.366,3.322c1.154,0.561,2.341,0.513,3.256-0.563
		c1.195-1.406,2.327-2.866,3.514-4.28c0.945-1.128,1.921-2.229,2.909-3.321c0.2-0.221,0.498-0.389,0.783-0.492
		c1.514-0.557,3.062-0.441,4.563-0.016c1.35,0.384,2.683,0.809,4.083,0.945c0.533,0.052,1.068,0.078,1.623,0.117
		c-1.664-1.664-3.32-3.318-4.979-4.977C48.478,59.658,43.708,59.354,43.708,59.354z"/>
</g>
<circle fill-rule="evenodd" clip-rule="evenodd" fill="#D1D1D1" cx="18.311" cy="21.659" r="5.25"/>
<g>
	<path fill-rule="evenodd" clip-rule="evenodd" fill="#A2A2A3" d="M63.051,40.062c0.002,1.415-0.414,3.411-1.117,5.36
		c-0.703,1.947-1.703,3.732-2.928,5.388c-1.719,2.327-3.768,4.302-6.352,5.663c-1.387,0.729-2.852,1.252-4.383,1.576
		c-0.102,0.022-0.262-0.035-0.34-0.111c-2.414-2.402-4.822-4.811-7.229-7.219c-2.588-2.588-5.176-5.174-7.764-7.762
		c-1.578-1.58-3.16-3.158-4.729-4.748c-0.094-0.096-0.145-0.308-0.113-0.443c0.82-3.678,2.686-6.736,5.498-9.234
		c1.461-1.298,3.035-2.435,4.773-3.319c2.729-1.387,5.613-2.208,8.703-2.135c2.662,0.062,5.141,0.79,7.432,2.149
		c2.234,1.326,4.086,3.074,5.604,5.168C62.068,33.1,63.018,36.076,63.051,40.062z"/>
	<path fill-rule="evenodd" clip-rule="evenodd" fill="#E5BB70" d="M27.77,41.877c5.488,5.486,10.986,10.98,16.521,16.514
		c-0.553-0.04-1.088-0.066-1.621-0.119c-1.402-0.137-2.734-0.561-4.084-0.943c-1.502-0.426-3.049-0.542-4.563,0.014
		c-0.285,0.105-0.584,0.272-0.783,0.494c-0.988,1.09-1.965,2.193-2.91,3.32c-1.186,1.414-2.318,2.874-3.514,4.279
		c-0.914,1.076-2.102,1.123-3.256,0.563c-1.484-0.72-2.613-1.847-3.365-3.323c-0.578-1.135-0.588-2.472,0.551-3.418
		c1.121-0.934,2.273-1.831,3.391-2.771c1.393-1.173,2.779-2.354,4.137-3.569c0.635-0.565,0.768-1.379,0.814-2.185
		c0.088-1.464-0.125-2.875-0.609-4.272C27.965,44.973,27.771,43.41,27.77,41.877z"/>
</g>
</svg>
