<?xml version="1.0" encoding="utf-8"?>
<!-- Generator: Adobe Illustrator 16.0.0, SVG Export Plug-In . SVG Version: 6.00 Build 0)  -->
<!DOCTYPE svg PUBLIC "-//W3C//DTD SVG 1.1//EN" "http://www.w3.org/Graphics/SVG/1.1/DTD/svg11.dtd">
<svg version="1.1" id="Layer_1" xmlns="http://www.w3.org/2000/svg" xmlns:xlink="http://www.w3.org/1999/xlink" x="0px" y="0px"
	 width="86px" height="80px" viewBox="0 0 86 80" enable-background="new 0 0 86 80" xml:space="preserve">
<g>
	<path fill="#F7F2ED" d="M85.999,75.15c0,2.68-2.183,4.85-4.863,4.85H4.86c-2.688,0-4.859-2.172-4.859-4.85V4.85
		C0.001,2.172,2.175,0,4.86,0h76.275c2.684,0,4.863,2.17,4.863,4.85L85.999,75.15L85.999,75.15z"/>
</g>
<polyline fill="none" stroke="#374537" stroke-linecap="round" stroke-miterlimit="10" points="48.061,54.525 43.009,48.33 
	37.958,54.525 "/>
<g enable-background="new    ">
	<path fill="#374537" d="M36.308,70.164V65.92c0-0.398-0.02-0.748-0.053-1.043c-0.033-0.295-0.104-0.543-0.203-0.74
		c-0.1-0.199-0.242-0.352-0.428-0.451c-0.187-0.102-0.428-0.145-0.729-0.145c-0.459,0-0.842,0.139-1.146,0.42
		c-0.305,0.275-0.519,0.629-0.639,1.049v5.16h-1.199v-7.5h0.84l0.227,0.916h0.063c0.271-0.32,0.582-0.582,0.938-0.787
		c0.354-0.205,0.814-0.313,1.389-0.313c0.479,0,0.871,0.094,1.179,0.276c0.307,0.188,0.54,0.508,0.711,0.97
		c0.229-0.394,0.547-0.691,0.952-0.916c0.404-0.222,0.861-0.33,1.373-0.33c0.42,0,0.773,0.049,1.064,0.146
		c0.289,0.096,0.528,0.262,0.721,0.502c0.189,0.239,0.326,0.563,0.412,0.979c0.084,0.41,0.127,0.93,0.127,1.559v4.5h-1.199v-4.514
		c0-0.361-0.02-0.674-0.053-0.938c-0.035-0.269-0.104-0.485-0.211-0.66c-0.104-0.176-0.25-0.305-0.437-0.394
		c-0.185-0.084-0.429-0.127-0.728-0.127c-0.5,0-0.892,0.142-1.17,0.42c-0.281,0.277-0.479,0.683-0.603,1.199v5.01h-1.199
		L36.308,70.164L36.308,70.164z"/>
	<path fill="#374537" d="M48.486,70.164V65.92c0-0.398-0.018-0.748-0.053-1.043s-0.104-0.543-0.203-0.74
		c-0.101-0.199-0.242-0.352-0.428-0.451c-0.188-0.102-0.43-0.145-0.729-0.145c-0.463,0-0.848,0.139-1.146,0.42
		c-0.307,0.275-0.52,0.629-0.639,1.049v5.16h-1.2v-7.5h0.843l0.226,0.916h0.062c0.271-0.32,0.582-0.582,0.938-0.787
		c0.354-0.205,0.815-0.313,1.39-0.313c0.479,0,0.873,0.094,1.178,0.276c0.309,0.185,0.543,0.508,0.713,0.97
		c0.229-0.394,0.549-0.691,0.951-0.916c0.406-0.222,0.863-0.33,1.373-0.33c0.42,0,0.774,0.049,1.063,0.146
		c0.291,0.096,0.528,0.262,0.724,0.502c0.188,0.239,0.328,0.563,0.412,0.979c0.086,0.407,0.127,0.93,0.127,1.559v4.5h-1.199v-4.514
		c0-0.361-0.021-0.674-0.054-0.938c-0.035-0.269-0.104-0.485-0.209-0.66c-0.104-0.176-0.25-0.305-0.438-0.394
		c-0.188-0.084-0.431-0.127-0.729-0.127c-0.5,0-0.892,0.142-1.17,0.42c-0.281,0.277-0.479,0.683-0.603,1.199v5.01h-1.199V70.164
		L48.486,70.164z"/>
</g>
<rect x="1.081" y="29.783" fill="#C99E48" width="83.871" height="12.756"/>
<polyline fill="none" stroke="#374537" stroke-linecap="round" stroke-miterlimit="10" points="48.061,20.162 43.009,26.357 
	37.958,20.162 "/>
<g>
	<polygon fill="#F6F1F2" points="13.894,42.543 6.86,29.783 5.921,29.783 12.952,42.543 	"/>
	<polygon fill="#F6F1F2" points="1.294,29.783 0.353,29.783 7.386,42.543 8.327,42.543 	"/>
	<polygon fill="#F6F1F2" points="1.817,42.543 2.759,42.543 0.065,37.654 0.065,39.361 	"/>
	<polygon fill="#F6F1F2" points="19.462,42.543 12.429,29.783 11.485,29.783 18.521,42.543 	"/>
	<polygon fill="#F6F1F2" points="25.026,42.543 17.997,29.783 17.054,29.783 24.085,42.543 	"/>
	<polygon fill="#F6F1F2" points="30.597,42.543 23.562,29.783 22.62,29.783 29.653,42.543 	"/>
	<polygon fill="#F6F1F2" points="36.161,42.543 29.13,29.783 28.188,29.783 35.224,42.543 	"/>
	<polygon fill="#F6F1F2" points="41.729,42.543 34.696,29.783 33.757,29.783 40.79,42.543 	"/>
	<polygon fill="#F6F1F2" points="47.296,42.543 40.265,29.783 39.323,29.783 46.354,42.543 	"/>
	<polygon fill="#F6F1F2" points="52.859,42.543 45.829,29.783 44.891,29.783 51.923,42.543 	"/>
	<polygon fill="#F6F1F2" points="58.43,42.543 51.396,29.783 50.456,29.783 57.491,42.543 	"/>
	<polygon fill="#F6F1F2" points="63.999,42.543 56.966,29.783 56.023,29.783 63.059,42.543 	"/>
	<polygon fill="#F6F1F2" points="69.563,42.543 62.532,29.783 61.591,29.783 68.628,42.543 	"/>
	<polygon fill="#F6F1F2" points="75.134,42.543 68.1,29.783 67.159,29.783 74.189,42.543 	"/>
	<polygon fill="#F6F1F2" points="80.693,42.543 73.667,29.783 72.727,29.783 79.759,42.543 	"/>
	<polygon fill="#F6F1F2" points="86.266,42.543 79.232,29.783 78.294,29.783 85.327,42.543 	"/>
	<polygon fill="#F6F1F2" points="85.029,30.201 84.8,29.783 83.864,29.783 85.029,31.9 	"/>
</g>
<g>
	<g>
		<path fill="#D1D1D1" d="M81.138,2c1.578,0,2.863,1.279,2.863,2.851v70.297c0,1.57-1.285,2.853-2.863,2.853H4.86
			C3.284,78,2.001,76.721,2.001,75.146V4.851C2.001,3.281,3.284,2,4.86,2H81.138 M81.138,0H4.86C2.173,0,0.001,2.172,0.001,4.851
			v70.297c0,2.681,2.174,4.853,4.859,4.853h76.277c2.683,0,4.863-2.17,4.863-4.853V4.851C86.001,2.172,83.821,0,81.138,0L81.138,0z"
			/>
	</g>
</g>
<rect x="2.081" y="41.854" fill="#C9C8C7" width="81.948" height="2.25"/>
</svg>
