<?xml version="1.0" encoding="utf-8"?>
<!-- Generator: Adobe Illustrator 16.0.0, SVG Export Plug-In . SVG Version: 6.00 Build 0)  -->
<!DOCTYPE svg PUBLIC "-//W3C//DTD SVG 1.1//EN" "http://www.w3.org/Graphics/SVG/1.1/DTD/svg11.dtd">
<svg version="1.1" id="Layer_1" xmlns="http://www.w3.org/2000/svg" xmlns:xlink="http://www.w3.org/1999/xlink" x="0px" y="0px"
	 width="86px" height="80px" viewBox="0 0 86 80" enable-background="new 0 0 86 80" xml:space="preserve">
<g>
	<g>
		<path fill="#F7F2ED" d="M4.859,79C2.73,79,1,77.272,1,75.152V4.847c0-2.121,1.73-3.851,3.859-3.851h76.279
			c2.131,0,3.859,1.729,3.859,3.851v70.306c0,2.12-1.729,3.848-3.857,3.848H4.859z"/>
		<path fill="#D1D1D1" d="M81.141,2c1.576,0,2.857,1.277,2.857,2.85v70.303c0,1.57-1.281,2.848-2.857,2.848H4.859
			C3.282,78,2,76.724,2,75.152V4.85C2,3.277,3.282,2,4.859,2H81.141 M81.141,0H4.859C2.174,0,0,2.172,0,4.85v70.303
			c0,2.676,2.175,4.849,4.859,4.849h76.279c2.686,0,4.859-2.173,4.859-4.849V4.85C85.998,2.172,83.824,0,81.141,0L81.141,0z"/>
	</g>
</g>
<g>
	<circle fill="#E5BB70" cx="63.551" cy="56.296" r="14.185"/>
	<g>
		<path fill="#C99E47" d="M49.709,59.412c2.01-2.188,4.902-3.416,7.854-2.881c5.988,1.086,7.012,13.164,10.648,13.164l0.9-0.343
			c-3.611-0.028-4.83-12.648-11.396-13.777c-3.049-0.522-5.994,0.843-8.174,2.968L49.709,59.412z"/>
	</g>
	<path fill="#C99E47" d="M59.748,69.964c-2.84-1.722-3.418-8.228-1.219-15.213c2.26-7.176,6.635-12.255,9.984-11.747l-0.82-0.275
		c-3.352-0.508-7.721,4.566-9.98,11.74c-2.217,7.042-1.609,13.602,1.293,15.258L59.748,69.964z"/>
	<g>
		<path fill="#C99E47" d="M57.141,43.644c0.982,2.033,2.004,3.521,4.217,4.422c3.824,1.554,8.959-1.419,12.799-1.055l0.689,0.634
			c-5.734,0.525-9.65,3.027-13.855,1.318c-2.43-0.988-3.613-2.637-4.689-4.863L57.141,43.644z"/>
	</g>
	<g>
		<path fill="#C99E47" d="M76.713,61.582c-2.211-2.07-6.736-5.16-11.736-7.896c-6.863-3.75-13.236-5.321-14.264-3.46l-0.375,0.872
			c1.025-1.863,7.359-0.299,14.184,3.421c4.961,2.705,9.641,5.894,11.75,8.057L76.713,61.582z"/>
	</g>
</g>
<polyline fill="none" stroke="#C99E46" stroke-width="2" stroke-miterlimit="10" points="49.975,3.756 49.975,15.339 9.975,15.339 
	9.975,3.756 "/>
<g>
	<polygon fill="#C99E46" points="14.265,30.338 1.884,30.338 1.884,28.338 13.381,28.338 	"/>
</g>
<g>
	<polygon fill="#C99E46" points="20.163,30.338 17.416,30.338 16.749,28.338 19.631,28.338 	"/>
</g>
<g>
	<polygon fill="#C99E46" points="25.976,30.338 22.778,30.338 22.263,28.338 25.495,28.338 	"/>
</g>
<g>
	<polygon fill="#C99E46" points="32.04,30.338 28.646,30.394 28.403,28.338 32.282,28.338 	"/>
</g>
<g>
	<polygon fill="#C99E46" points="37.776,30.338 34.976,30.338 35.19,28.338 38.34,28.338 	"/>
</g>
<g>
	<polygon fill="#C99E46" points="43.148,30.338 40.643,30.338 41.168,28.338 43.916,28.338 	"/>
</g>
<g>
	<polygon fill="#C99E46" points="72.975,30.338 46.422,30.338 46.986,28.338 70.975,28.338 70.975,5.151 72.975,5.151 	"/>
</g>
<g>
	<g>
		
			<line fill="none" stroke="#D1D1D1" stroke-width="0.9318" stroke-miterlimit="10" x1="18.678" y1="22.075" x2="22.75" y2="34.085"/>
		
			<line fill="none" stroke="#D1D1D1" stroke-width="0.9318" stroke-miterlimit="10" x1="25.809" y1="22.325" x2="27.976" y2="34.156"/>
	</g>
	<g>
		
			<line fill="none" stroke="#D1D1D1" stroke-width="0.9318" stroke-miterlimit="10" x1="41.373" y1="22.075" x2="38.325" y2="34.17"/>
		
			<line fill="none" stroke="#D1D1D1" stroke-width="0.9318" stroke-miterlimit="10" x1="34.241" y1="22.325" x2="33.057" y2="34.283"/>
	</g>
	<polyline fill="none" stroke="#D1D1D1" stroke-width="0.9318" stroke-miterlimit="10" points="17.562,48.943 17.562,34.307 
		17.539,34.142 12.809,22.825 	"/>
	<polyline fill="none" stroke="#D1D1D1" stroke-width="0.9318" stroke-miterlimit="10" points="47.27,22.514 43.446,34.298 
		43.446,49.085 	"/>
	<g>
		
			<line fill="none" stroke="#D1D1D1" stroke-width="0.9318" stroke-miterlimit="10" x1="27.878" y1="34.123" x2="43.479" y2="48.301"/>
		
			<line fill="none" stroke="#D1D1D1" stroke-width="0.9318" stroke-miterlimit="10" x1="22.75" y1="34.142" x2="38.665" y2="48.924"/>
		
			<line fill="none" stroke="#D1D1D1" stroke-width="0.9318" stroke-miterlimit="10" x1="17.528" y1="34.141" x2="33.17" y2="48.527"/>
		
			<line fill="none" stroke="#D1D1D1" stroke-width="0.9318" stroke-miterlimit="10" x1="17.539" y1="38.956" x2="27.927" y2="48.533"/>
		
			<line fill="none" stroke="#D1D1D1" stroke-width="0.9318" stroke-miterlimit="10" x1="17.57" y1="43.768" x2="22.95" y2="48.739"/>
		
			<line fill="none" stroke="#D1D1D1" stroke-width="0.9318" stroke-miterlimit="10" x1="33.065" y1="34.172" x2="43.648" y2="43.686"/>
		
			<line fill="none" stroke="#D1D1D1" stroke-width="0.9318" stroke-miterlimit="10" x1="38.296" y1="34.085" x2="43.451" y2="38.729"/>
	</g>
	<g>
		
			<line fill="none" stroke="#D1D1D1" stroke-width="0.9318" stroke-miterlimit="10" x1="33.062" y1="34.225" x2="17.489" y2="48.415"/>
		
			<line fill="none" stroke="#D1D1D1" stroke-width="0.9318" stroke-miterlimit="10" x1="38.302" y1="34.134" x2="22.353" y2="48.839"/>
		
			<line fill="none" stroke="#D1D1D1" stroke-width="0.9318" stroke-miterlimit="10" x1="43.372" y1="34.2" x2="27.535" y2="48.904"/>
		
			<line fill="none" stroke="#D1D1D1" stroke-width="0.9318" stroke-miterlimit="10" x1="43.621" y1="38.786" x2="32.803" y2="48.867"/>
		
			<line fill="none" stroke="#D1D1D1" stroke-width="0.9318" stroke-miterlimit="10" x1="43.337" y1="43.826" x2="38.259" y2="48.552"/>
		
			<line fill="none" stroke="#D1D1D1" stroke-width="0.9318" stroke-miterlimit="10" x1="27.932" y1="34.198" x2="17.533" y2="43.537"/>
		
			<line fill="none" stroke="#D1D1D1" stroke-width="0.9318" stroke-miterlimit="10" x1="22.778" y1="34.085" x2="17.554" y2="38.801"/>
	</g>
	<path fill="#A2A2A3" d="M50.309,21.825c0,0.69-0.559,1.25-1.25,1.25h-38c-0.69,0-1.25-0.56-1.25-1.25l0,0
		c0-0.69,0.56-1.25,1.25-1.25h38C49.75,20.575,50.309,21.135,50.309,21.825L50.309,21.825z"/>
</g>
</svg>
