<?xml version="1.0" encoding="utf-8"?>
<!-- Generator: Adobe Illustrator 16.0.0, SVG Export Plug-In . SVG Version: 6.00 Build 0)  -->
<!DOCTYPE svg PUBLIC "-//W3C//DTD SVG 1.1//EN" "http://www.w3.org/Graphics/SVG/1.1/DTD/svg11.dtd">
<svg version="1.1" id="Layer_1" xmlns="http://www.w3.org/2000/svg" xmlns:xlink="http://www.w3.org/1999/xlink" x="0px" y="0px"
	 width="86px" height="80px" viewBox="0 0 86 80" enable-background="new 0 0 86 80" xml:space="preserve">
<g>
	<g>
		<g>
			<path fill="#F7F2ED" d="M85.998,75.152c0,2.68-2.182,4.85-4.863,4.85H4.859C2.172,80.002,0,77.83,0,75.152V4.851
				C0,2.172,2.174,0,4.859,0h76.275c2.684,0,4.863,2.17,4.863,4.851V75.152L85.998,75.152z"/>
		</g>
		<g>
			<g>
				<path fill="#D1D1D1" d="M81.135,2c1.578,0,2.863,1.279,2.863,2.851v70.302c0,1.572-1.285,2.852-2.863,2.852H4.859
					C3.283,78.004,2,76.725,2,75.152V4.851C2,3.28,3.283,2,4.859,2H81.135 M81.135,0H4.859C2.172,0,0,2.172,0,4.851v70.302
					c0,2.68,2.174,4.852,4.859,4.852h76.275c2.682,0,4.863-2.17,4.863-4.852V4.851C85.998,2.172,83.818,0,81.135,0L81.135,0z"/>
			</g>
		</g>
	</g>
	<g>
		<g>
			<path fill="#C99E48" d="M43.084,28.827c-0.978-1.078-2.519-2.328-3.519-3.286c-3.173-3.042-3.187-6.038-3.187-6.038
				s-1.06,2.343-1.437,4.006c-0.412,1.808,2.625,5.148,4.946,7.601C41.091,30.337,42.175,29.561,43.084,28.827z"/>
			<path fill="#C99E48" d="M42.43,34.09c1.126,1.719,1.432,3.102,1.432,3.102s0.495-2.887,0.682-4.157
				c-0.019-0.356-0.058-0.701-0.117-1.035C43.965,32.6,43.313,33.312,42.43,34.09z"/>
		</g>
		<path fill="#E5BB70" d="M45.979,25.787l-0.604,3.932c0,0-0.983,3.779-8.92,7.861c-3.599,1.851-4.41,3.275-4.561,3.551
			l-0.378-3.477c0,0,1.234-2.493,5.392-4.762C41.295,30.5,45.223,27.525,45.979,25.787z"/>
		<path fill="#C99E48" d="M39.136,16.633c0.28,0.105,0.574,0.216,0.891,0.34c2.053,0.806,6.716,3.189,6.977,3.322l0.563-2.606
			C44.944,16.795,40.784,16.653,39.136,16.633z"/>
		<path fill="#E5BB70" d="M46.131,22.839l0.831-2.571c0,0-4.839-2.495-6.955-3.326c-2.116-0.832-3.401-1.209-3.401-1.209v3.099
			c0,0,0.636,1.042,4.687,2.571C45.299,22.915,45.752,22.839,46.131,22.839z"/>
		<path fill="#E5BB70" d="M36.19,15.614c0,0-4.91,2.28-5.083,3.322c-0.175,1.041,1.039,2.343,1.039,2.343l4.044-4.883V15.614z"/>
		<path fill="#C99E48" d="M31.713,22.495c-0.433,0.694,1.043,1.996,2.085,1.302c0.173,0,2.43-5.642,2.43-5.642l-0.037-1.291
			C36.19,16.864,32.146,21.8,31.713,22.495z"/>
		<path fill="#C99E48" d="M52.782,20.42c0,0-0.654-1.36-0.943-2.495c-2.035,1.109-5.472,6.98-5.472,6.98l-0.701,4.813
			c0,0,4.247-4.469,5.155-5.821C51.839,22.385,52.564,21.404,52.782,20.42z"/>
		<path fill="#A2A2A3" d="M59.586,24.417c-1.024-1.085-2.101-1.682-3.336-1.844l0.207,0.7c0.194,0.836,0.457,2.181,0.631,3.902
			c0.275,2.732,0.357,6.952-0.81,11.538c-2.088,8.211-6.115,11.192-8.313,11.193c-0.212,0-0.417-0.008-0.604-0.084
			c-0.771-0.322-1.441-1.25-1.846-2.528c0.005,0.174,0.009,0.317,0.009,0.405c0,0.605,0.072,14.705,4.385,15.497
			c3.703,0.681,6.501,0.151,6.804-0.454c0.302-0.604,3.703-9.902,2.343-15.346c-1.361-5.442-0.302-9.826,0.832-13.531
			C61.022,30.162,60.87,25.777,59.586,24.417z"/>
		<path fill="#E5BB70" d="M47.439,49.42c0.155,0.064,0.34,0.068,0.526,0.068c2.135,0,6.059-2.941,8.119-11.041
			c1.16-4.559,1.077-8.754,0.804-11.469c-0.17-1.688-0.428-3.02-0.623-3.865l-0.234-0.789c-0.245-0.021-0.495-0.026-0.755-0.015
			c0,0,2.268,7.333,0.076,15.95c-2.192,8.618-6.35,10.811-7.71,10.433s-2.328-4.933-2.328-4.933s0.237,2.697,0.25,2.75
			C45.867,47.758,46.508,49.032,47.439,49.42z"/>
		<path fill="#E5BB70" d="M45.439,30.83c0,0,4.728,3.197,10.367,5.086c0.073,0.227-0.743,3.554-0.743,3.554
			s-4.007-1.588-5.787-2.646c-2.026-1.203-3.836-2.528-4.42-2.945C44.939,32.838,45.272,31.588,45.439,30.83z"/>
		<path fill="#E5BB70" d="M47.63,17.5l0.169,0.058l-0.267,1.236l4.268-0.651l-0.832-3.478c-3.586,0.121-6.775,1.512-7.182,2.053
			C45.139,16.877,46.52,17.121,47.63,17.5z"/>
		<path fill="#A2A2A3" d="M45.374,55.184c-0.198-2.781-0.299-5.783-0.323-7.756c-0.112,0.531-0.284,1.076-0.558,1.522
			c-0.403,0.656-0.511,0.767-0.823,1.048c-0.896,0.807-2.131,1.233-3.568,1.233c-2.578,0-5.331-1.351-6.695-3.283
			c-0.292-0.411-1.008-1.781-1.342-2.651c-0.62-1.616-1.246-5.057-1.273-5.224c-0.378-2.797-0.367-5.797,0.028-8.681
			c0.199-1.436,0.495-2.766,0.879-3.955l0.497-1.425c-1.585,1.632-2.665,3.639-3.301,4.679c-0.832,1.359-0.528,4.535,0.378,6.879
			c0.907,2.343,2.646,6.955,2.118,8.541c-0.53,1.588-2.798,5.896-0.757,12.7c2.04,6.804,2.269,8.617,3.553,8.769
			c0.675,0.08,7.387-0.473,7.862-0.529C43.332,66.9,45.676,59.416,45.374,55.184z"/>
		<path fill="#E5BB70" d="M45.072,45.139c0.074-0.83-0.228-5.82-0.983-7.71c-0.228,0.302,0.228,2.192,0.228,2.569
			c0,0.379,0.982,7.031-1.285,9.072s-7.03,0.68-8.845-1.891s-3.396-8.777-2.419-15.874c0.83-6.048,3.11-7.593,2.04-6.88
			c-0.596,0.398-1.233,0.984-1.284,1.034l-0.635,1.823c-0.334,1.032-0.65,2.326-0.871,3.92c-0.396,2.888-0.404,5.842-0.029,8.621
			c0,0,0.77,4.002,1.252,5.161c0.575,1.382,0.842,1.942,1.329,2.631c1.329,1.883,4.015,3.198,6.532,3.198l0,0
			c1.388,0,2.576-0.41,3.435-1.183c0.301-0.271,0.397-0.37,0.786-1.003C45.072,47.406,45.049,45.383,45.072,45.139z"/>
	</g>
</g>
</svg>
