<?xml version="1.0" encoding="utf-8"?>
<!-- Generator: Adobe Illustrator 16.0.0, SVG Export Plug-In . SVG Version: 6.00 Build 0)  -->
<!DOCTYPE svg PUBLIC "-//W3C//DTD SVG 1.1//EN" "http://www.w3.org/Graphics/SVG/1.1/DTD/svg11.dtd">
<svg version="1.1" id="Layer_1" xmlns="http://www.w3.org/2000/svg" xmlns:xlink="http://www.w3.org/1999/xlink" x="0px" y="0px"
	 width="86px" height="80px" viewBox="0 0 86 80" enable-background="new 0 0 86 80" xml:space="preserve">
<g>
	<g>
		<path fill="#F7F2ED" d="M4.861,79c-2.13,0-3.859-1.728-3.859-3.848V4.847c0-2.121,1.729-3.851,3.859-3.851H81.14
			c2.131,0,3.86,1.729,3.86,3.851v70.306C85,77.272,83.271,79,81.142,79H4.861z"/>
		<path fill="#D1D1D1" d="M81.142,2C82.718,2,84,3.277,84,4.85v70.303C84,76.723,82.718,78,81.142,78H4.861
			c-1.578,0-2.859-1.276-2.859-2.848V4.85C2.002,3.277,3.283,2,4.861,2H81.142 M81.142,0H4.861C2.176,0,0.002,2.172,0.002,4.85
			v70.303c0,2.676,2.175,4.849,4.859,4.849H81.14c2.687,0,4.86-2.173,4.86-4.849V4.85C86,2.172,83.826,0,81.142,0L81.142,0z"/>
	</g>
</g>
<g>
	<circle fill="#D1D1D1" cx="29.623" cy="36.497" r="13.352"/>
	<g>
		<path fill="#A2A2A3" d="M16.595,39.429c1.892-2.06,4.614-3.214,7.392-2.711c5.637,1.022,6.601,12.39,10.024,12.39l0.847-0.322
			c-3.399-0.026-4.547-11.905-10.728-12.968c-2.869-0.492-5.642,0.793-7.692,2.793L16.595,39.429z"/>
	</g>
	<path fill="#A2A2A3" d="M26.044,49.361c-2.673-1.62-3.218-7.744-1.146-14.319c2.127-6.754,6.244-11.535,9.398-11.057l-0.772-0.259
		c-3.154-0.479-7.268,4.298-9.395,11.05c-2.087,6.627-1.516,12.802,1.216,14.362L26.044,49.361z"/>
	<g>
		<path fill="#A2A2A3" d="M23.59,24.587c0.925,1.914,1.887,3.314,3.969,4.162c3.6,1.462,8.434-1.336,12.047-0.993l0.649,0.596
			c-5.397,0.494-9.084,2.849-13.042,1.241c-2.287-0.93-3.401-2.481-4.414-4.577L23.59,24.587z"/>
	</g>
	<g>
		<path fill="#A2A2A3" d="M42.014,41.473c-2.083-1.95-6.342-4.858-11.048-7.433c-6.46-3.531-12.459-5.009-13.425-3.257l-0.355,0.821
			c0.967-1.754,6.928-0.282,13.352,3.22c4.669,2.546,9.074,5.547,11.06,7.583L42.014,41.473z"/>
	</g>
</g>
<g>
	<rect x="2.056" y="60.687" fill="#C99E48" width="81.892" height="3.49"/>
</g>
<rect x="2" y="63.522" fill="#E5BB70" width="81.891" height="3.965"/>
<g>
	<g>
		<path fill="#C99E48" stroke="#FFFFFF" stroke-width="0.5282" stroke-miterlimit="10" d="M29.696,16.57
			c-0.006,0.976-1.634,1.352-3.29,1.672c-1.655,0.321-3.305,0.928-4.729,1.359c-1.424,0.429-0.281-2.517-0.281-2.517
			S29.709,14.393,29.696,16.57z"/>
		<path fill="#C99E48" stroke="#FFFFFF" stroke-width="0.5282" stroke-miterlimit="10" d="M30.809,14.886
			c0.011,0.583-0.551,1.157-3.063,1.61c-2.512,0.452-5.533,1.259-5.533,1.259l-5.667,3.096l0.263-3.902
			C16.809,16.949,30.743,11.734,30.809,14.886z"/>
		<path fill="#C99E48" stroke="#FFFFFF" stroke-width="0.5282" stroke-miterlimit="10" d="M8.926,26.567
			c0.459,0.042,3.844,0.208,4.816,0.131c0.973-0.078,3.596-0.762,5.1-2.799c0,0,1.063-1.175,1.736-1.983
			c1.512-1.808,4.693-3.134,4.668-4.394c-0.023-1.095-0.895-1.644-1.519-1.345s-5.313,3.725-5.948,3.389
			c-0.521-0.276,4.854-3.709,5.246-4.062c0.395-0.352,5.822-1.208,6.395-1.22c0.572-0.012,2.683-0.384,2.373-1.654
			c-0.25-1.026-1.164-0.893-2.022-0.817c-0.858,0.074-7.317,0.895-8.118,0.968c-0.801,0.074-2.453,0.509-3.238,1.385
			c-0.784,0.875-5.689,4.874-5.969,5.166c-0.281,0.292-0.391,0.523-2.108,0.615c-1.718,0.094-1.784-0.42-1.778,2.731
			C8.566,25.83,8.408,26.52,8.926,26.567z"/>
	</g>
	<path fill="#D1D1D1" d="M8.127,28.317c0,0.56-0.295,0.591-1.013,0.591H4.707c-0.76,0-1.014-0.031-1.014-0.591v-9.163
		c0-0.56,0.158-0.633,0.719-0.633h2.702c0.802-0.042,1.013-0.01,1.013,0.549V28.317z"/>
</g>
<g>
	<g>
		<polyline fill="none" stroke="#C99E48" stroke-linecap="round" stroke-linejoin="round" stroke-miterlimit="10" points="
			63.862,34.792 69.242,32.498 68.939,38.338 		"/>
	</g>
	<g>
		<g>
			
				<rect x="38.597" y="49.751" transform="matrix(0.6114 0.7913 -0.7913 0.6114 55.4461 -12.3995)" fill="#C99E48" width="3.5" height="1"/>
		</g>
		<g>
			
				<rect x="41.741" y="54.633" transform="matrix(0.6115 0.7912 -0.7912 0.6115 60.7647 -13.4906)" fill="#C99E48" width="4.759" height="1"/>
		</g>
		<g>
			<path fill="#C99E48" d="M48.963,61.899c-0.154,0-0.301-0.072-0.396-0.194l-2.14-2.77l0.791-0.611l1.724,2.231l2.599-3.678
				l0.82,0.572l-2.988,4.235c-0.092,0.13-0.238,0.21-0.398,0.214C48.971,61.899,48.967,61.899,48.963,61.899z"/>
		</g>
		<g>
			<path fill="#C99E48" d="M54.193,54.866l-0.82-0.572l3.071-4.511l0.82,0.572L54.193,54.866z M59.432,47.271l-0.82-0.572
				l3.43-5.072l0.82,0.572L59.432,47.271z M65.264,39.188l-0.82-0.572l3.918-5.833l0.82,0.572L65.264,39.188z"/>
		</g>
	</g>
</g>
</svg>
