<?xml version="1.0" encoding="utf-8"?>
<!-- Generator: Adobe Illustrator 16.0.0, SVG Export Plug-In . SVG Version: 6.00 Build 0)  -->
<!DOCTYPE svg PUBLIC "-//W3C//DTD SVG 1.1//EN" "http://www.w3.org/Graphics/SVG/1.1/DTD/svg11.dtd">
<svg version="1.1" id="Layer_1" xmlns="http://www.w3.org/2000/svg" xmlns:xlink="http://www.w3.org/1999/xlink" x="0px" y="0px"
	 width="86px" height="98px" viewBox="0 0 86 98" enable-background="new 0 0 86 98" xml:space="preserve">
<g>
	<g>
		<path fill="none" stroke="#FFFFFF" stroke-width="2" stroke-miterlimit="10" d="M23.969,47.078v15.644
			c0,0.564,0.207,1.054,0.619,1.466c0.413,0.413,0.902,0.62,1.467,0.62h12.513V52.293h8.344v12.515h12.514
			c0.565,0,1.055-0.207,1.467-0.62c0.414-0.411,0.62-0.901,0.62-1.466V47.078"/>
		<path fill="none" stroke="#FFFFFF" stroke-width="2" stroke-miterlimit="10" d="M68.649,43.363l-11.115-9.351l0.034-9.877
			c0-0.305-0.099-0.555-0.295-0.75c-0.194-0.196-0.444-0.293-0.748-0.293h-2.313c-0.304,0-0.553,0.097-0.748,0.293
			c-0.196,0.195-0.294,0.446-0.294,0.75v6.354l-7.951-6.648c-0.694-0.565-1.521-0.847-2.477-0.847s-1.783,0.282-2.477,0.847
			L16.832,43.363c-0.217,0.173-0.336,0.407-0.358,0.7c-0.022,0.293,0.054,0.549,0.228,0.767l2.02,2.412
			c0.175,0.195,0.403,0.314,0.685,0.358c0.261,0.021,0.522-0.055,0.783-0.229l22.552-18.805l22.553,18.805
			c0.174,0.151,0.402,0.228,0.685,0.228h0.098c0.281-0.043,0.51-0.163,0.684-0.358l2.021-2.412c0.174-0.218,0.25-0.474,0.228-0.767
			C68.986,43.771,68.867,43.537,68.649,43.363z"/>
	</g>
</g>
</svg>
